G04 MADE WITH FRITZING*
G04 WWW.FRITZING.ORG*
G04 DOUBLE SIDED*
G04 HOLES PLATED*
G04 CONTOUR ON CENTER OF CONTOUR VECTOR*
%ASAXBY*%
%FSLAX23Y23*%
%MOIN*%
%OFA0B0*%
%SFA1.0B1.0*%
%ADD10R,0.001000X0.001000*%
%LNSILK0*%
G90*
G70*
G54D10*
X940Y2480D02*
X945Y2480D01*
X1078Y2480D02*
X1082Y2480D01*
X1215Y2480D02*
X1220Y2480D01*
X1353Y2480D02*
X1358Y2480D01*
X939Y2479D02*
X946Y2479D01*
X1077Y2479D02*
X1084Y2479D01*
X1214Y2479D02*
X1221Y2479D01*
X1352Y2479D02*
X1359Y2479D01*
X938Y2478D02*
X947Y2478D01*
X1076Y2478D02*
X1084Y2478D01*
X1214Y2478D02*
X1222Y2478D01*
X1351Y2478D02*
X1359Y2478D01*
X903Y2477D02*
X915Y2477D01*
X938Y2477D02*
X947Y2477D01*
X1041Y2477D02*
X1053Y2477D01*
X1076Y2477D02*
X1084Y2477D01*
X1178Y2477D02*
X1190Y2477D01*
X1213Y2477D02*
X1222Y2477D01*
X1316Y2477D02*
X1328Y2477D01*
X1351Y2477D02*
X1360Y2477D01*
X902Y2476D02*
X916Y2476D01*
X938Y2476D02*
X947Y2476D01*
X1040Y2476D02*
X1054Y2476D01*
X1076Y2476D02*
X1084Y2476D01*
X1177Y2476D02*
X1191Y2476D01*
X1213Y2476D02*
X1222Y2476D01*
X1315Y2476D02*
X1329Y2476D01*
X1351Y2476D02*
X1360Y2476D01*
X902Y2475D02*
X917Y2475D01*
X938Y2475D02*
X947Y2475D01*
X1040Y2475D02*
X1054Y2475D01*
X1076Y2475D02*
X1084Y2475D01*
X1177Y2475D02*
X1192Y2475D01*
X1213Y2475D02*
X1222Y2475D01*
X1315Y2475D02*
X1329Y2475D01*
X1351Y2475D02*
X1360Y2475D01*
X902Y2474D02*
X917Y2474D01*
X938Y2474D02*
X947Y2474D01*
X1039Y2474D02*
X1054Y2474D01*
X1076Y2474D02*
X1084Y2474D01*
X1177Y2474D02*
X1192Y2474D01*
X1213Y2474D02*
X1222Y2474D01*
X1315Y2474D02*
X1329Y2474D01*
X1351Y2474D02*
X1359Y2474D01*
X902Y2473D02*
X916Y2473D01*
X939Y2473D02*
X946Y2473D01*
X1039Y2473D02*
X1054Y2473D01*
X1076Y2473D02*
X1084Y2473D01*
X1177Y2473D02*
X1191Y2473D01*
X1214Y2473D02*
X1222Y2473D01*
X1315Y2473D02*
X1329Y2473D01*
X1351Y2473D02*
X1359Y2473D01*
X902Y2472D02*
X915Y2472D01*
X940Y2472D02*
X946Y2472D01*
X1039Y2472D02*
X1053Y2472D01*
X1077Y2472D02*
X1083Y2472D01*
X1177Y2472D02*
X1191Y2472D01*
X1215Y2472D02*
X1221Y2472D01*
X1315Y2472D02*
X1328Y2472D01*
X1352Y2472D02*
X1358Y2472D01*
X902Y2471D02*
X907Y2471D01*
X1039Y2471D02*
X1045Y2471D01*
X1177Y2471D02*
X1183Y2471D01*
X1315Y2471D02*
X1320Y2471D01*
X902Y2470D02*
X907Y2470D01*
X1039Y2470D02*
X1045Y2470D01*
X1177Y2470D02*
X1182Y2470D01*
X1315Y2470D02*
X1320Y2470D01*
X902Y2469D02*
X907Y2469D01*
X1039Y2469D02*
X1045Y2469D01*
X1177Y2469D02*
X1182Y2469D01*
X1315Y2469D02*
X1320Y2469D01*
X902Y2468D02*
X907Y2468D01*
X1039Y2468D02*
X1045Y2468D01*
X1177Y2468D02*
X1182Y2468D01*
X1315Y2468D02*
X1320Y2468D01*
X902Y2467D02*
X907Y2467D01*
X1039Y2467D02*
X1045Y2467D01*
X1177Y2467D02*
X1182Y2467D01*
X1315Y2467D02*
X1320Y2467D01*
X902Y2466D02*
X907Y2466D01*
X1039Y2466D02*
X1045Y2466D01*
X1177Y2466D02*
X1182Y2466D01*
X1315Y2466D02*
X1320Y2466D01*
X902Y2465D02*
X907Y2465D01*
X1039Y2465D02*
X1045Y2465D01*
X1177Y2465D02*
X1182Y2465D01*
X1315Y2465D02*
X1320Y2465D01*
X846Y2464D02*
X861Y2464D01*
X902Y2464D02*
X907Y2464D01*
X941Y2464D02*
X954Y2464D01*
X983Y2464D02*
X999Y2464D01*
X1039Y2464D02*
X1045Y2464D01*
X1078Y2464D02*
X1092Y2464D01*
X1121Y2464D02*
X1136Y2464D01*
X1177Y2464D02*
X1182Y2464D01*
X1216Y2464D02*
X1229Y2464D01*
X1258Y2464D02*
X1274Y2464D01*
X1315Y2464D02*
X1320Y2464D01*
X1353Y2464D02*
X1367Y2464D01*
X844Y2463D02*
X864Y2463D01*
X902Y2463D02*
X907Y2463D01*
X939Y2463D02*
X956Y2463D01*
X982Y2463D02*
X1001Y2463D01*
X1039Y2463D02*
X1045Y2463D01*
X1077Y2463D02*
X1093Y2463D01*
X1119Y2463D02*
X1139Y2463D01*
X1177Y2463D02*
X1182Y2463D01*
X1214Y2463D02*
X1231Y2463D01*
X1257Y2463D02*
X1276Y2463D01*
X1315Y2463D02*
X1320Y2463D01*
X1352Y2463D02*
X1368Y2463D01*
X844Y2462D02*
X865Y2462D01*
X902Y2462D02*
X907Y2462D01*
X939Y2462D02*
X956Y2462D01*
X981Y2462D02*
X1003Y2462D01*
X1039Y2462D02*
X1045Y2462D01*
X1076Y2462D02*
X1094Y2462D01*
X1119Y2462D02*
X1141Y2462D01*
X1177Y2462D02*
X1182Y2462D01*
X1214Y2462D02*
X1231Y2462D01*
X1256Y2462D02*
X1278Y2462D01*
X1315Y2462D02*
X1320Y2462D01*
X1351Y2462D02*
X1369Y2462D01*
X843Y2461D02*
X867Y2461D01*
X902Y2461D02*
X907Y2461D01*
X938Y2461D02*
X956Y2461D01*
X981Y2461D02*
X1004Y2461D01*
X1039Y2461D02*
X1045Y2461D01*
X1076Y2461D02*
X1094Y2461D01*
X1119Y2461D02*
X1142Y2461D01*
X1177Y2461D02*
X1182Y2461D01*
X1213Y2461D02*
X1231Y2461D01*
X1256Y2461D02*
X1279Y2461D01*
X1315Y2461D02*
X1320Y2461D01*
X1351Y2461D02*
X1369Y2461D01*
X844Y2460D02*
X868Y2460D01*
X902Y2460D02*
X907Y2460D01*
X938Y2460D02*
X956Y2460D01*
X981Y2460D02*
X1005Y2460D01*
X1039Y2460D02*
X1045Y2460D01*
X1076Y2460D02*
X1094Y2460D01*
X1119Y2460D02*
X1143Y2460D01*
X1177Y2460D02*
X1182Y2460D01*
X1213Y2460D02*
X1231Y2460D01*
X1256Y2460D02*
X1280Y2460D01*
X1315Y2460D02*
X1320Y2460D01*
X1351Y2460D02*
X1369Y2460D01*
X844Y2459D02*
X869Y2459D01*
X902Y2459D02*
X907Y2459D01*
X938Y2459D02*
X956Y2459D01*
X982Y2459D02*
X1006Y2459D01*
X1039Y2459D02*
X1045Y2459D01*
X1076Y2459D02*
X1093Y2459D01*
X1119Y2459D02*
X1144Y2459D01*
X1177Y2459D02*
X1182Y2459D01*
X1213Y2459D02*
X1231Y2459D01*
X1257Y2459D02*
X1281Y2459D01*
X1315Y2459D02*
X1320Y2459D01*
X1351Y2459D02*
X1368Y2459D01*
X846Y2458D02*
X870Y2458D01*
X902Y2458D02*
X907Y2458D01*
X938Y2458D02*
X954Y2458D01*
X983Y2458D02*
X1007Y2458D01*
X1039Y2458D02*
X1045Y2458D01*
X1076Y2458D02*
X1092Y2458D01*
X1121Y2458D02*
X1145Y2458D01*
X1177Y2458D02*
X1182Y2458D01*
X1213Y2458D02*
X1229Y2458D01*
X1258Y2458D02*
X1283Y2458D01*
X1315Y2458D02*
X1320Y2458D01*
X1351Y2458D02*
X1367Y2458D01*
X862Y2457D02*
X871Y2457D01*
X902Y2457D02*
X907Y2457D01*
X938Y2457D02*
X944Y2457D01*
X1000Y2457D02*
X1008Y2457D01*
X1039Y2457D02*
X1045Y2457D01*
X1076Y2457D02*
X1081Y2457D01*
X1137Y2457D02*
X1146Y2457D01*
X1177Y2457D02*
X1182Y2457D01*
X1213Y2457D02*
X1219Y2457D01*
X1275Y2457D02*
X1284Y2457D01*
X1315Y2457D02*
X1320Y2457D01*
X1351Y2457D02*
X1356Y2457D01*
X863Y2456D02*
X872Y2456D01*
X902Y2456D02*
X907Y2456D01*
X938Y2456D02*
X944Y2456D01*
X1001Y2456D02*
X1009Y2456D01*
X1039Y2456D02*
X1045Y2456D01*
X1076Y2456D02*
X1081Y2456D01*
X1138Y2456D02*
X1147Y2456D01*
X1177Y2456D02*
X1182Y2456D01*
X1213Y2456D02*
X1219Y2456D01*
X1276Y2456D02*
X1284Y2456D01*
X1315Y2456D02*
X1320Y2456D01*
X1351Y2456D02*
X1356Y2456D01*
X864Y2455D02*
X873Y2455D01*
X902Y2455D02*
X907Y2455D01*
X938Y2455D02*
X944Y2455D01*
X1002Y2455D02*
X1010Y2455D01*
X1039Y2455D02*
X1045Y2455D01*
X1076Y2455D02*
X1081Y2455D01*
X1140Y2455D02*
X1148Y2455D01*
X1177Y2455D02*
X1182Y2455D01*
X1213Y2455D02*
X1219Y2455D01*
X1277Y2455D02*
X1285Y2455D01*
X1315Y2455D02*
X1320Y2455D01*
X1351Y2455D02*
X1356Y2455D01*
X866Y2454D02*
X873Y2454D01*
X902Y2454D02*
X907Y2454D01*
X938Y2454D02*
X944Y2454D01*
X1003Y2454D02*
X1011Y2454D01*
X1039Y2454D02*
X1045Y2454D01*
X1076Y2454D02*
X1081Y2454D01*
X1141Y2454D02*
X1148Y2454D01*
X1177Y2454D02*
X1182Y2454D01*
X1213Y2454D02*
X1219Y2454D01*
X1278Y2454D02*
X1286Y2454D01*
X1315Y2454D02*
X1320Y2454D01*
X1351Y2454D02*
X1356Y2454D01*
X867Y2453D02*
X874Y2453D01*
X902Y2453D02*
X907Y2453D01*
X938Y2453D02*
X944Y2453D01*
X1004Y2453D02*
X1011Y2453D01*
X1039Y2453D02*
X1045Y2453D01*
X1076Y2453D02*
X1081Y2453D01*
X1142Y2453D02*
X1149Y2453D01*
X1177Y2453D02*
X1182Y2453D01*
X1213Y2453D02*
X1219Y2453D01*
X1279Y2453D02*
X1286Y2453D01*
X1315Y2453D02*
X1320Y2453D01*
X1351Y2453D02*
X1356Y2453D01*
X868Y2452D02*
X874Y2452D01*
X902Y2452D02*
X907Y2452D01*
X938Y2452D02*
X944Y2452D01*
X1005Y2452D02*
X1011Y2452D01*
X1039Y2452D02*
X1045Y2452D01*
X1076Y2452D02*
X1081Y2452D01*
X1143Y2452D02*
X1149Y2452D01*
X1177Y2452D02*
X1182Y2452D01*
X1213Y2452D02*
X1219Y2452D01*
X1280Y2452D02*
X1286Y2452D01*
X1315Y2452D02*
X1320Y2452D01*
X1351Y2452D02*
X1356Y2452D01*
X868Y2451D02*
X874Y2451D01*
X902Y2451D02*
X907Y2451D01*
X938Y2451D02*
X944Y2451D01*
X1006Y2451D02*
X1011Y2451D01*
X1039Y2451D02*
X1045Y2451D01*
X1076Y2451D02*
X1081Y2451D01*
X1144Y2451D02*
X1149Y2451D01*
X1177Y2451D02*
X1182Y2451D01*
X1213Y2451D02*
X1219Y2451D01*
X1281Y2451D02*
X1287Y2451D01*
X1315Y2451D02*
X1320Y2451D01*
X1351Y2451D02*
X1356Y2451D01*
X869Y2450D02*
X874Y2450D01*
X902Y2450D02*
X907Y2450D01*
X938Y2450D02*
X944Y2450D01*
X1006Y2450D02*
X1012Y2450D01*
X1039Y2450D02*
X1045Y2450D01*
X1076Y2450D02*
X1081Y2450D01*
X1144Y2450D02*
X1149Y2450D01*
X1177Y2450D02*
X1182Y2450D01*
X1213Y2450D02*
X1219Y2450D01*
X1281Y2450D02*
X1287Y2450D01*
X1315Y2450D02*
X1320Y2450D01*
X1351Y2450D02*
X1356Y2450D01*
X869Y2449D02*
X874Y2449D01*
X902Y2449D02*
X907Y2449D01*
X938Y2449D02*
X944Y2449D01*
X1006Y2449D02*
X1012Y2449D01*
X1039Y2449D02*
X1045Y2449D01*
X1076Y2449D02*
X1081Y2449D01*
X1144Y2449D02*
X1149Y2449D01*
X1177Y2449D02*
X1182Y2449D01*
X1213Y2449D02*
X1219Y2449D01*
X1281Y2449D02*
X1287Y2449D01*
X1315Y2449D02*
X1320Y2449D01*
X1351Y2449D02*
X1356Y2449D01*
X869Y2448D02*
X874Y2448D01*
X902Y2448D02*
X907Y2448D01*
X938Y2448D02*
X944Y2448D01*
X1006Y2448D02*
X1012Y2448D01*
X1039Y2448D02*
X1045Y2448D01*
X1076Y2448D02*
X1081Y2448D01*
X1144Y2448D02*
X1149Y2448D01*
X1177Y2448D02*
X1182Y2448D01*
X1213Y2448D02*
X1219Y2448D01*
X1281Y2448D02*
X1287Y2448D01*
X1315Y2448D02*
X1320Y2448D01*
X1351Y2448D02*
X1356Y2448D01*
X869Y2447D02*
X874Y2447D01*
X902Y2447D02*
X907Y2447D01*
X938Y2447D02*
X944Y2447D01*
X1006Y2447D02*
X1012Y2447D01*
X1039Y2447D02*
X1045Y2447D01*
X1076Y2447D02*
X1081Y2447D01*
X1144Y2447D02*
X1149Y2447D01*
X1177Y2447D02*
X1182Y2447D01*
X1213Y2447D02*
X1219Y2447D01*
X1281Y2447D02*
X1287Y2447D01*
X1315Y2447D02*
X1320Y2447D01*
X1351Y2447D02*
X1356Y2447D01*
X869Y2446D02*
X874Y2446D01*
X902Y2446D02*
X907Y2446D01*
X938Y2446D02*
X944Y2446D01*
X1006Y2446D02*
X1012Y2446D01*
X1039Y2446D02*
X1045Y2446D01*
X1076Y2446D02*
X1081Y2446D01*
X1144Y2446D02*
X1149Y2446D01*
X1177Y2446D02*
X1182Y2446D01*
X1213Y2446D02*
X1219Y2446D01*
X1281Y2446D02*
X1287Y2446D01*
X1315Y2446D02*
X1320Y2446D01*
X1351Y2446D02*
X1356Y2446D01*
X869Y2445D02*
X874Y2445D01*
X902Y2445D02*
X907Y2445D01*
X938Y2445D02*
X944Y2445D01*
X1006Y2445D02*
X1012Y2445D01*
X1039Y2445D02*
X1045Y2445D01*
X1076Y2445D02*
X1081Y2445D01*
X1144Y2445D02*
X1149Y2445D01*
X1177Y2445D02*
X1182Y2445D01*
X1213Y2445D02*
X1219Y2445D01*
X1281Y2445D02*
X1287Y2445D01*
X1315Y2445D02*
X1320Y2445D01*
X1351Y2445D02*
X1356Y2445D01*
X869Y2444D02*
X874Y2444D01*
X902Y2444D02*
X907Y2444D01*
X938Y2444D02*
X944Y2444D01*
X1006Y2444D02*
X1012Y2444D01*
X1039Y2444D02*
X1045Y2444D01*
X1076Y2444D02*
X1081Y2444D01*
X1144Y2444D02*
X1149Y2444D01*
X1177Y2444D02*
X1182Y2444D01*
X1213Y2444D02*
X1219Y2444D01*
X1281Y2444D02*
X1287Y2444D01*
X1315Y2444D02*
X1320Y2444D01*
X1351Y2444D02*
X1356Y2444D01*
X869Y2443D02*
X874Y2443D01*
X902Y2443D02*
X907Y2443D01*
X938Y2443D02*
X944Y2443D01*
X1006Y2443D02*
X1012Y2443D01*
X1039Y2443D02*
X1045Y2443D01*
X1076Y2443D02*
X1081Y2443D01*
X1144Y2443D02*
X1149Y2443D01*
X1177Y2443D02*
X1182Y2443D01*
X1213Y2443D02*
X1219Y2443D01*
X1281Y2443D02*
X1287Y2443D01*
X1315Y2443D02*
X1320Y2443D01*
X1351Y2443D02*
X1356Y2443D01*
X869Y2442D02*
X874Y2442D01*
X902Y2442D02*
X907Y2442D01*
X938Y2442D02*
X944Y2442D01*
X1006Y2442D02*
X1012Y2442D01*
X1039Y2442D02*
X1045Y2442D01*
X1076Y2442D02*
X1081Y2442D01*
X1144Y2442D02*
X1149Y2442D01*
X1177Y2442D02*
X1182Y2442D01*
X1213Y2442D02*
X1219Y2442D01*
X1281Y2442D02*
X1287Y2442D01*
X1315Y2442D02*
X1320Y2442D01*
X1351Y2442D02*
X1356Y2442D01*
X868Y2441D02*
X874Y2441D01*
X902Y2441D02*
X907Y2441D01*
X938Y2441D02*
X944Y2441D01*
X1006Y2441D02*
X1011Y2441D01*
X1039Y2441D02*
X1045Y2441D01*
X1076Y2441D02*
X1081Y2441D01*
X1143Y2441D02*
X1149Y2441D01*
X1177Y2441D02*
X1182Y2441D01*
X1213Y2441D02*
X1219Y2441D01*
X1281Y2441D02*
X1287Y2441D01*
X1315Y2441D02*
X1320Y2441D01*
X1351Y2441D02*
X1356Y2441D01*
X867Y2440D02*
X874Y2440D01*
X902Y2440D02*
X907Y2440D01*
X938Y2440D02*
X944Y2440D01*
X1005Y2440D02*
X1011Y2440D01*
X1039Y2440D02*
X1045Y2440D01*
X1076Y2440D02*
X1081Y2440D01*
X1143Y2440D02*
X1149Y2440D01*
X1177Y2440D02*
X1182Y2440D01*
X1213Y2440D02*
X1219Y2440D01*
X1280Y2440D02*
X1286Y2440D01*
X1315Y2440D02*
X1320Y2440D01*
X1351Y2440D02*
X1356Y2440D01*
X866Y2439D02*
X873Y2439D01*
X902Y2439D02*
X907Y2439D01*
X938Y2439D02*
X944Y2439D01*
X1004Y2439D02*
X1011Y2439D01*
X1039Y2439D02*
X1045Y2439D01*
X1076Y2439D02*
X1081Y2439D01*
X1141Y2439D02*
X1148Y2439D01*
X1177Y2439D02*
X1182Y2439D01*
X1213Y2439D02*
X1219Y2439D01*
X1279Y2439D02*
X1286Y2439D01*
X1315Y2439D02*
X1320Y2439D01*
X1351Y2439D02*
X1356Y2439D01*
X865Y2438D02*
X873Y2438D01*
X902Y2438D02*
X907Y2438D01*
X938Y2438D02*
X944Y2438D01*
X1003Y2438D02*
X1010Y2438D01*
X1039Y2438D02*
X1045Y2438D01*
X1076Y2438D02*
X1081Y2438D01*
X1140Y2438D02*
X1148Y2438D01*
X1177Y2438D02*
X1182Y2438D01*
X1213Y2438D02*
X1219Y2438D01*
X1278Y2438D02*
X1286Y2438D01*
X1315Y2438D02*
X1320Y2438D01*
X1351Y2438D02*
X1356Y2438D01*
X864Y2437D02*
X872Y2437D01*
X902Y2437D02*
X907Y2437D01*
X938Y2437D02*
X944Y2437D01*
X1002Y2437D02*
X1010Y2437D01*
X1039Y2437D02*
X1045Y2437D01*
X1076Y2437D02*
X1081Y2437D01*
X1139Y2437D02*
X1147Y2437D01*
X1177Y2437D02*
X1182Y2437D01*
X1213Y2437D02*
X1219Y2437D01*
X1277Y2437D02*
X1285Y2437D01*
X1315Y2437D02*
X1320Y2437D01*
X1351Y2437D02*
X1356Y2437D01*
X863Y2436D02*
X871Y2436D01*
X902Y2436D02*
X907Y2436D01*
X938Y2436D02*
X944Y2436D01*
X1000Y2436D02*
X1009Y2436D01*
X1039Y2436D02*
X1045Y2436D01*
X1076Y2436D02*
X1081Y2436D01*
X1138Y2436D02*
X1147Y2436D01*
X1177Y2436D02*
X1182Y2436D01*
X1213Y2436D02*
X1219Y2436D01*
X1275Y2436D02*
X1284Y2436D01*
X1315Y2436D02*
X1320Y2436D01*
X1351Y2436D02*
X1356Y2436D01*
X861Y2435D02*
X870Y2435D01*
X902Y2435D02*
X907Y2435D01*
X938Y2435D02*
X944Y2435D01*
X999Y2435D02*
X1008Y2435D01*
X1039Y2435D02*
X1045Y2435D01*
X1076Y2435D02*
X1081Y2435D01*
X1137Y2435D02*
X1146Y2435D01*
X1177Y2435D02*
X1182Y2435D01*
X1213Y2435D02*
X1219Y2435D01*
X1274Y2435D02*
X1283Y2435D01*
X1314Y2435D02*
X1320Y2435D01*
X1351Y2435D02*
X1356Y2435D01*
X845Y2434D02*
X869Y2434D01*
X894Y2434D02*
X915Y2434D01*
X938Y2434D02*
X944Y2434D01*
X982Y2434D02*
X1007Y2434D01*
X1031Y2434D02*
X1053Y2434D01*
X1076Y2434D02*
X1081Y2434D01*
X1120Y2434D02*
X1144Y2434D01*
X1169Y2434D02*
X1190Y2434D01*
X1213Y2434D02*
X1219Y2434D01*
X1258Y2434D02*
X1282Y2434D01*
X1307Y2434D02*
X1328Y2434D01*
X1351Y2434D02*
X1356Y2434D01*
X844Y2433D02*
X868Y2433D01*
X893Y2433D02*
X916Y2433D01*
X938Y2433D02*
X944Y2433D01*
X981Y2433D02*
X1006Y2433D01*
X1030Y2433D02*
X1054Y2433D01*
X1076Y2433D02*
X1081Y2433D01*
X1119Y2433D02*
X1143Y2433D01*
X1168Y2433D02*
X1191Y2433D01*
X1213Y2433D02*
X1219Y2433D01*
X1257Y2433D02*
X1281Y2433D01*
X1306Y2433D02*
X1329Y2433D01*
X1351Y2433D02*
X1356Y2433D01*
X844Y2432D02*
X867Y2432D01*
X893Y2432D02*
X917Y2432D01*
X938Y2432D02*
X944Y2432D01*
X981Y2432D02*
X1005Y2432D01*
X1030Y2432D02*
X1054Y2432D01*
X1076Y2432D02*
X1081Y2432D01*
X1119Y2432D02*
X1142Y2432D01*
X1168Y2432D02*
X1192Y2432D01*
X1213Y2432D02*
X1219Y2432D01*
X1256Y2432D02*
X1280Y2432D01*
X1305Y2432D02*
X1329Y2432D01*
X1351Y2432D02*
X1356Y2432D01*
X844Y2431D02*
X866Y2431D01*
X893Y2431D02*
X917Y2431D01*
X938Y2431D02*
X944Y2431D01*
X981Y2431D02*
X1003Y2431D01*
X1030Y2431D02*
X1054Y2431D01*
X1076Y2431D02*
X1081Y2431D01*
X1119Y2431D02*
X1141Y2431D01*
X1168Y2431D02*
X1192Y2431D01*
X1213Y2431D02*
X1219Y2431D01*
X1256Y2431D02*
X1279Y2431D01*
X1305Y2431D02*
X1329Y2431D01*
X1351Y2431D02*
X1356Y2431D01*
X844Y2430D02*
X865Y2430D01*
X893Y2430D02*
X916Y2430D01*
X938Y2430D02*
X944Y2430D01*
X981Y2430D02*
X1002Y2430D01*
X1030Y2430D02*
X1054Y2430D01*
X1076Y2430D02*
X1081Y2430D01*
X1119Y2430D02*
X1140Y2430D01*
X1168Y2430D02*
X1191Y2430D01*
X1213Y2430D02*
X1219Y2430D01*
X1256Y2430D02*
X1277Y2430D01*
X1305Y2430D02*
X1329Y2430D01*
X1351Y2430D02*
X1356Y2430D01*
X845Y2429D02*
X863Y2429D01*
X894Y2429D02*
X916Y2429D01*
X938Y2429D02*
X944Y2429D01*
X982Y2429D02*
X1000Y2429D01*
X1031Y2429D02*
X1053Y2429D01*
X1076Y2429D02*
X1081Y2429D01*
X1120Y2429D02*
X1138Y2429D01*
X1169Y2429D02*
X1191Y2429D01*
X1213Y2429D02*
X1219Y2429D01*
X1257Y2429D02*
X1276Y2429D01*
X1306Y2429D02*
X1328Y2429D01*
X1351Y2429D02*
X1356Y2429D01*
X938Y2428D02*
X944Y2428D01*
X1076Y2428D02*
X1081Y2428D01*
X1213Y2428D02*
X1219Y2428D01*
X1351Y2428D02*
X1356Y2428D01*
X938Y2427D02*
X944Y2427D01*
X1076Y2427D02*
X1081Y2427D01*
X1213Y2427D02*
X1219Y2427D01*
X1351Y2427D02*
X1356Y2427D01*
X938Y2426D02*
X944Y2426D01*
X959Y2426D02*
X961Y2426D01*
X1076Y2426D02*
X1081Y2426D01*
X1096Y2426D02*
X1099Y2426D01*
X1213Y2426D02*
X1219Y2426D01*
X1234Y2426D02*
X1236Y2426D01*
X1351Y2426D02*
X1356Y2426D01*
X1371Y2426D02*
X1374Y2426D01*
X938Y2425D02*
X944Y2425D01*
X958Y2425D02*
X962Y2425D01*
X1076Y2425D02*
X1081Y2425D01*
X1095Y2425D02*
X1100Y2425D01*
X1213Y2425D02*
X1219Y2425D01*
X1233Y2425D02*
X1237Y2425D01*
X1351Y2425D02*
X1356Y2425D01*
X1371Y2425D02*
X1375Y2425D01*
X938Y2424D02*
X944Y2424D01*
X957Y2424D02*
X962Y2424D01*
X1076Y2424D02*
X1081Y2424D01*
X1095Y2424D02*
X1100Y2424D01*
X1213Y2424D02*
X1219Y2424D01*
X1232Y2424D02*
X1238Y2424D01*
X1351Y2424D02*
X1356Y2424D01*
X1370Y2424D02*
X1375Y2424D01*
X938Y2423D02*
X944Y2423D01*
X957Y2423D02*
X963Y2423D01*
X1076Y2423D02*
X1082Y2423D01*
X1094Y2423D02*
X1100Y2423D01*
X1214Y2423D02*
X1219Y2423D01*
X1232Y2423D02*
X1238Y2423D01*
X1351Y2423D02*
X1357Y2423D01*
X1369Y2423D02*
X1375Y2423D01*
X939Y2422D02*
X945Y2422D01*
X956Y2422D02*
X962Y2422D01*
X1076Y2422D02*
X1082Y2422D01*
X1094Y2422D02*
X1100Y2422D01*
X1214Y2422D02*
X1220Y2422D01*
X1231Y2422D02*
X1238Y2422D01*
X1351Y2422D02*
X1357Y2422D01*
X1369Y2422D02*
X1375Y2422D01*
X939Y2421D02*
X962Y2421D01*
X1076Y2421D02*
X1100Y2421D01*
X1214Y2421D02*
X1237Y2421D01*
X1352Y2421D02*
X1375Y2421D01*
X939Y2420D02*
X962Y2420D01*
X1077Y2420D02*
X1099Y2420D01*
X1214Y2420D02*
X1237Y2420D01*
X1352Y2420D02*
X1374Y2420D01*
X940Y2419D02*
X961Y2419D01*
X1077Y2419D02*
X1099Y2419D01*
X1215Y2419D02*
X1236Y2419D01*
X1353Y2419D02*
X1374Y2419D01*
X941Y2418D02*
X960Y2418D01*
X1078Y2418D02*
X1098Y2418D01*
X1216Y2418D02*
X1235Y2418D01*
X1353Y2418D02*
X1373Y2418D01*
X942Y2417D02*
X959Y2417D01*
X1079Y2417D02*
X1097Y2417D01*
X1217Y2417D02*
X1234Y2417D01*
X1354Y2417D02*
X1372Y2417D01*
X943Y2416D02*
X958Y2416D01*
X1081Y2416D02*
X1095Y2416D01*
X1218Y2416D02*
X1233Y2416D01*
X1356Y2416D02*
X1370Y2416D01*
X946Y2415D02*
X955Y2415D01*
X1083Y2415D02*
X1093Y2415D01*
X1221Y2415D02*
X1230Y2415D01*
X1358Y2415D02*
X1368Y2415D01*
D02*
G04 End of Silk0*
M02*