G04 MADE WITH FRITZING*
G04 WWW.FRITZING.ORG*
G04 DOUBLE SIDED*
G04 HOLES PLATED*
G04 CONTOUR ON CENTER OF CONTOUR VECTOR*
%ASAXBY*%
%FSLAX23Y23*%
%MOIN*%
%OFA0B0*%
%SFA1.0B1.0*%
%ADD10R,0.001000X0.001000*%
%LNSILK0*%
G90*
G70*
G54D10*
X9Y3190D02*
X59Y3190D01*
X7Y3189D02*
X61Y3189D01*
X6Y3188D02*
X61Y3188D01*
X6Y3187D02*
X62Y3187D01*
X6Y3186D02*
X62Y3186D01*
X7Y3185D02*
X61Y3185D01*
X7Y3184D02*
X61Y3184D01*
X9Y3183D02*
X58Y3183D01*
X25Y3182D02*
X35Y3182D01*
X49Y3182D02*
X58Y3182D01*
X25Y3181D02*
X34Y3181D01*
X50Y3181D02*
X59Y3181D01*
X24Y3180D02*
X33Y3180D01*
X51Y3180D02*
X59Y3180D01*
X23Y3179D02*
X32Y3179D01*
X51Y3179D02*
X60Y3179D01*
X23Y3178D02*
X31Y3178D01*
X52Y3178D02*
X61Y3178D01*
X22Y3177D02*
X30Y3177D01*
X53Y3177D02*
X61Y3177D01*
X22Y3176D02*
X29Y3176D01*
X54Y3176D02*
X61Y3176D01*
X22Y3175D02*
X28Y3175D01*
X55Y3175D02*
X62Y3175D01*
X22Y3174D02*
X28Y3174D01*
X55Y3174D02*
X62Y3174D01*
X22Y3173D02*
X28Y3173D01*
X55Y3173D02*
X62Y3173D01*
X21Y3172D02*
X28Y3172D01*
X55Y3172D02*
X62Y3172D01*
X21Y3171D02*
X28Y3171D01*
X55Y3171D02*
X62Y3171D01*
X21Y3170D02*
X28Y3170D01*
X55Y3170D02*
X62Y3170D01*
X21Y3169D02*
X28Y3169D01*
X55Y3169D02*
X62Y3169D01*
X21Y3168D02*
X28Y3168D01*
X55Y3168D02*
X62Y3168D01*
X22Y3167D02*
X28Y3167D01*
X55Y3167D02*
X62Y3167D01*
X22Y3166D02*
X28Y3166D01*
X55Y3166D02*
X62Y3166D01*
X22Y3165D02*
X29Y3165D01*
X54Y3165D02*
X62Y3165D01*
X22Y3164D02*
X30Y3164D01*
X54Y3164D02*
X61Y3164D01*
X23Y3163D02*
X31Y3163D01*
X53Y3163D02*
X61Y3163D01*
X23Y3162D02*
X32Y3162D01*
X51Y3162D02*
X60Y3162D01*
X24Y3161D02*
X59Y3161D01*
X24Y3160D02*
X59Y3160D01*
X25Y3159D02*
X58Y3159D01*
X26Y3158D02*
X57Y3158D01*
X27Y3157D02*
X56Y3157D01*
X29Y3156D02*
X55Y3156D01*
X31Y3155D02*
X53Y3155D01*
X35Y3154D02*
X48Y3154D01*
X9Y3134D02*
X9Y3134D01*
X7Y3133D02*
X11Y3133D01*
X57Y3133D02*
X61Y3133D01*
X7Y3132D02*
X12Y3132D01*
X56Y3132D02*
X61Y3132D01*
X6Y3131D02*
X12Y3131D01*
X56Y3131D02*
X62Y3131D01*
X6Y3130D02*
X12Y3130D01*
X55Y3130D02*
X62Y3130D01*
X6Y3129D02*
X12Y3129D01*
X55Y3129D02*
X62Y3129D01*
X6Y3128D02*
X12Y3128D01*
X55Y3128D02*
X62Y3128D01*
X6Y3127D02*
X12Y3127D01*
X55Y3127D02*
X62Y3127D01*
X6Y3126D02*
X12Y3126D01*
X55Y3126D02*
X62Y3126D01*
X6Y3125D02*
X12Y3125D01*
X55Y3125D02*
X62Y3125D01*
X6Y3124D02*
X12Y3124D01*
X55Y3124D02*
X62Y3124D01*
X6Y3123D02*
X62Y3123D01*
X6Y3122D02*
X62Y3122D01*
X6Y3121D02*
X62Y3121D01*
X6Y3120D02*
X62Y3120D01*
X6Y3119D02*
X62Y3119D01*
X6Y3118D02*
X62Y3118D01*
X7Y3117D02*
X62Y3117D01*
X9Y3116D02*
X62Y3116D01*
X55Y3115D02*
X62Y3115D01*
X55Y3114D02*
X62Y3114D01*
X55Y3113D02*
X62Y3113D01*
X55Y3112D02*
X62Y3112D01*
X55Y3111D02*
X62Y3111D01*
X55Y3110D02*
X62Y3110D01*
X55Y3109D02*
X62Y3109D01*
X56Y3108D02*
X62Y3108D01*
X56Y3107D02*
X61Y3107D01*
X57Y3106D02*
X60Y3106D01*
X23Y3084D02*
X55Y3084D01*
X22Y3083D02*
X57Y3083D01*
X22Y3082D02*
X58Y3082D01*
X22Y3081D02*
X59Y3081D01*
X22Y3080D02*
X60Y3080D01*
X22Y3079D02*
X60Y3079D01*
X23Y3078D02*
X61Y3078D01*
X53Y3077D02*
X61Y3077D01*
X54Y3076D02*
X62Y3076D01*
X55Y3075D02*
X62Y3075D01*
X55Y3074D02*
X62Y3074D01*
X55Y3073D02*
X62Y3073D01*
X55Y3072D02*
X62Y3072D01*
X55Y3071D02*
X62Y3071D01*
X55Y3070D02*
X62Y3070D01*
X55Y3069D02*
X62Y3069D01*
X55Y3068D02*
X62Y3068D01*
X54Y3067D02*
X61Y3067D01*
X54Y3066D02*
X61Y3066D01*
X53Y3065D02*
X61Y3065D01*
X53Y3064D02*
X60Y3064D01*
X52Y3063D02*
X60Y3063D01*
X51Y3062D02*
X59Y3062D01*
X51Y3061D02*
X58Y3061D01*
X50Y3060D02*
X58Y3060D01*
X49Y3059D02*
X57Y3059D01*
X49Y3058D02*
X56Y3058D01*
X48Y3057D02*
X56Y3057D01*
X23Y3056D02*
X60Y3056D01*
X22Y3055D02*
X61Y3055D01*
X22Y3054D02*
X62Y3054D01*
X22Y3053D02*
X62Y3053D01*
X22Y3052D02*
X62Y3052D01*
X22Y3051D02*
X61Y3051D01*
X23Y3050D02*
X60Y3050D01*
X32Y3032D02*
X52Y3032D01*
X30Y3031D02*
X54Y3031D01*
X28Y3030D02*
X56Y3030D01*
X27Y3029D02*
X57Y3029D01*
X26Y3028D02*
X58Y3028D01*
X25Y3027D02*
X58Y3027D01*
X24Y3026D02*
X59Y3026D01*
X23Y3025D02*
X33Y3025D01*
X38Y3025D02*
X45Y3025D01*
X50Y3025D02*
X60Y3025D01*
X23Y3024D02*
X31Y3024D01*
X39Y3024D02*
X45Y3024D01*
X52Y3024D02*
X60Y3024D01*
X22Y3023D02*
X30Y3023D01*
X39Y3023D02*
X45Y3023D01*
X53Y3023D02*
X61Y3023D01*
X22Y3022D02*
X29Y3022D01*
X39Y3022D02*
X45Y3022D01*
X54Y3022D02*
X61Y3022D01*
X22Y3021D02*
X29Y3021D01*
X39Y3021D02*
X45Y3021D01*
X55Y3021D02*
X62Y3021D01*
X22Y3020D02*
X28Y3020D01*
X39Y3020D02*
X45Y3020D01*
X55Y3020D02*
X62Y3020D01*
X22Y3019D02*
X28Y3019D01*
X39Y3019D02*
X45Y3019D01*
X55Y3019D02*
X62Y3019D01*
X21Y3018D02*
X28Y3018D01*
X39Y3018D02*
X45Y3018D01*
X55Y3018D02*
X62Y3018D01*
X21Y3017D02*
X28Y3017D01*
X39Y3017D02*
X45Y3017D01*
X55Y3017D02*
X62Y3017D01*
X21Y3016D02*
X28Y3016D01*
X39Y3016D02*
X45Y3016D01*
X55Y3016D02*
X62Y3016D01*
X21Y3015D02*
X28Y3015D01*
X39Y3015D02*
X45Y3015D01*
X55Y3015D02*
X62Y3015D01*
X21Y3014D02*
X28Y3014D01*
X39Y3014D02*
X45Y3014D01*
X55Y3014D02*
X62Y3014D01*
X21Y3013D02*
X28Y3013D01*
X39Y3013D02*
X45Y3013D01*
X55Y3013D02*
X62Y3013D01*
X21Y3012D02*
X28Y3012D01*
X39Y3012D02*
X45Y3012D01*
X55Y3012D02*
X62Y3012D01*
X21Y3011D02*
X28Y3011D01*
X39Y3011D02*
X45Y3011D01*
X55Y3011D02*
X62Y3011D01*
X22Y3010D02*
X28Y3010D01*
X39Y3010D02*
X45Y3010D01*
X55Y3010D02*
X62Y3010D01*
X22Y3009D02*
X28Y3009D01*
X39Y3009D02*
X45Y3009D01*
X55Y3009D02*
X62Y3009D01*
X22Y3008D02*
X28Y3008D01*
X39Y3008D02*
X45Y3008D01*
X55Y3008D02*
X62Y3008D01*
X22Y3007D02*
X29Y3007D01*
X39Y3007D02*
X45Y3007D01*
X55Y3007D02*
X62Y3007D01*
X22Y3006D02*
X30Y3006D01*
X39Y3006D02*
X45Y3006D01*
X55Y3006D02*
X62Y3006D01*
X23Y3005D02*
X31Y3005D01*
X39Y3005D02*
X45Y3005D01*
X55Y3005D02*
X62Y3005D01*
X23Y3004D02*
X32Y3004D01*
X39Y3004D02*
X45Y3004D01*
X55Y3004D02*
X62Y3004D01*
X24Y3003D02*
X45Y3003D01*
X55Y3003D02*
X62Y3003D01*
X25Y3002D02*
X45Y3002D01*
X55Y3002D02*
X62Y3002D01*
X25Y3001D02*
X45Y3001D01*
X55Y3001D02*
X62Y3001D01*
X26Y3000D02*
X45Y3000D01*
X55Y3000D02*
X62Y3000D01*
X28Y2999D02*
X45Y2999D01*
X56Y2999D02*
X62Y2999D01*
X29Y2998D02*
X44Y2998D01*
X56Y2998D02*
X61Y2998D01*
X31Y2997D02*
X43Y2997D01*
X57Y2997D02*
X60Y2997D01*
X21Y2979D02*
X76Y2979D01*
X20Y2978D02*
X77Y2978D01*
X20Y2977D02*
X77Y2977D01*
X20Y2976D02*
X77Y2976D01*
X20Y2975D02*
X77Y2975D01*
X21Y2974D02*
X76Y2974D01*
X22Y2973D02*
X75Y2973D01*
X25Y2972D02*
X35Y2972D01*
X49Y2972D02*
X58Y2972D01*
X24Y2971D02*
X33Y2971D01*
X50Y2971D02*
X59Y2971D01*
X23Y2970D02*
X32Y2970D01*
X51Y2970D02*
X60Y2970D01*
X22Y2969D02*
X31Y2969D01*
X52Y2969D02*
X61Y2969D01*
X22Y2968D02*
X30Y2968D01*
X53Y2968D02*
X62Y2968D01*
X21Y2967D02*
X29Y2967D01*
X54Y2967D02*
X62Y2967D01*
X21Y2966D02*
X28Y2966D01*
X55Y2966D02*
X63Y2966D01*
X20Y2965D02*
X27Y2965D01*
X56Y2965D02*
X63Y2965D01*
X20Y2964D02*
X27Y2964D01*
X57Y2964D02*
X63Y2964D01*
X20Y2963D02*
X26Y2963D01*
X57Y2963D02*
X63Y2963D01*
X20Y2962D02*
X26Y2962D01*
X57Y2962D02*
X63Y2962D01*
X20Y2961D02*
X26Y2961D01*
X57Y2961D02*
X63Y2961D01*
X20Y2960D02*
X26Y2960D01*
X57Y2960D02*
X63Y2960D01*
X20Y2959D02*
X27Y2959D01*
X56Y2959D02*
X63Y2959D01*
X20Y2958D02*
X28Y2958D01*
X56Y2958D02*
X63Y2958D01*
X21Y2957D02*
X29Y2957D01*
X55Y2957D02*
X63Y2957D01*
X21Y2956D02*
X29Y2956D01*
X54Y2956D02*
X62Y2956D01*
X22Y2955D02*
X30Y2955D01*
X53Y2955D02*
X62Y2955D01*
X22Y2954D02*
X31Y2954D01*
X52Y2954D02*
X61Y2954D01*
X23Y2953D02*
X32Y2953D01*
X51Y2953D02*
X60Y2953D01*
X24Y2952D02*
X33Y2952D01*
X50Y2952D02*
X59Y2952D01*
X25Y2951D02*
X58Y2951D01*
X26Y2950D02*
X57Y2950D01*
X27Y2949D02*
X57Y2949D01*
X28Y2948D02*
X56Y2948D01*
X29Y2947D02*
X55Y2947D01*
X30Y2946D02*
X54Y2946D01*
X31Y2945D02*
X52Y2945D01*
X33Y2944D02*
X50Y2944D01*
X24Y2927D02*
X59Y2927D01*
X22Y2926D02*
X61Y2926D01*
X22Y2925D02*
X61Y2925D01*
X22Y2924D02*
X62Y2924D01*
X22Y2923D02*
X62Y2923D01*
X22Y2922D02*
X61Y2922D01*
X23Y2921D02*
X61Y2921D01*
X25Y2920D02*
X58Y2920D01*
X29Y2919D02*
X37Y2919D01*
X28Y2918D02*
X37Y2918D01*
X27Y2917D02*
X36Y2917D01*
X26Y2916D02*
X35Y2916D01*
X25Y2915D02*
X34Y2915D01*
X24Y2914D02*
X33Y2914D01*
X24Y2913D02*
X32Y2913D01*
X23Y2912D02*
X31Y2912D01*
X22Y2911D02*
X31Y2911D01*
X22Y2910D02*
X30Y2910D01*
X21Y2909D02*
X29Y2909D01*
X21Y2908D02*
X28Y2908D01*
X21Y2907D02*
X28Y2907D01*
X21Y2906D02*
X28Y2906D01*
X21Y2905D02*
X28Y2905D01*
X21Y2904D02*
X28Y2904D01*
X21Y2903D02*
X28Y2903D01*
X22Y2902D02*
X28Y2902D01*
X22Y2901D02*
X28Y2901D01*
X22Y2900D02*
X28Y2900D01*
X22Y2899D02*
X29Y2899D01*
X22Y2898D02*
X34Y2898D01*
X22Y2897D02*
X36Y2897D01*
X23Y2896D02*
X36Y2896D01*
X23Y2895D02*
X36Y2895D01*
X24Y2894D02*
X36Y2894D01*
X25Y2893D02*
X36Y2893D01*
X27Y2892D02*
X35Y2892D01*
X32Y2891D02*
X32Y2891D01*
X25Y2871D02*
X25Y2871D01*
X23Y2870D02*
X27Y2870D01*
X57Y2870D02*
X61Y2870D01*
X22Y2869D02*
X27Y2869D01*
X56Y2869D02*
X61Y2869D01*
X22Y2868D02*
X28Y2868D01*
X56Y2868D02*
X62Y2868D01*
X21Y2867D02*
X28Y2867D01*
X55Y2867D02*
X62Y2867D01*
X21Y2866D02*
X28Y2866D01*
X55Y2866D02*
X62Y2866D01*
X21Y2865D02*
X28Y2865D01*
X55Y2865D02*
X62Y2865D01*
X21Y2864D02*
X28Y2864D01*
X55Y2864D02*
X62Y2864D01*
X4Y2863D02*
X11Y2863D01*
X21Y2863D02*
X28Y2863D01*
X55Y2863D02*
X62Y2863D01*
X4Y2862D02*
X12Y2862D01*
X21Y2862D02*
X28Y2862D01*
X55Y2862D02*
X62Y2862D01*
X3Y2861D02*
X12Y2861D01*
X21Y2861D02*
X28Y2861D01*
X55Y2861D02*
X62Y2861D01*
X3Y2860D02*
X12Y2860D01*
X21Y2860D02*
X62Y2860D01*
X3Y2859D02*
X12Y2859D01*
X21Y2859D02*
X62Y2859D01*
X3Y2858D02*
X12Y2858D01*
X21Y2858D02*
X62Y2858D01*
X3Y2857D02*
X12Y2857D01*
X21Y2857D02*
X62Y2857D01*
X3Y2856D02*
X12Y2856D01*
X22Y2856D02*
X62Y2856D01*
X3Y2855D02*
X12Y2855D01*
X22Y2855D02*
X62Y2855D01*
X4Y2854D02*
X11Y2854D01*
X23Y2854D02*
X62Y2854D01*
X6Y2853D02*
X9Y2853D01*
X25Y2853D02*
X62Y2853D01*
X55Y2852D02*
X62Y2852D01*
X55Y2851D02*
X62Y2851D01*
X55Y2850D02*
X62Y2850D01*
X55Y2849D02*
X62Y2849D01*
X55Y2848D02*
X62Y2848D01*
X55Y2847D02*
X62Y2847D01*
X55Y2846D02*
X62Y2846D01*
X56Y2845D02*
X62Y2845D01*
X56Y2844D02*
X61Y2844D01*
X57Y2843D02*
X60Y2843D01*
X23Y2821D02*
X60Y2821D01*
X22Y2820D02*
X61Y2820D01*
X22Y2819D02*
X62Y2819D01*
X22Y2818D02*
X62Y2818D01*
X22Y2817D02*
X62Y2817D01*
X22Y2816D02*
X61Y2816D01*
X23Y2815D02*
X60Y2815D01*
X27Y2814D02*
X35Y2814D01*
X27Y2813D02*
X35Y2813D01*
X26Y2812D02*
X34Y2812D01*
X26Y2811D02*
X33Y2811D01*
X25Y2810D02*
X33Y2810D01*
X24Y2809D02*
X32Y2809D01*
X24Y2808D02*
X31Y2808D01*
X23Y2807D02*
X31Y2807D01*
X23Y2806D02*
X30Y2806D01*
X22Y2805D02*
X30Y2805D01*
X22Y2804D02*
X29Y2804D01*
X22Y2803D02*
X28Y2803D01*
X22Y2802D02*
X28Y2802D01*
X21Y2801D02*
X28Y2801D01*
X21Y2800D02*
X28Y2800D01*
X21Y2799D02*
X28Y2799D01*
X21Y2798D02*
X28Y2798D01*
X22Y2797D02*
X28Y2797D01*
X22Y2796D02*
X28Y2796D01*
X22Y2795D02*
X29Y2795D01*
X22Y2794D02*
X30Y2794D01*
X22Y2793D02*
X60Y2793D01*
X23Y2792D02*
X61Y2792D01*
X23Y2791D02*
X62Y2791D01*
X24Y2790D02*
X62Y2790D01*
X25Y2789D02*
X62Y2789D01*
X26Y2788D02*
X61Y2788D01*
X28Y2787D02*
X60Y2787D01*
X23Y2769D02*
X26Y2769D01*
X22Y2768D02*
X27Y2768D01*
X22Y2767D02*
X28Y2767D01*
X22Y2766D02*
X28Y2766D01*
X22Y2765D02*
X28Y2765D01*
X21Y2764D02*
X28Y2764D01*
X21Y2763D02*
X28Y2763D01*
X11Y2762D02*
X53Y2762D01*
X10Y2761D02*
X56Y2761D01*
X9Y2760D02*
X57Y2760D01*
X9Y2759D02*
X59Y2759D01*
X9Y2758D02*
X60Y2758D01*
X10Y2757D02*
X60Y2757D01*
X10Y2756D02*
X61Y2756D01*
X13Y2755D02*
X61Y2755D01*
X21Y2754D02*
X28Y2754D01*
X54Y2754D02*
X61Y2754D01*
X21Y2753D02*
X28Y2753D01*
X55Y2753D02*
X62Y2753D01*
X21Y2752D02*
X28Y2752D01*
X55Y2752D02*
X62Y2752D01*
X21Y2751D02*
X28Y2751D01*
X55Y2751D02*
X62Y2751D01*
X21Y2750D02*
X28Y2750D01*
X55Y2750D02*
X62Y2750D01*
X21Y2749D02*
X28Y2749D01*
X55Y2749D02*
X62Y2749D01*
X21Y2748D02*
X28Y2748D01*
X55Y2748D02*
X62Y2748D01*
X21Y2747D02*
X28Y2747D01*
X55Y2747D02*
X62Y2747D01*
X21Y2746D02*
X28Y2746D01*
X55Y2746D02*
X62Y2746D01*
X21Y2745D02*
X28Y2745D01*
X55Y2745D02*
X62Y2745D01*
X21Y2744D02*
X28Y2744D01*
X55Y2744D02*
X62Y2744D01*
X22Y2743D02*
X28Y2743D01*
X55Y2743D02*
X62Y2743D01*
X22Y2742D02*
X28Y2742D01*
X55Y2742D02*
X62Y2742D01*
X22Y2741D02*
X27Y2741D01*
X53Y2741D02*
X61Y2741D01*
X23Y2740D02*
X27Y2740D01*
X51Y2740D02*
X61Y2740D01*
X50Y2739D02*
X60Y2739D01*
X49Y2738D02*
X60Y2738D01*
X49Y2737D02*
X59Y2737D01*
X49Y2736D02*
X58Y2736D01*
X50Y2735D02*
X57Y2735D01*
X51Y2734D02*
X55Y2734D01*
X13Y2716D02*
X17Y2716D01*
X35Y2716D02*
X55Y2716D01*
X12Y2715D02*
X18Y2715D01*
X33Y2715D02*
X57Y2715D01*
X11Y2714D02*
X18Y2714D01*
X31Y2714D02*
X58Y2714D01*
X10Y2713D02*
X19Y2713D01*
X30Y2713D02*
X59Y2713D01*
X9Y2712D02*
X18Y2712D01*
X30Y2712D02*
X60Y2712D01*
X8Y2711D02*
X18Y2711D01*
X29Y2711D02*
X60Y2711D01*
X8Y2710D02*
X17Y2710D01*
X28Y2710D02*
X61Y2710D01*
X7Y2709D02*
X15Y2709D01*
X28Y2709D02*
X36Y2709D01*
X54Y2709D02*
X61Y2709D01*
X7Y2708D02*
X14Y2708D01*
X28Y2708D02*
X35Y2708D01*
X55Y2708D02*
X62Y2708D01*
X6Y2707D02*
X13Y2707D01*
X28Y2707D02*
X34Y2707D01*
X55Y2707D02*
X62Y2707D01*
X6Y2706D02*
X13Y2706D01*
X28Y2706D02*
X34Y2706D01*
X55Y2706D02*
X62Y2706D01*
X6Y2705D02*
X13Y2705D01*
X28Y2705D02*
X34Y2705D01*
X55Y2705D02*
X62Y2705D01*
X6Y2704D02*
X12Y2704D01*
X28Y2704D02*
X34Y2704D01*
X55Y2704D02*
X62Y2704D01*
X6Y2703D02*
X12Y2703D01*
X28Y2703D02*
X34Y2703D01*
X54Y2703D02*
X61Y2703D01*
X6Y2702D02*
X12Y2702D01*
X28Y2702D02*
X61Y2702D01*
X6Y2701D02*
X12Y2701D01*
X28Y2701D02*
X61Y2701D01*
X6Y2700D02*
X12Y2700D01*
X28Y2700D02*
X60Y2700D01*
X6Y2699D02*
X12Y2699D01*
X28Y2699D02*
X59Y2699D01*
X6Y2698D02*
X12Y2698D01*
X28Y2698D02*
X60Y2698D01*
X6Y2697D02*
X12Y2697D01*
X28Y2697D02*
X60Y2697D01*
X6Y2696D02*
X12Y2696D01*
X29Y2696D02*
X61Y2696D01*
X6Y2695D02*
X12Y2695D01*
X52Y2695D02*
X61Y2695D01*
X6Y2694D02*
X12Y2694D01*
X54Y2694D02*
X62Y2694D01*
X6Y2693D02*
X12Y2693D01*
X55Y2693D02*
X62Y2693D01*
X6Y2692D02*
X13Y2692D01*
X55Y2692D02*
X62Y2692D01*
X6Y2691D02*
X13Y2691D01*
X55Y2691D02*
X62Y2691D01*
X7Y2690D02*
X14Y2690D01*
X55Y2690D02*
X62Y2690D01*
X7Y2689D02*
X15Y2689D01*
X54Y2689D02*
X61Y2689D01*
X7Y2688D02*
X18Y2688D01*
X52Y2688D02*
X61Y2688D01*
X8Y2687D02*
X61Y2687D01*
X9Y2686D02*
X60Y2686D01*
X9Y2685D02*
X60Y2685D01*
X10Y2684D02*
X59Y2684D01*
X12Y2683D02*
X58Y2683D01*
X13Y2682D02*
X56Y2682D01*
X16Y2681D02*
X54Y2681D01*
X22Y2664D02*
X75Y2664D01*
X21Y2663D02*
X76Y2663D01*
X20Y2662D02*
X77Y2662D01*
X20Y2661D02*
X77Y2661D01*
X20Y2660D02*
X77Y2660D01*
X20Y2659D02*
X77Y2659D01*
X21Y2658D02*
X76Y2658D01*
X25Y2657D02*
X74Y2657D01*
X25Y2656D02*
X34Y2656D01*
X49Y2656D02*
X59Y2656D01*
X24Y2655D02*
X33Y2655D01*
X51Y2655D02*
X60Y2655D01*
X23Y2654D02*
X32Y2654D01*
X51Y2654D02*
X61Y2654D01*
X22Y2653D02*
X31Y2653D01*
X52Y2653D02*
X61Y2653D01*
X21Y2652D02*
X30Y2652D01*
X53Y2652D02*
X62Y2652D01*
X21Y2651D02*
X29Y2651D01*
X54Y2651D02*
X62Y2651D01*
X21Y2650D02*
X28Y2650D01*
X55Y2650D02*
X63Y2650D01*
X20Y2649D02*
X27Y2649D01*
X56Y2649D02*
X63Y2649D01*
X20Y2648D02*
X27Y2648D01*
X57Y2648D02*
X63Y2648D01*
X20Y2647D02*
X26Y2647D01*
X57Y2647D02*
X63Y2647D01*
X20Y2646D02*
X26Y2646D01*
X57Y2646D02*
X63Y2646D01*
X20Y2645D02*
X26Y2645D01*
X57Y2645D02*
X63Y2645D01*
X20Y2644D02*
X27Y2644D01*
X57Y2644D02*
X63Y2644D01*
X20Y2643D02*
X27Y2643D01*
X56Y2643D02*
X63Y2643D01*
X21Y2642D02*
X28Y2642D01*
X55Y2642D02*
X63Y2642D01*
X21Y2641D02*
X29Y2641D01*
X54Y2641D02*
X62Y2641D01*
X21Y2640D02*
X30Y2640D01*
X54Y2640D02*
X62Y2640D01*
X22Y2639D02*
X31Y2639D01*
X53Y2639D02*
X61Y2639D01*
X23Y2638D02*
X31Y2638D01*
X52Y2638D02*
X61Y2638D01*
X24Y2637D02*
X32Y2637D01*
X51Y2637D02*
X60Y2637D01*
X24Y2636D02*
X34Y2636D01*
X50Y2636D02*
X59Y2636D01*
X25Y2635D02*
X58Y2635D01*
X26Y2634D02*
X57Y2634D01*
X27Y2633D02*
X56Y2633D01*
X28Y2632D02*
X55Y2632D01*
X29Y2631D02*
X54Y2631D01*
X30Y2630D02*
X53Y2630D01*
X32Y2629D02*
X51Y2629D01*
X31Y2611D02*
X52Y2611D01*
X29Y2610D02*
X54Y2610D01*
X28Y2609D02*
X56Y2609D01*
X27Y2608D02*
X57Y2608D01*
X26Y2607D02*
X58Y2607D01*
X25Y2606D02*
X58Y2606D01*
X24Y2605D02*
X59Y2605D01*
X23Y2604D02*
X33Y2604D01*
X51Y2604D02*
X60Y2604D01*
X23Y2603D02*
X31Y2603D01*
X52Y2603D02*
X60Y2603D01*
X22Y2602D02*
X30Y2602D01*
X53Y2602D02*
X61Y2602D01*
X22Y2601D02*
X29Y2601D01*
X54Y2601D02*
X61Y2601D01*
X22Y2600D02*
X28Y2600D01*
X55Y2600D02*
X62Y2600D01*
X22Y2599D02*
X28Y2599D01*
X55Y2599D02*
X62Y2599D01*
X22Y2598D02*
X28Y2598D01*
X55Y2598D02*
X62Y2598D01*
X21Y2597D02*
X28Y2597D01*
X55Y2597D02*
X62Y2597D01*
X21Y2596D02*
X28Y2596D01*
X55Y2596D02*
X62Y2596D01*
X21Y2595D02*
X28Y2595D01*
X55Y2595D02*
X62Y2595D01*
X21Y2594D02*
X28Y2594D01*
X55Y2594D02*
X62Y2594D01*
X21Y2593D02*
X28Y2593D01*
X55Y2593D02*
X62Y2593D01*
X21Y2592D02*
X28Y2592D01*
X55Y2592D02*
X62Y2592D01*
X21Y2591D02*
X28Y2591D01*
X55Y2591D02*
X62Y2591D01*
X21Y2590D02*
X28Y2590D01*
X55Y2590D02*
X62Y2590D01*
X22Y2589D02*
X28Y2589D01*
X55Y2589D02*
X62Y2589D01*
X22Y2588D02*
X28Y2588D01*
X55Y2588D02*
X62Y2588D01*
X22Y2587D02*
X28Y2587D01*
X55Y2587D02*
X62Y2587D01*
X22Y2586D02*
X29Y2586D01*
X54Y2586D02*
X61Y2586D01*
X22Y2585D02*
X30Y2585D01*
X53Y2585D02*
X61Y2585D01*
X23Y2584D02*
X31Y2584D01*
X52Y2584D02*
X61Y2584D01*
X23Y2583D02*
X33Y2583D01*
X51Y2583D02*
X60Y2583D01*
X24Y2582D02*
X59Y2582D01*
X25Y2581D02*
X58Y2581D01*
X26Y2580D02*
X58Y2580D01*
X27Y2579D02*
X57Y2579D01*
X28Y2578D02*
X55Y2578D01*
X29Y2577D02*
X54Y2577D01*
X32Y2576D02*
X52Y2576D01*
X34Y2559D02*
X49Y2559D01*
X30Y2558D02*
X53Y2558D01*
X29Y2557D02*
X55Y2557D01*
X27Y2556D02*
X56Y2556D01*
X26Y2555D02*
X57Y2555D01*
X25Y2554D02*
X58Y2554D01*
X24Y2553D02*
X59Y2553D01*
X24Y2552D02*
X60Y2552D01*
X23Y2551D02*
X32Y2551D01*
X39Y2551D02*
X45Y2551D01*
X52Y2551D02*
X60Y2551D01*
X23Y2550D02*
X31Y2550D01*
X39Y2550D02*
X45Y2550D01*
X53Y2550D02*
X61Y2550D01*
X22Y2549D02*
X30Y2549D01*
X39Y2549D02*
X45Y2549D01*
X54Y2549D02*
X61Y2549D01*
X22Y2548D02*
X29Y2548D01*
X39Y2548D02*
X45Y2548D01*
X54Y2548D02*
X61Y2548D01*
X22Y2547D02*
X28Y2547D01*
X39Y2547D02*
X45Y2547D01*
X55Y2547D02*
X62Y2547D01*
X22Y2546D02*
X28Y2546D01*
X39Y2546D02*
X45Y2546D01*
X55Y2546D02*
X62Y2546D01*
X21Y2545D02*
X28Y2545D01*
X39Y2545D02*
X45Y2545D01*
X55Y2545D02*
X62Y2545D01*
X21Y2544D02*
X28Y2544D01*
X39Y2544D02*
X45Y2544D01*
X55Y2544D02*
X62Y2544D01*
X21Y2543D02*
X28Y2543D01*
X39Y2543D02*
X45Y2543D01*
X55Y2543D02*
X62Y2543D01*
X21Y2542D02*
X28Y2542D01*
X39Y2542D02*
X45Y2542D01*
X55Y2542D02*
X62Y2542D01*
X21Y2541D02*
X28Y2541D01*
X39Y2541D02*
X45Y2541D01*
X55Y2541D02*
X62Y2541D01*
X21Y2540D02*
X28Y2540D01*
X39Y2540D02*
X45Y2540D01*
X55Y2540D02*
X62Y2540D01*
X21Y2539D02*
X28Y2539D01*
X39Y2539D02*
X45Y2539D01*
X55Y2539D02*
X62Y2539D01*
X21Y2538D02*
X28Y2538D01*
X39Y2538D02*
X45Y2538D01*
X55Y2538D02*
X62Y2538D01*
X21Y2537D02*
X28Y2537D01*
X39Y2537D02*
X45Y2537D01*
X55Y2537D02*
X62Y2537D01*
X22Y2536D02*
X28Y2536D01*
X39Y2536D02*
X45Y2536D01*
X55Y2536D02*
X62Y2536D01*
X22Y2535D02*
X28Y2535D01*
X39Y2535D02*
X45Y2535D01*
X55Y2535D02*
X62Y2535D01*
X22Y2534D02*
X29Y2534D01*
X39Y2534D02*
X45Y2534D01*
X55Y2534D02*
X62Y2534D01*
X22Y2533D02*
X29Y2533D01*
X39Y2533D02*
X45Y2533D01*
X55Y2533D02*
X62Y2533D01*
X23Y2532D02*
X30Y2532D01*
X39Y2532D02*
X45Y2532D01*
X55Y2532D02*
X62Y2532D01*
X23Y2531D02*
X31Y2531D01*
X39Y2531D02*
X45Y2531D01*
X55Y2531D02*
X62Y2531D01*
X24Y2530D02*
X45Y2530D01*
X55Y2530D02*
X62Y2530D01*
X24Y2529D02*
X45Y2529D01*
X55Y2529D02*
X62Y2529D01*
X25Y2528D02*
X45Y2528D01*
X55Y2528D02*
X62Y2528D01*
X26Y2527D02*
X45Y2527D01*
X55Y2527D02*
X62Y2527D01*
X27Y2526D02*
X45Y2526D01*
X56Y2526D02*
X62Y2526D01*
X28Y2525D02*
X45Y2525D01*
X56Y2525D02*
X61Y2525D01*
X30Y2524D02*
X44Y2524D01*
X57Y2524D02*
X61Y2524D01*
X33Y2523D02*
X42Y2523D01*
X58Y2523D02*
X59Y2523D01*
X23Y2506D02*
X26Y2506D01*
X22Y2505D02*
X27Y2505D01*
X22Y2504D02*
X28Y2504D01*
X22Y2503D02*
X28Y2503D01*
X22Y2502D02*
X28Y2502D01*
X21Y2501D02*
X28Y2501D01*
X21Y2500D02*
X28Y2500D01*
X11Y2499D02*
X53Y2499D01*
X10Y2498D02*
X56Y2498D01*
X9Y2497D02*
X57Y2497D01*
X9Y2496D02*
X59Y2496D01*
X9Y2495D02*
X60Y2495D01*
X10Y2494D02*
X60Y2494D01*
X10Y2493D02*
X61Y2493D01*
X13Y2492D02*
X61Y2492D01*
X21Y2491D02*
X28Y2491D01*
X54Y2491D02*
X61Y2491D01*
X21Y2490D02*
X28Y2490D01*
X55Y2490D02*
X62Y2490D01*
X21Y2489D02*
X28Y2489D01*
X55Y2489D02*
X62Y2489D01*
X21Y2488D02*
X28Y2488D01*
X55Y2488D02*
X62Y2488D01*
X21Y2487D02*
X28Y2487D01*
X55Y2487D02*
X62Y2487D01*
X21Y2486D02*
X28Y2486D01*
X55Y2486D02*
X62Y2486D01*
X21Y2485D02*
X28Y2485D01*
X55Y2485D02*
X62Y2485D01*
X21Y2484D02*
X28Y2484D01*
X55Y2484D02*
X62Y2484D01*
X21Y2483D02*
X28Y2483D01*
X55Y2483D02*
X62Y2483D01*
X21Y2482D02*
X28Y2482D01*
X55Y2482D02*
X62Y2482D01*
X21Y2481D02*
X28Y2481D01*
X55Y2481D02*
X62Y2481D01*
X22Y2480D02*
X28Y2480D01*
X55Y2480D02*
X62Y2480D01*
X22Y2479D02*
X28Y2479D01*
X55Y2479D02*
X62Y2479D01*
X22Y2478D02*
X27Y2478D01*
X53Y2478D02*
X61Y2478D01*
X23Y2477D02*
X27Y2477D01*
X51Y2477D02*
X61Y2477D01*
X50Y2476D02*
X60Y2476D01*
X49Y2475D02*
X60Y2475D01*
X49Y2474D02*
X59Y2474D01*
X49Y2473D02*
X58Y2473D01*
X50Y2472D02*
X57Y2472D01*
X51Y2471D02*
X55Y2471D01*
X44Y2453D02*
X55Y2453D01*
X42Y2452D02*
X57Y2452D01*
X41Y2451D02*
X58Y2451D01*
X40Y2450D02*
X59Y2450D01*
X39Y2449D02*
X60Y2449D01*
X23Y2448D02*
X26Y2448D01*
X38Y2448D02*
X61Y2448D01*
X22Y2447D02*
X27Y2447D01*
X38Y2447D02*
X61Y2447D01*
X22Y2446D02*
X28Y2446D01*
X37Y2446D02*
X44Y2446D01*
X55Y2446D02*
X61Y2446D01*
X22Y2445D02*
X28Y2445D01*
X37Y2445D02*
X43Y2445D01*
X55Y2445D02*
X62Y2445D01*
X21Y2444D02*
X28Y2444D01*
X37Y2444D02*
X43Y2444D01*
X56Y2444D02*
X62Y2444D01*
X21Y2443D02*
X28Y2443D01*
X37Y2443D02*
X43Y2443D01*
X56Y2443D02*
X62Y2443D01*
X21Y2442D02*
X28Y2442D01*
X37Y2442D02*
X43Y2442D01*
X56Y2442D02*
X62Y2442D01*
X21Y2441D02*
X28Y2441D01*
X37Y2441D02*
X43Y2441D01*
X56Y2441D02*
X62Y2441D01*
X21Y2440D02*
X28Y2440D01*
X37Y2440D02*
X43Y2440D01*
X56Y2440D02*
X62Y2440D01*
X21Y2439D02*
X28Y2439D01*
X37Y2439D02*
X43Y2439D01*
X56Y2439D02*
X62Y2439D01*
X21Y2438D02*
X28Y2438D01*
X37Y2438D02*
X43Y2438D01*
X56Y2438D02*
X62Y2438D01*
X21Y2437D02*
X28Y2437D01*
X37Y2437D02*
X43Y2437D01*
X56Y2437D02*
X62Y2437D01*
X21Y2436D02*
X28Y2436D01*
X37Y2436D02*
X43Y2436D01*
X56Y2436D02*
X62Y2436D01*
X21Y2435D02*
X28Y2435D01*
X37Y2435D02*
X43Y2435D01*
X56Y2435D02*
X62Y2435D01*
X21Y2434D02*
X28Y2434D01*
X37Y2434D02*
X43Y2434D01*
X56Y2434D02*
X62Y2434D01*
X21Y2433D02*
X28Y2433D01*
X37Y2433D02*
X43Y2433D01*
X56Y2433D02*
X62Y2433D01*
X21Y2432D02*
X28Y2432D01*
X37Y2432D02*
X43Y2432D01*
X55Y2432D02*
X62Y2432D01*
X21Y2431D02*
X28Y2431D01*
X37Y2431D02*
X43Y2431D01*
X55Y2431D02*
X62Y2431D01*
X21Y2430D02*
X28Y2430D01*
X37Y2430D02*
X43Y2430D01*
X54Y2430D02*
X61Y2430D01*
X22Y2429D02*
X28Y2429D01*
X37Y2429D02*
X43Y2429D01*
X53Y2429D02*
X61Y2429D01*
X22Y2428D02*
X28Y2428D01*
X37Y2428D02*
X43Y2428D01*
X53Y2428D02*
X60Y2428D01*
X22Y2427D02*
X28Y2427D01*
X37Y2427D02*
X43Y2427D01*
X52Y2427D02*
X60Y2427D01*
X22Y2426D02*
X29Y2426D01*
X37Y2426D02*
X44Y2426D01*
X52Y2426D02*
X59Y2426D01*
X22Y2425D02*
X31Y2425D01*
X37Y2425D02*
X46Y2425D01*
X51Y2425D02*
X58Y2425D01*
X23Y2424D02*
X60Y2424D01*
X23Y2423D02*
X61Y2423D01*
X24Y2422D02*
X62Y2422D01*
X25Y2421D02*
X62Y2421D01*
X26Y2420D02*
X62Y2420D01*
X27Y2419D02*
X61Y2419D01*
X30Y2418D02*
X60Y2418D01*
X55Y2401D02*
X56Y2401D01*
X28Y2400D02*
X32Y2400D01*
X53Y2400D02*
X58Y2400D01*
X26Y2399D02*
X35Y2399D01*
X53Y2399D02*
X59Y2399D01*
X25Y2398D02*
X36Y2398D01*
X52Y2398D02*
X59Y2398D01*
X24Y2397D02*
X37Y2397D01*
X53Y2397D02*
X60Y2397D01*
X23Y2396D02*
X38Y2396D01*
X53Y2396D02*
X60Y2396D01*
X22Y2395D02*
X38Y2395D01*
X53Y2395D02*
X61Y2395D01*
X22Y2394D02*
X39Y2394D01*
X54Y2394D02*
X61Y2394D01*
X22Y2393D02*
X29Y2393D01*
X31Y2393D02*
X39Y2393D01*
X55Y2393D02*
X61Y2393D01*
X22Y2392D02*
X28Y2392D01*
X33Y2392D02*
X40Y2392D01*
X55Y2392D02*
X62Y2392D01*
X22Y2391D02*
X28Y2391D01*
X33Y2391D02*
X40Y2391D01*
X55Y2391D02*
X62Y2391D01*
X21Y2390D02*
X28Y2390D01*
X34Y2390D02*
X40Y2390D01*
X55Y2390D02*
X62Y2390D01*
X21Y2389D02*
X28Y2389D01*
X34Y2389D02*
X41Y2389D01*
X55Y2389D02*
X62Y2389D01*
X21Y2388D02*
X28Y2388D01*
X34Y2388D02*
X41Y2388D01*
X55Y2388D02*
X62Y2388D01*
X21Y2387D02*
X28Y2387D01*
X35Y2387D02*
X42Y2387D01*
X55Y2387D02*
X62Y2387D01*
X21Y2386D02*
X28Y2386D01*
X35Y2386D02*
X42Y2386D01*
X55Y2386D02*
X62Y2386D01*
X21Y2385D02*
X28Y2385D01*
X36Y2385D02*
X43Y2385D01*
X55Y2385D02*
X62Y2385D01*
X21Y2384D02*
X28Y2384D01*
X36Y2384D02*
X43Y2384D01*
X55Y2384D02*
X62Y2384D01*
X21Y2383D02*
X28Y2383D01*
X37Y2383D02*
X44Y2383D01*
X55Y2383D02*
X62Y2383D01*
X21Y2382D02*
X28Y2382D01*
X37Y2382D02*
X44Y2382D01*
X55Y2382D02*
X62Y2382D01*
X21Y2381D02*
X28Y2381D01*
X37Y2381D02*
X44Y2381D01*
X55Y2381D02*
X62Y2381D01*
X21Y2380D02*
X28Y2380D01*
X38Y2380D02*
X45Y2380D01*
X55Y2380D02*
X62Y2380D01*
X21Y2379D02*
X28Y2379D01*
X38Y2379D02*
X45Y2379D01*
X55Y2379D02*
X62Y2379D01*
X21Y2378D02*
X28Y2378D01*
X39Y2378D02*
X46Y2378D01*
X55Y2378D02*
X62Y2378D01*
X21Y2377D02*
X28Y2377D01*
X39Y2377D02*
X46Y2377D01*
X55Y2377D02*
X62Y2377D01*
X21Y2376D02*
X28Y2376D01*
X40Y2376D02*
X47Y2376D01*
X55Y2376D02*
X62Y2376D01*
X22Y2375D02*
X28Y2375D01*
X40Y2375D02*
X47Y2375D01*
X55Y2375D02*
X62Y2375D01*
X22Y2374D02*
X28Y2374D01*
X40Y2374D02*
X48Y2374D01*
X55Y2374D02*
X62Y2374D01*
X22Y2373D02*
X29Y2373D01*
X41Y2373D02*
X49Y2373D01*
X53Y2373D02*
X61Y2373D01*
X22Y2372D02*
X30Y2372D01*
X41Y2372D02*
X61Y2372D01*
X23Y2371D02*
X30Y2371D01*
X42Y2371D02*
X60Y2371D01*
X23Y2370D02*
X31Y2370D01*
X42Y2370D02*
X60Y2370D01*
X24Y2369D02*
X31Y2369D01*
X43Y2369D02*
X59Y2369D01*
X24Y2368D02*
X31Y2368D01*
X44Y2368D02*
X58Y2368D01*
X25Y2367D02*
X30Y2367D01*
X45Y2367D02*
X57Y2367D01*
X27Y2366D02*
X28Y2366D01*
X48Y2366D02*
X55Y2366D01*
X23Y2348D02*
X26Y2348D01*
X22Y2347D02*
X27Y2347D01*
X22Y2346D02*
X28Y2346D01*
X22Y2345D02*
X28Y2345D01*
X22Y2344D02*
X28Y2344D01*
X21Y2343D02*
X28Y2343D01*
X21Y2342D02*
X28Y2342D01*
X11Y2341D02*
X54Y2341D01*
X10Y2340D02*
X56Y2340D01*
X9Y2339D02*
X58Y2339D01*
X9Y2338D02*
X59Y2338D01*
X9Y2337D02*
X60Y2337D01*
X10Y2336D02*
X60Y2336D01*
X11Y2335D02*
X61Y2335D01*
X21Y2334D02*
X28Y2334D01*
X53Y2334D02*
X61Y2334D01*
X21Y2333D02*
X28Y2333D01*
X54Y2333D02*
X62Y2333D01*
X21Y2332D02*
X28Y2332D01*
X55Y2332D02*
X62Y2332D01*
X21Y2331D02*
X28Y2331D01*
X55Y2331D02*
X62Y2331D01*
X21Y2330D02*
X28Y2330D01*
X55Y2330D02*
X62Y2330D01*
X21Y2329D02*
X28Y2329D01*
X55Y2329D02*
X62Y2329D01*
X21Y2328D02*
X28Y2328D01*
X55Y2328D02*
X62Y2328D01*
X21Y2327D02*
X28Y2327D01*
X55Y2327D02*
X62Y2327D01*
X21Y2326D02*
X28Y2326D01*
X55Y2326D02*
X62Y2326D01*
X21Y2325D02*
X28Y2325D01*
X55Y2325D02*
X62Y2325D01*
X21Y2324D02*
X28Y2324D01*
X55Y2324D02*
X62Y2324D01*
X21Y2323D02*
X28Y2323D01*
X55Y2323D02*
X62Y2323D01*
X22Y2322D02*
X28Y2322D01*
X55Y2322D02*
X62Y2322D01*
X22Y2321D02*
X28Y2321D01*
X54Y2321D02*
X61Y2321D01*
X22Y2320D02*
X27Y2320D01*
X53Y2320D02*
X61Y2320D01*
X23Y2319D02*
X26Y2319D01*
X51Y2319D02*
X61Y2319D01*
X50Y2318D02*
X60Y2318D01*
X49Y2317D02*
X60Y2317D01*
X49Y2316D02*
X59Y2316D01*
X50Y2315D02*
X58Y2315D01*
X50Y2314D02*
X56Y2314D01*
X51Y2313D02*
X54Y2313D01*
X34Y2296D02*
X49Y2296D01*
X30Y2295D02*
X53Y2295D01*
X29Y2294D02*
X55Y2294D01*
X27Y2293D02*
X56Y2293D01*
X26Y2292D02*
X57Y2292D01*
X25Y2291D02*
X58Y2291D01*
X24Y2290D02*
X59Y2290D01*
X24Y2289D02*
X60Y2289D01*
X23Y2288D02*
X32Y2288D01*
X39Y2288D02*
X45Y2288D01*
X52Y2288D02*
X60Y2288D01*
X23Y2287D02*
X31Y2287D01*
X39Y2287D02*
X45Y2287D01*
X53Y2287D02*
X61Y2287D01*
X22Y2286D02*
X30Y2286D01*
X39Y2286D02*
X45Y2286D01*
X54Y2286D02*
X61Y2286D01*
X22Y2285D02*
X29Y2285D01*
X39Y2285D02*
X45Y2285D01*
X54Y2285D02*
X61Y2285D01*
X22Y2284D02*
X28Y2284D01*
X39Y2284D02*
X45Y2284D01*
X55Y2284D02*
X62Y2284D01*
X22Y2283D02*
X28Y2283D01*
X39Y2283D02*
X45Y2283D01*
X55Y2283D02*
X62Y2283D01*
X21Y2282D02*
X28Y2282D01*
X39Y2282D02*
X45Y2282D01*
X55Y2282D02*
X62Y2282D01*
X21Y2281D02*
X28Y2281D01*
X39Y2281D02*
X45Y2281D01*
X55Y2281D02*
X62Y2281D01*
X21Y2280D02*
X28Y2280D01*
X39Y2280D02*
X45Y2280D01*
X55Y2280D02*
X62Y2280D01*
X21Y2279D02*
X28Y2279D01*
X39Y2279D02*
X45Y2279D01*
X55Y2279D02*
X62Y2279D01*
X21Y2278D02*
X28Y2278D01*
X39Y2278D02*
X45Y2278D01*
X55Y2278D02*
X62Y2278D01*
X21Y2277D02*
X28Y2277D01*
X39Y2277D02*
X45Y2277D01*
X55Y2277D02*
X62Y2277D01*
X21Y2276D02*
X28Y2276D01*
X39Y2276D02*
X45Y2276D01*
X55Y2276D02*
X62Y2276D01*
X21Y2275D02*
X28Y2275D01*
X39Y2275D02*
X45Y2275D01*
X55Y2275D02*
X62Y2275D01*
X21Y2274D02*
X28Y2274D01*
X39Y2274D02*
X45Y2274D01*
X55Y2274D02*
X62Y2274D01*
X22Y2273D02*
X28Y2273D01*
X39Y2273D02*
X45Y2273D01*
X55Y2273D02*
X62Y2273D01*
X22Y2272D02*
X28Y2272D01*
X39Y2272D02*
X45Y2272D01*
X55Y2272D02*
X62Y2272D01*
X22Y2271D02*
X29Y2271D01*
X39Y2271D02*
X45Y2271D01*
X55Y2271D02*
X62Y2271D01*
X22Y2270D02*
X29Y2270D01*
X39Y2270D02*
X45Y2270D01*
X55Y2270D02*
X62Y2270D01*
X23Y2269D02*
X30Y2269D01*
X39Y2269D02*
X45Y2269D01*
X55Y2269D02*
X62Y2269D01*
X23Y2268D02*
X31Y2268D01*
X39Y2268D02*
X45Y2268D01*
X55Y2268D02*
X62Y2268D01*
X24Y2267D02*
X45Y2267D01*
X55Y2267D02*
X62Y2267D01*
X24Y2266D02*
X45Y2266D01*
X55Y2266D02*
X62Y2266D01*
X25Y2265D02*
X45Y2265D01*
X55Y2265D02*
X62Y2265D01*
X26Y2264D02*
X45Y2264D01*
X55Y2264D02*
X62Y2264D01*
X27Y2263D02*
X45Y2263D01*
X56Y2263D02*
X62Y2263D01*
X28Y2262D02*
X45Y2262D01*
X56Y2262D02*
X61Y2262D01*
X30Y2261D02*
X44Y2261D01*
X57Y2261D02*
X61Y2261D01*
X33Y2260D02*
X42Y2260D01*
X58Y2260D02*
X59Y2260D01*
X23Y2243D02*
X60Y2243D01*
X22Y2242D02*
X61Y2242D01*
X22Y2241D02*
X62Y2241D01*
X22Y2240D02*
X62Y2240D01*
X22Y2239D02*
X62Y2239D01*
X22Y2238D02*
X61Y2238D01*
X23Y2237D02*
X60Y2237D01*
X29Y2236D02*
X38Y2236D01*
X28Y2235D02*
X37Y2235D01*
X28Y2234D02*
X36Y2234D01*
X27Y2233D02*
X36Y2233D01*
X26Y2232D02*
X35Y2232D01*
X25Y2231D02*
X34Y2231D01*
X24Y2230D02*
X33Y2230D01*
X23Y2229D02*
X32Y2229D01*
X23Y2228D02*
X31Y2228D01*
X22Y2227D02*
X30Y2227D01*
X22Y2226D02*
X29Y2226D01*
X21Y2225D02*
X29Y2225D01*
X21Y2224D02*
X28Y2224D01*
X21Y2223D02*
X28Y2223D01*
X21Y2222D02*
X28Y2222D01*
X21Y2221D02*
X28Y2221D01*
X21Y2220D02*
X28Y2220D01*
X21Y2219D02*
X28Y2219D01*
X22Y2218D02*
X28Y2218D01*
X22Y2217D02*
X28Y2217D01*
X22Y2216D02*
X28Y2216D01*
X22Y2215D02*
X30Y2215D01*
X22Y2214D02*
X35Y2214D01*
X22Y2213D02*
X36Y2213D01*
X23Y2212D02*
X36Y2212D01*
X24Y2211D02*
X36Y2211D01*
X24Y2210D02*
X36Y2210D01*
X26Y2209D02*
X36Y2209D01*
X27Y2208D02*
X35Y2208D01*
X47Y2180D02*
X53Y2180D01*
X45Y2179D02*
X55Y2179D01*
X44Y2178D02*
X56Y2178D01*
X44Y2177D02*
X56Y2177D01*
X44Y2176D02*
X56Y2176D01*
X44Y2175D02*
X56Y2175D01*
X44Y2174D02*
X56Y2174D01*
X44Y2173D02*
X56Y2173D01*
X44Y2172D02*
X56Y2172D01*
X44Y2171D02*
X56Y2171D01*
X44Y2170D02*
X56Y2170D01*
X44Y2169D02*
X56Y2169D01*
X44Y2168D02*
X56Y2168D01*
X45Y2167D02*
X56Y2167D01*
X46Y2166D02*
X54Y2166D01*
X32Y2138D02*
X51Y2138D01*
X30Y2137D02*
X54Y2137D01*
X28Y2136D02*
X55Y2136D01*
X27Y2135D02*
X56Y2135D01*
X26Y2134D02*
X57Y2134D01*
X25Y2133D02*
X58Y2133D01*
X24Y2132D02*
X59Y2132D01*
X23Y2131D02*
X60Y2131D01*
X23Y2130D02*
X31Y2130D01*
X52Y2130D02*
X60Y2130D01*
X22Y2129D02*
X30Y2129D01*
X53Y2129D02*
X61Y2129D01*
X22Y2128D02*
X29Y2128D01*
X54Y2128D02*
X61Y2128D01*
X22Y2127D02*
X29Y2127D01*
X55Y2127D02*
X62Y2127D01*
X22Y2126D02*
X28Y2126D01*
X55Y2126D02*
X62Y2126D01*
X22Y2125D02*
X28Y2125D01*
X55Y2125D02*
X62Y2125D01*
X21Y2124D02*
X28Y2124D01*
X55Y2124D02*
X62Y2124D01*
X21Y2123D02*
X28Y2123D01*
X55Y2123D02*
X62Y2123D01*
X21Y2122D02*
X28Y2122D01*
X55Y2122D02*
X62Y2122D01*
X21Y2121D02*
X28Y2121D01*
X55Y2121D02*
X62Y2121D01*
X21Y2120D02*
X28Y2120D01*
X55Y2120D02*
X62Y2120D01*
X22Y2119D02*
X28Y2119D01*
X55Y2119D02*
X62Y2119D01*
X22Y2118D02*
X28Y2118D01*
X55Y2118D02*
X62Y2118D01*
X22Y2117D02*
X29Y2117D01*
X55Y2117D02*
X62Y2117D01*
X22Y2116D02*
X30Y2116D01*
X54Y2116D02*
X61Y2116D01*
X22Y2115D02*
X30Y2115D01*
X53Y2115D02*
X61Y2115D01*
X23Y2114D02*
X31Y2114D01*
X52Y2114D02*
X60Y2114D01*
X24Y2113D02*
X32Y2113D01*
X51Y2113D02*
X60Y2113D01*
X24Y2112D02*
X33Y2112D01*
X50Y2112D02*
X59Y2112D01*
X25Y2111D02*
X34Y2111D01*
X49Y2111D02*
X58Y2111D01*
X26Y2110D02*
X35Y2110D01*
X48Y2110D02*
X57Y2110D01*
X8Y2109D02*
X60Y2109D01*
X7Y2108D02*
X61Y2108D01*
X6Y2107D02*
X62Y2107D01*
X6Y2106D02*
X62Y2106D01*
X6Y2105D02*
X62Y2105D01*
X7Y2104D02*
X61Y2104D01*
X7Y2103D02*
X60Y2103D01*
X31Y2085D02*
X52Y2085D01*
X29Y2084D02*
X54Y2084D01*
X28Y2083D02*
X56Y2083D01*
X27Y2082D02*
X57Y2082D01*
X26Y2081D02*
X58Y2081D01*
X25Y2080D02*
X59Y2080D01*
X24Y2079D02*
X59Y2079D01*
X23Y2078D02*
X33Y2078D01*
X38Y2078D02*
X45Y2078D01*
X51Y2078D02*
X60Y2078D01*
X23Y2077D02*
X31Y2077D01*
X39Y2077D02*
X45Y2077D01*
X52Y2077D02*
X61Y2077D01*
X22Y2076D02*
X30Y2076D01*
X39Y2076D02*
X45Y2076D01*
X53Y2076D02*
X61Y2076D01*
X22Y2075D02*
X29Y2075D01*
X39Y2075D02*
X45Y2075D01*
X54Y2075D02*
X61Y2075D01*
X22Y2074D02*
X28Y2074D01*
X39Y2074D02*
X45Y2074D01*
X55Y2074D02*
X62Y2074D01*
X22Y2073D02*
X28Y2073D01*
X39Y2073D02*
X45Y2073D01*
X55Y2073D02*
X62Y2073D01*
X22Y2072D02*
X28Y2072D01*
X39Y2072D02*
X45Y2072D01*
X55Y2072D02*
X62Y2072D01*
X21Y2071D02*
X28Y2071D01*
X39Y2071D02*
X45Y2071D01*
X55Y2071D02*
X62Y2071D01*
X21Y2070D02*
X28Y2070D01*
X39Y2070D02*
X45Y2070D01*
X55Y2070D02*
X62Y2070D01*
X21Y2069D02*
X28Y2069D01*
X39Y2069D02*
X45Y2069D01*
X55Y2069D02*
X62Y2069D01*
X21Y2068D02*
X28Y2068D01*
X39Y2068D02*
X45Y2068D01*
X55Y2068D02*
X62Y2068D01*
X21Y2067D02*
X28Y2067D01*
X39Y2067D02*
X45Y2067D01*
X55Y2067D02*
X62Y2067D01*
X21Y2066D02*
X28Y2066D01*
X39Y2066D02*
X45Y2066D01*
X55Y2066D02*
X62Y2066D01*
X21Y2065D02*
X28Y2065D01*
X39Y2065D02*
X45Y2065D01*
X55Y2065D02*
X62Y2065D01*
X21Y2064D02*
X28Y2064D01*
X39Y2064D02*
X45Y2064D01*
X55Y2064D02*
X62Y2064D01*
X22Y2063D02*
X28Y2063D01*
X39Y2063D02*
X45Y2063D01*
X55Y2063D02*
X62Y2063D01*
X22Y2062D02*
X28Y2062D01*
X39Y2062D02*
X45Y2062D01*
X55Y2062D02*
X62Y2062D01*
X22Y2061D02*
X28Y2061D01*
X39Y2061D02*
X45Y2061D01*
X55Y2061D02*
X62Y2061D01*
X22Y2060D02*
X29Y2060D01*
X39Y2060D02*
X45Y2060D01*
X55Y2060D02*
X62Y2060D01*
X22Y2059D02*
X30Y2059D01*
X39Y2059D02*
X45Y2059D01*
X55Y2059D02*
X62Y2059D01*
X23Y2058D02*
X31Y2058D01*
X39Y2058D02*
X45Y2058D01*
X55Y2058D02*
X62Y2058D01*
X23Y2057D02*
X33Y2057D01*
X38Y2057D02*
X45Y2057D01*
X55Y2057D02*
X62Y2057D01*
X24Y2056D02*
X45Y2056D01*
X55Y2056D02*
X62Y2056D01*
X25Y2055D02*
X45Y2055D01*
X55Y2055D02*
X62Y2055D01*
X26Y2054D02*
X45Y2054D01*
X55Y2054D02*
X62Y2054D01*
X27Y2053D02*
X45Y2053D01*
X56Y2053D02*
X62Y2053D01*
X28Y2052D02*
X45Y2052D01*
X56Y2052D02*
X62Y2052D01*
X29Y2051D02*
X44Y2051D01*
X56Y2051D02*
X61Y2051D01*
X32Y2050D02*
X43Y2050D01*
X57Y2050D02*
X60Y2050D01*
X8Y1980D02*
X10Y1980D01*
X36Y1980D02*
X62Y1980D01*
X7Y1979D02*
X12Y1979D01*
X34Y1979D02*
X62Y1979D01*
X6Y1978D02*
X12Y1978D01*
X33Y1978D02*
X62Y1978D01*
X6Y1977D02*
X12Y1977D01*
X32Y1977D02*
X62Y1977D01*
X6Y1976D02*
X12Y1976D01*
X31Y1976D02*
X62Y1976D01*
X6Y1975D02*
X12Y1975D01*
X31Y1975D02*
X62Y1975D01*
X6Y1974D02*
X12Y1974D01*
X31Y1974D02*
X62Y1974D01*
X6Y1973D02*
X12Y1973D01*
X31Y1973D02*
X37Y1973D01*
X55Y1973D02*
X62Y1973D01*
X6Y1972D02*
X12Y1972D01*
X31Y1972D02*
X37Y1972D01*
X55Y1972D02*
X62Y1972D01*
X6Y1971D02*
X12Y1971D01*
X31Y1971D02*
X37Y1971D01*
X55Y1971D02*
X62Y1971D01*
X6Y1970D02*
X12Y1970D01*
X31Y1970D02*
X37Y1970D01*
X55Y1970D02*
X62Y1970D01*
X6Y1969D02*
X12Y1969D01*
X31Y1969D02*
X37Y1969D01*
X55Y1969D02*
X62Y1969D01*
X6Y1968D02*
X12Y1968D01*
X31Y1968D02*
X37Y1968D01*
X55Y1968D02*
X62Y1968D01*
X6Y1967D02*
X12Y1967D01*
X31Y1967D02*
X37Y1967D01*
X55Y1967D02*
X62Y1967D01*
X6Y1966D02*
X12Y1966D01*
X31Y1966D02*
X37Y1966D01*
X55Y1966D02*
X62Y1966D01*
X6Y1965D02*
X12Y1965D01*
X31Y1965D02*
X37Y1965D01*
X55Y1965D02*
X62Y1965D01*
X6Y1964D02*
X12Y1964D01*
X31Y1964D02*
X37Y1964D01*
X55Y1964D02*
X62Y1964D01*
X6Y1963D02*
X12Y1963D01*
X31Y1963D02*
X37Y1963D01*
X55Y1963D02*
X62Y1963D01*
X6Y1962D02*
X12Y1962D01*
X31Y1962D02*
X37Y1962D01*
X55Y1962D02*
X62Y1962D01*
X6Y1961D02*
X12Y1961D01*
X31Y1961D02*
X37Y1961D01*
X55Y1961D02*
X62Y1961D01*
X6Y1960D02*
X12Y1960D01*
X31Y1960D02*
X37Y1960D01*
X55Y1960D02*
X62Y1960D01*
X6Y1959D02*
X12Y1959D01*
X31Y1959D02*
X37Y1959D01*
X55Y1959D02*
X62Y1959D01*
X6Y1958D02*
X12Y1958D01*
X31Y1958D02*
X37Y1958D01*
X55Y1958D02*
X62Y1958D01*
X6Y1957D02*
X12Y1957D01*
X31Y1957D02*
X37Y1957D01*
X55Y1957D02*
X62Y1957D01*
X6Y1956D02*
X12Y1956D01*
X31Y1956D02*
X37Y1956D01*
X55Y1956D02*
X62Y1956D01*
X6Y1955D02*
X12Y1955D01*
X31Y1955D02*
X37Y1955D01*
X55Y1955D02*
X62Y1955D01*
X6Y1954D02*
X12Y1954D01*
X31Y1954D02*
X37Y1954D01*
X55Y1954D02*
X62Y1954D01*
X6Y1953D02*
X12Y1953D01*
X31Y1953D02*
X37Y1953D01*
X55Y1953D02*
X62Y1953D01*
X6Y1952D02*
X12Y1952D01*
X31Y1952D02*
X37Y1952D01*
X55Y1952D02*
X62Y1952D01*
X6Y1951D02*
X37Y1951D01*
X55Y1951D02*
X62Y1951D01*
X6Y1950D02*
X37Y1950D01*
X55Y1950D02*
X62Y1950D01*
X7Y1949D02*
X37Y1949D01*
X55Y1949D02*
X62Y1949D01*
X7Y1948D02*
X36Y1948D01*
X55Y1948D02*
X62Y1948D01*
X8Y1947D02*
X35Y1947D01*
X56Y1947D02*
X62Y1947D01*
X9Y1946D02*
X34Y1946D01*
X56Y1946D02*
X61Y1946D01*
X10Y1945D02*
X33Y1945D01*
X57Y1945D02*
X60Y1945D01*
X10Y1927D02*
X58Y1927D01*
X9Y1926D02*
X59Y1926D01*
X8Y1925D02*
X60Y1925D01*
X7Y1924D02*
X61Y1924D01*
X7Y1923D02*
X61Y1923D01*
X6Y1922D02*
X62Y1922D01*
X6Y1921D02*
X62Y1921D01*
X6Y1920D02*
X12Y1920D01*
X55Y1920D02*
X62Y1920D01*
X6Y1919D02*
X12Y1919D01*
X55Y1919D02*
X62Y1919D01*
X6Y1918D02*
X12Y1918D01*
X55Y1918D02*
X62Y1918D01*
X6Y1917D02*
X12Y1917D01*
X55Y1917D02*
X62Y1917D01*
X6Y1916D02*
X12Y1916D01*
X55Y1916D02*
X62Y1916D01*
X6Y1915D02*
X12Y1915D01*
X55Y1915D02*
X62Y1915D01*
X6Y1914D02*
X12Y1914D01*
X55Y1914D02*
X62Y1914D01*
X6Y1913D02*
X12Y1913D01*
X55Y1913D02*
X62Y1913D01*
X6Y1912D02*
X12Y1912D01*
X55Y1912D02*
X62Y1912D01*
X6Y1911D02*
X12Y1911D01*
X55Y1911D02*
X62Y1911D01*
X6Y1910D02*
X12Y1910D01*
X55Y1910D02*
X62Y1910D01*
X6Y1909D02*
X12Y1909D01*
X55Y1909D02*
X62Y1909D01*
X6Y1908D02*
X12Y1908D01*
X55Y1908D02*
X62Y1908D01*
X6Y1907D02*
X12Y1907D01*
X55Y1907D02*
X62Y1907D01*
X6Y1906D02*
X12Y1906D01*
X55Y1906D02*
X62Y1906D01*
X6Y1905D02*
X12Y1905D01*
X55Y1905D02*
X62Y1905D01*
X6Y1904D02*
X12Y1904D01*
X55Y1904D02*
X62Y1904D01*
X6Y1903D02*
X12Y1903D01*
X55Y1903D02*
X62Y1903D01*
X6Y1902D02*
X12Y1902D01*
X55Y1902D02*
X62Y1902D01*
X6Y1901D02*
X12Y1901D01*
X55Y1901D02*
X62Y1901D01*
X6Y1900D02*
X12Y1900D01*
X55Y1900D02*
X62Y1900D01*
X6Y1899D02*
X62Y1899D01*
X6Y1898D02*
X62Y1898D01*
X6Y1897D02*
X61Y1897D01*
X7Y1896D02*
X61Y1896D01*
X7Y1895D02*
X61Y1895D01*
X8Y1894D02*
X60Y1894D01*
X9Y1893D02*
X59Y1893D01*
X11Y1892D02*
X56Y1892D01*
X9Y1875D02*
X10Y1875D01*
X36Y1875D02*
X62Y1875D01*
X7Y1874D02*
X11Y1874D01*
X34Y1874D02*
X62Y1874D01*
X6Y1873D02*
X12Y1873D01*
X33Y1873D02*
X62Y1873D01*
X6Y1872D02*
X12Y1872D01*
X32Y1872D02*
X62Y1872D01*
X6Y1871D02*
X12Y1871D01*
X32Y1871D02*
X62Y1871D01*
X6Y1870D02*
X12Y1870D01*
X31Y1870D02*
X62Y1870D01*
X6Y1869D02*
X12Y1869D01*
X31Y1869D02*
X62Y1869D01*
X6Y1868D02*
X12Y1868D01*
X31Y1868D02*
X62Y1868D01*
X6Y1867D02*
X12Y1867D01*
X31Y1867D02*
X37Y1867D01*
X55Y1867D02*
X62Y1867D01*
X6Y1866D02*
X12Y1866D01*
X31Y1866D02*
X37Y1866D01*
X55Y1866D02*
X62Y1866D01*
X6Y1865D02*
X12Y1865D01*
X31Y1865D02*
X37Y1865D01*
X55Y1865D02*
X62Y1865D01*
X6Y1864D02*
X12Y1864D01*
X31Y1864D02*
X37Y1864D01*
X55Y1864D02*
X62Y1864D01*
X6Y1863D02*
X12Y1863D01*
X31Y1863D02*
X37Y1863D01*
X55Y1863D02*
X62Y1863D01*
X6Y1862D02*
X12Y1862D01*
X31Y1862D02*
X37Y1862D01*
X55Y1862D02*
X62Y1862D01*
X6Y1861D02*
X12Y1861D01*
X31Y1861D02*
X37Y1861D01*
X55Y1861D02*
X62Y1861D01*
X6Y1860D02*
X12Y1860D01*
X31Y1860D02*
X37Y1860D01*
X55Y1860D02*
X62Y1860D01*
X6Y1859D02*
X12Y1859D01*
X31Y1859D02*
X37Y1859D01*
X55Y1859D02*
X62Y1859D01*
X6Y1858D02*
X12Y1858D01*
X31Y1858D02*
X37Y1858D01*
X55Y1858D02*
X62Y1858D01*
X6Y1857D02*
X12Y1857D01*
X31Y1857D02*
X37Y1857D01*
X55Y1857D02*
X62Y1857D01*
X6Y1856D02*
X12Y1856D01*
X31Y1856D02*
X37Y1856D01*
X55Y1856D02*
X62Y1856D01*
X6Y1855D02*
X12Y1855D01*
X31Y1855D02*
X37Y1855D01*
X55Y1855D02*
X62Y1855D01*
X6Y1854D02*
X12Y1854D01*
X31Y1854D02*
X37Y1854D01*
X55Y1854D02*
X62Y1854D01*
X6Y1853D02*
X12Y1853D01*
X31Y1853D02*
X37Y1853D01*
X55Y1853D02*
X62Y1853D01*
X6Y1852D02*
X12Y1852D01*
X31Y1852D02*
X37Y1852D01*
X55Y1852D02*
X62Y1852D01*
X6Y1851D02*
X12Y1851D01*
X31Y1851D02*
X37Y1851D01*
X55Y1851D02*
X62Y1851D01*
X6Y1850D02*
X12Y1850D01*
X31Y1850D02*
X37Y1850D01*
X55Y1850D02*
X62Y1850D01*
X6Y1849D02*
X12Y1849D01*
X31Y1849D02*
X37Y1849D01*
X55Y1849D02*
X62Y1849D01*
X6Y1848D02*
X12Y1848D01*
X31Y1848D02*
X37Y1848D01*
X55Y1848D02*
X62Y1848D01*
X6Y1847D02*
X12Y1847D01*
X31Y1847D02*
X37Y1847D01*
X55Y1847D02*
X62Y1847D01*
X6Y1846D02*
X37Y1846D01*
X55Y1846D02*
X62Y1846D01*
X6Y1845D02*
X37Y1845D01*
X55Y1845D02*
X62Y1845D01*
X7Y1844D02*
X37Y1844D01*
X55Y1844D02*
X62Y1844D01*
X7Y1843D02*
X36Y1843D01*
X55Y1843D02*
X62Y1843D01*
X8Y1842D02*
X36Y1842D01*
X56Y1842D02*
X62Y1842D01*
X9Y1841D02*
X35Y1841D01*
X56Y1841D02*
X61Y1841D01*
X10Y1840D02*
X33Y1840D01*
X57Y1840D02*
X61Y1840D01*
X14Y1839D02*
X30Y1839D01*
X56Y1821D02*
X57Y1821D01*
X54Y1820D02*
X58Y1820D01*
X54Y1819D02*
X59Y1819D01*
X53Y1818D02*
X60Y1818D01*
X53Y1817D02*
X60Y1817D01*
X6Y1816D02*
X37Y1816D01*
X54Y1816D02*
X61Y1816D01*
X6Y1815D02*
X37Y1815D01*
X54Y1815D02*
X61Y1815D01*
X6Y1814D02*
X37Y1814D01*
X55Y1814D02*
X62Y1814D01*
X6Y1813D02*
X37Y1813D01*
X55Y1813D02*
X62Y1813D01*
X6Y1812D02*
X37Y1812D01*
X55Y1812D02*
X62Y1812D01*
X6Y1811D02*
X37Y1811D01*
X55Y1811D02*
X62Y1811D01*
X6Y1810D02*
X37Y1810D01*
X55Y1810D02*
X62Y1810D01*
X6Y1809D02*
X12Y1809D01*
X31Y1809D02*
X37Y1809D01*
X55Y1809D02*
X62Y1809D01*
X6Y1808D02*
X12Y1808D01*
X31Y1808D02*
X37Y1808D01*
X55Y1808D02*
X62Y1808D01*
X6Y1807D02*
X12Y1807D01*
X31Y1807D02*
X37Y1807D01*
X55Y1807D02*
X62Y1807D01*
X6Y1806D02*
X12Y1806D01*
X31Y1806D02*
X37Y1806D01*
X55Y1806D02*
X62Y1806D01*
X6Y1805D02*
X12Y1805D01*
X31Y1805D02*
X37Y1805D01*
X55Y1805D02*
X62Y1805D01*
X6Y1804D02*
X12Y1804D01*
X31Y1804D02*
X37Y1804D01*
X55Y1804D02*
X62Y1804D01*
X6Y1803D02*
X12Y1803D01*
X31Y1803D02*
X37Y1803D01*
X55Y1803D02*
X62Y1803D01*
X6Y1802D02*
X12Y1802D01*
X31Y1802D02*
X37Y1802D01*
X55Y1802D02*
X62Y1802D01*
X6Y1801D02*
X12Y1801D01*
X31Y1801D02*
X37Y1801D01*
X55Y1801D02*
X62Y1801D01*
X6Y1800D02*
X12Y1800D01*
X31Y1800D02*
X37Y1800D01*
X55Y1800D02*
X62Y1800D01*
X6Y1799D02*
X12Y1799D01*
X31Y1799D02*
X37Y1799D01*
X55Y1799D02*
X62Y1799D01*
X6Y1798D02*
X12Y1798D01*
X31Y1798D02*
X37Y1798D01*
X55Y1798D02*
X62Y1798D01*
X6Y1797D02*
X12Y1797D01*
X31Y1797D02*
X37Y1797D01*
X55Y1797D02*
X62Y1797D01*
X6Y1796D02*
X12Y1796D01*
X31Y1796D02*
X37Y1796D01*
X55Y1796D02*
X62Y1796D01*
X6Y1795D02*
X12Y1795D01*
X31Y1795D02*
X62Y1795D01*
X6Y1794D02*
X12Y1794D01*
X31Y1794D02*
X62Y1794D01*
X6Y1793D02*
X12Y1793D01*
X31Y1793D02*
X61Y1793D01*
X6Y1792D02*
X12Y1792D01*
X32Y1792D02*
X61Y1792D01*
X6Y1791D02*
X12Y1791D01*
X32Y1791D02*
X60Y1791D01*
X6Y1790D02*
X12Y1790D01*
X33Y1790D02*
X60Y1790D01*
X7Y1789D02*
X11Y1789D01*
X34Y1789D02*
X58Y1789D01*
X9Y1788D02*
X9Y1788D01*
X37Y1788D02*
X56Y1788D01*
X66Y1608D02*
X70Y1608D01*
X65Y1607D02*
X72Y1607D01*
X65Y1606D02*
X74Y1606D01*
X65Y1605D02*
X74Y1605D01*
X65Y1604D02*
X75Y1604D01*
X65Y1603D02*
X76Y1603D01*
X67Y1602D02*
X76Y1602D01*
X24Y1601D02*
X26Y1601D01*
X69Y1601D02*
X77Y1601D01*
X22Y1600D02*
X27Y1600D01*
X70Y1600D02*
X77Y1600D01*
X22Y1599D02*
X28Y1599D01*
X71Y1599D02*
X77Y1599D01*
X22Y1598D02*
X28Y1598D01*
X71Y1598D02*
X77Y1598D01*
X21Y1597D02*
X28Y1597D01*
X71Y1597D02*
X77Y1597D01*
X21Y1596D02*
X28Y1596D01*
X71Y1596D02*
X77Y1596D01*
X21Y1595D02*
X28Y1595D01*
X71Y1595D02*
X77Y1595D01*
X21Y1594D02*
X28Y1594D01*
X71Y1594D02*
X77Y1594D01*
X21Y1593D02*
X28Y1593D01*
X71Y1593D02*
X77Y1593D01*
X21Y1592D02*
X28Y1592D01*
X71Y1592D02*
X77Y1592D01*
X21Y1591D02*
X28Y1591D01*
X71Y1591D02*
X77Y1591D01*
X5Y1590D02*
X11Y1590D01*
X21Y1590D02*
X28Y1590D01*
X71Y1590D02*
X77Y1590D01*
X4Y1589D02*
X12Y1589D01*
X21Y1589D02*
X28Y1589D01*
X70Y1589D02*
X77Y1589D01*
X3Y1588D02*
X12Y1588D01*
X21Y1588D02*
X28Y1588D01*
X70Y1588D02*
X77Y1588D01*
X3Y1587D02*
X12Y1587D01*
X21Y1587D02*
X28Y1587D01*
X68Y1587D02*
X77Y1587D01*
X3Y1586D02*
X12Y1586D01*
X21Y1586D02*
X76Y1586D01*
X3Y1585D02*
X12Y1585D01*
X21Y1585D02*
X76Y1585D01*
X3Y1584D02*
X12Y1584D01*
X21Y1584D02*
X75Y1584D01*
X3Y1583D02*
X12Y1583D01*
X22Y1583D02*
X74Y1583D01*
X3Y1582D02*
X12Y1582D01*
X22Y1582D02*
X73Y1582D01*
X4Y1581D02*
X11Y1581D01*
X22Y1581D02*
X71Y1581D01*
X5Y1580D02*
X10Y1580D01*
X24Y1580D02*
X69Y1580D01*
X9Y1556D02*
X9Y1556D01*
X7Y1555D02*
X11Y1555D01*
X57Y1555D02*
X61Y1555D01*
X7Y1554D02*
X12Y1554D01*
X56Y1554D02*
X61Y1554D01*
X6Y1553D02*
X12Y1553D01*
X56Y1553D02*
X62Y1553D01*
X6Y1552D02*
X12Y1552D01*
X55Y1552D02*
X62Y1552D01*
X6Y1551D02*
X12Y1551D01*
X55Y1551D02*
X62Y1551D01*
X6Y1550D02*
X12Y1550D01*
X55Y1550D02*
X62Y1550D01*
X6Y1549D02*
X12Y1549D01*
X55Y1549D02*
X62Y1549D01*
X6Y1548D02*
X12Y1548D01*
X55Y1548D02*
X62Y1548D01*
X6Y1547D02*
X12Y1547D01*
X55Y1547D02*
X62Y1547D01*
X6Y1546D02*
X12Y1546D01*
X55Y1546D02*
X62Y1546D01*
X6Y1545D02*
X62Y1545D01*
X6Y1544D02*
X62Y1544D01*
X6Y1543D02*
X62Y1543D01*
X6Y1542D02*
X62Y1542D01*
X6Y1541D02*
X62Y1541D01*
X6Y1540D02*
X62Y1540D01*
X7Y1539D02*
X62Y1539D01*
X9Y1538D02*
X62Y1538D01*
X55Y1537D02*
X62Y1537D01*
X55Y1536D02*
X62Y1536D01*
X55Y1535D02*
X62Y1535D01*
X55Y1534D02*
X62Y1534D01*
X55Y1533D02*
X62Y1533D01*
X55Y1532D02*
X62Y1532D01*
X55Y1531D02*
X62Y1531D01*
X56Y1530D02*
X62Y1530D01*
X56Y1529D02*
X61Y1529D01*
X57Y1528D02*
X60Y1528D01*
X37Y1507D02*
X46Y1507D01*
X33Y1506D02*
X50Y1506D01*
X31Y1505D02*
X52Y1505D01*
X30Y1504D02*
X53Y1504D01*
X29Y1503D02*
X54Y1503D01*
X28Y1502D02*
X55Y1502D01*
X27Y1501D02*
X56Y1501D01*
X26Y1500D02*
X57Y1500D01*
X25Y1499D02*
X35Y1499D01*
X49Y1499D02*
X57Y1499D01*
X25Y1498D02*
X34Y1498D01*
X50Y1498D02*
X58Y1498D01*
X24Y1497D02*
X33Y1497D01*
X51Y1497D02*
X59Y1497D01*
X23Y1496D02*
X32Y1496D01*
X51Y1496D02*
X60Y1496D01*
X23Y1495D02*
X31Y1495D01*
X52Y1495D02*
X61Y1495D01*
X22Y1494D02*
X30Y1494D01*
X53Y1494D02*
X61Y1494D01*
X22Y1493D02*
X29Y1493D01*
X54Y1493D02*
X61Y1493D01*
X22Y1492D02*
X29Y1492D01*
X55Y1492D02*
X62Y1492D01*
X22Y1491D02*
X28Y1491D01*
X55Y1491D02*
X62Y1491D01*
X22Y1490D02*
X28Y1490D01*
X55Y1490D02*
X62Y1490D01*
X21Y1489D02*
X28Y1489D01*
X55Y1489D02*
X62Y1489D01*
X21Y1488D02*
X28Y1488D01*
X55Y1488D02*
X62Y1488D01*
X21Y1487D02*
X28Y1487D01*
X55Y1487D02*
X62Y1487D01*
X21Y1486D02*
X28Y1486D01*
X55Y1486D02*
X62Y1486D01*
X21Y1485D02*
X28Y1485D01*
X55Y1485D02*
X62Y1485D01*
X21Y1484D02*
X28Y1484D01*
X55Y1484D02*
X62Y1484D01*
X21Y1483D02*
X28Y1483D01*
X55Y1483D02*
X62Y1483D01*
X21Y1482D02*
X28Y1482D01*
X55Y1482D02*
X62Y1482D01*
X21Y1481D02*
X28Y1481D01*
X55Y1481D02*
X62Y1481D01*
X21Y1480D02*
X28Y1480D01*
X55Y1480D02*
X62Y1480D01*
X21Y1479D02*
X28Y1479D01*
X55Y1479D02*
X62Y1479D01*
X21Y1478D02*
X28Y1478D01*
X55Y1478D02*
X62Y1478D01*
X21Y1477D02*
X28Y1477D01*
X55Y1477D02*
X62Y1477D01*
X21Y1476D02*
X28Y1476D01*
X55Y1476D02*
X62Y1476D01*
X21Y1475D02*
X28Y1475D01*
X55Y1475D02*
X62Y1475D01*
X22Y1474D02*
X28Y1474D01*
X56Y1474D02*
X62Y1474D01*
X22Y1473D02*
X27Y1473D01*
X56Y1473D02*
X61Y1473D01*
X23Y1472D02*
X27Y1472D01*
X57Y1472D02*
X61Y1472D01*
X24Y1471D02*
X25Y1471D01*
X58Y1471D02*
X59Y1471D01*
X7Y1450D02*
X11Y1450D01*
X57Y1450D02*
X60Y1450D01*
X7Y1449D02*
X12Y1449D01*
X56Y1449D02*
X61Y1449D01*
X6Y1448D02*
X12Y1448D01*
X56Y1448D02*
X62Y1448D01*
X6Y1447D02*
X12Y1447D01*
X55Y1447D02*
X62Y1447D01*
X6Y1446D02*
X12Y1446D01*
X55Y1446D02*
X62Y1446D01*
X6Y1445D02*
X12Y1445D01*
X55Y1445D02*
X62Y1445D01*
X6Y1444D02*
X12Y1444D01*
X55Y1444D02*
X62Y1444D01*
X6Y1443D02*
X12Y1443D01*
X55Y1443D02*
X62Y1443D01*
X6Y1442D02*
X12Y1442D01*
X55Y1442D02*
X62Y1442D01*
X6Y1441D02*
X12Y1441D01*
X55Y1441D02*
X62Y1441D01*
X6Y1440D02*
X62Y1440D01*
X6Y1439D02*
X62Y1439D01*
X6Y1438D02*
X62Y1438D01*
X6Y1437D02*
X62Y1437D01*
X6Y1436D02*
X62Y1436D01*
X6Y1435D02*
X62Y1435D01*
X7Y1434D02*
X62Y1434D01*
X8Y1433D02*
X62Y1433D01*
X55Y1432D02*
X62Y1432D01*
X55Y1431D02*
X62Y1431D01*
X55Y1430D02*
X62Y1430D01*
X55Y1429D02*
X62Y1429D01*
X55Y1428D02*
X62Y1428D01*
X55Y1427D02*
X62Y1427D01*
X55Y1426D02*
X62Y1426D01*
X56Y1425D02*
X62Y1425D01*
X56Y1424D02*
X61Y1424D01*
X57Y1423D02*
X61Y1423D01*
X58Y1422D02*
X59Y1422D01*
X34Y1401D02*
X50Y1401D01*
X32Y1400D02*
X52Y1400D01*
X30Y1399D02*
X53Y1399D01*
X29Y1398D02*
X54Y1398D01*
X28Y1397D02*
X55Y1397D01*
X27Y1396D02*
X56Y1396D01*
X27Y1395D02*
X56Y1395D01*
X26Y1394D02*
X35Y1394D01*
X48Y1394D02*
X57Y1394D01*
X25Y1393D02*
X34Y1393D01*
X49Y1393D02*
X58Y1393D01*
X24Y1392D02*
X33Y1392D01*
X50Y1392D02*
X59Y1392D01*
X23Y1391D02*
X32Y1391D01*
X51Y1391D02*
X60Y1391D01*
X23Y1390D02*
X31Y1390D01*
X52Y1390D02*
X60Y1390D01*
X22Y1389D02*
X30Y1389D01*
X53Y1389D02*
X61Y1389D01*
X22Y1388D02*
X30Y1388D01*
X54Y1388D02*
X61Y1388D01*
X22Y1387D02*
X29Y1387D01*
X55Y1387D02*
X62Y1387D01*
X22Y1386D02*
X28Y1386D01*
X55Y1386D02*
X62Y1386D01*
X22Y1385D02*
X28Y1385D01*
X55Y1385D02*
X62Y1385D01*
X21Y1384D02*
X28Y1384D01*
X55Y1384D02*
X62Y1384D01*
X21Y1383D02*
X28Y1383D01*
X55Y1383D02*
X62Y1383D01*
X21Y1382D02*
X28Y1382D01*
X55Y1382D02*
X62Y1382D01*
X21Y1381D02*
X28Y1381D01*
X55Y1381D02*
X62Y1381D01*
X21Y1380D02*
X28Y1380D01*
X55Y1380D02*
X62Y1380D01*
X21Y1379D02*
X28Y1379D01*
X55Y1379D02*
X62Y1379D01*
X21Y1378D02*
X28Y1378D01*
X55Y1378D02*
X62Y1378D01*
X21Y1377D02*
X28Y1377D01*
X55Y1377D02*
X62Y1377D01*
X21Y1376D02*
X28Y1376D01*
X55Y1376D02*
X62Y1376D01*
X21Y1375D02*
X28Y1375D01*
X55Y1375D02*
X62Y1375D01*
X21Y1374D02*
X28Y1374D01*
X55Y1374D02*
X62Y1374D01*
X21Y1373D02*
X28Y1373D01*
X55Y1373D02*
X62Y1373D01*
X21Y1372D02*
X28Y1372D01*
X55Y1372D02*
X62Y1372D01*
X21Y1371D02*
X28Y1371D01*
X55Y1371D02*
X62Y1371D01*
X21Y1370D02*
X28Y1370D01*
X55Y1370D02*
X62Y1370D01*
X22Y1369D02*
X28Y1369D01*
X56Y1369D02*
X62Y1369D01*
X22Y1368D02*
X28Y1368D01*
X56Y1368D02*
X62Y1368D01*
X22Y1367D02*
X27Y1367D01*
X56Y1367D02*
X61Y1367D01*
X24Y1366D02*
X26Y1366D01*
X58Y1366D02*
X60Y1366D01*
X66Y1345D02*
X70Y1345D01*
X65Y1344D02*
X72Y1344D01*
X65Y1343D02*
X74Y1343D01*
X65Y1342D02*
X74Y1342D01*
X65Y1341D02*
X75Y1341D01*
X65Y1340D02*
X76Y1340D01*
X67Y1339D02*
X76Y1339D01*
X24Y1338D02*
X26Y1338D01*
X69Y1338D02*
X77Y1338D01*
X22Y1337D02*
X27Y1337D01*
X70Y1337D02*
X77Y1337D01*
X22Y1336D02*
X28Y1336D01*
X71Y1336D02*
X77Y1336D01*
X22Y1335D02*
X28Y1335D01*
X71Y1335D02*
X77Y1335D01*
X21Y1334D02*
X28Y1334D01*
X71Y1334D02*
X77Y1334D01*
X21Y1333D02*
X28Y1333D01*
X71Y1333D02*
X77Y1333D01*
X21Y1332D02*
X28Y1332D01*
X71Y1332D02*
X77Y1332D01*
X21Y1331D02*
X28Y1331D01*
X71Y1331D02*
X77Y1331D01*
X21Y1330D02*
X28Y1330D01*
X71Y1330D02*
X77Y1330D01*
X21Y1329D02*
X28Y1329D01*
X71Y1329D02*
X77Y1329D01*
X21Y1328D02*
X28Y1328D01*
X71Y1328D02*
X77Y1328D01*
X5Y1327D02*
X11Y1327D01*
X21Y1327D02*
X28Y1327D01*
X71Y1327D02*
X77Y1327D01*
X4Y1326D02*
X12Y1326D01*
X21Y1326D02*
X28Y1326D01*
X70Y1326D02*
X77Y1326D01*
X3Y1325D02*
X12Y1325D01*
X21Y1325D02*
X28Y1325D01*
X70Y1325D02*
X77Y1325D01*
X3Y1324D02*
X12Y1324D01*
X21Y1324D02*
X28Y1324D01*
X68Y1324D02*
X77Y1324D01*
X3Y1323D02*
X12Y1323D01*
X21Y1323D02*
X76Y1323D01*
X3Y1322D02*
X12Y1322D01*
X21Y1322D02*
X76Y1322D01*
X3Y1321D02*
X12Y1321D01*
X21Y1321D02*
X75Y1321D01*
X3Y1320D02*
X12Y1320D01*
X22Y1320D02*
X74Y1320D01*
X3Y1319D02*
X12Y1319D01*
X22Y1319D02*
X73Y1319D01*
X4Y1318D02*
X11Y1318D01*
X22Y1318D02*
X71Y1318D01*
X5Y1317D02*
X10Y1317D01*
X24Y1317D02*
X69Y1317D01*
X9Y1293D02*
X9Y1293D01*
X59Y1293D02*
X59Y1293D01*
X7Y1292D02*
X11Y1292D01*
X57Y1292D02*
X61Y1292D01*
X7Y1291D02*
X12Y1291D01*
X56Y1291D02*
X61Y1291D01*
X6Y1290D02*
X12Y1290D01*
X56Y1290D02*
X62Y1290D01*
X6Y1289D02*
X12Y1289D01*
X55Y1289D02*
X62Y1289D01*
X6Y1288D02*
X12Y1288D01*
X55Y1288D02*
X62Y1288D01*
X6Y1287D02*
X12Y1287D01*
X55Y1287D02*
X62Y1287D01*
X6Y1286D02*
X12Y1286D01*
X55Y1286D02*
X62Y1286D01*
X6Y1285D02*
X12Y1285D01*
X55Y1285D02*
X62Y1285D01*
X6Y1284D02*
X12Y1284D01*
X55Y1284D02*
X62Y1284D01*
X6Y1283D02*
X12Y1283D01*
X55Y1283D02*
X62Y1283D01*
X6Y1282D02*
X62Y1282D01*
X6Y1281D02*
X62Y1281D01*
X6Y1280D02*
X62Y1280D01*
X6Y1279D02*
X62Y1279D01*
X6Y1278D02*
X62Y1278D01*
X6Y1277D02*
X62Y1277D01*
X7Y1276D02*
X62Y1276D01*
X9Y1275D02*
X62Y1275D01*
X55Y1274D02*
X62Y1274D01*
X55Y1273D02*
X62Y1273D01*
X55Y1272D02*
X62Y1272D01*
X55Y1271D02*
X62Y1271D01*
X55Y1270D02*
X62Y1270D01*
X55Y1269D02*
X62Y1269D01*
X55Y1268D02*
X62Y1268D01*
X56Y1267D02*
X62Y1267D01*
X56Y1266D02*
X61Y1266D01*
X57Y1265D02*
X60Y1265D01*
X37Y1244D02*
X46Y1244D01*
X33Y1243D02*
X50Y1243D01*
X31Y1242D02*
X52Y1242D01*
X30Y1241D02*
X53Y1241D01*
X29Y1240D02*
X54Y1240D01*
X28Y1239D02*
X55Y1239D01*
X27Y1238D02*
X56Y1238D01*
X26Y1237D02*
X57Y1237D01*
X25Y1236D02*
X35Y1236D01*
X49Y1236D02*
X57Y1236D01*
X25Y1235D02*
X34Y1235D01*
X50Y1235D02*
X58Y1235D01*
X24Y1234D02*
X33Y1234D01*
X51Y1234D02*
X59Y1234D01*
X23Y1233D02*
X32Y1233D01*
X51Y1233D02*
X60Y1233D01*
X23Y1232D02*
X31Y1232D01*
X52Y1232D02*
X61Y1232D01*
X22Y1231D02*
X30Y1231D01*
X53Y1231D02*
X61Y1231D01*
X22Y1230D02*
X29Y1230D01*
X54Y1230D02*
X61Y1230D01*
X22Y1229D02*
X29Y1229D01*
X55Y1229D02*
X62Y1229D01*
X22Y1228D02*
X28Y1228D01*
X55Y1228D02*
X62Y1228D01*
X22Y1227D02*
X28Y1227D01*
X55Y1227D02*
X62Y1227D01*
X21Y1226D02*
X28Y1226D01*
X55Y1226D02*
X62Y1226D01*
X21Y1225D02*
X28Y1225D01*
X55Y1225D02*
X62Y1225D01*
X21Y1224D02*
X28Y1224D01*
X55Y1224D02*
X62Y1224D01*
X21Y1223D02*
X28Y1223D01*
X55Y1223D02*
X62Y1223D01*
X21Y1222D02*
X28Y1222D01*
X55Y1222D02*
X62Y1222D01*
X21Y1221D02*
X28Y1221D01*
X55Y1221D02*
X62Y1221D01*
X21Y1220D02*
X28Y1220D01*
X55Y1220D02*
X62Y1220D01*
X21Y1219D02*
X28Y1219D01*
X55Y1219D02*
X62Y1219D01*
X21Y1218D02*
X28Y1218D01*
X55Y1218D02*
X62Y1218D01*
X21Y1217D02*
X28Y1217D01*
X55Y1217D02*
X62Y1217D01*
X21Y1216D02*
X28Y1216D01*
X55Y1216D02*
X62Y1216D01*
X21Y1215D02*
X28Y1215D01*
X55Y1215D02*
X62Y1215D01*
X21Y1214D02*
X28Y1214D01*
X55Y1214D02*
X62Y1214D01*
X21Y1213D02*
X28Y1213D01*
X55Y1213D02*
X62Y1213D01*
X21Y1212D02*
X28Y1212D01*
X55Y1212D02*
X62Y1212D01*
X22Y1211D02*
X28Y1211D01*
X56Y1211D02*
X62Y1211D01*
X22Y1210D02*
X27Y1210D01*
X56Y1210D02*
X61Y1210D01*
X23Y1209D02*
X27Y1209D01*
X57Y1209D02*
X61Y1209D01*
X24Y1208D02*
X25Y1208D01*
X58Y1208D02*
X59Y1208D01*
X66Y1187D02*
X71Y1187D01*
X65Y1186D02*
X73Y1186D01*
X65Y1185D02*
X74Y1185D01*
X65Y1184D02*
X75Y1184D01*
X65Y1183D02*
X75Y1183D01*
X66Y1182D02*
X76Y1182D01*
X67Y1181D02*
X76Y1181D01*
X23Y1180D02*
X26Y1180D01*
X69Y1180D02*
X77Y1180D01*
X22Y1179D02*
X27Y1179D01*
X70Y1179D02*
X77Y1179D01*
X22Y1178D02*
X28Y1178D01*
X71Y1178D02*
X77Y1178D01*
X22Y1177D02*
X28Y1177D01*
X71Y1177D02*
X77Y1177D01*
X21Y1176D02*
X28Y1176D01*
X71Y1176D02*
X77Y1176D01*
X21Y1175D02*
X28Y1175D01*
X71Y1175D02*
X77Y1175D01*
X21Y1174D02*
X28Y1174D01*
X71Y1174D02*
X77Y1174D01*
X21Y1173D02*
X28Y1173D01*
X71Y1173D02*
X77Y1173D01*
X21Y1172D02*
X28Y1172D01*
X71Y1172D02*
X77Y1172D01*
X21Y1171D02*
X28Y1171D01*
X71Y1171D02*
X77Y1171D01*
X21Y1170D02*
X28Y1170D01*
X71Y1170D02*
X77Y1170D01*
X4Y1169D02*
X11Y1169D01*
X21Y1169D02*
X28Y1169D01*
X71Y1169D02*
X77Y1169D01*
X4Y1168D02*
X12Y1168D01*
X21Y1168D02*
X28Y1168D01*
X70Y1168D02*
X77Y1168D01*
X3Y1167D02*
X12Y1167D01*
X21Y1167D02*
X28Y1167D01*
X69Y1167D02*
X77Y1167D01*
X3Y1166D02*
X12Y1166D01*
X21Y1166D02*
X77Y1166D01*
X3Y1165D02*
X12Y1165D01*
X21Y1165D02*
X76Y1165D01*
X3Y1164D02*
X12Y1164D01*
X21Y1164D02*
X76Y1164D01*
X3Y1163D02*
X12Y1163D01*
X21Y1163D02*
X75Y1163D01*
X3Y1162D02*
X12Y1162D01*
X22Y1162D02*
X74Y1162D01*
X3Y1161D02*
X12Y1161D01*
X22Y1161D02*
X73Y1161D01*
X4Y1160D02*
X11Y1160D01*
X23Y1160D02*
X71Y1160D01*
X6Y1159D02*
X9Y1159D01*
X24Y1159D02*
X68Y1159D01*
X8Y1135D02*
X10Y1135D01*
X58Y1135D02*
X59Y1135D01*
X7Y1134D02*
X11Y1134D01*
X56Y1134D02*
X61Y1134D01*
X6Y1133D02*
X12Y1133D01*
X56Y1133D02*
X61Y1133D01*
X6Y1132D02*
X12Y1132D01*
X56Y1132D02*
X62Y1132D01*
X6Y1131D02*
X12Y1131D01*
X55Y1131D02*
X62Y1131D01*
X6Y1130D02*
X12Y1130D01*
X55Y1130D02*
X62Y1130D01*
X6Y1129D02*
X12Y1129D01*
X55Y1129D02*
X62Y1129D01*
X6Y1128D02*
X12Y1128D01*
X55Y1128D02*
X62Y1128D01*
X6Y1127D02*
X12Y1127D01*
X55Y1127D02*
X62Y1127D01*
X6Y1126D02*
X12Y1126D01*
X55Y1126D02*
X62Y1126D01*
X6Y1125D02*
X12Y1125D01*
X55Y1125D02*
X62Y1125D01*
X6Y1124D02*
X62Y1124D01*
X6Y1123D02*
X62Y1123D01*
X6Y1122D02*
X62Y1122D01*
X6Y1121D02*
X62Y1121D01*
X6Y1120D02*
X62Y1120D01*
X7Y1119D02*
X62Y1119D01*
X7Y1118D02*
X62Y1118D01*
X55Y1117D02*
X62Y1117D01*
X55Y1116D02*
X62Y1116D01*
X55Y1115D02*
X62Y1115D01*
X55Y1114D02*
X62Y1114D01*
X55Y1113D02*
X62Y1113D01*
X55Y1112D02*
X62Y1112D01*
X55Y1111D02*
X62Y1111D01*
X55Y1110D02*
X62Y1110D01*
X56Y1109D02*
X62Y1109D01*
X56Y1108D02*
X61Y1108D01*
X57Y1107D02*
X60Y1107D01*
X35Y1086D02*
X48Y1086D01*
X33Y1085D02*
X51Y1085D01*
X31Y1084D02*
X52Y1084D01*
X30Y1083D02*
X53Y1083D01*
X29Y1082D02*
X54Y1082D01*
X28Y1081D02*
X55Y1081D01*
X27Y1080D02*
X56Y1080D01*
X26Y1079D02*
X57Y1079D01*
X25Y1078D02*
X35Y1078D01*
X49Y1078D02*
X58Y1078D01*
X24Y1077D02*
X34Y1077D01*
X50Y1077D02*
X59Y1077D01*
X24Y1076D02*
X33Y1076D01*
X51Y1076D02*
X59Y1076D01*
X23Y1075D02*
X32Y1075D01*
X52Y1075D02*
X60Y1075D01*
X23Y1074D02*
X31Y1074D01*
X52Y1074D02*
X61Y1074D01*
X22Y1073D02*
X30Y1073D01*
X53Y1073D02*
X61Y1073D01*
X22Y1072D02*
X29Y1072D01*
X54Y1072D02*
X61Y1072D01*
X22Y1071D02*
X28Y1071D01*
X55Y1071D02*
X62Y1071D01*
X22Y1070D02*
X28Y1070D01*
X55Y1070D02*
X62Y1070D01*
X22Y1069D02*
X28Y1069D01*
X55Y1069D02*
X62Y1069D01*
X21Y1068D02*
X28Y1068D01*
X55Y1068D02*
X62Y1068D01*
X21Y1067D02*
X28Y1067D01*
X55Y1067D02*
X62Y1067D01*
X21Y1066D02*
X28Y1066D01*
X55Y1066D02*
X62Y1066D01*
X21Y1065D02*
X28Y1065D01*
X55Y1065D02*
X62Y1065D01*
X21Y1064D02*
X28Y1064D01*
X55Y1064D02*
X62Y1064D01*
X21Y1063D02*
X28Y1063D01*
X55Y1063D02*
X62Y1063D01*
X21Y1062D02*
X28Y1062D01*
X55Y1062D02*
X62Y1062D01*
X21Y1061D02*
X28Y1061D01*
X55Y1061D02*
X62Y1061D01*
X21Y1060D02*
X28Y1060D01*
X55Y1060D02*
X62Y1060D01*
X21Y1059D02*
X28Y1059D01*
X55Y1059D02*
X62Y1059D01*
X21Y1058D02*
X28Y1058D01*
X55Y1058D02*
X62Y1058D01*
X21Y1057D02*
X28Y1057D01*
X55Y1057D02*
X62Y1057D01*
X21Y1056D02*
X28Y1056D01*
X55Y1056D02*
X62Y1056D01*
X21Y1055D02*
X28Y1055D01*
X55Y1055D02*
X62Y1055D01*
X22Y1054D02*
X28Y1054D01*
X55Y1054D02*
X62Y1054D01*
X22Y1053D02*
X28Y1053D01*
X56Y1053D02*
X62Y1053D01*
X22Y1052D02*
X27Y1052D01*
X56Y1052D02*
X61Y1052D01*
X23Y1051D02*
X27Y1051D01*
X57Y1051D02*
X61Y1051D01*
X68Y1030D02*
X68Y1030D01*
X66Y1029D02*
X71Y1029D01*
X65Y1028D02*
X73Y1028D01*
X65Y1027D02*
X74Y1027D01*
X65Y1026D02*
X75Y1026D01*
X65Y1025D02*
X75Y1025D01*
X66Y1024D02*
X76Y1024D01*
X68Y1023D02*
X76Y1023D01*
X23Y1022D02*
X26Y1022D01*
X69Y1022D02*
X77Y1022D01*
X22Y1021D02*
X27Y1021D01*
X70Y1021D02*
X77Y1021D01*
X22Y1020D02*
X28Y1020D01*
X71Y1020D02*
X77Y1020D01*
X22Y1019D02*
X28Y1019D01*
X71Y1019D02*
X77Y1019D01*
X21Y1018D02*
X28Y1018D01*
X71Y1018D02*
X77Y1018D01*
X21Y1017D02*
X28Y1017D01*
X71Y1017D02*
X77Y1017D01*
X21Y1016D02*
X28Y1016D01*
X71Y1016D02*
X77Y1016D01*
X21Y1015D02*
X28Y1015D01*
X71Y1015D02*
X77Y1015D01*
X21Y1014D02*
X28Y1014D01*
X71Y1014D02*
X77Y1014D01*
X21Y1013D02*
X28Y1013D01*
X71Y1013D02*
X77Y1013D01*
X6Y1012D02*
X9Y1012D01*
X21Y1012D02*
X28Y1012D01*
X71Y1012D02*
X77Y1012D01*
X4Y1011D02*
X11Y1011D01*
X21Y1011D02*
X28Y1011D01*
X71Y1011D02*
X77Y1011D01*
X3Y1010D02*
X12Y1010D01*
X21Y1010D02*
X28Y1010D01*
X70Y1010D02*
X77Y1010D01*
X3Y1009D02*
X12Y1009D01*
X21Y1009D02*
X28Y1009D01*
X69Y1009D02*
X77Y1009D01*
X3Y1008D02*
X12Y1008D01*
X21Y1008D02*
X76Y1008D01*
X3Y1007D02*
X12Y1007D01*
X21Y1007D02*
X76Y1007D01*
X3Y1006D02*
X12Y1006D01*
X21Y1006D02*
X75Y1006D01*
X3Y1005D02*
X12Y1005D01*
X22Y1005D02*
X75Y1005D01*
X3Y1004D02*
X12Y1004D01*
X22Y1004D02*
X74Y1004D01*
X4Y1003D02*
X12Y1003D01*
X22Y1003D02*
X72Y1003D01*
X4Y1002D02*
X11Y1002D01*
X23Y1002D02*
X71Y1002D01*
X8Y977D02*
X10Y977D01*
X57Y977D02*
X60Y977D01*
X7Y976D02*
X12Y976D01*
X56Y976D02*
X61Y976D01*
X6Y975D02*
X12Y975D01*
X56Y975D02*
X62Y975D01*
X6Y974D02*
X12Y974D01*
X56Y974D02*
X62Y974D01*
X6Y973D02*
X12Y973D01*
X55Y973D02*
X62Y973D01*
X6Y972D02*
X12Y972D01*
X55Y972D02*
X62Y972D01*
X6Y971D02*
X12Y971D01*
X55Y971D02*
X62Y971D01*
X6Y970D02*
X12Y970D01*
X55Y970D02*
X62Y970D01*
X6Y969D02*
X12Y969D01*
X55Y969D02*
X62Y969D01*
X6Y968D02*
X12Y968D01*
X55Y968D02*
X62Y968D01*
X6Y967D02*
X13Y967D01*
X55Y967D02*
X62Y967D01*
X6Y966D02*
X62Y966D01*
X6Y965D02*
X62Y965D01*
X6Y964D02*
X62Y964D01*
X6Y963D02*
X62Y963D01*
X6Y962D02*
X62Y962D01*
X7Y961D02*
X62Y961D01*
X8Y960D02*
X62Y960D01*
X55Y959D02*
X62Y959D01*
X55Y958D02*
X62Y958D01*
X55Y957D02*
X62Y957D01*
X55Y956D02*
X62Y956D01*
X55Y955D02*
X62Y955D01*
X55Y954D02*
X62Y954D01*
X55Y953D02*
X62Y953D01*
X56Y952D02*
X62Y952D01*
X56Y951D02*
X62Y951D01*
X56Y950D02*
X61Y950D01*
X57Y949D02*
X60Y949D01*
X35Y928D02*
X49Y928D01*
X32Y927D02*
X51Y927D01*
X31Y926D02*
X52Y926D01*
X30Y925D02*
X53Y925D01*
X29Y924D02*
X54Y924D01*
X28Y923D02*
X55Y923D01*
X27Y922D02*
X56Y922D01*
X26Y921D02*
X36Y921D01*
X47Y921D02*
X57Y921D01*
X25Y920D02*
X34Y920D01*
X49Y920D02*
X58Y920D01*
X24Y919D02*
X33Y919D01*
X50Y919D02*
X59Y919D01*
X24Y918D02*
X32Y918D01*
X51Y918D02*
X60Y918D01*
X23Y917D02*
X32Y917D01*
X52Y917D02*
X60Y917D01*
X22Y916D02*
X31Y916D01*
X53Y916D02*
X61Y916D01*
X22Y915D02*
X30Y915D01*
X53Y915D02*
X61Y915D01*
X22Y914D02*
X29Y914D01*
X54Y914D02*
X61Y914D01*
X22Y913D02*
X28Y913D01*
X55Y913D02*
X62Y913D01*
X22Y912D02*
X28Y912D01*
X55Y912D02*
X62Y912D01*
X21Y911D02*
X28Y911D01*
X55Y911D02*
X62Y911D01*
X21Y910D02*
X28Y910D01*
X55Y910D02*
X62Y910D01*
X21Y909D02*
X28Y909D01*
X55Y909D02*
X62Y909D01*
X21Y908D02*
X28Y908D01*
X55Y908D02*
X62Y908D01*
X21Y907D02*
X28Y907D01*
X55Y907D02*
X62Y907D01*
X21Y906D02*
X28Y906D01*
X55Y906D02*
X62Y906D01*
X21Y905D02*
X28Y905D01*
X55Y905D02*
X62Y905D01*
X21Y904D02*
X28Y904D01*
X55Y904D02*
X62Y904D01*
X21Y903D02*
X28Y903D01*
X55Y903D02*
X62Y903D01*
X21Y902D02*
X28Y902D01*
X55Y902D02*
X62Y902D01*
X21Y901D02*
X28Y901D01*
X55Y901D02*
X62Y901D01*
X21Y900D02*
X28Y900D01*
X55Y900D02*
X62Y900D01*
X21Y899D02*
X28Y899D01*
X55Y899D02*
X62Y899D01*
X21Y898D02*
X28Y898D01*
X55Y898D02*
X62Y898D01*
X21Y897D02*
X28Y897D01*
X55Y897D02*
X62Y897D01*
X22Y896D02*
X28Y896D01*
X55Y896D02*
X62Y896D01*
X22Y895D02*
X28Y895D01*
X56Y895D02*
X62Y895D01*
X22Y894D02*
X27Y894D01*
X56Y894D02*
X61Y894D01*
X23Y893D02*
X26Y893D01*
X57Y893D02*
X60Y893D01*
D02*
G04 End of Silk0*
M02*