; NON-PLATED HOLES START AT T1
; THROUGH (PLATED) HOLES START AT T100
M48
INCH
T1C0.125984
T100C0.035000
T101C0.041333
T102C0.027559
T103C0.042000
T104C0.030000
T105C0.043307
T106C0.015748
T107C0.038000
T108C0.060020
T109C0.041361
T110C0.100000
T111C0.088356
T112C0.032000
T113C0.040000
T114C0.031497
%
T1
X018581Y000857
X001066Y002406
X001042Y036733
X001066Y000913
X001042Y038418
X018747Y038510
T100
X006416Y032827
X015115Y007090
X017335Y024805
X018329Y021943
X014917Y002194
X003616Y006900
X012352Y005428
X007352Y005428
X009352Y005428
X004173Y034517
X011352Y005428
X014402Y023260
X019114Y021132
X006899Y000483
X014917Y005194
X006784Y015570
X007279Y029562
X006530Y031382
X003899Y000483
X012115Y007090
X002563Y035459
X008728Y027283
X016871Y017376
X005728Y027283
X006891Y022524
X010352Y002428
X012782Y025682
X015904Y033030
X006312Y009197
X015367Y006166
X006279Y029562
X018671Y027132
X013288Y017084
X007583Y024048
X016871Y014376
X004496Y006451
X008312Y009197
X010352Y005428
X015789Y004342
X009352Y002428
X007352Y002428
X008312Y012197
X012352Y002428
X007496Y006451
X012134Y014261
X006312Y012197
X019199Y011395
X017402Y023260
X015911Y000594
X008765Y001452
X008763Y025847
X013481Y005659
X011352Y002428
X014946Y008059
X015782Y025682
X018108Y017279
X011312Y012197
X009134Y014261
X011681Y000594
X007312Y012197
X012312Y012197
X008352Y002428
X005530Y031382
X018789Y004342
X009312Y012197
X006352Y002428
X007763Y025847
X005765Y001452
X007784Y015570
X017199Y011395
X011312Y009197
X000616Y006900
X006891Y019524
X017946Y008059
X002563Y038459
X018108Y020279
X014243Y011855
X015243Y011855
X009416Y032827
X012911Y000594
X016904Y033030
X013288Y014084
X013820Y032615
X014335Y024805
X007312Y009197
X012312Y009197
X009312Y009197
X010312Y012197
X007583Y021048
X017671Y027132
X001173Y034517
X013481Y002659
X015223Y013211
X018329Y024943
X008681Y000594
X013312Y012197
X016243Y011855
X012223Y013211
X010312Y009197
X016367Y006166
X010820Y032615
X006352Y005428
X019114Y018132
X007530Y031382
X017367Y006166
X008352Y005428
X013312Y009197
X018199Y011395
T101
X004451Y020750
X004454Y015313
X015185Y034798
X004457Y008904
X004457Y031466
X004451Y026086
X004454Y014313
X004457Y030466
X004451Y019750
X014185Y034798
X004451Y025086
X004457Y009904
T102
X013741Y021042
X013741Y018042
X014741Y018042
X015741Y021042
X014741Y021042
X015741Y018042
X008741Y018042
X011741Y021042
X008741Y021042
X011741Y018042
X010741Y018042
X012741Y021042
X009741Y018042
X010741Y021042
X012741Y018042
X009741Y021042
T103
X008838Y028578
X008838Y031558
T104
X012463Y022186
X014731Y015103
X013656Y027320
X015656Y027320
X011455Y021812
X011455Y023812
X015760Y017093
X014731Y017103
X015760Y015093
X014463Y022186
X015453Y022314
X017453Y022314
X009734Y023876
X009734Y021876
T105
X004567Y002909
X003114Y002912
X003114Y003912
X003114Y004912
X003114Y001912
T106
X008418Y022120
X005907Y028564
X004773Y028564
X005351Y013225
X005085Y022409
X015418Y009453
X004707Y011764
X003485Y019720
X007151Y011409
X005573Y014753
X003662Y016631
T107
X008346Y008000
X009346Y008000
X001827Y005898
X010806Y027307
X000816Y004864
X006951Y033798
X011346Y008000
X014305Y014117
X005704Y024216
X005666Y021445
X018594Y035200
X007265Y013284
X012346Y008000
X009806Y027307
X005704Y026216
X010346Y008000
X007346Y008000
X001816Y004864
X015305Y014117
X009265Y013284
X005656Y019228
X010265Y013284
X005656Y020228
X005704Y025216
X004548Y001794
X000820Y003865
X005656Y018228
X018594Y034200
X005951Y033798
X008265Y013284
X000827Y005898
X004583Y004030
X001820Y003865
T108
X012035Y035414
X011045Y035964
X008185Y037224
X010105Y038504
X008385Y034274
T109
X004457Y010904
X004451Y021750
X016185Y034798
X004457Y032466
X004454Y016313
X004451Y027087
T110
X005813Y035391
X003913Y036591
X005813Y037791
T111
X001498Y024145
X001504Y029525
X017126Y037751
X001501Y017254
X013243Y037751
X001498Y028028
X001504Y007963
X001504Y011846
X001501Y013371
X001498Y022691
X001498Y018808
X001504Y033408
T112
X010066Y028330
X012066Y028330
X012066Y031330
X010066Y031330
X011066Y028330
X017066Y028330
X017066Y031330
X011066Y031330
X013066Y028330
X015066Y028330
X016066Y031330
X015066Y031330
X013066Y031330
X016066Y028330
X014066Y028330
X014066Y031330
T113
X018618Y029523
X018618Y031663
X018618Y030593
T114
X018853Y009481
X018742Y016007
X017869Y009481
X009641Y016423
X017869Y003101
X009641Y015438
X018853Y003101
X017758Y016007
T00
M30
