<?xml version="1.0" encoding="UTF-8" standalone="no"?>
<!-- Created with Fritzing (https://fritzing.org/) -->

<svg
   height="2.85296in"
   version="1.2"
   viewBox="0 0 248.404 205.413"
   width="3.45006in"
   x="0in"
   y="0in"
   id="svg2944"
   sodipodi:docname="keep.v4_top_pcb.svg"
   inkscape:version="1.1.2 (0a00cf5339, 2022-02-04)"
   xmlns:inkscape="http://www.inkscape.org/namespaces/inkscape"
   xmlns:sodipodi="http://sodipodi.sourceforge.net/DTD/sodipodi-0.dtd"
   xmlns="http://www.w3.org/2000/svg"
   xmlns:svg="http://www.w3.org/2000/svg">
  <defs
     id="defs2948" />
  <sodipodi:namedview
     id="namedview2946"
     pagecolor="#ffffff"
     bordercolor="#666666"
     borderopacity="1.0"
     inkscape:pageshadow="2"
     inkscape:pageopacity="0.0"
     inkscape:pagecheckerboard="0"
     inkscape:document-units="in"
     showgrid="false"
     inkscape:snap-others="false"
     inkscape:object-nodes="false"
     inkscape:snap-nodes="false"
     inkscape:zoom="3.088897"
     inkscape:cx="164.29813"
     inkscape:cy="136.61835"
     inkscape:window-width="1920"
     inkscape:window-height="1055"
     inkscape:window-x="0"
     inkscape:window-y="25"
     inkscape:window-maximized="1"
     inkscape:current-layer="g2001" />
  <g
     partID="866068030"
     id="g1950"
     style="display:inline">
    <g
       transform="translate(0.77104)"
       id="g1948">
      <g
         transform="translate(-1.3625,-1.56348)"
         id="g1946">
        <g
           id="board">
          <g
             id="g1943">
            <defs
               id="defs1531" />
            <g
               id="layer1">
              <g
                 id="layer2">
                <path
                   id="boardoutline"
                   style="display:inline;fill:#0000ff"
                   d="M 13.986328,0 C 6.8074016,0 1.0273438,6.1929319 1.0273438,13.884766 V 229.27734 c -10e-8,7.69181 5.7800711,13.88282 12.9589842,13.88282 l 304.261722,0.002 c 7.17891,0 12.95898,-6.19293 12.95898,-13.88477 V 13.884766 C 331.20703,6.1929586 325.42695,0 318.24805,0 Z M 256.13086,9.53125 a 7.5590604,7.5590604 0 0 1 7.55859,7.560547 7.5590604,7.5590604 0 0 1 -7.55859,7.558594 7.5590604,7.5590604 0 0 1 -7.55859,-7.558594 7.5590604,7.5590604 0 0 1 7.55859,-7.560547 z"
                   transform="matrix(0.74999932,0,0,0.74999932,0.59146,1.56348)" />
              </g>
            </g>
            <g
               id="layer3">
              <path
                 d="m 11.0812,1.56326 h 228.196 c 5.38417,0 9.71874,4.64425 9.71874,10.4131 v 161.545 c 0,5.76887 -4.33456,10.4131 -9.71874,10.4131 L 11.0812,183.934 c -5.38418,0 -9.71874,-4.64425 -9.71874,-10.4131 l 4e-5,-161.5445 c 0,-5.76887 4.33455,-10.4131 9.71874,-10.4131 z"
                 fill="none"
                 id="rect7045-3"
                 stroke-width="2.80986"
                 style="display:inline" />
            </g>
            <g
               id="layer4">
              <path
                 d="m 11.0812,1.56326 h 228.196 c 5.38417,0 9.71874,4.64425 9.71874,10.4131 v 161.545 c 0,5.76887 -4.33456,10.4131 -9.71874,10.4131 L 11.0812,183.934 c -5.38418,0 -9.71874,-4.64425 -9.71874,-10.4131 l 5e-5,-161.5445 c 0,-5.76887 4.33455,-10.4131 9.71874,-10.4131 z"
                 fill="none"
                 id="rect7045-3-6"
                 stroke-width="2.80914"
                 style="display:inline" />
            </g>
          </g>
        </g>
      </g>
    </g>
  </g>
  <g
     partID="855277670"
     id="g2005">
    <g
       transform="translate(236.837,171.571)"
       id="g2003">
      <g
         id="g2001">
        <path
           id="nonconn0"
           style="stroke:#f9a435;stroke-width:0"
           d="M 7.83622,4.7181101 A 3.1181099,3.1181099 0 0 1 4.7181101,7.83622 a 3.1181099,3.1181099 0 0 1 -3.11811,-3.1181099 3.1181099,3.1181099 0 0 1 3.11811,-3.11811 3.1181099,3.1181099 0 0 1 3.1181099,3.11811 z" />
      </g>
    </g>
  </g>
  <g
     partID="855277570"
     id="g2013">
    <g
       transform="translate(236.239,1.86833)"
       id="g2011">
      <g
         id="g2009">
        <path
           id="circle2007"
           style="stroke:#f9a435;stroke-width:0"
           d="M 7.83622,4.7181101 A 3.1181099,3.1181099 0 0 1 4.7181101,7.83622 a 3.1181099,3.1181099 0 0 1 -3.11811,-3.1181099 3.1181099,3.1181099 0 0 1 3.11811,-3.11811 3.1181099,3.1181099 0 0 1 3.1181099,3.11811 z" />
      </g>
    </g>
  </g>
  <g
     partID="866104900"
     id="g2021">
    <g
       transform="translate(1.66474,69.9345)"
       id="g2019">
      <g
         id="g2017">
        <path
           id="circle2015"
           style="stroke:#f9a435;stroke-width:0"
           d="M 21.44244,11.5212 A 9.9212399,9.9212399 0 0 1 11.5212,21.44244 9.9212399,9.9212399 0 0 1 1.5999603,11.5212 9.9212399,9.9212399 0 0 1 11.5212,1.5999603 9.9212399,9.9212399 0 0 1 21.44244,11.5212 Z" />
      </g>
    </g>
  </g>
  <g
     partID="866105080"
     id="g2029">
    <g
       transform="translate(184.829,5.54915)"
       id="g2027">
      <g
         id="g2025" />
    </g>
  </g>
  <g
     partID="866105060"
     id="g2037">
    <g
       transform="translate(223.449,24.3242)"
       id="g2035">
      <g
         id="g2033">
        <path
           id="circle2031"
           style="stroke:#f9a435;stroke-width:0"
           d="M 21.44244,11.5212 A 9.9212399,9.9212399 0 0 1 11.5212,21.44244 9.9212399,9.9212399 0 0 1 1.5999603,11.5212 9.9212399,9.9212399 0 0 1 11.5212,1.5999603 9.9212399,9.9212399 0 0 1 21.44244,11.5212 Z" />
      </g>
    </g>
  </g>
  <g
     partID="866105040"
     id="g2045">
    <g
       transform="translate(223.715,68.1642)"
       id="g2043">
      <g
         id="g2041">
        <path
           id="circle2039"
           style="stroke:#f9a435;stroke-width:0"
           d="M 21.44244,11.5212 A 9.9212399,9.9212399 0 0 1 11.5212,21.44244 9.9212399,9.9212399 0 0 1 1.5999603,11.5212 9.9212399,9.9212399 0 0 1 11.5212,1.5999603 9.9212399,9.9212399 0 0 1 21.44244,11.5212 Z" />
      </g>
    </g>
  </g>
  <g
     partID="866105020"
     id="g2053">
    <g
       transform="translate(215.931,143.596)"
       id="g2051">
      <g
         id="g2049">
        <path
           id="circle2047"
           style="stroke:#f9a435;stroke-width:0"
           d="M 21.44244,11.5212 A 9.9212399,9.9212399 0 0 1 11.5212,21.44244 9.9212399,9.9212399 0 0 1 1.5999603,11.5212 9.9212399,9.9212399 0 0 1 11.5212,1.5999603 9.9212399,9.9212399 0 0 1 21.44244,11.5212 Z" />
      </g>
    </g>
  </g>
  <g
     partID="866105000"
     id="g2061">
    <g
       transform="translate(175.051,143.596)"
       id="g2059">
      <g
         id="g2057">
        <path
           id="circle2055"
           style="stroke:#f9a435;stroke-width:0"
           d="M 21.44244,11.5212 A 9.9212399,9.9212399 0 0 1 11.5212,21.44244 9.9212399,9.9212399 0 0 1 1.5999603,11.5212 9.9212399,9.9212399 0 0 1 11.5212,1.5999603 9.9212399,9.9212399 0 0 1 21.44244,11.5212 Z" />
      </g>
    </g>
  </g>
  <g
     partID="866104980"
     id="g2069">
    <g
       transform="translate(133.675,143.596)"
       id="g2067">
      <g
         id="g2065">
        <path
           id="circle2063"
           style="stroke:#f9a435;stroke-width:0"
           d="M 21.44244,11.5212 A 9.9212399,9.9212399 0 0 1 11.5212,21.44244 9.9212399,9.9212399 0 0 1 1.5999603,11.5212 9.9212399,9.9212399 0 0 1 11.5212,1.5999603 9.9212399,9.9212399 0 0 1 21.44244,11.5212 Z" />
      </g>
    </g>
  </g>
  <g
     partID="866104960"
     id="g2077">
    <g
       transform="translate(91.9474,143.596)"
       id="g2075">
      <g
         id="g2073">
        <path
           id="circle2071"
           style="stroke:#f9a435;stroke-width:0"
           d="M 21.44244,11.5212 A 9.9212399,9.9212399 0 0 1 11.5212,21.44244 9.9212399,9.9212399 0 0 1 1.5999603,11.5212 9.9212399,9.9212399 0 0 1 11.5212,1.5999603 9.9212399,9.9212399 0 0 1 21.44244,11.5212 Z" />
      </g>
    </g>
  </g>
  <g
     partID="866104920"
     id="g2085">
    <g
       transform="translate(1.66474,111.524)"
       id="g2083">
      <g
         id="g2081">
        <path
           id="circle2079"
           style="stroke:#f9a435;stroke-width:0"
           d="M 21.44244,11.5212 A 9.9212399,9.9212399 0 0 1 11.5212,21.44244 9.9212399,9.9212399 0 0 1 1.5999603,11.5212 9.9212399,9.9212399 0 0 1 11.5212,1.5999603 9.9212399,9.9212399 0 0 1 21.44244,11.5212 Z" />
      </g>
    </g>
  </g>
  <g
     partID="866104880"
     id="g2093">
    <g
       transform="translate(1.66474,19.8092)"
       id="g2091">
      <g
         id="g2089">
        <path
           id="circle2087"
           style="stroke:#f9a435;stroke-width:0"
           d="M 21.44244,11.5212 A 9.9212399,9.9212399 0 0 1 11.5212,21.44244 9.9212399,9.9212399 0 0 1 1.5999603,11.5212 9.9212399,9.9212399 0 0 1 11.5212,1.5999603 9.9212399,9.9212399 0 0 1 21.44244,11.5212 Z" />
      </g>
    </g>
  </g>
  <g
     partID="855277550"
     id="g2101">
    <g
       transform="translate(4.19936,1.86833)"
       id="g2099">
      <g
         id="g2097">
        <path
           id="circle2095"
           style="stroke:#f9a435;stroke-width:0"
           d="M 7.83622,4.7181101 A 3.1181099,3.1181099 0 0 1 4.7181101,7.83622 a 3.1181099,3.1181099 0 0 1 -3.11811,-3.1181099 3.1181099,3.1181099 0 0 1 3.11811,-3.11811 3.1181099,3.1181099 0 0 1 3.1181099,3.11811 z" />
      </g>
    </g>
  </g>
  <g
     partID="855277520"
     id="g2109">
    <g
       transform="translate(4.13528,171.571)"
       id="g2107">
      <g
         id="g2105">
        <path
           id="circle2103"
           style="stroke:#f9a435;stroke-width:0"
           d="M 7.83622,4.7181101 A 3.1181099,3.1181099 0 0 1 4.7181101,7.83622 a 3.1181099,3.1181099 0 0 1 -3.11811,-3.1181099 3.1181099,3.1181099 0 0 1 3.11811,-3.11811 3.1181099,3.1181099 0 0 1 3.1181099,3.11811 z" />
      </g>
    </g>
  </g>
  <g
     partID="855277671"
     id="g2329">
    <g
       transform="translate(236.837,171.571)"
       id="g2327">
      <g
         id="g2325">
        <path
           id="circle2323"
           style="stroke:#fdde68;stroke-width:0"
           d="M 7.83622,4.7181101 A 3.1181099,3.1181099 0 0 1 4.7181101,7.83622 a 3.1181099,3.1181099 0 0 1 -3.11811,-3.1181099 3.1181099,3.1181099 0 0 1 3.11811,-3.11811 3.1181099,3.1181099 0 0 1 3.1181099,3.11811 z" />
      </g>
    </g>
  </g>
  <g
     partID="855277571"
     id="g2337">
    <g
       transform="translate(236.239,1.86833)"
       id="g2335">
      <g
         id="g2333">
        <path
           id="circle2331"
           style="stroke:#fdde68;stroke-width:0"
           d="M 7.83622,4.7181101 A 3.1181099,3.1181099 0 0 1 4.7181101,7.83622 a 3.1181099,3.1181099 0 0 1 -3.11811,-3.1181099 3.1181099,3.1181099 0 0 1 3.11811,-3.11811 3.1181099,3.1181099 0 0 1 3.1181099,3.11811 z" />
      </g>
    </g>
  </g>
  <g
     partID="855277551"
     id="g2345">
    <g
       transform="translate(4.19936,1.86833)"
       id="g2343">
      <g
         id="g2341">
        <path
           id="circle2339"
           style="stroke:#fdde68;stroke-width:0"
           d="M 7.83622,4.7181101 A 3.1181099,3.1181099 0 0 1 4.7181101,7.83622 a 3.1181099,3.1181099 0 0 1 -3.11811,-3.1181099 3.1181099,3.1181099 0 0 1 3.11811,-3.11811 3.1181099,3.1181099 0 0 1 3.1181099,3.11811 z" />
      </g>
    </g>
  </g>
  <g
     partID="855277521"
     id="g2353">
    <g
       transform="translate(4.13528,171.571)"
       id="g2351">
      <g
         id="g2349">
        <path
           id="circle2347"
           style="stroke:#fdde68;stroke-width:0"
           d="M 7.83622,4.7181101 A 3.1181099,3.1181099 0 0 1 4.7181101,7.83622 a 3.1181099,3.1181099 0 0 1 -3.11811,-3.1181099 3.1181099,3.1181099 0 0 1 3.11811,-3.11811 3.1181099,3.1181099 0 0 1 3.1181099,3.11811 z" />
      </g>
    </g>
  </g>
  <g
     partID="866104881"
     id="g2535">
    <g
       transform="translate(1.66474,19.8092)"
       id="g2533">
      <g
         id="g2531">
        <path
           id="circle2529"
           style="stroke:#fdde68;stroke-width:0"
           d="M 21.44244,11.5212 A 9.9212399,9.9212399 0 0 1 11.5212,21.44244 9.9212399,9.9212399 0 0 1 1.5999603,11.5212 9.9212399,9.9212399 0 0 1 11.5212,1.5999603 9.9212399,9.9212399 0 0 1 21.44244,11.5212 Z" />
      </g>
    </g>
  </g>
  <g
     partID="866104901"
     id="g2543">
    <g
       transform="translate(1.66474,69.9345)"
       id="g2541">
      <g
         id="g2539">
        <circle
           cx="11.5212"
           cy="11.5212"
           fill="#000000"
           id="circle2537"
           r="9.9212399"
           stroke="#fdde68"
           stroke-width="0" />
      </g>
    </g>
  </g>
  <g
     partID="866104921"
     id="g2551"
     style="display:inline">
    <g
       transform="translate(1.66474,111.524)"
       id="g2549">
      <g
         id="g2547">
        <path
           id="circle2545"
           style="stroke:#fdde68;stroke-width:0"
           d="M 21.44244,11.5212 A 9.9212399,9.9212399 0 0 1 11.5212,21.44244 9.9212399,9.9212399 0 0 1 1.5999603,11.5212 9.9212399,9.9212399 0 0 1 11.5212,1.5999603 9.9212399,9.9212399 0 0 1 21.44244,11.5212 Z" />
      </g>
    </g>
  </g>
  <g
     partID="866104961"
     id="g2559"
     style="display:inline">
    <g
       transform="translate(91.9474,143.596)"
       id="g2557">
      <g
         id="g2555">
        <path
           id="circle2553"
           style="stroke:#fdde68;stroke-width:0"
           d="M 21.44244,11.5212 A 9.9212399,9.9212399 0 0 1 11.5212,21.44244 9.9212399,9.9212399 0 0 1 1.5999603,11.5212 9.9212399,9.9212399 0 0 1 11.5212,1.5999603 9.9212399,9.9212399 0 0 1 21.44244,11.5212 Z" />
      </g>
    </g>
  </g>
  <g
     partID="866104981"
     id="g2567"
     style="display:inline">
    <g
       transform="translate(133.675,143.596)"
       id="g2565">
      <g
         id="g2563">
        <path
           id="circle2561"
           style="stroke:#fdde68;stroke-width:0"
           d="M 21.44244,11.5212 A 9.9212399,9.9212399 0 0 1 11.5212,21.44244 9.9212399,9.9212399 0 0 1 1.5999603,11.5212 9.9212399,9.9212399 0 0 1 11.5212,1.5999603 9.9212399,9.9212399 0 0 1 21.44244,11.5212 Z" />
      </g>
    </g>
  </g>
  <g
     partID="866105001"
     id="g2575"
     style="display:inline">
    <g
       transform="translate(175.051,143.596)"
       id="g2573">
      <g
         id="g2571">
        <circle
           cx="11.5212"
           cy="11.5212"
           fill="#000000"
           id="circle2569"
           r="9.9212399"
           stroke="#fdde68"
           stroke-width="0" />
      </g>
    </g>
  </g>
  <g
     partID="866105021"
     id="g2583"
     style="display:inline">
    <g
       transform="translate(215.931,143.596)"
       id="g2581">
      <g
         id="g2579">
        <circle
           cx="11.5212"
           cy="11.5212"
           fill="#000000"
           id="circle2577"
           r="9.9212399"
           stroke="#fdde68"
           stroke-width="0" />
      </g>
    </g>
  </g>
  <g
     partID="866105041"
     id="g2591"
     style="display:inline">
    <g
       transform="translate(223.715,68.1642)"
       id="g2589">
      <g
         id="g2587">
        <path
           id="circle2585"
           style="stroke:#fdde68;stroke-width:0"
           d="M 21.44244,11.5212 A 9.9212399,9.9212399 0 0 1 11.5212,21.44244 9.9212399,9.9212399 0 0 1 1.5999603,11.5212 9.9212399,9.9212399 0 0 1 11.5212,1.5999603 9.9212399,9.9212399 0 0 1 21.44244,11.5212 Z" />
      </g>
    </g>
  </g>
  <g
     partID="866105061"
     id="g2599"
     style="display:inline">
    <g
       transform="translate(223.449,24.3242)"
       id="g2597">
      <g
         id="g2595">
        <path
           id="circle2593"
           style="stroke:#fdde68;stroke-width:0"
           d="M 21.44244,11.5212 A 9.9212399,9.9212399 0 0 1 11.5212,21.44244 9.9212399,9.9212399 0 0 1 1.5999603,11.5212 9.9212399,9.9212399 0 0 1 11.5212,1.5999603 9.9212399,9.9212399 0 0 1 21.44244,11.5212 Z" />
      </g>
    </g>
  </g>
  <g
     partID="866105081"
     id="g2607"
     style="display:none">
    <g
       transform="translate(184.829,5.54915)"
       id="g2605">
      <g
         id="g2603">
        <path
           id="circle2601"
           style="stroke:#fdde68;stroke-width:0"
           d="m 12.93855,7.2692599 a 5.6692901,5.6692901 0 0 1 -5.6692901,5.6692901 5.6692901,5.6692901 0 0 1 -5.66929,-5.6692901 5.6692901,5.6692901 0 0 1 5.66929,-5.66929 5.6692901,5.6692901 0 0 1 5.6692901,5.66929 z" />
      </g>
    </g>
  </g>
  <rect
     style="display:inline;fill:none;fill-rule:evenodd;stroke:#000000;stroke-width:0.694235px;stroke-linecap:butt;stroke-linejoin:miter;stroke-opacity:1"
     id="rect4732"
     width="9.0389824"
     height="61.782688"
     x="198.12733"
     y="20.552233" />
  <rect
     style="fill:none;fill-rule:evenodd;stroke:#000000;stroke-width:0.694235px;stroke-linecap:butt;stroke-linejoin:miter;stroke-opacity:1"
     id="rect5636"
     width="9.0389824"
     height="61.782688"
     x="198.12733"
     y="20.552233" />
  <rect
     style="fill:none;fill-rule:evenodd;stroke:#000000;stroke-width:0.736317px;stroke-linecap:butt;stroke-linejoin:miter;stroke-opacity:1"
     id="rect5636-35"
     width="16.728897"
     height="37.552208"
     x="103.61416"
     y="68.935852" />
  <rect
     style="fill:none;fill-rule:evenodd;stroke:#000000;stroke-width:0.584066px;stroke-linecap:butt;stroke-linejoin:miter;stroke-opacity:1"
     id="rect5636-35-2"
     width="16.093937"
     height="24.560347"
     x="60.873398"
     y="80.808144" />
  <rect
     style="fill:none;fill-rule:evenodd;stroke:#000000;stroke-width:0.487897px;stroke-linecap:butt;stroke-linejoin:miter;stroke-opacity:1"
     id="rect5636-3"
     width="30.455448"
     height="9.0565853"
     x="131.55298"
     y="2.9153564" />
  <rect
     style="fill:none;fill-rule:evenodd;stroke:#000000;stroke-width:0.410121;stroke-linecap:butt;stroke-linejoin:miter;stroke-miterlimit:4;stroke-dasharray:none;stroke-opacity:1"
     id="rect5636-3-5"
     width="22.649137"
     height="8.6168327"
     x="156.60522"
     y="57.645901" />
  <rect
     style="fill:none;fill-rule:evenodd;stroke:#000000;stroke-width:0.3424px;stroke-linecap:butt;stroke-linejoin:miter;stroke-opacity:1"
     id="rect5636-3-6"
     width="15.880751"
     height="8.5540047"
     x="96.253235"
     y="3.2104108" />
  <rect
     style="fill:none;fill-rule:evenodd;stroke:#000000;stroke-width:0.3424px;stroke-linecap:butt;stroke-linejoin:miter;stroke-opacity:1"
     id="rect5636-3-6-9"
     width="15.880751"
     height="8.5540047"
     x="55.483753"
     y="132.0426" />
  <rect
     style="fill:none;fill-rule:evenodd;stroke:#000000;stroke-width:0.99575px;stroke-linecap:butt;stroke-linejoin:miter;stroke-opacity:1"
     id="rect5636-3-6-9-1"
     width="42.840824"
     height="26.817312"
     x="-0.39661565"
     y="142.68852" />
  <rect
     style="fill:none;fill-rule:evenodd;stroke:#000000;stroke-width:0.408439px;stroke-linecap:butt;stroke-linejoin:miter;stroke-opacity:1"
     id="rect5636-3-6-6"
     width="22.711014"
     height="8.5111885"
     x="142.5276"
     y="104.48594" />
  <rect
     style="fill:none;fill-rule:evenodd;stroke:#000000;stroke-width:0.569822px;stroke-linecap:butt;stroke-linejoin:miter;stroke-opacity:1"
     id="rect5636-3-6-7"
     width="44.398159"
     height="8.4739714"
     x="131.79872"
     y="43.731369" />
</svg>
