<?xml version="1.0" encoding="UTF-8" standalone="no"?>
<!-- Created with Fritzing (https://fritzing.org/) -->

<svg
   height="2.55906in"
   version="1.2"
   viewBox="0 0 249.064 184.252"
   width="3.45923in"
   x="0in"
   y="0in"
   id="svg18153"
   sodipodi:docname="keep.v4_cutouts.svg"
   inkscape:label="silkscreen"
   inkscape:version="1.1.2 (0a00cf5339, 2022-02-04)"
   xmlns:inkscape="http://www.inkscape.org/namespaces/inkscape"
   xmlns:sodipodi="http://sodipodi.sourceforge.net/DTD/sodipodi-0.dtd"
   xmlns="http://www.w3.org/2000/svg"
   xmlns:svg="http://www.w3.org/2000/svg">
  <defs
     id="defs18157" />
  <sodipodi:namedview
     id="namedview18155"
     pagecolor="#ffffff"
     bordercolor="#666666"
     borderopacity="1.0"
     inkscape:pageshadow="2"
     inkscape:pageopacity="0.0"
     inkscape:pagecheckerboard="0"
     inkscape:document-units="in"
     showgrid="false"
     inkscape:zoom="2.582613"
     inkscape:cx="145.00817"
     inkscape:cy="101.06044"
     inkscape:window-width="1920"
     inkscape:window-height="1055"
     inkscape:window-x="0"
     inkscape:window-y="25"
     inkscape:window-maximized="1"
     inkscape:current-layer="layer5" />
  <g
     inkscape:groupmode="layer"
     id="layer4"
     inkscape:label="board">
    <g
       inkscape:groupmode="layer"
       id="layer5"
       inkscape:label="boardoutline">
      <path
         id="boardoutline"
         style="display:inline;fill:#0000ff"
         d="M 38.179688,0.38476562 C 17.241031,0.38476562 0.38476562,17.241031 0.38476562,38.179688 V 187.66602 H 54.535156 c 1.270865,0 2.294922,1.0221 2.294922,2.29296 v 32.22071 c 0,1.27087 -1.024057,2.29492 -2.294922,2.29492 H 4.4238281 c 6.2030409,12.35278 18.9407279,20.81055 33.7558599,20.81055 H 293.90625 c 20.93866,0 37.79492,-16.85627 37.79492,-37.79493 V 38.179688 c 0,-20.938657 -16.85626,-37.79492238 -37.79492,-37.79492238 z M 175.2168,4.1640625 h 38.95117 c 0.40581,0 0.73242,0.3266031 0.73242,0.7324219 V 15.185547 c 0,0.405818 -0.32661,0.732422 -0.73242,0.732422 H 175.2168 c -0.40582,0 -0.73243,-0.326604 -0.73242,-0.732422 V 4.8964844 c 0,-0.4058188 0.3266,-0.7324219 0.73242,-0.7324219 z m -46.99024,0.328125 h 19.70117 c 0.39553,0 0.71485,0.3193314 0.71485,0.7148437 V 15.234375 c 0,0.395513 -0.31932,0.712891 -0.71485,0.712891 h -19.70117 c -0.39551,0 -0.71289,-0.317378 -0.71289,-0.712891 V 5.2070312 c 0,-0.3955123 0.31738,-0.7148437 0.71289,-0.7148437 z m 127.07422,5.0117187 a 8.1163611,8.1946185 0 0 1 8.11719,8.1953128 8.1163611,8.1946185 0 0 1 -8.11719,8.195312 8.1163611,8.1946185 0 0 1 -8.11719,-8.195312 8.1163611,8.1946185 0 0 1 8.11719,-8.1953128 z M 23.697266,26.962891 A 11.511211,10.993857 0 0 1 35.207031,37.957031 11.511211,10.993857 0 0 1 23.697266,48.949219 11.511211,10.993857 0 0 1 12.185547,37.957031 11.511211,10.993857 0 0 1 23.697266,26.962891 Z m 244.068354,1.378906 h 2.76954 c 2.81096,0 5.07422,2.261304 5.07422,5.072265 v 71.267578 c 0,2.81096 -2.26326,5.07422 -5.07422,5.07422 h -2.76954 c -2.81095,0 -5.07421,-2.26326 -5.07421,-5.07422 V 33.414062 c 0,-2.810961 2.26326,-5.072265 5.07421,-5.072265 z m 42.65821,10.041015 A 11.511211,10.993857 0 0 1 321.93555,49.376953 11.511211,10.993857 0 0 1 310.42383,60.371094 11.511211,10.993857 0 0 1 298.91211,49.376953 11.511211,10.993857 0 0 1 310.42383,38.382812 Z M 174.86328,56.8125 h 58.60156 c 0.40926,0 0.73828,0.329026 0.73828,0.738281 v 10.376953 c 0,0.409256 -0.32902,0.738282 -0.73828,0.738282 h -58.60156 c -0.40925,0 -0.73828,-0.329026 -0.73828,-0.738282 V 57.550781 c 0,-0.409255 0.32903,-0.738281 0.73828,-0.738281 z m 32.88477,20.078125 h 29.46679 c 0.39762,0 0.71875,0.321132 0.71875,0.71875 v 10.080078 c 0,0.397618 -0.32113,0.71875 -0.71875,0.71875 h -29.46679 c -0.39762,0 -0.71875,-0.321132 -0.71875,-0.71875 V 77.609375 c 0,-0.397618 0.32113,-0.71875 0.71875,-0.71875 z m 102.66601,13.751953 a 11.511211,10.993857 0 0 1 11.50977,10.994142 11.511211,10.993857 0 0 1 -11.50977,10.99414 11.511211,10.993857 0 0 1 -11.51172,-10.99414 11.511211,10.993857 0 0 1 11.51172,-10.994142 z m -170.64258,0.869141 h 16.99219 c 1.76053,0 3.17774,1.417211 3.17774,3.177734 v 44.634767 c 0,1.76052 -1.41721,3.17773 -3.17774,3.17773 h -16.99219 c -1.76052,0 -3.17773,-1.41721 -3.17773,-3.17773 V 94.689453 c 0,-1.760523 1.41721,-3.177734 3.17773,-3.177734 z M 23.697266,100.96289 a 11.511211,10.993857 0 0 1 11.509765,10.99414 11.511211,10.993857 0 0 1 -11.509765,10.99219 11.511211,10.993857 0 0 1 -11.511719,-10.99219 11.511211,10.993857 0 0 1 11.511719,-10.99414 z m 58.128906,6.81445 h 17.640625 c 1.136113,0 2.050783,0.91468 2.050783,2.05078 v 28.80469 c 0,1.13611 -0.91467,2.05078 -2.050783,2.05078 H 81.826172 c -1.136109,0 -2.050781,-0.91467 -2.050781,-2.05078 v -28.80469 c 0,-1.1361 0.914672,-2.05078 2.050781,-2.05078 z m 112.574218,31.08008 h 29.84375 c 0.41743,0 0.75195,0.33648 0.75195,0.75391 v 10.58203 c 0,0.41744 -0.33452,0.75391 -0.75195,0.75391 h -29.84375 c -0.41743,0 -0.75391,-0.33647 -0.75391,-0.75391 v -10.58203 c 0,-0.41743 0.33648,-0.75391 0.75391,-0.75391 z M 22.068359,152.66016 A 11.511211,10.993857 0 0 1 33.580078,163.6543 11.511211,10.993857 0 0 1 22.068359,174.64844 11.511211,10.993857 0 0 1 10.556641,163.6543 11.511211,10.993857 0 0 1 22.068359,152.66016 Z m 58.707032,12.49023 h 19.687499 c 0.40381,0 0.72852,0.32666 0.72852,0.73047 v 10.23633 c 0,0.40381 -0.32471,0.73047 -0.72852,0.73047 H 80.775391 c -0.403809,0 -0.728516,-0.32666 -0.728516,-0.73047 v -10.23633 c 0,-0.40381 0.324707,-0.73047 0.728516,-0.73047 z m 210.156249,28.85156 a 11.511211,10.993857 0 0 1 11.51172,10.99414 11.511211,10.993857 0 0 1 -11.51172,10.99414 11.511211,10.993857 0 0 1 -11.51172,-10.99414 11.511211,10.993857 0 0 1 11.51172,-10.99414 z m -48.89258,0.5918 a 11.511211,10.993857 0 0 1 11.50977,10.99414 11.511211,10.993857 0 0 1 -11.50977,10.99414 11.511211,10.993857 0 0 1 -11.51172,-10.99414 11.511211,10.993857 0 0 1 11.51172,-10.99414 z m -51.53515,1.18945 a 11.511211,10.993857 0 0 1 11.51171,10.99414 11.511211,10.993857 0 0 1 -11.51171,10.99414 11.511211,10.993857 0 0 1 -11.50977,-10.99414 11.511211,10.993857 0 0 1 11.50977,-10.99414 z m -54,2 a 11.511211,10.993857 0 0 1 11.51171,10.99414 11.511211,10.993857 0 0 1 -11.51171,10.99414 11.511211,10.993857 0 0 1 -11.50977,-10.99414 11.511211,10.993857 0 0 1 11.50977,-10.99414 z"
         transform="scale(0.74999851)" />
    </g>
  </g>
  <g
     partID="857786970"
     id="g16011"
     transform="translate(0,2.999994)"
     inkscape:label="silkscreen"
     style="display:inline">
    <g
       transform="translate(92.1627,168.395)"
       id="g16009"
       style="display:inline">
      <g
         id="g16007"
         style="display:inline">
        <text
           fill="#000000"
           font-family="OCRA"
           font-size="7.2px"
           id="label"
           stroke-width="0"
           text-anchor="middle"
           x="28.799999"
           xml:space="preserve"
           y="6.48"
           style="display:inline">keep v.3</text>
      </g>
    </g>
  </g>
</svg>
