<?xml version="1.0" encoding="UTF-8" standalone="no"?>
<!-- Created with Inkscape (http://www.inkscape.org/) -->

<svg
   version="1.1"
   id="svg1390"
   width="200"
   height="122.66667"
   viewBox="0 0 200 122.66667"
   sodipodi:docname="monsters.png"
   inkscape:version="1.1.2 (0a00cf5339, 2022-02-04)"
   xmlns:inkscape="http://www.inkscape.org/namespaces/inkscape"
   xmlns:sodipodi="http://sodipodi.sourceforge.net/DTD/sodipodi-0.dtd"
   xmlns="http://www.w3.org/2000/svg"
   xmlns:svg="http://www.w3.org/2000/svg">
  <defs
     id="defs1394" />
  <sodipodi:namedview
     id="namedview1392"
     pagecolor="#ffffff"
     bordercolor="#666666"
     borderopacity="1.0"
     inkscape:pageshadow="2"
     inkscape:pageopacity="0.0"
     inkscape:pagecheckerboard="0"
     showgrid="false"
     inkscape:zoom="5.205"
     inkscape:cx="99.807877"
     inkscape:cy="61.287224"
     inkscape:window-width="1920"
     inkscape:window-height="1055"
     inkscape:window-x="0"
     inkscape:window-y="25"
     inkscape:window-maximized="1"
     inkscape:current-layer="g1396" />
  <g
     inkscape:groupmode="layer"
     inkscape:label="Image"
     id="g1396">
    <path
       style="fill:#000000;stroke-width:1.33333"
       d="m 75.101568,110.63668 c -0.110587,-2.05994 -0.07493,-5.37497 0.07923,-7.36673 0.33,-4.263585 -2.181962,-5.176675 -12.54483,-4.559975 -3.666667,0.21821 -7.866667,-0.21142 -9.333334,-0.95473 -6.512442,-3.3005 -14,0.15951 -14,6.469415 0,1.55301 -0.888598,3.98833 -1.974662,5.41183 -1.709244,2.24029 -2.154647,2.31935 -3.313715,0.58817 -0.73648,-1.1 -1.666513,-4.1 -2.066741,-6.66667 -0.400228,-2.56666 -1.562558,-7.366665 -2.582954,-10.666665 -1.020397,-3.3 -2.238361,-8.30015 -2.706589,-11.11144 -0.685115,-4.11353 -1.290987,-4.93389 -3.103329,-4.20196 -1.238606,0.50022 -4.601647,1.24274 -7.473426,1.65004 -4.472476,0.63432 -5.100035,0.42423 -4.37518,-1.46472 0.573082,-1.49342 0.147465,-2.20525 -1.318567,-2.20525 -3.7114889,0 1.542543,-4.70144 8.017479,-7.17424 l 5.638426,-2.15334 0.109493,-9.669542 c 0.09661,-8.532206 2.855844,-22.624574 5.159659,-26.352224 1.278184,-2.068145 5.619144,-1.540545 6.51412,0.791726 1.102902,2.874117 1.178358,2.782376 -2.190682,2.663485 -2.223406,-0.07847 -3.121085,0.757015 -3.467753,3.227465 -0.257265,1.833334 -1.103701,3.728344 -1.880969,4.211136 -1.60404,0.996331 -1.984152,19.296344 -0.470227,22.638474 0.750275,1.6563 -0.237916,2.78214 -4.096109,4.66667 -2.796718,1.36604 -5.278936,3.53372 -5.51604,4.81705 -0.359339,1.94493 0.583932,2.33334 5.666666,2.33334 5.987682,0 6.098026,0.0782 6.112198,4.33333 0.008,2.38333 0.907938,7.27869 2,10.87858 1.092064,3.59988 1.985569,8.24988 1.985569,10.333325 0,2.08345 0.578889,3.7881 1.286421,3.7881 1.705044,0 4.046912,-4.49617 4.046912,-7.769695 0,-1.43642 0.75,-2.88648 1.666667,-3.22234 2.189927,-0.8024 14.094335,-0.34199 25.268409,0.97727 8.40974,0.99289 8.984318,1.27911 9.772607,4.86818 0.96902,4.411905 3.225797,5.022295 4.239319,1.146585 0.383541,-1.466675 1.267802,-2.666675 1.965024,-2.666675 1.413694,0 0.476229,3.798155 -2.555799,10.354855 -2.709328,5.85886 -4.314308,6.58335 -4.557293,2.05717 z M 138.61586,97.557995 c -0.60469,-1.46667 -3.13203,-5.8822 -5.61627,-9.8123 -2.48425,-3.93009 -4.25079,-7.41165 -3.92564,-7.7368 0.32514,-0.32514 1.86686,1.47294 3.42604,3.99574 1.55917,2.5228 3.82732,5.40436 5.04034,6.40347 1.99577,1.64384 2.1338,1.37089 1.45178,-2.87081 -0.99068,-6.16127 1.6533,-9.34331 12.7378,-15.33002 9.58599,-5.17736 20.09858,-6.88457 20.41892,-3.31595 0.47788,5.32352 0.80131,5.71688 1.84402,2.24266 0.74126,-2.46988 0.4785,-5.89638 -0.76684,-10 -1.04199,-3.43346 -1.901,-6.286306 -1.90895,-6.339652 -0.008,-0.05335 2.68557,-1.445438 5.98557,-3.093538 3.3,-1.6481 6,-3.104957 6,-3.237461 0,-0.269163 -21.92465,-0.07108 -25.82992,0.233364 -2.0296,0.158221 -2.19518,0.557813 -0.88521,2.136221 0.88625,1.067876 1.17137,2.653537 0.63359,3.523689 -0.65311,1.056751 -1.59086,0.412031 -2.82404,-1.941593 -1.89894,-3.624248 -6.20411,-4.709583 -7.8861,-1.988084 -0.52197,0.844583 0.1316,2.325829 1.4525,3.291659 2.03662,1.489221 2.13082,2.082253 0.61989,3.902807 -1.58559,1.910528 -2.05644,1.611108 -4.27892,-2.720956 -2.01043,-3.918703 -2.86037,-4.566383 -4.35961,-3.322121 -1.20427,0.99945 -1.58786,2.917916 -1.08559,5.429298 0.95125,4.756217 -0.48867,5.112667 -2.22325,0.550375 -0.69703,-1.833334 -2.11799,-3.333334 -3.15768,-3.333334 -2.28026,0 -3.71626,3.24176 -2.65782,5.999996 1.12723,2.93753 -0.28092,2.44904 -4.17999,-1.450032 -2.82133,-2.821328 -3.81015,-3.151169 -5.42617,-1.81 -1.08686,0.902022 -2.37542,1.240738 -2.86346,0.752703 -0.48803,-0.488035 0.42647,-1.807557 2.03223,-2.932273 1.61573,-1.131706 2.91955,-3.464641 2.91955,-5.223977 0,-1.74847 0.55854,-3.524236 1.24121,-3.946144 1.28308,-0.792992 3.36913,1.61147 3.40504,3.9248 0.0112,0.723291 1.03885,1.511206 2.2836,1.750922 1.91883,0.369533 2.13797,-0.337732 1.44026,-4.648407 l -0.82291,-5.084255 3.34135,3.880326 c 3.79112,4.40264 6.37351,3.765265 6.58663,-1.625682 l 0.14184,-3.587977 1.45685,3.689325 c 0.80127,2.02913 2.04457,3.493418 2.76291,3.253975 1.1054,-0.368471 1.8537,-1.3985 4.43306,-6.102031 0.14842,-0.270635 1.2325,0.470584 2.40906,1.647154 1.37925,1.379253 3.65174,1.94128 6.39682,1.582049 2.3417,-0.306443 5.24382,-0.597661 6.44918,-0.647153 1.90021,-0.07803 2.00954,-0.84332 0.82238,-5.756653 -2.02225,-8.369648 -3.15889,-9.069959 -11.01394,-6.785986 -8.28628,2.409356 -12.27704,2.34797 -16.24179,-0.249826 -3.35891,-2.200845 -4.05208,-7.011393 -1.65555,-11.489364 2.89543,-5.410148 0.86859,-6.464902 -8.30897,-4.323922 -4.60154,1.073464 -8.68756,2.43869 -9.08006,3.033834 -0.3925,0.595144 -2.51363,1.660861 -4.71363,2.368263 -2.2,0.7074 -4.59228,2.597366 -5.31617,4.199925 -0.7239,1.602559 -1.7739,2.913743 -2.33334,2.913743 -0.55944,0 -1.01716,0.63541 -1.01716,1.412022 0,0.776612 0.6474,1.011907 1.43867,0.522878 0.79126,-0.489031 4.09126,-0.146464 7.33333,0.761259 4.77097,1.335789 5.89467,2.23162 5.89467,4.699345 0,1.676917 -0.75,3.351572 -1.66667,3.721455 -0.99565,0.401756 -0.72725,0.714894 0.66667,0.777778 2.3305,0.105135 3.41266,2.77193 1.12482,2.77193 -0.66468,0 -0.90813,1.148628 -0.54101,2.552507 0.72376,2.767648 -3.9696,6.277625 -7.58381,5.671636 -1.77778,-0.298078 -1.77778,-0.18328 0,1.033176 1.1,0.752682 1.50914,1.377701 0.9092,1.38893 -0.59993,0.0112 0.28409,1.951255 1.96449,4.311166 3.53577,4.965521 4.23288,7.709251 1.95873,7.709251 -0.87905,0 -1.69454,-1.27788 -1.81219,-2.83974 -0.11765,-1.56185 -1.44533,-4.15052 -2.95041,-5.752596 -1.50507,-1.602077 -2.73649,-3.501563 -2.73649,-4.221082 0,-0.719519 -2.24882,-1.459665 -4.99737,-1.644771 -2.74856,-0.185105 -5.508561,-0.847738 -6.133331,-1.472516 -2.952153,-2.952149 -0.0993,-16.758517 3.769701,-18.243175 1.10679,-0.424717 1.66252,-1.338249 1.23495,-2.030072 -0.98795,-1.598537 7.81706,-9.977641 11.79222,-11.221815 1.65027,-0.516516 4.75816,-2.408875 6.90641,-4.20524 3.10597,-2.597213 5.01745,-3.152435 9.33333,-2.711018 2.98508,0.305306 6.43854,1.006435 7.67437,1.558064 1.5674,0.699637 3.15225,-0.03825 5.24044,-2.4398724 3.26003,-3.74935 8.66457,-4.832651 7.37757,-1.478776 -0.43577,1.135588 1.05072,3.8982844 3.52402,6.5495384 5.61654,6.02066 12.93898,19.848818 12.96477,24.483475 0.0364,6.530855 1.50615,7.452397 10.16467,6.373078 4.29821,-0.535787 8.25573,-1.663256 8.7945,-2.505487 0.60744,-0.949592 0.98734,-0.543613 1,1.068672 0.0159,2.022223 0.37598,2.244444 1.62042,1 0.88,-0.88 2.2,-1.6 2.93333,-1.6 0.74075,0 0.62223,0.711111 -0.26667,1.6 -2.2231,2.223111 -1.99954,3.452863 0.73334,4.033846 1.28333,0.272824 -1.17976,0.929476 -5.47355,1.459225 -12.15975,1.500223 -13.1956,2.421673 -12.148,10.806382 1.56901,12.55791 1.44709,18.19237 -0.37845,17.49112 -0.91667,-0.35212 -1.66667,0.24096 -1.66667,1.31794 0,1.07699 -0.55957,1.95815 -1.24348,1.95815 -1.29929,0 -1.97517,-1.77368 -3.42959,-9 -0.60045,-2.98342 -1.62861,-4.33333 -3.30048,-4.33333 -6.11882,0 -25.27278,11.84443 -24.30941,15.03246 0.99837,3.30386 1.14429,11.63421 0.20379,11.63421 -0.58224,0 -1.30978,1.05 -1.61672,2.33333 -0.50047,2.09247 -0.67159,2.05806 -1.65755,-0.33333 z M 109.33615,46.170423 c 0.47166,-0.763164 2.15707,-1.02386 3.74536,-0.579325 2.28537,0.639638 2.47057,0.51614 0.88779,-0.592014 -1.7423,-1.219836 -1.71544,-1.402888 0.20851,-1.420674 1.58472,-0.01465 2.00146,-0.812154 1.47547,-2.823562 -0.42799,-1.636613 0.031,-3.275364 1.103,-3.937879 1.35091,-0.834909 0.50562,-1.69062 -3.19914,-3.238566 -4.65615,-1.945463 -5.3319,-1.928552 -8.977,0.224664 -2.77259,1.637809 -3.71778,3.034422 -3.18648,4.708376 0.41544,1.308936 0.11491,2.379882 -0.66784,2.379882 -2.247181,0 -1.024331,3.170699 1.91015,4.952754 3.32124,2.016929 5.58714,2.127293 6.70018,0.326344 z m -4.70018,-6.469779 c 0,-1.49872 3.46816,-2.896715 4.53631,-1.828561 1.60502,1.605017 0.72927,3.019242 -1.86965,3.019242 -1.46666,0 -2.66666,-0.535806 -2.66666,-1.190681 z m 51.46596,-14.196379 c 1.05342,-4.197177 -2.22924,-8.194435 -8.02419,-9.77094 -5.28048,-1.436551 -8.43269,0.174014 -8.00185,4.088403 0.18582,1.688278 0.38785,4.077866 0.44897,5.310196 0.11427,2.304077 2.90073,3.260934 10.41904,3.577825 3.57199,0.150557 4.45315,-0.397048 5.15803,-3.205484 z m -10.9362,-2.565889 c -1.95162,-1.440732 -2.16935,-2.233219 -0.95272,-3.467667 1.95553,-1.984167 5.75629,-0.685564 5.75629,1.966747 0,2.967217 -1.97948,3.585725 -4.80357,1.50092 z M 82.483298,92.875805 c 0.11108,-2.20854 0.640863,-4.00854 1.177311,-4 0.536447,0.008 1.610769,0.0155 2.387381,0.0155 0.805142,0 0.957182,0.71632 0.353751,1.66666 -1.040841,1.63922 -1.267659,2.34841 -1.599107,5 -0.413893,3.31115 -2.499458,0.8993 -2.319336,-2.68219 z m -26.499729,-6.41598 c -0.238053,-0.23733 -4.532125,-0.83733 -9.54238,-1.33333 l -9.109555,-0.90184 -0.878837,-6 c -0.48336,-3.3 -1.010937,-6.6 -1.172395,-7.33333 -0.626649,-2.84623 0.09469,-4.77158 1.688899,-4.50792 0.916667,0.15161 3.166667,-0.1296 5,-0.62491 5.691477,-1.53765 28.205284,-1.99022 32.065412,-0.64457 2.017089,0.70316 3.966876,2.42354 4.33286,3.82306 1.039733,3.97595 -2.958275,15.80343 -5.868455,17.36091 -2.265164,1.21228 -15.33345,1.34041 -16.515549,0.16193 z m 18.086388,-8.81002 c 1.83812,-4.85035 2.108863,-7.03607 1.032236,-8.33333 -0.802676,-0.96717 -1.970536,-1.75848 -2.595245,-1.75848 -2.030206,0 -5.204314,7.74463 -5.204314,12.69822 0,7.01962 3.65249,5.61288 6.767323,-2.60641 z m -9.504097,0.90819 c 1.971641,-7.09954 1.734724,-10.95657 -0.731126,-11.90281 -2.855389,-1.09571 -4.567989,1.87564 -4.362822,7.56947 0.09248,2.56667 -0.271962,5.71667 -0.80988,7 -0.747614,1.78362 -0.330938,2.33334 1.768612,2.33334 2.038157,0 3.104824,-1.28974 4.135216,-5 z m -17.248551,2 c 0.0081,-0.91667 0.386576,-3.91667 0.841123,-6.66667 0.73303,-4.43482 0.514196,-5 -1.935986,-5 -1.519338,0 -3.146862,0.62202 -3.61672,1.38226 -1.475997,2.38822 0.775758,11.95107 2.814106,11.95107 1.035541,0 1.889406,-0.75 1.897477,-1.66666 z m 9.670992,-3.58663 c 0.627832,-2.42288 0.798297,-5.29964 0.378812,-6.3928 -1.426127,-3.71643 -4.731145,0.88512 -4.731145,6.58713 0,6.42362 2.668322,6.30448 4.352333,-0.19433 z m 27.647667,9.25329 c 0,-0.73333 0.6,-1.33333 1.333333,-1.33333 0.733333,0 1.333333,0.6 1.333333,1.33333 0,0.73334 -0.6,1.33334 -1.333333,1.33334 -0.733333,0 -1.333333,-0.6 -1.333333,-1.33334 z m 28.335382,-6.62484 c -2.87898,-2.6971 -2.90838,-2.94527 -0.74079,-6.25343 2.01358,-3.07312 2.34825,-3.18518 3.10128,-1.03846 0.58553,1.66922 1.14291,1.92294 1.81948,0.82823 1.47376,-2.3846 6.78735,-1.89198 9.278,0.86016 3.45397,3.8166 2.58407,5.04776 -1.11272,1.5748 -3.18956,-2.99643 -3.42127,-3.02615 -5.92551,-0.75984 -1.43338,1.29719 -2.78967,3.53721 -3.01397,4.97782 -0.39892,2.56214 -0.47322,2.55801 -3.40577,-0.18928 z m -27.002049,-1.9233 c 0,-2.25682 7.450944,-8.78519 10.026695,-8.78519 1.002152,0 2.697243,-1.24944 3.766863,-2.77655 1.324631,-1.89116 2.943121,-2.58289 5.075601,-2.16926 l 3.13084,0.60728 -2.985,0.98752 c -1.64176,0.54313 -2.69705,1.45345 -2.34509,2.02292 0.7271,1.17648 -7.371474,5.32809 -10.393537,5.32809 -1.093007,0 -2.36376,1.5 -2.823897,3.33333 -0.888726,3.54097 -3.452475,4.6191 -3.452475,1.45186 z m 1.446367,-18.3674 c -1.630563,-4.677437 -1.917524,-8.666724 -0.523119,-7.272319 0.507787,0.507787 1.114769,2.257787 1.348851,3.88889 0.772036,5.379629 1.626509,6.510859 4.281486,5.668199 1.411698,-0.44806 3.664652,-1.03777 5.006568,-1.31048 1.341915,-0.27271 3.489846,-0.91169 4.773176,-1.419943 1.6376,-0.648563 2.33334,-0.285227 2.33334,1.218543 0,1.17846 -0.75,2.17106 -1.66667,2.20578 -0.91667,0.0347 -4.465801,0.31225 -7.886966,0.61675 -5.953562,0.52989 -6.282321,0.37571 -7.666666,-3.59542 z M 33.369732,57.746302 c -8.994768,-8.994767 1.733024,-20.639989 11.75309,-12.758203 6.372008,5.012223 3.848619,13.113876 -4.75309,15.260386 -2.811568,0.70161 -4.343975,0.15384 -7,-2.502183 z m 8.011396,-4.189198 c 2.542645,-1.965692 2.534254,-2.046605 -0.476983,-4.599817 -1.685836,-1.429412 -3.935836,-2.264819 -5,-1.85646 -2.836041,1.088291 -2.359173,3.123832 0.731823,3.123832 1.466666,0 2.666666,0.669979 2.666666,1.488841 0,0.832403 -1.175749,1.181378 -2.666666,0.791494 -2.62093,-0.685388 -3.525786,0.416102 -1.777778,2.164109 1.429444,1.429446 3.746484,1.034447 6.522938,-1.111999 z M 69.3852,59.573785 c -5.08904,-0.97973 -10.082566,-5.254454 -10.082566,-8.631207 0,-4.396939 3.27764,-10.349547 6.339734,-11.513753 3.857278,-1.466534 7.471482,-0.593033 12.656545,3.058904 3.254111,2.291931 3.63046,3.32651 3.371888,9.269255 -0.206279,4.740887 -0.956412,7.045461 -2.575291,7.911861 -2.506436,1.3414 -2.235138,1.34406 -9.71031,-0.0951 z m 7.327129,-7.491809 c 1.726181,-3.2254 1.604363,-3.696169 -1.689611,-6.529526 -1.952456,-1.679432 -3.138205,-3.558831 -2.635001,-4.176443 0.503204,-0.617611 -0.490657,0.06396 -2.208581,1.514609 -5.103892,4.30982 -5.752274,6.606764 -2.768896,9.809043 3.572165,3.834271 7.042814,3.603811 9.302089,-0.617683 z m -6.743028,-1.714665 c 0,-0.654875 0.949072,-1.554875 2.109049,-2 2.98009,-1.143568 3.224284,-1.053389 3.224284,1.190681 0,1.111111 -1.185185,2 -2.666666,2 -1.466667,0 -2.666667,-0.535806 -2.666667,-1.190681 z m 16.259932,-3.475985 c 0.02717,-2.2 0.325997,-2.938582 0.664056,-1.641291 0.338057,1.297289 0.315825,3.097289 -0.0494,4 -0.365236,0.902709 -0.641829,-0.158709 -0.614656,-2.358709 z m -0.704376,-5.555557 c -0.488889,-0.488888 -0.888889,-2.888888 -0.888889,-5.333333 0,-2.644051 -0.675148,-4.461621 -1.666667,-4.486848 -0.955576,-0.02432 -0.587332,-0.8594 0.863096,-1.95729 1.391369,-1.053186 3.041369,-1.598694 3.666667,-1.21224 1.51299,0.93508 1.458914,6.855542 -0.07125,7.801239 -0.664488,0.410676 -0.894509,1.946087 -0.511158,3.412023 0.710804,2.718115 0.200812,3.369055 -1.391792,1.776449 z M 38.654236,34.1951 c 1.274212,-2.061717 8.009714,-5.209356 18.38563,-8.591982 l 9.500115,-3.097108 7.080489,6.049051 c 3.894268,3.326979 6.792008,6.337532 6.43942,6.690119 -0.352588,0.352588 -3.51721,-1.268321 -7.032496,-3.602019 -7.05155,-4.681327 -10.207722,-4.715928 -20.778833,-0.2278 -7.118672,3.022343 -14.702687,4.573106 -13.594325,2.779739 z"
       id="path1480" />
  </g>
</svg>
