G04 MADE WITH FRITZING*
G04 WWW.FRITZING.ORG*
G04 DOUBLE SIDED*
G04 HOLES PLATED*
G04 CONTOUR ON CENTER OF CONTOUR VECTOR*
%ASAXBY*%
%FSLAX23Y23*%
%MOIN*%
%OFA0B0*%
%SFA1.0B1.0*%
%ADD10R,0.001000X0.001000*%
%LNSILK0*%
G90*
G70*
G54D10*
X8Y3315D02*
X60Y3315D01*
X7Y3314D02*
X61Y3314D01*
X6Y3313D02*
X62Y3313D01*
X6Y3312D02*
X62Y3312D01*
X6Y3311D02*
X62Y3311D01*
X7Y3310D02*
X61Y3310D01*
X8Y3309D02*
X60Y3309D01*
X26Y3308D02*
X36Y3308D01*
X48Y3308D02*
X57Y3308D01*
X25Y3307D02*
X34Y3307D01*
X49Y3307D02*
X58Y3307D01*
X24Y3306D02*
X33Y3306D01*
X50Y3306D02*
X59Y3306D01*
X24Y3305D02*
X32Y3305D01*
X51Y3305D02*
X60Y3305D01*
X23Y3304D02*
X32Y3304D01*
X52Y3304D02*
X60Y3304D01*
X23Y3303D02*
X31Y3303D01*
X53Y3303D02*
X61Y3303D01*
X22Y3302D02*
X30Y3302D01*
X54Y3302D02*
X61Y3302D01*
X22Y3301D02*
X29Y3301D01*
X54Y3301D02*
X61Y3301D01*
X22Y3300D02*
X28Y3300D01*
X55Y3300D02*
X62Y3300D01*
X22Y3299D02*
X28Y3299D01*
X55Y3299D02*
X62Y3299D01*
X21Y3298D02*
X28Y3298D01*
X55Y3298D02*
X62Y3298D01*
X21Y3297D02*
X28Y3297D01*
X55Y3297D02*
X62Y3297D01*
X21Y3296D02*
X28Y3296D01*
X55Y3296D02*
X62Y3296D01*
X21Y3295D02*
X28Y3295D01*
X55Y3295D02*
X62Y3295D01*
X21Y3294D02*
X28Y3294D01*
X55Y3294D02*
X62Y3294D01*
X22Y3293D02*
X28Y3293D01*
X55Y3293D02*
X62Y3293D01*
X22Y3292D02*
X28Y3292D01*
X55Y3292D02*
X62Y3292D01*
X22Y3291D02*
X29Y3291D01*
X55Y3291D02*
X62Y3291D01*
X22Y3290D02*
X29Y3290D01*
X54Y3290D02*
X61Y3290D01*
X22Y3289D02*
X30Y3289D01*
X53Y3289D02*
X61Y3289D01*
X23Y3288D02*
X31Y3288D01*
X52Y3288D02*
X61Y3288D01*
X23Y3287D02*
X33Y3287D01*
X51Y3287D02*
X60Y3287D01*
X24Y3286D02*
X59Y3286D01*
X25Y3285D02*
X58Y3285D01*
X26Y3284D02*
X58Y3284D01*
X27Y3283D02*
X57Y3283D01*
X28Y3282D02*
X56Y3282D01*
X29Y3281D02*
X54Y3281D01*
X31Y3280D02*
X52Y3280D01*
X8Y3259D02*
X10Y3259D01*
X58Y3259D02*
X60Y3259D01*
X7Y3258D02*
X12Y3258D01*
X56Y3258D02*
X61Y3258D01*
X6Y3257D02*
X12Y3257D01*
X56Y3257D02*
X62Y3257D01*
X6Y3256D02*
X12Y3256D01*
X56Y3256D02*
X62Y3256D01*
X6Y3255D02*
X12Y3255D01*
X55Y3255D02*
X62Y3255D01*
X6Y3254D02*
X12Y3254D01*
X55Y3254D02*
X62Y3254D01*
X6Y3253D02*
X12Y3253D01*
X55Y3253D02*
X62Y3253D01*
X6Y3252D02*
X12Y3252D01*
X55Y3252D02*
X62Y3252D01*
X6Y3251D02*
X12Y3251D01*
X55Y3251D02*
X62Y3251D01*
X6Y3250D02*
X12Y3250D01*
X55Y3250D02*
X62Y3250D01*
X6Y3249D02*
X12Y3249D01*
X55Y3249D02*
X62Y3249D01*
X6Y3248D02*
X62Y3248D01*
X6Y3247D02*
X62Y3247D01*
X6Y3246D02*
X62Y3246D01*
X6Y3245D02*
X62Y3245D01*
X6Y3244D02*
X62Y3244D01*
X7Y3243D02*
X62Y3243D01*
X8Y3242D02*
X62Y3242D01*
X55Y3241D02*
X62Y3241D01*
X55Y3240D02*
X62Y3240D01*
X55Y3239D02*
X62Y3239D01*
X55Y3238D02*
X62Y3238D01*
X55Y3237D02*
X62Y3237D01*
X55Y3236D02*
X62Y3236D01*
X55Y3235D02*
X62Y3235D01*
X56Y3234D02*
X62Y3234D01*
X56Y3233D02*
X62Y3233D01*
X56Y3232D02*
X61Y3232D01*
X57Y3231D02*
X60Y3231D01*
X23Y3209D02*
X56Y3209D01*
X22Y3208D02*
X57Y3208D01*
X22Y3207D02*
X58Y3207D01*
X22Y3206D02*
X59Y3206D01*
X22Y3205D02*
X60Y3205D01*
X22Y3204D02*
X61Y3204D01*
X24Y3203D02*
X61Y3203D01*
X54Y3202D02*
X61Y3202D01*
X55Y3201D02*
X62Y3201D01*
X55Y3200D02*
X62Y3200D01*
X55Y3199D02*
X62Y3199D01*
X55Y3198D02*
X62Y3198D01*
X55Y3197D02*
X62Y3197D01*
X55Y3196D02*
X62Y3196D01*
X55Y3195D02*
X62Y3195D01*
X55Y3194D02*
X62Y3194D01*
X55Y3193D02*
X62Y3193D01*
X54Y3192D02*
X61Y3192D01*
X54Y3191D02*
X61Y3191D01*
X53Y3190D02*
X61Y3190D01*
X52Y3189D02*
X60Y3189D01*
X52Y3188D02*
X59Y3188D01*
X51Y3187D02*
X59Y3187D01*
X50Y3186D02*
X58Y3186D01*
X50Y3185D02*
X58Y3185D01*
X49Y3184D02*
X57Y3184D01*
X48Y3183D02*
X56Y3183D01*
X25Y3182D02*
X58Y3182D01*
X23Y3181D02*
X61Y3181D01*
X22Y3180D02*
X61Y3180D01*
X22Y3179D02*
X62Y3179D01*
X22Y3178D02*
X62Y3178D01*
X22Y3177D02*
X62Y3177D01*
X22Y3176D02*
X61Y3176D01*
X24Y3175D02*
X60Y3175D01*
X31Y3157D02*
X53Y3157D01*
X29Y3156D02*
X55Y3156D01*
X28Y3155D02*
X56Y3155D01*
X26Y3154D02*
X57Y3154D01*
X25Y3153D02*
X58Y3153D01*
X25Y3152D02*
X59Y3152D01*
X24Y3151D02*
X59Y3151D01*
X23Y3150D02*
X32Y3150D01*
X39Y3150D02*
X45Y3150D01*
X51Y3150D02*
X60Y3150D01*
X23Y3149D02*
X31Y3149D01*
X39Y3149D02*
X45Y3149D01*
X52Y3149D02*
X61Y3149D01*
X22Y3148D02*
X30Y3148D01*
X39Y3148D02*
X45Y3148D01*
X54Y3148D02*
X61Y3148D01*
X22Y3147D02*
X29Y3147D01*
X39Y3147D02*
X45Y3147D01*
X54Y3147D02*
X61Y3147D01*
X22Y3146D02*
X28Y3146D01*
X39Y3146D02*
X45Y3146D01*
X55Y3146D02*
X62Y3146D01*
X22Y3145D02*
X28Y3145D01*
X39Y3145D02*
X45Y3145D01*
X55Y3145D02*
X62Y3145D01*
X22Y3144D02*
X28Y3144D01*
X39Y3144D02*
X45Y3144D01*
X55Y3144D02*
X62Y3144D01*
X21Y3143D02*
X28Y3143D01*
X39Y3143D02*
X45Y3143D01*
X55Y3143D02*
X62Y3143D01*
X21Y3142D02*
X28Y3142D01*
X39Y3142D02*
X45Y3142D01*
X55Y3142D02*
X62Y3142D01*
X21Y3141D02*
X28Y3141D01*
X39Y3141D02*
X45Y3141D01*
X55Y3141D02*
X62Y3141D01*
X21Y3140D02*
X28Y3140D01*
X39Y3140D02*
X45Y3140D01*
X55Y3140D02*
X62Y3140D01*
X21Y3139D02*
X28Y3139D01*
X39Y3139D02*
X45Y3139D01*
X55Y3139D02*
X62Y3139D01*
X21Y3138D02*
X28Y3138D01*
X39Y3138D02*
X45Y3138D01*
X55Y3138D02*
X62Y3138D01*
X21Y3137D02*
X28Y3137D01*
X39Y3137D02*
X45Y3137D01*
X55Y3137D02*
X62Y3137D01*
X21Y3136D02*
X28Y3136D01*
X39Y3136D02*
X45Y3136D01*
X55Y3136D02*
X62Y3136D01*
X22Y3135D02*
X28Y3135D01*
X39Y3135D02*
X45Y3135D01*
X55Y3135D02*
X62Y3135D01*
X22Y3134D02*
X28Y3134D01*
X39Y3134D02*
X45Y3134D01*
X55Y3134D02*
X62Y3134D01*
X22Y3133D02*
X28Y3133D01*
X39Y3133D02*
X45Y3133D01*
X55Y3133D02*
X62Y3133D01*
X22Y3132D02*
X29Y3132D01*
X39Y3132D02*
X45Y3132D01*
X55Y3132D02*
X62Y3132D01*
X22Y3131D02*
X30Y3131D01*
X39Y3131D02*
X45Y3131D01*
X55Y3131D02*
X62Y3131D01*
X23Y3130D02*
X31Y3130D01*
X39Y3130D02*
X45Y3130D01*
X55Y3130D02*
X62Y3130D01*
X23Y3129D02*
X33Y3129D01*
X38Y3129D02*
X45Y3129D01*
X55Y3129D02*
X62Y3129D01*
X24Y3128D02*
X45Y3128D01*
X55Y3128D02*
X62Y3128D01*
X25Y3127D02*
X45Y3127D01*
X55Y3127D02*
X62Y3127D01*
X26Y3126D02*
X45Y3126D01*
X55Y3126D02*
X62Y3126D01*
X27Y3125D02*
X45Y3125D01*
X56Y3125D02*
X62Y3125D01*
X28Y3124D02*
X45Y3124D01*
X56Y3124D02*
X62Y3124D01*
X30Y3123D02*
X44Y3123D01*
X56Y3123D02*
X61Y3123D01*
X32Y3122D02*
X43Y3122D01*
X58Y3122D02*
X60Y3122D01*
X22Y3105D02*
X75Y3105D01*
X21Y3104D02*
X76Y3104D01*
X20Y3103D02*
X77Y3103D01*
X20Y3102D02*
X77Y3102D01*
X20Y3101D02*
X77Y3101D01*
X20Y3100D02*
X77Y3100D01*
X21Y3099D02*
X76Y3099D01*
X24Y3098D02*
X74Y3098D01*
X25Y3097D02*
X34Y3097D01*
X49Y3097D02*
X59Y3097D01*
X24Y3096D02*
X33Y3096D01*
X50Y3096D02*
X60Y3096D01*
X23Y3095D02*
X32Y3095D01*
X51Y3095D02*
X61Y3095D01*
X22Y3094D02*
X31Y3094D01*
X52Y3094D02*
X61Y3094D01*
X21Y3093D02*
X30Y3093D01*
X53Y3093D02*
X62Y3093D01*
X21Y3092D02*
X29Y3092D01*
X54Y3092D02*
X62Y3092D01*
X21Y3091D02*
X28Y3091D01*
X55Y3091D02*
X63Y3091D01*
X20Y3090D02*
X27Y3090D01*
X56Y3090D02*
X63Y3090D01*
X20Y3089D02*
X27Y3089D01*
X57Y3089D02*
X63Y3089D01*
X20Y3088D02*
X26Y3088D01*
X57Y3088D02*
X63Y3088D01*
X20Y3087D02*
X26Y3087D01*
X57Y3087D02*
X63Y3087D01*
X20Y3086D02*
X26Y3086D01*
X57Y3086D02*
X63Y3086D01*
X20Y3085D02*
X27Y3085D01*
X57Y3085D02*
X63Y3085D01*
X20Y3084D02*
X27Y3084D01*
X56Y3084D02*
X63Y3084D01*
X21Y3083D02*
X28Y3083D01*
X55Y3083D02*
X63Y3083D01*
X21Y3082D02*
X29Y3082D01*
X54Y3082D02*
X62Y3082D01*
X21Y3081D02*
X30Y3081D01*
X54Y3081D02*
X62Y3081D01*
X22Y3080D02*
X31Y3080D01*
X53Y3080D02*
X61Y3080D01*
X23Y3079D02*
X31Y3079D01*
X52Y3079D02*
X61Y3079D01*
X23Y3078D02*
X32Y3078D01*
X51Y3078D02*
X60Y3078D01*
X24Y3077D02*
X33Y3077D01*
X50Y3077D02*
X59Y3077D01*
X25Y3076D02*
X58Y3076D01*
X26Y3075D02*
X57Y3075D01*
X27Y3074D02*
X56Y3074D01*
X28Y3073D02*
X55Y3073D01*
X29Y3072D02*
X54Y3072D01*
X30Y3071D02*
X53Y3071D01*
X32Y3070D02*
X52Y3070D01*
X23Y3052D02*
X60Y3052D01*
X22Y3051D02*
X61Y3051D01*
X22Y3050D02*
X62Y3050D01*
X22Y3049D02*
X62Y3049D01*
X22Y3048D02*
X62Y3048D01*
X22Y3047D02*
X61Y3047D01*
X23Y3046D02*
X60Y3046D01*
X29Y3045D02*
X38Y3045D01*
X28Y3044D02*
X37Y3044D01*
X28Y3043D02*
X36Y3043D01*
X27Y3042D02*
X35Y3042D01*
X26Y3041D02*
X35Y3041D01*
X25Y3040D02*
X34Y3040D01*
X24Y3039D02*
X33Y3039D01*
X23Y3038D02*
X32Y3038D01*
X22Y3037D02*
X31Y3037D01*
X22Y3036D02*
X30Y3036D01*
X22Y3035D02*
X29Y3035D01*
X21Y3034D02*
X29Y3034D01*
X21Y3033D02*
X28Y3033D01*
X21Y3032D02*
X28Y3032D01*
X21Y3031D02*
X28Y3031D01*
X21Y3030D02*
X28Y3030D01*
X21Y3029D02*
X28Y3029D01*
X21Y3028D02*
X28Y3028D01*
X22Y3027D02*
X28Y3027D01*
X22Y3026D02*
X28Y3026D01*
X22Y3025D02*
X29Y3025D01*
X22Y3024D02*
X30Y3024D01*
X22Y3023D02*
X35Y3023D01*
X22Y3022D02*
X36Y3022D01*
X23Y3021D02*
X36Y3021D01*
X24Y3020D02*
X36Y3020D01*
X25Y3019D02*
X36Y3019D01*
X26Y3018D02*
X36Y3018D01*
X28Y3017D02*
X35Y3017D01*
X24Y2996D02*
X26Y2996D01*
X58Y2996D02*
X60Y2996D01*
X22Y2995D02*
X27Y2995D01*
X56Y2995D02*
X61Y2995D01*
X22Y2994D02*
X28Y2994D01*
X56Y2994D02*
X62Y2994D01*
X22Y2993D02*
X28Y2993D01*
X56Y2993D02*
X62Y2993D01*
X21Y2992D02*
X28Y2992D01*
X55Y2992D02*
X62Y2992D01*
X21Y2991D02*
X28Y2991D01*
X55Y2991D02*
X62Y2991D01*
X21Y2990D02*
X28Y2990D01*
X55Y2990D02*
X62Y2990D01*
X6Y2989D02*
X10Y2989D01*
X21Y2989D02*
X28Y2989D01*
X55Y2989D02*
X62Y2989D01*
X4Y2988D02*
X11Y2988D01*
X21Y2988D02*
X28Y2988D01*
X55Y2988D02*
X62Y2988D01*
X3Y2987D02*
X12Y2987D01*
X21Y2987D02*
X28Y2987D01*
X55Y2987D02*
X62Y2987D01*
X3Y2986D02*
X12Y2986D01*
X21Y2986D02*
X28Y2986D01*
X55Y2986D02*
X62Y2986D01*
X3Y2985D02*
X12Y2985D01*
X21Y2985D02*
X62Y2985D01*
X3Y2984D02*
X12Y2984D01*
X21Y2984D02*
X62Y2984D01*
X3Y2983D02*
X12Y2983D01*
X21Y2983D02*
X62Y2983D01*
X3Y2982D02*
X12Y2982D01*
X22Y2982D02*
X62Y2982D01*
X3Y2981D02*
X12Y2981D01*
X22Y2981D02*
X62Y2981D01*
X4Y2980D02*
X12Y2980D01*
X22Y2980D02*
X62Y2980D01*
X5Y2979D02*
X11Y2979D01*
X23Y2979D02*
X62Y2979D01*
X55Y2978D02*
X62Y2978D01*
X55Y2977D02*
X62Y2977D01*
X55Y2976D02*
X62Y2976D01*
X55Y2975D02*
X62Y2975D01*
X55Y2974D02*
X62Y2974D01*
X55Y2973D02*
X62Y2973D01*
X55Y2972D02*
X62Y2972D01*
X56Y2971D02*
X62Y2971D01*
X56Y2970D02*
X62Y2970D01*
X56Y2969D02*
X61Y2969D01*
X57Y2968D02*
X60Y2968D01*
X23Y2946D02*
X61Y2946D01*
X22Y2945D02*
X61Y2945D01*
X22Y2944D02*
X62Y2944D01*
X22Y2943D02*
X62Y2943D01*
X22Y2942D02*
X62Y2942D01*
X22Y2941D02*
X61Y2941D01*
X23Y2940D02*
X60Y2940D01*
X27Y2939D02*
X35Y2939D01*
X27Y2938D02*
X34Y2938D01*
X26Y2937D02*
X34Y2937D01*
X25Y2936D02*
X33Y2936D01*
X25Y2935D02*
X33Y2935D01*
X24Y2934D02*
X32Y2934D01*
X23Y2933D02*
X31Y2933D01*
X23Y2932D02*
X31Y2932D01*
X22Y2931D02*
X30Y2931D01*
X22Y2930D02*
X29Y2930D01*
X22Y2929D02*
X29Y2929D01*
X22Y2928D02*
X28Y2928D01*
X22Y2927D02*
X28Y2927D01*
X21Y2926D02*
X28Y2926D01*
X21Y2925D02*
X28Y2925D01*
X21Y2924D02*
X28Y2924D01*
X21Y2923D02*
X28Y2923D01*
X22Y2922D02*
X28Y2922D01*
X22Y2921D02*
X28Y2921D01*
X22Y2920D02*
X29Y2920D01*
X22Y2919D02*
X58Y2919D01*
X22Y2918D02*
X61Y2918D01*
X23Y2917D02*
X61Y2917D01*
X24Y2916D02*
X62Y2916D01*
X24Y2915D02*
X62Y2915D01*
X26Y2914D02*
X61Y2914D01*
X27Y2913D02*
X61Y2913D01*
X30Y2912D02*
X59Y2912D01*
X23Y2894D02*
X26Y2894D01*
X22Y2893D02*
X27Y2893D01*
X22Y2892D02*
X28Y2892D01*
X22Y2891D02*
X28Y2891D01*
X21Y2890D02*
X28Y2890D01*
X21Y2889D02*
X28Y2889D01*
X21Y2888D02*
X28Y2888D01*
X11Y2887D02*
X55Y2887D01*
X10Y2886D02*
X57Y2886D01*
X9Y2885D02*
X58Y2885D01*
X9Y2884D02*
X59Y2884D01*
X9Y2883D02*
X60Y2883D01*
X10Y2882D02*
X60Y2882D01*
X11Y2881D02*
X61Y2881D01*
X21Y2880D02*
X28Y2880D01*
X53Y2880D02*
X61Y2880D01*
X21Y2879D02*
X28Y2879D01*
X55Y2879D02*
X62Y2879D01*
X21Y2878D02*
X28Y2878D01*
X55Y2878D02*
X62Y2878D01*
X21Y2877D02*
X28Y2877D01*
X55Y2877D02*
X62Y2877D01*
X21Y2876D02*
X28Y2876D01*
X55Y2876D02*
X62Y2876D01*
X21Y2875D02*
X28Y2875D01*
X55Y2875D02*
X62Y2875D01*
X21Y2874D02*
X28Y2874D01*
X55Y2874D02*
X62Y2874D01*
X21Y2873D02*
X28Y2873D01*
X55Y2873D02*
X62Y2873D01*
X21Y2872D02*
X28Y2872D01*
X55Y2872D02*
X62Y2872D01*
X21Y2871D02*
X28Y2871D01*
X55Y2871D02*
X62Y2871D01*
X21Y2870D02*
X28Y2870D01*
X55Y2870D02*
X62Y2870D01*
X21Y2869D02*
X28Y2869D01*
X55Y2869D02*
X62Y2869D01*
X22Y2868D02*
X28Y2868D01*
X55Y2868D02*
X62Y2868D01*
X22Y2867D02*
X28Y2867D01*
X54Y2867D02*
X61Y2867D01*
X22Y2866D02*
X27Y2866D01*
X52Y2866D02*
X61Y2866D01*
X23Y2865D02*
X26Y2865D01*
X51Y2865D02*
X61Y2865D01*
X50Y2864D02*
X60Y2864D01*
X49Y2863D02*
X59Y2863D01*
X49Y2862D02*
X59Y2862D01*
X50Y2861D02*
X57Y2861D01*
X50Y2860D02*
X56Y2860D01*
X52Y2859D02*
X54Y2859D01*
X15Y2842D02*
X16Y2842D01*
X37Y2842D02*
X53Y2842D01*
X13Y2841D02*
X18Y2841D01*
X34Y2841D02*
X56Y2841D01*
X11Y2840D02*
X18Y2840D01*
X32Y2840D02*
X57Y2840D01*
X10Y2839D02*
X19Y2839D01*
X31Y2839D02*
X59Y2839D01*
X10Y2838D02*
X19Y2838D01*
X30Y2838D02*
X59Y2838D01*
X9Y2837D02*
X18Y2837D01*
X29Y2837D02*
X60Y2837D01*
X8Y2836D02*
X18Y2836D01*
X29Y2836D02*
X61Y2836D01*
X7Y2835D02*
X16Y2835D01*
X28Y2835D02*
X61Y2835D01*
X7Y2834D02*
X15Y2834D01*
X28Y2834D02*
X35Y2834D01*
X54Y2834D02*
X61Y2834D01*
X7Y2833D02*
X14Y2833D01*
X28Y2833D02*
X35Y2833D01*
X55Y2833D02*
X62Y2833D01*
X6Y2832D02*
X13Y2832D01*
X28Y2832D02*
X34Y2832D01*
X55Y2832D02*
X62Y2832D01*
X6Y2831D02*
X13Y2831D01*
X28Y2831D02*
X34Y2831D01*
X55Y2831D02*
X62Y2831D01*
X6Y2830D02*
X13Y2830D01*
X28Y2830D02*
X34Y2830D01*
X55Y2830D02*
X62Y2830D01*
X6Y2829D02*
X12Y2829D01*
X28Y2829D02*
X34Y2829D01*
X54Y2829D02*
X62Y2829D01*
X6Y2828D02*
X12Y2828D01*
X28Y2828D02*
X34Y2828D01*
X53Y2828D02*
X61Y2828D01*
X6Y2827D02*
X12Y2827D01*
X28Y2827D02*
X61Y2827D01*
X6Y2826D02*
X12Y2826D01*
X28Y2826D02*
X60Y2826D01*
X6Y2825D02*
X12Y2825D01*
X28Y2825D02*
X60Y2825D01*
X6Y2824D02*
X12Y2824D01*
X28Y2824D02*
X59Y2824D01*
X6Y2823D02*
X12Y2823D01*
X28Y2823D02*
X60Y2823D01*
X6Y2822D02*
X12Y2822D01*
X28Y2822D02*
X60Y2822D01*
X6Y2821D02*
X12Y2821D01*
X30Y2821D02*
X61Y2821D01*
X6Y2820D02*
X12Y2820D01*
X53Y2820D02*
X61Y2820D01*
X6Y2819D02*
X12Y2819D01*
X55Y2819D02*
X62Y2819D01*
X6Y2818D02*
X13Y2818D01*
X55Y2818D02*
X62Y2818D01*
X6Y2817D02*
X13Y2817D01*
X55Y2817D02*
X62Y2817D01*
X6Y2816D02*
X13Y2816D01*
X55Y2816D02*
X62Y2816D01*
X7Y2815D02*
X14Y2815D01*
X55Y2815D02*
X62Y2815D01*
X7Y2814D02*
X16Y2814D01*
X54Y2814D02*
X61Y2814D01*
X8Y2813D02*
X61Y2813D01*
X8Y2812D02*
X61Y2812D01*
X9Y2811D02*
X60Y2811D01*
X10Y2810D02*
X59Y2810D01*
X11Y2809D02*
X58Y2809D01*
X12Y2808D02*
X57Y2808D01*
X14Y2807D02*
X55Y2807D01*
X19Y2806D02*
X51Y2806D01*
X22Y2789D02*
X76Y2789D01*
X21Y2788D02*
X77Y2788D01*
X20Y2787D02*
X77Y2787D01*
X20Y2786D02*
X77Y2786D01*
X20Y2785D02*
X77Y2785D01*
X21Y2784D02*
X77Y2784D01*
X22Y2783D02*
X76Y2783D01*
X25Y2782D02*
X35Y2782D01*
X48Y2782D02*
X58Y2782D01*
X24Y2781D02*
X34Y2781D01*
X50Y2781D02*
X59Y2781D01*
X23Y2780D02*
X33Y2780D01*
X51Y2780D02*
X60Y2780D01*
X22Y2779D02*
X32Y2779D01*
X52Y2779D02*
X61Y2779D01*
X22Y2778D02*
X31Y2778D01*
X53Y2778D02*
X62Y2778D01*
X21Y2777D02*
X30Y2777D01*
X54Y2777D02*
X62Y2777D01*
X21Y2776D02*
X29Y2776D01*
X55Y2776D02*
X63Y2776D01*
X20Y2775D02*
X28Y2775D01*
X56Y2775D02*
X63Y2775D01*
X20Y2774D02*
X27Y2774D01*
X56Y2774D02*
X63Y2774D01*
X20Y2773D02*
X26Y2773D01*
X57Y2773D02*
X63Y2773D01*
X20Y2772D02*
X26Y2772D01*
X57Y2772D02*
X63Y2772D01*
X20Y2771D02*
X26Y2771D01*
X57Y2771D02*
X63Y2771D01*
X20Y2770D02*
X26Y2770D01*
X57Y2770D02*
X63Y2770D01*
X20Y2769D02*
X27Y2769D01*
X57Y2769D02*
X63Y2769D01*
X20Y2768D02*
X27Y2768D01*
X56Y2768D02*
X63Y2768D01*
X21Y2767D02*
X28Y2767D01*
X55Y2767D02*
X63Y2767D01*
X21Y2766D02*
X29Y2766D01*
X54Y2766D02*
X62Y2766D01*
X22Y2765D02*
X30Y2765D01*
X53Y2765D02*
X62Y2765D01*
X22Y2764D02*
X31Y2764D01*
X52Y2764D02*
X61Y2764D01*
X23Y2763D02*
X32Y2763D01*
X52Y2763D02*
X60Y2763D01*
X24Y2762D02*
X33Y2762D01*
X51Y2762D02*
X59Y2762D01*
X25Y2761D02*
X34Y2761D01*
X49Y2761D02*
X59Y2761D01*
X26Y2760D02*
X58Y2760D01*
X27Y2759D02*
X57Y2759D01*
X27Y2758D02*
X56Y2758D01*
X29Y2757D02*
X55Y2757D01*
X30Y2756D02*
X54Y2756D01*
X31Y2755D02*
X53Y2755D01*
X33Y2754D02*
X50Y2754D01*
X35Y2737D02*
X48Y2737D01*
X31Y2736D02*
X53Y2736D01*
X29Y2735D02*
X55Y2735D01*
X27Y2734D02*
X56Y2734D01*
X26Y2733D02*
X57Y2733D01*
X25Y2732D02*
X58Y2732D01*
X24Y2731D02*
X59Y2731D01*
X24Y2730D02*
X59Y2730D01*
X23Y2729D02*
X32Y2729D01*
X51Y2729D02*
X60Y2729D01*
X23Y2728D02*
X31Y2728D01*
X53Y2728D02*
X61Y2728D01*
X22Y2727D02*
X30Y2727D01*
X54Y2727D02*
X61Y2727D01*
X22Y2726D02*
X29Y2726D01*
X54Y2726D02*
X61Y2726D01*
X22Y2725D02*
X28Y2725D01*
X55Y2725D02*
X62Y2725D01*
X22Y2724D02*
X28Y2724D01*
X55Y2724D02*
X62Y2724D01*
X21Y2723D02*
X28Y2723D01*
X55Y2723D02*
X62Y2723D01*
X21Y2722D02*
X28Y2722D01*
X55Y2722D02*
X62Y2722D01*
X21Y2721D02*
X28Y2721D01*
X55Y2721D02*
X62Y2721D01*
X21Y2720D02*
X28Y2720D01*
X55Y2720D02*
X62Y2720D01*
X21Y2719D02*
X28Y2719D01*
X55Y2719D02*
X62Y2719D01*
X21Y2718D02*
X28Y2718D01*
X55Y2718D02*
X62Y2718D01*
X21Y2717D02*
X28Y2717D01*
X55Y2717D02*
X62Y2717D01*
X21Y2716D02*
X28Y2716D01*
X55Y2716D02*
X62Y2716D01*
X21Y2715D02*
X28Y2715D01*
X55Y2715D02*
X62Y2715D01*
X22Y2714D02*
X28Y2714D01*
X55Y2714D02*
X62Y2714D01*
X22Y2713D02*
X28Y2713D01*
X55Y2713D02*
X62Y2713D01*
X22Y2712D02*
X29Y2712D01*
X55Y2712D02*
X62Y2712D01*
X22Y2711D02*
X29Y2711D01*
X54Y2711D02*
X61Y2711D01*
X22Y2710D02*
X30Y2710D01*
X53Y2710D02*
X61Y2710D01*
X23Y2709D02*
X31Y2709D01*
X52Y2709D02*
X60Y2709D01*
X24Y2708D02*
X60Y2708D01*
X24Y2707D02*
X59Y2707D01*
X25Y2706D02*
X58Y2706D01*
X26Y2705D02*
X57Y2705D01*
X27Y2704D02*
X56Y2704D01*
X28Y2703D02*
X55Y2703D01*
X30Y2702D02*
X54Y2702D01*
X33Y2701D02*
X51Y2701D01*
X32Y2684D02*
X52Y2684D01*
X30Y2683D02*
X54Y2683D01*
X28Y2682D02*
X55Y2682D01*
X27Y2681D02*
X57Y2681D01*
X26Y2680D02*
X57Y2680D01*
X25Y2679D02*
X58Y2679D01*
X24Y2678D02*
X59Y2678D01*
X23Y2677D02*
X34Y2677D01*
X38Y2677D02*
X45Y2677D01*
X50Y2677D02*
X60Y2677D01*
X23Y2676D02*
X31Y2676D01*
X39Y2676D02*
X45Y2676D01*
X52Y2676D02*
X60Y2676D01*
X22Y2675D02*
X30Y2675D01*
X39Y2675D02*
X45Y2675D01*
X53Y2675D02*
X61Y2675D01*
X22Y2674D02*
X29Y2674D01*
X39Y2674D02*
X45Y2674D01*
X54Y2674D02*
X61Y2674D01*
X22Y2673D02*
X29Y2673D01*
X39Y2673D02*
X45Y2673D01*
X55Y2673D02*
X62Y2673D01*
X22Y2672D02*
X28Y2672D01*
X39Y2672D02*
X45Y2672D01*
X55Y2672D02*
X62Y2672D01*
X22Y2671D02*
X28Y2671D01*
X39Y2671D02*
X45Y2671D01*
X55Y2671D02*
X62Y2671D01*
X21Y2670D02*
X28Y2670D01*
X39Y2670D02*
X45Y2670D01*
X55Y2670D02*
X62Y2670D01*
X21Y2669D02*
X28Y2669D01*
X39Y2669D02*
X45Y2669D01*
X55Y2669D02*
X62Y2669D01*
X21Y2668D02*
X28Y2668D01*
X39Y2668D02*
X45Y2668D01*
X55Y2668D02*
X62Y2668D01*
X21Y2667D02*
X28Y2667D01*
X39Y2667D02*
X45Y2667D01*
X55Y2667D02*
X62Y2667D01*
X21Y2666D02*
X28Y2666D01*
X39Y2666D02*
X45Y2666D01*
X55Y2666D02*
X62Y2666D01*
X21Y2665D02*
X28Y2665D01*
X39Y2665D02*
X45Y2665D01*
X55Y2665D02*
X62Y2665D01*
X21Y2664D02*
X28Y2664D01*
X39Y2664D02*
X45Y2664D01*
X55Y2664D02*
X62Y2664D01*
X21Y2663D02*
X28Y2663D01*
X39Y2663D02*
X45Y2663D01*
X55Y2663D02*
X62Y2663D01*
X22Y2662D02*
X28Y2662D01*
X39Y2662D02*
X45Y2662D01*
X55Y2662D02*
X62Y2662D01*
X22Y2661D02*
X28Y2661D01*
X39Y2661D02*
X45Y2661D01*
X55Y2661D02*
X62Y2661D01*
X22Y2660D02*
X28Y2660D01*
X39Y2660D02*
X45Y2660D01*
X55Y2660D02*
X62Y2660D01*
X22Y2659D02*
X29Y2659D01*
X39Y2659D02*
X45Y2659D01*
X55Y2659D02*
X62Y2659D01*
X22Y2658D02*
X30Y2658D01*
X39Y2658D02*
X45Y2658D01*
X55Y2658D02*
X62Y2658D01*
X23Y2657D02*
X31Y2657D01*
X39Y2657D02*
X45Y2657D01*
X55Y2657D02*
X62Y2657D01*
X23Y2656D02*
X32Y2656D01*
X39Y2656D02*
X45Y2656D01*
X55Y2656D02*
X62Y2656D01*
X24Y2655D02*
X45Y2655D01*
X55Y2655D02*
X62Y2655D01*
X25Y2654D02*
X45Y2654D01*
X55Y2654D02*
X62Y2654D01*
X25Y2653D02*
X45Y2653D01*
X55Y2653D02*
X62Y2653D01*
X26Y2652D02*
X45Y2652D01*
X55Y2652D02*
X62Y2652D01*
X27Y2651D02*
X45Y2651D01*
X56Y2651D02*
X62Y2651D01*
X29Y2650D02*
X44Y2650D01*
X56Y2650D02*
X61Y2650D01*
X31Y2649D02*
X43Y2649D01*
X57Y2649D02*
X60Y2649D01*
X23Y2631D02*
X26Y2631D01*
X22Y2630D02*
X27Y2630D01*
X22Y2629D02*
X28Y2629D01*
X22Y2628D02*
X28Y2628D01*
X21Y2627D02*
X28Y2627D01*
X21Y2626D02*
X28Y2626D01*
X21Y2625D02*
X28Y2625D01*
X11Y2624D02*
X55Y2624D01*
X10Y2623D02*
X57Y2623D01*
X9Y2622D02*
X58Y2622D01*
X9Y2621D02*
X59Y2621D01*
X9Y2620D02*
X60Y2620D01*
X10Y2619D02*
X60Y2619D01*
X11Y2618D02*
X61Y2618D01*
X21Y2617D02*
X28Y2617D01*
X53Y2617D02*
X61Y2617D01*
X21Y2616D02*
X28Y2616D01*
X55Y2616D02*
X62Y2616D01*
X21Y2615D02*
X28Y2615D01*
X55Y2615D02*
X62Y2615D01*
X21Y2614D02*
X28Y2614D01*
X55Y2614D02*
X62Y2614D01*
X21Y2613D02*
X28Y2613D01*
X55Y2613D02*
X62Y2613D01*
X21Y2612D02*
X28Y2612D01*
X55Y2612D02*
X62Y2612D01*
X21Y2611D02*
X28Y2611D01*
X55Y2611D02*
X62Y2611D01*
X21Y2610D02*
X28Y2610D01*
X55Y2610D02*
X62Y2610D01*
X21Y2609D02*
X28Y2609D01*
X55Y2609D02*
X62Y2609D01*
X21Y2608D02*
X28Y2608D01*
X55Y2608D02*
X62Y2608D01*
X21Y2607D02*
X28Y2607D01*
X55Y2607D02*
X62Y2607D01*
X21Y2606D02*
X28Y2606D01*
X55Y2606D02*
X62Y2606D01*
X22Y2605D02*
X28Y2605D01*
X55Y2605D02*
X62Y2605D01*
X22Y2604D02*
X28Y2604D01*
X54Y2604D02*
X61Y2604D01*
X22Y2603D02*
X27Y2603D01*
X52Y2603D02*
X61Y2603D01*
X23Y2602D02*
X26Y2602D01*
X51Y2602D02*
X61Y2602D01*
X50Y2601D02*
X60Y2601D01*
X49Y2600D02*
X59Y2600D01*
X49Y2599D02*
X59Y2599D01*
X50Y2598D02*
X57Y2598D01*
X50Y2597D02*
X56Y2597D01*
X52Y2596D02*
X54Y2596D01*
X46Y2579D02*
X53Y2579D01*
X43Y2578D02*
X56Y2578D01*
X41Y2577D02*
X57Y2577D01*
X40Y2576D02*
X59Y2576D01*
X39Y2575D02*
X59Y2575D01*
X25Y2574D02*
X25Y2574D01*
X39Y2574D02*
X60Y2574D01*
X23Y2573D02*
X27Y2573D01*
X38Y2573D02*
X61Y2573D01*
X22Y2572D02*
X27Y2572D01*
X38Y2572D02*
X45Y2572D01*
X53Y2572D02*
X61Y2572D01*
X22Y2571D02*
X28Y2571D01*
X37Y2571D02*
X44Y2571D01*
X55Y2571D02*
X61Y2571D01*
X21Y2570D02*
X28Y2570D01*
X37Y2570D02*
X43Y2570D01*
X56Y2570D02*
X62Y2570D01*
X21Y2569D02*
X28Y2569D01*
X37Y2569D02*
X43Y2569D01*
X56Y2569D02*
X62Y2569D01*
X21Y2568D02*
X28Y2568D01*
X37Y2568D02*
X43Y2568D01*
X56Y2568D02*
X62Y2568D01*
X21Y2567D02*
X28Y2567D01*
X37Y2567D02*
X43Y2567D01*
X56Y2567D02*
X62Y2567D01*
X21Y2566D02*
X28Y2566D01*
X37Y2566D02*
X43Y2566D01*
X56Y2566D02*
X62Y2566D01*
X21Y2565D02*
X28Y2565D01*
X37Y2565D02*
X43Y2565D01*
X56Y2565D02*
X62Y2565D01*
X21Y2564D02*
X28Y2564D01*
X37Y2564D02*
X43Y2564D01*
X56Y2564D02*
X62Y2564D01*
X21Y2563D02*
X28Y2563D01*
X37Y2563D02*
X43Y2563D01*
X56Y2563D02*
X62Y2563D01*
X21Y2562D02*
X28Y2562D01*
X37Y2562D02*
X43Y2562D01*
X56Y2562D02*
X62Y2562D01*
X21Y2561D02*
X28Y2561D01*
X37Y2561D02*
X43Y2561D01*
X56Y2561D02*
X62Y2561D01*
X21Y2560D02*
X28Y2560D01*
X37Y2560D02*
X43Y2560D01*
X56Y2560D02*
X62Y2560D01*
X21Y2559D02*
X28Y2559D01*
X37Y2559D02*
X43Y2559D01*
X56Y2559D02*
X62Y2559D01*
X21Y2558D02*
X28Y2558D01*
X37Y2558D02*
X43Y2558D01*
X56Y2558D02*
X62Y2558D01*
X21Y2557D02*
X28Y2557D01*
X37Y2557D02*
X43Y2557D01*
X55Y2557D02*
X62Y2557D01*
X21Y2556D02*
X28Y2556D01*
X37Y2556D02*
X43Y2556D01*
X55Y2556D02*
X61Y2556D01*
X21Y2555D02*
X28Y2555D01*
X37Y2555D02*
X43Y2555D01*
X54Y2555D02*
X61Y2555D01*
X22Y2554D02*
X28Y2554D01*
X37Y2554D02*
X43Y2554D01*
X53Y2554D02*
X61Y2554D01*
X22Y2553D02*
X28Y2553D01*
X37Y2553D02*
X43Y2553D01*
X53Y2553D02*
X60Y2553D01*
X22Y2552D02*
X28Y2552D01*
X37Y2552D02*
X44Y2552D01*
X52Y2552D02*
X59Y2552D01*
X22Y2551D02*
X29Y2551D01*
X37Y2551D02*
X45Y2551D01*
X51Y2551D02*
X59Y2551D01*
X23Y2550D02*
X59Y2550D01*
X23Y2549D02*
X61Y2549D01*
X24Y2548D02*
X61Y2548D01*
X24Y2547D02*
X62Y2547D01*
X25Y2546D02*
X62Y2546D01*
X26Y2545D02*
X61Y2545D01*
X28Y2544D02*
X61Y2544D01*
X32Y2543D02*
X58Y2543D01*
X54Y2526D02*
X57Y2526D01*
X27Y2525D02*
X33Y2525D01*
X53Y2525D02*
X58Y2525D01*
X25Y2524D02*
X35Y2524D01*
X53Y2524D02*
X59Y2524D01*
X24Y2523D02*
X36Y2523D01*
X52Y2523D02*
X60Y2523D01*
X23Y2522D02*
X37Y2522D01*
X53Y2522D02*
X60Y2522D01*
X23Y2521D02*
X38Y2521D01*
X53Y2521D02*
X60Y2521D01*
X22Y2520D02*
X38Y2520D01*
X54Y2520D02*
X61Y2520D01*
X22Y2519D02*
X39Y2519D01*
X54Y2519D02*
X61Y2519D01*
X22Y2518D02*
X29Y2518D01*
X32Y2518D02*
X39Y2518D01*
X55Y2518D02*
X61Y2518D01*
X22Y2517D02*
X28Y2517D01*
X33Y2517D02*
X40Y2517D01*
X55Y2517D02*
X62Y2517D01*
X21Y2516D02*
X28Y2516D01*
X33Y2516D02*
X40Y2516D01*
X55Y2516D02*
X62Y2516D01*
X21Y2515D02*
X28Y2515D01*
X34Y2515D02*
X41Y2515D01*
X55Y2515D02*
X62Y2515D01*
X21Y2514D02*
X28Y2514D01*
X34Y2514D02*
X41Y2514D01*
X55Y2514D02*
X62Y2514D01*
X21Y2513D02*
X28Y2513D01*
X35Y2513D02*
X42Y2513D01*
X55Y2513D02*
X62Y2513D01*
X21Y2512D02*
X28Y2512D01*
X35Y2512D02*
X42Y2512D01*
X55Y2512D02*
X62Y2512D01*
X21Y2511D02*
X28Y2511D01*
X35Y2511D02*
X42Y2511D01*
X55Y2511D02*
X62Y2511D01*
X21Y2510D02*
X28Y2510D01*
X36Y2510D02*
X43Y2510D01*
X55Y2510D02*
X62Y2510D01*
X21Y2509D02*
X28Y2509D01*
X36Y2509D02*
X43Y2509D01*
X55Y2509D02*
X62Y2509D01*
X21Y2508D02*
X28Y2508D01*
X37Y2508D02*
X44Y2508D01*
X55Y2508D02*
X62Y2508D01*
X21Y2507D02*
X28Y2507D01*
X37Y2507D02*
X44Y2507D01*
X55Y2507D02*
X62Y2507D01*
X21Y2506D02*
X28Y2506D01*
X38Y2506D02*
X45Y2506D01*
X55Y2506D02*
X62Y2506D01*
X21Y2505D02*
X28Y2505D01*
X38Y2505D02*
X45Y2505D01*
X55Y2505D02*
X62Y2505D01*
X21Y2504D02*
X28Y2504D01*
X38Y2504D02*
X45Y2504D01*
X55Y2504D02*
X62Y2504D01*
X21Y2503D02*
X28Y2503D01*
X39Y2503D02*
X46Y2503D01*
X55Y2503D02*
X62Y2503D01*
X21Y2502D02*
X28Y2502D01*
X39Y2502D02*
X46Y2502D01*
X55Y2502D02*
X62Y2502D01*
X22Y2501D02*
X28Y2501D01*
X40Y2501D02*
X47Y2501D01*
X55Y2501D02*
X62Y2501D01*
X22Y2500D02*
X28Y2500D01*
X40Y2500D02*
X47Y2500D01*
X55Y2500D02*
X62Y2500D01*
X22Y2499D02*
X28Y2499D01*
X41Y2499D02*
X48Y2499D01*
X54Y2499D02*
X61Y2499D01*
X22Y2498D02*
X29Y2498D01*
X41Y2498D02*
X50Y2498D01*
X52Y2498D02*
X61Y2498D01*
X22Y2497D02*
X30Y2497D01*
X41Y2497D02*
X61Y2497D01*
X23Y2496D02*
X31Y2496D01*
X42Y2496D02*
X60Y2496D01*
X23Y2495D02*
X31Y2495D01*
X43Y2495D02*
X60Y2495D01*
X24Y2494D02*
X31Y2494D01*
X44Y2494D02*
X59Y2494D01*
X25Y2493D02*
X30Y2493D01*
X45Y2493D02*
X58Y2493D01*
X26Y2492D02*
X29Y2492D01*
X46Y2492D02*
X56Y2492D01*
X48Y2491D02*
X54Y2491D01*
X23Y2473D02*
X27Y2473D01*
X22Y2472D02*
X27Y2472D01*
X22Y2471D02*
X28Y2471D01*
X22Y2470D02*
X28Y2470D01*
X21Y2469D02*
X28Y2469D01*
X21Y2468D02*
X28Y2468D01*
X21Y2467D02*
X28Y2467D01*
X11Y2466D02*
X55Y2466D01*
X10Y2465D02*
X57Y2465D01*
X9Y2464D02*
X58Y2464D01*
X9Y2463D02*
X59Y2463D01*
X9Y2462D02*
X60Y2462D01*
X10Y2461D02*
X61Y2461D01*
X11Y2460D02*
X61Y2460D01*
X21Y2459D02*
X28Y2459D01*
X54Y2459D02*
X61Y2459D01*
X21Y2458D02*
X28Y2458D01*
X55Y2458D02*
X62Y2458D01*
X21Y2457D02*
X28Y2457D01*
X55Y2457D02*
X62Y2457D01*
X21Y2456D02*
X28Y2456D01*
X55Y2456D02*
X62Y2456D01*
X21Y2455D02*
X28Y2455D01*
X55Y2455D02*
X62Y2455D01*
X21Y2454D02*
X28Y2454D01*
X55Y2454D02*
X62Y2454D01*
X21Y2453D02*
X28Y2453D01*
X55Y2453D02*
X62Y2453D01*
X21Y2452D02*
X28Y2452D01*
X55Y2452D02*
X62Y2452D01*
X21Y2451D02*
X28Y2451D01*
X55Y2451D02*
X62Y2451D01*
X21Y2450D02*
X28Y2450D01*
X55Y2450D02*
X62Y2450D01*
X21Y2449D02*
X28Y2449D01*
X55Y2449D02*
X62Y2449D01*
X21Y2448D02*
X28Y2448D01*
X55Y2448D02*
X62Y2448D01*
X22Y2447D02*
X28Y2447D01*
X55Y2447D02*
X62Y2447D01*
X22Y2446D02*
X28Y2446D01*
X54Y2446D02*
X61Y2446D01*
X22Y2445D02*
X27Y2445D01*
X52Y2445D02*
X61Y2445D01*
X24Y2444D02*
X26Y2444D01*
X51Y2444D02*
X61Y2444D01*
X50Y2443D02*
X60Y2443D01*
X49Y2442D02*
X59Y2442D01*
X49Y2441D02*
X58Y2441D01*
X50Y2440D02*
X57Y2440D01*
X50Y2439D02*
X56Y2439D01*
X52Y2438D02*
X53Y2438D01*
X32Y2421D02*
X52Y2421D01*
X30Y2420D02*
X54Y2420D01*
X28Y2419D02*
X55Y2419D01*
X27Y2418D02*
X57Y2418D01*
X26Y2417D02*
X57Y2417D01*
X25Y2416D02*
X58Y2416D01*
X24Y2415D02*
X59Y2415D01*
X23Y2414D02*
X33Y2414D01*
X38Y2414D02*
X45Y2414D01*
X50Y2414D02*
X60Y2414D01*
X23Y2413D02*
X31Y2413D01*
X39Y2413D02*
X45Y2413D01*
X52Y2413D02*
X60Y2413D01*
X22Y2412D02*
X30Y2412D01*
X39Y2412D02*
X45Y2412D01*
X53Y2412D02*
X61Y2412D01*
X22Y2411D02*
X29Y2411D01*
X39Y2411D02*
X45Y2411D01*
X54Y2411D02*
X61Y2411D01*
X22Y2410D02*
X29Y2410D01*
X39Y2410D02*
X45Y2410D01*
X55Y2410D02*
X62Y2410D01*
X22Y2409D02*
X28Y2409D01*
X39Y2409D02*
X45Y2409D01*
X55Y2409D02*
X62Y2409D01*
X22Y2408D02*
X28Y2408D01*
X39Y2408D02*
X45Y2408D01*
X55Y2408D02*
X62Y2408D01*
X21Y2407D02*
X28Y2407D01*
X39Y2407D02*
X45Y2407D01*
X55Y2407D02*
X62Y2407D01*
X21Y2406D02*
X28Y2406D01*
X39Y2406D02*
X45Y2406D01*
X55Y2406D02*
X62Y2406D01*
X21Y2405D02*
X28Y2405D01*
X39Y2405D02*
X45Y2405D01*
X55Y2405D02*
X62Y2405D01*
X21Y2404D02*
X28Y2404D01*
X39Y2404D02*
X45Y2404D01*
X55Y2404D02*
X62Y2404D01*
X21Y2403D02*
X28Y2403D01*
X39Y2403D02*
X45Y2403D01*
X55Y2403D02*
X62Y2403D01*
X21Y2402D02*
X28Y2402D01*
X39Y2402D02*
X45Y2402D01*
X55Y2402D02*
X62Y2402D01*
X21Y2401D02*
X28Y2401D01*
X39Y2401D02*
X45Y2401D01*
X55Y2401D02*
X62Y2401D01*
X21Y2400D02*
X28Y2400D01*
X39Y2400D02*
X45Y2400D01*
X55Y2400D02*
X62Y2400D01*
X22Y2399D02*
X28Y2399D01*
X39Y2399D02*
X45Y2399D01*
X55Y2399D02*
X62Y2399D01*
X22Y2398D02*
X28Y2398D01*
X39Y2398D02*
X45Y2398D01*
X55Y2398D02*
X62Y2398D01*
X22Y2397D02*
X28Y2397D01*
X39Y2397D02*
X45Y2397D01*
X55Y2397D02*
X62Y2397D01*
X22Y2396D02*
X29Y2396D01*
X39Y2396D02*
X45Y2396D01*
X55Y2396D02*
X62Y2396D01*
X22Y2395D02*
X30Y2395D01*
X39Y2395D02*
X45Y2395D01*
X55Y2395D02*
X62Y2395D01*
X23Y2394D02*
X31Y2394D01*
X39Y2394D02*
X45Y2394D01*
X55Y2394D02*
X62Y2394D01*
X23Y2393D02*
X32Y2393D01*
X39Y2393D02*
X45Y2393D01*
X55Y2393D02*
X62Y2393D01*
X24Y2392D02*
X45Y2392D01*
X55Y2392D02*
X62Y2392D01*
X25Y2391D02*
X45Y2391D01*
X55Y2391D02*
X62Y2391D01*
X25Y2390D02*
X45Y2390D01*
X55Y2390D02*
X62Y2390D01*
X26Y2389D02*
X45Y2389D01*
X55Y2389D02*
X62Y2389D01*
X27Y2388D02*
X45Y2388D01*
X56Y2388D02*
X62Y2388D01*
X29Y2387D02*
X44Y2387D01*
X56Y2387D02*
X61Y2387D01*
X31Y2386D02*
X43Y2386D01*
X57Y2386D02*
X60Y2386D01*
X23Y2368D02*
X60Y2368D01*
X22Y2367D02*
X61Y2367D01*
X22Y2366D02*
X62Y2366D01*
X22Y2365D02*
X62Y2365D01*
X22Y2364D02*
X62Y2364D01*
X22Y2363D02*
X61Y2363D01*
X24Y2362D02*
X60Y2362D01*
X29Y2361D02*
X38Y2361D01*
X28Y2360D02*
X37Y2360D01*
X27Y2359D02*
X36Y2359D01*
X26Y2358D02*
X35Y2358D01*
X26Y2357D02*
X34Y2357D01*
X25Y2356D02*
X33Y2356D01*
X24Y2355D02*
X33Y2355D01*
X23Y2354D02*
X32Y2354D01*
X22Y2353D02*
X31Y2353D01*
X22Y2352D02*
X30Y2352D01*
X22Y2351D02*
X29Y2351D01*
X21Y2350D02*
X28Y2350D01*
X21Y2349D02*
X28Y2349D01*
X21Y2348D02*
X28Y2348D01*
X21Y2347D02*
X28Y2347D01*
X21Y2346D02*
X28Y2346D01*
X21Y2345D02*
X28Y2345D01*
X21Y2344D02*
X28Y2344D01*
X22Y2343D02*
X28Y2343D01*
X22Y2342D02*
X28Y2342D01*
X22Y2341D02*
X29Y2341D01*
X22Y2340D02*
X31Y2340D01*
X22Y2339D02*
X35Y2339D01*
X23Y2338D02*
X36Y2338D01*
X23Y2337D02*
X36Y2337D01*
X24Y2336D02*
X36Y2336D01*
X25Y2335D02*
X36Y2335D01*
X26Y2334D02*
X36Y2334D01*
X29Y2333D02*
X35Y2333D01*
X46Y2305D02*
X54Y2305D01*
X45Y2304D02*
X55Y2304D01*
X44Y2303D02*
X56Y2303D01*
X44Y2302D02*
X56Y2302D01*
X44Y2301D02*
X56Y2301D01*
X44Y2300D02*
X56Y2300D01*
X44Y2299D02*
X56Y2299D01*
X44Y2298D02*
X56Y2298D01*
X44Y2297D02*
X56Y2297D01*
X44Y2296D02*
X56Y2296D01*
X44Y2295D02*
X56Y2295D01*
X44Y2294D02*
X56Y2294D01*
X44Y2293D02*
X56Y2293D01*
X45Y2292D02*
X55Y2292D01*
X46Y2291D02*
X54Y2291D01*
X31Y2263D02*
X53Y2263D01*
X29Y2262D02*
X54Y2262D01*
X28Y2261D02*
X56Y2261D01*
X27Y2260D02*
X57Y2260D01*
X26Y2259D02*
X58Y2259D01*
X25Y2258D02*
X59Y2258D01*
X24Y2257D02*
X59Y2257D01*
X23Y2256D02*
X32Y2256D01*
X51Y2256D02*
X60Y2256D01*
X23Y2255D02*
X31Y2255D01*
X52Y2255D02*
X61Y2255D01*
X22Y2254D02*
X30Y2254D01*
X53Y2254D02*
X61Y2254D01*
X22Y2253D02*
X29Y2253D01*
X54Y2253D02*
X61Y2253D01*
X22Y2252D02*
X28Y2252D01*
X55Y2252D02*
X62Y2252D01*
X22Y2251D02*
X28Y2251D01*
X55Y2251D02*
X62Y2251D01*
X22Y2250D02*
X28Y2250D01*
X55Y2250D02*
X62Y2250D01*
X21Y2249D02*
X28Y2249D01*
X55Y2249D02*
X62Y2249D01*
X21Y2248D02*
X28Y2248D01*
X55Y2248D02*
X62Y2248D01*
X21Y2247D02*
X28Y2247D01*
X55Y2247D02*
X62Y2247D01*
X21Y2246D02*
X28Y2246D01*
X55Y2246D02*
X62Y2246D01*
X21Y2245D02*
X28Y2245D01*
X55Y2245D02*
X62Y2245D01*
X22Y2244D02*
X28Y2244D01*
X55Y2244D02*
X62Y2244D01*
X22Y2243D02*
X28Y2243D01*
X55Y2243D02*
X62Y2243D01*
X22Y2242D02*
X29Y2242D01*
X54Y2242D02*
X61Y2242D01*
X22Y2241D02*
X30Y2241D01*
X53Y2241D02*
X61Y2241D01*
X23Y2240D02*
X31Y2240D01*
X53Y2240D02*
X61Y2240D01*
X23Y2239D02*
X32Y2239D01*
X52Y2239D02*
X60Y2239D01*
X24Y2238D02*
X32Y2238D01*
X51Y2238D02*
X60Y2238D01*
X25Y2237D02*
X33Y2237D01*
X50Y2237D02*
X59Y2237D01*
X26Y2236D02*
X34Y2236D01*
X49Y2236D02*
X58Y2236D01*
X26Y2235D02*
X36Y2235D01*
X48Y2235D02*
X57Y2235D01*
X8Y2234D02*
X60Y2234D01*
X7Y2233D02*
X61Y2233D01*
X6Y2232D02*
X62Y2232D01*
X6Y2231D02*
X62Y2231D01*
X6Y2230D02*
X62Y2230D01*
X7Y2229D02*
X61Y2229D01*
X8Y2228D02*
X60Y2228D01*
X35Y2211D02*
X48Y2211D01*
X31Y2210D02*
X53Y2210D01*
X29Y2209D02*
X55Y2209D01*
X27Y2208D02*
X56Y2208D01*
X26Y2207D02*
X57Y2207D01*
X25Y2206D02*
X58Y2206D01*
X24Y2205D02*
X59Y2205D01*
X24Y2204D02*
X60Y2204D01*
X23Y2203D02*
X32Y2203D01*
X39Y2203D02*
X45Y2203D01*
X51Y2203D02*
X60Y2203D01*
X23Y2202D02*
X31Y2202D01*
X39Y2202D02*
X45Y2202D01*
X53Y2202D02*
X61Y2202D01*
X22Y2201D02*
X30Y2201D01*
X39Y2201D02*
X45Y2201D01*
X54Y2201D02*
X61Y2201D01*
X22Y2200D02*
X29Y2200D01*
X39Y2200D02*
X45Y2200D01*
X54Y2200D02*
X61Y2200D01*
X22Y2199D02*
X28Y2199D01*
X39Y2199D02*
X45Y2199D01*
X55Y2199D02*
X62Y2199D01*
X22Y2198D02*
X28Y2198D01*
X39Y2198D02*
X45Y2198D01*
X55Y2198D02*
X62Y2198D01*
X21Y2197D02*
X28Y2197D01*
X39Y2197D02*
X45Y2197D01*
X55Y2197D02*
X62Y2197D01*
X21Y2196D02*
X28Y2196D01*
X39Y2196D02*
X45Y2196D01*
X55Y2196D02*
X62Y2196D01*
X21Y2195D02*
X28Y2195D01*
X39Y2195D02*
X45Y2195D01*
X55Y2195D02*
X62Y2195D01*
X21Y2194D02*
X28Y2194D01*
X39Y2194D02*
X45Y2194D01*
X55Y2194D02*
X62Y2194D01*
X21Y2193D02*
X28Y2193D01*
X39Y2193D02*
X45Y2193D01*
X55Y2193D02*
X62Y2193D01*
X21Y2192D02*
X28Y2192D01*
X39Y2192D02*
X45Y2192D01*
X55Y2192D02*
X62Y2192D01*
X21Y2191D02*
X28Y2191D01*
X39Y2191D02*
X45Y2191D01*
X55Y2191D02*
X62Y2191D01*
X21Y2190D02*
X28Y2190D01*
X39Y2190D02*
X45Y2190D01*
X55Y2190D02*
X62Y2190D01*
X21Y2189D02*
X28Y2189D01*
X39Y2189D02*
X45Y2189D01*
X55Y2189D02*
X62Y2189D01*
X22Y2188D02*
X28Y2188D01*
X39Y2188D02*
X45Y2188D01*
X55Y2188D02*
X62Y2188D01*
X22Y2187D02*
X28Y2187D01*
X39Y2187D02*
X45Y2187D01*
X55Y2187D02*
X62Y2187D01*
X22Y2186D02*
X29Y2186D01*
X39Y2186D02*
X45Y2186D01*
X55Y2186D02*
X62Y2186D01*
X22Y2185D02*
X29Y2185D01*
X39Y2185D02*
X45Y2185D01*
X55Y2185D02*
X62Y2185D01*
X22Y2184D02*
X30Y2184D01*
X39Y2184D02*
X45Y2184D01*
X55Y2184D02*
X62Y2184D01*
X23Y2183D02*
X31Y2183D01*
X39Y2183D02*
X45Y2183D01*
X55Y2183D02*
X62Y2183D01*
X24Y2182D02*
X45Y2182D01*
X55Y2182D02*
X62Y2182D01*
X24Y2181D02*
X45Y2181D01*
X55Y2181D02*
X62Y2181D01*
X25Y2180D02*
X45Y2180D01*
X55Y2180D02*
X62Y2180D01*
X26Y2179D02*
X45Y2179D01*
X55Y2179D02*
X62Y2179D01*
X27Y2178D02*
X45Y2178D01*
X56Y2178D02*
X62Y2178D01*
X28Y2177D02*
X45Y2177D01*
X56Y2177D02*
X61Y2177D01*
X30Y2176D02*
X44Y2176D01*
X57Y2176D02*
X61Y2176D01*
X33Y2175D02*
X42Y2175D01*
X58Y2175D02*
X59Y2175D01*
X8Y2105D02*
X11Y2105D01*
X35Y2105D02*
X62Y2105D01*
X7Y2104D02*
X12Y2104D01*
X33Y2104D02*
X62Y2104D01*
X6Y2103D02*
X12Y2103D01*
X32Y2103D02*
X62Y2103D01*
X6Y2102D02*
X12Y2102D01*
X32Y2102D02*
X62Y2102D01*
X6Y2101D02*
X12Y2101D01*
X31Y2101D02*
X62Y2101D01*
X6Y2100D02*
X12Y2100D01*
X31Y2100D02*
X62Y2100D01*
X6Y2099D02*
X12Y2099D01*
X31Y2099D02*
X62Y2099D01*
X6Y2098D02*
X12Y2098D01*
X31Y2098D02*
X37Y2098D01*
X55Y2098D02*
X62Y2098D01*
X6Y2097D02*
X12Y2097D01*
X31Y2097D02*
X37Y2097D01*
X55Y2097D02*
X62Y2097D01*
X6Y2096D02*
X12Y2096D01*
X31Y2096D02*
X37Y2096D01*
X55Y2096D02*
X62Y2096D01*
X6Y2095D02*
X12Y2095D01*
X31Y2095D02*
X37Y2095D01*
X55Y2095D02*
X62Y2095D01*
X6Y2094D02*
X12Y2094D01*
X31Y2094D02*
X37Y2094D01*
X55Y2094D02*
X62Y2094D01*
X6Y2093D02*
X12Y2093D01*
X31Y2093D02*
X37Y2093D01*
X55Y2093D02*
X62Y2093D01*
X6Y2092D02*
X12Y2092D01*
X31Y2092D02*
X37Y2092D01*
X55Y2092D02*
X62Y2092D01*
X6Y2091D02*
X12Y2091D01*
X31Y2091D02*
X37Y2091D01*
X55Y2091D02*
X62Y2091D01*
X6Y2090D02*
X12Y2090D01*
X31Y2090D02*
X37Y2090D01*
X55Y2090D02*
X62Y2090D01*
X6Y2089D02*
X12Y2089D01*
X31Y2089D02*
X37Y2089D01*
X55Y2089D02*
X62Y2089D01*
X6Y2088D02*
X12Y2088D01*
X31Y2088D02*
X37Y2088D01*
X55Y2088D02*
X62Y2088D01*
X6Y2087D02*
X12Y2087D01*
X31Y2087D02*
X37Y2087D01*
X55Y2087D02*
X62Y2087D01*
X6Y2086D02*
X12Y2086D01*
X31Y2086D02*
X37Y2086D01*
X55Y2086D02*
X62Y2086D01*
X6Y2085D02*
X12Y2085D01*
X31Y2085D02*
X37Y2085D01*
X55Y2085D02*
X62Y2085D01*
X6Y2084D02*
X12Y2084D01*
X31Y2084D02*
X37Y2084D01*
X55Y2084D02*
X62Y2084D01*
X6Y2083D02*
X12Y2083D01*
X31Y2083D02*
X37Y2083D01*
X55Y2083D02*
X62Y2083D01*
X6Y2082D02*
X12Y2082D01*
X31Y2082D02*
X37Y2082D01*
X55Y2082D02*
X62Y2082D01*
X6Y2081D02*
X12Y2081D01*
X31Y2081D02*
X37Y2081D01*
X55Y2081D02*
X62Y2081D01*
X6Y2080D02*
X12Y2080D01*
X31Y2080D02*
X37Y2080D01*
X55Y2080D02*
X62Y2080D01*
X6Y2079D02*
X12Y2079D01*
X31Y2079D02*
X37Y2079D01*
X55Y2079D02*
X62Y2079D01*
X6Y2078D02*
X12Y2078D01*
X31Y2078D02*
X37Y2078D01*
X55Y2078D02*
X62Y2078D01*
X6Y2077D02*
X13Y2077D01*
X30Y2077D02*
X37Y2077D01*
X55Y2077D02*
X62Y2077D01*
X6Y2076D02*
X37Y2076D01*
X55Y2076D02*
X62Y2076D01*
X6Y2075D02*
X37Y2075D01*
X55Y2075D02*
X62Y2075D01*
X7Y2074D02*
X36Y2074D01*
X55Y2074D02*
X62Y2074D01*
X7Y2073D02*
X36Y2073D01*
X56Y2073D02*
X62Y2073D01*
X8Y2072D02*
X35Y2072D01*
X56Y2072D02*
X62Y2072D01*
X9Y2071D02*
X34Y2071D01*
X56Y2071D02*
X61Y2071D01*
X11Y2070D02*
X32Y2070D01*
X58Y2070D02*
X60Y2070D01*
X12Y2053D02*
X56Y2053D01*
X9Y2052D02*
X59Y2052D01*
X8Y2051D02*
X60Y2051D01*
X7Y2050D02*
X61Y2050D01*
X7Y2049D02*
X61Y2049D01*
X6Y2048D02*
X61Y2048D01*
X6Y2047D02*
X62Y2047D01*
X6Y2046D02*
X62Y2046D01*
X6Y2045D02*
X12Y2045D01*
X55Y2045D02*
X62Y2045D01*
X6Y2044D02*
X12Y2044D01*
X55Y2044D02*
X62Y2044D01*
X6Y2043D02*
X12Y2043D01*
X55Y2043D02*
X62Y2043D01*
X6Y2042D02*
X12Y2042D01*
X55Y2042D02*
X62Y2042D01*
X6Y2041D02*
X12Y2041D01*
X55Y2041D02*
X62Y2041D01*
X6Y2040D02*
X12Y2040D01*
X55Y2040D02*
X62Y2040D01*
X6Y2039D02*
X12Y2039D01*
X55Y2039D02*
X62Y2039D01*
X6Y2038D02*
X12Y2038D01*
X55Y2038D02*
X62Y2038D01*
X6Y2037D02*
X12Y2037D01*
X55Y2037D02*
X62Y2037D01*
X6Y2036D02*
X12Y2036D01*
X55Y2036D02*
X62Y2036D01*
X6Y2035D02*
X12Y2035D01*
X55Y2035D02*
X62Y2035D01*
X6Y2034D02*
X12Y2034D01*
X55Y2034D02*
X62Y2034D01*
X6Y2033D02*
X12Y2033D01*
X55Y2033D02*
X62Y2033D01*
X6Y2032D02*
X12Y2032D01*
X55Y2032D02*
X62Y2032D01*
X6Y2031D02*
X12Y2031D01*
X55Y2031D02*
X62Y2031D01*
X6Y2030D02*
X12Y2030D01*
X55Y2030D02*
X62Y2030D01*
X6Y2029D02*
X12Y2029D01*
X55Y2029D02*
X62Y2029D01*
X6Y2028D02*
X12Y2028D01*
X55Y2028D02*
X62Y2028D01*
X6Y2027D02*
X12Y2027D01*
X55Y2027D02*
X62Y2027D01*
X6Y2026D02*
X12Y2026D01*
X55Y2026D02*
X62Y2026D01*
X6Y2025D02*
X12Y2025D01*
X55Y2025D02*
X62Y2025D01*
X6Y2024D02*
X62Y2024D01*
X6Y2023D02*
X62Y2023D01*
X7Y2022D02*
X61Y2022D01*
X7Y2021D02*
X61Y2021D01*
X8Y2020D02*
X60Y2020D01*
X9Y2019D02*
X59Y2019D01*
X10Y2018D02*
X58Y2018D01*
X8Y2000D02*
X11Y2000D01*
X35Y2000D02*
X62Y2000D01*
X7Y1999D02*
X12Y1999D01*
X34Y1999D02*
X62Y1999D01*
X6Y1998D02*
X12Y1998D01*
X33Y1998D02*
X62Y1998D01*
X6Y1997D02*
X12Y1997D01*
X32Y1997D02*
X62Y1997D01*
X6Y1996D02*
X12Y1996D01*
X31Y1996D02*
X62Y1996D01*
X6Y1995D02*
X12Y1995D01*
X31Y1995D02*
X62Y1995D01*
X6Y1994D02*
X12Y1994D01*
X31Y1994D02*
X62Y1994D01*
X6Y1993D02*
X12Y1993D01*
X31Y1993D02*
X37Y1993D01*
X55Y1993D02*
X62Y1993D01*
X6Y1992D02*
X12Y1992D01*
X31Y1992D02*
X37Y1992D01*
X55Y1992D02*
X62Y1992D01*
X6Y1991D02*
X12Y1991D01*
X31Y1991D02*
X37Y1991D01*
X55Y1991D02*
X62Y1991D01*
X6Y1990D02*
X12Y1990D01*
X31Y1990D02*
X37Y1990D01*
X55Y1990D02*
X62Y1990D01*
X6Y1989D02*
X12Y1989D01*
X31Y1989D02*
X37Y1989D01*
X55Y1989D02*
X62Y1989D01*
X6Y1988D02*
X12Y1988D01*
X31Y1988D02*
X37Y1988D01*
X55Y1988D02*
X62Y1988D01*
X6Y1987D02*
X12Y1987D01*
X31Y1987D02*
X37Y1987D01*
X55Y1987D02*
X62Y1987D01*
X6Y1986D02*
X12Y1986D01*
X31Y1986D02*
X37Y1986D01*
X55Y1986D02*
X62Y1986D01*
X6Y1985D02*
X12Y1985D01*
X31Y1985D02*
X37Y1985D01*
X55Y1985D02*
X62Y1985D01*
X6Y1984D02*
X12Y1984D01*
X31Y1984D02*
X37Y1984D01*
X55Y1984D02*
X62Y1984D01*
X6Y1983D02*
X12Y1983D01*
X31Y1983D02*
X37Y1983D01*
X55Y1983D02*
X62Y1983D01*
X6Y1982D02*
X12Y1982D01*
X31Y1982D02*
X37Y1982D01*
X55Y1982D02*
X62Y1982D01*
X6Y1981D02*
X12Y1981D01*
X31Y1981D02*
X37Y1981D01*
X55Y1981D02*
X62Y1981D01*
X6Y1980D02*
X12Y1980D01*
X31Y1980D02*
X37Y1980D01*
X55Y1980D02*
X62Y1980D01*
X6Y1979D02*
X12Y1979D01*
X31Y1979D02*
X37Y1979D01*
X55Y1979D02*
X62Y1979D01*
X6Y1978D02*
X12Y1978D01*
X31Y1978D02*
X37Y1978D01*
X55Y1978D02*
X62Y1978D01*
X6Y1977D02*
X12Y1977D01*
X31Y1977D02*
X37Y1977D01*
X55Y1977D02*
X62Y1977D01*
X6Y1976D02*
X12Y1976D01*
X31Y1976D02*
X37Y1976D01*
X55Y1976D02*
X62Y1976D01*
X6Y1975D02*
X12Y1975D01*
X31Y1975D02*
X37Y1975D01*
X55Y1975D02*
X62Y1975D01*
X6Y1974D02*
X12Y1974D01*
X31Y1974D02*
X37Y1974D01*
X55Y1974D02*
X62Y1974D01*
X6Y1973D02*
X12Y1973D01*
X31Y1973D02*
X37Y1973D01*
X55Y1973D02*
X62Y1973D01*
X6Y1972D02*
X13Y1972D01*
X31Y1972D02*
X37Y1972D01*
X55Y1972D02*
X62Y1972D01*
X6Y1971D02*
X37Y1971D01*
X55Y1971D02*
X62Y1971D01*
X6Y1970D02*
X37Y1970D01*
X55Y1970D02*
X62Y1970D01*
X7Y1969D02*
X36Y1969D01*
X55Y1969D02*
X62Y1969D01*
X7Y1968D02*
X36Y1968D01*
X55Y1968D02*
X62Y1968D01*
X8Y1967D02*
X35Y1967D01*
X56Y1967D02*
X62Y1967D01*
X9Y1966D02*
X34Y1966D01*
X56Y1966D02*
X61Y1966D01*
X11Y1965D02*
X33Y1965D01*
X57Y1965D02*
X60Y1965D01*
X8Y1946D02*
X43Y1946D01*
X7Y1945D02*
X43Y1945D01*
X6Y1944D02*
X43Y1944D01*
X6Y1943D02*
X43Y1943D01*
X6Y1942D02*
X43Y1942D01*
X7Y1941D02*
X43Y1941D01*
X8Y1940D02*
X43Y1940D01*
X37Y1939D02*
X43Y1939D01*
X37Y1938D02*
X43Y1938D01*
X37Y1937D02*
X43Y1937D01*
X37Y1936D02*
X43Y1936D01*
X37Y1935D02*
X43Y1935D01*
X37Y1934D02*
X43Y1934D01*
X37Y1933D02*
X43Y1933D01*
X37Y1932D02*
X43Y1932D01*
X37Y1931D02*
X43Y1931D01*
X37Y1930D02*
X43Y1930D01*
X37Y1929D02*
X43Y1929D01*
X37Y1928D02*
X43Y1928D01*
X37Y1927D02*
X43Y1927D01*
X37Y1926D02*
X43Y1926D01*
X37Y1925D02*
X44Y1925D01*
X14Y1924D02*
X60Y1924D01*
X13Y1923D02*
X61Y1923D01*
X12Y1922D02*
X62Y1922D01*
X12Y1921D02*
X62Y1921D01*
X13Y1920D02*
X62Y1920D01*
X13Y1919D02*
X61Y1919D01*
X14Y1918D02*
X60Y1918D01*
X37Y1917D02*
X43Y1917D01*
X37Y1916D02*
X43Y1916D01*
X37Y1915D02*
X43Y1915D01*
X38Y1914D02*
X42Y1914D01*
X67Y1839D02*
X69Y1839D01*
X66Y1838D02*
X72Y1838D01*
X65Y1837D02*
X73Y1837D01*
X65Y1836D02*
X74Y1836D01*
X65Y1835D02*
X75Y1835D01*
X65Y1834D02*
X76Y1834D01*
X66Y1833D02*
X76Y1833D01*
X68Y1832D02*
X77Y1832D01*
X23Y1831D02*
X27Y1831D01*
X70Y1831D02*
X77Y1831D01*
X22Y1830D02*
X27Y1830D01*
X70Y1830D02*
X77Y1830D01*
X22Y1829D02*
X28Y1829D01*
X71Y1829D02*
X77Y1829D01*
X21Y1828D02*
X28Y1828D01*
X71Y1828D02*
X77Y1828D01*
X21Y1827D02*
X28Y1827D01*
X71Y1827D02*
X77Y1827D01*
X21Y1826D02*
X28Y1826D01*
X71Y1826D02*
X77Y1826D01*
X21Y1825D02*
X28Y1825D01*
X71Y1825D02*
X77Y1825D01*
X21Y1824D02*
X28Y1824D01*
X71Y1824D02*
X77Y1824D01*
X21Y1823D02*
X28Y1823D01*
X71Y1823D02*
X77Y1823D01*
X21Y1822D02*
X28Y1822D01*
X71Y1822D02*
X77Y1822D01*
X6Y1821D02*
X10Y1821D01*
X21Y1821D02*
X28Y1821D01*
X71Y1821D02*
X77Y1821D01*
X4Y1820D02*
X11Y1820D01*
X21Y1820D02*
X28Y1820D01*
X71Y1820D02*
X77Y1820D01*
X3Y1819D02*
X12Y1819D01*
X21Y1819D02*
X28Y1819D01*
X70Y1819D02*
X77Y1819D01*
X3Y1818D02*
X12Y1818D01*
X21Y1818D02*
X28Y1818D01*
X69Y1818D02*
X77Y1818D01*
X3Y1817D02*
X12Y1817D01*
X21Y1817D02*
X76Y1817D01*
X3Y1816D02*
X12Y1816D01*
X21Y1816D02*
X76Y1816D01*
X3Y1815D02*
X12Y1815D01*
X21Y1815D02*
X75Y1815D01*
X3Y1814D02*
X12Y1814D01*
X22Y1814D02*
X75Y1814D01*
X3Y1813D02*
X12Y1813D01*
X22Y1813D02*
X74Y1813D01*
X4Y1812D02*
X12Y1812D01*
X22Y1812D02*
X72Y1812D01*
X5Y1811D02*
X11Y1811D01*
X23Y1811D02*
X70Y1811D01*
X8Y1786D02*
X11Y1786D01*
X57Y1786D02*
X60Y1786D01*
X7Y1785D02*
X12Y1785D01*
X56Y1785D02*
X61Y1785D01*
X6Y1784D02*
X12Y1784D01*
X56Y1784D02*
X62Y1784D01*
X6Y1783D02*
X12Y1783D01*
X55Y1783D02*
X62Y1783D01*
X6Y1782D02*
X12Y1782D01*
X55Y1782D02*
X62Y1782D01*
X6Y1781D02*
X12Y1781D01*
X55Y1781D02*
X62Y1781D01*
X6Y1780D02*
X12Y1780D01*
X55Y1780D02*
X62Y1780D01*
X6Y1779D02*
X12Y1779D01*
X55Y1779D02*
X62Y1779D01*
X6Y1778D02*
X12Y1778D01*
X55Y1778D02*
X62Y1778D01*
X6Y1777D02*
X12Y1777D01*
X55Y1777D02*
X62Y1777D01*
X6Y1776D02*
X13Y1776D01*
X55Y1776D02*
X62Y1776D01*
X6Y1775D02*
X62Y1775D01*
X6Y1774D02*
X62Y1774D01*
X6Y1773D02*
X62Y1773D01*
X6Y1772D02*
X62Y1772D01*
X6Y1771D02*
X62Y1771D01*
X7Y1770D02*
X62Y1770D01*
X8Y1769D02*
X62Y1769D01*
X55Y1768D02*
X62Y1768D01*
X55Y1767D02*
X62Y1767D01*
X55Y1766D02*
X62Y1766D01*
X55Y1765D02*
X62Y1765D01*
X55Y1764D02*
X62Y1764D01*
X55Y1763D02*
X62Y1763D01*
X55Y1762D02*
X62Y1762D01*
X56Y1761D02*
X62Y1761D01*
X56Y1760D02*
X62Y1760D01*
X56Y1759D02*
X61Y1759D01*
X58Y1758D02*
X60Y1758D01*
X34Y1737D02*
X49Y1737D01*
X32Y1736D02*
X51Y1736D01*
X31Y1735D02*
X53Y1735D01*
X30Y1734D02*
X54Y1734D01*
X29Y1733D02*
X55Y1733D01*
X28Y1732D02*
X55Y1732D01*
X27Y1731D02*
X56Y1731D01*
X26Y1730D02*
X36Y1730D01*
X48Y1730D02*
X57Y1730D01*
X25Y1729D02*
X34Y1729D01*
X49Y1729D02*
X58Y1729D01*
X24Y1728D02*
X33Y1728D01*
X50Y1728D02*
X59Y1728D01*
X23Y1727D02*
X32Y1727D01*
X51Y1727D02*
X60Y1727D01*
X23Y1726D02*
X32Y1726D01*
X52Y1726D02*
X60Y1726D01*
X22Y1725D02*
X31Y1725D01*
X53Y1725D02*
X61Y1725D01*
X22Y1724D02*
X30Y1724D01*
X54Y1724D02*
X61Y1724D01*
X22Y1723D02*
X29Y1723D01*
X54Y1723D02*
X62Y1723D01*
X22Y1722D02*
X28Y1722D01*
X55Y1722D02*
X62Y1722D01*
X22Y1721D02*
X28Y1721D01*
X55Y1721D02*
X62Y1721D01*
X21Y1720D02*
X28Y1720D01*
X55Y1720D02*
X62Y1720D01*
X21Y1719D02*
X28Y1719D01*
X55Y1719D02*
X62Y1719D01*
X21Y1718D02*
X28Y1718D01*
X55Y1718D02*
X62Y1718D01*
X21Y1717D02*
X28Y1717D01*
X55Y1717D02*
X62Y1717D01*
X21Y1716D02*
X28Y1716D01*
X55Y1716D02*
X62Y1716D01*
X21Y1715D02*
X28Y1715D01*
X55Y1715D02*
X62Y1715D01*
X21Y1714D02*
X28Y1714D01*
X55Y1714D02*
X62Y1714D01*
X21Y1713D02*
X28Y1713D01*
X55Y1713D02*
X62Y1713D01*
X21Y1712D02*
X28Y1712D01*
X55Y1712D02*
X62Y1712D01*
X21Y1711D02*
X28Y1711D01*
X55Y1711D02*
X62Y1711D01*
X21Y1710D02*
X28Y1710D01*
X55Y1710D02*
X62Y1710D01*
X21Y1709D02*
X28Y1709D01*
X55Y1709D02*
X62Y1709D01*
X21Y1708D02*
X28Y1708D01*
X55Y1708D02*
X62Y1708D01*
X21Y1707D02*
X28Y1707D01*
X55Y1707D02*
X62Y1707D01*
X21Y1706D02*
X28Y1706D01*
X55Y1706D02*
X62Y1706D01*
X22Y1705D02*
X28Y1705D01*
X55Y1705D02*
X62Y1705D01*
X22Y1704D02*
X28Y1704D01*
X56Y1704D02*
X62Y1704D01*
X22Y1703D02*
X27Y1703D01*
X56Y1703D02*
X61Y1703D01*
X23Y1702D02*
X26Y1702D01*
X57Y1702D02*
X60Y1702D01*
X23Y1685D02*
X74Y1685D01*
X21Y1684D02*
X76Y1684D01*
X20Y1683D02*
X77Y1683D01*
X20Y1682D02*
X77Y1682D01*
X20Y1681D02*
X77Y1681D01*
X20Y1680D02*
X77Y1680D01*
X21Y1679D02*
X76Y1679D01*
X23Y1678D02*
X75Y1678D01*
X25Y1677D02*
X34Y1677D01*
X49Y1677D02*
X59Y1677D01*
X24Y1676D02*
X33Y1676D01*
X50Y1676D02*
X60Y1676D01*
X23Y1675D02*
X32Y1675D01*
X51Y1675D02*
X60Y1675D01*
X22Y1674D02*
X31Y1674D01*
X52Y1674D02*
X61Y1674D01*
X21Y1673D02*
X30Y1673D01*
X53Y1673D02*
X62Y1673D01*
X21Y1672D02*
X29Y1672D01*
X54Y1672D02*
X62Y1672D01*
X21Y1671D02*
X28Y1671D01*
X55Y1671D02*
X63Y1671D01*
X20Y1670D02*
X27Y1670D01*
X56Y1670D02*
X63Y1670D01*
X20Y1669D02*
X27Y1669D01*
X57Y1669D02*
X63Y1669D01*
X20Y1668D02*
X26Y1668D01*
X57Y1668D02*
X63Y1668D01*
X20Y1667D02*
X26Y1667D01*
X57Y1667D02*
X63Y1667D01*
X20Y1666D02*
X26Y1666D01*
X57Y1666D02*
X63Y1666D01*
X20Y1665D02*
X26Y1665D01*
X57Y1665D02*
X63Y1665D01*
X20Y1664D02*
X27Y1664D01*
X56Y1664D02*
X63Y1664D01*
X20Y1663D02*
X28Y1663D01*
X55Y1663D02*
X63Y1663D01*
X21Y1662D02*
X29Y1662D01*
X55Y1662D02*
X63Y1662D01*
X21Y1661D02*
X30Y1661D01*
X54Y1661D02*
X62Y1661D01*
X22Y1660D02*
X30Y1660D01*
X53Y1660D02*
X62Y1660D01*
X23Y1659D02*
X31Y1659D01*
X52Y1659D02*
X61Y1659D01*
X23Y1658D02*
X32Y1658D01*
X51Y1658D02*
X60Y1658D01*
X24Y1657D02*
X33Y1657D01*
X50Y1657D02*
X59Y1657D01*
X25Y1656D02*
X58Y1656D01*
X26Y1655D02*
X57Y1655D01*
X27Y1654D02*
X56Y1654D01*
X28Y1653D02*
X56Y1653D01*
X29Y1652D02*
X55Y1652D01*
X30Y1651D02*
X54Y1651D01*
X31Y1650D02*
X52Y1650D01*
X34Y1649D02*
X49Y1649D01*
X35Y1632D02*
X48Y1632D01*
X32Y1631D02*
X51Y1631D01*
X31Y1630D02*
X52Y1630D01*
X30Y1629D02*
X53Y1629D01*
X29Y1628D02*
X54Y1628D01*
X28Y1627D02*
X55Y1627D01*
X27Y1626D02*
X56Y1626D01*
X26Y1625D02*
X37Y1625D01*
X47Y1625D02*
X57Y1625D01*
X25Y1624D02*
X34Y1624D01*
X49Y1624D02*
X58Y1624D01*
X24Y1623D02*
X33Y1623D01*
X50Y1623D02*
X59Y1623D01*
X24Y1622D02*
X33Y1622D01*
X51Y1622D02*
X59Y1622D01*
X23Y1621D02*
X32Y1621D01*
X52Y1621D02*
X60Y1621D01*
X23Y1620D02*
X31Y1620D01*
X53Y1620D02*
X61Y1620D01*
X22Y1619D02*
X30Y1619D01*
X53Y1619D02*
X61Y1619D01*
X22Y1618D02*
X29Y1618D01*
X54Y1618D02*
X61Y1618D01*
X22Y1617D02*
X28Y1617D01*
X55Y1617D02*
X62Y1617D01*
X22Y1616D02*
X28Y1616D01*
X55Y1616D02*
X62Y1616D01*
X21Y1615D02*
X28Y1615D01*
X55Y1615D02*
X62Y1615D01*
X21Y1614D02*
X28Y1614D01*
X55Y1614D02*
X62Y1614D01*
X21Y1613D02*
X28Y1613D01*
X55Y1613D02*
X62Y1613D01*
X21Y1612D02*
X28Y1612D01*
X55Y1612D02*
X62Y1612D01*
X21Y1611D02*
X28Y1611D01*
X55Y1611D02*
X62Y1611D01*
X21Y1610D02*
X28Y1610D01*
X55Y1610D02*
X62Y1610D01*
X21Y1609D02*
X28Y1609D01*
X55Y1609D02*
X62Y1609D01*
X21Y1608D02*
X28Y1608D01*
X55Y1608D02*
X62Y1608D01*
X21Y1607D02*
X28Y1607D01*
X55Y1607D02*
X62Y1607D01*
X21Y1606D02*
X28Y1606D01*
X55Y1606D02*
X62Y1606D01*
X21Y1605D02*
X28Y1605D01*
X55Y1605D02*
X62Y1605D01*
X21Y1604D02*
X28Y1604D01*
X55Y1604D02*
X62Y1604D01*
X21Y1603D02*
X28Y1603D01*
X55Y1603D02*
X62Y1603D01*
X21Y1602D02*
X28Y1602D01*
X55Y1602D02*
X62Y1602D01*
X21Y1601D02*
X28Y1601D01*
X55Y1601D02*
X62Y1601D01*
X22Y1600D02*
X28Y1600D01*
X55Y1600D02*
X62Y1600D01*
X22Y1599D02*
X28Y1599D01*
X56Y1599D02*
X62Y1599D01*
X22Y1598D02*
X27Y1598D01*
X56Y1598D02*
X61Y1598D01*
X23Y1597D02*
X26Y1597D01*
X57Y1597D02*
X60Y1597D01*
X8Y1579D02*
X60Y1579D01*
X7Y1578D02*
X61Y1578D01*
X6Y1577D02*
X62Y1577D01*
X6Y1576D02*
X62Y1576D01*
X6Y1575D02*
X62Y1575D01*
X7Y1574D02*
X61Y1574D01*
X8Y1573D02*
X60Y1573D01*
X26Y1572D02*
X35Y1572D01*
X48Y1572D02*
X57Y1572D01*
X25Y1571D02*
X34Y1571D01*
X49Y1571D02*
X58Y1571D01*
X24Y1570D02*
X33Y1570D01*
X50Y1570D02*
X59Y1570D01*
X24Y1569D02*
X32Y1569D01*
X51Y1569D02*
X60Y1569D01*
X23Y1568D02*
X31Y1568D01*
X52Y1568D02*
X60Y1568D01*
X22Y1567D02*
X30Y1567D01*
X53Y1567D02*
X61Y1567D01*
X22Y1566D02*
X30Y1566D01*
X54Y1566D02*
X61Y1566D01*
X22Y1565D02*
X29Y1565D01*
X55Y1565D02*
X62Y1565D01*
X22Y1564D02*
X28Y1564D01*
X55Y1564D02*
X62Y1564D01*
X22Y1563D02*
X28Y1563D01*
X55Y1563D02*
X62Y1563D01*
X21Y1562D02*
X28Y1562D01*
X55Y1562D02*
X62Y1562D01*
X21Y1561D02*
X28Y1561D01*
X55Y1561D02*
X62Y1561D01*
X21Y1560D02*
X28Y1560D01*
X55Y1560D02*
X62Y1560D01*
X21Y1559D02*
X28Y1559D01*
X55Y1559D02*
X62Y1559D01*
X21Y1558D02*
X28Y1558D01*
X55Y1558D02*
X62Y1558D01*
X22Y1557D02*
X28Y1557D01*
X55Y1557D02*
X62Y1557D01*
X22Y1556D02*
X28Y1556D01*
X55Y1556D02*
X62Y1556D01*
X22Y1555D02*
X29Y1555D01*
X55Y1555D02*
X62Y1555D01*
X22Y1554D02*
X29Y1554D01*
X54Y1554D02*
X61Y1554D01*
X22Y1553D02*
X30Y1553D01*
X53Y1553D02*
X61Y1553D01*
X23Y1552D02*
X31Y1552D01*
X52Y1552D02*
X60Y1552D01*
X23Y1551D02*
X33Y1551D01*
X50Y1551D02*
X60Y1551D01*
X24Y1550D02*
X59Y1550D01*
X25Y1549D02*
X58Y1549D01*
X26Y1548D02*
X57Y1548D01*
X27Y1547D02*
X56Y1547D01*
X28Y1546D02*
X55Y1546D01*
X30Y1545D02*
X54Y1545D01*
X32Y1544D02*
X52Y1544D01*
X22Y1527D02*
X75Y1527D01*
X21Y1526D02*
X76Y1526D01*
X20Y1525D02*
X77Y1525D01*
X20Y1524D02*
X77Y1524D01*
X20Y1523D02*
X77Y1523D01*
X20Y1522D02*
X77Y1522D01*
X21Y1521D02*
X76Y1521D01*
X24Y1520D02*
X74Y1520D01*
X25Y1519D02*
X34Y1519D01*
X49Y1519D02*
X59Y1519D01*
X24Y1518D02*
X33Y1518D01*
X50Y1518D02*
X60Y1518D01*
X23Y1517D02*
X32Y1517D01*
X51Y1517D02*
X61Y1517D01*
X22Y1516D02*
X31Y1516D01*
X52Y1516D02*
X61Y1516D01*
X21Y1515D02*
X30Y1515D01*
X53Y1515D02*
X62Y1515D01*
X21Y1514D02*
X29Y1514D01*
X54Y1514D02*
X62Y1514D01*
X21Y1513D02*
X28Y1513D01*
X55Y1513D02*
X63Y1513D01*
X20Y1512D02*
X27Y1512D01*
X56Y1512D02*
X63Y1512D01*
X20Y1511D02*
X27Y1511D01*
X57Y1511D02*
X63Y1511D01*
X20Y1510D02*
X26Y1510D01*
X57Y1510D02*
X63Y1510D01*
X20Y1509D02*
X26Y1509D01*
X57Y1509D02*
X63Y1509D01*
X20Y1508D02*
X26Y1508D01*
X57Y1508D02*
X63Y1508D01*
X20Y1507D02*
X27Y1507D01*
X57Y1507D02*
X63Y1507D01*
X20Y1506D02*
X27Y1506D01*
X56Y1506D02*
X63Y1506D01*
X21Y1505D02*
X28Y1505D01*
X55Y1505D02*
X63Y1505D01*
X21Y1504D02*
X29Y1504D01*
X54Y1504D02*
X62Y1504D01*
X21Y1503D02*
X30Y1503D01*
X54Y1503D02*
X62Y1503D01*
X22Y1502D02*
X31Y1502D01*
X53Y1502D02*
X61Y1502D01*
X23Y1501D02*
X31Y1501D01*
X52Y1501D02*
X61Y1501D01*
X23Y1500D02*
X32Y1500D01*
X51Y1500D02*
X60Y1500D01*
X24Y1499D02*
X33Y1499D01*
X50Y1499D02*
X59Y1499D01*
X25Y1498D02*
X58Y1498D01*
X26Y1497D02*
X57Y1497D01*
X27Y1496D02*
X56Y1496D01*
X28Y1495D02*
X55Y1495D01*
X29Y1494D02*
X54Y1494D01*
X30Y1493D02*
X53Y1493D01*
X32Y1492D02*
X52Y1492D01*
X7Y1470D02*
X11Y1470D01*
X57Y1470D02*
X61Y1470D01*
X7Y1469D02*
X12Y1469D01*
X56Y1469D02*
X61Y1469D01*
X6Y1468D02*
X12Y1468D01*
X56Y1468D02*
X62Y1468D01*
X6Y1467D02*
X12Y1467D01*
X55Y1467D02*
X62Y1467D01*
X6Y1466D02*
X12Y1466D01*
X55Y1466D02*
X62Y1466D01*
X6Y1465D02*
X12Y1465D01*
X55Y1465D02*
X62Y1465D01*
X6Y1464D02*
X12Y1464D01*
X55Y1464D02*
X62Y1464D01*
X6Y1463D02*
X12Y1463D01*
X55Y1463D02*
X62Y1463D01*
X6Y1462D02*
X12Y1462D01*
X55Y1462D02*
X62Y1462D01*
X6Y1461D02*
X12Y1461D01*
X55Y1461D02*
X62Y1461D01*
X6Y1460D02*
X62Y1460D01*
X6Y1459D02*
X62Y1459D01*
X6Y1458D02*
X62Y1458D01*
X6Y1457D02*
X62Y1457D01*
X6Y1456D02*
X62Y1456D01*
X6Y1455D02*
X62Y1455D01*
X7Y1454D02*
X62Y1454D01*
X9Y1453D02*
X62Y1453D01*
X55Y1452D02*
X62Y1452D01*
X55Y1451D02*
X62Y1451D01*
X55Y1450D02*
X62Y1450D01*
X55Y1449D02*
X62Y1449D01*
X55Y1448D02*
X62Y1448D01*
X55Y1447D02*
X62Y1447D01*
X55Y1446D02*
X62Y1446D01*
X56Y1445D02*
X62Y1445D01*
X56Y1444D02*
X61Y1444D01*
X57Y1443D02*
X61Y1443D01*
X38Y1422D02*
X45Y1422D01*
X33Y1421D02*
X50Y1421D01*
X31Y1420D02*
X52Y1420D01*
X30Y1419D02*
X53Y1419D01*
X29Y1418D02*
X54Y1418D01*
X28Y1417D02*
X55Y1417D01*
X27Y1416D02*
X56Y1416D01*
X26Y1415D02*
X57Y1415D01*
X26Y1414D02*
X35Y1414D01*
X49Y1414D02*
X57Y1414D01*
X25Y1413D02*
X34Y1413D01*
X50Y1413D02*
X58Y1413D01*
X24Y1412D02*
X33Y1412D01*
X50Y1412D02*
X59Y1412D01*
X23Y1411D02*
X32Y1411D01*
X51Y1411D02*
X60Y1411D01*
X23Y1410D02*
X31Y1410D01*
X52Y1410D02*
X61Y1410D01*
X22Y1409D02*
X30Y1409D01*
X53Y1409D02*
X61Y1409D01*
X22Y1408D02*
X29Y1408D01*
X54Y1408D02*
X61Y1408D01*
X22Y1407D02*
X29Y1407D01*
X55Y1407D02*
X62Y1407D01*
X22Y1406D02*
X28Y1406D01*
X55Y1406D02*
X62Y1406D01*
X22Y1405D02*
X28Y1405D01*
X55Y1405D02*
X62Y1405D01*
X21Y1404D02*
X28Y1404D01*
X55Y1404D02*
X62Y1404D01*
X21Y1403D02*
X28Y1403D01*
X55Y1403D02*
X62Y1403D01*
X21Y1402D02*
X28Y1402D01*
X55Y1402D02*
X62Y1402D01*
X21Y1401D02*
X28Y1401D01*
X55Y1401D02*
X62Y1401D01*
X21Y1400D02*
X28Y1400D01*
X55Y1400D02*
X62Y1400D01*
X21Y1399D02*
X28Y1399D01*
X55Y1399D02*
X62Y1399D01*
X21Y1398D02*
X28Y1398D01*
X55Y1398D02*
X62Y1398D01*
X21Y1397D02*
X28Y1397D01*
X55Y1397D02*
X62Y1397D01*
X21Y1396D02*
X28Y1396D01*
X55Y1396D02*
X62Y1396D01*
X21Y1395D02*
X28Y1395D01*
X55Y1395D02*
X62Y1395D01*
X21Y1394D02*
X28Y1394D01*
X55Y1394D02*
X62Y1394D01*
X21Y1393D02*
X28Y1393D01*
X55Y1393D02*
X62Y1393D01*
X21Y1392D02*
X28Y1392D01*
X55Y1392D02*
X62Y1392D01*
X21Y1391D02*
X28Y1391D01*
X55Y1391D02*
X62Y1391D01*
X21Y1390D02*
X28Y1390D01*
X55Y1390D02*
X62Y1390D01*
X22Y1389D02*
X28Y1389D01*
X56Y1389D02*
X62Y1389D01*
X22Y1388D02*
X27Y1388D01*
X56Y1388D02*
X61Y1388D01*
X23Y1387D02*
X27Y1387D01*
X57Y1387D02*
X61Y1387D01*
X24Y1386D02*
X25Y1386D01*
X58Y1386D02*
X59Y1386D01*
X22Y1369D02*
X75Y1369D01*
X21Y1368D02*
X76Y1368D01*
X20Y1367D02*
X77Y1367D01*
X20Y1366D02*
X77Y1366D01*
X20Y1365D02*
X77Y1365D01*
X20Y1364D02*
X77Y1364D01*
X21Y1363D02*
X76Y1363D01*
X25Y1362D02*
X36Y1362D01*
X48Y1362D02*
X59Y1362D01*
X24Y1361D02*
X34Y1361D01*
X50Y1361D02*
X59Y1361D01*
X23Y1360D02*
X33Y1360D01*
X51Y1360D02*
X60Y1360D01*
X23Y1359D02*
X32Y1359D01*
X52Y1359D02*
X61Y1359D01*
X22Y1358D02*
X31Y1358D01*
X53Y1358D02*
X62Y1358D01*
X21Y1357D02*
X30Y1357D01*
X54Y1357D02*
X62Y1357D01*
X21Y1356D02*
X29Y1356D01*
X55Y1356D02*
X62Y1356D01*
X21Y1355D02*
X28Y1355D01*
X56Y1355D02*
X63Y1355D01*
X20Y1354D02*
X27Y1354D01*
X56Y1354D02*
X63Y1354D01*
X20Y1353D02*
X27Y1353D01*
X57Y1353D02*
X63Y1353D01*
X20Y1352D02*
X26Y1352D01*
X57Y1352D02*
X63Y1352D01*
X20Y1351D02*
X26Y1351D01*
X57Y1351D02*
X63Y1351D01*
X20Y1350D02*
X26Y1350D01*
X57Y1350D02*
X63Y1350D01*
X20Y1349D02*
X27Y1349D01*
X57Y1349D02*
X63Y1349D01*
X20Y1348D02*
X27Y1348D01*
X56Y1348D02*
X63Y1348D01*
X21Y1347D02*
X28Y1347D01*
X55Y1347D02*
X63Y1347D01*
X21Y1346D02*
X29Y1346D01*
X54Y1346D02*
X62Y1346D01*
X21Y1345D02*
X30Y1345D01*
X53Y1345D02*
X62Y1345D01*
X22Y1344D02*
X31Y1344D01*
X53Y1344D02*
X61Y1344D01*
X23Y1343D02*
X32Y1343D01*
X52Y1343D02*
X60Y1343D01*
X24Y1342D02*
X33Y1342D01*
X51Y1342D02*
X60Y1342D01*
X25Y1341D02*
X34Y1341D01*
X50Y1341D02*
X59Y1341D01*
X25Y1340D02*
X58Y1340D01*
X26Y1339D02*
X57Y1339D01*
X27Y1338D02*
X56Y1338D01*
X28Y1337D02*
X55Y1337D01*
X29Y1336D02*
X54Y1336D01*
X31Y1335D02*
X53Y1335D01*
X32Y1334D02*
X51Y1334D01*
X34Y1316D02*
X50Y1316D01*
X32Y1315D02*
X52Y1315D01*
X31Y1314D02*
X53Y1314D01*
X29Y1313D02*
X54Y1313D01*
X28Y1312D02*
X55Y1312D01*
X28Y1311D02*
X56Y1311D01*
X27Y1310D02*
X56Y1310D01*
X26Y1309D02*
X35Y1309D01*
X48Y1309D02*
X57Y1309D01*
X25Y1308D02*
X34Y1308D01*
X49Y1308D02*
X58Y1308D01*
X24Y1307D02*
X33Y1307D01*
X50Y1307D02*
X59Y1307D01*
X23Y1306D02*
X32Y1306D01*
X51Y1306D02*
X60Y1306D01*
X23Y1305D02*
X31Y1305D01*
X52Y1305D02*
X60Y1305D01*
X22Y1304D02*
X30Y1304D01*
X53Y1304D02*
X61Y1304D01*
X22Y1303D02*
X30Y1303D01*
X54Y1303D02*
X61Y1303D01*
X22Y1302D02*
X29Y1302D01*
X55Y1302D02*
X62Y1302D01*
X22Y1301D02*
X28Y1301D01*
X55Y1301D02*
X62Y1301D01*
X22Y1300D02*
X28Y1300D01*
X55Y1300D02*
X62Y1300D01*
X21Y1299D02*
X28Y1299D01*
X55Y1299D02*
X62Y1299D01*
X21Y1298D02*
X28Y1298D01*
X55Y1298D02*
X62Y1298D01*
X21Y1297D02*
X28Y1297D01*
X55Y1297D02*
X62Y1297D01*
X21Y1296D02*
X28Y1296D01*
X55Y1296D02*
X62Y1296D01*
X21Y1295D02*
X28Y1295D01*
X55Y1295D02*
X62Y1295D01*
X21Y1294D02*
X28Y1294D01*
X55Y1294D02*
X62Y1294D01*
X21Y1293D02*
X28Y1293D01*
X55Y1293D02*
X62Y1293D01*
X21Y1292D02*
X28Y1292D01*
X55Y1292D02*
X62Y1292D01*
X21Y1291D02*
X28Y1291D01*
X55Y1291D02*
X62Y1291D01*
X21Y1290D02*
X28Y1290D01*
X55Y1290D02*
X62Y1290D01*
X21Y1289D02*
X28Y1289D01*
X55Y1289D02*
X62Y1289D01*
X21Y1288D02*
X28Y1288D01*
X55Y1288D02*
X62Y1288D01*
X21Y1287D02*
X28Y1287D01*
X55Y1287D02*
X62Y1287D01*
X21Y1286D02*
X28Y1286D01*
X55Y1286D02*
X62Y1286D01*
X21Y1285D02*
X28Y1285D01*
X55Y1285D02*
X62Y1285D01*
X22Y1284D02*
X28Y1284D01*
X56Y1284D02*
X62Y1284D01*
X22Y1283D02*
X28Y1283D01*
X56Y1283D02*
X62Y1283D01*
X22Y1282D02*
X27Y1282D01*
X56Y1282D02*
X61Y1282D01*
X24Y1281D02*
X26Y1281D01*
X58Y1281D02*
X60Y1281D01*
X9Y1264D02*
X59Y1264D01*
X7Y1263D02*
X61Y1263D01*
X6Y1262D02*
X61Y1262D01*
X6Y1261D02*
X62Y1261D01*
X6Y1260D02*
X62Y1260D01*
X6Y1259D02*
X61Y1259D01*
X7Y1258D02*
X61Y1258D01*
X9Y1257D02*
X59Y1257D01*
X25Y1256D02*
X35Y1256D01*
X49Y1256D02*
X58Y1256D01*
X25Y1255D02*
X34Y1255D01*
X50Y1255D02*
X59Y1255D01*
X24Y1254D02*
X33Y1254D01*
X51Y1254D02*
X59Y1254D01*
X23Y1253D02*
X32Y1253D01*
X51Y1253D02*
X60Y1253D01*
X23Y1252D02*
X31Y1252D01*
X52Y1252D02*
X61Y1252D01*
X22Y1251D02*
X30Y1251D01*
X53Y1251D02*
X61Y1251D01*
X22Y1250D02*
X29Y1250D01*
X54Y1250D02*
X61Y1250D01*
X22Y1249D02*
X29Y1249D01*
X55Y1249D02*
X62Y1249D01*
X22Y1248D02*
X28Y1248D01*
X55Y1248D02*
X62Y1248D01*
X22Y1247D02*
X28Y1247D01*
X55Y1247D02*
X62Y1247D01*
X21Y1246D02*
X28Y1246D01*
X55Y1246D02*
X62Y1246D01*
X21Y1245D02*
X28Y1245D01*
X55Y1245D02*
X62Y1245D01*
X21Y1244D02*
X28Y1244D01*
X55Y1244D02*
X62Y1244D01*
X21Y1243D02*
X28Y1243D01*
X55Y1243D02*
X62Y1243D01*
X21Y1242D02*
X28Y1242D01*
X55Y1242D02*
X62Y1242D01*
X22Y1241D02*
X28Y1241D01*
X55Y1241D02*
X62Y1241D01*
X22Y1240D02*
X28Y1240D01*
X55Y1240D02*
X62Y1240D01*
X22Y1239D02*
X29Y1239D01*
X54Y1239D02*
X62Y1239D01*
X22Y1238D02*
X30Y1238D01*
X54Y1238D02*
X61Y1238D01*
X23Y1237D02*
X31Y1237D01*
X53Y1237D02*
X61Y1237D01*
X23Y1236D02*
X32Y1236D01*
X51Y1236D02*
X60Y1236D01*
X24Y1235D02*
X60Y1235D01*
X24Y1234D02*
X59Y1234D01*
X25Y1233D02*
X58Y1233D01*
X26Y1232D02*
X57Y1232D01*
X27Y1231D02*
X56Y1231D01*
X29Y1230D02*
X55Y1230D01*
X30Y1229D02*
X53Y1229D01*
X34Y1228D02*
X49Y1228D01*
X68Y1208D02*
X68Y1208D01*
X66Y1207D02*
X71Y1207D01*
X65Y1206D02*
X73Y1206D01*
X65Y1205D02*
X74Y1205D01*
X65Y1204D02*
X75Y1204D01*
X65Y1203D02*
X75Y1203D01*
X66Y1202D02*
X76Y1202D01*
X68Y1201D02*
X76Y1201D01*
X23Y1200D02*
X26Y1200D01*
X69Y1200D02*
X77Y1200D01*
X22Y1199D02*
X27Y1199D01*
X70Y1199D02*
X77Y1199D01*
X22Y1198D02*
X28Y1198D01*
X71Y1198D02*
X77Y1198D01*
X22Y1197D02*
X28Y1197D01*
X71Y1197D02*
X77Y1197D01*
X21Y1196D02*
X28Y1196D01*
X71Y1196D02*
X77Y1196D01*
X21Y1195D02*
X28Y1195D01*
X71Y1195D02*
X77Y1195D01*
X21Y1194D02*
X28Y1194D01*
X71Y1194D02*
X77Y1194D01*
X21Y1193D02*
X28Y1193D01*
X71Y1193D02*
X77Y1193D01*
X21Y1192D02*
X28Y1192D01*
X71Y1192D02*
X77Y1192D01*
X21Y1191D02*
X28Y1191D01*
X71Y1191D02*
X77Y1191D01*
X7Y1190D02*
X8Y1190D01*
X21Y1190D02*
X28Y1190D01*
X71Y1190D02*
X77Y1190D01*
X4Y1189D02*
X11Y1189D01*
X21Y1189D02*
X28Y1189D01*
X71Y1189D02*
X77Y1189D01*
X3Y1188D02*
X12Y1188D01*
X21Y1188D02*
X28Y1188D01*
X70Y1188D02*
X77Y1188D01*
X3Y1187D02*
X12Y1187D01*
X21Y1187D02*
X28Y1187D01*
X69Y1187D02*
X77Y1187D01*
X3Y1186D02*
X12Y1186D01*
X21Y1186D02*
X76Y1186D01*
X3Y1185D02*
X12Y1185D01*
X21Y1185D02*
X76Y1185D01*
X3Y1184D02*
X12Y1184D01*
X21Y1184D02*
X75Y1184D01*
X3Y1183D02*
X12Y1183D01*
X22Y1183D02*
X75Y1183D01*
X3Y1182D02*
X12Y1182D01*
X22Y1182D02*
X74Y1182D01*
X3Y1181D02*
X12Y1181D01*
X22Y1181D02*
X73Y1181D01*
X4Y1180D02*
X11Y1180D01*
X23Y1180D02*
X71Y1180D01*
X7Y1179D02*
X8Y1179D01*
X26Y1179D02*
X66Y1179D01*
X8Y1155D02*
X10Y1155D01*
X58Y1155D02*
X60Y1155D01*
X7Y1154D02*
X12Y1154D01*
X56Y1154D02*
X61Y1154D01*
X6Y1153D02*
X12Y1153D01*
X56Y1153D02*
X62Y1153D01*
X6Y1152D02*
X12Y1152D01*
X56Y1152D02*
X62Y1152D01*
X6Y1151D02*
X12Y1151D01*
X55Y1151D02*
X62Y1151D01*
X6Y1150D02*
X12Y1150D01*
X55Y1150D02*
X62Y1150D01*
X6Y1149D02*
X12Y1149D01*
X55Y1149D02*
X62Y1149D01*
X6Y1148D02*
X12Y1148D01*
X55Y1148D02*
X62Y1148D01*
X6Y1147D02*
X12Y1147D01*
X55Y1147D02*
X62Y1147D01*
X6Y1146D02*
X12Y1146D01*
X55Y1146D02*
X62Y1146D01*
X6Y1145D02*
X12Y1145D01*
X55Y1145D02*
X62Y1145D01*
X6Y1144D02*
X62Y1144D01*
X6Y1143D02*
X62Y1143D01*
X6Y1142D02*
X62Y1142D01*
X6Y1141D02*
X62Y1141D01*
X6Y1140D02*
X62Y1140D01*
X7Y1139D02*
X62Y1139D01*
X8Y1138D02*
X62Y1138D01*
X55Y1137D02*
X62Y1137D01*
X55Y1136D02*
X62Y1136D01*
X55Y1135D02*
X62Y1135D01*
X55Y1134D02*
X62Y1134D01*
X55Y1133D02*
X62Y1133D01*
X55Y1132D02*
X62Y1132D01*
X55Y1131D02*
X62Y1131D01*
X56Y1130D02*
X62Y1130D01*
X56Y1129D02*
X62Y1129D01*
X56Y1128D02*
X61Y1128D01*
X57Y1127D02*
X60Y1127D01*
X35Y1106D02*
X48Y1106D01*
X32Y1105D02*
X51Y1105D01*
X31Y1104D02*
X52Y1104D01*
X30Y1103D02*
X53Y1103D01*
X29Y1102D02*
X54Y1102D01*
X28Y1101D02*
X55Y1101D01*
X27Y1100D02*
X56Y1100D01*
X26Y1099D02*
X36Y1099D01*
X47Y1099D02*
X57Y1099D01*
X25Y1098D02*
X34Y1098D01*
X49Y1098D02*
X58Y1098D01*
X24Y1097D02*
X33Y1097D01*
X50Y1097D02*
X59Y1097D01*
X24Y1096D02*
X33Y1096D01*
X51Y1096D02*
X59Y1096D01*
X23Y1095D02*
X32Y1095D01*
X52Y1095D02*
X60Y1095D01*
X23Y1094D02*
X31Y1094D01*
X53Y1094D02*
X61Y1094D01*
X22Y1093D02*
X30Y1093D01*
X53Y1093D02*
X61Y1093D01*
X22Y1092D02*
X29Y1092D01*
X54Y1092D02*
X61Y1092D01*
X22Y1091D02*
X28Y1091D01*
X55Y1091D02*
X62Y1091D01*
X22Y1090D02*
X28Y1090D01*
X55Y1090D02*
X62Y1090D01*
X21Y1089D02*
X28Y1089D01*
X55Y1089D02*
X62Y1089D01*
X21Y1088D02*
X28Y1088D01*
X55Y1088D02*
X62Y1088D01*
X21Y1087D02*
X28Y1087D01*
X55Y1087D02*
X62Y1087D01*
X21Y1086D02*
X28Y1086D01*
X55Y1086D02*
X62Y1086D01*
X21Y1085D02*
X28Y1085D01*
X55Y1085D02*
X62Y1085D01*
X21Y1084D02*
X28Y1084D01*
X55Y1084D02*
X62Y1084D01*
X21Y1083D02*
X28Y1083D01*
X55Y1083D02*
X62Y1083D01*
X21Y1082D02*
X28Y1082D01*
X55Y1082D02*
X62Y1082D01*
X21Y1081D02*
X28Y1081D01*
X55Y1081D02*
X62Y1081D01*
X21Y1080D02*
X28Y1080D01*
X55Y1080D02*
X62Y1080D01*
X21Y1079D02*
X28Y1079D01*
X55Y1079D02*
X62Y1079D01*
X21Y1078D02*
X28Y1078D01*
X55Y1078D02*
X62Y1078D01*
X21Y1077D02*
X28Y1077D01*
X55Y1077D02*
X62Y1077D01*
X21Y1076D02*
X28Y1076D01*
X55Y1076D02*
X62Y1076D01*
X21Y1075D02*
X28Y1075D01*
X55Y1075D02*
X62Y1075D01*
X22Y1074D02*
X28Y1074D01*
X55Y1074D02*
X62Y1074D01*
X22Y1073D02*
X28Y1073D01*
X56Y1073D02*
X62Y1073D01*
X22Y1072D02*
X27Y1072D01*
X56Y1072D02*
X61Y1072D01*
X23Y1071D02*
X26Y1071D01*
X57Y1071D02*
X60Y1071D01*
X21Y1053D02*
X76Y1053D01*
X21Y1052D02*
X77Y1052D01*
X20Y1051D02*
X77Y1051D01*
X20Y1050D02*
X77Y1050D01*
X20Y1049D02*
X77Y1049D01*
X21Y1048D02*
X76Y1048D01*
X22Y1047D02*
X75Y1047D01*
X25Y1046D02*
X35Y1046D01*
X49Y1046D02*
X58Y1046D01*
X24Y1045D02*
X33Y1045D01*
X50Y1045D02*
X59Y1045D01*
X23Y1044D02*
X32Y1044D01*
X51Y1044D02*
X60Y1044D01*
X22Y1043D02*
X31Y1043D01*
X52Y1043D02*
X61Y1043D01*
X22Y1042D02*
X30Y1042D01*
X53Y1042D02*
X62Y1042D01*
X21Y1041D02*
X29Y1041D01*
X54Y1041D02*
X62Y1041D01*
X21Y1040D02*
X28Y1040D01*
X55Y1040D02*
X63Y1040D01*
X20Y1039D02*
X27Y1039D01*
X56Y1039D02*
X63Y1039D01*
X20Y1038D02*
X27Y1038D01*
X57Y1038D02*
X63Y1038D01*
X20Y1037D02*
X26Y1037D01*
X57Y1037D02*
X63Y1037D01*
X20Y1036D02*
X26Y1036D01*
X57Y1036D02*
X63Y1036D01*
X20Y1035D02*
X26Y1035D01*
X57Y1035D02*
X63Y1035D01*
X20Y1034D02*
X26Y1034D01*
X57Y1034D02*
X63Y1034D01*
X20Y1033D02*
X27Y1033D01*
X56Y1033D02*
X63Y1033D01*
X20Y1032D02*
X28Y1032D01*
X56Y1032D02*
X63Y1032D01*
X21Y1031D02*
X29Y1031D01*
X55Y1031D02*
X63Y1031D01*
X21Y1030D02*
X29Y1030D01*
X54Y1030D02*
X62Y1030D01*
X22Y1029D02*
X30Y1029D01*
X53Y1029D02*
X62Y1029D01*
X22Y1028D02*
X31Y1028D01*
X52Y1028D02*
X61Y1028D01*
X23Y1027D02*
X32Y1027D01*
X51Y1027D02*
X60Y1027D01*
X24Y1026D02*
X33Y1026D01*
X50Y1026D02*
X59Y1026D01*
X25Y1025D02*
X58Y1025D01*
X26Y1024D02*
X58Y1024D01*
X27Y1023D02*
X57Y1023D01*
X28Y1022D02*
X56Y1022D01*
X29Y1021D02*
X55Y1021D01*
X30Y1020D02*
X54Y1020D01*
X31Y1019D02*
X52Y1019D01*
X33Y1018D02*
X50Y1018D01*
X36Y1001D02*
X48Y1001D01*
X33Y1000D02*
X51Y1000D01*
X31Y999D02*
X52Y999D01*
X30Y998D02*
X53Y998D01*
X29Y997D02*
X54Y997D01*
X28Y996D02*
X55Y996D01*
X27Y995D02*
X56Y995D01*
X26Y994D02*
X57Y994D01*
X25Y993D02*
X35Y993D01*
X49Y993D02*
X58Y993D01*
X24Y992D02*
X34Y992D01*
X50Y992D02*
X58Y992D01*
X24Y991D02*
X33Y991D01*
X51Y991D02*
X59Y991D01*
X23Y990D02*
X32Y990D01*
X52Y990D02*
X60Y990D01*
X23Y989D02*
X31Y989D01*
X52Y989D02*
X61Y989D01*
X22Y988D02*
X30Y988D01*
X53Y988D02*
X61Y988D01*
X22Y987D02*
X29Y987D01*
X54Y987D02*
X61Y987D01*
X22Y986D02*
X28Y986D01*
X55Y986D02*
X62Y986D01*
X22Y985D02*
X28Y985D01*
X55Y985D02*
X62Y985D01*
X22Y984D02*
X28Y984D01*
X55Y984D02*
X62Y984D01*
X21Y983D02*
X28Y983D01*
X55Y983D02*
X62Y983D01*
X21Y982D02*
X28Y982D01*
X55Y982D02*
X62Y982D01*
X21Y981D02*
X28Y981D01*
X55Y981D02*
X62Y981D01*
X21Y980D02*
X28Y980D01*
X55Y980D02*
X62Y980D01*
X21Y979D02*
X28Y979D01*
X55Y979D02*
X62Y979D01*
X21Y978D02*
X28Y978D01*
X55Y978D02*
X62Y978D01*
X21Y977D02*
X28Y977D01*
X55Y977D02*
X62Y977D01*
X21Y976D02*
X28Y976D01*
X55Y976D02*
X62Y976D01*
X21Y975D02*
X28Y975D01*
X55Y975D02*
X62Y975D01*
X21Y974D02*
X28Y974D01*
X55Y974D02*
X62Y974D01*
X21Y973D02*
X28Y973D01*
X55Y973D02*
X62Y973D01*
X21Y972D02*
X28Y972D01*
X55Y972D02*
X62Y972D01*
X21Y971D02*
X28Y971D01*
X55Y971D02*
X62Y971D01*
X21Y970D02*
X28Y970D01*
X55Y970D02*
X62Y970D01*
X21Y969D02*
X28Y969D01*
X55Y969D02*
X62Y969D01*
X22Y968D02*
X28Y968D01*
X56Y968D02*
X62Y968D01*
X22Y967D02*
X27Y967D01*
X56Y967D02*
X61Y967D01*
X23Y966D02*
X27Y966D01*
X57Y966D02*
X61Y966D01*
X8Y948D02*
X60Y948D01*
X7Y947D02*
X61Y947D01*
X6Y946D02*
X62Y946D01*
X6Y945D02*
X62Y945D01*
X6Y944D02*
X62Y944D01*
X7Y943D02*
X61Y943D01*
X8Y942D02*
X60Y942D01*
X26Y941D02*
X35Y941D01*
X48Y941D02*
X57Y941D01*
X25Y940D02*
X34Y940D01*
X49Y940D02*
X58Y940D01*
X24Y939D02*
X33Y939D01*
X50Y939D02*
X59Y939D01*
X24Y938D02*
X32Y938D01*
X51Y938D02*
X60Y938D01*
X23Y937D02*
X31Y937D01*
X52Y937D02*
X60Y937D01*
X23Y936D02*
X31Y936D01*
X53Y936D02*
X61Y936D01*
X22Y935D02*
X30Y935D01*
X54Y935D02*
X61Y935D01*
X22Y934D02*
X29Y934D01*
X54Y934D02*
X61Y934D01*
X22Y933D02*
X28Y933D01*
X55Y933D02*
X62Y933D01*
X22Y932D02*
X28Y932D01*
X55Y932D02*
X62Y932D01*
X21Y931D02*
X28Y931D01*
X55Y931D02*
X62Y931D01*
X21Y930D02*
X28Y930D01*
X55Y930D02*
X62Y930D01*
X21Y929D02*
X28Y929D01*
X55Y929D02*
X62Y929D01*
X21Y928D02*
X28Y928D01*
X55Y928D02*
X62Y928D01*
X21Y927D02*
X28Y927D01*
X55Y927D02*
X62Y927D01*
X22Y926D02*
X28Y926D01*
X55Y926D02*
X62Y926D01*
X22Y925D02*
X28Y925D01*
X55Y925D02*
X62Y925D01*
X22Y924D02*
X29Y924D01*
X55Y924D02*
X62Y924D01*
X22Y923D02*
X29Y923D01*
X54Y923D02*
X61Y923D01*
X22Y922D02*
X30Y922D01*
X53Y922D02*
X61Y922D01*
X23Y921D02*
X31Y921D01*
X52Y921D02*
X61Y921D01*
X23Y920D02*
X33Y920D01*
X51Y920D02*
X60Y920D01*
X24Y919D02*
X59Y919D01*
X25Y918D02*
X58Y918D01*
X26Y917D02*
X58Y917D01*
X27Y916D02*
X57Y916D01*
X28Y915D02*
X56Y915D01*
X29Y914D02*
X54Y914D01*
X32Y913D02*
X52Y913D01*
D02*
G04 End of Silk0*
M02*