; NON-PLATED HOLES START AT T1
; THROUGH (PLATED) HOLES START AT T100
M48
INCH
T1C0.125984
T100C0.032000
T101C0.031497
T102C0.041333
T103C0.035000
T104C0.041361
T105C0.088356
T106C0.015748
T107C0.100000
T108C0.030000
T109C0.027559
T110C0.060020
T111C0.038000
T112C0.042000
T113C0.043307
T114C0.040000
%
T1
X018581Y000857
X001042Y038418
X001042Y036733
X001066Y002406
X018747Y038510
X001066Y000913
T100
X016066Y031330
X015066Y031330
X016066Y028330
X015066Y028330
X011066Y028330
X013066Y031330
X012066Y031330
X017066Y031330
X010066Y031330
X014066Y028330
X011066Y031330
X013066Y028330
X014066Y031330
X010066Y028330
X012066Y028330
X017066Y028330
T101
X009863Y016423
X017869Y009481
X017869Y003101
X017758Y016007
X009863Y015438
X018742Y016007
X018853Y009481
X018853Y003101
T102
X004451Y020750
X004454Y014313
X004457Y030466
X004457Y031466
X004451Y019750
X004454Y015313
X004457Y009904
X004451Y026086
X004457Y008904
X014185Y034798
X015185Y034798
X004451Y025086
T103
X016871Y017376
X014917Y005194
X011352Y002428
X008352Y005428
X006899Y000483
X010312Y012197
X011312Y009197
X006530Y031382
X007583Y024048
X018329Y021943
X006891Y022524
X015789Y004342
X002563Y035459
X015911Y000594
X007279Y029562
X007352Y005428
X016904Y033030
X018108Y017279
X004496Y006451
X002563Y038459
X006891Y019524
X009416Y032827
X009352Y005428
X008681Y000594
X000616Y006900
X017199Y011395
X010312Y009197
X018108Y020279
X008765Y001452
X005530Y031382
X011312Y012197
X007784Y015570
X012352Y005428
X012223Y013211
X013481Y002659
X018789Y004342
X010352Y002428
X006352Y005428
X018199Y011395
X017367Y006166
X014917Y002194
X007496Y006451
X017335Y024805
X001173Y034517
X013288Y017084
X003616Y006900
X013820Y032615
X007530Y031382
X019199Y011395
X009312Y012197
X007312Y012197
X014402Y023260
X008728Y027616
X014946Y008059
X007583Y021048
X013312Y012197
X012312Y009197
X003899Y000483
X017671Y027132
X015115Y007090
X012911Y000594
X004173Y034517
X010352Y005428
X009134Y014261
X006352Y002428
X006312Y009197
X012782Y025682
X005728Y027616
X012352Y002428
X008312Y012197
X017946Y008059
X011681Y000594
X016132Y011855
X007352Y002428
X015132Y011855
X014132Y011855
X013288Y014084
X009352Y002428
X015367Y006166
X006416Y032827
X018329Y024943
X009312Y009197
X005765Y001452
X008763Y025847
X006784Y015570
X016367Y006166
X016871Y014376
X018671Y027132
X007312Y009197
X019114Y021132
X013481Y005659
X006312Y012197
X007763Y025847
X015223Y013211
X019114Y018132
X006279Y029562
X008312Y009197
X012134Y014261
X017402Y023260
X015782Y025682
X008352Y002428
X012312Y012197
X011352Y005428
X012115Y007090
X010820Y032615
X013312Y009197
X014335Y024805
X015904Y033030
T104
X004451Y027087
X004457Y010904
X016185Y034798
X004457Y032466
X004454Y016313
X004451Y021750
T105
X017126Y037751
X013243Y037751
X001498Y022691
X001498Y028028
X001498Y024145
X001504Y029525
X001498Y018808
X001504Y007963
X001501Y017254
X001504Y033408
X001504Y011846
X001501Y013371
T106
X004707Y011764
X015418Y009453
X003662Y016631
X003485Y019720
X007151Y011409
X005573Y014753
X008418Y022120
X004773Y028564
X005085Y022409
X005907Y028564
X005351Y013225
T107
X005813Y035391
X005813Y037791
X003913Y036591
T108
X011455Y021812
X015760Y015093
X013656Y027320
X009734Y021876
X014463Y022186
X017453Y022314
X011455Y023812
X015453Y022314
X014731Y015103
X015656Y027320
X012463Y022186
X014731Y017103
X009734Y023876
X015760Y017093
T109
X013741Y021042
X014741Y018042
X014741Y021042
X013741Y018042
X011741Y018042
X010741Y018042
X011741Y021042
X010741Y021042
X015741Y021042
X012741Y021042
X008741Y021042
X015741Y018042
X008741Y018042
X012741Y018042
X009741Y018042
X009741Y021042
T110
X008385Y034274
X008185Y037224
X011045Y035964
X010105Y038504
X012035Y035414
T111
X008265Y013284
X009346Y008000
X010346Y008000
X010265Y013284
X009265Y013284
X004583Y004030
X000816Y004864
X012346Y008000
X007265Y013284
X000820Y003865
X001816Y004864
X006951Y033798
X011346Y008000
X005676Y025355
X007346Y008000
X005677Y018983
X000827Y005898
X001820Y003865
X005677Y019983
X008346Y008000
X018594Y035311
X001827Y005898
X018594Y036311
X005676Y024355
X005951Y033798
X004548Y001794
X014638Y014117
X009862Y027362
T112
X008838Y028578
X008838Y031558
T113
X003114Y001912
X003114Y002912
X004567Y002909
X003114Y004912
X003114Y003912
T114
X018618Y030593
X018618Y029523
X018618Y031663
T00
M30
