G04 MADE WITH FRITZING*
G04 WWW.FRITZING.ORG*
G04 DOUBLE SIDED*
G04 HOLES PLATED*
G04 CONTOUR ON CENTER OF CONTOUR VECTOR*
%ASAXBY*%
%FSLAX23Y23*%
%MOIN*%
%OFA0B0*%
%SFA1.0B1.0*%
%ADD10C,0.049370*%
%ADD11C,0.077559*%
%ADD12C,0.092000*%
%ADD13C,0.085000*%
%ADD14C,0.075000*%
%ADD15C,0.072992*%
%ADD16C,0.084000*%
%ADD17C,0.150000*%
%ADD18C,0.100020*%
%ADD19C,0.135984*%
%ADD20C,0.062000*%
%ADD21C,0.088000*%
%ADD22C,0.093307*%
%ADD23C,0.084667*%
%ADD24C,0.084695*%
%ADD25C,0.134033*%
%ADD26C,0.080000*%
%ADD27R,0.077559X0.077559*%
%ADD28R,0.092000X0.092000*%
%ADD29R,0.075000X0.075000*%
%ADD30R,0.085000X0.085000*%
%ADD31R,0.072992X0.072992*%
%ADD32R,0.001000X0.001000*%
%LNMASK0*%
G90*
G70*
G54D10*
X591Y2856D03*
X477Y2856D03*
X349Y1972D03*
X366Y1663D03*
X715Y1141D03*
X471Y1176D03*
X1542Y945D03*
X842Y2212D03*
X509Y2241D03*
X535Y1323D03*
X557Y1475D03*
G54D11*
X874Y1804D03*
X874Y2104D03*
X974Y1804D03*
X974Y2104D03*
X1074Y1804D03*
X1074Y2104D03*
X1174Y1804D03*
X1174Y2104D03*
X1274Y1804D03*
X1274Y2104D03*
X1374Y1804D03*
X1374Y2104D03*
X1474Y1804D03*
X1474Y2104D03*
X1574Y1804D03*
X1574Y2104D03*
G54D12*
X884Y3156D03*
X884Y2858D03*
G54D13*
X1329Y1408D03*
X1329Y1708D03*
G54D14*
X635Y243D03*
X735Y243D03*
X835Y243D03*
X935Y243D03*
X1035Y243D03*
X1135Y243D03*
X1235Y243D03*
X1235Y543D03*
G54D13*
X1135Y543D03*
G54D14*
X1035Y543D03*
X935Y543D03*
X835Y543D03*
X735Y543D03*
X635Y543D03*
G54D13*
X1767Y2713D03*
X1867Y2713D03*
X1590Y3303D03*
X1690Y3303D03*
X728Y2956D03*
X628Y2956D03*
X778Y1557D03*
X678Y1557D03*
G54D15*
X1874Y1601D03*
X1776Y1601D03*
X986Y1544D03*
X986Y1642D03*
X1885Y948D03*
X1787Y948D03*
X1885Y310D03*
X1787Y310D03*
G54D16*
X1862Y3166D03*
X1862Y3059D03*
X1862Y2952D03*
G54D13*
X1920Y1140D03*
X1820Y1140D03*
X1720Y1140D03*
X753Y3138D03*
X653Y3138D03*
X553Y3138D03*
X1613Y1186D03*
X1513Y1186D03*
X1413Y1186D03*
X1737Y617D03*
X1637Y617D03*
X1537Y617D03*
G54D17*
X581Y3539D03*
X581Y3779D03*
X391Y3659D03*
G54D18*
X1204Y3541D03*
X1105Y3596D03*
X839Y3427D03*
X819Y3722D03*
X1011Y3850D03*
G54D13*
X1082Y3262D03*
X1382Y3262D03*
G54D19*
X1858Y86D03*
X1875Y3851D03*
X104Y3673D03*
X104Y3842D03*
X107Y241D03*
X107Y91D03*
G54D13*
X913Y1426D03*
X1213Y1426D03*
X642Y3283D03*
X942Y3283D03*
X1512Y709D03*
X1212Y709D03*
X1440Y2326D03*
X1740Y2326D03*
X1434Y2481D03*
X1734Y2481D03*
X1278Y2568D03*
X1578Y2568D03*
X758Y2105D03*
X758Y2405D03*
X689Y1952D03*
X689Y2252D03*
X873Y2762D03*
X573Y2762D03*
G54D20*
X1007Y2833D03*
X1107Y2833D03*
X1207Y2833D03*
X1307Y2833D03*
X1407Y2833D03*
X1507Y2833D03*
X1607Y2833D03*
X1707Y2833D03*
X1707Y3133D03*
X1607Y3133D03*
X1507Y3133D03*
X1407Y3133D03*
X1307Y3133D03*
X1207Y3133D03*
X1107Y3133D03*
X1007Y3133D03*
G54D21*
X727Y1328D03*
X827Y1328D03*
X927Y1328D03*
X1027Y1328D03*
G54D22*
X311Y491D03*
X311Y391D03*
X311Y291D03*
X311Y191D03*
G54D21*
X735Y800D03*
X835Y800D03*
X935Y800D03*
X1035Y800D03*
X1135Y800D03*
X1235Y800D03*
X695Y3380D03*
X595Y3380D03*
X1859Y3531D03*
X1859Y3631D03*
X568Y1898D03*
X568Y1998D03*
X82Y387D03*
X182Y387D03*
X82Y486D03*
X182Y486D03*
X986Y2736D03*
X1464Y1412D03*
X83Y590D03*
X183Y590D03*
X455Y179D03*
X458Y403D03*
G54D22*
X457Y291D03*
G54D21*
X568Y2436D03*
X568Y2536D03*
G54D13*
X631Y920D03*
X631Y1220D03*
X731Y920D03*
X731Y1220D03*
X831Y920D03*
X831Y1220D03*
X931Y920D03*
X931Y1220D03*
X1031Y920D03*
X1031Y1220D03*
X1131Y920D03*
X1131Y1220D03*
X1231Y920D03*
X1231Y1220D03*
X1331Y920D03*
X1331Y1220D03*
G54D23*
X446Y890D03*
X446Y990D03*
G54D24*
X446Y1090D03*
G54D25*
X150Y796D03*
X150Y1185D03*
G54D23*
X445Y1431D03*
X445Y1531D03*
G54D24*
X445Y1631D03*
G54D25*
X150Y1337D03*
X150Y1725D03*
G54D23*
X445Y2509D03*
X445Y2609D03*
G54D24*
X445Y2709D03*
G54D25*
X150Y2415D03*
X150Y2803D03*
G54D23*
X446Y3047D03*
X446Y3147D03*
G54D24*
X446Y3247D03*
G54D25*
X150Y2953D03*
X150Y3341D03*
G54D23*
X445Y1975D03*
X445Y2075D03*
G54D24*
X445Y2175D03*
G54D25*
X150Y1881D03*
X150Y2269D03*
G54D13*
X417Y3452D03*
X117Y3452D03*
X256Y3846D03*
X256Y3546D03*
X876Y2585D03*
X776Y2585D03*
X1833Y2494D03*
X1833Y2194D03*
X1911Y1813D03*
X1911Y2113D03*
X1811Y1728D03*
X1811Y2028D03*
X1687Y1438D03*
X1687Y1738D03*
X1795Y806D03*
X1495Y806D03*
X1522Y1321D03*
X1222Y1321D03*
X1348Y266D03*
X1348Y566D03*
X1879Y434D03*
X1579Y434D03*
X1492Y219D03*
X1492Y519D03*
X690Y48D03*
X390Y48D03*
X577Y145D03*
X877Y145D03*
X868Y59D03*
X1168Y59D03*
X1291Y59D03*
X1591Y59D03*
X62Y690D03*
X362Y690D03*
X750Y645D03*
X450Y645D03*
G54D26*
X973Y2388D03*
X973Y2188D03*
X1146Y2381D03*
X1146Y2181D03*
X1246Y2219D03*
X1446Y2219D03*
X1545Y2231D03*
X1745Y2231D03*
X1473Y1710D03*
X1473Y1510D03*
X1576Y1709D03*
X1576Y1509D03*
X1366Y2732D03*
X1566Y2732D03*
G54D23*
X1419Y3480D03*
X1519Y3480D03*
G54D24*
X1619Y3480D03*
G54D25*
X1324Y3775D03*
X1713Y3775D03*
G54D27*
X874Y1804D03*
G54D28*
X884Y3157D03*
G54D29*
X635Y243D03*
G54D30*
X1767Y2713D03*
X1590Y3303D03*
X728Y2956D03*
X778Y1557D03*
G54D31*
X1874Y1601D03*
X986Y1544D03*
X1885Y948D03*
X1885Y310D03*
G54D30*
X631Y920D03*
X876Y2585D03*
G54D32*
X1002Y3190D02*
X1012Y3190D01*
X1102Y3190D02*
X1112Y3190D01*
X1202Y3190D02*
X1212Y3190D01*
X1302Y3190D02*
X1312Y3190D01*
X1402Y3190D02*
X1412Y3190D01*
X1502Y3190D02*
X1512Y3190D01*
X1602Y3190D02*
X1612Y3190D01*
X1702Y3190D02*
X1712Y3190D01*
X998Y3189D02*
X1016Y3189D01*
X1098Y3189D02*
X1116Y3189D01*
X1198Y3189D02*
X1216Y3189D01*
X1298Y3189D02*
X1316Y3189D01*
X1398Y3189D02*
X1416Y3189D01*
X1498Y3189D02*
X1516Y3189D01*
X1598Y3189D02*
X1616Y3189D01*
X1698Y3189D02*
X1716Y3189D01*
X995Y3188D02*
X1018Y3188D01*
X1095Y3188D02*
X1118Y3188D01*
X1195Y3188D02*
X1218Y3188D01*
X1295Y3188D02*
X1318Y3188D01*
X1395Y3188D02*
X1418Y3188D01*
X1495Y3188D02*
X1518Y3188D01*
X1595Y3188D02*
X1618Y3188D01*
X1695Y3188D02*
X1718Y3188D01*
X993Y3187D02*
X1021Y3187D01*
X1093Y3187D02*
X1121Y3187D01*
X1193Y3187D02*
X1221Y3187D01*
X1293Y3187D02*
X1321Y3187D01*
X1393Y3187D02*
X1420Y3187D01*
X1493Y3187D02*
X1520Y3187D01*
X1593Y3187D02*
X1620Y3187D01*
X1693Y3187D02*
X1720Y3187D01*
X991Y3186D02*
X1022Y3186D01*
X1091Y3186D02*
X1122Y3186D01*
X1191Y3186D02*
X1222Y3186D01*
X1291Y3186D02*
X1322Y3186D01*
X1391Y3186D02*
X1422Y3186D01*
X1491Y3186D02*
X1522Y3186D01*
X1591Y3186D02*
X1622Y3186D01*
X1691Y3186D02*
X1722Y3186D01*
X990Y3185D02*
X1024Y3185D01*
X1090Y3185D02*
X1124Y3185D01*
X1190Y3185D02*
X1224Y3185D01*
X1290Y3185D02*
X1324Y3185D01*
X1390Y3185D02*
X1424Y3185D01*
X1490Y3185D02*
X1524Y3185D01*
X1590Y3185D02*
X1624Y3185D01*
X1690Y3185D02*
X1724Y3185D01*
X988Y3184D02*
X1025Y3184D01*
X1088Y3184D02*
X1125Y3184D01*
X1188Y3184D02*
X1225Y3184D01*
X1288Y3184D02*
X1325Y3184D01*
X1388Y3184D02*
X1425Y3184D01*
X1488Y3184D02*
X1525Y3184D01*
X1588Y3184D02*
X1625Y3184D01*
X1688Y3184D02*
X1725Y3184D01*
X987Y3183D02*
X1027Y3183D01*
X1087Y3183D02*
X1127Y3183D01*
X1187Y3183D02*
X1227Y3183D01*
X1287Y3183D02*
X1327Y3183D01*
X1387Y3183D02*
X1427Y3183D01*
X1487Y3183D02*
X1526Y3183D01*
X1587Y3183D02*
X1626Y3183D01*
X1687Y3183D02*
X1726Y3183D01*
X986Y3182D02*
X1028Y3182D01*
X1086Y3182D02*
X1128Y3182D01*
X1186Y3182D02*
X1228Y3182D01*
X1286Y3182D02*
X1328Y3182D01*
X1386Y3182D02*
X1428Y3182D01*
X1486Y3182D02*
X1528Y3182D01*
X1586Y3182D02*
X1628Y3182D01*
X1686Y3182D02*
X1728Y3182D01*
X985Y3181D02*
X1029Y3181D01*
X1085Y3181D02*
X1129Y3181D01*
X1185Y3181D02*
X1229Y3181D01*
X1285Y3181D02*
X1329Y3181D01*
X1385Y3181D02*
X1429Y3181D01*
X1485Y3181D02*
X1529Y3181D01*
X1585Y3181D02*
X1629Y3181D01*
X1685Y3181D02*
X1729Y3181D01*
X984Y3180D02*
X1030Y3180D01*
X1084Y3180D02*
X1130Y3180D01*
X1184Y3180D02*
X1230Y3180D01*
X1284Y3180D02*
X1330Y3180D01*
X1384Y3180D02*
X1430Y3180D01*
X1484Y3180D02*
X1529Y3180D01*
X1584Y3180D02*
X1629Y3180D01*
X1684Y3180D02*
X1729Y3180D01*
X983Y3179D02*
X1030Y3179D01*
X1083Y3179D02*
X1130Y3179D01*
X1183Y3179D02*
X1230Y3179D01*
X1283Y3179D02*
X1330Y3179D01*
X1383Y3179D02*
X1430Y3179D01*
X1483Y3179D02*
X1530Y3179D01*
X1583Y3179D02*
X1630Y3179D01*
X1683Y3179D02*
X1730Y3179D01*
X983Y3178D02*
X1031Y3178D01*
X1082Y3178D02*
X1131Y3178D01*
X1182Y3178D02*
X1231Y3178D01*
X1282Y3178D02*
X1331Y3178D01*
X1382Y3178D02*
X1431Y3178D01*
X1482Y3178D02*
X1531Y3178D01*
X1582Y3178D02*
X1631Y3178D01*
X1682Y3178D02*
X1731Y3178D01*
X982Y3177D02*
X1032Y3177D01*
X1082Y3177D02*
X1132Y3177D01*
X1182Y3177D02*
X1232Y3177D01*
X1282Y3177D02*
X1332Y3177D01*
X1382Y3177D02*
X1432Y3177D01*
X1482Y3177D02*
X1532Y3177D01*
X1582Y3177D02*
X1632Y3177D01*
X1682Y3177D02*
X1732Y3177D01*
X981Y3176D02*
X1033Y3176D01*
X1081Y3176D02*
X1133Y3176D01*
X1181Y3176D02*
X1232Y3176D01*
X1281Y3176D02*
X1332Y3176D01*
X1381Y3176D02*
X1432Y3176D01*
X1481Y3176D02*
X1532Y3176D01*
X1581Y3176D02*
X1632Y3176D01*
X1681Y3176D02*
X1732Y3176D01*
X981Y3175D02*
X1033Y3175D01*
X1081Y3175D02*
X1133Y3175D01*
X1181Y3175D02*
X1233Y3175D01*
X1281Y3175D02*
X1333Y3175D01*
X1380Y3175D02*
X1433Y3175D01*
X1480Y3175D02*
X1533Y3175D01*
X1580Y3175D02*
X1633Y3175D01*
X1680Y3175D02*
X1733Y3175D01*
X980Y3174D02*
X1034Y3174D01*
X1080Y3174D02*
X1134Y3174D01*
X1180Y3174D02*
X1234Y3174D01*
X1280Y3174D02*
X1334Y3174D01*
X1380Y3174D02*
X1434Y3174D01*
X1480Y3174D02*
X1534Y3174D01*
X1580Y3174D02*
X1634Y3174D01*
X1680Y3174D02*
X1734Y3174D01*
X980Y3173D02*
X1034Y3173D01*
X1080Y3173D02*
X1134Y3173D01*
X1179Y3173D02*
X1234Y3173D01*
X1279Y3173D02*
X1334Y3173D01*
X1379Y3173D02*
X1434Y3173D01*
X1479Y3173D02*
X1534Y3173D01*
X1579Y3173D02*
X1634Y3173D01*
X1679Y3173D02*
X1734Y3173D01*
X979Y3172D02*
X1035Y3172D01*
X1079Y3172D02*
X1135Y3172D01*
X1179Y3172D02*
X1235Y3172D01*
X1279Y3172D02*
X1335Y3172D01*
X1379Y3172D02*
X1435Y3172D01*
X1479Y3172D02*
X1535Y3172D01*
X1579Y3172D02*
X1634Y3172D01*
X1679Y3172D02*
X1734Y3172D01*
X979Y3171D02*
X1035Y3171D01*
X1079Y3171D02*
X1135Y3171D01*
X1179Y3171D02*
X1235Y3171D01*
X1279Y3171D02*
X1335Y3171D01*
X1379Y3171D02*
X1435Y3171D01*
X1479Y3171D02*
X1535Y3171D01*
X1579Y3171D02*
X1635Y3171D01*
X1678Y3171D02*
X1735Y3171D01*
X978Y3170D02*
X1035Y3170D01*
X1078Y3170D02*
X1135Y3170D01*
X1178Y3170D02*
X1235Y3170D01*
X1278Y3170D02*
X1335Y3170D01*
X1378Y3170D02*
X1435Y3170D01*
X1478Y3170D02*
X1535Y3170D01*
X1578Y3170D02*
X1635Y3170D01*
X1678Y3170D02*
X1735Y3170D01*
X978Y3169D02*
X1036Y3169D01*
X1078Y3169D02*
X1136Y3169D01*
X1178Y3169D02*
X1236Y3169D01*
X1278Y3169D02*
X1336Y3169D01*
X1378Y3169D02*
X1436Y3169D01*
X1478Y3169D02*
X1536Y3169D01*
X1578Y3169D02*
X1636Y3169D01*
X1678Y3169D02*
X1736Y3169D01*
X978Y3168D02*
X1036Y3168D01*
X1078Y3168D02*
X1136Y3168D01*
X1178Y3168D02*
X1236Y3168D01*
X1278Y3168D02*
X1336Y3168D01*
X1378Y3168D02*
X1436Y3168D01*
X1478Y3168D02*
X1536Y3168D01*
X1577Y3168D02*
X1636Y3168D01*
X1677Y3168D02*
X1736Y3168D01*
X977Y3167D02*
X1036Y3167D01*
X1077Y3167D02*
X1136Y3167D01*
X1177Y3167D02*
X1236Y3167D01*
X1277Y3167D02*
X1336Y3167D01*
X1377Y3167D02*
X1436Y3167D01*
X1477Y3167D02*
X1536Y3167D01*
X1577Y3167D02*
X1636Y3167D01*
X1677Y3167D02*
X1736Y3167D01*
X977Y3166D02*
X1037Y3166D01*
X1077Y3166D02*
X1137Y3166D01*
X1177Y3166D02*
X1237Y3166D01*
X1277Y3166D02*
X1337Y3166D01*
X1377Y3166D02*
X1437Y3166D01*
X1477Y3166D02*
X1536Y3166D01*
X1577Y3166D02*
X1636Y3166D01*
X1677Y3166D02*
X1736Y3166D01*
X977Y3165D02*
X1037Y3165D01*
X1077Y3165D02*
X1137Y3165D01*
X1177Y3165D02*
X1237Y3165D01*
X1277Y3165D02*
X1337Y3165D01*
X1377Y3165D02*
X1437Y3165D01*
X1477Y3165D02*
X1537Y3165D01*
X1577Y3165D02*
X1637Y3165D01*
X1677Y3165D02*
X1737Y3165D01*
X977Y3164D02*
X1037Y3164D01*
X1077Y3164D02*
X1137Y3164D01*
X1177Y3164D02*
X1237Y3164D01*
X1277Y3164D02*
X1337Y3164D01*
X1377Y3164D02*
X1437Y3164D01*
X1477Y3164D02*
X1537Y3164D01*
X1577Y3164D02*
X1637Y3164D01*
X1677Y3164D02*
X1737Y3164D01*
X977Y3163D02*
X1037Y3163D01*
X1077Y3163D02*
X1137Y3163D01*
X1177Y3163D02*
X1237Y3163D01*
X1277Y3163D02*
X1337Y3163D01*
X1376Y3163D02*
X1437Y3163D01*
X1476Y3163D02*
X1537Y3163D01*
X1576Y3163D02*
X1637Y3163D01*
X1676Y3163D02*
X1737Y3163D01*
X976Y3162D02*
X1037Y3162D01*
X1076Y3162D02*
X1137Y3162D01*
X1176Y3162D02*
X1237Y3162D01*
X1276Y3162D02*
X1337Y3162D01*
X1376Y3162D02*
X1437Y3162D01*
X1476Y3162D02*
X1537Y3162D01*
X1576Y3162D02*
X1637Y3162D01*
X1676Y3162D02*
X1737Y3162D01*
X976Y3161D02*
X1037Y3161D01*
X1076Y3161D02*
X1137Y3161D01*
X1176Y3161D02*
X1237Y3161D01*
X1276Y3161D02*
X1337Y3161D01*
X1376Y3161D02*
X1437Y3161D01*
X1476Y3161D02*
X1537Y3161D01*
X1576Y3161D02*
X1637Y3161D01*
X1676Y3161D02*
X1737Y3161D01*
X976Y3160D02*
X1037Y3160D01*
X1076Y3160D02*
X1137Y3160D01*
X1176Y3160D02*
X1237Y3160D01*
X1276Y3160D02*
X1337Y3160D01*
X1376Y3160D02*
X1437Y3160D01*
X1476Y3160D02*
X1537Y3160D01*
X1576Y3160D02*
X1637Y3160D01*
X1676Y3160D02*
X1737Y3160D01*
X976Y3159D02*
X1037Y3159D01*
X1076Y3159D02*
X1137Y3159D01*
X1176Y3159D02*
X1237Y3159D01*
X1276Y3159D02*
X1337Y3159D01*
X1376Y3159D02*
X1437Y3159D01*
X1476Y3159D02*
X1537Y3159D01*
X1576Y3159D02*
X1637Y3159D01*
X1676Y3159D02*
X1737Y3159D01*
X976Y3158D02*
X1037Y3158D01*
X1076Y3158D02*
X1137Y3158D01*
X1176Y3158D02*
X1237Y3158D01*
X1276Y3158D02*
X1337Y3158D01*
X1376Y3158D02*
X1437Y3158D01*
X1476Y3158D02*
X1537Y3158D01*
X1576Y3158D02*
X1637Y3158D01*
X1676Y3158D02*
X1737Y3158D01*
X976Y3157D02*
X1037Y3157D01*
X1076Y3157D02*
X1137Y3157D01*
X1176Y3157D02*
X1237Y3157D01*
X1276Y3157D02*
X1337Y3157D01*
X1376Y3157D02*
X1437Y3157D01*
X1476Y3157D02*
X1537Y3157D01*
X1576Y3157D02*
X1637Y3157D01*
X1676Y3157D02*
X1737Y3157D01*
X976Y3156D02*
X1037Y3156D01*
X1076Y3156D02*
X1137Y3156D01*
X1176Y3156D02*
X1237Y3156D01*
X1276Y3156D02*
X1337Y3156D01*
X1376Y3156D02*
X1437Y3156D01*
X1476Y3156D02*
X1537Y3156D01*
X1576Y3156D02*
X1637Y3156D01*
X1676Y3156D02*
X1737Y3156D01*
X976Y3155D02*
X1037Y3155D01*
X1076Y3155D02*
X1137Y3155D01*
X1176Y3155D02*
X1237Y3155D01*
X1276Y3155D02*
X1337Y3155D01*
X1376Y3155D02*
X1437Y3155D01*
X1476Y3155D02*
X1537Y3155D01*
X1576Y3155D02*
X1637Y3155D01*
X1676Y3155D02*
X1737Y3155D01*
X976Y3154D02*
X1037Y3154D01*
X1076Y3154D02*
X1137Y3154D01*
X1176Y3154D02*
X1237Y3154D01*
X1276Y3154D02*
X1337Y3154D01*
X1376Y3154D02*
X1437Y3154D01*
X1476Y3154D02*
X1537Y3154D01*
X1576Y3154D02*
X1637Y3154D01*
X1676Y3154D02*
X1737Y3154D01*
X976Y3153D02*
X1037Y3153D01*
X1076Y3153D02*
X1137Y3153D01*
X1176Y3153D02*
X1237Y3153D01*
X1276Y3153D02*
X1337Y3153D01*
X1376Y3153D02*
X1437Y3153D01*
X1476Y3153D02*
X1537Y3153D01*
X1576Y3153D02*
X1637Y3153D01*
X1676Y3153D02*
X1737Y3153D01*
X976Y3152D02*
X1037Y3152D01*
X1076Y3152D02*
X1137Y3152D01*
X1176Y3152D02*
X1237Y3152D01*
X1276Y3152D02*
X1337Y3152D01*
X1376Y3152D02*
X1437Y3152D01*
X1476Y3152D02*
X1537Y3152D01*
X1576Y3152D02*
X1637Y3152D01*
X1676Y3152D02*
X1737Y3152D01*
X976Y3151D02*
X1037Y3151D01*
X1076Y3151D02*
X1137Y3151D01*
X1176Y3151D02*
X1237Y3151D01*
X1276Y3151D02*
X1337Y3151D01*
X1376Y3151D02*
X1437Y3151D01*
X1476Y3151D02*
X1537Y3151D01*
X1576Y3151D02*
X1637Y3151D01*
X1676Y3151D02*
X1737Y3151D01*
X976Y3150D02*
X1037Y3150D01*
X1076Y3150D02*
X1137Y3150D01*
X1176Y3150D02*
X1237Y3150D01*
X1276Y3150D02*
X1337Y3150D01*
X1376Y3150D02*
X1437Y3150D01*
X1476Y3150D02*
X1537Y3150D01*
X1576Y3150D02*
X1637Y3150D01*
X1676Y3150D02*
X1737Y3150D01*
X976Y3149D02*
X1037Y3149D01*
X1076Y3149D02*
X1137Y3149D01*
X1176Y3149D02*
X1237Y3149D01*
X1276Y3149D02*
X1337Y3149D01*
X1376Y3149D02*
X1437Y3149D01*
X1476Y3149D02*
X1537Y3149D01*
X1576Y3149D02*
X1637Y3149D01*
X1676Y3149D02*
X1737Y3149D01*
X976Y3148D02*
X1037Y3148D01*
X1076Y3148D02*
X1137Y3148D01*
X1176Y3148D02*
X1237Y3148D01*
X1276Y3148D02*
X1337Y3148D01*
X1376Y3148D02*
X1437Y3148D01*
X1476Y3148D02*
X1537Y3148D01*
X1576Y3148D02*
X1637Y3148D01*
X1676Y3148D02*
X1737Y3148D01*
X976Y3147D02*
X1037Y3147D01*
X1076Y3147D02*
X1137Y3147D01*
X1176Y3147D02*
X1237Y3147D01*
X1276Y3147D02*
X1337Y3147D01*
X1376Y3147D02*
X1437Y3147D01*
X1476Y3147D02*
X1537Y3147D01*
X1576Y3147D02*
X1637Y3147D01*
X1676Y3147D02*
X1737Y3147D01*
X976Y3146D02*
X1037Y3146D01*
X1076Y3146D02*
X1137Y3146D01*
X1176Y3146D02*
X1237Y3146D01*
X1276Y3146D02*
X1337Y3146D01*
X1376Y3146D02*
X1437Y3146D01*
X1476Y3146D02*
X1537Y3146D01*
X1576Y3146D02*
X1637Y3146D01*
X1676Y3146D02*
X1737Y3146D01*
X976Y3145D02*
X1037Y3145D01*
X1076Y3145D02*
X1137Y3145D01*
X1176Y3145D02*
X1237Y3145D01*
X1276Y3145D02*
X1337Y3145D01*
X1376Y3145D02*
X1437Y3145D01*
X1476Y3145D02*
X1537Y3145D01*
X1576Y3145D02*
X1637Y3145D01*
X1676Y3145D02*
X1737Y3145D01*
X976Y3144D02*
X1003Y3144D01*
X1011Y3144D02*
X1037Y3144D01*
X1076Y3144D02*
X1103Y3144D01*
X1111Y3144D02*
X1137Y3144D01*
X1176Y3144D02*
X1203Y3144D01*
X1211Y3144D02*
X1237Y3144D01*
X1276Y3144D02*
X1303Y3144D01*
X1311Y3144D02*
X1337Y3144D01*
X1376Y3144D02*
X1403Y3144D01*
X1411Y3144D02*
X1437Y3144D01*
X1476Y3144D02*
X1503Y3144D01*
X1511Y3144D02*
X1537Y3144D01*
X1576Y3144D02*
X1603Y3144D01*
X1611Y3144D02*
X1637Y3144D01*
X1676Y3144D02*
X1703Y3144D01*
X1711Y3144D02*
X1737Y3144D01*
X976Y3143D02*
X1001Y3143D01*
X1013Y3143D02*
X1037Y3143D01*
X1076Y3143D02*
X1101Y3143D01*
X1113Y3143D02*
X1137Y3143D01*
X1176Y3143D02*
X1201Y3143D01*
X1213Y3143D02*
X1237Y3143D01*
X1276Y3143D02*
X1301Y3143D01*
X1313Y3143D02*
X1337Y3143D01*
X1376Y3143D02*
X1401Y3143D01*
X1413Y3143D02*
X1437Y3143D01*
X1476Y3143D02*
X1500Y3143D01*
X1513Y3143D02*
X1537Y3143D01*
X1576Y3143D02*
X1600Y3143D01*
X1613Y3143D02*
X1637Y3143D01*
X1676Y3143D02*
X1700Y3143D01*
X1713Y3143D02*
X1737Y3143D01*
X976Y3142D02*
X999Y3142D01*
X1014Y3142D02*
X1037Y3142D01*
X1076Y3142D02*
X1099Y3142D01*
X1114Y3142D02*
X1137Y3142D01*
X1176Y3142D02*
X1199Y3142D01*
X1214Y3142D02*
X1237Y3142D01*
X1276Y3142D02*
X1299Y3142D01*
X1314Y3142D02*
X1337Y3142D01*
X1376Y3142D02*
X1399Y3142D01*
X1414Y3142D02*
X1437Y3142D01*
X1476Y3142D02*
X1499Y3142D01*
X1514Y3142D02*
X1537Y3142D01*
X1576Y3142D02*
X1599Y3142D01*
X1614Y3142D02*
X1637Y3142D01*
X1676Y3142D02*
X1699Y3142D01*
X1714Y3142D02*
X1737Y3142D01*
X976Y3141D02*
X998Y3141D01*
X1015Y3141D02*
X1037Y3141D01*
X1076Y3141D02*
X1098Y3141D01*
X1115Y3141D02*
X1137Y3141D01*
X1176Y3141D02*
X1198Y3141D01*
X1215Y3141D02*
X1237Y3141D01*
X1276Y3141D02*
X1298Y3141D01*
X1315Y3141D02*
X1337Y3141D01*
X1376Y3141D02*
X1398Y3141D01*
X1415Y3141D02*
X1437Y3141D01*
X1476Y3141D02*
X1498Y3141D01*
X1515Y3141D02*
X1537Y3141D01*
X1576Y3141D02*
X1598Y3141D01*
X1615Y3141D02*
X1637Y3141D01*
X1676Y3141D02*
X1698Y3141D01*
X1715Y3141D02*
X1737Y3141D01*
X976Y3140D02*
X997Y3140D01*
X1016Y3140D02*
X1037Y3140D01*
X1076Y3140D02*
X1097Y3140D01*
X1116Y3140D02*
X1137Y3140D01*
X1176Y3140D02*
X1197Y3140D01*
X1216Y3140D02*
X1237Y3140D01*
X1276Y3140D02*
X1297Y3140D01*
X1316Y3140D02*
X1337Y3140D01*
X1376Y3140D02*
X1397Y3140D01*
X1416Y3140D02*
X1437Y3140D01*
X1476Y3140D02*
X1497Y3140D01*
X1516Y3140D02*
X1537Y3140D01*
X1576Y3140D02*
X1597Y3140D01*
X1616Y3140D02*
X1637Y3140D01*
X1676Y3140D02*
X1697Y3140D01*
X1716Y3140D02*
X1737Y3140D01*
X976Y3139D02*
X997Y3139D01*
X1017Y3139D02*
X1037Y3139D01*
X1076Y3139D02*
X1097Y3139D01*
X1117Y3139D02*
X1137Y3139D01*
X1176Y3139D02*
X1197Y3139D01*
X1217Y3139D02*
X1237Y3139D01*
X1276Y3139D02*
X1297Y3139D01*
X1317Y3139D02*
X1337Y3139D01*
X1376Y3139D02*
X1397Y3139D01*
X1417Y3139D02*
X1437Y3139D01*
X1476Y3139D02*
X1497Y3139D01*
X1517Y3139D02*
X1537Y3139D01*
X1576Y3139D02*
X1597Y3139D01*
X1617Y3139D02*
X1637Y3139D01*
X1676Y3139D02*
X1697Y3139D01*
X1717Y3139D02*
X1737Y3139D01*
X976Y3138D02*
X996Y3138D01*
X1018Y3138D02*
X1037Y3138D01*
X1076Y3138D02*
X1096Y3138D01*
X1117Y3138D02*
X1137Y3138D01*
X1176Y3138D02*
X1196Y3138D01*
X1217Y3138D02*
X1237Y3138D01*
X1276Y3138D02*
X1296Y3138D01*
X1317Y3138D02*
X1337Y3138D01*
X1376Y3138D02*
X1396Y3138D01*
X1417Y3138D02*
X1437Y3138D01*
X1476Y3138D02*
X1496Y3138D01*
X1517Y3138D02*
X1537Y3138D01*
X1576Y3138D02*
X1596Y3138D01*
X1617Y3138D02*
X1637Y3138D01*
X1676Y3138D02*
X1696Y3138D01*
X1717Y3138D02*
X1737Y3138D01*
X976Y3137D02*
X996Y3137D01*
X1018Y3137D02*
X1037Y3137D01*
X1076Y3137D02*
X1096Y3137D01*
X1118Y3137D02*
X1137Y3137D01*
X1176Y3137D02*
X1196Y3137D01*
X1218Y3137D02*
X1237Y3137D01*
X1276Y3137D02*
X1296Y3137D01*
X1318Y3137D02*
X1337Y3137D01*
X1376Y3137D02*
X1396Y3137D01*
X1418Y3137D02*
X1437Y3137D01*
X1476Y3137D02*
X1496Y3137D01*
X1518Y3137D02*
X1537Y3137D01*
X1576Y3137D02*
X1596Y3137D01*
X1618Y3137D02*
X1637Y3137D01*
X1676Y3137D02*
X1696Y3137D01*
X1718Y3137D02*
X1737Y3137D01*
X976Y3136D02*
X996Y3136D01*
X1018Y3136D02*
X1037Y3136D01*
X1076Y3136D02*
X1096Y3136D01*
X1118Y3136D02*
X1137Y3136D01*
X1176Y3136D02*
X1196Y3136D01*
X1218Y3136D02*
X1237Y3136D01*
X1276Y3136D02*
X1296Y3136D01*
X1318Y3136D02*
X1337Y3136D01*
X1376Y3136D02*
X1396Y3136D01*
X1418Y3136D02*
X1437Y3136D01*
X1476Y3136D02*
X1495Y3136D01*
X1518Y3136D02*
X1537Y3136D01*
X1576Y3136D02*
X1595Y3136D01*
X1618Y3136D02*
X1637Y3136D01*
X1676Y3136D02*
X1695Y3136D01*
X1718Y3136D02*
X1737Y3136D01*
X976Y3135D02*
X995Y3135D01*
X1018Y3135D02*
X1037Y3135D01*
X1076Y3135D02*
X1095Y3135D01*
X1118Y3135D02*
X1137Y3135D01*
X1176Y3135D02*
X1195Y3135D01*
X1218Y3135D02*
X1237Y3135D01*
X1276Y3135D02*
X1295Y3135D01*
X1318Y3135D02*
X1337Y3135D01*
X1376Y3135D02*
X1395Y3135D01*
X1418Y3135D02*
X1437Y3135D01*
X1476Y3135D02*
X1495Y3135D01*
X1518Y3135D02*
X1537Y3135D01*
X1576Y3135D02*
X1595Y3135D01*
X1618Y3135D02*
X1637Y3135D01*
X1676Y3135D02*
X1695Y3135D01*
X1718Y3135D02*
X1737Y3135D01*
X976Y3134D02*
X995Y3134D01*
X1018Y3134D02*
X1037Y3134D01*
X1076Y3134D02*
X1095Y3134D01*
X1118Y3134D02*
X1137Y3134D01*
X1176Y3134D02*
X1195Y3134D01*
X1218Y3134D02*
X1237Y3134D01*
X1276Y3134D02*
X1295Y3134D01*
X1318Y3134D02*
X1337Y3134D01*
X1376Y3134D02*
X1395Y3134D01*
X1418Y3134D02*
X1437Y3134D01*
X1476Y3134D02*
X1495Y3134D01*
X1518Y3134D02*
X1537Y3134D01*
X1576Y3134D02*
X1595Y3134D01*
X1618Y3134D02*
X1637Y3134D01*
X1676Y3134D02*
X1695Y3134D01*
X1718Y3134D02*
X1737Y3134D01*
X976Y3133D02*
X995Y3133D01*
X1018Y3133D02*
X1037Y3133D01*
X1076Y3133D02*
X1095Y3133D01*
X1118Y3133D02*
X1137Y3133D01*
X1176Y3133D02*
X1195Y3133D01*
X1218Y3133D02*
X1237Y3133D01*
X1276Y3133D02*
X1295Y3133D01*
X1318Y3133D02*
X1337Y3133D01*
X1376Y3133D02*
X1395Y3133D01*
X1418Y3133D02*
X1437Y3133D01*
X1476Y3133D02*
X1495Y3133D01*
X1518Y3133D02*
X1537Y3133D01*
X1576Y3133D02*
X1595Y3133D01*
X1618Y3133D02*
X1637Y3133D01*
X1676Y3133D02*
X1695Y3133D01*
X1718Y3133D02*
X1737Y3133D01*
X976Y3132D02*
X995Y3132D01*
X1018Y3132D02*
X1037Y3132D01*
X1076Y3132D02*
X1095Y3132D01*
X1118Y3132D02*
X1137Y3132D01*
X1176Y3132D02*
X1195Y3132D01*
X1218Y3132D02*
X1237Y3132D01*
X1276Y3132D02*
X1295Y3132D01*
X1318Y3132D02*
X1337Y3132D01*
X1376Y3132D02*
X1395Y3132D01*
X1418Y3132D02*
X1437Y3132D01*
X1476Y3132D02*
X1495Y3132D01*
X1518Y3132D02*
X1537Y3132D01*
X1576Y3132D02*
X1595Y3132D01*
X1618Y3132D02*
X1637Y3132D01*
X1676Y3132D02*
X1695Y3132D01*
X1718Y3132D02*
X1737Y3132D01*
X976Y3131D02*
X996Y3131D01*
X1018Y3131D02*
X1037Y3131D01*
X1076Y3131D02*
X1096Y3131D01*
X1118Y3131D02*
X1137Y3131D01*
X1176Y3131D02*
X1196Y3131D01*
X1218Y3131D02*
X1237Y3131D01*
X1276Y3131D02*
X1296Y3131D01*
X1318Y3131D02*
X1337Y3131D01*
X1376Y3131D02*
X1396Y3131D01*
X1418Y3131D02*
X1437Y3131D01*
X1476Y3131D02*
X1496Y3131D01*
X1518Y3131D02*
X1537Y3131D01*
X1576Y3131D02*
X1595Y3131D01*
X1618Y3131D02*
X1637Y3131D01*
X1676Y3131D02*
X1695Y3131D01*
X1718Y3131D02*
X1737Y3131D01*
X976Y3130D02*
X996Y3130D01*
X1018Y3130D02*
X1037Y3130D01*
X1076Y3130D02*
X1096Y3130D01*
X1118Y3130D02*
X1137Y3130D01*
X1176Y3130D02*
X1196Y3130D01*
X1218Y3130D02*
X1237Y3130D01*
X1276Y3130D02*
X1296Y3130D01*
X1318Y3130D02*
X1337Y3130D01*
X1376Y3130D02*
X1396Y3130D01*
X1418Y3130D02*
X1437Y3130D01*
X1476Y3130D02*
X1496Y3130D01*
X1518Y3130D02*
X1537Y3130D01*
X1576Y3130D02*
X1596Y3130D01*
X1618Y3130D02*
X1637Y3130D01*
X1676Y3130D02*
X1696Y3130D01*
X1718Y3130D02*
X1737Y3130D01*
X976Y3129D02*
X996Y3129D01*
X1017Y3129D02*
X1037Y3129D01*
X1076Y3129D02*
X1096Y3129D01*
X1117Y3129D02*
X1137Y3129D01*
X1176Y3129D02*
X1196Y3129D01*
X1217Y3129D02*
X1237Y3129D01*
X1276Y3129D02*
X1296Y3129D01*
X1317Y3129D02*
X1337Y3129D01*
X1376Y3129D02*
X1396Y3129D01*
X1417Y3129D02*
X1437Y3129D01*
X1476Y3129D02*
X1496Y3129D01*
X1517Y3129D02*
X1537Y3129D01*
X1576Y3129D02*
X1596Y3129D01*
X1617Y3129D02*
X1637Y3129D01*
X1676Y3129D02*
X1696Y3129D01*
X1717Y3129D02*
X1737Y3129D01*
X976Y3128D02*
X997Y3128D01*
X1017Y3128D02*
X1037Y3128D01*
X1076Y3128D02*
X1097Y3128D01*
X1117Y3128D02*
X1137Y3128D01*
X1176Y3128D02*
X1197Y3128D01*
X1217Y3128D02*
X1237Y3128D01*
X1276Y3128D02*
X1297Y3128D01*
X1317Y3128D02*
X1337Y3128D01*
X1376Y3128D02*
X1397Y3128D01*
X1417Y3128D02*
X1437Y3128D01*
X1476Y3128D02*
X1497Y3128D01*
X1517Y3128D02*
X1537Y3128D01*
X1576Y3128D02*
X1597Y3128D01*
X1617Y3128D02*
X1637Y3128D01*
X1676Y3128D02*
X1697Y3128D01*
X1717Y3128D02*
X1737Y3128D01*
X976Y3127D02*
X998Y3127D01*
X1016Y3127D02*
X1037Y3127D01*
X1076Y3127D02*
X1098Y3127D01*
X1116Y3127D02*
X1137Y3127D01*
X1176Y3127D02*
X1197Y3127D01*
X1216Y3127D02*
X1237Y3127D01*
X1276Y3127D02*
X1297Y3127D01*
X1316Y3127D02*
X1337Y3127D01*
X1376Y3127D02*
X1397Y3127D01*
X1416Y3127D02*
X1437Y3127D01*
X1476Y3127D02*
X1497Y3127D01*
X1516Y3127D02*
X1537Y3127D01*
X1576Y3127D02*
X1597Y3127D01*
X1616Y3127D02*
X1637Y3127D01*
X1676Y3127D02*
X1697Y3127D01*
X1716Y3127D02*
X1737Y3127D01*
X976Y3126D02*
X998Y3126D01*
X1015Y3126D02*
X1037Y3126D01*
X1076Y3126D02*
X1098Y3126D01*
X1115Y3126D02*
X1137Y3126D01*
X1176Y3126D02*
X1198Y3126D01*
X1215Y3126D02*
X1237Y3126D01*
X1276Y3126D02*
X1298Y3126D01*
X1315Y3126D02*
X1337Y3126D01*
X1376Y3126D02*
X1398Y3126D01*
X1415Y3126D02*
X1437Y3126D01*
X1476Y3126D02*
X1498Y3126D01*
X1515Y3126D02*
X1537Y3126D01*
X1576Y3126D02*
X1598Y3126D01*
X1615Y3126D02*
X1637Y3126D01*
X1676Y3126D02*
X1698Y3126D01*
X1715Y3126D02*
X1737Y3126D01*
X976Y3125D02*
X1000Y3125D01*
X1014Y3125D02*
X1037Y3125D01*
X1076Y3125D02*
X1099Y3125D01*
X1114Y3125D02*
X1137Y3125D01*
X1176Y3125D02*
X1199Y3125D01*
X1214Y3125D02*
X1237Y3125D01*
X1276Y3125D02*
X1299Y3125D01*
X1314Y3125D02*
X1337Y3125D01*
X1376Y3125D02*
X1399Y3125D01*
X1414Y3125D02*
X1437Y3125D01*
X1476Y3125D02*
X1499Y3125D01*
X1514Y3125D02*
X1537Y3125D01*
X1576Y3125D02*
X1599Y3125D01*
X1614Y3125D02*
X1637Y3125D01*
X1676Y3125D02*
X1699Y3125D01*
X1714Y3125D02*
X1737Y3125D01*
X976Y3124D02*
X1001Y3124D01*
X1013Y3124D02*
X1037Y3124D01*
X1076Y3124D02*
X1101Y3124D01*
X1113Y3124D02*
X1137Y3124D01*
X1176Y3124D02*
X1201Y3124D01*
X1213Y3124D02*
X1237Y3124D01*
X1276Y3124D02*
X1301Y3124D01*
X1313Y3124D02*
X1337Y3124D01*
X1376Y3124D02*
X1401Y3124D01*
X1413Y3124D02*
X1437Y3124D01*
X1476Y3124D02*
X1501Y3124D01*
X1513Y3124D02*
X1537Y3124D01*
X1576Y3124D02*
X1601Y3124D01*
X1613Y3124D02*
X1637Y3124D01*
X1676Y3124D02*
X1701Y3124D01*
X1713Y3124D02*
X1737Y3124D01*
X976Y3123D02*
X1003Y3123D01*
X1010Y3123D02*
X1037Y3123D01*
X1076Y3123D02*
X1103Y3123D01*
X1110Y3123D02*
X1137Y3123D01*
X1176Y3123D02*
X1203Y3123D01*
X1210Y3123D02*
X1237Y3123D01*
X1276Y3123D02*
X1303Y3123D01*
X1310Y3123D02*
X1337Y3123D01*
X1376Y3123D02*
X1403Y3123D01*
X1410Y3123D02*
X1437Y3123D01*
X1476Y3123D02*
X1503Y3123D01*
X1510Y3123D02*
X1537Y3123D01*
X1576Y3123D02*
X1603Y3123D01*
X1610Y3123D02*
X1637Y3123D01*
X1676Y3123D02*
X1703Y3123D01*
X1710Y3123D02*
X1737Y3123D01*
X976Y3122D02*
X1037Y3122D01*
X1076Y3122D02*
X1137Y3122D01*
X1176Y3122D02*
X1237Y3122D01*
X1276Y3122D02*
X1337Y3122D01*
X1376Y3122D02*
X1437Y3122D01*
X1476Y3122D02*
X1537Y3122D01*
X1576Y3122D02*
X1637Y3122D01*
X1676Y3122D02*
X1737Y3122D01*
X976Y3121D02*
X1037Y3121D01*
X1076Y3121D02*
X1137Y3121D01*
X1176Y3121D02*
X1237Y3121D01*
X1276Y3121D02*
X1337Y3121D01*
X1376Y3121D02*
X1437Y3121D01*
X1476Y3121D02*
X1537Y3121D01*
X1576Y3121D02*
X1637Y3121D01*
X1676Y3121D02*
X1737Y3121D01*
X976Y3120D02*
X1037Y3120D01*
X1076Y3120D02*
X1137Y3120D01*
X1176Y3120D02*
X1237Y3120D01*
X1276Y3120D02*
X1337Y3120D01*
X1376Y3120D02*
X1437Y3120D01*
X1476Y3120D02*
X1537Y3120D01*
X1576Y3120D02*
X1637Y3120D01*
X1676Y3120D02*
X1737Y3120D01*
X976Y3119D02*
X1037Y3119D01*
X1076Y3119D02*
X1137Y3119D01*
X1176Y3119D02*
X1237Y3119D01*
X1276Y3119D02*
X1337Y3119D01*
X1376Y3119D02*
X1437Y3119D01*
X1476Y3119D02*
X1537Y3119D01*
X1576Y3119D02*
X1637Y3119D01*
X1676Y3119D02*
X1737Y3119D01*
X976Y3118D02*
X1037Y3118D01*
X1076Y3118D02*
X1137Y3118D01*
X1176Y3118D02*
X1237Y3118D01*
X1276Y3118D02*
X1337Y3118D01*
X1376Y3118D02*
X1437Y3118D01*
X1476Y3118D02*
X1537Y3118D01*
X1576Y3118D02*
X1637Y3118D01*
X1676Y3118D02*
X1737Y3118D01*
X976Y3117D02*
X1037Y3117D01*
X1076Y3117D02*
X1137Y3117D01*
X1176Y3117D02*
X1237Y3117D01*
X1276Y3117D02*
X1337Y3117D01*
X1376Y3117D02*
X1437Y3117D01*
X1476Y3117D02*
X1537Y3117D01*
X1576Y3117D02*
X1637Y3117D01*
X1676Y3117D02*
X1737Y3117D01*
X976Y3116D02*
X1037Y3116D01*
X1076Y3116D02*
X1137Y3116D01*
X1176Y3116D02*
X1237Y3116D01*
X1276Y3116D02*
X1337Y3116D01*
X1376Y3116D02*
X1437Y3116D01*
X1476Y3116D02*
X1537Y3116D01*
X1576Y3116D02*
X1637Y3116D01*
X1676Y3116D02*
X1737Y3116D01*
X976Y3115D02*
X1037Y3115D01*
X1076Y3115D02*
X1137Y3115D01*
X1176Y3115D02*
X1237Y3115D01*
X1276Y3115D02*
X1337Y3115D01*
X1376Y3115D02*
X1437Y3115D01*
X1476Y3115D02*
X1537Y3115D01*
X1576Y3115D02*
X1637Y3115D01*
X1676Y3115D02*
X1737Y3115D01*
X976Y3114D02*
X1037Y3114D01*
X1076Y3114D02*
X1137Y3114D01*
X1176Y3114D02*
X1237Y3114D01*
X1276Y3114D02*
X1337Y3114D01*
X1376Y3114D02*
X1437Y3114D01*
X1476Y3114D02*
X1537Y3114D01*
X1576Y3114D02*
X1637Y3114D01*
X1676Y3114D02*
X1737Y3114D01*
X976Y3113D02*
X1037Y3113D01*
X1076Y3113D02*
X1137Y3113D01*
X1176Y3113D02*
X1237Y3113D01*
X1276Y3113D02*
X1337Y3113D01*
X1376Y3113D02*
X1437Y3113D01*
X1476Y3113D02*
X1537Y3113D01*
X1576Y3113D02*
X1637Y3113D01*
X1676Y3113D02*
X1737Y3113D01*
X976Y3112D02*
X1037Y3112D01*
X1076Y3112D02*
X1137Y3112D01*
X1176Y3112D02*
X1237Y3112D01*
X1276Y3112D02*
X1337Y3112D01*
X1376Y3112D02*
X1437Y3112D01*
X1476Y3112D02*
X1537Y3112D01*
X1576Y3112D02*
X1637Y3112D01*
X1676Y3112D02*
X1737Y3112D01*
X976Y3111D02*
X1037Y3111D01*
X1076Y3111D02*
X1137Y3111D01*
X1176Y3111D02*
X1237Y3111D01*
X1276Y3111D02*
X1337Y3111D01*
X1376Y3111D02*
X1437Y3111D01*
X1476Y3111D02*
X1537Y3111D01*
X1576Y3111D02*
X1637Y3111D01*
X1676Y3111D02*
X1737Y3111D01*
X976Y3110D02*
X1037Y3110D01*
X1076Y3110D02*
X1137Y3110D01*
X1176Y3110D02*
X1237Y3110D01*
X1276Y3110D02*
X1337Y3110D01*
X1376Y3110D02*
X1437Y3110D01*
X1476Y3110D02*
X1537Y3110D01*
X1576Y3110D02*
X1637Y3110D01*
X1676Y3110D02*
X1737Y3110D01*
X976Y3109D02*
X1037Y3109D01*
X1076Y3109D02*
X1137Y3109D01*
X1176Y3109D02*
X1237Y3109D01*
X1276Y3109D02*
X1337Y3109D01*
X1376Y3109D02*
X1437Y3109D01*
X1476Y3109D02*
X1537Y3109D01*
X1576Y3109D02*
X1637Y3109D01*
X1676Y3109D02*
X1737Y3109D01*
X976Y3108D02*
X1037Y3108D01*
X1076Y3108D02*
X1137Y3108D01*
X1176Y3108D02*
X1237Y3108D01*
X1276Y3108D02*
X1337Y3108D01*
X1376Y3108D02*
X1437Y3108D01*
X1476Y3108D02*
X1537Y3108D01*
X1576Y3108D02*
X1637Y3108D01*
X1676Y3108D02*
X1737Y3108D01*
X976Y3107D02*
X1037Y3107D01*
X1076Y3107D02*
X1137Y3107D01*
X1176Y3107D02*
X1237Y3107D01*
X1276Y3107D02*
X1337Y3107D01*
X1376Y3107D02*
X1437Y3107D01*
X1476Y3107D02*
X1537Y3107D01*
X1576Y3107D02*
X1637Y3107D01*
X1676Y3107D02*
X1737Y3107D01*
X976Y3106D02*
X1037Y3106D01*
X1076Y3106D02*
X1137Y3106D01*
X1176Y3106D02*
X1237Y3106D01*
X1276Y3106D02*
X1337Y3106D01*
X1376Y3106D02*
X1437Y3106D01*
X1476Y3106D02*
X1537Y3106D01*
X1576Y3106D02*
X1637Y3106D01*
X1676Y3106D02*
X1737Y3106D01*
X976Y3105D02*
X1037Y3105D01*
X1076Y3105D02*
X1137Y3105D01*
X1176Y3105D02*
X1237Y3105D01*
X1276Y3105D02*
X1337Y3105D01*
X1376Y3105D02*
X1437Y3105D01*
X1476Y3105D02*
X1537Y3105D01*
X1576Y3105D02*
X1637Y3105D01*
X1676Y3105D02*
X1737Y3105D01*
X977Y3104D02*
X1037Y3104D01*
X1077Y3104D02*
X1137Y3104D01*
X1177Y3104D02*
X1237Y3104D01*
X1277Y3104D02*
X1337Y3104D01*
X1377Y3104D02*
X1437Y3104D01*
X1476Y3104D02*
X1537Y3104D01*
X1576Y3104D02*
X1637Y3104D01*
X1676Y3104D02*
X1737Y3104D01*
X977Y3103D02*
X1037Y3103D01*
X1077Y3103D02*
X1137Y3103D01*
X1177Y3103D02*
X1237Y3103D01*
X1277Y3103D02*
X1337Y3103D01*
X1377Y3103D02*
X1437Y3103D01*
X1477Y3103D02*
X1537Y3103D01*
X1577Y3103D02*
X1637Y3103D01*
X1677Y3103D02*
X1737Y3103D01*
X977Y3102D02*
X1037Y3102D01*
X1077Y3102D02*
X1137Y3102D01*
X1177Y3102D02*
X1237Y3102D01*
X1277Y3102D02*
X1337Y3102D01*
X1377Y3102D02*
X1437Y3102D01*
X1477Y3102D02*
X1537Y3102D01*
X1577Y3102D02*
X1637Y3102D01*
X1677Y3102D02*
X1737Y3102D01*
X977Y3101D02*
X1037Y3101D01*
X1077Y3101D02*
X1137Y3101D01*
X1177Y3101D02*
X1237Y3101D01*
X1277Y3101D02*
X1336Y3101D01*
X1377Y3101D02*
X1436Y3101D01*
X1477Y3101D02*
X1536Y3101D01*
X1577Y3101D02*
X1636Y3101D01*
X1677Y3101D02*
X1736Y3101D01*
X977Y3100D02*
X1036Y3100D01*
X1077Y3100D02*
X1136Y3100D01*
X1177Y3100D02*
X1236Y3100D01*
X1277Y3100D02*
X1336Y3100D01*
X1377Y3100D02*
X1436Y3100D01*
X1477Y3100D02*
X1536Y3100D01*
X1577Y3100D02*
X1636Y3100D01*
X1677Y3100D02*
X1736Y3100D01*
X978Y3099D02*
X1036Y3099D01*
X1078Y3099D02*
X1136Y3099D01*
X1178Y3099D02*
X1236Y3099D01*
X1278Y3099D02*
X1336Y3099D01*
X1378Y3099D02*
X1436Y3099D01*
X1478Y3099D02*
X1536Y3099D01*
X1578Y3099D02*
X1636Y3099D01*
X1678Y3099D02*
X1736Y3099D01*
X978Y3098D02*
X1036Y3098D01*
X1078Y3098D02*
X1136Y3098D01*
X1178Y3098D02*
X1236Y3098D01*
X1278Y3098D02*
X1336Y3098D01*
X1378Y3098D02*
X1436Y3098D01*
X1478Y3098D02*
X1536Y3098D01*
X1578Y3098D02*
X1636Y3098D01*
X1678Y3098D02*
X1736Y3098D01*
X978Y3097D02*
X1035Y3097D01*
X1078Y3097D02*
X1135Y3097D01*
X1178Y3097D02*
X1235Y3097D01*
X1278Y3097D02*
X1335Y3097D01*
X1378Y3097D02*
X1435Y3097D01*
X1478Y3097D02*
X1535Y3097D01*
X1578Y3097D02*
X1635Y3097D01*
X1678Y3097D02*
X1735Y3097D01*
X979Y3096D02*
X1035Y3096D01*
X1079Y3096D02*
X1135Y3096D01*
X1179Y3096D02*
X1235Y3096D01*
X1279Y3096D02*
X1335Y3096D01*
X1379Y3096D02*
X1435Y3096D01*
X1479Y3096D02*
X1535Y3096D01*
X1579Y3096D02*
X1635Y3096D01*
X1679Y3096D02*
X1735Y3096D01*
X979Y3095D02*
X1035Y3095D01*
X1079Y3095D02*
X1135Y3095D01*
X1179Y3095D02*
X1235Y3095D01*
X1279Y3095D02*
X1334Y3095D01*
X1379Y3095D02*
X1434Y3095D01*
X1479Y3095D02*
X1534Y3095D01*
X1579Y3095D02*
X1634Y3095D01*
X1679Y3095D02*
X1734Y3095D01*
X980Y3094D02*
X1034Y3094D01*
X1080Y3094D02*
X1134Y3094D01*
X1180Y3094D02*
X1234Y3094D01*
X1280Y3094D02*
X1334Y3094D01*
X1380Y3094D02*
X1434Y3094D01*
X1480Y3094D02*
X1534Y3094D01*
X1579Y3094D02*
X1634Y3094D01*
X1679Y3094D02*
X1734Y3094D01*
X980Y3093D02*
X1034Y3093D01*
X1080Y3093D02*
X1134Y3093D01*
X1180Y3093D02*
X1234Y3093D01*
X1280Y3093D02*
X1334Y3093D01*
X1380Y3093D02*
X1434Y3093D01*
X1480Y3093D02*
X1533Y3093D01*
X1580Y3093D02*
X1633Y3093D01*
X1680Y3093D02*
X1733Y3093D01*
X981Y3092D02*
X1033Y3092D01*
X1081Y3092D02*
X1133Y3092D01*
X1181Y3092D02*
X1233Y3092D01*
X1281Y3092D02*
X1333Y3092D01*
X1381Y3092D02*
X1433Y3092D01*
X1481Y3092D02*
X1533Y3092D01*
X1581Y3092D02*
X1633Y3092D01*
X1681Y3092D02*
X1733Y3092D01*
X981Y3091D02*
X1032Y3091D01*
X1081Y3091D02*
X1132Y3091D01*
X1181Y3091D02*
X1232Y3091D01*
X1281Y3091D02*
X1332Y3091D01*
X1381Y3091D02*
X1432Y3091D01*
X1481Y3091D02*
X1532Y3091D01*
X1581Y3091D02*
X1632Y3091D01*
X1681Y3091D02*
X1732Y3091D01*
X982Y3090D02*
X1032Y3090D01*
X1082Y3090D02*
X1132Y3090D01*
X1182Y3090D02*
X1232Y3090D01*
X1282Y3090D02*
X1332Y3090D01*
X1382Y3090D02*
X1432Y3090D01*
X1482Y3090D02*
X1532Y3090D01*
X1582Y3090D02*
X1632Y3090D01*
X1682Y3090D02*
X1732Y3090D01*
X983Y3089D02*
X1031Y3089D01*
X1083Y3089D02*
X1131Y3089D01*
X1183Y3089D02*
X1231Y3089D01*
X1283Y3089D02*
X1331Y3089D01*
X1383Y3089D02*
X1431Y3089D01*
X1483Y3089D02*
X1531Y3089D01*
X1582Y3089D02*
X1631Y3089D01*
X1682Y3089D02*
X1731Y3089D01*
X983Y3088D02*
X1030Y3088D01*
X1083Y3088D02*
X1130Y3088D01*
X1183Y3088D02*
X1230Y3088D01*
X1283Y3088D02*
X1330Y3088D01*
X1383Y3088D02*
X1430Y3088D01*
X1483Y3088D02*
X1530Y3088D01*
X1583Y3088D02*
X1630Y3088D01*
X1683Y3088D02*
X1730Y3088D01*
X984Y3087D02*
X1029Y3087D01*
X1084Y3087D02*
X1129Y3087D01*
X1184Y3087D02*
X1229Y3087D01*
X1284Y3087D02*
X1329Y3087D01*
X1384Y3087D02*
X1429Y3087D01*
X1484Y3087D02*
X1529Y3087D01*
X1584Y3087D02*
X1629Y3087D01*
X1684Y3087D02*
X1729Y3087D01*
X985Y3086D02*
X1029Y3086D01*
X1085Y3086D02*
X1129Y3086D01*
X1185Y3086D02*
X1229Y3086D01*
X1285Y3086D02*
X1329Y3086D01*
X1385Y3086D02*
X1428Y3086D01*
X1485Y3086D02*
X1528Y3086D01*
X1585Y3086D02*
X1628Y3086D01*
X1685Y3086D02*
X1728Y3086D01*
X986Y3085D02*
X1028Y3085D01*
X1086Y3085D02*
X1128Y3085D01*
X1186Y3085D02*
X1227Y3085D01*
X1286Y3085D02*
X1327Y3085D01*
X1386Y3085D02*
X1427Y3085D01*
X1486Y3085D02*
X1527Y3085D01*
X1586Y3085D02*
X1627Y3085D01*
X1686Y3085D02*
X1727Y3085D01*
X987Y3084D02*
X1026Y3084D01*
X1087Y3084D02*
X1126Y3084D01*
X1187Y3084D02*
X1226Y3084D01*
X1287Y3084D02*
X1326Y3084D01*
X1387Y3084D02*
X1426Y3084D01*
X1487Y3084D02*
X1526Y3084D01*
X1587Y3084D02*
X1626Y3084D01*
X1687Y3084D02*
X1726Y3084D01*
X989Y3083D02*
X1025Y3083D01*
X1089Y3083D02*
X1125Y3083D01*
X1189Y3083D02*
X1225Y3083D01*
X1289Y3083D02*
X1325Y3083D01*
X1388Y3083D02*
X1425Y3083D01*
X1488Y3083D02*
X1525Y3083D01*
X1588Y3083D02*
X1625Y3083D01*
X1688Y3083D02*
X1725Y3083D01*
X990Y3082D02*
X1024Y3082D01*
X1090Y3082D02*
X1124Y3082D01*
X1190Y3082D02*
X1224Y3082D01*
X1290Y3082D02*
X1324Y3082D01*
X1390Y3082D02*
X1424Y3082D01*
X1490Y3082D02*
X1524Y3082D01*
X1590Y3082D02*
X1624Y3082D01*
X1690Y3082D02*
X1724Y3082D01*
X992Y3081D02*
X1022Y3081D01*
X1092Y3081D02*
X1122Y3081D01*
X1192Y3081D02*
X1222Y3081D01*
X1292Y3081D02*
X1322Y3081D01*
X1392Y3081D02*
X1422Y3081D01*
X1491Y3081D02*
X1522Y3081D01*
X1591Y3081D02*
X1622Y3081D01*
X1691Y3081D02*
X1722Y3081D01*
X993Y3080D02*
X1020Y3080D01*
X1093Y3080D02*
X1120Y3080D01*
X1193Y3080D02*
X1220Y3080D01*
X1293Y3080D02*
X1320Y3080D01*
X1393Y3080D02*
X1420Y3080D01*
X1493Y3080D02*
X1520Y3080D01*
X1593Y3080D02*
X1620Y3080D01*
X1693Y3080D02*
X1720Y3080D01*
X996Y3079D02*
X1018Y3079D01*
X1096Y3079D02*
X1118Y3079D01*
X1196Y3079D02*
X1218Y3079D01*
X1296Y3079D02*
X1318Y3079D01*
X1396Y3079D02*
X1418Y3079D01*
X1495Y3079D02*
X1518Y3079D01*
X1595Y3079D02*
X1618Y3079D01*
X1695Y3079D02*
X1718Y3079D01*
X998Y3078D02*
X1015Y3078D01*
X1098Y3078D02*
X1115Y3078D01*
X1198Y3078D02*
X1215Y3078D01*
X1298Y3078D02*
X1315Y3078D01*
X1398Y3078D02*
X1415Y3078D01*
X1498Y3078D02*
X1515Y3078D01*
X1598Y3078D02*
X1615Y3078D01*
X1698Y3078D02*
X1715Y3078D01*
X1003Y3077D02*
X1011Y3077D01*
X1103Y3077D02*
X1111Y3077D01*
X1203Y3077D02*
X1211Y3077D01*
X1303Y3077D02*
X1311Y3077D01*
X1403Y3077D02*
X1411Y3077D01*
X1503Y3077D02*
X1511Y3077D01*
X1603Y3077D02*
X1611Y3077D01*
X1703Y3077D02*
X1711Y3077D01*
X1002Y2890D02*
X1012Y2890D01*
X1102Y2890D02*
X1112Y2890D01*
X1202Y2890D02*
X1212Y2890D01*
X1302Y2890D02*
X1312Y2890D01*
X1402Y2890D02*
X1412Y2890D01*
X1502Y2890D02*
X1512Y2890D01*
X1602Y2890D02*
X1612Y2890D01*
X1701Y2890D02*
X1712Y2890D01*
X998Y2889D02*
X1016Y2889D01*
X1098Y2889D02*
X1116Y2889D01*
X1198Y2889D02*
X1216Y2889D01*
X1298Y2889D02*
X1316Y2889D01*
X1398Y2889D02*
X1416Y2889D01*
X1498Y2889D02*
X1516Y2889D01*
X1598Y2889D02*
X1616Y2889D01*
X1698Y2889D02*
X1716Y2889D01*
X995Y2888D02*
X1018Y2888D01*
X1095Y2888D02*
X1118Y2888D01*
X1195Y2888D02*
X1218Y2888D01*
X1295Y2888D02*
X1318Y2888D01*
X1395Y2888D02*
X1418Y2888D01*
X1495Y2888D02*
X1518Y2888D01*
X1595Y2888D02*
X1618Y2888D01*
X1695Y2888D02*
X1718Y2888D01*
X993Y2887D02*
X1021Y2887D01*
X1093Y2887D02*
X1121Y2887D01*
X1193Y2887D02*
X1221Y2887D01*
X1293Y2887D02*
X1321Y2887D01*
X1393Y2887D02*
X1421Y2887D01*
X1493Y2887D02*
X1520Y2887D01*
X1593Y2887D02*
X1620Y2887D01*
X1693Y2887D02*
X1720Y2887D01*
X991Y2886D02*
X1022Y2886D01*
X1091Y2886D02*
X1122Y2886D01*
X1191Y2886D02*
X1222Y2886D01*
X1291Y2886D02*
X1322Y2886D01*
X1391Y2886D02*
X1422Y2886D01*
X1491Y2886D02*
X1522Y2886D01*
X1591Y2886D02*
X1622Y2886D01*
X1691Y2886D02*
X1722Y2886D01*
X990Y2885D02*
X1024Y2885D01*
X1090Y2885D02*
X1124Y2885D01*
X1190Y2885D02*
X1224Y2885D01*
X1290Y2885D02*
X1324Y2885D01*
X1390Y2885D02*
X1424Y2885D01*
X1490Y2885D02*
X1524Y2885D01*
X1590Y2885D02*
X1624Y2885D01*
X1690Y2885D02*
X1724Y2885D01*
X988Y2884D02*
X1025Y2884D01*
X1088Y2884D02*
X1125Y2884D01*
X1188Y2884D02*
X1225Y2884D01*
X1288Y2884D02*
X1325Y2884D01*
X1388Y2884D02*
X1425Y2884D01*
X1488Y2884D02*
X1525Y2884D01*
X1588Y2884D02*
X1625Y2884D01*
X1688Y2884D02*
X1725Y2884D01*
X987Y2883D02*
X1027Y2883D01*
X1087Y2883D02*
X1127Y2883D01*
X1187Y2883D02*
X1227Y2883D01*
X1287Y2883D02*
X1327Y2883D01*
X1387Y2883D02*
X1427Y2883D01*
X1487Y2883D02*
X1526Y2883D01*
X1587Y2883D02*
X1626Y2883D01*
X1687Y2883D02*
X1726Y2883D01*
X986Y2882D02*
X1028Y2882D01*
X1086Y2882D02*
X1128Y2882D01*
X1186Y2882D02*
X1228Y2882D01*
X1286Y2882D02*
X1328Y2882D01*
X1386Y2882D02*
X1428Y2882D01*
X1486Y2882D02*
X1528Y2882D01*
X1586Y2882D02*
X1628Y2882D01*
X1686Y2882D02*
X1728Y2882D01*
X985Y2881D02*
X1029Y2881D01*
X1085Y2881D02*
X1129Y2881D01*
X1185Y2881D02*
X1229Y2881D01*
X1285Y2881D02*
X1329Y2881D01*
X1385Y2881D02*
X1429Y2881D01*
X1485Y2881D02*
X1529Y2881D01*
X1585Y2881D02*
X1629Y2881D01*
X1685Y2881D02*
X1729Y2881D01*
X984Y2880D02*
X1030Y2880D01*
X1084Y2880D02*
X1130Y2880D01*
X1184Y2880D02*
X1230Y2880D01*
X1284Y2880D02*
X1330Y2880D01*
X1384Y2880D02*
X1430Y2880D01*
X1484Y2880D02*
X1529Y2880D01*
X1584Y2880D02*
X1629Y2880D01*
X1684Y2880D02*
X1729Y2880D01*
X983Y2879D02*
X1030Y2879D01*
X1083Y2879D02*
X1130Y2879D01*
X1183Y2879D02*
X1230Y2879D01*
X1283Y2879D02*
X1330Y2879D01*
X1383Y2879D02*
X1430Y2879D01*
X1483Y2879D02*
X1530Y2879D01*
X1583Y2879D02*
X1630Y2879D01*
X1683Y2879D02*
X1730Y2879D01*
X983Y2878D02*
X1031Y2878D01*
X1082Y2878D02*
X1131Y2878D01*
X1182Y2878D02*
X1231Y2878D01*
X1282Y2878D02*
X1331Y2878D01*
X1382Y2878D02*
X1431Y2878D01*
X1482Y2878D02*
X1531Y2878D01*
X1582Y2878D02*
X1631Y2878D01*
X1682Y2878D02*
X1731Y2878D01*
X982Y2877D02*
X1032Y2877D01*
X1082Y2877D02*
X1132Y2877D01*
X1182Y2877D02*
X1232Y2877D01*
X1282Y2877D02*
X1332Y2877D01*
X1382Y2877D02*
X1432Y2877D01*
X1482Y2877D02*
X1532Y2877D01*
X1582Y2877D02*
X1632Y2877D01*
X1682Y2877D02*
X1732Y2877D01*
X981Y2876D02*
X1033Y2876D01*
X1081Y2876D02*
X1133Y2876D01*
X1181Y2876D02*
X1232Y2876D01*
X1281Y2876D02*
X1332Y2876D01*
X1381Y2876D02*
X1432Y2876D01*
X1481Y2876D02*
X1532Y2876D01*
X1581Y2876D02*
X1632Y2876D01*
X1681Y2876D02*
X1732Y2876D01*
X981Y2875D02*
X1033Y2875D01*
X1081Y2875D02*
X1133Y2875D01*
X1181Y2875D02*
X1233Y2875D01*
X1281Y2875D02*
X1333Y2875D01*
X1380Y2875D02*
X1433Y2875D01*
X1480Y2875D02*
X1533Y2875D01*
X1580Y2875D02*
X1633Y2875D01*
X1680Y2875D02*
X1733Y2875D01*
X980Y2874D02*
X1034Y2874D01*
X1080Y2874D02*
X1134Y2874D01*
X1180Y2874D02*
X1234Y2874D01*
X1280Y2874D02*
X1334Y2874D01*
X1380Y2874D02*
X1434Y2874D01*
X1480Y2874D02*
X1534Y2874D01*
X1580Y2874D02*
X1634Y2874D01*
X1680Y2874D02*
X1734Y2874D01*
X980Y2873D02*
X1034Y2873D01*
X1080Y2873D02*
X1134Y2873D01*
X1179Y2873D02*
X1234Y2873D01*
X1279Y2873D02*
X1334Y2873D01*
X1379Y2873D02*
X1434Y2873D01*
X1479Y2873D02*
X1534Y2873D01*
X1579Y2873D02*
X1634Y2873D01*
X1679Y2873D02*
X1734Y2873D01*
X979Y2872D02*
X1035Y2872D01*
X1079Y2872D02*
X1135Y2872D01*
X1179Y2872D02*
X1235Y2872D01*
X1279Y2872D02*
X1335Y2872D01*
X1379Y2872D02*
X1435Y2872D01*
X1479Y2872D02*
X1535Y2872D01*
X1579Y2872D02*
X1634Y2872D01*
X1679Y2872D02*
X1734Y2872D01*
X979Y2871D02*
X1035Y2871D01*
X1079Y2871D02*
X1135Y2871D01*
X1179Y2871D02*
X1235Y2871D01*
X1279Y2871D02*
X1335Y2871D01*
X1379Y2871D02*
X1435Y2871D01*
X1479Y2871D02*
X1535Y2871D01*
X1579Y2871D02*
X1635Y2871D01*
X1678Y2871D02*
X1735Y2871D01*
X978Y2870D02*
X1035Y2870D01*
X1078Y2870D02*
X1135Y2870D01*
X1178Y2870D02*
X1235Y2870D01*
X1278Y2870D02*
X1335Y2870D01*
X1378Y2870D02*
X1435Y2870D01*
X1478Y2870D02*
X1535Y2870D01*
X1578Y2870D02*
X1635Y2870D01*
X1678Y2870D02*
X1735Y2870D01*
X978Y2869D02*
X1036Y2869D01*
X1078Y2869D02*
X1136Y2869D01*
X1178Y2869D02*
X1236Y2869D01*
X1278Y2869D02*
X1336Y2869D01*
X1378Y2869D02*
X1436Y2869D01*
X1478Y2869D02*
X1536Y2869D01*
X1578Y2869D02*
X1636Y2869D01*
X1678Y2869D02*
X1736Y2869D01*
X978Y2868D02*
X1036Y2868D01*
X1078Y2868D02*
X1136Y2868D01*
X1178Y2868D02*
X1236Y2868D01*
X1278Y2868D02*
X1336Y2868D01*
X1378Y2868D02*
X1436Y2868D01*
X1478Y2868D02*
X1536Y2868D01*
X1577Y2868D02*
X1636Y2868D01*
X1677Y2868D02*
X1736Y2868D01*
X977Y2867D02*
X1036Y2867D01*
X1077Y2867D02*
X1136Y2867D01*
X1177Y2867D02*
X1236Y2867D01*
X1277Y2867D02*
X1336Y2867D01*
X1377Y2867D02*
X1436Y2867D01*
X1477Y2867D02*
X1536Y2867D01*
X1577Y2867D02*
X1636Y2867D01*
X1677Y2867D02*
X1736Y2867D01*
X977Y2866D02*
X1037Y2866D01*
X1077Y2866D02*
X1137Y2866D01*
X1177Y2866D02*
X1237Y2866D01*
X1277Y2866D02*
X1337Y2866D01*
X1377Y2866D02*
X1437Y2866D01*
X1477Y2866D02*
X1536Y2866D01*
X1577Y2866D02*
X1636Y2866D01*
X1677Y2866D02*
X1736Y2866D01*
X977Y2865D02*
X1037Y2865D01*
X1077Y2865D02*
X1137Y2865D01*
X1177Y2865D02*
X1237Y2865D01*
X1277Y2865D02*
X1337Y2865D01*
X1377Y2865D02*
X1437Y2865D01*
X1477Y2865D02*
X1537Y2865D01*
X1577Y2865D02*
X1637Y2865D01*
X1677Y2865D02*
X1737Y2865D01*
X977Y2864D02*
X1037Y2864D01*
X1077Y2864D02*
X1137Y2864D01*
X1177Y2864D02*
X1237Y2864D01*
X1277Y2864D02*
X1337Y2864D01*
X1377Y2864D02*
X1437Y2864D01*
X1477Y2864D02*
X1537Y2864D01*
X1577Y2864D02*
X1637Y2864D01*
X1677Y2864D02*
X1737Y2864D01*
X977Y2863D02*
X1037Y2863D01*
X1077Y2863D02*
X1137Y2863D01*
X1177Y2863D02*
X1237Y2863D01*
X1277Y2863D02*
X1337Y2863D01*
X1376Y2863D02*
X1437Y2863D01*
X1476Y2863D02*
X1537Y2863D01*
X1576Y2863D02*
X1637Y2863D01*
X1676Y2863D02*
X1737Y2863D01*
X976Y2862D02*
X1037Y2862D01*
X1076Y2862D02*
X1137Y2862D01*
X1176Y2862D02*
X1237Y2862D01*
X1276Y2862D02*
X1337Y2862D01*
X1376Y2862D02*
X1437Y2862D01*
X1476Y2862D02*
X1537Y2862D01*
X1576Y2862D02*
X1637Y2862D01*
X1676Y2862D02*
X1737Y2862D01*
X976Y2861D02*
X1037Y2861D01*
X1076Y2861D02*
X1137Y2861D01*
X1176Y2861D02*
X1237Y2861D01*
X1276Y2861D02*
X1337Y2861D01*
X1376Y2861D02*
X1437Y2861D01*
X1476Y2861D02*
X1537Y2861D01*
X1576Y2861D02*
X1637Y2861D01*
X1676Y2861D02*
X1737Y2861D01*
X976Y2860D02*
X1037Y2860D01*
X1076Y2860D02*
X1137Y2860D01*
X1176Y2860D02*
X1237Y2860D01*
X1276Y2860D02*
X1337Y2860D01*
X1376Y2860D02*
X1437Y2860D01*
X1476Y2860D02*
X1537Y2860D01*
X1576Y2860D02*
X1637Y2860D01*
X1676Y2860D02*
X1737Y2860D01*
X976Y2859D02*
X1037Y2859D01*
X1076Y2859D02*
X1137Y2859D01*
X1176Y2859D02*
X1237Y2859D01*
X1276Y2859D02*
X1337Y2859D01*
X1376Y2859D02*
X1437Y2859D01*
X1476Y2859D02*
X1537Y2859D01*
X1576Y2859D02*
X1637Y2859D01*
X1676Y2859D02*
X1737Y2859D01*
X976Y2858D02*
X1037Y2858D01*
X1076Y2858D02*
X1137Y2858D01*
X1176Y2858D02*
X1237Y2858D01*
X1276Y2858D02*
X1337Y2858D01*
X1376Y2858D02*
X1437Y2858D01*
X1476Y2858D02*
X1537Y2858D01*
X1576Y2858D02*
X1637Y2858D01*
X1676Y2858D02*
X1737Y2858D01*
X976Y2857D02*
X1037Y2857D01*
X1076Y2857D02*
X1137Y2857D01*
X1176Y2857D02*
X1237Y2857D01*
X1276Y2857D02*
X1337Y2857D01*
X1376Y2857D02*
X1437Y2857D01*
X1476Y2857D02*
X1537Y2857D01*
X1576Y2857D02*
X1637Y2857D01*
X1676Y2857D02*
X1737Y2857D01*
X976Y2856D02*
X1037Y2856D01*
X1076Y2856D02*
X1137Y2856D01*
X1176Y2856D02*
X1237Y2856D01*
X1276Y2856D02*
X1337Y2856D01*
X1376Y2856D02*
X1437Y2856D01*
X1476Y2856D02*
X1537Y2856D01*
X1576Y2856D02*
X1637Y2856D01*
X1676Y2856D02*
X1737Y2856D01*
X976Y2855D02*
X1037Y2855D01*
X1076Y2855D02*
X1137Y2855D01*
X1176Y2855D02*
X1237Y2855D01*
X1276Y2855D02*
X1337Y2855D01*
X1376Y2855D02*
X1437Y2855D01*
X1476Y2855D02*
X1537Y2855D01*
X1576Y2855D02*
X1637Y2855D01*
X1676Y2855D02*
X1737Y2855D01*
X976Y2854D02*
X1037Y2854D01*
X1076Y2854D02*
X1137Y2854D01*
X1176Y2854D02*
X1237Y2854D01*
X1276Y2854D02*
X1337Y2854D01*
X1376Y2854D02*
X1437Y2854D01*
X1476Y2854D02*
X1537Y2854D01*
X1576Y2854D02*
X1637Y2854D01*
X1676Y2854D02*
X1737Y2854D01*
X976Y2853D02*
X1037Y2853D01*
X1076Y2853D02*
X1137Y2853D01*
X1176Y2853D02*
X1237Y2853D01*
X1276Y2853D02*
X1337Y2853D01*
X1376Y2853D02*
X1437Y2853D01*
X1476Y2853D02*
X1537Y2853D01*
X1576Y2853D02*
X1637Y2853D01*
X1676Y2853D02*
X1737Y2853D01*
X976Y2852D02*
X1037Y2852D01*
X1076Y2852D02*
X1137Y2852D01*
X1176Y2852D02*
X1237Y2852D01*
X1276Y2852D02*
X1337Y2852D01*
X1376Y2852D02*
X1437Y2852D01*
X1476Y2852D02*
X1537Y2852D01*
X1576Y2852D02*
X1637Y2852D01*
X1676Y2852D02*
X1737Y2852D01*
X976Y2851D02*
X1037Y2851D01*
X1076Y2851D02*
X1137Y2851D01*
X1176Y2851D02*
X1237Y2851D01*
X1276Y2851D02*
X1337Y2851D01*
X1376Y2851D02*
X1437Y2851D01*
X1476Y2851D02*
X1537Y2851D01*
X1576Y2851D02*
X1637Y2851D01*
X1676Y2851D02*
X1737Y2851D01*
X976Y2850D02*
X1037Y2850D01*
X1076Y2850D02*
X1137Y2850D01*
X1176Y2850D02*
X1237Y2850D01*
X1276Y2850D02*
X1337Y2850D01*
X1376Y2850D02*
X1437Y2850D01*
X1476Y2850D02*
X1537Y2850D01*
X1576Y2850D02*
X1637Y2850D01*
X1676Y2850D02*
X1737Y2850D01*
X976Y2849D02*
X1037Y2849D01*
X1076Y2849D02*
X1137Y2849D01*
X1176Y2849D02*
X1237Y2849D01*
X1276Y2849D02*
X1337Y2849D01*
X1376Y2849D02*
X1437Y2849D01*
X1476Y2849D02*
X1537Y2849D01*
X1576Y2849D02*
X1637Y2849D01*
X1676Y2849D02*
X1737Y2849D01*
X976Y2848D02*
X1037Y2848D01*
X1076Y2848D02*
X1137Y2848D01*
X1176Y2848D02*
X1237Y2848D01*
X1276Y2848D02*
X1337Y2848D01*
X1376Y2848D02*
X1437Y2848D01*
X1476Y2848D02*
X1537Y2848D01*
X1576Y2848D02*
X1637Y2848D01*
X1676Y2848D02*
X1737Y2848D01*
X976Y2847D02*
X1037Y2847D01*
X1076Y2847D02*
X1137Y2847D01*
X1176Y2847D02*
X1237Y2847D01*
X1276Y2847D02*
X1337Y2847D01*
X1376Y2847D02*
X1437Y2847D01*
X1476Y2847D02*
X1537Y2847D01*
X1576Y2847D02*
X1637Y2847D01*
X1676Y2847D02*
X1737Y2847D01*
X976Y2846D02*
X1037Y2846D01*
X1076Y2846D02*
X1137Y2846D01*
X1176Y2846D02*
X1237Y2846D01*
X1276Y2846D02*
X1337Y2846D01*
X1376Y2846D02*
X1437Y2846D01*
X1476Y2846D02*
X1537Y2846D01*
X1576Y2846D02*
X1637Y2846D01*
X1676Y2846D02*
X1737Y2846D01*
X976Y2845D02*
X1037Y2845D01*
X1076Y2845D02*
X1137Y2845D01*
X1176Y2845D02*
X1237Y2845D01*
X1276Y2845D02*
X1337Y2845D01*
X1376Y2845D02*
X1437Y2845D01*
X1476Y2845D02*
X1537Y2845D01*
X1576Y2845D02*
X1637Y2845D01*
X1676Y2845D02*
X1737Y2845D01*
X976Y2844D02*
X1003Y2844D01*
X1011Y2844D02*
X1037Y2844D01*
X1076Y2844D02*
X1103Y2844D01*
X1111Y2844D02*
X1137Y2844D01*
X1176Y2844D02*
X1203Y2844D01*
X1211Y2844D02*
X1237Y2844D01*
X1276Y2844D02*
X1303Y2844D01*
X1311Y2844D02*
X1337Y2844D01*
X1376Y2844D02*
X1403Y2844D01*
X1411Y2844D02*
X1437Y2844D01*
X1476Y2844D02*
X1503Y2844D01*
X1511Y2844D02*
X1537Y2844D01*
X1576Y2844D02*
X1603Y2844D01*
X1611Y2844D02*
X1637Y2844D01*
X1676Y2844D02*
X1703Y2844D01*
X1711Y2844D02*
X1737Y2844D01*
X976Y2843D02*
X1001Y2843D01*
X1013Y2843D02*
X1037Y2843D01*
X1076Y2843D02*
X1101Y2843D01*
X1113Y2843D02*
X1137Y2843D01*
X1176Y2843D02*
X1201Y2843D01*
X1213Y2843D02*
X1237Y2843D01*
X1276Y2843D02*
X1301Y2843D01*
X1313Y2843D02*
X1337Y2843D01*
X1376Y2843D02*
X1401Y2843D01*
X1413Y2843D02*
X1437Y2843D01*
X1476Y2843D02*
X1500Y2843D01*
X1513Y2843D02*
X1537Y2843D01*
X1576Y2843D02*
X1600Y2843D01*
X1613Y2843D02*
X1637Y2843D01*
X1676Y2843D02*
X1700Y2843D01*
X1713Y2843D02*
X1737Y2843D01*
X976Y2842D02*
X999Y2842D01*
X1014Y2842D02*
X1037Y2842D01*
X1076Y2842D02*
X1099Y2842D01*
X1114Y2842D02*
X1137Y2842D01*
X1176Y2842D02*
X1199Y2842D01*
X1214Y2842D02*
X1237Y2842D01*
X1276Y2842D02*
X1299Y2842D01*
X1314Y2842D02*
X1337Y2842D01*
X1376Y2842D02*
X1399Y2842D01*
X1414Y2842D02*
X1437Y2842D01*
X1476Y2842D02*
X1499Y2842D01*
X1514Y2842D02*
X1537Y2842D01*
X1576Y2842D02*
X1599Y2842D01*
X1614Y2842D02*
X1637Y2842D01*
X1676Y2842D02*
X1699Y2842D01*
X1714Y2842D02*
X1737Y2842D01*
X976Y2841D02*
X998Y2841D01*
X1015Y2841D02*
X1037Y2841D01*
X1076Y2841D02*
X1098Y2841D01*
X1115Y2841D02*
X1137Y2841D01*
X1176Y2841D02*
X1198Y2841D01*
X1215Y2841D02*
X1237Y2841D01*
X1276Y2841D02*
X1298Y2841D01*
X1315Y2841D02*
X1337Y2841D01*
X1376Y2841D02*
X1398Y2841D01*
X1415Y2841D02*
X1437Y2841D01*
X1476Y2841D02*
X1498Y2841D01*
X1515Y2841D02*
X1537Y2841D01*
X1576Y2841D02*
X1598Y2841D01*
X1615Y2841D02*
X1637Y2841D01*
X1676Y2841D02*
X1698Y2841D01*
X1715Y2841D02*
X1737Y2841D01*
X976Y2840D02*
X997Y2840D01*
X1016Y2840D02*
X1037Y2840D01*
X1076Y2840D02*
X1097Y2840D01*
X1116Y2840D02*
X1137Y2840D01*
X1176Y2840D02*
X1197Y2840D01*
X1216Y2840D02*
X1237Y2840D01*
X1276Y2840D02*
X1297Y2840D01*
X1316Y2840D02*
X1337Y2840D01*
X1376Y2840D02*
X1397Y2840D01*
X1416Y2840D02*
X1437Y2840D01*
X1476Y2840D02*
X1497Y2840D01*
X1516Y2840D02*
X1537Y2840D01*
X1576Y2840D02*
X1597Y2840D01*
X1616Y2840D02*
X1637Y2840D01*
X1676Y2840D02*
X1697Y2840D01*
X1716Y2840D02*
X1737Y2840D01*
X976Y2839D02*
X997Y2839D01*
X1017Y2839D02*
X1037Y2839D01*
X1076Y2839D02*
X1097Y2839D01*
X1117Y2839D02*
X1137Y2839D01*
X1176Y2839D02*
X1197Y2839D01*
X1217Y2839D02*
X1237Y2839D01*
X1276Y2839D02*
X1297Y2839D01*
X1317Y2839D02*
X1337Y2839D01*
X1376Y2839D02*
X1397Y2839D01*
X1417Y2839D02*
X1437Y2839D01*
X1476Y2839D02*
X1497Y2839D01*
X1517Y2839D02*
X1537Y2839D01*
X1576Y2839D02*
X1597Y2839D01*
X1617Y2839D02*
X1637Y2839D01*
X1676Y2839D02*
X1697Y2839D01*
X1717Y2839D02*
X1737Y2839D01*
X976Y2838D02*
X996Y2838D01*
X1018Y2838D02*
X1037Y2838D01*
X1076Y2838D02*
X1096Y2838D01*
X1117Y2838D02*
X1137Y2838D01*
X1176Y2838D02*
X1196Y2838D01*
X1217Y2838D02*
X1237Y2838D01*
X1276Y2838D02*
X1296Y2838D01*
X1317Y2838D02*
X1337Y2838D01*
X1376Y2838D02*
X1396Y2838D01*
X1417Y2838D02*
X1437Y2838D01*
X1476Y2838D02*
X1496Y2838D01*
X1517Y2838D02*
X1537Y2838D01*
X1576Y2838D02*
X1596Y2838D01*
X1617Y2838D02*
X1637Y2838D01*
X1676Y2838D02*
X1696Y2838D01*
X1717Y2838D02*
X1737Y2838D01*
X976Y2837D02*
X996Y2837D01*
X1018Y2837D02*
X1037Y2837D01*
X1076Y2837D02*
X1096Y2837D01*
X1118Y2837D02*
X1137Y2837D01*
X1176Y2837D02*
X1196Y2837D01*
X1218Y2837D02*
X1237Y2837D01*
X1276Y2837D02*
X1296Y2837D01*
X1318Y2837D02*
X1337Y2837D01*
X1376Y2837D02*
X1396Y2837D01*
X1418Y2837D02*
X1437Y2837D01*
X1476Y2837D02*
X1496Y2837D01*
X1518Y2837D02*
X1537Y2837D01*
X1576Y2837D02*
X1596Y2837D01*
X1618Y2837D02*
X1637Y2837D01*
X1676Y2837D02*
X1696Y2837D01*
X1718Y2837D02*
X1737Y2837D01*
X976Y2836D02*
X996Y2836D01*
X1018Y2836D02*
X1037Y2836D01*
X1076Y2836D02*
X1096Y2836D01*
X1118Y2836D02*
X1137Y2836D01*
X1176Y2836D02*
X1196Y2836D01*
X1218Y2836D02*
X1237Y2836D01*
X1276Y2836D02*
X1296Y2836D01*
X1318Y2836D02*
X1337Y2836D01*
X1376Y2836D02*
X1396Y2836D01*
X1418Y2836D02*
X1437Y2836D01*
X1476Y2836D02*
X1495Y2836D01*
X1518Y2836D02*
X1537Y2836D01*
X1576Y2836D02*
X1595Y2836D01*
X1618Y2836D02*
X1637Y2836D01*
X1676Y2836D02*
X1695Y2836D01*
X1718Y2836D02*
X1737Y2836D01*
X976Y2835D02*
X995Y2835D01*
X1018Y2835D02*
X1037Y2835D01*
X1076Y2835D02*
X1095Y2835D01*
X1118Y2835D02*
X1137Y2835D01*
X1176Y2835D02*
X1195Y2835D01*
X1218Y2835D02*
X1237Y2835D01*
X1276Y2835D02*
X1295Y2835D01*
X1318Y2835D02*
X1337Y2835D01*
X1376Y2835D02*
X1395Y2835D01*
X1418Y2835D02*
X1437Y2835D01*
X1476Y2835D02*
X1495Y2835D01*
X1518Y2835D02*
X1537Y2835D01*
X1576Y2835D02*
X1595Y2835D01*
X1618Y2835D02*
X1637Y2835D01*
X1676Y2835D02*
X1695Y2835D01*
X1718Y2835D02*
X1737Y2835D01*
X976Y2834D02*
X995Y2834D01*
X1018Y2834D02*
X1037Y2834D01*
X1076Y2834D02*
X1095Y2834D01*
X1118Y2834D02*
X1137Y2834D01*
X1176Y2834D02*
X1195Y2834D01*
X1218Y2834D02*
X1237Y2834D01*
X1276Y2834D02*
X1295Y2834D01*
X1318Y2834D02*
X1337Y2834D01*
X1376Y2834D02*
X1395Y2834D01*
X1418Y2834D02*
X1437Y2834D01*
X1476Y2834D02*
X1495Y2834D01*
X1518Y2834D02*
X1537Y2834D01*
X1576Y2834D02*
X1595Y2834D01*
X1618Y2834D02*
X1637Y2834D01*
X1676Y2834D02*
X1695Y2834D01*
X1718Y2834D02*
X1737Y2834D01*
X976Y2833D02*
X995Y2833D01*
X1018Y2833D02*
X1037Y2833D01*
X1076Y2833D02*
X1095Y2833D01*
X1118Y2833D02*
X1137Y2833D01*
X1176Y2833D02*
X1195Y2833D01*
X1218Y2833D02*
X1237Y2833D01*
X1276Y2833D02*
X1295Y2833D01*
X1318Y2833D02*
X1337Y2833D01*
X1376Y2833D02*
X1395Y2833D01*
X1418Y2833D02*
X1437Y2833D01*
X1476Y2833D02*
X1495Y2833D01*
X1518Y2833D02*
X1537Y2833D01*
X1576Y2833D02*
X1595Y2833D01*
X1618Y2833D02*
X1637Y2833D01*
X1676Y2833D02*
X1695Y2833D01*
X1718Y2833D02*
X1737Y2833D01*
X976Y2832D02*
X995Y2832D01*
X1018Y2832D02*
X1037Y2832D01*
X1076Y2832D02*
X1095Y2832D01*
X1118Y2832D02*
X1137Y2832D01*
X1176Y2832D02*
X1195Y2832D01*
X1218Y2832D02*
X1237Y2832D01*
X1276Y2832D02*
X1295Y2832D01*
X1318Y2832D02*
X1337Y2832D01*
X1376Y2832D02*
X1395Y2832D01*
X1418Y2832D02*
X1437Y2832D01*
X1476Y2832D02*
X1495Y2832D01*
X1518Y2832D02*
X1537Y2832D01*
X1576Y2832D02*
X1595Y2832D01*
X1618Y2832D02*
X1637Y2832D01*
X1676Y2832D02*
X1695Y2832D01*
X1718Y2832D02*
X1737Y2832D01*
X976Y2831D02*
X996Y2831D01*
X1018Y2831D02*
X1037Y2831D01*
X1076Y2831D02*
X1096Y2831D01*
X1118Y2831D02*
X1137Y2831D01*
X1176Y2831D02*
X1196Y2831D01*
X1218Y2831D02*
X1237Y2831D01*
X1276Y2831D02*
X1296Y2831D01*
X1318Y2831D02*
X1337Y2831D01*
X1376Y2831D02*
X1396Y2831D01*
X1418Y2831D02*
X1437Y2831D01*
X1476Y2831D02*
X1496Y2831D01*
X1518Y2831D02*
X1537Y2831D01*
X1576Y2831D02*
X1595Y2831D01*
X1618Y2831D02*
X1637Y2831D01*
X1676Y2831D02*
X1695Y2831D01*
X1718Y2831D02*
X1737Y2831D01*
X976Y2830D02*
X996Y2830D01*
X1018Y2830D02*
X1037Y2830D01*
X1076Y2830D02*
X1096Y2830D01*
X1118Y2830D02*
X1137Y2830D01*
X1176Y2830D02*
X1196Y2830D01*
X1218Y2830D02*
X1237Y2830D01*
X1276Y2830D02*
X1296Y2830D01*
X1318Y2830D02*
X1337Y2830D01*
X1376Y2830D02*
X1396Y2830D01*
X1418Y2830D02*
X1437Y2830D01*
X1476Y2830D02*
X1496Y2830D01*
X1518Y2830D02*
X1537Y2830D01*
X1576Y2830D02*
X1596Y2830D01*
X1618Y2830D02*
X1637Y2830D01*
X1676Y2830D02*
X1696Y2830D01*
X1718Y2830D02*
X1737Y2830D01*
X976Y2829D02*
X996Y2829D01*
X1017Y2829D02*
X1037Y2829D01*
X1076Y2829D02*
X1096Y2829D01*
X1117Y2829D02*
X1137Y2829D01*
X1176Y2829D02*
X1196Y2829D01*
X1217Y2829D02*
X1237Y2829D01*
X1276Y2829D02*
X1296Y2829D01*
X1317Y2829D02*
X1337Y2829D01*
X1376Y2829D02*
X1396Y2829D01*
X1417Y2829D02*
X1437Y2829D01*
X1476Y2829D02*
X1496Y2829D01*
X1517Y2829D02*
X1537Y2829D01*
X1576Y2829D02*
X1596Y2829D01*
X1617Y2829D02*
X1637Y2829D01*
X1676Y2829D02*
X1696Y2829D01*
X1717Y2829D02*
X1737Y2829D01*
X976Y2828D02*
X997Y2828D01*
X1017Y2828D02*
X1037Y2828D01*
X1076Y2828D02*
X1097Y2828D01*
X1117Y2828D02*
X1137Y2828D01*
X1176Y2828D02*
X1197Y2828D01*
X1217Y2828D02*
X1237Y2828D01*
X1276Y2828D02*
X1297Y2828D01*
X1317Y2828D02*
X1337Y2828D01*
X1376Y2828D02*
X1397Y2828D01*
X1417Y2828D02*
X1437Y2828D01*
X1476Y2828D02*
X1497Y2828D01*
X1517Y2828D02*
X1537Y2828D01*
X1576Y2828D02*
X1597Y2828D01*
X1617Y2828D02*
X1637Y2828D01*
X1676Y2828D02*
X1697Y2828D01*
X1717Y2828D02*
X1737Y2828D01*
X976Y2827D02*
X998Y2827D01*
X1016Y2827D02*
X1037Y2827D01*
X1076Y2827D02*
X1098Y2827D01*
X1116Y2827D02*
X1137Y2827D01*
X1176Y2827D02*
X1198Y2827D01*
X1216Y2827D02*
X1237Y2827D01*
X1276Y2827D02*
X1297Y2827D01*
X1316Y2827D02*
X1337Y2827D01*
X1376Y2827D02*
X1397Y2827D01*
X1416Y2827D02*
X1437Y2827D01*
X1476Y2827D02*
X1497Y2827D01*
X1516Y2827D02*
X1537Y2827D01*
X1576Y2827D02*
X1597Y2827D01*
X1616Y2827D02*
X1637Y2827D01*
X1676Y2827D02*
X1697Y2827D01*
X1716Y2827D02*
X1737Y2827D01*
X976Y2826D02*
X998Y2826D01*
X1015Y2826D02*
X1037Y2826D01*
X1076Y2826D02*
X1098Y2826D01*
X1115Y2826D02*
X1137Y2826D01*
X1176Y2826D02*
X1198Y2826D01*
X1215Y2826D02*
X1237Y2826D01*
X1276Y2826D02*
X1298Y2826D01*
X1315Y2826D02*
X1337Y2826D01*
X1376Y2826D02*
X1398Y2826D01*
X1415Y2826D02*
X1437Y2826D01*
X1476Y2826D02*
X1498Y2826D01*
X1515Y2826D02*
X1537Y2826D01*
X1576Y2826D02*
X1598Y2826D01*
X1615Y2826D02*
X1637Y2826D01*
X1676Y2826D02*
X1698Y2826D01*
X1715Y2826D02*
X1737Y2826D01*
X976Y2825D02*
X1000Y2825D01*
X1014Y2825D02*
X1037Y2825D01*
X1076Y2825D02*
X1100Y2825D01*
X1114Y2825D02*
X1137Y2825D01*
X1176Y2825D02*
X1199Y2825D01*
X1214Y2825D02*
X1237Y2825D01*
X1276Y2825D02*
X1299Y2825D01*
X1314Y2825D02*
X1337Y2825D01*
X1376Y2825D02*
X1399Y2825D01*
X1414Y2825D02*
X1437Y2825D01*
X1476Y2825D02*
X1499Y2825D01*
X1514Y2825D02*
X1537Y2825D01*
X1576Y2825D02*
X1599Y2825D01*
X1614Y2825D02*
X1637Y2825D01*
X1676Y2825D02*
X1699Y2825D01*
X1714Y2825D02*
X1737Y2825D01*
X976Y2824D02*
X1001Y2824D01*
X1013Y2824D02*
X1037Y2824D01*
X1076Y2824D02*
X1101Y2824D01*
X1113Y2824D02*
X1137Y2824D01*
X1176Y2824D02*
X1201Y2824D01*
X1213Y2824D02*
X1237Y2824D01*
X1276Y2824D02*
X1301Y2824D01*
X1313Y2824D02*
X1337Y2824D01*
X1376Y2824D02*
X1401Y2824D01*
X1413Y2824D02*
X1437Y2824D01*
X1476Y2824D02*
X1501Y2824D01*
X1513Y2824D02*
X1537Y2824D01*
X1576Y2824D02*
X1601Y2824D01*
X1613Y2824D02*
X1637Y2824D01*
X1676Y2824D02*
X1701Y2824D01*
X1713Y2824D02*
X1737Y2824D01*
X976Y2823D02*
X1003Y2823D01*
X1010Y2823D02*
X1037Y2823D01*
X1076Y2823D02*
X1103Y2823D01*
X1110Y2823D02*
X1137Y2823D01*
X1176Y2823D02*
X1203Y2823D01*
X1210Y2823D02*
X1237Y2823D01*
X1276Y2823D02*
X1303Y2823D01*
X1310Y2823D02*
X1337Y2823D01*
X1376Y2823D02*
X1403Y2823D01*
X1410Y2823D02*
X1437Y2823D01*
X1476Y2823D02*
X1503Y2823D01*
X1510Y2823D02*
X1537Y2823D01*
X1576Y2823D02*
X1603Y2823D01*
X1610Y2823D02*
X1637Y2823D01*
X1676Y2823D02*
X1703Y2823D01*
X1710Y2823D02*
X1737Y2823D01*
X976Y2822D02*
X1037Y2822D01*
X1076Y2822D02*
X1137Y2822D01*
X1176Y2822D02*
X1237Y2822D01*
X1276Y2822D02*
X1337Y2822D01*
X1376Y2822D02*
X1437Y2822D01*
X1476Y2822D02*
X1537Y2822D01*
X1576Y2822D02*
X1637Y2822D01*
X1676Y2822D02*
X1737Y2822D01*
X976Y2821D02*
X1037Y2821D01*
X1076Y2821D02*
X1137Y2821D01*
X1176Y2821D02*
X1237Y2821D01*
X1276Y2821D02*
X1337Y2821D01*
X1376Y2821D02*
X1437Y2821D01*
X1476Y2821D02*
X1537Y2821D01*
X1576Y2821D02*
X1637Y2821D01*
X1676Y2821D02*
X1737Y2821D01*
X976Y2820D02*
X1037Y2820D01*
X1076Y2820D02*
X1137Y2820D01*
X1176Y2820D02*
X1237Y2820D01*
X1276Y2820D02*
X1337Y2820D01*
X1376Y2820D02*
X1437Y2820D01*
X1476Y2820D02*
X1537Y2820D01*
X1576Y2820D02*
X1637Y2820D01*
X1676Y2820D02*
X1737Y2820D01*
X976Y2819D02*
X1037Y2819D01*
X1076Y2819D02*
X1137Y2819D01*
X1176Y2819D02*
X1237Y2819D01*
X1276Y2819D02*
X1337Y2819D01*
X1376Y2819D02*
X1437Y2819D01*
X1476Y2819D02*
X1537Y2819D01*
X1576Y2819D02*
X1637Y2819D01*
X1676Y2819D02*
X1737Y2819D01*
X976Y2818D02*
X1037Y2818D01*
X1076Y2818D02*
X1137Y2818D01*
X1176Y2818D02*
X1237Y2818D01*
X1276Y2818D02*
X1337Y2818D01*
X1376Y2818D02*
X1437Y2818D01*
X1476Y2818D02*
X1537Y2818D01*
X1576Y2818D02*
X1637Y2818D01*
X1676Y2818D02*
X1737Y2818D01*
X976Y2817D02*
X1037Y2817D01*
X1076Y2817D02*
X1137Y2817D01*
X1176Y2817D02*
X1237Y2817D01*
X1276Y2817D02*
X1337Y2817D01*
X1376Y2817D02*
X1437Y2817D01*
X1476Y2817D02*
X1537Y2817D01*
X1576Y2817D02*
X1637Y2817D01*
X1676Y2817D02*
X1737Y2817D01*
X976Y2816D02*
X1037Y2816D01*
X1076Y2816D02*
X1137Y2816D01*
X1176Y2816D02*
X1237Y2816D01*
X1276Y2816D02*
X1337Y2816D01*
X1376Y2816D02*
X1437Y2816D01*
X1476Y2816D02*
X1537Y2816D01*
X1576Y2816D02*
X1637Y2816D01*
X1676Y2816D02*
X1737Y2816D01*
X976Y2815D02*
X1037Y2815D01*
X1076Y2815D02*
X1137Y2815D01*
X1176Y2815D02*
X1237Y2815D01*
X1276Y2815D02*
X1337Y2815D01*
X1376Y2815D02*
X1437Y2815D01*
X1476Y2815D02*
X1537Y2815D01*
X1576Y2815D02*
X1637Y2815D01*
X1676Y2815D02*
X1737Y2815D01*
X976Y2814D02*
X1037Y2814D01*
X1076Y2814D02*
X1137Y2814D01*
X1176Y2814D02*
X1237Y2814D01*
X1276Y2814D02*
X1337Y2814D01*
X1376Y2814D02*
X1437Y2814D01*
X1476Y2814D02*
X1537Y2814D01*
X1576Y2814D02*
X1637Y2814D01*
X1676Y2814D02*
X1737Y2814D01*
X976Y2813D02*
X1037Y2813D01*
X1076Y2813D02*
X1137Y2813D01*
X1176Y2813D02*
X1237Y2813D01*
X1276Y2813D02*
X1337Y2813D01*
X1376Y2813D02*
X1437Y2813D01*
X1476Y2813D02*
X1537Y2813D01*
X1576Y2813D02*
X1637Y2813D01*
X1676Y2813D02*
X1737Y2813D01*
X976Y2812D02*
X1037Y2812D01*
X1076Y2812D02*
X1137Y2812D01*
X1176Y2812D02*
X1237Y2812D01*
X1276Y2812D02*
X1337Y2812D01*
X1376Y2812D02*
X1437Y2812D01*
X1476Y2812D02*
X1537Y2812D01*
X1576Y2812D02*
X1637Y2812D01*
X1676Y2812D02*
X1737Y2812D01*
X976Y2811D02*
X1037Y2811D01*
X1076Y2811D02*
X1137Y2811D01*
X1176Y2811D02*
X1237Y2811D01*
X1276Y2811D02*
X1337Y2811D01*
X1376Y2811D02*
X1437Y2811D01*
X1476Y2811D02*
X1537Y2811D01*
X1576Y2811D02*
X1637Y2811D01*
X1676Y2811D02*
X1737Y2811D01*
X976Y2810D02*
X1037Y2810D01*
X1076Y2810D02*
X1137Y2810D01*
X1176Y2810D02*
X1237Y2810D01*
X1276Y2810D02*
X1337Y2810D01*
X1376Y2810D02*
X1437Y2810D01*
X1476Y2810D02*
X1537Y2810D01*
X1576Y2810D02*
X1637Y2810D01*
X1676Y2810D02*
X1737Y2810D01*
X976Y2809D02*
X1037Y2809D01*
X1076Y2809D02*
X1137Y2809D01*
X1176Y2809D02*
X1237Y2809D01*
X1276Y2809D02*
X1337Y2809D01*
X1376Y2809D02*
X1437Y2809D01*
X1476Y2809D02*
X1537Y2809D01*
X1576Y2809D02*
X1637Y2809D01*
X1676Y2809D02*
X1737Y2809D01*
X976Y2808D02*
X1037Y2808D01*
X1076Y2808D02*
X1137Y2808D01*
X1176Y2808D02*
X1237Y2808D01*
X1276Y2808D02*
X1337Y2808D01*
X1376Y2808D02*
X1437Y2808D01*
X1476Y2808D02*
X1537Y2808D01*
X1576Y2808D02*
X1637Y2808D01*
X1676Y2808D02*
X1737Y2808D01*
X976Y2807D02*
X1037Y2807D01*
X1076Y2807D02*
X1137Y2807D01*
X1176Y2807D02*
X1237Y2807D01*
X1276Y2807D02*
X1337Y2807D01*
X1376Y2807D02*
X1437Y2807D01*
X1476Y2807D02*
X1537Y2807D01*
X1576Y2807D02*
X1637Y2807D01*
X1676Y2807D02*
X1737Y2807D01*
X976Y2806D02*
X1037Y2806D01*
X1076Y2806D02*
X1137Y2806D01*
X1176Y2806D02*
X1237Y2806D01*
X1276Y2806D02*
X1337Y2806D01*
X1376Y2806D02*
X1437Y2806D01*
X1476Y2806D02*
X1537Y2806D01*
X1576Y2806D02*
X1637Y2806D01*
X1676Y2806D02*
X1737Y2806D01*
X976Y2805D02*
X1037Y2805D01*
X1076Y2805D02*
X1137Y2805D01*
X1176Y2805D02*
X1237Y2805D01*
X1276Y2805D02*
X1337Y2805D01*
X1376Y2805D02*
X1437Y2805D01*
X1476Y2805D02*
X1537Y2805D01*
X1576Y2805D02*
X1637Y2805D01*
X1676Y2805D02*
X1737Y2805D01*
X977Y2804D02*
X1037Y2804D01*
X1077Y2804D02*
X1137Y2804D01*
X1177Y2804D02*
X1237Y2804D01*
X1277Y2804D02*
X1337Y2804D01*
X1377Y2804D02*
X1437Y2804D01*
X1476Y2804D02*
X1537Y2804D01*
X1576Y2804D02*
X1637Y2804D01*
X1676Y2804D02*
X1737Y2804D01*
X977Y2803D02*
X1037Y2803D01*
X1077Y2803D02*
X1137Y2803D01*
X1177Y2803D02*
X1237Y2803D01*
X1277Y2803D02*
X1337Y2803D01*
X1377Y2803D02*
X1437Y2803D01*
X1477Y2803D02*
X1537Y2803D01*
X1577Y2803D02*
X1637Y2803D01*
X1677Y2803D02*
X1737Y2803D01*
X977Y2802D02*
X1037Y2802D01*
X1077Y2802D02*
X1137Y2802D01*
X1177Y2802D02*
X1237Y2802D01*
X1277Y2802D02*
X1337Y2802D01*
X1377Y2802D02*
X1437Y2802D01*
X1477Y2802D02*
X1537Y2802D01*
X1577Y2802D02*
X1637Y2802D01*
X1677Y2802D02*
X1737Y2802D01*
X977Y2801D02*
X1037Y2801D01*
X1077Y2801D02*
X1137Y2801D01*
X1177Y2801D02*
X1237Y2801D01*
X1277Y2801D02*
X1336Y2801D01*
X1377Y2801D02*
X1436Y2801D01*
X1477Y2801D02*
X1536Y2801D01*
X1577Y2801D02*
X1636Y2801D01*
X1677Y2801D02*
X1736Y2801D01*
X977Y2800D02*
X1036Y2800D01*
X1077Y2800D02*
X1136Y2800D01*
X1177Y2800D02*
X1236Y2800D01*
X1277Y2800D02*
X1336Y2800D01*
X1377Y2800D02*
X1436Y2800D01*
X1477Y2800D02*
X1536Y2800D01*
X1577Y2800D02*
X1636Y2800D01*
X1677Y2800D02*
X1736Y2800D01*
X978Y2799D02*
X1036Y2799D01*
X1078Y2799D02*
X1136Y2799D01*
X1178Y2799D02*
X1236Y2799D01*
X1278Y2799D02*
X1336Y2799D01*
X1378Y2799D02*
X1436Y2799D01*
X1478Y2799D02*
X1536Y2799D01*
X1578Y2799D02*
X1636Y2799D01*
X1678Y2799D02*
X1736Y2799D01*
X978Y2798D02*
X1036Y2798D01*
X1078Y2798D02*
X1136Y2798D01*
X1178Y2798D02*
X1236Y2798D01*
X1278Y2798D02*
X1336Y2798D01*
X1378Y2798D02*
X1436Y2798D01*
X1478Y2798D02*
X1536Y2798D01*
X1578Y2798D02*
X1636Y2798D01*
X1678Y2798D02*
X1736Y2798D01*
X978Y2797D02*
X1035Y2797D01*
X1078Y2797D02*
X1135Y2797D01*
X1178Y2797D02*
X1235Y2797D01*
X1278Y2797D02*
X1335Y2797D01*
X1378Y2797D02*
X1435Y2797D01*
X1478Y2797D02*
X1535Y2797D01*
X1578Y2797D02*
X1635Y2797D01*
X1678Y2797D02*
X1735Y2797D01*
X979Y2796D02*
X1035Y2796D01*
X1079Y2796D02*
X1135Y2796D01*
X1179Y2796D02*
X1235Y2796D01*
X1279Y2796D02*
X1335Y2796D01*
X1379Y2796D02*
X1435Y2796D01*
X1479Y2796D02*
X1535Y2796D01*
X1579Y2796D02*
X1635Y2796D01*
X1679Y2796D02*
X1735Y2796D01*
X979Y2795D02*
X1035Y2795D01*
X1079Y2795D02*
X1135Y2795D01*
X1179Y2795D02*
X1235Y2795D01*
X1279Y2795D02*
X1334Y2795D01*
X1379Y2795D02*
X1434Y2795D01*
X1479Y2795D02*
X1534Y2795D01*
X1579Y2795D02*
X1634Y2795D01*
X1679Y2795D02*
X1734Y2795D01*
X980Y2794D02*
X1034Y2794D01*
X1080Y2794D02*
X1134Y2794D01*
X1180Y2794D02*
X1234Y2794D01*
X1280Y2794D02*
X1334Y2794D01*
X1380Y2794D02*
X1434Y2794D01*
X1480Y2794D02*
X1534Y2794D01*
X1579Y2794D02*
X1634Y2794D01*
X1679Y2794D02*
X1734Y2794D01*
X980Y2793D02*
X1034Y2793D01*
X1080Y2793D02*
X1134Y2793D01*
X1180Y2793D02*
X1234Y2793D01*
X1280Y2793D02*
X1334Y2793D01*
X1380Y2793D02*
X1434Y2793D01*
X1480Y2793D02*
X1533Y2793D01*
X1580Y2793D02*
X1633Y2793D01*
X1680Y2793D02*
X1733Y2793D01*
X981Y2792D02*
X1033Y2792D01*
X1081Y2792D02*
X1133Y2792D01*
X1181Y2792D02*
X1233Y2792D01*
X1281Y2792D02*
X1333Y2792D01*
X1381Y2792D02*
X1433Y2792D01*
X1481Y2792D02*
X1533Y2792D01*
X1581Y2792D02*
X1633Y2792D01*
X1681Y2792D02*
X1733Y2792D01*
X981Y2791D02*
X1032Y2791D01*
X1081Y2791D02*
X1132Y2791D01*
X1181Y2791D02*
X1232Y2791D01*
X1281Y2791D02*
X1332Y2791D01*
X1381Y2791D02*
X1432Y2791D01*
X1481Y2791D02*
X1532Y2791D01*
X1581Y2791D02*
X1632Y2791D01*
X1681Y2791D02*
X1732Y2791D01*
X982Y2790D02*
X1032Y2790D01*
X1082Y2790D02*
X1132Y2790D01*
X1182Y2790D02*
X1232Y2790D01*
X1282Y2790D02*
X1332Y2790D01*
X1382Y2790D02*
X1432Y2790D01*
X1482Y2790D02*
X1532Y2790D01*
X1582Y2790D02*
X1632Y2790D01*
X1682Y2790D02*
X1732Y2790D01*
X983Y2789D02*
X1031Y2789D01*
X1083Y2789D02*
X1131Y2789D01*
X1183Y2789D02*
X1231Y2789D01*
X1283Y2789D02*
X1331Y2789D01*
X1383Y2789D02*
X1431Y2789D01*
X1483Y2789D02*
X1531Y2789D01*
X1582Y2789D02*
X1631Y2789D01*
X1682Y2789D02*
X1731Y2789D01*
X983Y2788D02*
X1030Y2788D01*
X1083Y2788D02*
X1130Y2788D01*
X1183Y2788D02*
X1230Y2788D01*
X1283Y2788D02*
X1330Y2788D01*
X1383Y2788D02*
X1430Y2788D01*
X1483Y2788D02*
X1530Y2788D01*
X1583Y2788D02*
X1630Y2788D01*
X1683Y2788D02*
X1730Y2788D01*
X984Y2787D02*
X1029Y2787D01*
X1084Y2787D02*
X1129Y2787D01*
X1184Y2787D02*
X1229Y2787D01*
X1284Y2787D02*
X1329Y2787D01*
X1384Y2787D02*
X1429Y2787D01*
X1484Y2787D02*
X1529Y2787D01*
X1584Y2787D02*
X1629Y2787D01*
X1684Y2787D02*
X1729Y2787D01*
X985Y2786D02*
X1029Y2786D01*
X1085Y2786D02*
X1129Y2786D01*
X1185Y2786D02*
X1229Y2786D01*
X1285Y2786D02*
X1329Y2786D01*
X1385Y2786D02*
X1428Y2786D01*
X1485Y2786D02*
X1528Y2786D01*
X1585Y2786D02*
X1628Y2786D01*
X1685Y2786D02*
X1728Y2786D01*
X986Y2785D02*
X1028Y2785D01*
X1086Y2785D02*
X1128Y2785D01*
X1186Y2785D02*
X1227Y2785D01*
X1286Y2785D02*
X1327Y2785D01*
X1386Y2785D02*
X1427Y2785D01*
X1486Y2785D02*
X1527Y2785D01*
X1586Y2785D02*
X1627Y2785D01*
X1686Y2785D02*
X1727Y2785D01*
X987Y2784D02*
X1026Y2784D01*
X1087Y2784D02*
X1126Y2784D01*
X1187Y2784D02*
X1226Y2784D01*
X1287Y2784D02*
X1326Y2784D01*
X1387Y2784D02*
X1426Y2784D01*
X1487Y2784D02*
X1526Y2784D01*
X1587Y2784D02*
X1626Y2784D01*
X1687Y2784D02*
X1726Y2784D01*
X989Y2783D02*
X1025Y2783D01*
X1089Y2783D02*
X1125Y2783D01*
X1189Y2783D02*
X1225Y2783D01*
X1289Y2783D02*
X1325Y2783D01*
X1388Y2783D02*
X1425Y2783D01*
X1488Y2783D02*
X1525Y2783D01*
X1588Y2783D02*
X1625Y2783D01*
X1688Y2783D02*
X1725Y2783D01*
X990Y2782D02*
X1024Y2782D01*
X1090Y2782D02*
X1124Y2782D01*
X1190Y2782D02*
X1224Y2782D01*
X1290Y2782D02*
X1324Y2782D01*
X1390Y2782D02*
X1424Y2782D01*
X1490Y2782D02*
X1524Y2782D01*
X1590Y2782D02*
X1624Y2782D01*
X1690Y2782D02*
X1724Y2782D01*
X992Y2781D02*
X1022Y2781D01*
X1092Y2781D02*
X1122Y2781D01*
X1192Y2781D02*
X1222Y2781D01*
X1292Y2781D02*
X1322Y2781D01*
X1392Y2781D02*
X1422Y2781D01*
X1491Y2781D02*
X1522Y2781D01*
X1591Y2781D02*
X1622Y2781D01*
X1691Y2781D02*
X1722Y2781D01*
X993Y2780D02*
X1020Y2780D01*
X1093Y2780D02*
X1120Y2780D01*
X1193Y2780D02*
X1220Y2780D01*
X1293Y2780D02*
X1320Y2780D01*
X1393Y2780D02*
X1420Y2780D01*
X1493Y2780D02*
X1520Y2780D01*
X1593Y2780D02*
X1620Y2780D01*
X1693Y2780D02*
X1720Y2780D01*
X996Y2779D02*
X1018Y2779D01*
X1096Y2779D02*
X1118Y2779D01*
X1196Y2779D02*
X1218Y2779D01*
X1296Y2779D02*
X1318Y2779D01*
X1396Y2779D02*
X1418Y2779D01*
X1495Y2779D02*
X1518Y2779D01*
X1595Y2779D02*
X1618Y2779D01*
X1695Y2779D02*
X1718Y2779D01*
X998Y2778D02*
X1015Y2778D01*
X1098Y2778D02*
X1115Y2778D01*
X1198Y2778D02*
X1215Y2778D01*
X1298Y2778D02*
X1315Y2778D01*
X1398Y2778D02*
X1415Y2778D01*
X1498Y2778D02*
X1515Y2778D01*
X1598Y2778D02*
X1615Y2778D01*
X1698Y2778D02*
X1715Y2778D01*
X1003Y2777D02*
X1011Y2777D01*
X1103Y2777D02*
X1111Y2777D01*
X1203Y2777D02*
X1211Y2777D01*
X1303Y2777D02*
X1311Y2777D01*
X1403Y2777D02*
X1411Y2777D01*
X1503Y2777D02*
X1511Y2777D01*
X1603Y2777D02*
X1611Y2777D01*
X1703Y2777D02*
X1711Y2777D01*
D02*
G04 End of Mask0*
M02*