<?xml version="1.0" encoding="UTF-8" standalone="no"?>
<!-- Created with Fritzing (http://www.fritzing.org/) -->

<svg
   xmlns:dc="http://purl.org/dc/elements/1.1/"
   xmlns:cc="http://creativecommons.org/ns#"
   xmlns:rdf="http://www.w3.org/1999/02/22-rdf-syntax-ns#"
   xmlns:svg="http://www.w3.org/2000/svg"
   xmlns="http://www.w3.org/2000/svg"
   xmlns:sodipodi="http://sodipodi.sourceforge.net/DTD/sodipodi-0.dtd"
   xmlns:inkscape="http://www.inkscape.org/namespaces/inkscape"
   version="1.2"
   x="0in"
   y="0in"
   width="74.000107mm"
   height="54.479187mm"
   viewBox="0 0 209.764 154.429"
   id="svg2"
   inkscape:version="0.91 r13725"
   sodipodi:docname="keep.v3_pcb.mirrored.svg">
  <sodipodi:namedview
     pagecolor="#ffffff"
     bordercolor="#666666"
     borderopacity="1"
     objecttolerance="10"
     gridtolerance="10"
     guidetolerance="10"
     inkscape:pageopacity="0"
     inkscape:pageshadow="2"
     inkscape:window-width="1280"
     inkscape:window-height="1000"
     id="namedview3821"
     showgrid="false"
     inkscape:zoom="2.7557321"
     inkscape:cx="128.21589"
     inkscape:cy="95.469"
     inkscape:window-x="1366"
     inkscape:window-y="0"
     inkscape:window-maximized="1"
     inkscape:current-layer="layer1"
     units="mm"
     inkscape:document-units="mm" />
  <metadata
     id="metadata3825">
    <rdf:RDF>
      <cc:Work
         rdf:about="">
        <dc:format>image/svg+xml</dc:format>
        <dc:type
           rdf:resource="http://purl.org/dc/dcmitype/StillImage" />
        <dc:title />
      </cc:Work>
    </rdf:RDF>
  </metadata>
  <defs
     id="defs3823" />
  <g
     inkscape:groupmode="layer"
     id="layer1"
     inkscape:label="active"
     style="display:inline">
    <g
       id="g1388"
       transform="translate(1.9914848,1.59568)"
       style="fill:none;stroke:#000000;stroke-width:0.79999977;stroke-miterlimit:4;stroke-dasharray:none;stroke-opacity:1">
      <g
         id="g1390"
         style="fill:none;stroke:#000000;stroke-width:0.79999977;stroke-miterlimit:4;stroke-dasharray:none;stroke-opacity:1">
        <path
           style="fill:none;stroke:#000000;stroke-width:0.79999977;stroke-miterlimit:4;stroke-dasharray:none;stroke-opacity:1"
           d="M 7.83622,4.7181101 A 3.1181099,3.1181099 0 0 1 4.7181101,7.83622 a 3.1181099,3.1181099 0 0 1 -3.11811,-3.1181099 3.1181099,3.1181099 0 0 1 3.11811,-3.11811 3.1181099,3.1181099 0 0 1 3.1181099,3.11811 z"
           id="circle1392"
           inkscape:connector-curvature="0" />
      </g>
    </g>
    <g
       id="g1396"
       transform="translate(2.6426048,144.336)"
       style="fill:none;stroke:#000000;stroke-width:0.79999977;stroke-miterlimit:4;stroke-dasharray:none;stroke-opacity:1">
      <g
         id="g1398"
         style="fill:none;stroke:#000000;stroke-width:0.79999977;stroke-miterlimit:4;stroke-dasharray:none;stroke-opacity:1">
        <path
           style="fill:none;stroke:#000000;stroke-width:0.79999977;stroke-miterlimit:4;stroke-dasharray:none;stroke-opacity:1"
           d="M 7.83622,4.7181101 A 3.1181099,3.1181099 0 0 1 4.7181101,7.83622 a 3.1181099,3.1181099 0 0 1 -3.11811,-3.1181099 3.1181099,3.1181099 0 0 1 3.11811,-3.11811 3.1181099,3.1181099 0 0 1 3.1181099,3.11811 z"
           id="circle1400"
           inkscape:connector-curvature="0" />
      </g>
    </g>
    <g
       id="g1380"
       transform="translate(200.59712,1.324)"
       style="fill:none;stroke:#000000;stroke-width:0.79999977;stroke-miterlimit:4;stroke-dasharray:none;stroke-opacity:1">
      <g
         id="g1382"
         style="fill:none;stroke:#000000;stroke-width:0.79999977;stroke-miterlimit:4;stroke-dasharray:none;stroke-opacity:1">
        <path
           style="fill:none;stroke:#000000;stroke-width:0.79999977;stroke-miterlimit:4;stroke-dasharray:none;stroke-opacity:1"
           d="M 7.83622,4.7181101 A 3.1181099,3.1181099 0 0 1 4.7181101,7.83622 a 3.1181099,3.1181099 0 0 1 -3.11811,-3.1181099 3.1181099,3.1181099 0 0 1 3.11811,-3.11811 3.1181099,3.1181099 0 0 1 3.1181099,3.11811 z"
           id="circle1384"
           inkscape:connector-curvature="0" />
      </g>
    </g>
    <g
       id="g1372"
       transform="translate(201.49512,144.641)"
       style="fill:none;stroke:#000000;stroke-width:0.79999977;stroke-miterlimit:4;stroke-dasharray:none;stroke-opacity:1">
      <g
         id="g1374"
         style="fill:none;stroke:#000000;stroke-width:0.79999977;stroke-miterlimit:4;stroke-dasharray:none;stroke-opacity:1">
        <path
           style="fill:none;stroke:#000000;stroke-width:0.79999977;stroke-miterlimit:4;stroke-dasharray:none;stroke-opacity:1"
           d="M 7.83622,4.7181101 A 3.1181099,3.1181099 0 0 1 4.7181101,7.83622 a 3.1181099,3.1181099 0 0 1 -3.11811,-3.1181099 3.1181099,3.1181099 0 0 1 3.11811,-3.11811 3.1181099,3.1181099 0 0 1 3.1181099,3.11811 z"
           id="circle1376"
           inkscape:connector-curvature="0" />
      </g>
    </g>
    <path
       style="fill:none;stroke:#000000;stroke-width:0.86384481;stroke-miterlimit:4;stroke-dasharray:none;stroke-opacity:1"
       d="m 81.313315,1.180544 18.51561,0 0,11.548311 -18.51561,0 z"
       id="rect8673"
       inkscape:connector-curvature="0" />
    <path
       style="fill:none;stroke:#000000;stroke-width:0.79999977;stroke-miterlimit:4;stroke-dasharray:none;stroke-opacity:1"
       d="m 174.46895,17.121801 0,9.579684 -0.009,0 0,22.646866 0,0.7875 0,23.870303 -10.14219,0 0,-23.870303 0,-0.7875 0,-22.646866 -8.71874,0 0,-9.579684 18.8703,0 z"
       id="rect8675"
       inkscape:connector-curvature="0" />
    <path
       style="fill:none;stroke:#000000;stroke-width:0.79999977;stroke-miterlimit:4;stroke-dasharray:none;stroke-opacity:1"
       d="m 172.72711,8.4062185 a 5.806078,5.806078 0 0 1 -5.80608,5.8060775 5.806078,5.806078 0 0 1 -5.80608,-5.8060775 5.806078,5.806078 0 0 1 5.80608,-5.8060779 5.806078,5.806078 0 0 1 5.80608,5.8060779 z"
       id="path8677"
       inkscape:connector-curvature="0" />
    <path
       style="fill:none;stroke:#000000;stroke-width:0.79999977;stroke-miterlimit:4;stroke-dasharray:none;stroke-opacity:1"
       d="m 198.12538,93.607086 10.45094,0 0,17.127924 -10.45094,0 z"
       id="rect8696"
       inkscape:connector-curvature="0" />
    <path
       style="display:inline;fill:none;stroke:#000000;stroke-width:0.79999977;stroke-miterlimit:4;stroke-dasharray:none;stroke-opacity:1"
       d="m 85.065125,59.986267 19.124375,0 0,39.155354 -19.124375,0 z"
       id="rect8679-6"
       inkscape:connector-curvature="0" />
    <path
       style="fill:none;stroke:#000000;stroke-width:0.79999977;stroke-miterlimit:4;stroke-dasharray:none;stroke-opacity:1"
       d="m 155.01896,31.771796 0,9.870308 -3.04531,0 0,15.245307 -20.03749,0 0,-15.245307 -23.94687,0 0,-9.870308 47.02967,0 z"
       id="rect8713"
       inkscape:connector-curvature="0" />
    <path
       style="fill:none;stroke:#000000;stroke-width:0.86861569;stroke-miterlimit:4;stroke-dasharray:none;stroke-opacity:1"
       d="m 112.95883,97.854123 27.21995,0 0,10.672627 -27.21995,0 z"
       id="rect8717"
       inkscape:connector-curvature="0" />
    <path
       style="fill:none;stroke:#000000;stroke-width:0.79999977;stroke-miterlimit:4;stroke-dasharray:none;stroke-opacity:1"
       d="m 30.478215,137.01085 11.03155,0 0,17.12793 -11.03155,0 z"
       id="rect8719"
       inkscape:connector-curvature="0" />
    <path
       style="fill:none;stroke:#000000;stroke-width:0.82311606;stroke-miterlimit:4;stroke-dasharray:none;stroke-opacity:1"
       d="m 50.811035,60.672477 20.29816,0 0,31.620008 -20.29816,0 z"
       id="rect8721"
       inkscape:connector-curvature="0" />
    <path
       style="fill:none;stroke:#000000;stroke-width:1.05009544;stroke-miterlimit:4;stroke-dasharray:none;stroke-opacity:1"
       d="m 82.769655,139.21146 a 11.196805,10.906502 0 0 1 -11.1968,10.9065 11.196805,10.906502 0 0 1 -11.1968,-10.9065 11.196805,10.906502 0 0 1 11.1968,-10.9065 11.196805,10.906502 0 0 1 11.1968,10.9065 z"
       id="path8723"
       inkscape:connector-curvature="0" />
    <path
       style="display:inline;fill:none;stroke:#000000;stroke-width:0.95800954;stroke-miterlimit:4;stroke-dasharray:none;stroke-opacity:1"
       d="m 119.59571,139.02297 a 10.081634,10.081634 0 0 1 -10.08164,10.08163 10.081634,10.081634 0 0 1 -10.081625,-10.08163 10.081634,10.081634 0 0 1 10.081625,-10.08163 10.081634,10.081634 0 0 1 10.08164,10.08163 z"
       id="path8723-7"
       inkscape:connector-curvature="0" />
    <path
       style="display:inline;fill:none;stroke:#000000;stroke-width:0.95800954;stroke-miterlimit:4;stroke-dasharray:none;stroke-opacity:1"
       d="m 156.39578,139.02297 a 10.081634,10.081634 0 0 1 -10.08164,10.08163 10.081634,10.081634 0 0 1 -10.08163,-10.08163 10.081634,10.081634 0 0 1 10.08163,-10.08163 10.081634,10.081634 0 0 1 10.08164,10.08163 z"
       id="path8723-7-5"
       inkscape:connector-curvature="0" />
    <path
       style="display:inline;fill:none;stroke:#000000;stroke-width:1.03033996;stroke-miterlimit:4;stroke-dasharray:none;stroke-opacity:1"
       d="m 191.41133,138.73267 a 11.061583,10.626126 0 0 1 -11.06158,10.62611 11.061583,10.626126 0 0 1 -11.06159,-10.62611 11.061583,10.626126 0 0 1 11.06159,-10.62613 11.061583,10.626126 0 0 1 11.06158,10.62613 z"
       id="path8723-7-5-3"
       inkscape:connector-curvature="0" />
    <path
       style="display:inline;fill:none;stroke:#000000;stroke-width:1.03701437;stroke-miterlimit:4;stroke-dasharray:none;stroke-opacity:1"
       d="M 24.427175,119.82293 A 10.913044,10.913044 0 0 1 13.514135,130.73597 10.913044,10.913044 0 0 1 2.6010948,119.82293 10.913044,10.913044 0 0 1 13.514135,108.90989 10.913044,10.913044 0 0 1 24.427175,119.82293 Z"
       id="path8723-7-5-3-5"
       inkscape:connector-curvature="0" />
    <path
       style="display:inline;fill:none;stroke:#000000;stroke-width:1.06334937;stroke-miterlimit:4;stroke-dasharray:none;stroke-opacity:1"
       d="M 24.704315,83.022949 A 11.19018,11.19018 0 0 1 13.514135,94.213129 11.19018,11.19018 0 0 1 2.3239548,83.022949 11.19018,11.19018 0 0 1 13.514135,71.83277 11.19018,11.19018 0 0 1 24.704315,83.022949 Z"
       id="path8723-7-5-3-5-6"
       inkscape:connector-curvature="0" />
    <path
       style="display:inline;fill:none;stroke:#000000;stroke-width:1.02375817;stroke-miterlimit:4;stroke-dasharray:none;stroke-opacity:1"
       d="M 24.433805,27.022995 A 10.919672,10.629367 0 0 1 13.514135,37.652362 10.919672,10.629367 0 0 1 2.5944648,27.022995 10.919672,10.629367 0 0 1 13.514135,16.393628 10.919672,10.629367 0 0 1 24.433805,27.022995 Z"
       id="path8723-7-5-3-5-6-2"
       inkscape:connector-curvature="0" />
    <path
       style="display:inline;fill:none;stroke:#000000;stroke-width:0.95800954;stroke-miterlimit:4;stroke-dasharray:none;stroke-opacity:1"
       d="M 208.32508,67.313271 A 10.081634,10.081634 0 0 1 198.24344,77.394904 10.081634,10.081634 0 0 1 188.16181,67.313271 10.081634,10.081634 0 0 1 198.24344,57.231637 10.081634,10.081634 0 0 1 208.32508,67.313271 Z"
       id="path8723-7-5-3-5-6-2-9"
       inkscape:connector-curvature="0" />
    <path
       style="display:inline;fill:none;stroke:#000000;stroke-width:0.95800954;stroke-miterlimit:4;stroke-dasharray:none;stroke-opacity:1"
       d="M 207.88628,29.78421 A 10.081634,10.081634 0 0 1 197.80465,39.865844 10.081634,10.081634 0 0 1 187.72301,29.78421 10.081634,10.081634 0 0 1 197.80465,19.702577 10.081634,10.081634 0 0 1 207.88628,29.78421 Z"
       id="path8723-7-5-3-5-6-2-9-1"
       inkscape:connector-curvature="0" />
  </g>
  <g
     id="g5572" />
  <g
     id="g5694" />
</svg>
