<?xml version="1.0" encoding="UTF-8" standalone="no"?>
<!-- Created with Inkscape (http://www.inkscape.org/) -->

<svg
   xmlns:dc="http://purl.org/dc/elements/1.1/"
   xmlns:cc="http://creativecommons.org/ns#"
   xmlns:rdf="http://www.w3.org/1999/02/22-rdf-syntax-ns#"
   xmlns:svg="http://www.w3.org/2000/svg"
   xmlns="http://www.w3.org/2000/svg"
   xmlns:sodipodi="http://sodipodi.sourceforge.net/DTD/sodipodi-0.dtd"
   xmlns:inkscape="http://www.inkscape.org/namespaces/inkscape"
   width="150mm"
   height="85mm"
   viewBox="0 0 531.49606 301.1811"
   id="svg5475"
   version="1.1"
   inkscape:version="0.91 r13725"
   sodipodi:docname="keep.v3_pcb-lettering.2.svg">
  <defs
     id="defs5477">
    <marker
       inkscape:stockid="SquareM"
       orient="auto"
       refY="0.0"
       refX="0.0"
       id="SquareM"
       style="overflow:visible"
       inkscape:isstock="true">
      <path
         id="path12387"
         d="M -5.0,-5.0 L -5.0,5.0 L 5.0,5.0 L 5.0,-5.0 L -5.0,-5.0 z "
         style="fill-rule:evenodd;stroke:#000000;stroke-width:1pt;stroke-opacity:1;fill:#000000;fill-opacity:1"
         transform="scale(0.4)" />
    </marker>
    <marker
       inkscape:stockid="Tail"
       orient="auto"
       refY="0.0"
       refX="0.0"
       id="Tail"
       style="overflow:visible"
       inkscape:isstock="true">
      <g
         id="g12350"
         transform="scale(-1.2)"
         style="stroke:#000000;stroke-opacity:1;fill:#000000;fill-opacity:1">
        <path
           id="path12352"
           d="M -3.8048674,-3.9585227 L 0.54352094,0"
           style="fill:#000000;fill-rule:evenodd;stroke:#000000;stroke-width:0.8;stroke-linecap:round;stroke-opacity:1;fill-opacity:1" />
        <path
           id="path12354"
           d="M -1.2866832,-3.9585227 L 3.0617053,0"
           style="fill:#000000;fill-rule:evenodd;stroke:#000000;stroke-width:0.8;stroke-linecap:round;stroke-opacity:1;fill-opacity:1" />
        <path
           id="path12356"
           d="M 1.3053582,-3.9585227 L 5.6537466,0"
           style="fill:#000000;fill-rule:evenodd;stroke:#000000;stroke-width:0.8;stroke-linecap:round;stroke-opacity:1;fill-opacity:1" />
        <path
           id="path12358"
           d="M -3.8048674,4.1775838 L 0.54352094,0.21974226"
           style="fill:#000000;fill-rule:evenodd;stroke:#000000;stroke-width:0.8;stroke-linecap:round;stroke-opacity:1;fill-opacity:1" />
        <path
           id="path12360"
           d="M -1.2866832,4.1775838 L 3.0617053,0.21974226"
           style="fill:#000000;fill-rule:evenodd;stroke:#000000;stroke-width:0.8;stroke-linecap:round;stroke-opacity:1;fill-opacity:1" />
        <path
           id="path12362"
           d="M 1.3053582,4.1775838 L 5.6537466,0.21974226"
           style="fill:#000000;fill-rule:evenodd;stroke:#000000;stroke-width:0.8;stroke-linecap:round;stroke-opacity:1;fill-opacity:1" />
      </g>
    </marker>
    <marker
       inkscape:stockid="Arrow2Mend"
       orient="auto"
       refY="0.0"
       refX="0.0"
       id="Arrow2Mend"
       style="overflow:visible;"
       inkscape:isstock="true">
      <path
         id="path12341"
         style="fill-rule:evenodd;stroke-width:0.625;stroke-linejoin:round;stroke:#000000;stroke-opacity:1;fill:#000000;fill-opacity:1"
         d="M 8.7185878,4.0337352 L -2.2072895,0.016013256 L 8.7185884,-4.0017078 C 6.9730900,-1.6296469 6.9831476,1.6157441 8.7185878,4.0337352 z "
         transform="scale(0.6) rotate(180) translate(0,0)" />
    </marker>
  </defs>
  <sodipodi:namedview
     id="base"
     pagecolor="#ffffff"
     bordercolor="#666666"
     borderopacity="1.0"
     inkscape:pageopacity="0.0"
     inkscape:pageshadow="2"
     inkscape:zoom="1"
     inkscape:cx="273.01781"
     inkscape:cy="158.79136"
     inkscape:document-units="mm"
     inkscape:current-layer="layer1"
     showgrid="false"
     inkscape:showpageshadow="true"
     inkscape:window-width="1280"
     inkscape:window-height="1000"
     inkscape:window-x="1366"
     inkscape:window-y="0"
     inkscape:window-maximized="1"
     inkscape:snap-smooth-nodes="true"
     showguides="false" />
  <metadata
     id="metadata5480">
    <rdf:RDF>
      <cc:Work
         rdf:about="">
        <dc:format>image/svg+xml</dc:format>
        <dc:type
           rdf:resource="http://purl.org/dc/dcmitype/StillImage" />
        <dc:title></dc:title>
      </cc:Work>
    </rdf:RDF>
  </metadata>
  <g
     inkscape:label="Layer 1"
     inkscape:groupmode="layer"
     id="layer1"
     transform="translate(0,-751.1811)">
    <g
       style="fill:none;stroke:#000000;stroke-width:0.79999977;stroke-miterlimit:4;stroke-dasharray:none;stroke-opacity:1"
       id="g1390"
       transform="matrix(1.2500005,0,0,1.2500005,141.28704,803.3021)">
      <path
         inkscape:connector-curvature="0"
         id="circle1392"
         d="M 7.83622,4.7181101 A 3.1181099,3.1181099 0 0 1 4.7181101,7.83622 a 3.1181099,3.1181099 0 0 1 -3.11811,-3.1181099 3.1181099,3.1181099 0 0 1 3.11811,-3.11811 3.1181099,3.1181099 0 0 1 3.1181099,3.11811 z"
         style="fill:none;stroke:#000000;stroke-width:0.79999977;stroke-miterlimit:4;stroke-dasharray:none;stroke-opacity:1" />
    </g>
    <g
       style="fill:none;stroke:#000000;stroke-width:0.79999977;stroke-miterlimit:4;stroke-dasharray:none;stroke-opacity:1"
       id="g1398"
       transform="matrix(1.2500005,0,0,1.2500005,142.10094,981.7276)">
      <path
         inkscape:connector-curvature="0"
         id="circle1400"
         d="M 7.83622,4.7181101 A 3.1181099,3.1181099 0 0 1 4.7181101,7.83622 a 3.1181099,3.1181099 0 0 1 -3.11811,-3.1181099 3.1181099,3.1181099 0 0 1 3.11811,-3.11811 3.1181099,3.1181099 0 0 1 3.1181099,3.11811 z"
         style="fill:none;stroke:#000000;stroke-width:0.79999977;stroke-miterlimit:4;stroke-dasharray:none;stroke-opacity:1" />
    </g>
    <g
       style="fill:none;stroke:#000000;stroke-width:0.79999977;stroke-miterlimit:4;stroke-dasharray:none;stroke-opacity:1"
       id="g1382"
       transform="matrix(1.2500005,0,0,1.2500005,389.54419,802.9625)">
      <path
         inkscape:connector-curvature="0"
         id="circle1384"
         d="M 7.83622,4.7181101 A 3.1181099,3.1181099 0 0 1 4.7181101,7.83622 a 3.1181099,3.1181099 0 0 1 -3.11811,-3.1181099 3.1181099,3.1181099 0 0 1 3.11811,-3.11811 3.1181099,3.1181099 0 0 1 3.1181099,3.11811 z"
         style="fill:none;stroke:#000000;stroke-width:0.79999977;stroke-miterlimit:4;stroke-dasharray:none;stroke-opacity:1" />
    </g>
    <g
       style="fill:none;stroke:#000000;stroke-width:0.79999977;stroke-miterlimit:4;stroke-dasharray:none;stroke-opacity:1"
       id="g1374"
       transform="matrix(1.2500005,0,0,1.2500005,390.66669,982.1089)">
      <path
         inkscape:connector-curvature="0"
         id="circle1376"
         d="M 7.83622,4.7181101 A 3.1181099,3.1181099 0 0 1 4.7181101,7.83622 a 3.1181099,3.1181099 0 0 1 -3.11811,-3.1181099 3.1181099,3.1181099 0 0 1 3.11811,-3.11811 3.1181099,3.1181099 0 0 1 3.1181099,3.11811 z"
         style="fill:none;stroke:#000000;stroke-width:0.79999977;stroke-miterlimit:4;stroke-dasharray:none;stroke-opacity:1" />
    </g>
    <path
       inkscape:connector-curvature="0"
       id="path13548"
       style="font-style:normal;font-variant:normal;font-weight:normal;font-stretch:normal;font-size:17.5px;line-height:125%;font-family:'Latin Modern Mono';-inkscape-font-specification:'Latin Modern Mono';letter-spacing:0px;word-spacing:0px;fill:#000000;fill-opacity:1;stroke:none;stroke-width:1px;stroke-linecap:butt;stroke-linejoin:miter;stroke-opacity:1"
       d="m 133.27684,906.81968 c 0,-0.525 -0.4375,-0.525 -0.7,-0.525 -0.735,0 -0.91,-0.0875 -1.05,-0.14 l 0,-3.78 c 0,-1.2425 -0.945,-2.7125 -3.465,-2.7125 -0.7525,0 -2.5375,0 -2.5375,1.2775 0,0.525 0.3675,0.805 0.7875,0.805 0.2625,0 0.7525,-0.1575 0.77,-0.805 0,-0.14 0.0175,-0.1575 0.3675,-0.1925 0.245,-0.0175 0.4725,-0.0175 0.63,-0.0175 1.33,0 2.24,0.5425 2.24,1.785 -3.0975,0.0525 -5.25,0.9275 -5.25,2.6075 0,1.2075 1.1025,2.345 2.8875,2.345 0.6475,0 1.7325,-0.1225 2.555,-0.665 0.385,0.5425 1.225,0.56 1.89,0.56 0.49,0 0.875,0 0.875,-0.5425 z m -2.9575,-1.8025 c 0,0.4025 0,0.77 -0.6825,1.085 -0.63,0.2975 -1.4175,0.2975 -1.5575,0.2975 -1.085,0 -1.8025,-0.595 -1.8025,-1.2775 0,-0.8575 1.505,-1.505 4.0425,-1.575 l 0,1.47 z" />
    <path
       inkscape:connector-curvature="0"
       id="path13552"
       style="font-style:normal;font-variant:normal;font-weight:normal;font-stretch:normal;font-size:17.5px;line-height:125%;font-family:'Latin Modern Mono';-inkscape-font-specification:'Latin Modern Mono';letter-spacing:0px;word-spacing:0px;fill:#000000;fill-opacity:1;stroke:none;stroke-width:1px;stroke-linecap:butt;stroke-linejoin:miter;stroke-opacity:1"
       d="m 291.45755,900.55467 c 0,-1.2075 -0.84,-2.345 -2.2575,-2.6775 1.12,-0.385 1.89,-1.295 1.89,-2.38 0,-1.2775 -1.0675,-2.7125 -3.01,-2.7125 l -3.955,0 c -0.245,0 -0.7,0 -0.7,0.525 0,0.5425 0.4375,0.5425 0.7175,0.5425 l 0.4725,0 0,8.5575 -0.4725,0 c -0.28,0 -0.7175,0 -0.7175,0.5425 0,0.525 0.455,0.525 0.7,0.525 l 4.305,0 c 1.9775,0 3.0275,-1.5575 3.0275,-2.9225 z m -1.575,-5.04 c 0,0.7175 -0.56,1.8725 -2.2575,1.8725 l -1.8025,0 0,-3.535 2.1875,0 c 1.4875,0 1.8725,1.085 1.8725,1.6625 z m 0.3675,5.005 c 0,0.8575 -0.6825,1.89 -2.205,1.89 l -2.2225,0 0,-3.955 2.415,0 c 1.4875,0 2.0125,1.2775 2.0125,2.065 z" />
    <path
       inkscape:connector-curvature="0"
       id="path13557"
       style="font-style:normal;font-variant:normal;font-weight:normal;font-stretch:normal;font-size:17.5px;line-height:125%;font-family:'Latin Modern Mono';-inkscape-font-specification:'Latin Modern Mono';letter-spacing:0px;word-spacing:0px;fill:#000000;fill-opacity:1;stroke:none;stroke-width:1px;stroke-linecap:butt;stroke-linejoin:miter;stroke-opacity:1"
       d="m 303.77255,898.42717 c 0,-0.5425 -0.42,-0.5425 -0.7,-0.5425 l -2.0475,0 c -0.2625,0 -0.7,0 -0.7,0.525 0,0.5425 0.42,0.5425 0.7,0.5425 l 0.49,0 -1.9075,5.635 -1.9075,-5.635 0.49,0 c 0.2625,0 0.7,0 0.7,-0.525 0,-0.5425 -0.42,-0.5425 -0.7,-0.5425 l -2.0475,0 c -0.28,0 -0.7,0 -0.7,0.5425 0,0.525 0.4375,0.525 0.7,0.525 l 0.525,0 2.0125,5.95 c 0.21,0.595 0.56,0.595 0.9275,0.595 0.3325,0 0.735,0 0.9275,-0.5775 l 2.0125,-5.9675 0.525,0 c 0.2625,0 0.7,0 0.7,-0.525 z" />
    <path
       inkscape:connector-curvature="0"
       id="path13559"
       style="font-style:normal;font-variant:normal;font-weight:normal;font-stretch:normal;font-size:17.5px;line-height:125%;font-family:'Latin Modern Mono';-inkscape-font-specification:'Latin Modern Mono';letter-spacing:0px;word-spacing:0px;fill:#000000;fill-opacity:1;stroke:none;stroke-width:1px;stroke-linecap:butt;stroke-linejoin:miter;stroke-opacity:1"
       d="m 312.37189,903.51967 c 0,-0.49 -0.5075,-0.49 -0.6125,-0.49 -0.28,0 -0.455,0.035 -0.5775,0.385 -0.105,0.2275 -0.4375,1.05 -1.7325,1.05 -1.4875,0 -2.7475,-1.225 -2.7475,-2.8175 0,-0.84 0.49,-2.8525 2.8525,-2.8525 0.3675,0 1.05,0 1.05,0.1575 0.0175,0.6125 0.35,0.8575 0.77,0.8575 0.42,0 0.7875,-0.2975 0.7875,-0.805 0,-1.2775 -1.82,-1.2775 -2.6075,-1.2775 -3.01,0 -4.06,2.38 -4.06,3.92 0,2.1 1.645,3.885 3.85,3.885 2.4325,0 3.0275,-1.715 3.0275,-2.0125 z" />
    <path
       inkscape:connector-curvature="0"
       id="path13561"
       style="font-style:normal;font-variant:normal;font-weight:normal;font-stretch:normal;font-size:17.5px;line-height:125%;font-family:'Latin Modern Mono';-inkscape-font-specification:'Latin Modern Mono';letter-spacing:0px;word-spacing:0px;fill:#000000;fill-opacity:1;stroke:none;stroke-width:1px;stroke-linecap:butt;stroke-linejoin:miter;stroke-opacity:1"
       d="m 321.26872,903.22217 c 0,-0.315 0,-0.6825 -0.6125,-0.6825 -0.5775,0 -0.595,0.3675 -0.595,0.665 -0.0175,1.085 -1.015,1.26 -1.4175,1.26 -1.3475,0 -1.3475,-0.91 -1.3475,-1.3475 l 0,-4.165 2.87,0 c 0.2625,0 0.7,0 0.7,-0.525 0,-0.5425 -0.42,-0.5425 -0.7,-0.5425 l -2.87,0 0,-1.435 c 0,-0.3325 0,-0.7175 -0.595,-0.7175 -0.6125,0 -0.6125,0.3675 -0.6125,0.7175 l 0,1.435 -1.5225,0 c -0.28,0 -0.7175,0 -0.7175,0.5425 0,0.525 0.4375,0.525 0.7,0.525 l 1.54,0 0,4.27 c 0,1.68 1.19,2.31 2.4675,2.31 1.295,0 2.7125,-0.7525 2.7125,-2.31 z" />
    <path
       inkscape:connector-curvature="0"
       id="path13563"
       style="font-style:normal;font-variant:normal;font-weight:normal;font-stretch:normal;font-size:17.5px;line-height:125%;font-family:'Latin Modern Mono';-inkscape-font-specification:'Latin Modern Mono';letter-spacing:0px;word-spacing:0px;fill:#000000;fill-opacity:1;stroke:none;stroke-width:1px;stroke-linecap:butt;stroke-linejoin:miter;stroke-opacity:1"
       d="m 330.77806,904.90217 c 0,-0.5425 -0.42,-0.5425 -0.7,-0.5425 l -2.275,0 0,-8.9075 c 0,-0.5425 -0.105,-0.7175 -0.7,-0.7175 l -2.765,0 c -0.28,0 -0.7175,0 -0.7175,0.5425 0,0.525 0.455,0.525 0.7,0.525 l 2.275,0 0,8.5575 -2.2575,0 c -0.28,0 -0.7175,0 -0.7175,0.5425 0,0.525 0.455,0.525 0.7,0.525 l 5.7575,0 c 0.2625,0 0.7,0 0.7,-0.525 z" />
    <path
       inkscape:connector-curvature="0"
       id="path13565"
       style="font-style:normal;font-variant:normal;font-weight:normal;font-stretch:normal;font-size:17.5px;line-height:125%;font-family:'Latin Modern Mono';-inkscape-font-specification:'Latin Modern Mono';letter-spacing:0px;word-spacing:0px;fill:#000000;fill-opacity:1;stroke:none;stroke-width:1px;stroke-linecap:butt;stroke-linejoin:miter;stroke-opacity:1"
       d="m 337.4874,904.39217 c 0,-0.6475 -0.525,-1.1025 -1.085,-1.1025 -0.665,0 -1.1025,0.5425 -1.1025,1.085 0,0.6475 0.525,1.1025 1.085,1.1025 0.665,0 1.1025,-0.5425 1.1025,-1.085 z" />
    <path
       inkscape:connector-curvature="0"
       id="path13568"
       style="font-style:normal;font-variant:normal;font-weight:normal;font-stretch:normal;font-size:17.5px;line-height:125%;font-family:'Latin Modern Mono';-inkscape-font-specification:'Latin Modern Mono';letter-spacing:0px;word-spacing:0px;fill:#000000;fill-opacity:1;stroke:none;stroke-width:1px;stroke-linecap:butt;stroke-linejoin:miter;stroke-opacity:1"
       d="m 133.54,957.58218 c 0,-2.1525 -1.5575,-3.8675 -3.4125,-3.8675 -0.84,0 -1.6275,0.315 -2.2225,0.8575 l 0,-3.185 c 0,-0.5425 -0.105,-0.7175 -0.7,-0.7175 l -1.2775,0 c -0.28,0 -0.7175,0 -0.7175,0.5425 0,0.525 0.455,0.525 0.7,0.525 l 0.7875,0 0,8.9075 c 0,0.35 0,0.7175 0.6125,0.7175 0.595,0 0.595,-0.35 0.595,-0.7875 0.7175,0.735 1.47,0.8925 2.03,0.8925 1.9075,0 3.605,-1.6625 3.605,-3.885 z m -1.2075,0 c 0,1.68 -1.225,2.8175 -2.45,2.8175 -1.365,0 -1.9775,-1.54 -1.9775,-2.38 l 0,-1.2775 c 0,-1.0325 1.015,-1.96 2.1175,-1.96 1.295,0 2.31,1.2775 2.31,2.8 z" />
    <path
       inkscape:connector-curvature="0"
       id="path13571"
       style="font-style:normal;font-variant:normal;font-weight:normal;font-stretch:normal;font-size:17.5px;line-height:69.99999881%;font-family:'Latin Modern Mono';-inkscape-font-specification:'Latin Modern Mono';letter-spacing:0px;word-spacing:0px;fill:#000000;fill-opacity:1;stroke:none;stroke-width:1px;stroke-linecap:butt;stroke-linejoin:miter;stroke-opacity:1"
       d="m 189.08433,864.21385 c 0,-0.525 -0.4375,-0.525 -0.7,-0.525 -0.735,0 -0.91,-0.0875 -1.05,-0.14 l 0,-3.78 c 0,-1.2425 -0.945,-2.7125 -3.465,-2.7125 -0.7525,0 -2.5375,0 -2.5375,1.2775 0,0.525 0.3675,0.805 0.7875,0.805 0.2625,0 0.7525,-0.1575 0.77,-0.805 0,-0.14 0.0175,-0.1575 0.3675,-0.1925 0.245,-0.0175 0.4725,-0.0175 0.63,-0.0175 1.33,0 2.24,0.5425 2.24,1.785 -3.0975,0.0525 -5.25,0.9275 -5.25,2.6075 0,1.2075 1.1025,2.345 2.8875,2.345 0.6475,0 1.7325,-0.1225 2.555,-0.665 0.385,0.5425 1.225,0.56 1.89,0.56 0.49,0 0.875,0 0.875,-0.5425 z m -2.9575,-1.8025 c 0,0.4025 0,0.77 -0.6825,1.085 -0.63,0.2975 -1.4175,0.2975 -1.5575,0.2975 -1.085,0 -1.8025,-0.595 -1.8025,-1.2775 0,-0.8575 1.505,-1.505 4.0425,-1.575 l 0,1.47 z" />
    <path
       inkscape:connector-curvature="0"
       id="path13573"
       style="font-style:normal;font-variant:normal;font-weight:normal;font-stretch:normal;font-size:17.5px;line-height:69.99999881%;font-family:'Latin Modern Mono';-inkscape-font-specification:'Latin Modern Mono';letter-spacing:0px;word-spacing:0px;fill:#000000;fill-opacity:1;stroke:none;stroke-width:1px;stroke-linecap:butt;stroke-linejoin:miter;stroke-opacity:1"
       d="m 198.22617,864.23135 c 0,-0.5425 -0.3675,-0.5425 -0.9975,-0.5425 l 0,-4.235 c 0,-0.35 0,-2.345 -1.5575,-2.345 -0.525,0 -1.2425,0.2275 -1.7325,0.91 -0.2625,-0.595 -0.7525,-0.91 -1.33,-0.91 -0.56,0 -1.085,0.245 -1.505,0.63 -0.035,-0.525 -0.385,-0.525 -0.7,-0.525 l -0.56,0 c -0.2625,0 -0.7175,0 -0.7175,0.525 0,0.5425 0.3675,0.5425 0.9975,0.5425 l 0,5.4075 c -0.63,0 -0.9975,0 -0.9975,0.5425 0,0.525 0.4725,0.525 0.7175,0.525 l 1.54,0 c 0.2625,0 0.7175,0 0.7175,-0.525 0,-0.5425 -0.3675,-0.5425 -0.9975,-0.5425 l 0,-3.1325 c 0,-1.5575 0.7175,-2.38 1.435,-2.38 0.4025,0 0.6475,0.2975 0.6475,1.435 l 0,4.0775 c -0.3325,0 -0.77,0 -0.77,0.5425 0,0.525 0.4725,0.525 0.7175,0.525 l 1.3125,0 c 0.2625,0 0.7175,0 0.7175,-0.525 0,-0.5425 -0.3675,-0.5425 -0.9975,-0.5425 l 0,-3.1325 c 0,-1.5575 0.7175,-2.38 1.435,-2.38 0.4025,0 0.6475,0.2975 0.6475,1.435 l 0,4.0775 c -0.3325,0 -0.77,0 -0.77,0.5425 0,0.525 0.4725,0.525 0.7175,0.525 l 1.3125,0 c 0.2625,0 0.7175,0 0.7175,-0.525 z" />
    <path
       inkscape:connector-curvature="0"
       id="path13575"
       style="font-style:normal;font-variant:normal;font-weight:normal;font-stretch:normal;font-size:17.5px;line-height:69.99999881%;font-family:'Latin Modern Mono';-inkscape-font-specification:'Latin Modern Mono';letter-spacing:0px;word-spacing:0px;fill:#000000;fill-opacity:1;stroke:none;stroke-width:1px;stroke-linecap:butt;stroke-linejoin:miter;stroke-opacity:1"
       d="m 187.96433,876.48135 c 0,-0.5425 -0.455,-0.5425 -0.7175,-0.5425 l -1.8375,0 0,-5.7575 c 0,-0.5425 -0.105,-0.7175 -0.7,-0.7175 l -2.485,0 c -0.2625,0 -0.7175,0 -0.7175,0.525 0,0.5425 0.455,0.5425 0.7175,0.5425 l 1.9775,0 0,5.4075 -2.1175,0 c -0.28,0 -0.7175,0 -0.7175,0.5425 0,0.525 0.455,0.525 0.7175,0.525 l 5.1625,0 c 0.2625,0 0.7175,0 0.7175,-0.525 z m -2.485,-9.1875 c 0,-0.49 -0.385,-0.875 -0.875,-0.875 -0.49,0 -0.875,0.385 -0.875,0.875 0,0.49 0.385,0.875 0.875,0.875 0.49,0 0.875,-0.385 0.875,-0.875 z" />
    <path
       inkscape:connector-curvature="0"
       id="path13577"
       style="font-style:normal;font-variant:normal;font-weight:normal;font-stretch:normal;font-size:17.5px;line-height:69.99999881%;font-family:'Latin Modern Mono';-inkscape-font-specification:'Latin Modern Mono';letter-spacing:0px;word-spacing:0px;fill:#000000;fill-opacity:1;stroke:none;stroke-width:1px;stroke-linecap:butt;stroke-linejoin:miter;stroke-opacity:1"
       d="m 198.15617,876.48135 c 0,-0.5425 -0.4375,-0.5425 -0.7175,-0.5425 l -0.77,0 0,-4.06 c 0,-1.7675 -0.8925,-2.52 -2.275,-2.52 -1.1725,0 -1.96,0.595 -2.2925,0.9275 0,-0.56 0,-0.8225 -0.7,-0.8225 l -1.2775,0 c -0.28,0 -0.7175,0 -0.7175,0.5425 0,0.525 0.455,0.525 0.7,0.525 l 0.7875,0 0,5.4075 -0.77,0 c -0.28,0 -0.7175,0 -0.7175,0.5425 0,0.525 0.455,0.525 0.7,0.525 l 2.7825,0 c 0.245,0 0.7,0 0.7,-0.525 0,-0.5425 -0.4375,-0.5425 -0.7175,-0.5425 l -0.77,0 0,-3.0975 c 0,-1.75 1.295,-2.415 2.1875,-2.415 0.9275,0 1.1725,0.49 1.1725,1.54 l 0,3.9725 -0.6825,0 c -0.28,0 -0.7175,0 -0.7175,0.5425 0,0.525 0.4725,0.525 0.7175,0.525 l 2.6775,0 c 0.245,0 0.7,0 0.7,-0.525 z" />
    <path
       inkscape:connector-curvature="0"
       id="path13580"
       style="font-style:normal;font-variant:normal;font-weight:normal;font-stretch:normal;font-size:17.5px;line-height:69.99999881%;font-family:'Latin Modern Mono';-inkscape-font-specification:'Latin Modern Mono';letter-spacing:0px;word-spacing:0px;fill:#000000;fill-opacity:1;stroke:none;stroke-width:1px;stroke-linecap:butt;stroke-linejoin:miter;stroke-opacity:1"
       d="m 197.55618,928.13067 c 0,-1.05 -1.4,-1.05 -1.68,-1.05 -1.4,0 -2.7475,0.805 -2.7475,2.3275 l 0,0.9275 -1.75,0 c -0.28,0 -0.7175,0 -0.7175,0.5425 0,0.525 0.4375,0.525 0.7,0.525 l 1.7675,0 0,5.4075 -1.7675,0 c -0.2625,0 -0.7175,0 -0.7175,0.525 0,0.5425 0.455,0.5425 0.7175,0.5425 l 4.7425,0 c 0.2625,0 0.7175,0 0.7175,-0.525 0,-0.5425 -0.455,-0.5425 -0.7175,-0.5425 l -1.7675,0 0,-5.4075 2.135,0 c 0.2625,0 0.7,0 0.7,-0.525 0,-0.5425 -0.42,-0.5425 -0.7,-0.5425 l -2.135,0 0,-0.8225 c 0,-1.365 1.1725,-1.365 1.6975,-1.365 0,0.07 0.1575,0.7525 0.77,0.7525 0.35,0 0.7525,-0.28 0.7525,-0.77 z" />
    <path
       inkscape:connector-curvature="0"
       id="path13582"
       style="font-style:normal;font-variant:normal;font-weight:normal;font-stretch:normal;font-size:17.5px;line-height:69.99999881%;font-family:'Latin Modern Mono';-inkscape-font-specification:'Latin Modern Mono';letter-spacing:0px;word-spacing:0px;fill:#000000;fill-opacity:1;stroke:none;stroke-width:1px;stroke-linecap:butt;stroke-linejoin:miter;stroke-opacity:1"
       d="m 208.13301,937.35317 c 0,-0.5425 -0.3675,-0.5425 -0.9975,-0.5425 l 0,-4.235 c 0,-0.35 0,-2.345 -1.5575,-2.345 -0.525,0 -1.2425,0.2275 -1.7325,0.91 -0.2625,-0.595 -0.7525,-0.91 -1.33,-0.91 -0.56,0 -1.085,0.245 -1.505,0.63 -0.035,-0.525 -0.385,-0.525 -0.7,-0.525 l -0.56,0 c -0.2625,0 -0.7175,0 -0.7175,0.525 0,0.5425 0.3675,0.5425 0.9975,0.5425 l 0,5.4075 c -0.63,0 -0.9975,0 -0.9975,0.5425 0,0.525 0.4725,0.525 0.7175,0.525 l 1.54,0 c 0.2625,0 0.7175,0 0.7175,-0.525 0,-0.5425 -0.3675,-0.5425 -0.9975,-0.5425 l 0,-3.1325 c 0,-1.5575 0.7175,-2.38 1.435,-2.38 0.4025,0 0.6475,0.2975 0.6475,1.435 l 0,4.0775 c -0.3325,0 -0.77,0 -0.77,0.5425 0,0.525 0.4725,0.525 0.7175,0.525 l 1.3125,0 c 0.2625,0 0.7175,0 0.7175,-0.525 0,-0.5425 -0.3675,-0.5425 -0.9975,-0.5425 l 0,-3.1325 c 0,-1.5575 0.7175,-2.38 1.435,-2.38 0.4025,0 0.6475,0.2975 0.6475,1.435 l 0,4.0775 c -0.3325,0 -0.77,0 -0.77,0.5425 0,0.525 0.4725,0.525 0.7175,0.525 l 1.3125,0 c 0.2625,0 0.7175,0 0.7175,-0.525 z" />
    <path
       inkscape:connector-curvature="0"
       id="path13584"
       style="font-style:normal;font-variant:normal;font-weight:normal;font-stretch:normal;font-size:17.5px;line-height:69.99999881%;font-family:'Latin Modern Mono';-inkscape-font-specification:'Latin Modern Mono';letter-spacing:0px;word-spacing:0px;fill:#000000;fill-opacity:1;stroke:none;stroke-width:1px;stroke-linecap:butt;stroke-linejoin:miter;stroke-opacity:1"
       d="m 213.98485,936.79317 c 0,-0.6475 -0.525,-1.1025 -1.085,-1.1025 -0.665,0 -1.1025,0.5425 -1.1025,1.085 0,0.6475 0.525,1.1025 1.085,1.1025 0.665,0 1.1025,-0.5425 1.1025,-1.085 z" />
    <path
       inkscape:connector-curvature="0"
       id="path13586"
       style="font-style:normal;font-variant:normal;font-weight:normal;font-stretch:normal;font-size:17.5px;line-height:69.99999881%;font-family:'Latin Modern Mono';-inkscape-font-specification:'Latin Modern Mono';letter-spacing:0px;word-spacing:0px;fill:#000000;fill-opacity:1;stroke:none;stroke-width:1px;stroke-linecap:butt;stroke-linejoin:miter;stroke-opacity:1"
       d="m 225.45418,937.35317 c 0,-0.5425 -0.455,-0.5425 -0.7175,-0.5425 l -1.8375,0 0,-5.7575 c 0,-0.5425 -0.105,-0.7175 -0.7,-0.7175 l -2.485,0 c -0.2625,0 -0.7175,0 -0.7175,0.525 0,0.5425 0.455,0.5425 0.7175,0.5425 l 1.9775,0 0,5.4075 -2.1175,0 c -0.28,0 -0.7175,0 -0.7175,0.5425 0,0.525 0.455,0.525 0.7175,0.525 l 5.1625,0 c 0.2625,0 0.7175,0 0.7175,-0.525 z m -2.485,-9.1875 c 0,-0.49 -0.385,-0.875 -0.875,-0.875 -0.49,0 -0.875,0.385 -0.875,0.875 0,0.49 0.385,0.875 0.875,0.875 0.49,0 0.875,-0.385 0.875,-0.875 z" />
    <path
       inkscape:connector-curvature="0"
       id="path13588"
       style="font-style:normal;font-variant:normal;font-weight:normal;font-stretch:normal;font-size:17.5px;line-height:69.99999881%;font-family:'Latin Modern Mono';-inkscape-font-specification:'Latin Modern Mono';letter-spacing:0px;word-spacing:0px;fill:#000000;fill-opacity:1;stroke:none;stroke-width:1px;stroke-linecap:butt;stroke-linejoin:miter;stroke-opacity:1"
       d="m 235.64602,937.35317 c 0,-0.5425 -0.4375,-0.5425 -0.7175,-0.5425 l -0.77,0 0,-4.06 c 0,-1.7675 -0.8925,-2.52 -2.275,-2.52 -1.1725,0 -1.96,0.595 -2.2925,0.9275 0,-0.56 0,-0.8225 -0.7,-0.8225 l -1.2775,0 c -0.28,0 -0.7175,0 -0.7175,0.5425 0,0.525 0.455,0.525 0.7,0.525 l 0.7875,0 0,5.4075 -0.77,0 c -0.28,0 -0.7175,0 -0.7175,0.5425 0,0.525 0.455,0.525 0.7,0.525 l 2.7825,0 c 0.245,0 0.7,0 0.7,-0.525 0,-0.5425 -0.4375,-0.5425 -0.7175,-0.5425 l -0.77,0 0,-3.0975 c 0,-1.75 1.295,-2.415 2.1875,-2.415 0.9275,0 1.1725,0.49 1.1725,1.54 l 0,3.9725 -0.6825,0 c -0.28,0 -0.7175,0 -0.7175,0.5425 0,0.525 0.4725,0.525 0.7175,0.525 l 2.6775,0 c 0.245,0 0.7,0 0.7,-0.525 z" />
    <path
       inkscape:connector-curvature="0"
       id="path13591"
       style="font-style:normal;font-variant:normal;font-weight:normal;font-stretch:normal;font-size:17.5px;line-height:125%;font-family:'Latin Modern Mono';-inkscape-font-specification:'Latin Modern Mono';letter-spacing:0px;word-spacing:0px;fill:#000000;fill-opacity:1;stroke:none;stroke-width:1px;stroke-linecap:butt;stroke-linejoin:miter;stroke-opacity:1"
       d="m 118.36201,869.50668 c 0,-1.12 -0.63,-1.855 -0.84,-2.0825 -0.7175,-0.7 -1.19,-0.8225 -2.555,-1.1375 l -1.4175,-0.315 c -0.735,-0.21 -1.4,-0.8225 -1.4,-1.645 0,-0.8925 0.8575,-1.7325 2.1,-1.7325 2.065,0 2.3275,1.645 2.4325,2.1875 0.0525,0.385 0.245,0.49 0.595,0.49 0.6125,0 0.6125,-0.3675 0.6125,-0.7175 l 0,-2.31 c 0,-0.28 0,-0.7175 -0.525,-0.7175 -0.42,0 -0.5075,0.2975 -0.6475,0.8225 -0.7175,-0.6125 -1.6625,-0.8225 -2.45,-0.8225 -1.9425,0 -3.255,1.3825 -3.255,2.87 0,1.1725 0.805,2.3275 2.2575,2.7475 l 2.0125,0.4725 c 0.49,0.105 1.9425,0.455 1.9425,1.9775 0,0.91 -0.7525,1.9425 -2.135,1.9425 -0.49,0 -1.3475,-0.07 -2.0475,-0.5425 -0.735,-0.4725 -0.805,-1.2075 -0.8225,-1.5225 -0.0175,-0.2975 -0.035,-0.6125 -0.595,-0.6125 -0.6125,0 -0.6125,0.3675 -0.6125,0.7175 l 0,2.31 c 0,0.28 0,0.7175 0.525,0.7175 0.385,0 0.49,-0.245 0.6475,-0.805 0.7,0.525 1.7675,0.805 2.8875,0.805 2.03,0 3.29,-1.54 3.29,-3.0975 z" />
    <path
       inkscape:connector-curvature="0"
       id="path13593"
       style="font-style:normal;font-variant:normal;font-weight:normal;font-stretch:normal;font-size:17.5px;line-height:125%;font-family:'Latin Modern Mono';-inkscape-font-specification:'Latin Modern Mono';letter-spacing:0px;word-spacing:0px;fill:#000000;fill-opacity:1;stroke:none;stroke-width:1px;stroke-linecap:butt;stroke-linejoin:miter;stroke-opacity:1"
       d="m 128.25635,871.88668 c 0,-0.5425 -0.4375,-0.5425 -0.7175,-0.5425 l -0.77,0 0,-4.06 c 0,-1.7675 -0.8925,-2.52 -2.275,-2.52 -1.1725,0 -1.96,0.595 -2.2925,0.9275 l 0,-3.255 c 0,-0.5425 -0.105,-0.7175 -0.7,-0.7175 l -1.2775,0 c -0.28,0 -0.7175,0 -0.7175,0.5425 0,0.525 0.455,0.525 0.7,0.525 l 0.7875,0 0,8.5575 -0.77,0 c -0.28,0 -0.7175,0 -0.7175,0.5425 0,0.525 0.455,0.525 0.7,0.525 l 2.7825,0 c 0.245,0 0.7,0 0.7,-0.525 0,-0.5425 -0.4375,-0.5425 -0.7175,-0.5425 l -0.77,0 0,-3.0975 c 0,-1.75 1.295,-2.415 2.1875,-2.415 0.9275,0 1.1725,0.49 1.1725,1.54 l 0,3.9725 -0.6825,0 c -0.28,0 -0.7175,0 -0.7175,0.5425 0,0.525 0.4725,0.525 0.7175,0.525 l 2.6775,0 c 0.245,0 0.7,0 0.7,-0.525 z" />
    <path
       inkscape:connector-curvature="0"
       id="path13595"
       style="font-style:normal;font-variant:normal;font-weight:normal;font-stretch:normal;font-size:17.5px;line-height:125%;font-family:'Latin Modern Mono';-inkscape-font-specification:'Latin Modern Mono';letter-spacing:0px;word-spacing:0px;fill:#000000;fill-opacity:1;stroke:none;stroke-width:1px;stroke-linecap:butt;stroke-linejoin:miter;stroke-opacity:1"
       d="m 137.57318,871.86918 c 0,-0.525 -0.4375,-0.525 -0.7,-0.525 -0.735,0 -0.91,-0.0875 -1.05,-0.14 l 0,-3.78 c 0,-1.2425 -0.945,-2.7125 -3.465,-2.7125 -0.7525,0 -2.5375,0 -2.5375,1.2775 0,0.525 0.3675,0.805 0.7875,0.805 0.2625,0 0.7525,-0.1575 0.77,-0.805 0,-0.14 0.0175,-0.1575 0.3675,-0.1925 0.245,-0.0175 0.4725,-0.0175 0.63,-0.0175 1.33,0 2.24,0.5425 2.24,1.785 -3.0975,0.0525 -5.25,0.9275 -5.25,2.6075 0,1.2075 1.1025,2.345 2.8875,2.345 0.6475,0 1.7325,-0.1225 2.555,-0.665 0.385,0.5425 1.225,0.56 1.89,0.56 0.49,0 0.875,0 0.875,-0.5425 z m -2.9575,-1.8025 c 0,0.4025 0,0.77 -0.6825,1.085 -0.63,0.2975 -1.4175,0.2975 -1.5575,0.2975 -1.085,0 -1.8025,-0.595 -1.8025,-1.2775 0,-0.8575 1.505,-1.505 4.0425,-1.575 l 0,1.47 z" />
    <path
       inkscape:connector-curvature="0"
       id="path13597"
       style="font-style:normal;font-variant:normal;font-weight:normal;font-stretch:normal;font-size:17.5px;line-height:125%;font-family:'Latin Modern Mono';-inkscape-font-specification:'Latin Modern Mono';letter-spacing:0px;word-spacing:0px;fill:#000000;fill-opacity:1;stroke:none;stroke-width:1px;stroke-linecap:butt;stroke-linejoin:miter;stroke-opacity:1"
       d="m 146.22502,868.63168 c 0,-2.1525 -1.5575,-3.8675 -3.4125,-3.8675 -0.84,0 -1.6275,0.315 -2.2225,0.8575 0,-0.5075 -0.035,-0.7525 -0.7,-0.7525 l -1.2775,0 c -0.28,0 -0.7175,0 -0.7175,0.5425 0,0.525 0.455,0.525 0.7,0.525 l 0.7875,0 0,9.2925 -0.77,0 c -0.28,0 -0.7175,0 -0.7175,0.5425 0,0.525 0.455,0.525 0.7,0.525 l 2.7825,0 c 0.245,0 0.7,0 0.7,-0.525 0,-0.5425 -0.4375,-0.5425 -0.7175,-0.5425 l -0.77,0 0,-3.605 c 0.7175,0.735 1.47,0.8925 2.03,0.8925 1.9075,0 3.605,-1.6625 3.605,-3.885 z m -1.2075,0 c 0,1.68 -1.225,2.8175 -2.45,2.8175 -1.365,0 -1.9775,-1.54 -1.9775,-2.38 l 0,-1.2775 c 0,-1.0325 1.015,-1.96 2.1175,-1.96 1.295,0 2.31,1.2775 2.31,2.8 z" />
    <path
       inkscape:connector-curvature="0"
       id="path13599"
       style="font-style:normal;font-variant:normal;font-weight:normal;font-stretch:normal;font-size:17.5px;line-height:125%;font-family:'Latin Modern Mono';-inkscape-font-specification:'Latin Modern Mono';letter-spacing:0px;word-spacing:0px;fill:#000000;fill-opacity:1;stroke:none;stroke-width:1px;stroke-linecap:butt;stroke-linejoin:miter;stroke-opacity:1"
       d="m 154.99936,870.50418 c 0,-0.49 -0.5075,-0.49 -0.6125,-0.49 -0.315,0 -0.455,0.0525 -0.5775,0.385 -0.385,0.8925 -1.33,1.05 -1.82,1.05 -1.3125,0 -2.625,-0.875 -2.905,-2.38 l 5.215,0 c 0.3675,0 0.7,0 0.7,-0.6475 0,-1.995 -1.12,-3.71 -3.395,-3.71 -2.0825,0 -3.7625,1.75 -3.7625,3.9025 0,2.135 1.7675,3.9025 4.025,3.9025 2.31,0 3.1325,-1.575 3.1325,-2.0125 z m -1.2425,-2.485 -4.655,0 c 0.245,-1.2775 1.2775,-2.24 2.5025,-2.24 0.91,0 1.995,0.4375 2.1525,2.24 z" />
    <path
       inkscape:connector-curvature="0"
       id="path13602"
       style="font-style:normal;font-variant:normal;font-weight:normal;font-stretch:normal;font-size:17.5px;line-height:125%;font-family:'Latin Modern Mono';-inkscape-font-specification:'Latin Modern Mono';letter-spacing:0px;word-spacing:0px;fill:#000000;fill-opacity:1;stroke:none;stroke-width:1px;stroke-linecap:butt;stroke-linejoin:miter;stroke-opacity:1"
       d="m 111.7176,932.2012 c 0,-0.2275 -0.0875,-0.4025 -0.2975,-0.49 -0.105,-0.0525 -0.49,-0.0525 -0.7525,-0.0525 l -2.1175,-9.1525 c -0.1575,-0.665 -0.4025,-0.6825 -0.945,-0.6825 -0.5075,0 -0.7875,0 -0.945,0.665 l -2.1175,9.17 c -0.245,0 -0.6475,0 -0.7525,0.035 -0.1925,0.105 -0.2975,0.28 -0.2975,0.5075 0,0.525 0.455,0.525 0.7525,0.525 l 1.785,0 c 0.315,0 0.735,0 0.735,-0.525 0,-0.5425 -0.35,-0.5425 -0.98,-0.5425 l 0.4025,-1.82 2.835,0 0.4025,1.82 c -0.63,0 -0.98,0 -0.98,0.5425 0,0.525 0.42,0.525 0.735,0.525 l 1.785,0 c 0.2975,0 0.7525,0 0.7525,-0.525 z m -2.9575,-3.43 -2.31,0 1.155,-5.495 1.155,5.495 z" />
    <path
       inkscape:connector-curvature="0"
       id="path13604"
       style="font-style:normal;font-variant:normal;font-weight:normal;font-stretch:normal;font-size:17.5px;line-height:125%;font-family:'Latin Modern Mono';-inkscape-font-specification:'Latin Modern Mono';letter-spacing:0px;word-spacing:0px;fill:#000000;fill-opacity:1;stroke:none;stroke-width:1px;stroke-linecap:butt;stroke-linejoin:miter;stroke-opacity:1"
       d="m 129.05628,922.9787 c 0,-1.05 -1.4,-1.05 -1.68,-1.05 -1.4,0 -2.7475,0.805 -2.7475,2.3275 l 0,0.9275 -1.75,0 c -0.28,0 -0.7175,0 -0.7175,0.5425 0,0.525 0.4375,0.525 0.7,0.525 l 1.7675,0 0,5.4075 -1.7675,0 c -0.2625,0 -0.7175,0 -0.7175,0.525 0,0.5425 0.455,0.5425 0.7175,0.5425 l 4.7425,0 c 0.2625,0 0.7175,0 0.7175,-0.525 0,-0.5425 -0.455,-0.5425 -0.7175,-0.5425 l -1.7675,0 0,-5.4075 2.135,0 c 0.2625,0 0.7,0 0.7,-0.525 0,-0.5425 -0.42,-0.5425 -0.7,-0.5425 l -2.135,0 0,-0.8225 c 0,-1.365 1.1725,-1.365 1.6975,-1.365 0,0.07 0.1575,0.7525 0.77,0.7525 0.35,0 0.7525,-0.28 0.7525,-0.77 z" />
    <path
       inkscape:connector-curvature="0"
       id="path13606"
       style="font-style:normal;font-variant:normal;font-weight:normal;font-stretch:normal;font-size:17.5px;line-height:125%;font-family:'Latin Modern Mono';-inkscape-font-specification:'Latin Modern Mono';letter-spacing:0px;word-spacing:0px;fill:#000000;fill-opacity:1;stroke:none;stroke-width:1px;stroke-linecap:butt;stroke-linejoin:miter;stroke-opacity:1"
       d="m 139.63311,932.2012 c 0,-0.5425 -0.3675,-0.5425 -0.9975,-0.5425 l 0,-4.235 c 0,-0.35 0,-2.345 -1.5575,-2.345 -0.525,0 -1.2425,0.2275 -1.7325,0.91 -0.2625,-0.595 -0.7525,-0.91 -1.33,-0.91 -0.56,0 -1.085,0.245 -1.505,0.63 -0.035,-0.525 -0.385,-0.525 -0.7,-0.525 l -0.56,0 c -0.2625,0 -0.7175,0 -0.7175,0.525 0,0.5425 0.3675,0.5425 0.9975,0.5425 l 0,5.4075 c -0.63,0 -0.9975,0 -0.9975,0.5425 0,0.525 0.4725,0.525 0.7175,0.525 l 1.54,0 c 0.2625,0 0.7175,0 0.7175,-0.525 0,-0.5425 -0.3675,-0.5425 -0.9975,-0.5425 l 0,-3.1325 c 0,-1.5575 0.7175,-2.38 1.435,-2.38 0.4025,0 0.6475,0.2975 0.6475,1.435 l 0,4.0775 c -0.3325,0 -0.77,0 -0.77,0.5425 0,0.525 0.4725,0.525 0.7175,0.525 l 1.3125,0 c 0.2625,0 0.7175,0 0.7175,-0.525 0,-0.5425 -0.3675,-0.5425 -0.9975,-0.5425 l 0,-3.1325 c 0,-1.5575 0.7175,-2.38 1.435,-2.38 0.4025,0 0.6475,0.2975 0.6475,1.435 l 0,4.0775 c -0.3325,0 -0.77,0 -0.77,0.5425 0,0.525 0.4725,0.525 0.7175,0.525 l 1.3125,0 c 0.2625,0 0.7175,0 0.7175,-0.525 z" />
    <path
       inkscape:connector-curvature="0"
       id="path13609"
       style="font-style:normal;font-variant:normal;font-weight:normal;font-stretch:normal;font-size:17.5px;line-height:125%;font-family:'Latin Modern Mono';-inkscape-font-specification:'Latin Modern Mono';letter-spacing:0px;word-spacing:0px;fill:#000000;fill-opacity:1;stroke:none;stroke-width:1px;stroke-linecap:butt;stroke-linejoin:miter;stroke-opacity:1"
       d="m 210.04328,811.48399 c 0,-0.525 -0.4375,-0.525 -0.7,-0.525 -0.735,0 -0.91,-0.0875 -1.05,-0.14 l 0,-3.78 c 0,-1.2425 -0.945,-2.7125 -3.465,-2.7125 -0.7525,0 -2.5375,0 -2.5375,1.2775 0,0.525 0.3675,0.805 0.7875,0.805 0.2625,0 0.7525,-0.1575 0.77,-0.805 0,-0.14 0.0175,-0.1575 0.3675,-0.1925 0.245,-0.0175 0.4725,-0.0175 0.63,-0.0175 1.33,0 2.24,0.5425 2.24,1.785 -3.0975,0.0525 -5.25,0.9275 -5.25,2.6075 0,1.2075 1.1025,2.345 2.8875,2.345 0.6475,0 1.7325,-0.1225 2.555,-0.665 0.385,0.5425 1.225,0.56 1.89,0.56 0.49,0 0.875,0 0.875,-0.5425 z m -2.9575,-1.8025 c 0,0.4025 0,0.77 -0.6825,1.085 -0.63,0.2975 -1.4175,0.2975 -1.5575,0.2975 -1.085,0 -1.8025,-0.595 -1.8025,-1.2775 0,-0.8575 1.505,-1.505 4.0425,-1.575 l 0,1.47 z" />
    <path
       inkscape:connector-curvature="0"
       id="path13611"
       style="font-style:normal;font-variant:normal;font-weight:normal;font-stretch:normal;font-size:17.5px;line-height:125%;font-family:'Latin Modern Mono';-inkscape-font-specification:'Latin Modern Mono';letter-spacing:0px;word-spacing:0px;fill:#000000;fill-opacity:1;stroke:none;stroke-width:1px;stroke-linecap:butt;stroke-linejoin:miter;stroke-opacity:1"
       d="m 215.35262,812.65649 0,-11.9525 c 0,-0.21 0,-0.8225 -0.6125,-0.8225 -0.6125,0 -0.6125,0.6125 -0.6125,0.8225 l 0,11.9525 c 0,0.21 0,0.8225 0.6125,0.8225 0.6125,0 0.6125,-0.6125 0.6125,-0.8225 z" />
    <path
       inkscape:connector-curvature="0"
       id="path13613"
       style="font-style:normal;font-variant:normal;font-weight:normal;font-stretch:normal;font-size:17.5px;line-height:125%;font-family:'Latin Modern Mono';-inkscape-font-specification:'Latin Modern Mono';letter-spacing:0px;word-spacing:0px;fill:#000000;fill-opacity:1;stroke:none;stroke-width:1px;stroke-linecap:butt;stroke-linejoin:miter;stroke-opacity:1"
       d="m 227.88946,808.24649 c 0,-2.1525 -1.5575,-3.8675 -3.4125,-3.8675 -0.84,0 -1.6275,0.315 -2.2225,0.8575 l 0,-3.185 c 0,-0.5425 -0.105,-0.7175 -0.7,-0.7175 l -1.2775,0 c -0.28,0 -0.7175,0 -0.7175,0.5425 0,0.525 0.455,0.525 0.7,0.525 l 0.7875,0 0,8.9075 c 0,0.35 0,0.7175 0.6125,0.7175 0.595,0 0.595,-0.35 0.595,-0.7875 0.7175,0.735 1.47,0.8925 2.03,0.8925 1.9075,0 3.605,-1.6625 3.605,-3.885 z m -1.2075,0 c 0,1.68 -1.225,2.8175 -2.45,2.8175 -1.365,0 -1.9775,-1.54 -1.9775,-2.38 l 0,-1.2775 c 0,-1.0325 1.015,-1.96 2.1175,-1.96 1.295,0 2.31,1.2775 2.31,2.8 z" />
    <path
       inkscape:connector-curvature="0"
       id="path13616"
       style="font-style:normal;font-variant:normal;font-weight:normal;font-stretch:normal;font-size:17.5px;line-height:80.00000119%;font-family:'Latin Modern Mono';-inkscape-font-specification:'Latin Modern Mono';letter-spacing:0px;word-spacing:0px;fill:#000000;fill-opacity:1;stroke:none;stroke-width:1px;stroke-linecap:butt;stroke-linejoin:miter;stroke-opacity:1"
       d="m 243.08908,854.35793 c 0,-0.5425 -0.3675,-0.5425 -0.9975,-0.5425 l 0,-4.235 c 0,-0.35 0,-2.345 -1.5575,-2.345 -0.525,0 -1.2425,0.2275 -1.7325,0.91 -0.2625,-0.595 -0.7525,-0.91 -1.33,-0.91 -0.56,0 -1.085,0.245 -1.505,0.63 -0.035,-0.525 -0.385,-0.525 -0.7,-0.525 l -0.56,0 c -0.2625,0 -0.7175,0 -0.7175,0.525 0,0.5425 0.3675,0.5425 0.9975,0.5425 l 0,5.4075 c -0.63,0 -0.9975,0 -0.9975,0.5425 0,0.525 0.4725,0.525 0.7175,0.525 l 1.54,0 c 0.2625,0 0.7175,0 0.7175,-0.525 0,-0.5425 -0.3675,-0.5425 -0.9975,-0.5425 l 0,-3.1325 c 0,-1.5575 0.7175,-2.38 1.435,-2.38 0.4025,0 0.6475,0.2975 0.6475,1.435 l 0,4.0775 c -0.3325,0 -0.77,0 -0.77,0.5425 0,0.525 0.4725,0.525 0.7175,0.525 l 1.3125,0 c 0.2625,0 0.7175,0 0.7175,-0.525 0,-0.5425 -0.3675,-0.5425 -0.9975,-0.5425 l 0,-3.1325 c 0,-1.5575 0.7175,-2.38 1.435,-2.38 0.4025,0 0.6475,0.2975 0.6475,1.435 l 0,4.0775 c -0.3325,0 -0.77,0 -0.77,0.5425 0,0.525 0.4725,0.525 0.7175,0.525 l 1.3125,0 c 0.2625,0 0.7175,0 0.7175,-0.525 z" />
    <path
       inkscape:connector-curvature="0"
       id="path13618"
       style="font-style:normal;font-variant:normal;font-weight:normal;font-stretch:normal;font-size:17.5px;line-height:80.00000119%;font-family:'Latin Modern Mono';-inkscape-font-specification:'Latin Modern Mono';letter-spacing:0px;word-spacing:0px;fill:#000000;fill-opacity:1;stroke:none;stroke-width:1px;stroke-linecap:butt;stroke-linejoin:miter;stroke-opacity:1"
       d="m 251.21592,854.35793 c 0,-0.5425 -0.455,-0.5425 -0.7175,-0.5425 l -1.8375,0 0,-5.7575 c 0,-0.5425 -0.105,-0.7175 -0.7,-0.7175 l -2.485,0 c -0.2625,0 -0.7175,0 -0.7175,0.525 0,0.5425 0.455,0.5425 0.7175,0.5425 l 1.9775,0 0,5.4075 -2.1175,0 c -0.28,0 -0.7175,0 -0.7175,0.5425 0,0.525 0.455,0.525 0.7175,0.525 l 5.1625,0 c 0.2625,0 0.7175,0 0.7175,-0.525 z m -2.485,-9.1875 c 0,-0.49 -0.385,-0.875 -0.875,-0.875 -0.49,0 -0.875,0.385 -0.875,0.875 0,0.49 0.385,0.875 0.875,0.875 0.49,0 0.875,-0.385 0.875,-0.875 z" />
    <path
       inkscape:connector-curvature="0"
       id="path13620"
       style="font-style:normal;font-variant:normal;font-weight:normal;font-stretch:normal;font-size:17.5px;line-height:80.00000119%;font-family:'Latin Modern Mono';-inkscape-font-specification:'Latin Modern Mono';letter-spacing:0px;word-spacing:0px;fill:#000000;fill-opacity:1;stroke:none;stroke-width:1px;stroke-linecap:butt;stroke-linejoin:miter;stroke-opacity:1"
       d="m 261.12775,854.35793 c 0,-0.5425 -0.455,-0.5425 -0.7175,-0.5425 l -0.7,0 -2.24,-2.8175 1.995,-2.59 0.7,0 c 0.245,0 0.7175,0 0.7175,-0.525 0,-0.5425 -0.455,-0.5425 -0.7175,-0.5425 l -2.0475,0 c -0.2625,0 -0.7,0 -0.7,0.525 0,0.5425 0.385,0.5425 0.8575,0.5425 l -1.295,1.7675 -1.33,-1.7675 c 0.455,0 0.84,0 0.84,-0.5425 0,-0.525 -0.4375,-0.525 -0.7,-0.525 l -2.0475,0 c -0.2625,0 -0.7175,0 -0.7175,0.5425 0,0.525 0.4725,0.525 0.7175,0.525 l 0.7,0 2.065,2.59 -2.17,2.8175 -0.7,0 c -0.2625,0 -0.7175,0 -0.7175,0.5425 0,0.525 0.4725,0.525 0.7175,0.525 l 2.0475,0 c 0.2625,0 0.7,0 0.7,-0.525 0,-0.5425 -0.3675,-0.5425 -0.91,-0.5425 l 1.505,-2.1525 1.5575,2.1525 c -0.49,0 -0.875,0 -0.875,0.5425 0,0.525 0.4375,0.525 0.7,0.525 l 2.0475,0 c 0.245,0 0.7175,0 0.7175,-0.525 z" />
    <path
       inkscape:connector-curvature="0"
       id="path13622"
       style="font-style:normal;font-variant:normal;font-weight:normal;font-stretch:normal;font-size:17.5px;line-height:80.00000119%;font-family:'Latin Modern Mono';-inkscape-font-specification:'Latin Modern Mono';letter-spacing:0px;word-spacing:0px;fill:#000000;fill-opacity:1;stroke:none;stroke-width:1px;stroke-linecap:butt;stroke-linejoin:miter;stroke-opacity:1"
       d="m 250.98842,868.35793 c 0,-0.5425 -0.42,-0.5425 -0.7,-0.5425 l -1.5925,0 0,-9.1 c 0,-0.28 0,-0.7175 -0.525,-0.7175 -0.3325,0 -0.4375,0.21 -0.525,0.42 -0.665,1.4875 -1.575,1.68 -1.9075,1.715 -0.28,0.0175 -0.6475,0.0525 -0.6475,0.5425 0,0.4375 0.315,0.525 0.5775,0.525 0.3325,0 1.05,-0.105 1.82,-0.77 l 0,7.385 -1.5925,0 c -0.28,0 -0.7,0 -0.7,0.5425 0,0.525 0.4375,0.525 0.7,0.525 l 4.3925,0 c 0.2625,0 0.7,0 0.7,-0.525 z" />
    <path
       inkscape:connector-curvature="0"
       id="path13624"
       style="font-style:normal;font-variant:normal;font-weight:normal;font-stretch:normal;font-size:17.5px;line-height:80.00000119%;font-family:'Latin Modern Mono';-inkscape-font-specification:'Latin Modern Mono';letter-spacing:0px;word-spacing:0px;fill:#000000;fill-opacity:1;stroke:none;stroke-width:1px;stroke-linecap:butt;stroke-linejoin:miter;stroke-opacity:1"
       d="m 269.90209,868.16543 0,-0.455 c 0,-0.3325 0,-0.7175 -0.595,-0.7175 -0.6125,0 -0.6125,0.3325 -0.6125,0.8225 l -4.165,0 c 1.0325,-0.8925 2.7125,-2.205 3.465,-2.905 1.1025,-0.98 1.9075,-2.1 1.9075,-3.5 0,-2.1 -1.7675,-3.4125 -3.9025,-3.4125 -2.065,0 -3.4475,1.435 -3.4475,2.9225 0,0.6475 0.49,0.84 0.7875,0.84 0.3675,0 0.77,-0.2975 0.77,-0.7875 0,-0.21 -0.0875,-0.4375 -0.245,-0.56 0.2625,-0.805 1.085,-1.3475 2.0475,-1.3475 1.435,0 2.7825,0.805 2.7825,2.345 0,1.225 -0.8575,2.24 -2.0125,3.2025 l -3.8675,3.255 c -0.1575,0.14 -0.2625,0.2275 -0.2625,0.4725 0,0.5425 0.4375,0.5425 0.7175,0.5425 l 5.9325,0 c 0.5775,0 0.7,-0.1575 0.7,-0.7175 z" />
    <path
       inkscape:connector-curvature="0"
       id="path13627"
       style="font-style:normal;font-variant:normal;font-weight:normal;font-stretch:normal;font-size:17.5px;line-height:125%;font-family:'Latin Modern Mono';-inkscape-font-specification:'Latin Modern Mono';letter-spacing:0px;word-spacing:0px;fill:#000000;fill-opacity:1;stroke:none;stroke-width:1px;stroke-linecap:butt;stroke-linejoin:miter;stroke-opacity:1"
       d="m 277.81638,948.04131 c 0,-1.2075 -0.84,-2.345 -2.2575,-2.6775 1.12,-0.385 1.89,-1.295 1.89,-2.38 0,-1.2775 -1.0675,-2.7125 -3.01,-2.7125 l -3.955,0 c -0.245,0 -0.7,0 -0.7,0.525 0,0.5425 0.4375,0.5425 0.7175,0.5425 l 0.4725,0 0,8.5575 -0.4725,0 c -0.28,0 -0.7175,0 -0.7175,0.5425 0,0.525 0.455,0.525 0.7,0.525 l 4.305,0 c 1.9775,0 3.0275,-1.5575 3.0275,-2.9225 z m -1.575,-5.04 c 0,0.7175 -0.56,1.8725 -2.2575,1.8725 l -1.8025,0 0,-3.535 2.1875,0 c 1.4875,0 1.8725,1.085 1.8725,1.6625 z m 0.3675,5.005 c 0,0.8575 -0.6825,1.89 -2.205,1.89 l -2.2225,0 0,-3.955 2.415,0 c 1.4875,0 2.0125,1.2775 2.0125,2.065 z" />
    <path
       inkscape:connector-curvature="0"
       id="path13629"
       style="font-style:normal;font-variant:normal;font-weight:normal;font-stretch:normal;font-size:17.5px;line-height:125%;font-family:'Latin Modern Mono';-inkscape-font-specification:'Latin Modern Mono';letter-spacing:0px;word-spacing:0px;fill:#000000;fill-opacity:1;stroke:none;stroke-width:1px;stroke-linecap:butt;stroke-linejoin:miter;stroke-opacity:1"
       d="m 294.80005,952.43881 c 0,-0.5425 -0.3675,-0.5425 -0.9975,-0.5425 l 0,-4.235 c 0,-0.35 0,-2.345 -1.5575,-2.345 -0.525,0 -1.2425,0.2275 -1.7325,0.91 -0.2625,-0.595 -0.7525,-0.91 -1.33,-0.91 -0.56,0 -1.085,0.245 -1.505,0.63 -0.035,-0.525 -0.385,-0.525 -0.7,-0.525 l -0.56,0 c -0.2625,0 -0.7175,0 -0.7175,0.525 0,0.5425 0.3675,0.5425 0.9975,0.5425 l 0,5.4075 c -0.63,0 -0.9975,0 -0.9975,0.5425 0,0.525 0.4725,0.525 0.7175,0.525 l 1.54,0 c 0.2625,0 0.7175,0 0.7175,-0.525 0,-0.5425 -0.3675,-0.5425 -0.9975,-0.5425 l 0,-3.1325 c 0,-1.5575 0.7175,-2.38 1.435,-2.38 0.4025,0 0.6475,0.2975 0.6475,1.435 l 0,4.0775 c -0.3325,0 -0.77,0 -0.77,0.5425 0,0.525 0.4725,0.525 0.7175,0.525 l 1.3125,0 c 0.2625,0 0.7175,0 0.7175,-0.525 0,-0.5425 -0.3675,-0.5425 -0.9975,-0.5425 l 0,-3.1325 c 0,-1.5575 0.7175,-2.38 1.435,-2.38 0.4025,0 0.6475,0.2975 0.6475,1.435 l 0,4.0775 c -0.3325,0 -0.77,0 -0.77,0.5425 0,0.525 0.4725,0.525 0.7175,0.525 l 1.3125,0 c 0.2625,0 0.7175,0 0.7175,-0.525 z" />
    <path
       inkscape:connector-curvature="0"
       id="path13631"
       style="font-style:normal;font-variant:normal;font-weight:normal;font-stretch:normal;font-size:17.5px;line-height:125%;font-family:'Latin Modern Mono';-inkscape-font-specification:'Latin Modern Mono';letter-spacing:0px;word-spacing:0px;fill:#000000;fill-opacity:1;stroke:none;stroke-width:1px;stroke-linecap:butt;stroke-linejoin:miter;stroke-opacity:1"
       d="m 303.13689,949.18381 c 0,-2.1875 -1.6275,-3.92 -3.5875,-3.92 -1.96,0 -3.5875,1.7325 -3.5875,3.92 0,2.2225 1.6625,3.885 3.5875,3.885 1.925,0 3.5875,-1.68 3.5875,-3.885 z m -1.2075,-0.1225 c 0,1.6275 -1.085,2.94 -2.38,2.94 -1.295,0 -2.38,-1.3125 -2.38,-2.94 0,-1.5925 1.1375,-2.73 2.38,-2.73 1.26,0 2.38,1.1375 2.38,2.73 z" />
    <path
       inkscape:connector-curvature="0"
       id="path13633"
       style="font-style:normal;font-variant:normal;font-weight:normal;font-stretch:normal;font-size:17.5px;line-height:125%;font-family:'Latin Modern Mono';-inkscape-font-specification:'Latin Modern Mono';letter-spacing:0px;word-spacing:0px;fill:#000000;fill-opacity:1;stroke:none;stroke-width:1px;stroke-linecap:butt;stroke-linejoin:miter;stroke-opacity:1"
       d="m 313.11872,952.42131 c 0,-0.525 -0.455,-0.525 -0.7,-0.525 l -0.7875,0 0,-8.9075 c 0,-0.5425 -0.105,-0.7175 -0.7,-0.7175 l -1.2775,0 c -0.28,0 -0.7175,0 -0.7175,0.5425 0,0.525 0.455,0.525 0.7,0.525 l 0.7875,0 0,2.765 c -0.5775,-0.5075 -1.295,-0.7875 -2.0475,-0.7875 -1.9075,0 -3.5875,1.6625 -3.5875,3.885 0,2.17 1.575,3.8675 3.43,3.8675 0.98,0 1.715,-0.4725 2.205,-0.98 0,0.63 0,0.875 0.7,0.875 l 1.2775,0 c 0.28,0 0.7175,0 0.7175,-0.5425 z m -2.695,-2.8525 c 0,0.98 -0.7875,2.4325 -2.135,2.4325 -1.2425,0 -2.2925,-1.2425 -2.2925,-2.8 0,-1.68 1.225,-2.8175 2.45,-2.8175 1.12,0 1.9775,0.98 1.9775,1.9425 l 0,1.2425 z" />
    <path
       inkscape:connector-curvature="0"
       id="path13635"
       style="font-style:normal;font-variant:normal;font-weight:normal;font-stretch:normal;font-size:17.5px;line-height:125%;font-family:'Latin Modern Mono';-inkscape-font-specification:'Latin Modern Mono';letter-spacing:0px;word-spacing:0px;fill:#000000;fill-opacity:1;stroke:none;stroke-width:1px;stroke-linecap:butt;stroke-linejoin:miter;stroke-opacity:1"
       d="m 321.04056,949.87881 c 0,-0.6475 -0.525,-1.1025 -1.085,-1.1025 -0.665,0 -1.1025,0.5425 -1.1025,1.085 0,0.6475 0.525,1.1025 1.085,1.1025 0.665,0 1.1025,-0.5425 1.1025,-1.085 z" />
    <path
       inkscape:connector-curvature="0"
       id="path13638"
       style="font-style:normal;font-variant:normal;font-weight:normal;font-stretch:normal;font-size:17.5px;line-height:100%;font-family:'Latin Modern Mono';-inkscape-font-specification:'Latin Modern Mono';letter-spacing:0px;word-spacing:0px;fill:#000000;fill-opacity:1;stroke:none;stroke-width:1px;stroke-linecap:butt;stroke-linejoin:miter;stroke-opacity:1"
       d="m 286.32991,828.60823 c 0,-2.8 -1.505,-5.425 -3.8325,-5.425 l -3.605,0 c -0.28,0 -0.7175,0 -0.7175,0.5425 0,0.525 0.455,0.525 0.7175,0.525 l 0.385,0 0,8.5575 -0.385,0 c -0.28,0 -0.7175,0 -0.7175,0.5425 0,0.525 0.455,0.525 0.7175,0.525 l 3.605,0 c 2.2925,0 3.8325,-2.45 3.8325,-5.2675 z m -1.2075,0 c 0,2.0475 -1.015,4.2 -2.9575,4.2 l -1.68,0 0,-8.5575 1.68,0 c 1.9775,0 2.9575,2.3275 2.9575,4.3575 z" />
    <path
       inkscape:connector-curvature="0"
       id="path13640"
       style="font-style:normal;font-variant:normal;font-weight:normal;font-stretch:normal;font-size:17.5px;line-height:100%;font-family:'Latin Modern Mono';-inkscape-font-specification:'Latin Modern Mono';letter-spacing:0px;word-spacing:0px;fill:#000000;fill-opacity:1;stroke:none;stroke-width:1px;stroke-linecap:butt;stroke-linejoin:miter;stroke-opacity:1"
       d="m 294.99924,833.35073 c 0,-0.5425 -0.455,-0.5425 -0.7175,-0.5425 l -1.8375,0 0,-5.7575 c 0,-0.5425 -0.105,-0.7175 -0.7,-0.7175 l -2.485,0 c -0.2625,0 -0.7175,0 -0.7175,0.525 0,0.5425 0.455,0.5425 0.7175,0.5425 l 1.9775,0 0,5.4075 -2.1175,0 c -0.28,0 -0.7175,0 -0.7175,0.5425 0,0.525 0.455,0.525 0.7175,0.525 l 5.1625,0 c 0.2625,0 0.7175,0 0.7175,-0.525 z m -2.485,-9.1875 c 0,-0.49 -0.385,-0.875 -0.875,-0.875 -0.49,0 -0.875,0.385 -0.875,0.875 0,0.49 0.385,0.875 0.875,0.875 0.49,0 0.875,-0.385 0.875,-0.875 z" />
    <path
       inkscape:connector-curvature="0"
       id="path13642"
       style="font-style:normal;font-variant:normal;font-weight:normal;font-stretch:normal;font-size:17.5px;line-height:100%;font-family:'Latin Modern Mono';-inkscape-font-specification:'Latin Modern Mono';letter-spacing:0px;word-spacing:0px;fill:#000000;fill-opacity:1;stroke:none;stroke-width:1px;stroke-linecap:butt;stroke-linejoin:miter;stroke-opacity:1"
       d="m 304.98108,826.87573 c 0,-0.5425 -0.42,-0.5425 -0.7,-0.5425 l -2.0475,0 c -0.2625,0 -0.7,0 -0.7,0.525 0,0.5425 0.42,0.5425 0.7,0.5425 l 0.49,0 -1.9075,5.635 -1.9075,-5.635 0.49,0 c 0.2625,0 0.7,0 0.7,-0.525 0,-0.5425 -0.42,-0.5425 -0.7,-0.5425 l -2.0475,0 c -0.28,0 -0.7,0 -0.7,0.5425 0,0.525 0.4375,0.525 0.7,0.525 l 0.525,0 2.0125,5.95 c 0.21,0.595 0.56,0.595 0.9275,0.595 0.3325,0 0.735,0 0.9275,-0.5775 l 2.0125,-5.9675 0.525,0 c 0.2625,0 0.7,0 0.7,-0.525 z" />
    <path
       inkscape:connector-curvature="0"
       id="path13644"
       style="font-style:normal;font-variant:normal;font-weight:normal;font-stretch:normal;font-size:17.5px;line-height:100%;font-family:'Latin Modern Mono';-inkscape-font-specification:'Latin Modern Mono';letter-spacing:0px;word-spacing:0px;fill:#000000;fill-opacity:1;stroke:none;stroke-width:1px;stroke-linecap:butt;stroke-linejoin:miter;stroke-opacity:1"
       d="m 313.45792,831.68823 c 0,-1.82 -2.2575,-2.1875 -2.8175,-2.275 l -1.19,-0.21 c -0.5075,-0.07 -1.6975,-0.28 -1.6975,-0.9625 0,-0.455 0.56,-0.9975 2.2225,-0.9975 1.4525,0 1.6975,0.525 1.75,0.98 0.0175,0.2975 0.0525,0.595 0.595,0.595 0.6125,0 0.6125,-0.3675 0.6125,-0.7175 l 0,-1.2075 c 0,-0.28 0,-0.7175 -0.525,-0.7175 -0.42,0 -0.49,0.245 -0.525,0.3675 -0.77,-0.3675 -1.54,-0.3675 -1.8725,-0.3675 -2.9225,0 -3.325,1.435 -3.325,2.065 0,1.61 1.8375,1.9075 3.4475,2.1525 0.8575,0.14 2.2575,0.3675 2.2575,1.295 0,0.6475 -0.6475,1.225 -2.24,1.225 -0.8225,0 -1.8025,-0.1925 -2.24,-1.5575 -0.0875,-0.315 -0.1575,-0.5075 -0.6125,-0.5075 -0.6125,0 -0.6125,0.3675 -0.6125,0.7175 l 0,1.6975 c 0,0.28 0,0.7175 0.525,0.7175 0.1575,0 0.4375,-0.0175 0.6475,-0.665 0.8575,0.63 1.785,0.665 2.275,0.665 2.765,0 3.325,-1.4525 3.325,-2.2925 z" />
    <path
       inkscape:connector-curvature="0"
       id="path13646"
       style="font-style:normal;font-variant:normal;font-weight:normal;font-stretch:normal;font-size:17.5px;line-height:100%;font-family:'Latin Modern Mono';-inkscape-font-specification:'Latin Modern Mono';letter-spacing:0px;word-spacing:0px;fill:#000000;fill-opacity:1;stroke:none;stroke-width:1px;stroke-linecap:butt;stroke-linejoin:miter;stroke-opacity:1"
       d="m 320.30725,832.79073 c 0,-0.6475 -0.525,-1.1025 -1.085,-1.1025 -0.665,0 -1.1025,0.5425 -1.1025,1.085 0,0.6475 0.525,1.1025 1.085,1.1025 0.665,0 1.1025,-0.5425 1.1025,-1.085 z" />
    <path
       inkscape:connector-curvature="0"
       id="path13649"
       style="font-style:normal;font-variant:normal;font-weight:normal;font-stretch:normal;font-size:17.5px;line-height:100%;font-family:'Latin Modern Mono';-inkscape-font-specification:'Latin Modern Mono';letter-spacing:0px;word-spacing:0px;fill:#000000;fill-opacity:1;stroke:none;stroke-width:1px;stroke-linecap:butt;stroke-linejoin:miter;stroke-opacity:1"
       d="m 360.98891,1013.4232 0,-1.5575 c 0,-0.35 0,-0.7175 -0.595,-0.7175 -0.6125,0 -0.6125,0.35 -0.6125,0.7175 l 0,1.2075 -4.2175,0 0,-8.5575 0.98,0 c 0.245,0 0.7175,0 0.7175,-0.525 0,-0.5425 -0.455,-0.5425 -0.7175,-0.5425 l -2.835,0 c -0.28,0 -0.7,0 -0.7,0.5425 0,0.525 0.4375,0.525 0.7,0.525 l 0.6475,0 0,8.5575 -0.6475,0 c -0.28,0 -0.7,0 -0.7,0.5425 0,0.525 0.4375,0.525 0.7,0.525 l 6.58,0 c 0.5775,0 0.7,-0.1575 0.7,-0.7175 z" />
    <path
       inkscape:connector-curvature="0"
       id="path13651"
       style="font-style:normal;font-variant:normal;font-weight:normal;font-stretch:normal;font-size:17.5px;line-height:100%;font-family:'Latin Modern Mono';-inkscape-font-specification:'Latin Modern Mono';letter-spacing:0px;word-spacing:0px;fill:#000000;fill-opacity:1;stroke:none;stroke-width:1px;stroke-linecap:butt;stroke-linejoin:miter;stroke-opacity:1"
       d="m 369.29075,1004.3932 c 0,-1.05 -1.4,-1.05 -1.68,-1.05 -1.4,0 -2.7475,0.805 -2.7475,2.3275 l 0,0.9275 -1.75,0 c -0.28,0 -0.7175,0 -0.7175,0.5425 0,0.525 0.4375,0.525 0.7,0.525 l 1.7675,0 0,5.4075 -1.7675,0 c -0.2625,0 -0.7175,0 -0.7175,0.525 0,0.5425 0.455,0.5425 0.7175,0.5425 l 4.7425,0 c 0.2625,0 0.7175,0 0.7175,-0.525 0,-0.5425 -0.455,-0.5425 -0.7175,-0.5425 l -1.7675,0 0,-5.4075 2.135,0 c 0.2625,0 0.7,0 0.7,-0.525 0,-0.5425 -0.42,-0.5425 -0.7,-0.5425 l -2.135,0 0,-0.8225 c 0,-1.365 1.1725,-1.365 1.6975,-1.365 0,0.07 0.1575,0.7525 0.77,0.7525 0.35,0 0.7525,-0.28 0.7525,-0.77 z" />
    <path
       inkscape:connector-curvature="0"
       id="path13653"
       style="font-style:normal;font-variant:normal;font-weight:normal;font-stretch:normal;font-size:17.5px;line-height:100%;font-family:'Latin Modern Mono';-inkscape-font-specification:'Latin Modern Mono';letter-spacing:0px;word-spacing:0px;fill:#000000;fill-opacity:1;stroke:none;stroke-width:1px;stroke-linecap:butt;stroke-linejoin:miter;stroke-opacity:1"
       d="m 379.01009,1010.3607 c 0,-2.1875 -1.6275,-3.92 -3.5875,-3.92 -1.96,0 -3.5875,1.7325 -3.5875,3.92 0,2.2225 1.6625,3.885 3.5875,3.885 1.925,0 3.5875,-1.68 3.5875,-3.885 z m -1.2075,-0.1225 c 0,1.6275 -1.085,2.94 -2.38,2.94 -1.295,0 -2.38,-1.3125 -2.38,-2.94 0,-1.5925 1.1375,-2.73 2.38,-2.73 1.26,0 2.38,1.1375 2.38,2.73 z" />
    <path
       inkscape:connector-curvature="0"
       id="path13655"
       style="font-style:normal;font-variant:normal;font-weight:normal;font-stretch:normal;font-size:17.5px;line-height:100%;font-family:'Latin Modern Mono';-inkscape-font-specification:'Latin Modern Mono';letter-spacing:0px;word-spacing:0px;fill:#000000;fill-opacity:1;stroke:none;stroke-width:1px;stroke-linecap:butt;stroke-linejoin:miter;stroke-opacity:1"
       d="m 385.71942,1013.0557 c 0,-0.6475 -0.525,-1.1025 -1.085,-1.1025 -0.665,0 -1.1025,0.5425 -1.1025,1.085 0,0.6475 0.525,1.1025 1.085,1.1025 0.665,0 1.1025,-0.5425 1.1025,-1.085 z" />
    <path
       inkscape:connector-curvature="0"
       id="path13658"
       style="font-style:normal;font-variant:normal;font-weight:normal;font-stretch:normal;font-size:17.5px;line-height:100%;font-family:'Latin Modern Mono';-inkscape-font-specification:'Latin Modern Mono';letter-spacing:0px;word-spacing:0px;fill:#000000;fill-opacity:1;stroke:none;stroke-width:1px;stroke-linecap:butt;stroke-linejoin:miter;stroke-opacity:1"
       d="m 327.72052,1004.3804 c 0,-1.2075 -0.84,-2.345 -2.2575,-2.6775 1.12,-0.385 1.89,-1.295 1.89,-2.37998 0,-1.2775 -1.0675,-2.7125 -3.01,-2.7125 l -3.955,0 c -0.245,0 -0.7,0 -0.7,0.525 0,0.5425 0.4375,0.5425 0.7175,0.5425 l 0.4725,0 0,8.55748 -0.4725,0 c -0.28,0 -0.7175,0 -0.7175,0.5425 0,0.525 0.455,0.525 0.7,0.525 l 4.305,0 c 1.9775,0 3.0275,-1.5575 3.0275,-2.9225 z m -1.575,-5.03998 c 0,0.71748 -0.56,1.87248 -2.2575,1.87248 l -1.8025,0 0,-3.53498 2.1875,0 c 1.4875,0 1.8725,1.085 1.8725,1.6625 z m 0.3675,5.00498 c 0,0.8575 -0.6825,1.89 -2.205,1.89 l -2.2225,0 0,-3.955 2.415,0 c 1.4875,0 2.0125,1.2775 2.0125,2.065 z" />
    <path
       inkscape:connector-curvature="0"
       id="path13661"
       style="font-style:normal;font-variant:normal;font-weight:normal;font-stretch:normal;font-size:17.5px;line-height:100%;font-family:'Latin Modern Mono';-inkscape-font-specification:'Latin Modern Mono';letter-spacing:0px;word-spacing:0px;fill:#000000;fill-opacity:1;stroke:none;stroke-width:1px;stroke-linecap:butt;stroke-linejoin:miter;stroke-opacity:1"
       d="m 263.30484,1009.082 c 0,-1.2075 -0.84,-2.345 -2.2575,-2.6775 1.12,-0.385 1.89,-1.295 1.89,-2.38 0,-1.2775 -1.0675,-2.7125 -3.01,-2.7125 l -3.955,0 c -0.245,0 -0.7,0 -0.7,0.525 0,0.5425 0.4375,0.5425 0.7175,0.5425 l 0.4725,0 0,8.5575 -0.4725,0 c -0.28,0 -0.7175,0 -0.7175,0.5425 0,0.525 0.455,0.525 0.7,0.525 l 4.305,0 c 1.9775,0 3.0275,-1.5575 3.0275,-2.9225 z m -1.575,-5.04 c 0,0.7175 -0.56,1.8725 -2.2575,1.8725 l -1.8025,0 0,-3.535 2.1875,0 c 1.4875,0 1.8725,1.085 1.8725,1.6625 z m 0.3675,5.005 c 0,0.8575 -0.6825,1.89 -2.205,1.89 l -2.2225,0 0,-3.955 2.415,0 c 1.4875,0 2.0125,1.2775 2.0125,2.065 z" />
    <path
       inkscape:connector-curvature="0"
       id="path13663"
       style="font-style:normal;font-variant:normal;font-weight:normal;font-stretch:normal;font-size:17.5px;line-height:100%;font-family:'Latin Modern Mono';-inkscape-font-specification:'Latin Modern Mono';letter-spacing:0px;word-spacing:0px;fill:#000000;fill-opacity:1;stroke:none;stroke-width:1px;stroke-linecap:butt;stroke-linejoin:miter;stroke-opacity:1"
       d="m 274.90601,1006.257 c 0,-1.05 -1.4,-1.05 -1.68,-1.05 -1.4,0 -2.7475,0.805 -2.7475,2.3275 l 0,0.9275 -1.75,0 c -0.28,0 -0.7175,0 -0.7175,0.5425 0,0.525 0.4375,0.525 0.7,0.525 l 1.7675,0 0,5.4075 -1.7675,0 c -0.2625,0 -0.7175,0 -0.7175,0.525 0,0.5425 0.455,0.5425 0.7175,0.5425 l 4.7425,0 c 0.2625,0 0.7175,0 0.7175,-0.525 0,-0.5425 -0.455,-0.5425 -0.7175,-0.5425 l -1.7675,0 0,-5.4075 2.135,0 c 0.2625,0 0.7,0 0.7,-0.525 0,-0.5425 -0.42,-0.5425 -0.7,-0.5425 l -2.135,0 0,-0.8225 c 0,-1.365 1.1725,-1.365 1.6975,-1.365 0,0.07 0.1575,0.7525 0.77,0.7525 0.35,0 0.7525,-0.28 0.7525,-0.77 z" />
    <path
       inkscape:connector-curvature="0"
       id="path13665"
       style="font-style:normal;font-variant:normal;font-weight:normal;font-stretch:normal;font-size:17.5px;line-height:100%;font-family:'Latin Modern Mono';-inkscape-font-specification:'Latin Modern Mono';letter-spacing:0px;word-spacing:0px;fill:#000000;fill-opacity:1;stroke:none;stroke-width:1px;stroke-linecap:butt;stroke-linejoin:miter;stroke-opacity:1"
       d="m 284.41535,1015.4795 c 0,-0.5425 -0.455,-0.5425 -0.7175,-0.5425 l -1.8375,0 0,-5.7575 c 0,-0.5425 -0.105,-0.7175 -0.7,-0.7175 l -2.485,0 c -0.2625,0 -0.7175,0 -0.7175,0.525 0,0.5425 0.455,0.5425 0.7175,0.5425 l 1.9775,0 0,5.4075 -2.1175,0 c -0.28,0 -0.7175,0 -0.7175,0.5425 0,0.525 0.455,0.525 0.7175,0.525 l 5.1625,0 c 0.2625,0 0.7175,0 0.7175,-0.525 z m -2.485,-9.1875 c 0,-0.49 -0.385,-0.875 -0.875,-0.875 -0.49,0 -0.875,0.385 -0.875,0.875 0,0.49 0.385,0.875 0.875,0.875 0.49,0 0.875,-0.385 0.875,-0.875 z" />
    <path
       inkscape:connector-curvature="0"
       id="path13667"
       style="font-style:normal;font-variant:normal;font-weight:normal;font-stretch:normal;font-size:17.5px;line-height:100%;font-family:'Latin Modern Mono';-inkscape-font-specification:'Latin Modern Mono';letter-spacing:0px;word-spacing:0px;fill:#000000;fill-opacity:1;stroke:none;stroke-width:1px;stroke-linecap:butt;stroke-linejoin:miter;stroke-opacity:1"
       d="m 293.81969,1015.4795 c 0,-0.5425 -0.42,-0.5425 -0.7,-0.5425 l -2.275,0 0,-8.9075 c 0,-0.5425 -0.105,-0.7175 -0.7,-0.7175 l -2.765,0 c -0.28,0 -0.7175,0 -0.7175,0.5425 0,0.525 0.455,0.525 0.7,0.525 l 2.275,0 0,8.5575 -2.2575,0 c -0.28,0 -0.7175,0 -0.7175,0.5425 0,0.525 0.455,0.525 0.7,0.525 l 5.7575,0 c 0.2625,0 0.7,0 0.7,-0.525 z" />
    <path
       inkscape:connector-curvature="0"
       id="path13669"
       style="font-style:normal;font-variant:normal;font-weight:normal;font-stretch:normal;font-size:17.5px;line-height:100%;font-family:'Latin Modern Mono';-inkscape-font-specification:'Latin Modern Mono';letter-spacing:0px;word-spacing:0px;fill:#000000;fill-opacity:1;stroke:none;stroke-width:1px;stroke-linecap:butt;stroke-linejoin:miter;stroke-opacity:1"
       d="m 302.69902,1013.7995 c 0,-0.315 0,-0.6825 -0.6125,-0.6825 -0.5775,0 -0.595,0.3675 -0.595,0.665 -0.0175,1.085 -1.015,1.26 -1.4175,1.26 -1.3475,0 -1.3475,-0.91 -1.3475,-1.3475 l 0,-4.165 2.87,0 c 0.2625,0 0.7,0 0.7,-0.525 0,-0.5425 -0.42,-0.5425 -0.7,-0.5425 l -2.87,0 0,-1.435 c 0,-0.3325 0,-0.7175 -0.595,-0.7175 -0.6125,0 -0.6125,0.3675 -0.6125,0.7175 l 0,1.435 -1.5225,0 c -0.28,0 -0.7175,0 -0.7175,0.5425 0,0.525 0.4375,0.525 0.7,0.525 l 1.54,0 0,4.27 c 0,1.68 1.19,2.31 2.4675,2.31 1.295,0 2.7125,-0.7525 2.7125,-2.31 z" />
    <path
       inkscape:connector-curvature="0"
       id="path13672"
       style="font-style:normal;font-variant:normal;font-weight:normal;font-stretch:normal;font-size:17.5px;line-height:100%;font-family:'Latin Modern Mono';-inkscape-font-specification:'Latin Modern Mono';letter-spacing:0px;word-spacing:0px;fill:#000000;fill-opacity:1;stroke:none;stroke-width:1px;stroke-linecap:butt;stroke-linejoin:miter;stroke-opacity:1"
       d="m 209.99976,1004.2041 c 0,-0.5425 -0.3675,-0.5425 -0.9975,-0.5425 l 0,-4.23497 c 0,-0.35 0,-2.345 -1.5575,-2.345 -0.525,0 -1.2425,0.2275 -1.7325,0.91 -0.2625,-0.595 -0.7525,-0.91 -1.33,-0.91 -0.56,0 -1.085,0.245 -1.505,0.63 -0.035,-0.525 -0.385,-0.525 -0.7,-0.525 l -0.56,0 c -0.2625,0 -0.7175,0 -0.7175,0.525 0,0.5425 0.3675,0.5425 0.9975,0.5425 l 0,5.40747 c -0.63,0 -0.9975,0 -0.9975,0.5425 0,0.525 0.4725,0.525 0.7175,0.525 l 1.54,0 c 0.2625,0 0.7175,0 0.7175,-0.525 0,-0.5425 -0.3675,-0.5425 -0.9975,-0.5425 l 0,-3.1325 c 0,-1.55747 0.7175,-2.37997 1.435,-2.37997 0.4025,0 0.6475,0.2975 0.6475,1.435 l 0,4.07747 c -0.3325,0 -0.77,0 -0.77,0.5425 0,0.525 0.4725,0.525 0.7175,0.525 l 1.3125,0 c 0.2625,0 0.7175,0 0.7175,-0.525 0,-0.5425 -0.3675,-0.5425 -0.9975,-0.5425 l 0,-3.1325 c 0,-1.55747 0.7175,-2.37997 1.435,-2.37997 0.4025,0 0.6475,0.2975 0.6475,1.435 l 0,4.07747 c -0.3325,0 -0.77,0 -0.77,0.5425 0,0.525 0.4725,0.525 0.7175,0.525 l 1.3125,0 c 0.2625,0 0.7175,0 0.7175,-0.525 z" />
    <path
       inkscape:connector-curvature="0"
       id="path13674"
       style="font-style:normal;font-variant:normal;font-weight:normal;font-stretch:normal;font-size:17.5px;line-height:100%;font-family:'Latin Modern Mono';-inkscape-font-specification:'Latin Modern Mono';letter-spacing:0px;word-spacing:0px;fill:#000000;fill-opacity:1;stroke:none;stroke-width:1px;stroke-linecap:butt;stroke-linejoin:miter;stroke-opacity:1"
       d="m 218.12659,1004.2041 c 0,-0.5425 -0.455,-0.5425 -0.7175,-0.5425 l -1.8375,0 0,-5.75747 c 0,-0.5425 -0.105,-0.7175 -0.7,-0.7175 l -2.485,0 c -0.2625,0 -0.7175,0 -0.7175,0.525 0,0.5425 0.455,0.5425 0.7175,0.5425 l 1.9775,0 0,5.40747 -2.1175,0 c -0.28,0 -0.7175,0 -0.7175,0.5425 0,0.525 0.455,0.525 0.7175,0.525 l 5.1625,0 c 0.2625,0 0.7175,0 0.7175,-0.525 z m -2.485,-9.18747 c 0,-0.49 -0.385,-0.875 -0.875,-0.875 -0.49,0 -0.875,0.385 -0.875,0.875 0,0.49 0.385,0.875 0.875,0.875 0.49,0 0.875,-0.385 0.875,-0.875 z" />
    <path
       inkscape:connector-curvature="0"
       id="path13676"
       style="font-style:normal;font-variant:normal;font-weight:normal;font-stretch:normal;font-size:17.5px;line-height:100%;font-family:'Latin Modern Mono';-inkscape-font-specification:'Latin Modern Mono';letter-spacing:0px;word-spacing:0px;fill:#000000;fill-opacity:1;stroke:none;stroke-width:1px;stroke-linecap:butt;stroke-linejoin:miter;stroke-opacity:1"
       d="m 228.03843,1004.2041 c 0,-0.5425 -0.455,-0.5425 -0.7175,-0.5425 l -0.7,0 -2.24,-2.8175 1.995,-2.58997 0.7,0 c 0.245,0 0.7175,0 0.7175,-0.525 0,-0.5425 -0.455,-0.5425 -0.7175,-0.5425 l -2.0475,0 c -0.2625,0 -0.7,0 -0.7,0.525 0,0.5425 0.385,0.5425 0.8575,0.5425 l -1.295,1.76747 -1.33,-1.76747 c 0.455,0 0.84,0 0.84,-0.5425 0,-0.525 -0.4375,-0.525 -0.7,-0.525 l -2.0475,0 c -0.2625,0 -0.7175,0 -0.7175,0.5425 0,0.525 0.4725,0.525 0.7175,0.525 l 0.7,0 2.065,2.58997 -2.17,2.8175 -0.7,0 c -0.2625,0 -0.7175,0 -0.7175,0.5425 0,0.525 0.4725,0.525 0.7175,0.525 l 2.0475,0 c 0.2625,0 0.7,0 0.7,-0.525 0,-0.5425 -0.3675,-0.5425 -0.91,-0.5425 l 1.505,-2.1525 1.5575,2.1525 c -0.49,0 -0.875,0 -0.875,0.5425 0,0.525 0.4375,0.525 0.7,0.525 l 2.0475,0 c 0.245,0 0.7175,0 0.7175,-0.525 z" />
    <path
       inkscape:connector-curvature="0"
       id="path13679"
       style="font-style:normal;font-variant:normal;font-weight:normal;font-stretch:normal;font-size:17.5px;line-height:100%;font-family:'Latin Modern Mono';-inkscape-font-specification:'Latin Modern Mono';letter-spacing:0px;word-spacing:0px;fill:#000000;fill-opacity:1;stroke:none;stroke-width:1px;stroke-linecap:butt;stroke-linejoin:miter;stroke-opacity:1"
       d="m 372.33084,864.94937 c 0,-0.5425 -0.3675,-0.5425 -0.9975,-0.5425 l 0,-4.235 c 0,-0.35 0,-2.345 -1.5575,-2.345 -0.525,0 -1.2425,0.2275 -1.7325,0.91 -0.2625,-0.595 -0.7525,-0.91 -1.33,-0.91 -0.56,0 -1.085,0.245 -1.505,0.63 -0.035,-0.525 -0.385,-0.525 -0.7,-0.525 l -0.56,0 c -0.2625,0 -0.7175,0 -0.7175,0.525 0,0.5425 0.3675,0.5425 0.9975,0.5425 l 0,5.4075 c -0.63,0 -0.9975,0 -0.9975,0.5425 0,0.525 0.4725,0.525 0.7175,0.525 l 1.54,0 c 0.2625,0 0.7175,0 0.7175,-0.525 0,-0.5425 -0.3675,-0.5425 -0.9975,-0.5425 l 0,-3.1325 c 0,-1.5575 0.7175,-2.38 1.435,-2.38 0.4025,0 0.6475,0.2975 0.6475,1.435 l 0,4.0775 c -0.3325,0 -0.77,0 -0.77,0.5425 0,0.525 0.4725,0.525 0.7175,0.525 l 1.3125,0 c 0.2625,0 0.7175,0 0.7175,-0.525 0,-0.5425 -0.3675,-0.5425 -0.9975,-0.5425 l 0,-3.1325 c 0,-1.5575 0.7175,-2.38 1.435,-2.38 0.4025,0 0.6475,0.2975 0.6475,1.435 l 0,4.0775 c -0.3325,0 -0.77,0 -0.77,0.5425 0,0.525 0.4725,0.525 0.7175,0.525 l 1.3125,0 c 0.2625,0 0.7175,0 0.7175,-0.525 z" />
    <path
       inkscape:connector-curvature="0"
       id="path13681"
       style="font-style:normal;font-variant:normal;font-weight:normal;font-stretch:normal;font-size:17.5px;line-height:100%;font-family:'Latin Modern Mono';-inkscape-font-specification:'Latin Modern Mono';letter-spacing:0px;word-spacing:0px;fill:#000000;fill-opacity:1;stroke:none;stroke-width:1px;stroke-linecap:butt;stroke-linejoin:miter;stroke-opacity:1"
       d="m 380.45768,864.94937 c 0,-0.5425 -0.455,-0.5425 -0.7175,-0.5425 l -1.8375,0 0,-5.7575 c 0,-0.5425 -0.105,-0.7175 -0.7,-0.7175 l -2.485,0 c -0.2625,0 -0.7175,0 -0.7175,0.525 0,0.5425 0.455,0.5425 0.7175,0.5425 l 1.9775,0 0,5.4075 -2.1175,0 c -0.28,0 -0.7175,0 -0.7175,0.5425 0,0.525 0.455,0.525 0.7175,0.525 l 5.1625,0 c 0.2625,0 0.7175,0 0.7175,-0.525 z m -2.485,-9.1875 c 0,-0.49 -0.385,-0.875 -0.875,-0.875 -0.49,0 -0.875,0.385 -0.875,0.875 0,0.49 0.385,0.875 0.875,0.875 0.49,0 0.875,-0.385 0.875,-0.875 z" />
    <path
       inkscape:connector-curvature="0"
       id="path13683"
       style="font-style:normal;font-variant:normal;font-weight:normal;font-stretch:normal;font-size:17.5px;line-height:100%;font-family:'Latin Modern Mono';-inkscape-font-specification:'Latin Modern Mono';letter-spacing:0px;word-spacing:0px;fill:#000000;fill-opacity:1;stroke:none;stroke-width:1px;stroke-linecap:butt;stroke-linejoin:miter;stroke-opacity:1"
       d="m 390.36951,864.94937 c 0,-0.5425 -0.455,-0.5425 -0.7175,-0.5425 l -0.7,0 -2.24,-2.8175 1.995,-2.59 0.7,0 c 0.245,0 0.7175,0 0.7175,-0.525 0,-0.5425 -0.455,-0.5425 -0.7175,-0.5425 l -2.0475,0 c -0.2625,0 -0.7,0 -0.7,0.525 0,0.5425 0.385,0.5425 0.8575,0.5425 l -1.295,1.7675 -1.33,-1.7675 c 0.455,0 0.84,0 0.84,-0.5425 0,-0.525 -0.4375,-0.525 -0.7,-0.525 l -2.0475,0 c -0.2625,0 -0.7175,0 -0.7175,0.5425 0,0.525 0.4725,0.525 0.7175,0.525 l 0.7,0 2.065,2.59 -2.17,2.8175 -0.7,0 c -0.2625,0 -0.7175,0 -0.7175,0.5425 0,0.525 0.4725,0.525 0.7175,0.525 l 2.0475,0 c 0.2625,0 0.7,0 0.7,-0.525 0,-0.5425 -0.3675,-0.5425 -0.91,-0.5425 l 1.505,-2.1525 1.5575,2.1525 c -0.49,0 -0.875,0 -0.875,0.5425 0,0.525 0.4375,0.525 0.7,0.525 l 2.0475,0 c 0.245,0 0.7175,0 0.7175,-0.525 z" />
    <path
       inkscape:connector-curvature="0"
       id="path13685"
       style="font-style:normal;font-variant:normal;font-weight:normal;font-stretch:normal;font-size:17.5px;line-height:100%;font-family:'Latin Modern Mono';-inkscape-font-specification:'Latin Modern Mono';letter-spacing:0px;word-spacing:0px;fill:#000000;fill-opacity:1;stroke:none;stroke-width:1px;stroke-linecap:butt;stroke-linejoin:miter;stroke-opacity:1"
       d="m 408.56569,860.20687 c 0,-2.8 -1.505,-5.425 -3.8325,-5.425 l -3.605,0 c -0.28,0 -0.7175,0 -0.7175,0.5425 0,0.525 0.455,0.525 0.7175,0.525 l 0.385,0 0,8.5575 -0.385,0 c -0.28,0 -0.7175,0 -0.7175,0.5425 0,0.525 0.455,0.525 0.7175,0.525 l 3.605,0 c 2.2925,0 3.8325,-2.45 3.8325,-5.2675 z m -1.2075,0 c 0,2.0475 -1.015,4.2 -2.9575,4.2 l -1.68,0 0,-8.5575 1.68,0 c 1.9775,0 2.9575,2.3275 2.9575,4.3575 z" />
    <path
       inkscape:connector-curvature="0"
       id="path13687"
       style="font-style:normal;font-variant:normal;font-weight:normal;font-stretch:normal;font-size:17.5px;line-height:100%;font-family:'Latin Modern Mono';-inkscape-font-specification:'Latin Modern Mono';letter-spacing:0px;word-spacing:0px;fill:#000000;fill-opacity:1;stroke:none;stroke-width:1px;stroke-linecap:butt;stroke-linejoin:miter;stroke-opacity:1"
       d="m 417.23502,864.94937 c 0,-0.5425 -0.455,-0.5425 -0.7175,-0.5425 l -1.8375,0 0,-5.7575 c 0,-0.5425 -0.105,-0.7175 -0.7,-0.7175 l -2.485,0 c -0.2625,0 -0.7175,0 -0.7175,0.525 0,0.5425 0.455,0.5425 0.7175,0.5425 l 1.9775,0 0,5.4075 -2.1175,0 c -0.28,0 -0.7175,0 -0.7175,0.5425 0,0.525 0.455,0.525 0.7175,0.525 l 5.1625,0 c 0.2625,0 0.7175,0 0.7175,-0.525 z m -2.485,-9.1875 c 0,-0.49 -0.385,-0.875 -0.875,-0.875 -0.49,0 -0.875,0.385 -0.875,0.875 0,0.49 0.385,0.875 0.875,0.875 0.49,0 0.875,-0.385 0.875,-0.875 z" />
    <path
       inkscape:connector-curvature="0"
       id="path13689"
       style="font-style:normal;font-variant:normal;font-weight:normal;font-stretch:normal;font-size:17.5px;line-height:100%;font-family:'Latin Modern Mono';-inkscape-font-specification:'Latin Modern Mono';letter-spacing:0px;word-spacing:0px;fill:#000000;fill-opacity:1;stroke:none;stroke-width:1px;stroke-linecap:butt;stroke-linejoin:miter;stroke-opacity:1"
       d="m 427.21686,858.47437 c 0,-0.5425 -0.42,-0.5425 -0.7,-0.5425 l -2.0475,0 c -0.2625,0 -0.7,0 -0.7,0.525 0,0.5425 0.42,0.5425 0.7,0.5425 l 0.49,0 -1.9075,5.635 -1.9075,-5.635 0.49,0 c 0.2625,0 0.7,0 0.7,-0.525 0,-0.5425 -0.42,-0.5425 -0.7,-0.5425 l -2.0475,0 c -0.28,0 -0.7,0 -0.7,0.5425 0,0.525 0.4375,0.525 0.7,0.525 l 0.525,0 2.0125,5.95 c 0.21,0.595 0.56,0.595 0.9275,0.595 0.3325,0 0.735,0 0.9275,-0.5775 l 2.0125,-5.9675 0.525,0 c 0.2625,0 0.7,0 0.7,-0.525 z" />
    <path
       inkscape:connector-curvature="0"
       id="path13691"
       style="font-style:normal;font-variant:normal;font-weight:normal;font-stretch:normal;font-size:17.5px;line-height:100%;font-family:'Latin Modern Mono';-inkscape-font-specification:'Latin Modern Mono';letter-spacing:0px;word-spacing:0px;fill:#000000;fill-opacity:1;stroke:none;stroke-width:1px;stroke-linecap:butt;stroke-linejoin:miter;stroke-opacity:1"
       d="m 435.69369,863.28687 c 0,-1.82 -2.2575,-2.1875 -2.8175,-2.275 l -1.19,-0.21 c -0.5075,-0.07 -1.6975,-0.28 -1.6975,-0.9625 0,-0.455 0.56,-0.9975 2.2225,-0.9975 1.4525,0 1.6975,0.525 1.75,0.98 0.0175,0.2975 0.0525,0.595 0.595,0.595 0.6125,0 0.6125,-0.3675 0.6125,-0.7175 l 0,-1.2075 c 0,-0.28 0,-0.7175 -0.525,-0.7175 -0.42,0 -0.49,0.245 -0.525,0.3675 -0.77,-0.3675 -1.54,-0.3675 -1.8725,-0.3675 -2.9225,0 -3.325,1.435 -3.325,2.065 0,1.61 1.8375,1.9075 3.4475,2.1525 0.8575,0.14 2.2575,0.3675 2.2575,1.295 0,0.6475 -0.6475,1.225 -2.24,1.225 -0.8225,0 -1.8025,-0.1925 -2.24,-1.5575 -0.0875,-0.315 -0.1575,-0.5075 -0.6125,-0.5075 -0.6125,0 -0.6125,0.3675 -0.6125,0.7175 l 0,1.6975 c 0,0.28 0,0.7175 0.525,0.7175 0.1575,0 0.4375,-0.0175 0.6475,-0.665 0.8575,0.63 1.785,0.665 2.275,0.665 2.765,0 3.325,-1.4525 3.325,-2.2925 z" />
    <path
       inkscape:connector-curvature="0"
       id="path13693"
       style="font-style:normal;font-variant:normal;font-weight:normal;font-stretch:normal;font-size:17.5px;line-height:100%;font-family:'Latin Modern Mono';-inkscape-font-specification:'Latin Modern Mono';letter-spacing:0px;word-spacing:0px;fill:#000000;fill-opacity:1;stroke:none;stroke-width:1px;stroke-linecap:butt;stroke-linejoin:miter;stroke-opacity:1"
       d="m 442.54303,864.38937 c 0,-0.6475 -0.525,-1.1025 -1.085,-1.1025 -0.665,0 -1.1025,0.5425 -1.1025,1.085 0,0.6475 0.525,1.1025 1.085,1.1025 0.665,0 1.1025,-0.5425 1.1025,-1.085 z" />
    <path
       inkscape:connector-curvature="0"
       id="path13696"
       style="font-style:normal;font-variant:normal;font-weight:normal;font-stretch:normal;font-size:17.5px;line-height:100%;font-family:'Latin Modern Mono';-inkscape-font-specification:'Latin Modern Mono';letter-spacing:0px;word-spacing:0px;fill:#000000;fill-opacity:1;stroke:none;stroke-width:1px;stroke-linecap:butt;stroke-linejoin:miter;stroke-opacity:1"
       d="m 423.83373,938.71377 0,-1.5575 c 0,-0.35 0,-0.7175 -0.595,-0.7175 -0.6125,0 -0.6125,0.35 -0.6125,0.7175 l 0,1.2075 -4.2175,0 0,-8.5575 0.98,0 c 0.245,0 0.7175,0 0.7175,-0.525 0,-0.5425 -0.455,-0.5425 -0.7175,-0.5425 l -2.835,0 c -0.28,0 -0.7,0 -0.7,0.5425 0,0.525 0.4375,0.525 0.7,0.525 l 0.6475,0 0,8.5575 -0.6475,0 c -0.28,0 -0.7,0 -0.7,0.5425 0,0.525 0.4375,0.525 0.7,0.525 l 6.58,0 c 0.5775,0 0.7,-0.1575 0.7,-0.7175 z" />
    <path
       inkscape:connector-curvature="0"
       id="path13698"
       style="font-style:normal;font-variant:normal;font-weight:normal;font-stretch:normal;font-size:17.5px;line-height:100%;font-family:'Latin Modern Mono';-inkscape-font-specification:'Latin Modern Mono';letter-spacing:0px;word-spacing:0px;fill:#000000;fill-opacity:1;stroke:none;stroke-width:1px;stroke-linecap:butt;stroke-linejoin:miter;stroke-opacity:1"
       d="m 432.13557,929.68377 c 0,-1.05 -1.4,-1.05 -1.68,-1.05 -1.4,0 -2.7475,0.805 -2.7475,2.3275 l 0,0.9275 -1.75,0 c -0.28,0 -0.7175,0 -0.7175,0.5425 0,0.525 0.4375,0.525 0.7,0.525 l 1.7675,0 0,5.4075 -1.7675,0 c -0.2625,0 -0.7175,0 -0.7175,0.525 0,0.5425 0.455,0.5425 0.7175,0.5425 l 4.7425,0 c 0.2625,0 0.7175,0 0.7175,-0.525 0,-0.5425 -0.455,-0.5425 -0.7175,-0.5425 l -1.7675,0 0,-5.4075 2.135,0 c 0.2625,0 0.7,0 0.7,-0.525 0,-0.5425 -0.42,-0.5425 -0.7,-0.5425 l -2.135,0 0,-0.8225 c 0,-1.365 1.1725,-1.365 1.6975,-1.365 0,0.07 0.1575,0.7525 0.77,0.7525 0.35,0 0.7525,-0.28 0.7525,-0.77 z" />
    <path
       inkscape:connector-curvature="0"
       id="path13700"
       style="font-style:normal;font-variant:normal;font-weight:normal;font-stretch:normal;font-size:17.5px;line-height:100%;font-family:'Latin Modern Mono';-inkscape-font-specification:'Latin Modern Mono';letter-spacing:0px;word-spacing:0px;fill:#000000;fill-opacity:1;stroke:none;stroke-width:1px;stroke-linecap:butt;stroke-linejoin:miter;stroke-opacity:1"
       d="m 441.8549,935.65127 c 0,-2.1875 -1.6275,-3.92 -3.5875,-3.92 -1.96,0 -3.5875,1.7325 -3.5875,3.92 0,2.2225 1.6625,3.885 3.5875,3.885 1.925,0 3.5875,-1.68 3.5875,-3.885 z m -1.2075,-0.1225 c 0,1.6275 -1.085,2.94 -2.38,2.94 -1.295,0 -2.38,-1.3125 -2.38,-2.94 0,-1.5925 1.1375,-2.73 2.38,-2.73 1.26,0 2.38,1.1375 2.38,2.73 z" />
    <path
       inkscape:connector-curvature="0"
       id="path13702"
       style="font-style:normal;font-variant:normal;font-weight:normal;font-stretch:normal;font-size:17.5px;line-height:100%;font-family:'Latin Modern Mono';-inkscape-font-specification:'Latin Modern Mono';letter-spacing:0px;word-spacing:0px;fill:#000000;fill-opacity:1;stroke:none;stroke-width:1px;stroke-linecap:butt;stroke-linejoin:miter;stroke-opacity:1"
       d="m 395.67322,956.40627 c 0,-0.5425 -0.455,-0.5425 -0.7175,-0.5425 l -1.8375,0 0,-5.7575 c 0,-0.5425 -0.105,-0.7175 -0.7,-0.7175 l -2.485,0 c -0.2625,0 -0.7175,0 -0.7175,0.525 0,0.5425 0.455,0.5425 0.7175,0.5425 l 1.9775,0 0,5.4075 -2.1175,0 c -0.28,0 -0.7175,0 -0.7175,0.5425 0,0.525 0.455,0.525 0.7175,0.525 l 5.1625,0 c 0.2625,0 0.7175,0 0.7175,-0.525 z m -2.485,-9.1875 c 0,-0.49 -0.385,-0.875 -0.875,-0.875 -0.49,0 -0.875,0.385 -0.875,0.875 0,0.49 0.385,0.875 0.875,0.875 0.49,0 0.875,-0.385 0.875,-0.875 z" />
    <path
       inkscape:connector-curvature="0"
       id="path13704"
       style="font-style:normal;font-variant:normal;font-weight:normal;font-stretch:normal;font-size:17.5px;line-height:100%;font-family:'Latin Modern Mono';-inkscape-font-specification:'Latin Modern Mono';letter-spacing:0px;word-spacing:0px;fill:#000000;fill-opacity:1;stroke:none;stroke-width:1px;stroke-linecap:butt;stroke-linejoin:miter;stroke-opacity:1"
       d="m 405.86506,956.40627 c 0,-0.5425 -0.4375,-0.5425 -0.7175,-0.5425 l -0.77,0 0,-4.06 c 0,-1.7675 -0.8925,-2.52 -2.275,-2.52 -1.1725,0 -1.96,0.595 -2.2925,0.9275 0,-0.56 0,-0.8225 -0.7,-0.8225 l -1.2775,0 c -0.28,0 -0.7175,0 -0.7175,0.5425 0,0.525 0.455,0.525 0.7,0.525 l 0.7875,0 0,5.4075 -0.77,0 c -0.28,0 -0.7175,0 -0.7175,0.5425 0,0.525 0.455,0.525 0.7,0.525 l 2.7825,0 c 0.245,0 0.7,0 0.7,-0.525 0,-0.5425 -0.4375,-0.5425 -0.7175,-0.5425 l -0.77,0 0,-3.0975 c 0,-1.75 1.295,-2.415 2.1875,-2.415 0.9275,0 1.1725,0.49 1.1725,1.54 l 0,3.9725 -0.6825,0 c -0.28,0 -0.7175,0 -0.7175,0.5425 0,0.525 0.4725,0.525 0.7175,0.525 l 2.6775,0 c 0.245,0 0.7,0 0.7,-0.525 z" />
    <path
       inkscape:connector-curvature="0"
       id="path13706"
       style="font-style:normal;font-variant:normal;font-weight:normal;font-stretch:normal;font-size:17.5px;line-height:100%;font-family:'Latin Modern Mono';-inkscape-font-specification:'Latin Modern Mono';letter-spacing:0px;word-spacing:0px;fill:#000000;fill-opacity:1;stroke:none;stroke-width:1px;stroke-linecap:butt;stroke-linejoin:miter;stroke-opacity:1"
       d="m 416.2544,945.39877 c 0,-0.315 -0.2625,-0.6125 -0.6125,-0.6125 -0.385,0 -0.5075,0.2625 -0.6125,0.49 l -5.775,12.075 c -0.1225,0.28 -0.14,0.28 -0.14,0.42 0,0.315 0.2625,0.6125 0.6125,0.6125 0.385,0 0.5075,-0.2625 0.6125,-0.49 l 5.775,-12.075 c 0.1225,-0.28 0.14,-0.28 0.14,-0.42 z" />
    <path
       inkscape:connector-curvature="0"
       id="path13708"
       style="font-style:normal;font-variant:normal;font-weight:normal;font-stretch:normal;font-size:17.5px;line-height:100%;font-family:'Latin Modern Mono';-inkscape-font-specification:'Latin Modern Mono';letter-spacing:0px;word-spacing:0px;fill:#000000;fill-opacity:1;stroke:none;stroke-width:1px;stroke-linecap:butt;stroke-linejoin:miter;stroke-opacity:1"
       d="m 423.46623,953.15127 c 0,-2.1875 -1.6275,-3.92 -3.5875,-3.92 -1.96,0 -3.5875,1.7325 -3.5875,3.92 0,2.2225 1.6625,3.885 3.5875,3.885 1.925,0 3.5875,-1.68 3.5875,-3.885 z m -1.2075,-0.1225 c 0,1.6275 -1.085,2.94 -2.38,2.94 -1.295,0 -2.38,-1.3125 -2.38,-2.94 0,-1.5925 1.1375,-2.73 2.38,-2.73 1.26,0 2.38,1.1375 2.38,2.73 z" />
    <path
       inkscape:connector-curvature="0"
       id="path13710"
       style="font-style:normal;font-variant:normal;font-weight:normal;font-stretch:normal;font-size:17.5px;line-height:100%;font-family:'Latin Modern Mono';-inkscape-font-specification:'Latin Modern Mono';letter-spacing:0px;word-spacing:0px;fill:#000000;fill-opacity:1;stroke:none;stroke-width:1px;stroke-linecap:butt;stroke-linejoin:miter;stroke-opacity:1"
       d="m 433.44807,956.38877 c 0,-0.525 -0.455,-0.525 -0.7,-0.525 l -0.7875,0 0,-5.7575 c 0,-0.5425 -0.105,-0.7175 -0.7,-0.7175 l -1.2775,0 c -0.28,0 -0.7175,0 -0.7175,0.5425 0,0.525 0.455,0.525 0.7,0.525 l 0.7875,0 0,3.7275 c 0,1.575 -1.4175,1.785 -1.9775,1.785 -1.3825,0 -1.3825,-0.5775 -1.3825,-1.1375 l 0,-4.725 c 0,-0.5425 -0.105,-0.7175 -0.7,-0.7175 l -1.2775,0 c -0.28,0 -0.7175,0 -0.7175,0.5425 0,0.525 0.455,0.525 0.7,0.525 l 0.7875,0 0,4.48 c 0,1.68 1.2075,2.1 2.485,2.1 0.7175,0 1.435,-0.175 2.0825,-0.665 0.0175,0.56 0.385,0.56 0.7,0.56 l 1.2775,0 c 0.28,0 0.7175,0 0.7175,-0.5425 z" />
    <path
       inkscape:connector-curvature="0"
       id="path13712"
       style="font-style:normal;font-variant:normal;font-weight:normal;font-stretch:normal;font-size:17.5px;line-height:100%;font-family:'Latin Modern Mono';-inkscape-font-specification:'Latin Modern Mono';letter-spacing:0px;word-spacing:0px;fill:#000000;fill-opacity:1;stroke:none;stroke-width:1px;stroke-linecap:butt;stroke-linejoin:miter;stroke-opacity:1"
       d="m 441.5399,954.72627 c 0,-0.315 0,-0.6825 -0.6125,-0.6825 -0.5775,0 -0.595,0.3675 -0.595,0.665 -0.0175,1.085 -1.015,1.26 -1.4175,1.26 -1.3475,0 -1.3475,-0.91 -1.3475,-1.3475 l 0,-4.165 2.87,0 c 0.2625,0 0.7,0 0.7,-0.525 0,-0.5425 -0.42,-0.5425 -0.7,-0.5425 l -2.87,0 0,-1.435 c 0,-0.3325 0,-0.7175 -0.595,-0.7175 -0.6125,0 -0.6125,0.3675 -0.6125,0.7175 l 0,1.435 -1.5225,0 c -0.28,0 -0.7175,0 -0.7175,0.5425 0,0.525 0.4375,0.525 0.7,0.525 l 1.54,0 0,4.27 c 0,1.68 1.19,2.31 2.4675,2.31 1.295,0 2.7125,-0.7525 2.7125,-2.31 z" />
    <path
       inkscape:connector-curvature="0"
       id="path13715"
       style="font-style:normal;font-variant:normal;font-weight:normal;font-stretch:normal;font-size:medium;line-height:125%;font-family:'Latin Modern Mono';-inkscape-font-specification:'Latin Modern Mono';letter-spacing:0px;word-spacing:0px;fill:#000000;fill-opacity:1;stroke:none;stroke-width:1px;stroke-linecap:butt;stroke-linejoin:miter;stroke-opacity:1"
       d="m 139.24,788.46218 c 0,-0.93 -0.78,-0.93 -1.23,-0.93 l -0.93,0 -4.47,-5.82 3.69,-3.45 1.05,0 c 0.45,0 1.23,0 1.23,-0.9 0,-0.93 -0.78,-0.93 -1.23,-0.93 l -4.62,0 c -0.48,0 -1.2,0 -1.2,0.93 0,0.9 0.75,0.9 1.2,0.9 l 1.11,0 -4.86,4.56 0,-10.56 c 0,-0.93 -0.18,-1.23 -1.2,-1.23 l -1.95,0 c -0.45,0 -1.2,0 -1.2,0.9 0,0.93 0.72,0.93 1.2,0.93 l 1.47,0 0,14.67 -1.47,0 c -0.45,0 -1.2,0 -1.2,0.9 0,0.93 0.72,0.93 1.2,0.93 l 4.62,0 c 0.45,0 1.2,0 1.2,-0.9 0,-0.93 -0.72,-0.93 -1.2,-0.93 l -1.47,0 0,-2.43 2.4,-2.22 3.57,4.65 c -1.08,0 -1.68,0 -1.68,0.93 0,0.9 0.75,0.9 1.2,0.9 l 3.54,0 c 0.45,0 1.23,0 1.23,-0.9 z" />
    <path
       inkscape:connector-curvature="0"
       id="path13717"
       style="font-style:normal;font-variant:normal;font-weight:normal;font-stretch:normal;font-size:medium;line-height:125%;font-family:'Latin Modern Mono';-inkscape-font-specification:'Latin Modern Mono';letter-spacing:0px;word-spacing:0px;fill:#000000;fill-opacity:1;stroke:none;stroke-width:1px;stroke-linecap:butt;stroke-linejoin:miter;stroke-opacity:1"
       d="m 153.68172,786.09218 c 0,-0.84 -0.87,-0.84 -1.05,-0.84 -0.54,0 -0.78,0.09 -0.99,0.66 -0.66,1.53 -2.28,1.8 -3.12,1.8 -2.25,0 -4.5,-1.5 -4.98,-4.08 l 8.94,0 c 0.63,0 1.2,0 1.2,-1.11 0,-3.42 -1.92,-6.36 -5.82,-6.36 -3.57,0 -6.45,3 -6.45,6.69 0,3.66 3.03,6.69 6.9,6.69 3.96,0 5.37,-2.7 5.37,-3.45 z m -2.13,-4.26 -7.98,0 c 0.42,-2.19 2.19,-3.84 4.29,-3.84 1.56,0 3.42,0.75 3.69,3.84 z" />
    <path
       inkscape:connector-curvature="0"
       id="path13719"
       style="font-style:normal;font-variant:normal;font-weight:normal;font-stretch:normal;font-size:medium;line-height:125%;font-family:'Latin Modern Mono';-inkscape-font-specification:'Latin Modern Mono';letter-spacing:0px;word-spacing:0px;fill:#000000;fill-opacity:1;stroke:none;stroke-width:1px;stroke-linecap:butt;stroke-linejoin:miter;stroke-opacity:1"
       d="m 169.44344,786.09218 c 0,-0.84 -0.87,-0.84 -1.05,-0.84 -0.54,0 -0.78,0.09 -0.99,0.66 -0.66,1.53 -2.28,1.8 -3.12,1.8 -2.25,0 -4.5,-1.5 -4.98,-4.08 l 8.94,0 c 0.63,0 1.2,0 1.2,-1.11 0,-3.42 -1.92,-6.36 -5.82,-6.36 -3.57,0 -6.45,3 -6.45,6.69 0,3.66 3.03,6.69 6.9,6.69 3.96,0 5.37,-2.7 5.37,-3.45 z m -2.13,-4.26 -7.98,0 c 0.42,-2.19 2.19,-3.84 4.29,-3.84 1.56,0 3.42,0.75 3.69,3.84 z" />
    <path
       inkscape:connector-curvature="0"
       id="path13721"
       style="font-style:normal;font-variant:normal;font-weight:normal;font-stretch:normal;font-size:medium;line-height:125%;font-family:'Latin Modern Mono';-inkscape-font-specification:'Latin Modern Mono';letter-spacing:0px;word-spacing:0px;fill:#000000;fill-opacity:1;stroke:none;stroke-width:1px;stroke-linecap:butt;stroke-linejoin:miter;stroke-opacity:1"
       d="m 185.92516,782.88218 c 0,-3.69 -2.67,-6.63 -5.85,-6.63 -1.44,0 -2.79,0.54 -3.81,1.47 0,-0.87 -0.06,-1.29 -1.2,-1.29 l -2.19,0 c -0.48,0 -1.23,0 -1.23,0.93 0,0.9 0.78,0.9 1.2,0.9 l 1.35,0 0,15.93 -1.32,0 c -0.48,0 -1.23,0 -1.23,0.93 0,0.9 0.78,0.9 1.2,0.9 l 4.77,0 c 0.42,0 1.2,0 1.2,-0.9 0,-0.93 -0.75,-0.93 -1.23,-0.93 l -1.32,0 0,-6.18 c 1.23,1.26 2.52,1.53 3.48,1.53 3.27,0 6.18,-2.85 6.18,-6.66 z m -2.07,0 c 0,2.88 -2.1,4.83 -4.2,4.83 -2.34,0 -3.39,-2.64 -3.39,-4.08 l 0,-2.19 c 0,-1.77 1.74,-3.36 3.63,-3.36 2.22,0 3.96,2.19 3.96,4.8 z" />
  </g>
</svg>
