<?xml version="1.0" encoding="UTF-8" standalone="no"?>
<!-- Created with Inkscape (http://www.inkscape.org/) -->

<svg
   xmlns:dc="http://purl.org/dc/elements/1.1/"
   xmlns:cc="http://creativecommons.org/ns#"
   xmlns:rdf="http://www.w3.org/1999/02/22-rdf-syntax-ns#"
   xmlns:svg="http://www.w3.org/2000/svg"
   xmlns="http://www.w3.org/2000/svg"
   xmlns:sodipodi="http://sodipodi.sourceforge.net/DTD/sodipodi-0.dtd"
   xmlns:inkscape="http://www.inkscape.org/namespaces/inkscape"
   width="150mm"
   height="85mm"
   viewBox="0 0 531.49606 301.1811"
   id="svg5475"
   version="1.1"
   inkscape:version="0.91 r13725"
   sodipodi:docname="keep.v3_pcb.2.flipped.svg">
  <defs
     id="defs5477">
    <marker
       inkscape:stockid="SquareM"
       orient="auto"
       refY="0.0"
       refX="0.0"
       id="SquareM"
       style="overflow:visible"
       inkscape:isstock="true">
      <path
         id="path12387"
         d="M -5.0,-5.0 L -5.0,5.0 L 5.0,5.0 L 5.0,-5.0 L -5.0,-5.0 z "
         style="fill-rule:evenodd;stroke:#000000;stroke-width:1pt;stroke-opacity:1;fill:#000000;fill-opacity:1"
         transform="scale(0.4)" />
    </marker>
    <marker
       inkscape:stockid="Tail"
       orient="auto"
       refY="0.0"
       refX="0.0"
       id="Tail"
       style="overflow:visible"
       inkscape:isstock="true">
      <g
         id="g12350"
         transform="scale(-1.2)"
         style="stroke:#000000;stroke-opacity:1;fill:#000000;fill-opacity:1">
        <path
           id="path12352"
           d="M -3.8048674,-3.9585227 L 0.54352094,0"
           style="fill:#000000;fill-rule:evenodd;stroke:#000000;stroke-width:0.8;stroke-linecap:round;stroke-opacity:1;fill-opacity:1" />
        <path
           id="path12354"
           d="M -1.2866832,-3.9585227 L 3.0617053,0"
           style="fill:#000000;fill-rule:evenodd;stroke:#000000;stroke-width:0.8;stroke-linecap:round;stroke-opacity:1;fill-opacity:1" />
        <path
           id="path12356"
           d="M 1.3053582,-3.9585227 L 5.6537466,0"
           style="fill:#000000;fill-rule:evenodd;stroke:#000000;stroke-width:0.8;stroke-linecap:round;stroke-opacity:1;fill-opacity:1" />
        <path
           id="path12358"
           d="M -3.8048674,4.1775838 L 0.54352094,0.21974226"
           style="fill:#000000;fill-rule:evenodd;stroke:#000000;stroke-width:0.8;stroke-linecap:round;stroke-opacity:1;fill-opacity:1" />
        <path
           id="path12360"
           d="M -1.2866832,4.1775838 L 3.0617053,0.21974226"
           style="fill:#000000;fill-rule:evenodd;stroke:#000000;stroke-width:0.8;stroke-linecap:round;stroke-opacity:1;fill-opacity:1" />
        <path
           id="path12362"
           d="M 1.3053582,4.1775838 L 5.6537466,0.21974226"
           style="fill:#000000;fill-rule:evenodd;stroke:#000000;stroke-width:0.8;stroke-linecap:round;stroke-opacity:1;fill-opacity:1" />
      </g>
    </marker>
    <marker
       inkscape:stockid="Arrow2Mend"
       orient="auto"
       refY="0.0"
       refX="0.0"
       id="Arrow2Mend"
       style="overflow:visible;"
       inkscape:isstock="true">
      <path
         id="path12341"
         style="fill-rule:evenodd;stroke-width:0.625;stroke-linejoin:round;stroke:#000000;stroke-opacity:1;fill:#000000;fill-opacity:1"
         d="M 8.7185878,4.0337352 L -2.2072895,0.016013256 L 8.7185884,-4.0017078 C 6.9730900,-1.6296469 6.9831476,1.6157441 8.7185878,4.0337352 z "
         transform="scale(0.6) rotate(180) translate(0,0)" />
    </marker>
  </defs>
  <sodipodi:namedview
     id="base"
     pagecolor="#ffffff"
     bordercolor="#666666"
     borderopacity="1.0"
     inkscape:pageopacity="0.0"
     inkscape:pageshadow="2"
     inkscape:zoom="1"
     inkscape:cx="293.39988"
     inkscape:cy="144.72732"
     inkscape:document-units="mm"
     inkscape:current-layer="layer1"
     showgrid="false"
     inkscape:showpageshadow="true"
     inkscape:window-width="1280"
     inkscape:window-height="1000"
     inkscape:window-x="1366"
     inkscape:window-y="0"
     inkscape:window-maximized="1"
     inkscape:snap-smooth-nodes="true"
     showguides="false" />
  <metadata
     id="metadata5480">
    <rdf:RDF>
      <cc:Work
         rdf:about="">
        <dc:format>image/svg+xml</dc:format>
        <dc:type
           rdf:resource="http://purl.org/dc/dcmitype/StillImage" />
        <dc:title></dc:title>
      </cc:Work>
    </rdf:RDF>
  </metadata>
  <g
     inkscape:label="Layer 1"
     inkscape:groupmode="layer"
     id="layer1"
     transform="translate(0,-751.1811)">
    <g
       id="g1388"
       transform="matrix(-1.2500005,0,0,1.2500005,400.71297,803.3021)"
       style="display:inline;fill:none;stroke:#000000;stroke-width:0.79999977;stroke-miterlimit:4;stroke-dasharray:none;stroke-opacity:1">
      <g
         id="g1390"
         style="fill:none;stroke:#000000;stroke-width:0.79999977;stroke-miterlimit:4;stroke-dasharray:none;stroke-opacity:1">
        <path
           style="fill:none;stroke:#000000;stroke-width:0.79999977;stroke-miterlimit:4;stroke-dasharray:none;stroke-opacity:1"
           d="M 7.83622,4.7181101 A 3.1181099,3.1181099 0 0 1 4.7181101,7.83622 a 3.1181099,3.1181099 0 0 1 -3.11811,-3.1181099 3.1181099,3.1181099 0 0 1 3.11811,-3.11811 3.1181099,3.1181099 0 0 1 3.1181099,3.11811 z"
           id="circle1392"
           inkscape:connector-curvature="0" />
      </g>
    </g>
    <g
       id="g1396"
       transform="matrix(-1.2500005,0,0,1.2500005,399.89907,981.7276)"
       style="display:inline;fill:none;stroke:#000000;stroke-width:0.79999977;stroke-miterlimit:4;stroke-dasharray:none;stroke-opacity:1">
      <g
         id="g1398"
         style="fill:none;stroke:#000000;stroke-width:0.79999977;stroke-miterlimit:4;stroke-dasharray:none;stroke-opacity:1">
        <path
           style="fill:none;stroke:#000000;stroke-width:0.79999977;stroke-miterlimit:4;stroke-dasharray:none;stroke-opacity:1"
           d="M 7.83622,4.7181101 A 3.1181099,3.1181099 0 0 1 4.7181101,7.83622 a 3.1181099,3.1181099 0 0 1 -3.11811,-3.1181099 3.1181099,3.1181099 0 0 1 3.11811,-3.11811 3.1181099,3.1181099 0 0 1 3.1181099,3.11811 z"
           id="circle1400"
           inkscape:connector-curvature="0" />
      </g>
    </g>
    <g
       id="g1380"
       transform="matrix(-1.2500005,0,0,1.2500005,152.45582,802.9625)"
       style="display:inline;fill:none;stroke:#000000;stroke-width:0.79999977;stroke-miterlimit:4;stroke-dasharray:none;stroke-opacity:1">
      <g
         id="g1382"
         style="fill:none;stroke:#000000;stroke-width:0.79999977;stroke-miterlimit:4;stroke-dasharray:none;stroke-opacity:1">
        <path
           style="fill:none;stroke:#000000;stroke-width:0.79999977;stroke-miterlimit:4;stroke-dasharray:none;stroke-opacity:1"
           d="M 7.83622,4.7181101 A 3.1181099,3.1181099 0 0 1 4.7181101,7.83622 a 3.1181099,3.1181099 0 0 1 -3.11811,-3.1181099 3.1181099,3.1181099 0 0 1 3.11811,-3.11811 3.1181099,3.1181099 0 0 1 3.1181099,3.11811 z"
           id="circle1384"
           inkscape:connector-curvature="0" />
      </g>
    </g>
    <g
       id="g1372"
       transform="matrix(-1.2500005,0,0,1.2500005,151.33332,982.1089)"
       style="display:inline;fill:none;stroke:#000000;stroke-width:0.79999977;stroke-miterlimit:4;stroke-dasharray:none;stroke-opacity:1">
      <g
         id="g1374"
         style="fill:none;stroke:#000000;stroke-width:0.79999977;stroke-miterlimit:4;stroke-dasharray:none;stroke-opacity:1">
        <path
           style="fill:none;stroke:#000000;stroke-width:0.79999977;stroke-miterlimit:4;stroke-dasharray:none;stroke-opacity:1"
           d="M 7.83622,4.7181101 A 3.1181099,3.1181099 0 0 1 4.7181101,7.83622 a 3.1181099,3.1181099 0 0 1 -3.11811,-3.1181099 3.1181099,3.1181099 0 0 1 3.11811,-3.11811 3.1181099,3.1181099 0 0 1 3.1181099,3.11811 z"
           id="circle1376"
           inkscape:connector-curvature="0" />
      </g>
    </g>
    <path
       style="display:inline;fill:none;stroke:#000000;stroke-width:1.07980645;stroke-miterlimit:4;stroke-dasharray:none;stroke-opacity:1"
       d="m 301.56064,802.7832 -23.14453,0 0,14.4354 23.14453,0 z"
       id="rect8673"
       inkscape:connector-curvature="0" />
    <path
       style="display:inline;fill:none;stroke:#000000;stroke-width:1.00000012;stroke-miterlimit:4;stroke-dasharray:none;stroke-opacity:1"
       d="m 185.11605,822.7098 0,11.9746 0.0113,0 0,28.3086 0,0.9844 0,29.8379 12.67774,0 0,-29.8379 0,-0.9844 0,-28.3086 10.89843,0 0,-11.9746 -23.58789,0 z"
       id="rect8675"
       inkscape:connector-curvature="0" />
    <path
       style="display:inline;fill:none;stroke:#000000;stroke-width:1.00000012;stroke-miterlimit:4;stroke-dasharray:none;stroke-opacity:1"
       d="m 187.29335,811.8153 a 7.2576004,7.2576004 0 0 0 7.2576,7.2576 7.2576004,7.2576004 0 0 0 7.2576,-7.2576 7.2576004,7.2576004 0 0 0 -7.2576,-7.2576 7.2576004,7.2576004 0 0 0 -7.2576,7.2576 z"
       id="path8677"
       inkscape:connector-curvature="0" />
    <path
       style="display:inline;fill:none;stroke:#000000;stroke-width:1.00000012;stroke-miterlimit:4;stroke-dasharray:none;stroke-opacity:1"
       d="m 155.5455,918.3164 -13.06368,0 0,21.41 13.06368,0 z"
       id="rect8696"
       inkscape:connector-curvature="0" />
    <path
       style="display:inline;fill:none;stroke:#000000;stroke-width:1.00000012;stroke-miterlimit:4;stroke-dasharray:none;stroke-opacity:1"
       d="m 296.87087,876.2904 -23.90548,0 0,48.9442 23.90548,0 z"
       id="rect8679-6"
       inkscape:connector-curvature="0" />
    <path
       style="display:inline;fill:none;stroke:#000000;stroke-width:1.00000012;stroke-miterlimit:4;stroke-dasharray:none;stroke-opacity:1"
       d="m 209.42854,841.0223 0,12.3379 3.80664,0 0,19.0566 25.04688,0 0,-19.0566 29.93359,0 0,-12.3379 -58.78711,0 z"
       id="rect8713"
       inkscape:connector-curvature="0" />
    <path
       style="display:inline;fill:none;stroke:#000000;stroke-width:1.08577001;stroke-miterlimit:4;stroke-dasharray:none;stroke-opacity:1"
       d="m 262.00373,923.6252 -34.02495,0 0,13.3408 34.02495,0 z"
       id="rect8717"
       inkscape:connector-curvature="0" />
    <path
       style="display:inline;fill:none;stroke:#000000;stroke-width:1.00000012;stroke-miterlimit:4;stroke-dasharray:none;stroke-opacity:1"
       d="m 365.10454,972.5712 -13.78944,0 0,21.4099 13.78944,0 z"
       id="rect8719"
       inkscape:connector-curvature="0" />
    <path
       style="display:inline;fill:none;stroke:#000000;stroke-width:1.0288955;stroke-miterlimit:4;stroke-dasharray:none;stroke-opacity:1"
       d="m 339.68851,877.1482 -25.37271,0 0,39.525 25.37271,0 z"
       id="rect8721"
       inkscape:connector-curvature="0" />
    <path
       style="display:inline;fill:none;stroke:#000000;stroke-width:1.31261981;stroke-miterlimit:4;stroke-dasharray:none;stroke-opacity:1"
       d="m 299.74021,975.3219 a 13.996012,13.633133 0 0 0 13.99601,13.6332 13.996012,13.633133 0 0 0 13.99601,-13.6332 13.996012,13.633133 0 0 0 -13.99601,-13.6331 13.996012,13.633133 0 0 0 -13.99601,13.6331 z"
       id="path8723"
       inkscape:connector-curvature="0" />
    <path
       style="display:inline;fill:none;stroke:#000000;stroke-width:1.19751239;stroke-miterlimit:4;stroke-dasharray:none;stroke-opacity:1"
       d="m 253.70762,975.0863 a 12.602048,12.602048 0 0 0 12.60206,12.6021 12.602048,12.602048 0 0 0 12.60204,-12.6021 12.602048,12.602048 0 0 0 -12.60204,-12.602 12.602048,12.602048 0 0 0 -12.60206,12.602 z"
       id="path8723-7"
       inkscape:connector-curvature="0" />
    <path
       style="display:inline;fill:none;stroke:#000000;stroke-width:1.19751239;stroke-miterlimit:4;stroke-dasharray:none;stroke-opacity:1"
       d="m 207.70752,975.0863 a 12.602048,12.602048 0 0 0 12.60205,12.6021 12.602048,12.602048 0 0 0 12.60205,-12.6021 12.602048,12.602048 0 0 0 -12.60205,-12.602 12.602048,12.602048 0 0 0 -12.60205,12.602 z"
       id="path8723-7-5"
       inkscape:connector-curvature="0" />
    <path
       style="display:inline;fill:none;stroke:#000000;stroke-width:1.28792548;stroke-miterlimit:4;stroke-dasharray:none;stroke-opacity:1"
       d="m 163.93806,974.7234 a 13.826984,13.282663 0 0 0 13.82698,13.2827 13.826984,13.282663 0 0 0 13.827,-13.2827 13.826984,13.282663 0 0 0 -13.827,-13.2826 13.826984,13.282663 0 0 0 -13.82698,13.2826 z"
       id="path8723-7-5-3"
       inkscape:connector-curvature="0" />
    <path
       style="display:inline;fill:none;stroke:#000000;stroke-width:1.29626846;stroke-miterlimit:4;stroke-dasharray:none;stroke-opacity:1"
       d="m 372.66834,951.0863 a 13.64131,13.64131 0 0 0 13.64131,13.6413 13.64131,13.64131 0 0 0 13.64131,-13.6413 13.64131,13.64131 0 0 0 -13.64131,-13.6413 13.64131,13.64131 0 0 0 -13.64131,13.6413 z"
       id="path8723-7-5-3-5"
       inkscape:connector-curvature="0" />
    <path
       style="display:inline;fill:none;stroke:#000000;stroke-width:1.32918727;stroke-miterlimit:4;stroke-dasharray:none;stroke-opacity:1"
       d="m 372.32192,905.0863 a 13.987731,13.987731 0 0 0 13.98773,13.9877 13.987731,13.987731 0 0 0 13.98773,-13.9877 13.987731,13.987731 0 0 0 -13.98773,-13.9878 13.987731,13.987731 0 0 0 -13.98773,13.9878 z"
       id="path8723-7-5-3-5-6"
       inkscape:connector-curvature="0" />
    <path
       style="display:inline;fill:none;stroke:#000000;stroke-width:1.27969825;stroke-miterlimit:4;stroke-dasharray:none;stroke-opacity:1"
       d="m 372.66006,835.0863 a 13.649595,13.286714 0 0 0 13.64959,13.2867 13.649595,13.286714 0 0 0 13.64959,-13.2867 13.649595,13.286714 0 0 0 -13.64959,-13.2867 13.649595,13.286714 0 0 0 -13.64959,13.2867 z"
       id="path8723-7-5-3-5-6-2"
       inkscape:connector-curvature="0" />
    <path
       style="display:inline;fill:none;stroke:#000000;stroke-width:1.19751239;stroke-miterlimit:4;stroke-dasharray:none;stroke-opacity:1"
       d="m 142.79587,885.4492 a 12.602048,12.602048 0 0 0 12.60205,12.602 12.602048,12.602048 0 0 0 12.60204,-12.602 12.602048,12.602048 0 0 0 -12.60204,-12.6021 12.602048,12.602048 0 0 0 -12.60205,12.6021 z"
       id="path8723-7-5-3-5-6-2-9"
       inkscape:connector-curvature="0" />
    <path
       style="display:inline;fill:none;stroke:#000000;stroke-width:1.19751239;stroke-miterlimit:4;stroke-dasharray:none;stroke-opacity:1"
       d="m 143.34437,838.5378 a 12.602048,12.602048 0 0 0 12.60204,12.6021 12.602048,12.602048 0 0 0 12.60205,-12.6021 12.602048,12.602048 0 0 0 -12.60205,-12.602 12.602048,12.602048 0 0 0 -12.60204,12.602 z"
       id="path8723-7-5-3-5-6-2-9-1"
       inkscape:connector-curvature="0" />
    <text
       xml:space="preserve"
       style="font-style:normal;font-variant:normal;font-weight:normal;font-stretch:semi-condensed;font-size:40px;line-height:125%;font-family:symbola;-inkscape-font-specification:'symbola Semi-Condensed';letter-spacing:0px;word-spacing:0px;fill:#000000;fill-opacity:1;stroke:none;stroke-width:1px;stroke-linecap:butt;stroke-linejoin:miter;stroke-opacity:1"
       x="-456"
       y="819.36218"
       id="text6178"
       sodipodi:linespacing="125%"
       transform="scale(-1,1)"><tspan
         sodipodi:role="line"
         id="tspan6180"
         x="-456"
         y="819.36218" /></text>
    <text
       xml:space="preserve"
       style="font-style:normal;font-weight:normal;font-size:40px;line-height:125%;font-family:Sans;letter-spacing:0px;word-spacing:0px;fill:#000000;fill-opacity:1;stroke:none;stroke-width:1px;stroke-linecap:butt;stroke-linejoin:miter;stroke-opacity:1"
       x="-413"
       y="710.36218"
       id="text6272"
       sodipodi:linespacing="125%"
       transform="scale(-1,1)"><tspan
         sodipodi:role="line"
         id="tspan6274"
         x="-413"
         y="710.36218" /></text>
    <text
       xml:space="preserve"
       style="font-style:normal;font-variant:normal;font-weight:normal;font-stretch:normal;font-size:40px;line-height:100%;font-family:unpilgi;-inkscape-font-specification:unpilgi;letter-spacing:0px;word-spacing:0px;fill:#000000;fill-opacity:1;stroke:none;stroke-width:1px;stroke-linecap:butt;stroke-linejoin:miter;stroke-opacity:1"
       x="-222.71448"
       y="1007.3029"
       id="text6563-1-3-5-7-8"
       sodipodi:linespacing="100%"
       transform="scale(-1,1)"><tspan
         sodipodi:role="line"
         x="-222.71448"
         y="1007.3029"
         style="font-style:normal;font-variant:normal;font-weight:normal;font-stretch:normal;font-size:17.5px;line-height:100%;font-family:'Latin Modern Mono';-inkscape-font-specification:'Latin Modern Mono'"
         id="tspan12990-9-6">B</tspan></text>
  </g>
</svg>
