<?xml version="1.0" encoding="UTF-8" standalone="no"?>
<!-- Created with Inkscape (http://www.inkscape.org/) -->

<svg
   width="74mm"
   height="52mm"
   viewBox="0 0 74 52"
   version="1.1"
   id="svg921"
   inkscape:version="1.1.2 (0a00cf5339, 2022-02-04)"
   sodipodi:docname="monster2.svg"
   xmlns:inkscape="http://www.inkscape.org/namespaces/inkscape"
   xmlns:sodipodi="http://sodipodi.sourceforge.net/DTD/sodipodi-0.dtd"
   xmlns="http://www.w3.org/2000/svg"
   xmlns:svg="http://www.w3.org/2000/svg">
  <sodipodi:namedview
     id="namedview923"
     pagecolor="#ffffff"
     bordercolor="#666666"
     borderopacity="1.0"
     inkscape:pageshadow="2"
     inkscape:pageopacity="0.0"
     inkscape:pagecheckerboard="0"
     inkscape:document-units="mm"
     showgrid="false"
     inkscape:zoom="4.8664817"
     inkscape:cx="144.3548"
     inkscape:cy="120.62102"
     inkscape:window-width="1920"
     inkscape:window-height="1055"
     inkscape:window-x="0"
     inkscape:window-y="25"
     inkscape:window-maximized="1"
     inkscape:current-layer="layer1" />
  <defs
     id="defs918" />
  <g
     inkscape:label="Layer 1"
     inkscape:groupmode="layer"
     id="layer1">
    <path
       id="path2010"
       style="fill:#000000;stroke-width:1.33333"
       d="m 104.37305,70.246094 -9.500003,3.097656 c -10.375937,3.382639 -17.110574,6.530065 -18.384766,8.591797 -1.108384,1.793386 6.475086,0.24304 13.59375,-2.779297 10.571109,-4.488038 13.727759,-4.452807 20.779299,0.228516 3.5153,2.333707 6.68057,3.954192 7.0332,3.601562 0.35259,-0.352592 -2.54518,-3.364439 -6.43945,-6.691406 z m 20.41601,5.716797 c -0.79077,7.6e-4 -2.03602,0.513122 -3.12304,1.335937 -1.4504,1.097877 -1.81886,1.934354 -0.86329,1.957031 0.99153,0.02521 1.66797,1.842284 1.66797,4.486329 0,2.444447 0.39979,4.845102 0.88868,5.333984 1.5925,1.592617 2.10144,0.942732 1.39062,-1.775391 -0.38336,-1.465927 -0.15276,-3.001426 0.51172,-3.412109 1.52999,-0.945714 1.58333,-6.867642 0.0703,-7.802734 -0.13678,-0.08454 -0.32155,-0.12326 -0.54297,-0.123047 z m -54.751951,0.695312 c -1.186627,-0.02263 -2.331429,0.386197 -2.890625,1.291016 -2.303811,3.727672 -5.0634,17.819354 -5.160156,26.351561 l -0.109375,9.66992 -5.638672,2.1543 c -6.474935,2.47279 -11.729074,7.17383 -8.017578,7.17383 1.465965,0 1.891449,0.71167 1.318359,2.20508 -0.724837,1.88897 -0.09551,2.09916 4.376954,1.46484 2.871798,-0.40732 6.234029,-1.15017 7.472656,-1.65039 1.812321,-0.73191 2.418401,0.0896 3.103516,4.20312 0.468207,2.81129 1.686634,7.81135 2.707031,11.11133 1.020397,3.30002 2.181817,8.09938 2.582031,10.66602 0.400214,2.56668 1.329928,5.56602 2.066406,6.66601 1.159068,1.73122 1.6052,1.65243 3.314453,-0.58789 1.086048,-1.42348 1.97461,-3.8591 1.97461,-5.41211 0,-6.30992 7.487534,-9.76922 14,-6.46875 1.466645,0.74347 5.667313,1.17316 9.333981,0.95508 10.3629,-0.6167 12.87488,0.29502 12.54492,4.5586 -0.1542,1.99177 -0.19081,5.30723 -0.0801,7.36718 0.24298,4.52618 1.84728,3.80223 4.55664,-2.05664 3.032,-6.55668 3.97033,-10.35547 2.55664,-10.35547 -0.69721,0 -1.58134,1.20129 -1.96485,2.66797 -1.01354,3.87572 -3.2712,3.26544 -4.24023,-1.14648 -0.7883,-3.58904 -1.36173,-3.87622 -9.77148,-4.86914 -11.174064,-1.31932 -23.079602,-1.77896 -25.269536,-0.97657 -0.916648,0.33589 -1.666015,1.78625 -1.666015,3.22266 0,3.27353 -2.341855,7.76953 -4.046875,7.76953 -0.707528,0 -1.28711,-1.70563 -1.28711,-3.78906 0,-2.08346 -0.892318,-6.7341 -1.984375,-10.33398 -1.092056,-3.59989 -1.992441,-8.49363 -2,-10.87696 -0.01417,-4.2551 -0.125602,-4.33398 -6.113281,-4.33398 -5.082746,0 -6.025449,-0.38904 -5.666016,-2.33399 0.237128,-1.28333 2.718888,-3.45037 5.515626,-4.8164 3.85799,-1.88455 4.845977,-3.00975 4.095703,-4.66602 -1.513928,-3.34216 -1.133329,-21.642311 0.470703,-22.63867 0.777297,-0.482797 1.623473,-2.377602 1.880859,-4.210938 0.346658,-2.47045 1.24533,-3.307129 3.46875,-3.228515 3.369033,0.118904 3.292357,0.210041 2.189453,-2.664063 -0.503412,-1.311902 -2.097382,-2.052937 -3.623047,-2.082031 z m 37.039061,9.835938 c -1.21328,-0.01212 -2.39421,0.21749 -3.59961,0.675781 -3.0621,1.164208 -6.339841,7.116758 -6.339841,11.513672 0,3.376776 4.992971,7.651126 10.082031,8.630856 7.47515,1.43929 7.20451,1.4371 9.71094,0.0957 1.61887,-0.86642 2.36785,-3.17122 2.57422,-7.912113 0.25859,-5.94274 -0.11701,-6.977588 -3.3711,-9.269531 -3.56473,-2.510703 -6.38742,-3.707704 -9.05664,-3.734375 z m 3.25391,2.394531 c 0.0493,2.95e-4 0.0164,0.07411 -0.10938,0.228516 -0.5032,0.617612 0.68426,2.496348 2.63672,4.175781 3.29397,2.833323 3.41564,3.303886 1.68946,6.529297 -2.25926,4.221504 -5.73059,4.451444 -9.30274,0.617184 -2.98341,-3.202277 -2.33438,-5.498758 2.76953,-9.808591 1.28843,-1.08805 2.16865,-1.743071 2.31641,-1.742187 z m -34.271486,1.230469 c -7.066378,0.04077 -11.742072,8.480555 -4.855469,15.367189 2.656025,2.65599 4.188409,3.20358 7,2.50195 8.601713,-2.14651 11.125887,-10.247544 4.753906,-15.259764 -2.348459,-1.847295 -4.73526,-2.621856 -6.898437,-2.609375 z m 48.343746,2.232421 c -0.18628,0.02264 -0.32248,0.837509 -0.33984,2.28125 -0.0272,2.19995 0.25013,3.260163 0.61523,2.357422 0.36548,-0.902702 0.38672,-2.702715 0.0488,-4 -0.11615,-0.445941 -0.22664,-0.65053 -0.32422,-0.638672 z m -50.085934,2.386719 c 1.174509,-0.02998 2.999464,0.752914 4.421875,1.958985 3.011263,2.553222 3.019202,2.633915 0.476563,4.599614 -2.776479,2.14646 -5.09402,2.54273 -6.523438,1.11328 -1.748031,-1.748 -0.841654,-2.849446 1.779297,-2.16407 1.49091,0.3899 2.666016,0.0414 2.666016,-0.791012 0,-0.818872 -1.19937,-1.490234 -2.666016,-1.490234 -3.091011,0 -3.568466,-2.03477 -0.732422,-3.123047 0.166276,-0.0638 0.360624,-0.09796 0.578125,-0.103516 z m 37.984374,0.648438 c -0.47768,0.01535 -1.22458,0.273995 -2.38867,0.720703 -1.15998,0.445115 -2.10938,1.345121 -2.10938,2 0,0.654879 1.20129,1.191406 2.66797,1.191406 1.48146,0 2.66602,-0.888894 2.66602,-2 0,-1.367495 -0.0907,-1.936056 -0.83594,-1.912109 z m 11.93555,4.109375 c -0.79768,0.02311 -0.3876,3.533066 1.01367,7.552736 1.38433,3.97111 1.71247,4.12559 7.66602,3.5957 3.42115,-0.30455 6.97003,-0.58122 7.88671,-0.61523 0.91669,-0.0347 1.66797,-1.02858 1.66797,-2.20703 0,-1.50388 -0.69639,-1.86732 -2.33398,-1.21875 -1.28334,0.50823 -3.43152,1.14741 -4.77344,1.41992 -1.34192,0.27273 -3.59413,0.86248 -5.00586,1.31054 -2.65497,0.84269 -3.5092,-0.28834 -4.28125,-5.66796 -0.23406,-1.6311 -0.84183,-3.3809 -1.34961,-3.888676 -0.19609,-0.19609 -0.3597,-0.285032 -0.49023,-0.28125 z m 17.28906,12.074216 c -1.58233,0.003 -2.85149,0.74859 -3.92773,2.28516 -1.06961,1.52712 -2.76544,2.77734 -3.76758,2.77734 -2.57575,0 -10.02735,6.52833 -10.02735,8.78516 0,3.16724 2.56441,2.08784 3.45313,-1.45313 0.46016,-1.83333 1.73122,-3.33203 2.82422,-3.33203 3.02203,0 11.11968,-4.15163 10.39258,-5.32812 -0.35195,-0.56946 0.70391,-1.48032 2.3457,-2.02344 l 2.98437,-0.98828 -3.13085,-0.60742 c -0.39985,-0.0776 -0.78134,-0.11602 -1.14649,-0.11524 z m -41.21875,0.48633 c -7.814528,-0.001 -17.124591,0.53037 -20.503906,1.44336 -1.833335,0.49527 -4.083313,0.77656 -5,0.625 -1.594015,-0.26366 -2.314145,1.66156 -1.6875,4.50781 0.161462,0.73334 0.688512,4.03201 1.171875,7.33203 l 0.878907,6 9.109375,0.90235 c 5.010255,0.49598 9.304858,1.09663 9.542968,1.33398 1.182085,1.17865 14.248491,1.05018 16.513671,-0.16211 2.91016,-1.55747 6.90889,-13.38538 5.86914,-17.36133 -0.36597,-1.39952 -2.31493,-3.11912 -4.33203,-3.82226 -1.56817,-0.54668 -6.21572,-0.7979 -11.5625,-0.79883 z m 0.22656,2.11524 c 0.35419,-0.003 0.73323,0.0705 1.13477,0.2246 2.46584,0.94625 2.70405,4.80281 0.73242,11.90235 -1.03037,3.71028 -2.09857,5 -4.136718,5 -2.099679,0 -2.515207,-0.55039 -1.767578,-2.33399 0.537751,-1.28333 0.903145,-4.43332 0.810547,-7 -0.176336,-4.89312 1.062087,-7.77444 3.226559,-7.79296 z m 9.8086,1.12695 c 0.62471,0 1.79105,0.79063 2.59375,1.75781 1.07663,1.29725 0.80684,3.48364 -1.03125,8.33398 -3.11486,8.21931 -6.76758,9.62511 -6.76758,2.60547 0,-4.95356 3.17487,-12.69726 5.20508,-12.69726 z m -26.285159,1.33398 c 2.450192,0 2.668586,0.56518 1.935547,5 -0.454564,2.74999 -0.834238,5.74933 -0.841797,6.66602 -0.0081,0.91665 -0.860932,1.66601 -1.896485,1.66601 -2.038337,0 -4.290434,-9.56296 -2.814453,-11.95117 0.469871,-0.76025 2.097855,-1.38086 3.617188,-1.38086 z m 9.802734,0.34571 c 0.510394,0.002 0.985265,0.41073 1.341797,1.33984 0.41949,1.09315 0.248949,3.97163 -0.378906,6.39453 -1.684007,6.49875 -4.351563,6.61701 -4.351563,0.19336 0,-4.27649 1.85749,-7.93414 3.388672,-7.92773 z m 29.875005,15.65429 c -0.70188,0.0359 -1.26368,0.62165 -1.26368,1.33203 0,0.73335 0.59873,1.33399 1.33203,1.33399 0.73335,0 1.33399,-0.60064 1.33399,-1.33399 0,-0.7333 -0.60064,-1.33203 -1.33399,-1.33203 -0.0229,0 -0.0457,-0.001 -0.0683,0 z m -2.26563,3.98438 c -0.52758,0.0469 -1.04275,1.82682 -1.15234,4 -0.17928,3.5804 1.90649,5.99221 2.32031,2.68164 0.33146,-2.65161 0.55876,-3.36078 1.59961,-5 0.60344,-0.95033 0.45164,-1.66797 -0.35352,-1.66797 -0.77658,0 -1.8522,-0.006 -2.38867,-0.0137 -0.008,-1.4e-4 -0.017,-7.5e-4 -0.0254,0 z"
       transform="scale(0.26458333)" />
  </g>
</svg>
