<?xml version="1.0" encoding="UTF-8" standalone="no"?>
<!-- Created with Inkscape (http://www.inkscape.org/) -->

<svg
   width="52mm"
   height="37mm"
   viewBox="0 0 52 37"
   version="1.1"
   id="svg2127"
   inkscape:version="1.1.2 (0a00cf5339, 2022-02-04)"
   sodipodi:docname="monster1.svg"
   xmlns:inkscape="http://www.inkscape.org/namespaces/inkscape"
   xmlns:sodipodi="http://sodipodi.sourceforge.net/DTD/sodipodi-0.dtd"
   xmlns="http://www.w3.org/2000/svg"
   xmlns:svg="http://www.w3.org/2000/svg">
  <sodipodi:namedview
     id="namedview2129"
     pagecolor="#ffffff"
     bordercolor="#666666"
     borderopacity="1.0"
     inkscape:pageshadow="2"
     inkscape:pageopacity="0.0"
     inkscape:pagecheckerboard="0"
     inkscape:document-units="mm"
     showgrid="false"
     inkscape:zoom="6.0292929"
     inkscape:cx="127.79276"
     inkscape:cy="76.460044"
     inkscape:window-width="1920"
     inkscape:window-height="1055"
     inkscape:window-x="0"
     inkscape:window-y="25"
     inkscape:window-maximized="1"
     inkscape:current-layer="layer1" />
  <defs
     id="defs2124" />
  <g
     inkscape:label="Layer 1"
     inkscape:groupmode="layer"
     id="layer1">
    <path
       id="path1966"
       style="fill:#000000;stroke-width:1.33333"
       d="m 116.39453,24 c -1.59812,-0.02433 -4.29092,1.262095 -6.22656,3.488281 -2.08819,2.401701 -3.67283,3.139082 -5.24024,2.439453 -1.23583,-0.551622 -4.68875,-1.253208 -7.673824,-1.558593 -4.31588,-0.441411 -6.228006,0.115675 -9.333984,2.71289 -2.148246,1.796372 -5.255995,3.688568 -6.90625,4.205078 -3.975156,1.244145 -12.7809,9.62219 -11.792969,11.220703 0.427578,0.691843 -0.127616,1.606507 -1.234375,2.03125 -3.869102,1.484637 -6.721682,15.290037 -3.769531,18.242188 0.624756,0.624756 3.384264,1.287459 6.132812,1.472656 2.748548,0.185084 4.998047,0.924985 4.998047,1.644532 0,0.719508 1.231283,2.618599 2.736328,4.220703 1.505084,1.602066 2.833629,4.192054 2.951172,5.753906 0.117657,1.561852 0.931505,2.839844 1.810547,2.839844 2.274142,0 1.578755,-2.745432 -1.957031,-7.710938 -1.680265,-2.359937 -2.564768,-4.299208 -1.964844,-4.310547 0.599925,-0.01122 0.189838,-0.635979 -0.910156,-1.388672 -1.777777,-1.216478 -1.777777,-1.331407 0,-1.033203 3.614211,0.60601 8.307726,-2.904202 7.583984,-5.671875 -0.367105,-1.403867 -0.123652,-2.552734 0.541016,-2.552734 2.287861,0 1.205494,-2.666414 -1.125,-2.771484 -1.39389,-0.06289 -1.661657,-0.37558 -0.666016,-0.777344 0.916687,-0.369903 1.666016,-2.045718 1.666016,-3.722656 0,-2.46773 -1.123596,-3.363459 -5.894531,-4.699219 -3.242079,-0.907918 -6.540788,-1.248799 -7.332032,-0.759766 -0.791282,0.489033 -1.439453,0.25318 -1.439453,-0.523437 0,-0.77658 0.458171,-1.41211 1.017578,-1.41211 0.559446,0 1.608101,-1.311505 2.332032,-2.914062 0.723893,-1.602558 3.116381,-3.491805 5.316406,-4.199219 2.199987,-0.707416 4.322377,-1.774016 4.714844,-2.369141 0.392504,-0.595162 4.478541,-1.959741 9.080078,-3.033203 9.177566,-2.140951 11.204016,-1.08591 8.308596,4.324219 -2.396525,4.477986 -1.70461,9.287425 1.65429,11.488281 3.96477,2.597783 7.95592,2.659336 16.24219,0.25 7.85507,-2.284006 8.99144,-1.582503 11.01367,6.78711 1.18719,4.913348 1.07793,5.677623 -0.82226,5.755859 -1.20537,0.04947 -4.1075,0.339965 -6.44922,0.646484 -2.74507,0.359244 -5.01722,-0.202768 -6.39648,-1.582031 -1.17657,-1.176567 -2.25967,-1.917098 -2.40821,-1.646484 -2.57934,4.703546 -3.32819,5.733058 -4.43359,6.101562 -0.71834,0.239433 -1.96241,-1.224791 -2.76367,-3.253906 l -1.45703,-3.689453 -0.14063,3.58789 c -0.21313,5.390967 -2.79481,6.029612 -6.585938,1.626954 l -3.341796,-3.88086 0.822265,5.083985 c 0.697701,4.310513 0.479375,5.018075 -1.439453,4.648437 -1.244749,-0.239698 -2.271864,-1.026712 -2.283203,-1.75 -0.03591,-2.313335 -2.123138,-4.718764 -3.40625,-3.925781 -0.682658,0.421909 -1.240234,2.19878 -1.240234,3.947265 0,1.759333 -1.304212,4.090953 -2.919922,5.222657 -1.60577,1.124712 -2.521216,2.445581 -2.033203,2.933593 0.48805,0.488051 1.776402,0.148116 2.863281,-0.753906 1.616012,-1.341165 2.606393,-1.010795 5.427734,1.810547 3.899188,3.899074 5.306894,4.386743 4.179688,1.449219 -1.058457,-2.758224 0.377938,-6 2.658203,-6 1.03971,0 2.459228,1.500649 3.156248,3.333984 1.73458,4.562268 3.17588,4.205414 2.22461,-0.550781 -0.50226,-2.511383 -0.12029,-4.430267 1.08399,-5.429687 1.49926,-1.244297 2.35092,-0.596425 4.36132,3.322265 2.22252,4.332057 2.69176,4.631254 4.27735,2.720703 1.51094,-1.82056 1.41749,-2.413096 -0.61914,-3.902344 -1.32095,-0.96582 -1.97512,-2.446442 -1.45313,-3.291015 1.68197,-2.721525 5.98777,-1.635946 7.88672,1.988281 1.23315,2.353625 2.17112,2.998162 2.82422,1.941406 0.53779,-0.870122 0.2515,-2.455532 -0.63477,-3.523437 -1.30994,-1.578406 -1.14285,-1.978357 0.88672,-2.136719 3.90527,-0.304252 25.83008,-0.501524 25.83008,-0.232422 0,0.13251 -2.69998,1.588228 -6,3.236328 -3.29998,1.648063 -5.99389,3.040459 -5.98633,3.09375 0.008,0.05337 0.86623,2.90637 1.90821,6.339844 1.24535,4.103622 1.50881,7.530117 0.76757,10 -1.04273,3.474217 -1.36586,3.081353 -1.84375,-2.242187 -0.32035,-3.568593 -10.8339,-1.862933 -20.41992,3.314453 -11.08448,5.986696 -13.72702,9.168805 -12.73633,15.330076 0.68202,4.24169 0.54266,4.51496 -1.45312,2.8711 -1.21304,-0.99908 -3.479895,-3.87955 -5.039064,-6.40235 -1.559168,-2.522795 -3.100742,-4.321131 -3.425781,-3.996092 -0.325153,0.325153 1.439582,3.806262 3.923828,7.736332 2.484247,3.9301 5.012467,8.34581 5.617187,9.8125 0.98593,2.39142 1.15772,2.42648 1.6582,0.33398 0.30694,-1.2833 1.033,-2.33398 1.61524,-2.33398 0.94057,0 0.79527,-8.33093 -0.20313,-11.63477 -0.96336,-3.188031 18.18977,-15.031249 24.3086,-15.031249 1.67187,0 2.70032,1.348623 3.30078,4.332031 1.45444,7.226343 2.1304,8.999998 3.42969,8.999998 0.6839,0 1.24414,-0.880053 1.24414,-1.957029 0,-1.077166 0.74933,-1.670612 1.66601,-1.31836 1.82555,0.701216 1.94794,-4.934291 0.37891,-17.492187 -1.04761,-8.384731 -0.0113,-9.30448 12.14844,-10.804688 4.29377,-0.529738 6.75599,-1.188055 5.47265,-1.460937 -2.73286,-0.580989 -2.9555,-1.810085 -0.73242,-4.033203 0.88906,-0.88887 1.00637,-1.59961 0.26563,-1.59961 -0.73335,0 -2.05361,0.719622 -2.9336,1.59961 -1.24437,1.244447 -1.60402,1.022236 -1.61914,-1 -0.0127,-1.612271 -0.39255,-2.017966 -1,-1.06836 -0.53877,0.84223 -4.49673,1.970074 -8.79492,2.50586 -8.65852,1.079319 -10.12627,0.157787 -10.16406,-6.373047 -0.0258,-4.634684 -7.34828,-18.463738 -12.96485,-24.484375 -2.47328,-2.651263 -3.96117,-5.413232 -3.52539,-6.548828 0.52285,-1.362513 -0.0569,-1.993118 -1.15039,-2.009766 z m -6.47656,9.037109 c 1.03135,-0.01013 2.21699,0.158438 3.53711,0.517579 5.79496,1.576516 9.07882,5.574319 8.02539,9.771484 -0.70488,2.808453 -1.58621,3.355503 -5.1582,3.205078 -7.51832,-0.316913 -10.30578,-1.274012 -10.41993,-3.578125 -0.0611,-1.232315 -0.26131,-3.622268 -0.44726,-5.310547 -0.32315,-2.935927 1.36882,-4.575092 4.46289,-4.605469 z m 2.11523,3.292969 c -0.87896,-0.0154 -1.76919,0.278877 -2.4414,0.960938 -1.21663,1.23447 -0.99847,2.027994 0.95312,3.46875 2.8241,2.084787 4.80274,1.465278 4.80274,-1.501954 0,-1.740586 -1.63644,-2.89834 -3.31446,-2.927734 z M 74.068359,49.974609 c 1.2066,-0.03017 2.539112,0.45111 4.867188,1.423829 3.704731,1.547943 4.550097,2.405336 3.199219,3.240234 -1.072781,0.662513 -1.53151,2.300889 -1.103516,3.9375 0.525997,2.011389 0.110109,2.807147 -1.474609,2.822266 -1.924082,0.01776 -1.951309,0.20207 -0.208985,1.421874 1.582753,1.108158 1.396695,1.231445 -0.888672,0.591797 -1.58736,-0.444293 -3.271336,-0.184024 -3.74414,0.578125 0,0 0,0.002 0,0.002 -1.113344,1.799669 -3.380815,1.688294 -6.701172,-0.328126 -2.934501,-1.782047 -4.157312,-4.951171 -1.910156,-4.951171 0.78274,0 1.083414,-1.071934 0.667968,-2.38086 -0.531288,-1.673953 0.414915,-3.071164 3.1875,-4.708984 1.822545,-1.076523 2.902775,-1.618263 4.109375,-1.648438 z m -0.677734,5.341797 c -1.426057,0.01281 -3.376953,1.081028 -3.376953,2.205078 0,0.654841 1.201285,1.191407 2.667969,1.191407 2.598916,0 3.474154,-1.414517 1.86914,-3.019532 -0.267042,-0.267042 -0.684804,-0.381222 -1.160156,-0.376953 z M 79.75,88.667969 c -0.439963,0.02433 -1.039469,0.81938 -2.140625,2.5 -2.167597,3.308145 -2.138745,3.554844 0.740234,6.251953 2.932536,2.747378 3.007321,2.751598 3.40625,0.189453 0.224278,-1.440605 1.580286,-3.679353 3.013672,-4.976563 2.50424,-2.266318 2.736238,-2.236643 5.925781,0.759766 3.696794,3.47297 4.565288,2.240433 1.111329,-1.576172 -2.490633,-2.752138 -7.803593,-3.243954 -9.277344,-0.859375 -0.676573,1.09474 -1.232835,0.841104 -1.818359,-0.828125 C 80.369719,89.156167 80.114541,88.647808 79.75,88.667969 Z"
       transform="scale(0.26458333)" />
  </g>
</svg>
