; NON-PLATED HOLES START AT T1
; THROUGH (PLATED) HOLES START AT T100
M48
INCH
T1C0.125984
T100C0.041333
T101C0.038000
T102C0.100000
T103C0.032000
T104C0.031497
T105C0.040000
T106C0.060020
T107C0.035000
T108C0.030000
T109C0.088356
T110C0.039370
T111C0.041361
T112C0.043307
%
T1
X018581Y000857
X018747Y038399
X001117Y036610
X001066Y000913
X001066Y002406
X001131Y038344
T100
X005062Y022000
X005068Y009293
X016054Y006279
X005007Y026864
X005037Y015174
X015296Y034576
X005062Y021000
X014296Y034576
X005007Y027864
X017054Y006279
X005068Y010293
X005038Y016174
T101
X000827Y005898
X004583Y005364
X011624Y019200
X018951Y034992
X006356Y010225
X010481Y012429
X004548Y003127
X006332Y024100
X009481Y012429
X006344Y020872
X009610Y024484
X006332Y023100
X014624Y019200
X014481Y012429
X019027Y032539
X019027Y033539
X012624Y019200
X006344Y019872
X006356Y009225
X013624Y019200
X010610Y024484
X012610Y024484
X018951Y035992
X013481Y012429
X000820Y003865
X006272Y016269
X010624Y019200
X001816Y004864
X001820Y003865
X006343Y026800
X006356Y011225
X011481Y012429
X001827Y005898
X006272Y017269
X012481Y012429
X006343Y025800
X009624Y019200
X006272Y015269
X011610Y024484
X000816Y004864
T102
X004258Y036347
X004258Y033947
X002358Y035147
T103
X015955Y028330
X018955Y028330
X012955Y028330
X014955Y031330
X012955Y031330
X018955Y031330
X015955Y031330
X014955Y028330
X016955Y031330
X017955Y031330
X013955Y028330
X011955Y028330
X017955Y028330
X016955Y028330
X011955Y031330
X013955Y031330
T104
X018171Y021172
X017226Y008101
X017110Y013711
X018171Y020188
X018210Y008101
X018094Y013711
T105
X000979Y034154
X000979Y032014
X000979Y033084
T106
X009712Y035853
X008772Y038393
X006852Y037113
X007052Y034163
X010702Y035303
T107
X014820Y032560
X014625Y017824
X013003Y007735
X009666Y032994
X008681Y000718
X011681Y000718
X007380Y030841
X018632Y023410
X008478Y023309
X014518Y008545
X015427Y010758
X009272Y013542
X012272Y016542
X015272Y013542
X006352Y005873
X003899Y000594
X011352Y005873
X011625Y017824
X011478Y020309
X009542Y027605
X012478Y020309
X010272Y016542
X008352Y002873
X009478Y020309
X018427Y010758
X018549Y017298
X010272Y013542
X010848Y010285
X009478Y023309
X017549Y017298
X012478Y023309
X011478Y023309
X015272Y016542
X012272Y013542
X016454Y012349
X016632Y023410
X016680Y019271
X009272Y016542
X008352Y005873
X010542Y027605
X015911Y000739
X005535Y030903
X012911Y000739
X006699Y028659
X002535Y030903
X005274Y007228
X016349Y032919
X011352Y002873
X006352Y002873
X007847Y025924
X008478Y020309
X013478Y023309
X013272Y016542
X015233Y009342
X012352Y002873
X006666Y032994
X011848Y010285
X008274Y007228
X012848Y010285
X018526Y018515
X010352Y002873
X010478Y023309
X008272Y016542
X009352Y005873
X018233Y009342
X014478Y023309
X006320Y001897
X002867Y031989
X010003Y007735
X010691Y009005
X000616Y007233
X011272Y013542
X007380Y031841
X014272Y013542
X015478Y023309
X014612Y024767
X007352Y005873
X009352Y002873
X017349Y032919
X016680Y022271
X014272Y016542
X009320Y001897
X015526Y018515
X017632Y023410
X010352Y005873
X007376Y024968
X007699Y028659
X003616Y007233
X011272Y016542
X007376Y021968
X015478Y020309
X010820Y032560
X012352Y005873
X017612Y024767
X005867Y031989
X011518Y008545
X010847Y025924
X007352Y002873
X008272Y013542
X007691Y009005
X016549Y017298
X013478Y020309
X014478Y020309
X016454Y015349
X010478Y020309
X006899Y000594
X013272Y013542
T108
X016656Y026542
X014656Y026542
T109
X014112Y003326
X013354Y037528
X002085Y018115
X002085Y014232
X002115Y012234
X002054Y025923
X002109Y020058
X002115Y008351
X002109Y023941
X002054Y029806
X017995Y003326
X017237Y037528
T110
X003137Y003491
X003137Y005491
X003137Y004491
X003137Y002491
T111
X015053Y006279
X005068Y011293
X005037Y017174
X016296Y034576
X005062Y023000
X005007Y028864
T112
X004567Y004242
T00
M30
