G04 MADE WITH FRITZING*
G04 WWW.FRITZING.ORG*
G04 DOUBLE SIDED*
G04 HOLES PLATED*
G04 CONTOUR ON CENTER OF CONTOUR VECTOR*
%ASAXBY*%
%FSLAX23Y23*%
%MOIN*%
%OFA0B0*%
%SFA1.0B1.0*%
%ADD10C,0.075000*%
%ADD11C,0.062992*%
%ADD12C,0.074000*%
%ADD13C,0.140000*%
%ADD14C,0.090020*%
%ADD15C,0.052000*%
%ADD16C,0.078000*%
%ADD17C,0.079370*%
%ADD18C,0.083307*%
%ADD19C,0.074667*%
%ADD20C,0.074695*%
%ADD21C,0.124033*%
%ADD22C,0.070000*%
%ADD23R,0.075000X0.075000*%
%ADD24R,0.062992X0.062992*%
%ADD25C,0.024000*%
%ADD26R,0.001000X0.001000*%
%LNCOPPER1*%
G90*
G70*
G54D10*
X635Y287D03*
X735Y287D03*
X835Y287D03*
X935Y287D03*
X1035Y287D03*
X1135Y287D03*
X1235Y287D03*
X1235Y587D03*
X1135Y587D03*
X1035Y587D03*
X935Y587D03*
X835Y587D03*
X735Y587D03*
X635Y587D03*
X670Y2866D03*
X770Y2866D03*
X954Y2761D03*
X1054Y2761D03*
G54D11*
X1809Y1371D03*
X1711Y1371D03*
X1817Y2019D03*
X1817Y2117D03*
X1821Y810D03*
X1723Y810D03*
G54D12*
X98Y3415D03*
X98Y3308D03*
X98Y3201D03*
X98Y3415D03*
X98Y3308D03*
X98Y3201D03*
G54D10*
X1655Y1730D03*
X1755Y1730D03*
X1855Y1730D03*
X1863Y2341D03*
X1763Y2341D03*
X1663Y2341D03*
X1285Y1029D03*
X1185Y1029D03*
X1085Y1029D03*
G54D13*
X426Y3395D03*
X426Y3635D03*
X236Y3515D03*
G54D14*
X1070Y3530D03*
X971Y3585D03*
X705Y3416D03*
X685Y3711D03*
X877Y3839D03*
G54D10*
X1082Y3256D03*
X1482Y3256D03*
X667Y3299D03*
X967Y3299D03*
X1300Y774D03*
X1000Y774D03*
X738Y2497D03*
X738Y2197D03*
G54D15*
X1196Y2833D03*
X1296Y2833D03*
X1396Y2833D03*
X1496Y2833D03*
X1596Y2833D03*
X1696Y2833D03*
X1796Y2833D03*
X1896Y2833D03*
X1896Y3133D03*
X1796Y3133D03*
X1696Y3133D03*
X1596Y3133D03*
X1496Y3133D03*
X1396Y3133D03*
X1296Y3133D03*
X1196Y3133D03*
X1196Y2833D03*
X1296Y2833D03*
X1396Y2833D03*
X1496Y2833D03*
X1596Y2833D03*
X1696Y2833D03*
X1796Y2833D03*
X1896Y2833D03*
X1896Y3133D03*
X1796Y3133D03*
X1696Y3133D03*
X1596Y3133D03*
X1496Y3133D03*
X1396Y3133D03*
X1296Y3133D03*
X1196Y3133D03*
G54D16*
X627Y1727D03*
X627Y1627D03*
X627Y1527D03*
X961Y2448D03*
X1061Y2448D03*
X1161Y2448D03*
X1261Y2448D03*
G54D17*
X314Y549D03*
X314Y449D03*
X314Y349D03*
X314Y249D03*
G54D16*
X948Y1243D03*
X1048Y1243D03*
X1148Y1243D03*
X1248Y1243D03*
X1348Y1243D03*
X1448Y1243D03*
X962Y1920D03*
X1062Y1920D03*
X1162Y1920D03*
X1262Y1920D03*
X1362Y1920D03*
X1462Y1920D03*
X1895Y3499D03*
X1895Y3599D03*
X1903Y3254D03*
X1903Y3354D03*
X634Y1987D03*
X634Y2087D03*
X82Y387D03*
X182Y387D03*
X82Y486D03*
X182Y486D03*
X83Y590D03*
X183Y590D03*
X455Y313D03*
X458Y536D03*
G54D18*
X457Y424D03*
G54D16*
X634Y2580D03*
X634Y2680D03*
X636Y1123D03*
X636Y1023D03*
X636Y923D03*
G54D10*
X827Y1354D03*
X827Y1654D03*
X927Y1354D03*
X927Y1654D03*
X1027Y1354D03*
X1027Y1654D03*
X1127Y1354D03*
X1127Y1654D03*
X1227Y1354D03*
X1227Y1654D03*
X1327Y1354D03*
X1327Y1654D03*
X1427Y1354D03*
X1427Y1654D03*
X1527Y1354D03*
X1527Y1654D03*
X848Y2031D03*
X848Y2331D03*
X948Y2031D03*
X948Y2331D03*
X1048Y2031D03*
X1048Y2331D03*
X1148Y2031D03*
X1148Y2331D03*
X1248Y2031D03*
X1248Y2331D03*
X1348Y2031D03*
X1348Y2331D03*
X1448Y2031D03*
X1448Y2331D03*
X1548Y2031D03*
X1548Y2331D03*
G54D19*
X507Y929D03*
X507Y1029D03*
G54D20*
X507Y1129D03*
G54D21*
X212Y835D03*
X212Y1223D03*
G54D19*
X504Y1517D03*
X504Y1617D03*
G54D20*
X504Y1717D03*
G54D21*
X209Y1423D03*
X209Y1812D03*
G54D19*
X501Y2686D03*
X501Y2786D03*
G54D20*
X501Y2886D03*
G54D21*
X205Y2592D03*
X205Y2981D03*
G54D19*
X1705Y628D03*
X1605Y628D03*
G54D20*
X1505Y628D03*
G54D21*
X1800Y333D03*
X1411Y333D03*
G54D19*
X506Y2100D03*
X506Y2200D03*
G54D20*
X506Y2300D03*
G54D21*
X211Y2006D03*
X211Y2394D03*
G54D10*
X587Y3199D03*
X287Y3199D03*
X554Y3090D03*
X254Y3090D03*
X738Y3084D03*
X738Y3184D03*
X1085Y2592D03*
X785Y2592D03*
X1463Y1782D03*
X1163Y1782D03*
X1843Y1076D03*
X1543Y1076D03*
X1645Y1235D03*
X1645Y1535D03*
X1668Y1927D03*
X1668Y2227D03*
X1761Y2477D03*
X1461Y2477D03*
X1553Y1852D03*
X1853Y1852D03*
X1452Y855D03*
X1152Y855D03*
X1823Y934D03*
X1523Y934D03*
X769Y901D03*
X1069Y901D03*
X690Y59D03*
X390Y59D03*
X632Y190D03*
X932Y190D03*
X868Y72D03*
X1168Y72D03*
X1291Y74D03*
X1591Y74D03*
X62Y723D03*
X362Y723D03*
X827Y723D03*
X527Y723D03*
G54D22*
X1466Y2654D03*
X1666Y2654D03*
G54D19*
X1430Y3458D03*
X1530Y3458D03*
G54D20*
X1630Y3458D03*
G54D21*
X1335Y3753D03*
X1724Y3753D03*
G54D16*
X633Y2310D03*
X633Y2410D03*
G54D10*
X1635Y3292D03*
X1735Y3292D03*
G54D23*
X635Y287D03*
X670Y2866D03*
X954Y2761D03*
G54D24*
X1809Y1371D03*
X1817Y2019D03*
X1821Y810D03*
G54D23*
X827Y1354D03*
X848Y2031D03*
X738Y3084D03*
X1635Y3292D03*
G54D25*
X865Y3385D02*
X747Y3199D01*
D02*
X1046Y3513D02*
X865Y3385D01*
D02*
X1285Y3325D02*
X1631Y3379D01*
D02*
X1631Y3379D02*
X1630Y3437D01*
D02*
X1295Y3149D02*
X1285Y3325D01*
D02*
X907Y3840D02*
X1520Y3845D01*
D02*
X1520Y3845D02*
X1529Y3478D01*
D02*
X617Y924D02*
X527Y928D01*
D02*
X544Y456D02*
X472Y523D01*
D02*
X383Y307D02*
X436Y311D01*
D02*
X513Y603D02*
X383Y611D01*
D02*
X383Y611D02*
X383Y307D01*
D02*
X1135Y507D02*
X602Y518D01*
D02*
X602Y518D02*
X513Y603D01*
D02*
X1135Y570D02*
X1135Y507D01*
D02*
X1121Y450D02*
X544Y456D01*
D02*
X865Y118D02*
X246Y133D01*
D02*
X244Y470D02*
X200Y482D01*
D02*
X867Y89D02*
X865Y118D01*
D02*
X246Y133D02*
X244Y470D01*
D02*
X1134Y305D02*
X1121Y450D01*
D02*
X538Y403D02*
X478Y419D01*
D02*
X734Y305D02*
X724Y403D01*
D02*
X724Y403D02*
X538Y403D01*
D02*
X624Y3151D02*
X598Y3185D01*
D02*
X1491Y2970D02*
X1495Y2849D01*
D02*
X1198Y2718D02*
X1932Y2742D01*
D02*
X1932Y2742D02*
X1920Y451D01*
D02*
X1920Y451D02*
X1691Y451D01*
D02*
X1196Y2817D02*
X1198Y2718D01*
D02*
X1691Y451D02*
X1614Y609D01*
D02*
X667Y2994D02*
X624Y3151D01*
D02*
X1483Y2974D02*
X667Y2994D01*
D02*
X1494Y2849D02*
X1483Y2974D01*
D02*
X848Y2348D02*
X865Y2986D01*
D02*
X865Y2986D02*
X1491Y2970D01*
D02*
X924Y1142D02*
X1545Y1136D01*
D02*
X935Y605D02*
X924Y1142D01*
D02*
X1545Y1136D02*
X1529Y1337D01*
D02*
X341Y1056D02*
X617Y1025D01*
D02*
X615Y2580D02*
X316Y2578D01*
D02*
X316Y2578D02*
X341Y1056D01*
D02*
X1445Y1262D02*
X1430Y1337D01*
D02*
X1345Y1262D02*
X1330Y1337D01*
D02*
X1245Y1262D02*
X1230Y1337D01*
D02*
X1145Y1262D02*
X1130Y1337D01*
D02*
X1045Y1262D02*
X1030Y1337D01*
D02*
X945Y1262D02*
X930Y1337D01*
D02*
X1250Y2348D02*
X1259Y2430D01*
D02*
X1150Y2348D02*
X1159Y2430D01*
D02*
X1050Y2348D02*
X1059Y2430D01*
D02*
X950Y2348D02*
X959Y2430D01*
D02*
X1902Y3235D02*
X1896Y3149D01*
D02*
X950Y2659D02*
X954Y2743D01*
D02*
X1348Y2348D02*
X1350Y2666D01*
D02*
X1350Y2666D02*
X950Y2659D01*
D02*
X765Y2122D02*
X817Y2211D01*
D02*
X819Y1639D02*
X753Y1521D01*
D02*
X753Y1521D02*
X769Y918D01*
D02*
X657Y1240D02*
X398Y1222D01*
D02*
X398Y1222D02*
X387Y1844D01*
D02*
X387Y1844D02*
X728Y1848D01*
D02*
X728Y1848D02*
X765Y2122D01*
D02*
X1561Y2222D02*
X1550Y2314D01*
D02*
X639Y1141D02*
X657Y1240D01*
D02*
X817Y2211D02*
X1561Y2222D01*
D02*
X787Y1721D02*
X646Y1726D01*
D02*
X1529Y1672D02*
X1534Y1713D01*
D02*
X1534Y1713D02*
X787Y1721D01*
D02*
X1664Y2324D02*
X1667Y2245D01*
D02*
X1735Y2221D02*
X1685Y2225D01*
D02*
X1835Y1853D02*
X1740Y1863D01*
D02*
X1740Y1863D02*
X1735Y2221D01*
D02*
X1863Y2324D02*
X1857Y2175D01*
D02*
X1857Y2175D02*
X1826Y2130D01*
D02*
X1839Y1093D02*
X1812Y1227D01*
D02*
X1812Y1227D02*
X1810Y1355D01*
D02*
X1723Y826D02*
X1738Y1200D01*
D02*
X1738Y1200D02*
X1713Y1356D01*
D02*
X1745Y1744D02*
X1702Y1803D01*
D02*
X1702Y1803D02*
X1480Y1784D01*
D02*
X1641Y1600D02*
X1653Y1712D01*
D02*
X1331Y1637D02*
X1344Y1573D01*
D02*
X1344Y1573D02*
X1641Y1600D01*
D02*
X1707Y648D02*
X1721Y794D01*
D02*
X1821Y826D02*
X1823Y917D01*
D02*
X1409Y934D02*
X1219Y931D01*
D02*
X1219Y931D02*
X1191Y1012D01*
D02*
X1443Y870D02*
X1409Y934D01*
D02*
X1071Y918D02*
X1083Y1011D01*
D02*
X187Y3305D02*
X118Y3308D01*
D02*
X224Y3466D02*
X187Y3305D01*
D02*
X524Y1619D02*
X608Y1625D01*
D02*
X230Y3820D02*
X235Y3565D01*
D02*
X847Y3838D02*
X230Y3820D01*
D02*
X287Y3288D02*
X287Y3216D01*
D02*
X560Y3288D02*
X287Y3288D01*
D02*
X1380Y3378D02*
X1419Y3440D01*
D02*
X1194Y3370D02*
X1380Y3378D01*
D02*
X1195Y3149D02*
X1194Y3370D01*
D02*
X524Y1719D02*
X608Y1725D01*
D02*
X617Y1024D02*
X527Y1028D01*
D02*
X259Y3107D02*
X282Y3182D01*
D02*
X649Y3298D02*
X560Y3288D01*
D02*
X527Y1128D02*
X617Y1124D01*
D02*
X642Y2185D02*
X527Y2198D01*
D02*
X720Y2195D02*
X642Y2185D01*
D02*
X1903Y3335D02*
X1903Y3273D01*
D02*
X278Y3541D02*
X384Y3608D01*
D02*
X641Y2428D02*
X771Y2734D01*
D02*
X771Y2734D02*
X770Y2848D01*
D02*
X633Y2329D02*
X633Y2391D01*
D02*
X1631Y3275D02*
X1599Y3149D01*
D02*
X1731Y3275D02*
X1699Y3149D01*
G54D26*
X1191Y3185D02*
X1201Y3185D01*
X1291Y3185D02*
X1301Y3185D01*
X1391Y3185D02*
X1401Y3185D01*
X1491Y3185D02*
X1501Y3185D01*
X1591Y3185D02*
X1601Y3185D01*
X1691Y3185D02*
X1700Y3185D01*
X1791Y3185D02*
X1800Y3185D01*
X1891Y3185D02*
X1900Y3185D01*
X1187Y3184D02*
X1204Y3184D01*
X1287Y3184D02*
X1304Y3184D01*
X1387Y3184D02*
X1404Y3184D01*
X1487Y3184D02*
X1504Y3184D01*
X1587Y3184D02*
X1604Y3184D01*
X1687Y3184D02*
X1704Y3184D01*
X1787Y3184D02*
X1804Y3184D01*
X1887Y3184D02*
X1904Y3184D01*
X1185Y3183D02*
X1206Y3183D01*
X1285Y3183D02*
X1306Y3183D01*
X1385Y3183D02*
X1406Y3183D01*
X1485Y3183D02*
X1506Y3183D01*
X1585Y3183D02*
X1606Y3183D01*
X1685Y3183D02*
X1706Y3183D01*
X1785Y3183D02*
X1806Y3183D01*
X1885Y3183D02*
X1906Y3183D01*
X1183Y3182D02*
X1208Y3182D01*
X1283Y3182D02*
X1308Y3182D01*
X1383Y3182D02*
X1408Y3182D01*
X1483Y3182D02*
X1508Y3182D01*
X1583Y3182D02*
X1608Y3182D01*
X1683Y3182D02*
X1708Y3182D01*
X1783Y3182D02*
X1808Y3182D01*
X1883Y3182D02*
X1908Y3182D01*
X1182Y3181D02*
X1210Y3181D01*
X1281Y3181D02*
X1310Y3181D01*
X1381Y3181D02*
X1410Y3181D01*
X1481Y3181D02*
X1510Y3181D01*
X1581Y3181D02*
X1610Y3181D01*
X1681Y3181D02*
X1710Y3181D01*
X1781Y3181D02*
X1810Y3181D01*
X1881Y3181D02*
X1910Y3181D01*
X1180Y3180D02*
X1211Y3180D01*
X1280Y3180D02*
X1311Y3180D01*
X1380Y3180D02*
X1411Y3180D01*
X1480Y3180D02*
X1511Y3180D01*
X1580Y3180D02*
X1611Y3180D01*
X1680Y3180D02*
X1711Y3180D01*
X1780Y3180D02*
X1811Y3180D01*
X1880Y3180D02*
X1911Y3180D01*
X1179Y3179D02*
X1212Y3179D01*
X1279Y3179D02*
X1312Y3179D01*
X1379Y3179D02*
X1412Y3179D01*
X1479Y3179D02*
X1512Y3179D01*
X1579Y3179D02*
X1612Y3179D01*
X1679Y3179D02*
X1712Y3179D01*
X1779Y3179D02*
X1812Y3179D01*
X1879Y3179D02*
X1912Y3179D01*
X1178Y3178D02*
X1214Y3178D01*
X1278Y3178D02*
X1313Y3178D01*
X1378Y3178D02*
X1413Y3178D01*
X1478Y3178D02*
X1513Y3178D01*
X1578Y3178D02*
X1613Y3178D01*
X1678Y3178D02*
X1713Y3178D01*
X1778Y3178D02*
X1813Y3178D01*
X1878Y3178D02*
X1913Y3178D01*
X1177Y3177D02*
X1214Y3177D01*
X1277Y3177D02*
X1314Y3177D01*
X1377Y3177D02*
X1414Y3177D01*
X1477Y3177D02*
X1514Y3177D01*
X1577Y3177D02*
X1614Y3177D01*
X1677Y3177D02*
X1714Y3177D01*
X1777Y3177D02*
X1814Y3177D01*
X1877Y3177D02*
X1914Y3177D01*
X1176Y3176D02*
X1215Y3176D01*
X1276Y3176D02*
X1315Y3176D01*
X1376Y3176D02*
X1415Y3176D01*
X1476Y3176D02*
X1515Y3176D01*
X1576Y3176D02*
X1615Y3176D01*
X1676Y3176D02*
X1715Y3176D01*
X1776Y3176D02*
X1815Y3176D01*
X1876Y3176D02*
X1915Y3176D01*
X1175Y3175D02*
X1216Y3175D01*
X1275Y3175D02*
X1316Y3175D01*
X1375Y3175D02*
X1416Y3175D01*
X1475Y3175D02*
X1516Y3175D01*
X1575Y3175D02*
X1616Y3175D01*
X1675Y3175D02*
X1716Y3175D01*
X1775Y3175D02*
X1816Y3175D01*
X1875Y3175D02*
X1916Y3175D01*
X1175Y3174D02*
X1217Y3174D01*
X1275Y3174D02*
X1317Y3174D01*
X1375Y3174D02*
X1417Y3174D01*
X1475Y3174D02*
X1517Y3174D01*
X1575Y3174D02*
X1617Y3174D01*
X1674Y3174D02*
X1717Y3174D01*
X1774Y3174D02*
X1817Y3174D01*
X1874Y3174D02*
X1917Y3174D01*
X1174Y3173D02*
X1217Y3173D01*
X1274Y3173D02*
X1317Y3173D01*
X1374Y3173D02*
X1417Y3173D01*
X1474Y3173D02*
X1517Y3173D01*
X1574Y3173D02*
X1617Y3173D01*
X1674Y3173D02*
X1717Y3173D01*
X1774Y3173D02*
X1817Y3173D01*
X1874Y3173D02*
X1917Y3173D01*
X1173Y3172D02*
X1218Y3172D01*
X1273Y3172D02*
X1318Y3172D01*
X1373Y3172D02*
X1418Y3172D01*
X1473Y3172D02*
X1518Y3172D01*
X1573Y3172D02*
X1618Y3172D01*
X1673Y3172D02*
X1718Y3172D01*
X1773Y3172D02*
X1818Y3172D01*
X1873Y3172D02*
X1918Y3172D01*
X1173Y3171D02*
X1218Y3171D01*
X1273Y3171D02*
X1318Y3171D01*
X1373Y3171D02*
X1418Y3171D01*
X1473Y3171D02*
X1518Y3171D01*
X1573Y3171D02*
X1618Y3171D01*
X1673Y3171D02*
X1718Y3171D01*
X1773Y3171D02*
X1818Y3171D01*
X1873Y3171D02*
X1918Y3171D01*
X1172Y3170D02*
X1219Y3170D01*
X1272Y3170D02*
X1319Y3170D01*
X1372Y3170D02*
X1419Y3170D01*
X1472Y3170D02*
X1519Y3170D01*
X1572Y3170D02*
X1619Y3170D01*
X1672Y3170D02*
X1719Y3170D01*
X1772Y3170D02*
X1819Y3170D01*
X1872Y3170D02*
X1919Y3170D01*
X1172Y3169D02*
X1219Y3169D01*
X1272Y3169D02*
X1319Y3169D01*
X1372Y3169D02*
X1419Y3169D01*
X1472Y3169D02*
X1519Y3169D01*
X1572Y3169D02*
X1619Y3169D01*
X1672Y3169D02*
X1719Y3169D01*
X1772Y3169D02*
X1819Y3169D01*
X1872Y3169D02*
X1919Y3169D01*
X1172Y3168D02*
X1220Y3168D01*
X1272Y3168D02*
X1320Y3168D01*
X1372Y3168D02*
X1420Y3168D01*
X1472Y3168D02*
X1520Y3168D01*
X1572Y3168D02*
X1620Y3168D01*
X1671Y3168D02*
X1720Y3168D01*
X1771Y3168D02*
X1820Y3168D01*
X1871Y3168D02*
X1920Y3168D01*
X1171Y3167D02*
X1220Y3167D01*
X1271Y3167D02*
X1320Y3167D01*
X1371Y3167D02*
X1420Y3167D01*
X1471Y3167D02*
X1520Y3167D01*
X1571Y3167D02*
X1620Y3167D01*
X1671Y3167D02*
X1720Y3167D01*
X1771Y3167D02*
X1820Y3167D01*
X1871Y3167D02*
X1920Y3167D01*
X1171Y3166D02*
X1220Y3166D01*
X1271Y3166D02*
X1320Y3166D01*
X1371Y3166D02*
X1420Y3166D01*
X1471Y3166D02*
X1520Y3166D01*
X1571Y3166D02*
X1620Y3166D01*
X1671Y3166D02*
X1720Y3166D01*
X1771Y3166D02*
X1820Y3166D01*
X1871Y3166D02*
X1920Y3166D01*
X1171Y3165D02*
X1221Y3165D01*
X1271Y3165D02*
X1321Y3165D01*
X1371Y3165D02*
X1421Y3165D01*
X1471Y3165D02*
X1521Y3165D01*
X1571Y3165D02*
X1621Y3165D01*
X1671Y3165D02*
X1720Y3165D01*
X1771Y3165D02*
X1820Y3165D01*
X1871Y3165D02*
X1920Y3165D01*
X1171Y3164D02*
X1221Y3164D01*
X1271Y3164D02*
X1321Y3164D01*
X1371Y3164D02*
X1421Y3164D01*
X1471Y3164D02*
X1521Y3164D01*
X1570Y3164D02*
X1621Y3164D01*
X1670Y3164D02*
X1721Y3164D01*
X1770Y3164D02*
X1821Y3164D01*
X1870Y3164D02*
X1921Y3164D01*
X1170Y3163D02*
X1221Y3163D01*
X1270Y3163D02*
X1321Y3163D01*
X1370Y3163D02*
X1421Y3163D01*
X1470Y3163D02*
X1521Y3163D01*
X1570Y3163D02*
X1621Y3163D01*
X1670Y3163D02*
X1721Y3163D01*
X1770Y3163D02*
X1821Y3163D01*
X1870Y3163D02*
X1921Y3163D01*
X1170Y3162D02*
X1221Y3162D01*
X1270Y3162D02*
X1321Y3162D01*
X1370Y3162D02*
X1421Y3162D01*
X1470Y3162D02*
X1521Y3162D01*
X1570Y3162D02*
X1621Y3162D01*
X1670Y3162D02*
X1721Y3162D01*
X1770Y3162D02*
X1821Y3162D01*
X1870Y3162D02*
X1921Y3162D01*
X1170Y3161D02*
X1221Y3161D01*
X1270Y3161D02*
X1321Y3161D01*
X1370Y3161D02*
X1421Y3161D01*
X1470Y3161D02*
X1521Y3161D01*
X1570Y3161D02*
X1621Y3161D01*
X1670Y3161D02*
X1721Y3161D01*
X1770Y3161D02*
X1821Y3161D01*
X1870Y3161D02*
X1921Y3161D01*
X1170Y3160D02*
X1221Y3160D01*
X1270Y3160D02*
X1321Y3160D01*
X1370Y3160D02*
X1421Y3160D01*
X1470Y3160D02*
X1521Y3160D01*
X1570Y3160D02*
X1621Y3160D01*
X1670Y3160D02*
X1721Y3160D01*
X1770Y3160D02*
X1821Y3160D01*
X1870Y3160D02*
X1921Y3160D01*
X1170Y3159D02*
X1221Y3159D01*
X1270Y3159D02*
X1321Y3159D01*
X1370Y3159D02*
X1421Y3159D01*
X1470Y3159D02*
X1521Y3159D01*
X1570Y3159D02*
X1621Y3159D01*
X1670Y3159D02*
X1721Y3159D01*
X1770Y3159D02*
X1821Y3159D01*
X1870Y3159D02*
X1921Y3159D01*
X1170Y3158D02*
X1221Y3158D01*
X1270Y3158D02*
X1321Y3158D01*
X1370Y3158D02*
X1421Y3158D01*
X1470Y3158D02*
X1521Y3158D01*
X1570Y3158D02*
X1621Y3158D01*
X1670Y3158D02*
X1721Y3158D01*
X1770Y3158D02*
X1821Y3158D01*
X1870Y3158D02*
X1921Y3158D01*
X1170Y3157D02*
X1221Y3157D01*
X1270Y3157D02*
X1321Y3157D01*
X1370Y3157D02*
X1421Y3157D01*
X1470Y3157D02*
X1521Y3157D01*
X1570Y3157D02*
X1621Y3157D01*
X1670Y3157D02*
X1721Y3157D01*
X1770Y3157D02*
X1821Y3157D01*
X1870Y3157D02*
X1921Y3157D01*
X1170Y3156D02*
X1221Y3156D01*
X1270Y3156D02*
X1321Y3156D01*
X1370Y3156D02*
X1421Y3156D01*
X1470Y3156D02*
X1521Y3156D01*
X1570Y3156D02*
X1621Y3156D01*
X1670Y3156D02*
X1721Y3156D01*
X1770Y3156D02*
X1821Y3156D01*
X1870Y3156D02*
X1921Y3156D01*
X1170Y3155D02*
X1221Y3155D01*
X1270Y3155D02*
X1321Y3155D01*
X1370Y3155D02*
X1421Y3155D01*
X1470Y3155D02*
X1521Y3155D01*
X1570Y3155D02*
X1621Y3155D01*
X1670Y3155D02*
X1721Y3155D01*
X1770Y3155D02*
X1821Y3155D01*
X1870Y3155D02*
X1921Y3155D01*
X1170Y3154D02*
X1221Y3154D01*
X1270Y3154D02*
X1321Y3154D01*
X1370Y3154D02*
X1421Y3154D01*
X1470Y3154D02*
X1521Y3154D01*
X1570Y3154D02*
X1621Y3154D01*
X1670Y3154D02*
X1721Y3154D01*
X1770Y3154D02*
X1821Y3154D01*
X1870Y3154D02*
X1921Y3154D01*
X1170Y3153D02*
X1221Y3153D01*
X1270Y3153D02*
X1321Y3153D01*
X1370Y3153D02*
X1421Y3153D01*
X1470Y3153D02*
X1521Y3153D01*
X1570Y3153D02*
X1621Y3153D01*
X1670Y3153D02*
X1721Y3153D01*
X1770Y3153D02*
X1821Y3153D01*
X1870Y3153D02*
X1921Y3153D01*
X1170Y3152D02*
X1221Y3152D01*
X1270Y3152D02*
X1321Y3152D01*
X1370Y3152D02*
X1421Y3152D01*
X1470Y3152D02*
X1521Y3152D01*
X1570Y3152D02*
X1621Y3152D01*
X1670Y3152D02*
X1721Y3152D01*
X1770Y3152D02*
X1821Y3152D01*
X1870Y3152D02*
X1921Y3152D01*
X1170Y3151D02*
X1221Y3151D01*
X1270Y3151D02*
X1321Y3151D01*
X1370Y3151D02*
X1421Y3151D01*
X1470Y3151D02*
X1521Y3151D01*
X1570Y3151D02*
X1621Y3151D01*
X1670Y3151D02*
X1721Y3151D01*
X1770Y3151D02*
X1821Y3151D01*
X1870Y3151D02*
X1921Y3151D01*
X1170Y3150D02*
X1221Y3150D01*
X1270Y3150D02*
X1321Y3150D01*
X1370Y3150D02*
X1421Y3150D01*
X1470Y3150D02*
X1521Y3150D01*
X1570Y3150D02*
X1621Y3150D01*
X1670Y3150D02*
X1721Y3150D01*
X1770Y3150D02*
X1821Y3150D01*
X1870Y3150D02*
X1921Y3150D01*
X1170Y3149D02*
X1191Y3149D01*
X1200Y3149D02*
X1221Y3149D01*
X1270Y3149D02*
X1291Y3149D01*
X1300Y3149D02*
X1321Y3149D01*
X1370Y3149D02*
X1391Y3149D01*
X1400Y3149D02*
X1421Y3149D01*
X1470Y3149D02*
X1491Y3149D01*
X1500Y3149D02*
X1521Y3149D01*
X1570Y3149D02*
X1591Y3149D01*
X1600Y3149D02*
X1621Y3149D01*
X1670Y3149D02*
X1691Y3149D01*
X1700Y3149D02*
X1721Y3149D01*
X1770Y3149D02*
X1791Y3149D01*
X1800Y3149D02*
X1821Y3149D01*
X1870Y3149D02*
X1891Y3149D01*
X1900Y3149D02*
X1921Y3149D01*
X1170Y3148D02*
X1188Y3148D01*
X1203Y3148D02*
X1221Y3148D01*
X1270Y3148D02*
X1288Y3148D01*
X1303Y3148D02*
X1321Y3148D01*
X1370Y3148D02*
X1388Y3148D01*
X1403Y3148D02*
X1421Y3148D01*
X1470Y3148D02*
X1488Y3148D01*
X1503Y3148D02*
X1521Y3148D01*
X1570Y3148D02*
X1588Y3148D01*
X1603Y3148D02*
X1621Y3148D01*
X1670Y3148D02*
X1688Y3148D01*
X1703Y3148D02*
X1721Y3148D01*
X1770Y3148D02*
X1788Y3148D01*
X1803Y3148D02*
X1821Y3148D01*
X1870Y3148D02*
X1888Y3148D01*
X1903Y3148D02*
X1921Y3148D01*
X1170Y3147D02*
X1187Y3147D01*
X1205Y3147D02*
X1221Y3147D01*
X1270Y3147D02*
X1287Y3147D01*
X1305Y3147D02*
X1321Y3147D01*
X1370Y3147D02*
X1387Y3147D01*
X1405Y3147D02*
X1421Y3147D01*
X1470Y3147D02*
X1486Y3147D01*
X1505Y3147D02*
X1521Y3147D01*
X1570Y3147D02*
X1586Y3147D01*
X1605Y3147D02*
X1621Y3147D01*
X1670Y3147D02*
X1686Y3147D01*
X1705Y3147D02*
X1721Y3147D01*
X1770Y3147D02*
X1786Y3147D01*
X1805Y3147D02*
X1821Y3147D01*
X1870Y3147D02*
X1886Y3147D01*
X1905Y3147D02*
X1921Y3147D01*
X1170Y3146D02*
X1185Y3146D01*
X1206Y3146D02*
X1221Y3146D01*
X1270Y3146D02*
X1285Y3146D01*
X1306Y3146D02*
X1321Y3146D01*
X1370Y3146D02*
X1385Y3146D01*
X1406Y3146D02*
X1421Y3146D01*
X1470Y3146D02*
X1485Y3146D01*
X1506Y3146D02*
X1521Y3146D01*
X1570Y3146D02*
X1585Y3146D01*
X1606Y3146D02*
X1621Y3146D01*
X1670Y3146D02*
X1685Y3146D01*
X1706Y3146D02*
X1721Y3146D01*
X1770Y3146D02*
X1785Y3146D01*
X1806Y3146D02*
X1821Y3146D01*
X1870Y3146D02*
X1885Y3146D01*
X1906Y3146D02*
X1921Y3146D01*
X1170Y3145D02*
X1184Y3145D01*
X1207Y3145D02*
X1221Y3145D01*
X1270Y3145D02*
X1284Y3145D01*
X1307Y3145D02*
X1321Y3145D01*
X1370Y3145D02*
X1384Y3145D01*
X1407Y3145D02*
X1421Y3145D01*
X1470Y3145D02*
X1484Y3145D01*
X1507Y3145D02*
X1521Y3145D01*
X1570Y3145D02*
X1584Y3145D01*
X1607Y3145D02*
X1621Y3145D01*
X1670Y3145D02*
X1684Y3145D01*
X1707Y3145D02*
X1721Y3145D01*
X1770Y3145D02*
X1784Y3145D01*
X1807Y3145D02*
X1821Y3145D01*
X1870Y3145D02*
X1884Y3145D01*
X1907Y3145D02*
X1921Y3145D01*
X1170Y3144D02*
X1183Y3144D01*
X1208Y3144D02*
X1221Y3144D01*
X1270Y3144D02*
X1283Y3144D01*
X1308Y3144D02*
X1321Y3144D01*
X1370Y3144D02*
X1383Y3144D01*
X1408Y3144D02*
X1421Y3144D01*
X1470Y3144D02*
X1483Y3144D01*
X1508Y3144D02*
X1521Y3144D01*
X1570Y3144D02*
X1583Y3144D01*
X1608Y3144D02*
X1621Y3144D01*
X1670Y3144D02*
X1683Y3144D01*
X1708Y3144D02*
X1721Y3144D01*
X1770Y3144D02*
X1783Y3144D01*
X1808Y3144D02*
X1821Y3144D01*
X1870Y3144D02*
X1883Y3144D01*
X1908Y3144D02*
X1921Y3144D01*
X1170Y3143D02*
X1182Y3143D01*
X1209Y3143D02*
X1221Y3143D01*
X1270Y3143D02*
X1282Y3143D01*
X1309Y3143D02*
X1321Y3143D01*
X1370Y3143D02*
X1382Y3143D01*
X1409Y3143D02*
X1421Y3143D01*
X1470Y3143D02*
X1482Y3143D01*
X1509Y3143D02*
X1521Y3143D01*
X1570Y3143D02*
X1582Y3143D01*
X1609Y3143D02*
X1621Y3143D01*
X1670Y3143D02*
X1682Y3143D01*
X1709Y3143D02*
X1721Y3143D01*
X1770Y3143D02*
X1782Y3143D01*
X1809Y3143D02*
X1821Y3143D01*
X1870Y3143D02*
X1882Y3143D01*
X1909Y3143D02*
X1921Y3143D01*
X1170Y3142D02*
X1182Y3142D01*
X1210Y3142D02*
X1221Y3142D01*
X1270Y3142D02*
X1282Y3142D01*
X1310Y3142D02*
X1321Y3142D01*
X1370Y3142D02*
X1382Y3142D01*
X1410Y3142D02*
X1421Y3142D01*
X1470Y3142D02*
X1482Y3142D01*
X1510Y3142D02*
X1521Y3142D01*
X1570Y3142D02*
X1582Y3142D01*
X1610Y3142D02*
X1621Y3142D01*
X1670Y3142D02*
X1682Y3142D01*
X1710Y3142D02*
X1721Y3142D01*
X1770Y3142D02*
X1781Y3142D01*
X1810Y3142D02*
X1821Y3142D01*
X1870Y3142D02*
X1881Y3142D01*
X1910Y3142D02*
X1921Y3142D01*
X1170Y3141D02*
X1181Y3141D01*
X1210Y3141D02*
X1221Y3141D01*
X1270Y3141D02*
X1281Y3141D01*
X1310Y3141D02*
X1321Y3141D01*
X1370Y3141D02*
X1381Y3141D01*
X1410Y3141D02*
X1421Y3141D01*
X1470Y3141D02*
X1481Y3141D01*
X1510Y3141D02*
X1521Y3141D01*
X1570Y3141D02*
X1581Y3141D01*
X1610Y3141D02*
X1621Y3141D01*
X1670Y3141D02*
X1681Y3141D01*
X1710Y3141D02*
X1721Y3141D01*
X1770Y3141D02*
X1781Y3141D01*
X1810Y3141D02*
X1821Y3141D01*
X1870Y3141D02*
X1881Y3141D01*
X1910Y3141D02*
X1921Y3141D01*
X1170Y3140D02*
X1181Y3140D01*
X1211Y3140D02*
X1221Y3140D01*
X1270Y3140D02*
X1281Y3140D01*
X1311Y3140D02*
X1321Y3140D01*
X1370Y3140D02*
X1381Y3140D01*
X1411Y3140D02*
X1421Y3140D01*
X1470Y3140D02*
X1480Y3140D01*
X1511Y3140D02*
X1521Y3140D01*
X1570Y3140D02*
X1580Y3140D01*
X1611Y3140D02*
X1621Y3140D01*
X1670Y3140D02*
X1680Y3140D01*
X1711Y3140D02*
X1721Y3140D01*
X1770Y3140D02*
X1780Y3140D01*
X1811Y3140D02*
X1821Y3140D01*
X1870Y3140D02*
X1880Y3140D01*
X1911Y3140D02*
X1921Y3140D01*
X1170Y3139D02*
X1180Y3139D01*
X1211Y3139D02*
X1221Y3139D01*
X1270Y3139D02*
X1280Y3139D01*
X1311Y3139D02*
X1321Y3139D01*
X1370Y3139D02*
X1380Y3139D01*
X1411Y3139D02*
X1421Y3139D01*
X1470Y3139D02*
X1480Y3139D01*
X1511Y3139D02*
X1521Y3139D01*
X1570Y3139D02*
X1580Y3139D01*
X1611Y3139D02*
X1621Y3139D01*
X1670Y3139D02*
X1680Y3139D01*
X1711Y3139D02*
X1721Y3139D01*
X1770Y3139D02*
X1780Y3139D01*
X1811Y3139D02*
X1821Y3139D01*
X1870Y3139D02*
X1880Y3139D01*
X1911Y3139D02*
X1921Y3139D01*
X1170Y3138D02*
X1180Y3138D01*
X1211Y3138D02*
X1221Y3138D01*
X1270Y3138D02*
X1280Y3138D01*
X1311Y3138D02*
X1321Y3138D01*
X1370Y3138D02*
X1380Y3138D01*
X1411Y3138D02*
X1421Y3138D01*
X1470Y3138D02*
X1480Y3138D01*
X1511Y3138D02*
X1521Y3138D01*
X1570Y3138D02*
X1580Y3138D01*
X1611Y3138D02*
X1621Y3138D01*
X1670Y3138D02*
X1680Y3138D01*
X1711Y3138D02*
X1721Y3138D01*
X1770Y3138D02*
X1780Y3138D01*
X1811Y3138D02*
X1821Y3138D01*
X1870Y3138D02*
X1880Y3138D01*
X1911Y3138D02*
X1921Y3138D01*
X1170Y3137D02*
X1180Y3137D01*
X1212Y3137D02*
X1221Y3137D01*
X1270Y3137D02*
X1280Y3137D01*
X1312Y3137D02*
X1321Y3137D01*
X1370Y3137D02*
X1380Y3137D01*
X1412Y3137D02*
X1421Y3137D01*
X1470Y3137D02*
X1480Y3137D01*
X1512Y3137D02*
X1521Y3137D01*
X1570Y3137D02*
X1579Y3137D01*
X1612Y3137D02*
X1621Y3137D01*
X1670Y3137D02*
X1679Y3137D01*
X1712Y3137D02*
X1721Y3137D01*
X1770Y3137D02*
X1779Y3137D01*
X1812Y3137D02*
X1821Y3137D01*
X1870Y3137D02*
X1879Y3137D01*
X1912Y3137D02*
X1921Y3137D01*
X1170Y3136D02*
X1179Y3136D01*
X1212Y3136D02*
X1221Y3136D01*
X1270Y3136D02*
X1279Y3136D01*
X1312Y3136D02*
X1321Y3136D01*
X1370Y3136D02*
X1379Y3136D01*
X1412Y3136D02*
X1421Y3136D01*
X1470Y3136D02*
X1479Y3136D01*
X1512Y3136D02*
X1521Y3136D01*
X1570Y3136D02*
X1579Y3136D01*
X1612Y3136D02*
X1621Y3136D01*
X1670Y3136D02*
X1679Y3136D01*
X1712Y3136D02*
X1721Y3136D01*
X1770Y3136D02*
X1779Y3136D01*
X1812Y3136D02*
X1821Y3136D01*
X1870Y3136D02*
X1879Y3136D01*
X1912Y3136D02*
X1921Y3136D01*
X1170Y3135D02*
X1179Y3135D01*
X1212Y3135D02*
X1221Y3135D01*
X1270Y3135D02*
X1279Y3135D01*
X1312Y3135D02*
X1321Y3135D01*
X1370Y3135D02*
X1379Y3135D01*
X1412Y3135D02*
X1421Y3135D01*
X1470Y3135D02*
X1479Y3135D01*
X1512Y3135D02*
X1521Y3135D01*
X1570Y3135D02*
X1579Y3135D01*
X1612Y3135D02*
X1621Y3135D01*
X1670Y3135D02*
X1679Y3135D01*
X1712Y3135D02*
X1721Y3135D01*
X1770Y3135D02*
X1779Y3135D01*
X1812Y3135D02*
X1821Y3135D01*
X1870Y3135D02*
X1879Y3135D01*
X1912Y3135D02*
X1921Y3135D01*
X1170Y3134D02*
X1179Y3134D01*
X1212Y3134D02*
X1221Y3134D01*
X1270Y3134D02*
X1279Y3134D01*
X1312Y3134D02*
X1321Y3134D01*
X1370Y3134D02*
X1379Y3134D01*
X1412Y3134D02*
X1421Y3134D01*
X1470Y3134D02*
X1479Y3134D01*
X1512Y3134D02*
X1521Y3134D01*
X1570Y3134D02*
X1579Y3134D01*
X1612Y3134D02*
X1621Y3134D01*
X1670Y3134D02*
X1679Y3134D01*
X1712Y3134D02*
X1721Y3134D01*
X1770Y3134D02*
X1779Y3134D01*
X1812Y3134D02*
X1821Y3134D01*
X1870Y3134D02*
X1879Y3134D01*
X1912Y3134D02*
X1921Y3134D01*
X1170Y3133D02*
X1179Y3133D01*
X1212Y3133D02*
X1221Y3133D01*
X1270Y3133D02*
X1279Y3133D01*
X1312Y3133D02*
X1321Y3133D01*
X1370Y3133D02*
X1379Y3133D01*
X1412Y3133D02*
X1421Y3133D01*
X1470Y3133D02*
X1479Y3133D01*
X1512Y3133D02*
X1521Y3133D01*
X1570Y3133D02*
X1579Y3133D01*
X1612Y3133D02*
X1621Y3133D01*
X1670Y3133D02*
X1679Y3133D01*
X1712Y3133D02*
X1721Y3133D01*
X1770Y3133D02*
X1779Y3133D01*
X1812Y3133D02*
X1821Y3133D01*
X1870Y3133D02*
X1879Y3133D01*
X1912Y3133D02*
X1921Y3133D01*
X1170Y3132D02*
X1179Y3132D01*
X1212Y3132D02*
X1221Y3132D01*
X1270Y3132D02*
X1279Y3132D01*
X1312Y3132D02*
X1321Y3132D01*
X1370Y3132D02*
X1379Y3132D01*
X1412Y3132D02*
X1421Y3132D01*
X1470Y3132D02*
X1479Y3132D01*
X1512Y3132D02*
X1521Y3132D01*
X1570Y3132D02*
X1579Y3132D01*
X1612Y3132D02*
X1621Y3132D01*
X1670Y3132D02*
X1679Y3132D01*
X1712Y3132D02*
X1721Y3132D01*
X1770Y3132D02*
X1779Y3132D01*
X1812Y3132D02*
X1821Y3132D01*
X1870Y3132D02*
X1879Y3132D01*
X1912Y3132D02*
X1921Y3132D01*
X1170Y3131D02*
X1179Y3131D01*
X1212Y3131D02*
X1221Y3131D01*
X1270Y3131D02*
X1279Y3131D01*
X1312Y3131D02*
X1321Y3131D01*
X1370Y3131D02*
X1379Y3131D01*
X1412Y3131D02*
X1421Y3131D01*
X1470Y3131D02*
X1479Y3131D01*
X1512Y3131D02*
X1521Y3131D01*
X1570Y3131D02*
X1579Y3131D01*
X1612Y3131D02*
X1621Y3131D01*
X1670Y3131D02*
X1679Y3131D01*
X1712Y3131D02*
X1721Y3131D01*
X1770Y3131D02*
X1779Y3131D01*
X1812Y3131D02*
X1821Y3131D01*
X1870Y3131D02*
X1879Y3131D01*
X1912Y3131D02*
X1921Y3131D01*
X1170Y3130D02*
X1180Y3130D01*
X1212Y3130D02*
X1221Y3130D01*
X1270Y3130D02*
X1280Y3130D01*
X1312Y3130D02*
X1321Y3130D01*
X1370Y3130D02*
X1380Y3130D01*
X1412Y3130D02*
X1421Y3130D01*
X1470Y3130D02*
X1480Y3130D01*
X1512Y3130D02*
X1521Y3130D01*
X1570Y3130D02*
X1580Y3130D01*
X1612Y3130D02*
X1621Y3130D01*
X1670Y3130D02*
X1680Y3130D01*
X1712Y3130D02*
X1721Y3130D01*
X1770Y3130D02*
X1779Y3130D01*
X1812Y3130D02*
X1821Y3130D01*
X1870Y3130D02*
X1879Y3130D01*
X1912Y3130D02*
X1921Y3130D01*
X1170Y3129D02*
X1180Y3129D01*
X1211Y3129D02*
X1221Y3129D01*
X1270Y3129D02*
X1280Y3129D01*
X1311Y3129D02*
X1321Y3129D01*
X1370Y3129D02*
X1380Y3129D01*
X1411Y3129D02*
X1421Y3129D01*
X1470Y3129D02*
X1480Y3129D01*
X1511Y3129D02*
X1521Y3129D01*
X1570Y3129D02*
X1580Y3129D01*
X1611Y3129D02*
X1621Y3129D01*
X1670Y3129D02*
X1680Y3129D01*
X1711Y3129D02*
X1721Y3129D01*
X1770Y3129D02*
X1780Y3129D01*
X1811Y3129D02*
X1821Y3129D01*
X1870Y3129D02*
X1880Y3129D01*
X1911Y3129D02*
X1921Y3129D01*
X1170Y3128D02*
X1180Y3128D01*
X1211Y3128D02*
X1221Y3128D01*
X1270Y3128D02*
X1280Y3128D01*
X1311Y3128D02*
X1321Y3128D01*
X1370Y3128D02*
X1380Y3128D01*
X1411Y3128D02*
X1421Y3128D01*
X1470Y3128D02*
X1480Y3128D01*
X1511Y3128D02*
X1521Y3128D01*
X1570Y3128D02*
X1580Y3128D01*
X1611Y3128D02*
X1621Y3128D01*
X1670Y3128D02*
X1680Y3128D01*
X1711Y3128D02*
X1721Y3128D01*
X1770Y3128D02*
X1780Y3128D01*
X1811Y3128D02*
X1821Y3128D01*
X1870Y3128D02*
X1880Y3128D01*
X1911Y3128D02*
X1921Y3128D01*
X1170Y3127D02*
X1181Y3127D01*
X1211Y3127D02*
X1221Y3127D01*
X1270Y3127D02*
X1281Y3127D01*
X1311Y3127D02*
X1321Y3127D01*
X1370Y3127D02*
X1381Y3127D01*
X1411Y3127D02*
X1421Y3127D01*
X1470Y3127D02*
X1481Y3127D01*
X1511Y3127D02*
X1521Y3127D01*
X1570Y3127D02*
X1581Y3127D01*
X1611Y3127D02*
X1621Y3127D01*
X1670Y3127D02*
X1681Y3127D01*
X1711Y3127D02*
X1721Y3127D01*
X1770Y3127D02*
X1781Y3127D01*
X1811Y3127D02*
X1821Y3127D01*
X1870Y3127D02*
X1880Y3127D01*
X1911Y3127D02*
X1921Y3127D01*
X1170Y3126D02*
X1181Y3126D01*
X1210Y3126D02*
X1221Y3126D01*
X1270Y3126D02*
X1281Y3126D01*
X1310Y3126D02*
X1321Y3126D01*
X1370Y3126D02*
X1381Y3126D01*
X1410Y3126D02*
X1421Y3126D01*
X1470Y3126D02*
X1481Y3126D01*
X1510Y3126D02*
X1521Y3126D01*
X1570Y3126D02*
X1581Y3126D01*
X1610Y3126D02*
X1621Y3126D01*
X1670Y3126D02*
X1681Y3126D01*
X1710Y3126D02*
X1721Y3126D01*
X1770Y3126D02*
X1781Y3126D01*
X1810Y3126D02*
X1821Y3126D01*
X1870Y3126D02*
X1881Y3126D01*
X1910Y3126D02*
X1921Y3126D01*
X1170Y3125D02*
X1182Y3125D01*
X1210Y3125D02*
X1221Y3125D01*
X1270Y3125D02*
X1282Y3125D01*
X1310Y3125D02*
X1321Y3125D01*
X1370Y3125D02*
X1382Y3125D01*
X1410Y3125D02*
X1421Y3125D01*
X1470Y3125D02*
X1482Y3125D01*
X1510Y3125D02*
X1521Y3125D01*
X1570Y3125D02*
X1582Y3125D01*
X1610Y3125D02*
X1621Y3125D01*
X1670Y3125D02*
X1682Y3125D01*
X1710Y3125D02*
X1721Y3125D01*
X1770Y3125D02*
X1782Y3125D01*
X1810Y3125D02*
X1821Y3125D01*
X1870Y3125D02*
X1882Y3125D01*
X1909Y3125D02*
X1921Y3125D01*
X1170Y3124D02*
X1182Y3124D01*
X1209Y3124D02*
X1221Y3124D01*
X1270Y3124D02*
X1282Y3124D01*
X1309Y3124D02*
X1321Y3124D01*
X1370Y3124D02*
X1382Y3124D01*
X1409Y3124D02*
X1421Y3124D01*
X1470Y3124D02*
X1482Y3124D01*
X1509Y3124D02*
X1521Y3124D01*
X1570Y3124D02*
X1582Y3124D01*
X1609Y3124D02*
X1621Y3124D01*
X1670Y3124D02*
X1682Y3124D01*
X1709Y3124D02*
X1721Y3124D01*
X1770Y3124D02*
X1782Y3124D01*
X1809Y3124D02*
X1821Y3124D01*
X1870Y3124D02*
X1882Y3124D01*
X1909Y3124D02*
X1921Y3124D01*
X1170Y3123D02*
X1183Y3123D01*
X1208Y3123D02*
X1221Y3123D01*
X1270Y3123D02*
X1283Y3123D01*
X1308Y3123D02*
X1321Y3123D01*
X1370Y3123D02*
X1383Y3123D01*
X1408Y3123D02*
X1421Y3123D01*
X1470Y3123D02*
X1483Y3123D01*
X1508Y3123D02*
X1521Y3123D01*
X1570Y3123D02*
X1583Y3123D01*
X1608Y3123D02*
X1621Y3123D01*
X1670Y3123D02*
X1683Y3123D01*
X1708Y3123D02*
X1721Y3123D01*
X1770Y3123D02*
X1783Y3123D01*
X1808Y3123D02*
X1821Y3123D01*
X1870Y3123D02*
X1883Y3123D01*
X1908Y3123D02*
X1921Y3123D01*
X1170Y3122D02*
X1184Y3122D01*
X1207Y3122D02*
X1221Y3122D01*
X1270Y3122D02*
X1284Y3122D01*
X1307Y3122D02*
X1321Y3122D01*
X1370Y3122D02*
X1384Y3122D01*
X1407Y3122D02*
X1421Y3122D01*
X1470Y3122D02*
X1484Y3122D01*
X1507Y3122D02*
X1521Y3122D01*
X1570Y3122D02*
X1584Y3122D01*
X1607Y3122D02*
X1621Y3122D01*
X1670Y3122D02*
X1684Y3122D01*
X1707Y3122D02*
X1721Y3122D01*
X1770Y3122D02*
X1784Y3122D01*
X1807Y3122D02*
X1821Y3122D01*
X1870Y3122D02*
X1884Y3122D01*
X1907Y3122D02*
X1921Y3122D01*
X1170Y3121D02*
X1185Y3121D01*
X1206Y3121D02*
X1221Y3121D01*
X1270Y3121D02*
X1285Y3121D01*
X1306Y3121D02*
X1321Y3121D01*
X1370Y3121D02*
X1385Y3121D01*
X1406Y3121D02*
X1421Y3121D01*
X1470Y3121D02*
X1485Y3121D01*
X1506Y3121D02*
X1521Y3121D01*
X1570Y3121D02*
X1585Y3121D01*
X1606Y3121D02*
X1621Y3121D01*
X1670Y3121D02*
X1685Y3121D01*
X1706Y3121D02*
X1721Y3121D01*
X1770Y3121D02*
X1785Y3121D01*
X1806Y3121D02*
X1821Y3121D01*
X1870Y3121D02*
X1885Y3121D01*
X1906Y3121D02*
X1921Y3121D01*
X1170Y3120D02*
X1187Y3120D01*
X1205Y3120D02*
X1221Y3120D01*
X1270Y3120D02*
X1287Y3120D01*
X1305Y3120D02*
X1321Y3120D01*
X1370Y3120D02*
X1387Y3120D01*
X1405Y3120D02*
X1421Y3120D01*
X1470Y3120D02*
X1487Y3120D01*
X1504Y3120D02*
X1521Y3120D01*
X1570Y3120D02*
X1587Y3120D01*
X1604Y3120D02*
X1621Y3120D01*
X1670Y3120D02*
X1687Y3120D01*
X1704Y3120D02*
X1721Y3120D01*
X1770Y3120D02*
X1787Y3120D01*
X1804Y3120D02*
X1821Y3120D01*
X1870Y3120D02*
X1887Y3120D01*
X1904Y3120D02*
X1921Y3120D01*
X1170Y3119D02*
X1189Y3119D01*
X1203Y3119D02*
X1221Y3119D01*
X1270Y3119D02*
X1289Y3119D01*
X1303Y3119D02*
X1321Y3119D01*
X1370Y3119D02*
X1389Y3119D01*
X1403Y3119D02*
X1421Y3119D01*
X1470Y3119D02*
X1489Y3119D01*
X1503Y3119D02*
X1521Y3119D01*
X1570Y3119D02*
X1589Y3119D01*
X1603Y3119D02*
X1621Y3119D01*
X1670Y3119D02*
X1689Y3119D01*
X1703Y3119D02*
X1721Y3119D01*
X1770Y3119D02*
X1789Y3119D01*
X1803Y3119D02*
X1821Y3119D01*
X1870Y3119D02*
X1889Y3119D01*
X1903Y3119D02*
X1921Y3119D01*
X1170Y3118D02*
X1192Y3118D01*
X1200Y3118D02*
X1221Y3118D01*
X1270Y3118D02*
X1292Y3118D01*
X1300Y3118D02*
X1321Y3118D01*
X1370Y3118D02*
X1392Y3118D01*
X1400Y3118D02*
X1421Y3118D01*
X1470Y3118D02*
X1492Y3118D01*
X1500Y3118D02*
X1521Y3118D01*
X1570Y3118D02*
X1592Y3118D01*
X1600Y3118D02*
X1621Y3118D01*
X1670Y3118D02*
X1692Y3118D01*
X1700Y3118D02*
X1721Y3118D01*
X1770Y3118D02*
X1792Y3118D01*
X1800Y3118D02*
X1821Y3118D01*
X1870Y3118D02*
X1892Y3118D01*
X1900Y3118D02*
X1921Y3118D01*
X1170Y3117D02*
X1221Y3117D01*
X1270Y3117D02*
X1321Y3117D01*
X1370Y3117D02*
X1421Y3117D01*
X1470Y3117D02*
X1521Y3117D01*
X1570Y3117D02*
X1621Y3117D01*
X1670Y3117D02*
X1721Y3117D01*
X1770Y3117D02*
X1821Y3117D01*
X1870Y3117D02*
X1921Y3117D01*
X1170Y3116D02*
X1221Y3116D01*
X1270Y3116D02*
X1321Y3116D01*
X1370Y3116D02*
X1421Y3116D01*
X1470Y3116D02*
X1521Y3116D01*
X1570Y3116D02*
X1621Y3116D01*
X1670Y3116D02*
X1721Y3116D01*
X1770Y3116D02*
X1821Y3116D01*
X1870Y3116D02*
X1921Y3116D01*
X1170Y3115D02*
X1221Y3115D01*
X1270Y3115D02*
X1321Y3115D01*
X1370Y3115D02*
X1421Y3115D01*
X1470Y3115D02*
X1521Y3115D01*
X1570Y3115D02*
X1621Y3115D01*
X1670Y3115D02*
X1721Y3115D01*
X1770Y3115D02*
X1821Y3115D01*
X1870Y3115D02*
X1921Y3115D01*
X1170Y3114D02*
X1221Y3114D01*
X1270Y3114D02*
X1321Y3114D01*
X1370Y3114D02*
X1421Y3114D01*
X1470Y3114D02*
X1521Y3114D01*
X1570Y3114D02*
X1621Y3114D01*
X1670Y3114D02*
X1721Y3114D01*
X1770Y3114D02*
X1821Y3114D01*
X1870Y3114D02*
X1921Y3114D01*
X1170Y3113D02*
X1221Y3113D01*
X1270Y3113D02*
X1321Y3113D01*
X1370Y3113D02*
X1421Y3113D01*
X1470Y3113D02*
X1521Y3113D01*
X1570Y3113D02*
X1621Y3113D01*
X1670Y3113D02*
X1721Y3113D01*
X1770Y3113D02*
X1821Y3113D01*
X1870Y3113D02*
X1921Y3113D01*
X1170Y3112D02*
X1221Y3112D01*
X1270Y3112D02*
X1321Y3112D01*
X1370Y3112D02*
X1421Y3112D01*
X1470Y3112D02*
X1521Y3112D01*
X1570Y3112D02*
X1621Y3112D01*
X1670Y3112D02*
X1721Y3112D01*
X1770Y3112D02*
X1821Y3112D01*
X1870Y3112D02*
X1921Y3112D01*
X1170Y3111D02*
X1221Y3111D01*
X1270Y3111D02*
X1321Y3111D01*
X1370Y3111D02*
X1421Y3111D01*
X1470Y3111D02*
X1521Y3111D01*
X1570Y3111D02*
X1621Y3111D01*
X1670Y3111D02*
X1721Y3111D01*
X1770Y3111D02*
X1821Y3111D01*
X1870Y3111D02*
X1921Y3111D01*
X1170Y3110D02*
X1221Y3110D01*
X1270Y3110D02*
X1321Y3110D01*
X1370Y3110D02*
X1421Y3110D01*
X1470Y3110D02*
X1521Y3110D01*
X1570Y3110D02*
X1621Y3110D01*
X1670Y3110D02*
X1721Y3110D01*
X1770Y3110D02*
X1821Y3110D01*
X1870Y3110D02*
X1921Y3110D01*
X1170Y3109D02*
X1221Y3109D01*
X1270Y3109D02*
X1321Y3109D01*
X1370Y3109D02*
X1421Y3109D01*
X1470Y3109D02*
X1521Y3109D01*
X1570Y3109D02*
X1621Y3109D01*
X1670Y3109D02*
X1721Y3109D01*
X1770Y3109D02*
X1821Y3109D01*
X1870Y3109D02*
X1921Y3109D01*
X1170Y3108D02*
X1221Y3108D01*
X1270Y3108D02*
X1321Y3108D01*
X1370Y3108D02*
X1421Y3108D01*
X1470Y3108D02*
X1521Y3108D01*
X1570Y3108D02*
X1621Y3108D01*
X1670Y3108D02*
X1721Y3108D01*
X1770Y3108D02*
X1821Y3108D01*
X1870Y3108D02*
X1921Y3108D01*
X1170Y3107D02*
X1221Y3107D01*
X1270Y3107D02*
X1321Y3107D01*
X1370Y3107D02*
X1421Y3107D01*
X1470Y3107D02*
X1521Y3107D01*
X1570Y3107D02*
X1621Y3107D01*
X1670Y3107D02*
X1721Y3107D01*
X1770Y3107D02*
X1821Y3107D01*
X1870Y3107D02*
X1921Y3107D01*
X1170Y3106D02*
X1221Y3106D01*
X1270Y3106D02*
X1321Y3106D01*
X1370Y3106D02*
X1421Y3106D01*
X1470Y3106D02*
X1521Y3106D01*
X1570Y3106D02*
X1621Y3106D01*
X1670Y3106D02*
X1721Y3106D01*
X1770Y3106D02*
X1821Y3106D01*
X1870Y3106D02*
X1921Y3106D01*
X1170Y3105D02*
X1221Y3105D01*
X1270Y3105D02*
X1321Y3105D01*
X1370Y3105D02*
X1421Y3105D01*
X1470Y3105D02*
X1521Y3105D01*
X1570Y3105D02*
X1621Y3105D01*
X1670Y3105D02*
X1721Y3105D01*
X1770Y3105D02*
X1821Y3105D01*
X1870Y3105D02*
X1921Y3105D01*
X1170Y3104D02*
X1221Y3104D01*
X1270Y3104D02*
X1321Y3104D01*
X1370Y3104D02*
X1421Y3104D01*
X1470Y3104D02*
X1521Y3104D01*
X1570Y3104D02*
X1621Y3104D01*
X1670Y3104D02*
X1721Y3104D01*
X1770Y3104D02*
X1821Y3104D01*
X1870Y3104D02*
X1921Y3104D01*
X1171Y3103D02*
X1221Y3103D01*
X1271Y3103D02*
X1321Y3103D01*
X1371Y3103D02*
X1421Y3103D01*
X1471Y3103D02*
X1521Y3103D01*
X1571Y3103D02*
X1621Y3103D01*
X1671Y3103D02*
X1721Y3103D01*
X1770Y3103D02*
X1821Y3103D01*
X1870Y3103D02*
X1921Y3103D01*
X1171Y3102D02*
X1221Y3102D01*
X1271Y3102D02*
X1321Y3102D01*
X1371Y3102D02*
X1421Y3102D01*
X1471Y3102D02*
X1520Y3102D01*
X1571Y3102D02*
X1620Y3102D01*
X1671Y3102D02*
X1720Y3102D01*
X1771Y3102D02*
X1820Y3102D01*
X1871Y3102D02*
X1920Y3102D01*
X1171Y3101D02*
X1220Y3101D01*
X1271Y3101D02*
X1320Y3101D01*
X1371Y3101D02*
X1420Y3101D01*
X1471Y3101D02*
X1520Y3101D01*
X1571Y3101D02*
X1620Y3101D01*
X1671Y3101D02*
X1720Y3101D01*
X1771Y3101D02*
X1820Y3101D01*
X1871Y3101D02*
X1920Y3101D01*
X1171Y3100D02*
X1220Y3100D01*
X1271Y3100D02*
X1320Y3100D01*
X1371Y3100D02*
X1420Y3100D01*
X1471Y3100D02*
X1520Y3100D01*
X1571Y3100D02*
X1620Y3100D01*
X1671Y3100D02*
X1720Y3100D01*
X1771Y3100D02*
X1820Y3100D01*
X1871Y3100D02*
X1920Y3100D01*
X1172Y3099D02*
X1220Y3099D01*
X1272Y3099D02*
X1320Y3099D01*
X1372Y3099D02*
X1420Y3099D01*
X1472Y3099D02*
X1520Y3099D01*
X1572Y3099D02*
X1620Y3099D01*
X1672Y3099D02*
X1720Y3099D01*
X1772Y3099D02*
X1820Y3099D01*
X1871Y3099D02*
X1920Y3099D01*
X1172Y3098D02*
X1219Y3098D01*
X1272Y3098D02*
X1319Y3098D01*
X1372Y3098D02*
X1419Y3098D01*
X1472Y3098D02*
X1519Y3098D01*
X1572Y3098D02*
X1619Y3098D01*
X1672Y3098D02*
X1719Y3098D01*
X1772Y3098D02*
X1819Y3098D01*
X1872Y3098D02*
X1919Y3098D01*
X1172Y3097D02*
X1219Y3097D01*
X1272Y3097D02*
X1319Y3097D01*
X1372Y3097D02*
X1419Y3097D01*
X1472Y3097D02*
X1519Y3097D01*
X1572Y3097D02*
X1619Y3097D01*
X1672Y3097D02*
X1719Y3097D01*
X1772Y3097D02*
X1819Y3097D01*
X1872Y3097D02*
X1919Y3097D01*
X1173Y3096D02*
X1218Y3096D01*
X1273Y3096D02*
X1318Y3096D01*
X1373Y3096D02*
X1418Y3096D01*
X1473Y3096D02*
X1518Y3096D01*
X1573Y3096D02*
X1618Y3096D01*
X1673Y3096D02*
X1718Y3096D01*
X1773Y3096D02*
X1818Y3096D01*
X1873Y3096D02*
X1918Y3096D01*
X1174Y3095D02*
X1218Y3095D01*
X1274Y3095D02*
X1318Y3095D01*
X1374Y3095D02*
X1418Y3095D01*
X1473Y3095D02*
X1518Y3095D01*
X1573Y3095D02*
X1618Y3095D01*
X1673Y3095D02*
X1718Y3095D01*
X1773Y3095D02*
X1818Y3095D01*
X1873Y3095D02*
X1918Y3095D01*
X1174Y3094D02*
X1217Y3094D01*
X1274Y3094D02*
X1317Y3094D01*
X1374Y3094D02*
X1417Y3094D01*
X1474Y3094D02*
X1517Y3094D01*
X1574Y3094D02*
X1617Y3094D01*
X1674Y3094D02*
X1717Y3094D01*
X1774Y3094D02*
X1817Y3094D01*
X1874Y3094D02*
X1917Y3094D01*
X1175Y3093D02*
X1217Y3093D01*
X1275Y3093D02*
X1317Y3093D01*
X1375Y3093D02*
X1417Y3093D01*
X1475Y3093D02*
X1517Y3093D01*
X1575Y3093D02*
X1617Y3093D01*
X1675Y3093D02*
X1717Y3093D01*
X1775Y3093D02*
X1817Y3093D01*
X1875Y3093D02*
X1917Y3093D01*
X1175Y3092D02*
X1216Y3092D01*
X1275Y3092D02*
X1316Y3092D01*
X1375Y3092D02*
X1416Y3092D01*
X1475Y3092D02*
X1516Y3092D01*
X1575Y3092D02*
X1616Y3092D01*
X1675Y3092D02*
X1716Y3092D01*
X1775Y3092D02*
X1816Y3092D01*
X1875Y3092D02*
X1916Y3092D01*
X1176Y3091D02*
X1215Y3091D01*
X1276Y3091D02*
X1315Y3091D01*
X1376Y3091D02*
X1415Y3091D01*
X1476Y3091D02*
X1515Y3091D01*
X1576Y3091D02*
X1615Y3091D01*
X1676Y3091D02*
X1715Y3091D01*
X1776Y3091D02*
X1815Y3091D01*
X1876Y3091D02*
X1915Y3091D01*
X1177Y3090D02*
X1214Y3090D01*
X1277Y3090D02*
X1314Y3090D01*
X1377Y3090D02*
X1414Y3090D01*
X1477Y3090D02*
X1514Y3090D01*
X1577Y3090D02*
X1614Y3090D01*
X1677Y3090D02*
X1714Y3090D01*
X1777Y3090D02*
X1814Y3090D01*
X1877Y3090D02*
X1914Y3090D01*
X1178Y3089D02*
X1213Y3089D01*
X1278Y3089D02*
X1313Y3089D01*
X1378Y3089D02*
X1413Y3089D01*
X1478Y3089D02*
X1513Y3089D01*
X1578Y3089D02*
X1613Y3089D01*
X1678Y3089D02*
X1713Y3089D01*
X1778Y3089D02*
X1813Y3089D01*
X1878Y3089D02*
X1913Y3089D01*
X1179Y3088D02*
X1212Y3088D01*
X1279Y3088D02*
X1312Y3088D01*
X1379Y3088D02*
X1412Y3088D01*
X1479Y3088D02*
X1512Y3088D01*
X1579Y3088D02*
X1612Y3088D01*
X1679Y3088D02*
X1712Y3088D01*
X1779Y3088D02*
X1812Y3088D01*
X1879Y3088D02*
X1912Y3088D01*
X1180Y3087D02*
X1211Y3087D01*
X1280Y3087D02*
X1311Y3087D01*
X1380Y3087D02*
X1411Y3087D01*
X1480Y3087D02*
X1511Y3087D01*
X1580Y3087D02*
X1611Y3087D01*
X1680Y3087D02*
X1711Y3087D01*
X1780Y3087D02*
X1811Y3087D01*
X1880Y3087D02*
X1911Y3087D01*
X1182Y3086D02*
X1210Y3086D01*
X1282Y3086D02*
X1310Y3086D01*
X1382Y3086D02*
X1410Y3086D01*
X1482Y3086D02*
X1510Y3086D01*
X1582Y3086D02*
X1610Y3086D01*
X1682Y3086D02*
X1710Y3086D01*
X1782Y3086D02*
X1810Y3086D01*
X1882Y3086D02*
X1909Y3086D01*
X1184Y3085D02*
X1208Y3085D01*
X1284Y3085D02*
X1308Y3085D01*
X1383Y3085D02*
X1408Y3085D01*
X1483Y3085D02*
X1508Y3085D01*
X1583Y3085D02*
X1608Y3085D01*
X1683Y3085D02*
X1708Y3085D01*
X1783Y3085D02*
X1808Y3085D01*
X1883Y3085D02*
X1908Y3085D01*
X1185Y3084D02*
X1206Y3084D01*
X1285Y3084D02*
X1306Y3084D01*
X1385Y3084D02*
X1406Y3084D01*
X1485Y3084D02*
X1506Y3084D01*
X1585Y3084D02*
X1606Y3084D01*
X1685Y3084D02*
X1706Y3084D01*
X1785Y3084D02*
X1806Y3084D01*
X1885Y3084D02*
X1906Y3084D01*
X1188Y3083D02*
X1204Y3083D01*
X1288Y3083D02*
X1304Y3083D01*
X1388Y3083D02*
X1404Y3083D01*
X1488Y3083D02*
X1504Y3083D01*
X1588Y3083D02*
X1604Y3083D01*
X1688Y3083D02*
X1703Y3083D01*
X1788Y3083D02*
X1803Y3083D01*
X1888Y3083D02*
X1903Y3083D01*
X1192Y3082D02*
X1200Y3082D01*
X1292Y3082D02*
X1300Y3082D01*
X1392Y3082D02*
X1400Y3082D01*
X1492Y3082D02*
X1500Y3082D01*
X1592Y3082D02*
X1600Y3082D01*
X1692Y3082D02*
X1700Y3082D01*
X1792Y3082D02*
X1800Y3082D01*
X1891Y3082D02*
X1900Y3082D01*
X1191Y2885D02*
X1201Y2885D01*
X1291Y2885D02*
X1301Y2885D01*
X1391Y2885D02*
X1401Y2885D01*
X1491Y2885D02*
X1501Y2885D01*
X1591Y2885D02*
X1601Y2885D01*
X1691Y2885D02*
X1700Y2885D01*
X1791Y2885D02*
X1800Y2885D01*
X1891Y2885D02*
X1900Y2885D01*
X1187Y2884D02*
X1204Y2884D01*
X1287Y2884D02*
X1304Y2884D01*
X1387Y2884D02*
X1404Y2884D01*
X1487Y2884D02*
X1504Y2884D01*
X1587Y2884D02*
X1604Y2884D01*
X1687Y2884D02*
X1704Y2884D01*
X1787Y2884D02*
X1804Y2884D01*
X1887Y2884D02*
X1904Y2884D01*
X1185Y2883D02*
X1206Y2883D01*
X1285Y2883D02*
X1306Y2883D01*
X1385Y2883D02*
X1406Y2883D01*
X1485Y2883D02*
X1506Y2883D01*
X1585Y2883D02*
X1606Y2883D01*
X1685Y2883D02*
X1706Y2883D01*
X1785Y2883D02*
X1806Y2883D01*
X1885Y2883D02*
X1906Y2883D01*
X1183Y2882D02*
X1208Y2882D01*
X1283Y2882D02*
X1308Y2882D01*
X1383Y2882D02*
X1408Y2882D01*
X1483Y2882D02*
X1508Y2882D01*
X1583Y2882D02*
X1608Y2882D01*
X1683Y2882D02*
X1708Y2882D01*
X1783Y2882D02*
X1808Y2882D01*
X1883Y2882D02*
X1908Y2882D01*
X1182Y2881D02*
X1210Y2881D01*
X1281Y2881D02*
X1310Y2881D01*
X1381Y2881D02*
X1410Y2881D01*
X1481Y2881D02*
X1510Y2881D01*
X1581Y2881D02*
X1610Y2881D01*
X1681Y2881D02*
X1710Y2881D01*
X1781Y2881D02*
X1810Y2881D01*
X1881Y2881D02*
X1910Y2881D01*
X1180Y2880D02*
X1211Y2880D01*
X1280Y2880D02*
X1311Y2880D01*
X1380Y2880D02*
X1411Y2880D01*
X1480Y2880D02*
X1511Y2880D01*
X1580Y2880D02*
X1611Y2880D01*
X1680Y2880D02*
X1711Y2880D01*
X1780Y2880D02*
X1811Y2880D01*
X1880Y2880D02*
X1911Y2880D01*
X1179Y2879D02*
X1212Y2879D01*
X1279Y2879D02*
X1312Y2879D01*
X1379Y2879D02*
X1412Y2879D01*
X1479Y2879D02*
X1512Y2879D01*
X1579Y2879D02*
X1612Y2879D01*
X1679Y2879D02*
X1712Y2879D01*
X1779Y2879D02*
X1812Y2879D01*
X1879Y2879D02*
X1912Y2879D01*
X1178Y2878D02*
X1214Y2878D01*
X1278Y2878D02*
X1313Y2878D01*
X1378Y2878D02*
X1413Y2878D01*
X1478Y2878D02*
X1513Y2878D01*
X1578Y2878D02*
X1613Y2878D01*
X1678Y2878D02*
X1713Y2878D01*
X1778Y2878D02*
X1813Y2878D01*
X1878Y2878D02*
X1913Y2878D01*
X1177Y2877D02*
X1214Y2877D01*
X1277Y2877D02*
X1314Y2877D01*
X1377Y2877D02*
X1414Y2877D01*
X1477Y2877D02*
X1514Y2877D01*
X1577Y2877D02*
X1614Y2877D01*
X1677Y2877D02*
X1714Y2877D01*
X1777Y2877D02*
X1814Y2877D01*
X1877Y2877D02*
X1914Y2877D01*
X1176Y2876D02*
X1215Y2876D01*
X1276Y2876D02*
X1315Y2876D01*
X1376Y2876D02*
X1415Y2876D01*
X1476Y2876D02*
X1515Y2876D01*
X1576Y2876D02*
X1615Y2876D01*
X1676Y2876D02*
X1715Y2876D01*
X1776Y2876D02*
X1815Y2876D01*
X1876Y2876D02*
X1915Y2876D01*
X1175Y2875D02*
X1216Y2875D01*
X1275Y2875D02*
X1316Y2875D01*
X1375Y2875D02*
X1416Y2875D01*
X1475Y2875D02*
X1516Y2875D01*
X1575Y2875D02*
X1616Y2875D01*
X1675Y2875D02*
X1716Y2875D01*
X1775Y2875D02*
X1816Y2875D01*
X1875Y2875D02*
X1916Y2875D01*
X1175Y2874D02*
X1217Y2874D01*
X1275Y2874D02*
X1317Y2874D01*
X1375Y2874D02*
X1417Y2874D01*
X1475Y2874D02*
X1517Y2874D01*
X1575Y2874D02*
X1617Y2874D01*
X1674Y2874D02*
X1717Y2874D01*
X1774Y2874D02*
X1817Y2874D01*
X1874Y2874D02*
X1917Y2874D01*
X1174Y2873D02*
X1217Y2873D01*
X1274Y2873D02*
X1317Y2873D01*
X1374Y2873D02*
X1417Y2873D01*
X1474Y2873D02*
X1517Y2873D01*
X1574Y2873D02*
X1617Y2873D01*
X1674Y2873D02*
X1717Y2873D01*
X1774Y2873D02*
X1817Y2873D01*
X1874Y2873D02*
X1917Y2873D01*
X1173Y2872D02*
X1218Y2872D01*
X1273Y2872D02*
X1318Y2872D01*
X1373Y2872D02*
X1418Y2872D01*
X1473Y2872D02*
X1518Y2872D01*
X1573Y2872D02*
X1618Y2872D01*
X1673Y2872D02*
X1718Y2872D01*
X1773Y2872D02*
X1818Y2872D01*
X1873Y2872D02*
X1918Y2872D01*
X1173Y2871D02*
X1218Y2871D01*
X1273Y2871D02*
X1318Y2871D01*
X1373Y2871D02*
X1418Y2871D01*
X1473Y2871D02*
X1518Y2871D01*
X1573Y2871D02*
X1618Y2871D01*
X1673Y2871D02*
X1718Y2871D01*
X1773Y2871D02*
X1818Y2871D01*
X1873Y2871D02*
X1918Y2871D01*
X1172Y2870D02*
X1219Y2870D01*
X1272Y2870D02*
X1319Y2870D01*
X1372Y2870D02*
X1419Y2870D01*
X1472Y2870D02*
X1519Y2870D01*
X1572Y2870D02*
X1619Y2870D01*
X1672Y2870D02*
X1719Y2870D01*
X1772Y2870D02*
X1819Y2870D01*
X1872Y2870D02*
X1919Y2870D01*
X1172Y2869D02*
X1219Y2869D01*
X1272Y2869D02*
X1319Y2869D01*
X1372Y2869D02*
X1419Y2869D01*
X1472Y2869D02*
X1519Y2869D01*
X1572Y2869D02*
X1619Y2869D01*
X1672Y2869D02*
X1719Y2869D01*
X1772Y2869D02*
X1819Y2869D01*
X1872Y2869D02*
X1919Y2869D01*
X1172Y2868D02*
X1220Y2868D01*
X1272Y2868D02*
X1320Y2868D01*
X1372Y2868D02*
X1420Y2868D01*
X1472Y2868D02*
X1520Y2868D01*
X1572Y2868D02*
X1620Y2868D01*
X1671Y2868D02*
X1720Y2868D01*
X1771Y2868D02*
X1820Y2868D01*
X1871Y2868D02*
X1920Y2868D01*
X1171Y2867D02*
X1220Y2867D01*
X1271Y2867D02*
X1320Y2867D01*
X1371Y2867D02*
X1420Y2867D01*
X1471Y2867D02*
X1520Y2867D01*
X1571Y2867D02*
X1620Y2867D01*
X1671Y2867D02*
X1720Y2867D01*
X1771Y2867D02*
X1820Y2867D01*
X1871Y2867D02*
X1920Y2867D01*
X1171Y2866D02*
X1220Y2866D01*
X1271Y2866D02*
X1320Y2866D01*
X1371Y2866D02*
X1420Y2866D01*
X1471Y2866D02*
X1520Y2866D01*
X1571Y2866D02*
X1620Y2866D01*
X1671Y2866D02*
X1720Y2866D01*
X1771Y2866D02*
X1820Y2866D01*
X1871Y2866D02*
X1920Y2866D01*
X1171Y2865D02*
X1221Y2865D01*
X1271Y2865D02*
X1321Y2865D01*
X1371Y2865D02*
X1421Y2865D01*
X1471Y2865D02*
X1521Y2865D01*
X1571Y2865D02*
X1621Y2865D01*
X1671Y2865D02*
X1720Y2865D01*
X1771Y2865D02*
X1820Y2865D01*
X1871Y2865D02*
X1920Y2865D01*
X1171Y2864D02*
X1221Y2864D01*
X1271Y2864D02*
X1321Y2864D01*
X1371Y2864D02*
X1421Y2864D01*
X1471Y2864D02*
X1521Y2864D01*
X1570Y2864D02*
X1621Y2864D01*
X1670Y2864D02*
X1721Y2864D01*
X1770Y2864D02*
X1821Y2864D01*
X1870Y2864D02*
X1921Y2864D01*
X1170Y2863D02*
X1221Y2863D01*
X1270Y2863D02*
X1321Y2863D01*
X1370Y2863D02*
X1421Y2863D01*
X1470Y2863D02*
X1521Y2863D01*
X1570Y2863D02*
X1621Y2863D01*
X1670Y2863D02*
X1721Y2863D01*
X1770Y2863D02*
X1821Y2863D01*
X1870Y2863D02*
X1921Y2863D01*
X1170Y2862D02*
X1221Y2862D01*
X1270Y2862D02*
X1321Y2862D01*
X1370Y2862D02*
X1421Y2862D01*
X1470Y2862D02*
X1521Y2862D01*
X1570Y2862D02*
X1621Y2862D01*
X1670Y2862D02*
X1721Y2862D01*
X1770Y2862D02*
X1821Y2862D01*
X1870Y2862D02*
X1921Y2862D01*
X1170Y2861D02*
X1221Y2861D01*
X1270Y2861D02*
X1321Y2861D01*
X1370Y2861D02*
X1421Y2861D01*
X1470Y2861D02*
X1521Y2861D01*
X1570Y2861D02*
X1621Y2861D01*
X1670Y2861D02*
X1721Y2861D01*
X1770Y2861D02*
X1821Y2861D01*
X1870Y2861D02*
X1921Y2861D01*
X1170Y2860D02*
X1221Y2860D01*
X1270Y2860D02*
X1321Y2860D01*
X1370Y2860D02*
X1421Y2860D01*
X1470Y2860D02*
X1521Y2860D01*
X1570Y2860D02*
X1621Y2860D01*
X1670Y2860D02*
X1721Y2860D01*
X1770Y2860D02*
X1821Y2860D01*
X1870Y2860D02*
X1921Y2860D01*
X1170Y2859D02*
X1221Y2859D01*
X1270Y2859D02*
X1321Y2859D01*
X1370Y2859D02*
X1421Y2859D01*
X1470Y2859D02*
X1521Y2859D01*
X1570Y2859D02*
X1621Y2859D01*
X1670Y2859D02*
X1721Y2859D01*
X1770Y2859D02*
X1821Y2859D01*
X1870Y2859D02*
X1921Y2859D01*
X1170Y2858D02*
X1221Y2858D01*
X1270Y2858D02*
X1321Y2858D01*
X1370Y2858D02*
X1421Y2858D01*
X1470Y2858D02*
X1521Y2858D01*
X1570Y2858D02*
X1621Y2858D01*
X1670Y2858D02*
X1721Y2858D01*
X1770Y2858D02*
X1821Y2858D01*
X1870Y2858D02*
X1921Y2858D01*
X1170Y2857D02*
X1221Y2857D01*
X1270Y2857D02*
X1321Y2857D01*
X1370Y2857D02*
X1421Y2857D01*
X1470Y2857D02*
X1521Y2857D01*
X1570Y2857D02*
X1621Y2857D01*
X1670Y2857D02*
X1721Y2857D01*
X1770Y2857D02*
X1821Y2857D01*
X1870Y2857D02*
X1921Y2857D01*
X1170Y2856D02*
X1221Y2856D01*
X1270Y2856D02*
X1321Y2856D01*
X1370Y2856D02*
X1421Y2856D01*
X1470Y2856D02*
X1521Y2856D01*
X1570Y2856D02*
X1621Y2856D01*
X1670Y2856D02*
X1721Y2856D01*
X1770Y2856D02*
X1821Y2856D01*
X1870Y2856D02*
X1921Y2856D01*
X1170Y2855D02*
X1221Y2855D01*
X1270Y2855D02*
X1321Y2855D01*
X1370Y2855D02*
X1421Y2855D01*
X1470Y2855D02*
X1521Y2855D01*
X1570Y2855D02*
X1621Y2855D01*
X1670Y2855D02*
X1721Y2855D01*
X1770Y2855D02*
X1821Y2855D01*
X1870Y2855D02*
X1921Y2855D01*
X1170Y2854D02*
X1221Y2854D01*
X1270Y2854D02*
X1321Y2854D01*
X1370Y2854D02*
X1421Y2854D01*
X1470Y2854D02*
X1521Y2854D01*
X1570Y2854D02*
X1621Y2854D01*
X1670Y2854D02*
X1721Y2854D01*
X1770Y2854D02*
X1821Y2854D01*
X1870Y2854D02*
X1921Y2854D01*
X1170Y2853D02*
X1221Y2853D01*
X1270Y2853D02*
X1321Y2853D01*
X1370Y2853D02*
X1421Y2853D01*
X1470Y2853D02*
X1521Y2853D01*
X1570Y2853D02*
X1621Y2853D01*
X1670Y2853D02*
X1721Y2853D01*
X1770Y2853D02*
X1821Y2853D01*
X1870Y2853D02*
X1921Y2853D01*
X1170Y2852D02*
X1221Y2852D01*
X1270Y2852D02*
X1321Y2852D01*
X1370Y2852D02*
X1421Y2852D01*
X1470Y2852D02*
X1521Y2852D01*
X1570Y2852D02*
X1621Y2852D01*
X1670Y2852D02*
X1721Y2852D01*
X1770Y2852D02*
X1821Y2852D01*
X1870Y2852D02*
X1921Y2852D01*
X1170Y2851D02*
X1221Y2851D01*
X1270Y2851D02*
X1321Y2851D01*
X1370Y2851D02*
X1421Y2851D01*
X1470Y2851D02*
X1521Y2851D01*
X1570Y2851D02*
X1621Y2851D01*
X1670Y2851D02*
X1721Y2851D01*
X1770Y2851D02*
X1821Y2851D01*
X1870Y2851D02*
X1921Y2851D01*
X1170Y2850D02*
X1221Y2850D01*
X1270Y2850D02*
X1321Y2850D01*
X1370Y2850D02*
X1421Y2850D01*
X1470Y2850D02*
X1521Y2850D01*
X1570Y2850D02*
X1621Y2850D01*
X1670Y2850D02*
X1721Y2850D01*
X1770Y2850D02*
X1821Y2850D01*
X1870Y2850D02*
X1921Y2850D01*
X1170Y2849D02*
X1191Y2849D01*
X1200Y2849D02*
X1221Y2849D01*
X1270Y2849D02*
X1291Y2849D01*
X1300Y2849D02*
X1321Y2849D01*
X1370Y2849D02*
X1391Y2849D01*
X1400Y2849D02*
X1421Y2849D01*
X1470Y2849D02*
X1491Y2849D01*
X1500Y2849D02*
X1521Y2849D01*
X1570Y2849D02*
X1591Y2849D01*
X1600Y2849D02*
X1621Y2849D01*
X1670Y2849D02*
X1691Y2849D01*
X1700Y2849D02*
X1721Y2849D01*
X1770Y2849D02*
X1791Y2849D01*
X1800Y2849D02*
X1821Y2849D01*
X1870Y2849D02*
X1891Y2849D01*
X1900Y2849D02*
X1921Y2849D01*
X1170Y2848D02*
X1188Y2848D01*
X1203Y2848D02*
X1221Y2848D01*
X1270Y2848D02*
X1288Y2848D01*
X1303Y2848D02*
X1321Y2848D01*
X1370Y2848D02*
X1388Y2848D01*
X1403Y2848D02*
X1421Y2848D01*
X1470Y2848D02*
X1488Y2848D01*
X1503Y2848D02*
X1521Y2848D01*
X1570Y2848D02*
X1588Y2848D01*
X1603Y2848D02*
X1621Y2848D01*
X1670Y2848D02*
X1688Y2848D01*
X1703Y2848D02*
X1721Y2848D01*
X1770Y2848D02*
X1788Y2848D01*
X1803Y2848D02*
X1821Y2848D01*
X1870Y2848D02*
X1888Y2848D01*
X1903Y2848D02*
X1921Y2848D01*
X1170Y2847D02*
X1187Y2847D01*
X1205Y2847D02*
X1221Y2847D01*
X1270Y2847D02*
X1287Y2847D01*
X1305Y2847D02*
X1321Y2847D01*
X1370Y2847D02*
X1387Y2847D01*
X1405Y2847D02*
X1421Y2847D01*
X1470Y2847D02*
X1486Y2847D01*
X1505Y2847D02*
X1521Y2847D01*
X1570Y2847D02*
X1586Y2847D01*
X1605Y2847D02*
X1621Y2847D01*
X1670Y2847D02*
X1686Y2847D01*
X1705Y2847D02*
X1721Y2847D01*
X1770Y2847D02*
X1786Y2847D01*
X1805Y2847D02*
X1821Y2847D01*
X1870Y2847D02*
X1886Y2847D01*
X1905Y2847D02*
X1921Y2847D01*
X1170Y2846D02*
X1185Y2846D01*
X1206Y2846D02*
X1221Y2846D01*
X1270Y2846D02*
X1285Y2846D01*
X1306Y2846D02*
X1321Y2846D01*
X1370Y2846D02*
X1385Y2846D01*
X1406Y2846D02*
X1421Y2846D01*
X1470Y2846D02*
X1485Y2846D01*
X1506Y2846D02*
X1521Y2846D01*
X1570Y2846D02*
X1585Y2846D01*
X1606Y2846D02*
X1621Y2846D01*
X1670Y2846D02*
X1685Y2846D01*
X1706Y2846D02*
X1721Y2846D01*
X1770Y2846D02*
X1785Y2846D01*
X1806Y2846D02*
X1821Y2846D01*
X1870Y2846D02*
X1885Y2846D01*
X1906Y2846D02*
X1921Y2846D01*
X1170Y2845D02*
X1184Y2845D01*
X1207Y2845D02*
X1221Y2845D01*
X1270Y2845D02*
X1284Y2845D01*
X1307Y2845D02*
X1321Y2845D01*
X1370Y2845D02*
X1384Y2845D01*
X1407Y2845D02*
X1421Y2845D01*
X1470Y2845D02*
X1484Y2845D01*
X1507Y2845D02*
X1521Y2845D01*
X1570Y2845D02*
X1584Y2845D01*
X1607Y2845D02*
X1621Y2845D01*
X1670Y2845D02*
X1684Y2845D01*
X1707Y2845D02*
X1721Y2845D01*
X1770Y2845D02*
X1784Y2845D01*
X1807Y2845D02*
X1821Y2845D01*
X1870Y2845D02*
X1884Y2845D01*
X1907Y2845D02*
X1921Y2845D01*
X1170Y2844D02*
X1183Y2844D01*
X1208Y2844D02*
X1221Y2844D01*
X1270Y2844D02*
X1283Y2844D01*
X1308Y2844D02*
X1321Y2844D01*
X1370Y2844D02*
X1383Y2844D01*
X1408Y2844D02*
X1421Y2844D01*
X1470Y2844D02*
X1483Y2844D01*
X1508Y2844D02*
X1521Y2844D01*
X1570Y2844D02*
X1583Y2844D01*
X1608Y2844D02*
X1621Y2844D01*
X1670Y2844D02*
X1683Y2844D01*
X1708Y2844D02*
X1721Y2844D01*
X1770Y2844D02*
X1783Y2844D01*
X1808Y2844D02*
X1821Y2844D01*
X1870Y2844D02*
X1883Y2844D01*
X1908Y2844D02*
X1921Y2844D01*
X1170Y2843D02*
X1182Y2843D01*
X1209Y2843D02*
X1221Y2843D01*
X1270Y2843D02*
X1282Y2843D01*
X1309Y2843D02*
X1321Y2843D01*
X1370Y2843D02*
X1382Y2843D01*
X1409Y2843D02*
X1421Y2843D01*
X1470Y2843D02*
X1482Y2843D01*
X1509Y2843D02*
X1521Y2843D01*
X1570Y2843D02*
X1582Y2843D01*
X1609Y2843D02*
X1621Y2843D01*
X1670Y2843D02*
X1682Y2843D01*
X1709Y2843D02*
X1721Y2843D01*
X1770Y2843D02*
X1782Y2843D01*
X1809Y2843D02*
X1821Y2843D01*
X1870Y2843D02*
X1882Y2843D01*
X1909Y2843D02*
X1921Y2843D01*
X1170Y2842D02*
X1182Y2842D01*
X1210Y2842D02*
X1221Y2842D01*
X1270Y2842D02*
X1282Y2842D01*
X1310Y2842D02*
X1321Y2842D01*
X1370Y2842D02*
X1382Y2842D01*
X1410Y2842D02*
X1421Y2842D01*
X1470Y2842D02*
X1482Y2842D01*
X1510Y2842D02*
X1521Y2842D01*
X1570Y2842D02*
X1582Y2842D01*
X1610Y2842D02*
X1621Y2842D01*
X1670Y2842D02*
X1682Y2842D01*
X1710Y2842D02*
X1721Y2842D01*
X1770Y2842D02*
X1781Y2842D01*
X1810Y2842D02*
X1821Y2842D01*
X1870Y2842D02*
X1881Y2842D01*
X1910Y2842D02*
X1921Y2842D01*
X1170Y2841D02*
X1181Y2841D01*
X1210Y2841D02*
X1221Y2841D01*
X1270Y2841D02*
X1281Y2841D01*
X1310Y2841D02*
X1321Y2841D01*
X1370Y2841D02*
X1381Y2841D01*
X1410Y2841D02*
X1421Y2841D01*
X1470Y2841D02*
X1481Y2841D01*
X1510Y2841D02*
X1521Y2841D01*
X1570Y2841D02*
X1581Y2841D01*
X1610Y2841D02*
X1621Y2841D01*
X1670Y2841D02*
X1681Y2841D01*
X1710Y2841D02*
X1721Y2841D01*
X1770Y2841D02*
X1781Y2841D01*
X1810Y2841D02*
X1821Y2841D01*
X1870Y2841D02*
X1881Y2841D01*
X1910Y2841D02*
X1921Y2841D01*
X1170Y2840D02*
X1181Y2840D01*
X1211Y2840D02*
X1221Y2840D01*
X1270Y2840D02*
X1281Y2840D01*
X1311Y2840D02*
X1321Y2840D01*
X1370Y2840D02*
X1381Y2840D01*
X1411Y2840D02*
X1421Y2840D01*
X1470Y2840D02*
X1480Y2840D01*
X1511Y2840D02*
X1521Y2840D01*
X1570Y2840D02*
X1580Y2840D01*
X1611Y2840D02*
X1621Y2840D01*
X1670Y2840D02*
X1680Y2840D01*
X1711Y2840D02*
X1721Y2840D01*
X1770Y2840D02*
X1780Y2840D01*
X1811Y2840D02*
X1821Y2840D01*
X1870Y2840D02*
X1880Y2840D01*
X1911Y2840D02*
X1921Y2840D01*
X1170Y2839D02*
X1180Y2839D01*
X1211Y2839D02*
X1221Y2839D01*
X1270Y2839D02*
X1280Y2839D01*
X1311Y2839D02*
X1321Y2839D01*
X1370Y2839D02*
X1380Y2839D01*
X1411Y2839D02*
X1421Y2839D01*
X1470Y2839D02*
X1480Y2839D01*
X1511Y2839D02*
X1521Y2839D01*
X1570Y2839D02*
X1580Y2839D01*
X1611Y2839D02*
X1621Y2839D01*
X1670Y2839D02*
X1680Y2839D01*
X1711Y2839D02*
X1721Y2839D01*
X1770Y2839D02*
X1780Y2839D01*
X1811Y2839D02*
X1821Y2839D01*
X1870Y2839D02*
X1880Y2839D01*
X1911Y2839D02*
X1921Y2839D01*
X1170Y2838D02*
X1180Y2838D01*
X1211Y2838D02*
X1221Y2838D01*
X1270Y2838D02*
X1280Y2838D01*
X1311Y2838D02*
X1321Y2838D01*
X1370Y2838D02*
X1380Y2838D01*
X1411Y2838D02*
X1421Y2838D01*
X1470Y2838D02*
X1480Y2838D01*
X1511Y2838D02*
X1521Y2838D01*
X1570Y2838D02*
X1580Y2838D01*
X1611Y2838D02*
X1621Y2838D01*
X1670Y2838D02*
X1680Y2838D01*
X1711Y2838D02*
X1721Y2838D01*
X1770Y2838D02*
X1780Y2838D01*
X1811Y2838D02*
X1821Y2838D01*
X1870Y2838D02*
X1880Y2838D01*
X1911Y2838D02*
X1921Y2838D01*
X1170Y2837D02*
X1180Y2837D01*
X1212Y2837D02*
X1221Y2837D01*
X1270Y2837D02*
X1280Y2837D01*
X1312Y2837D02*
X1321Y2837D01*
X1370Y2837D02*
X1380Y2837D01*
X1412Y2837D02*
X1421Y2837D01*
X1470Y2837D02*
X1480Y2837D01*
X1512Y2837D02*
X1521Y2837D01*
X1570Y2837D02*
X1579Y2837D01*
X1612Y2837D02*
X1621Y2837D01*
X1670Y2837D02*
X1679Y2837D01*
X1712Y2837D02*
X1721Y2837D01*
X1770Y2837D02*
X1779Y2837D01*
X1812Y2837D02*
X1821Y2837D01*
X1870Y2837D02*
X1879Y2837D01*
X1912Y2837D02*
X1921Y2837D01*
X1170Y2836D02*
X1179Y2836D01*
X1212Y2836D02*
X1221Y2836D01*
X1270Y2836D02*
X1279Y2836D01*
X1312Y2836D02*
X1321Y2836D01*
X1370Y2836D02*
X1379Y2836D01*
X1412Y2836D02*
X1421Y2836D01*
X1470Y2836D02*
X1479Y2836D01*
X1512Y2836D02*
X1521Y2836D01*
X1570Y2836D02*
X1579Y2836D01*
X1612Y2836D02*
X1621Y2836D01*
X1670Y2836D02*
X1679Y2836D01*
X1712Y2836D02*
X1721Y2836D01*
X1770Y2836D02*
X1779Y2836D01*
X1812Y2836D02*
X1821Y2836D01*
X1870Y2836D02*
X1879Y2836D01*
X1912Y2836D02*
X1921Y2836D01*
X1170Y2835D02*
X1179Y2835D01*
X1212Y2835D02*
X1221Y2835D01*
X1270Y2835D02*
X1279Y2835D01*
X1312Y2835D02*
X1321Y2835D01*
X1370Y2835D02*
X1379Y2835D01*
X1412Y2835D02*
X1421Y2835D01*
X1470Y2835D02*
X1479Y2835D01*
X1512Y2835D02*
X1521Y2835D01*
X1570Y2835D02*
X1579Y2835D01*
X1612Y2835D02*
X1621Y2835D01*
X1670Y2835D02*
X1679Y2835D01*
X1712Y2835D02*
X1721Y2835D01*
X1770Y2835D02*
X1779Y2835D01*
X1812Y2835D02*
X1821Y2835D01*
X1870Y2835D02*
X1879Y2835D01*
X1912Y2835D02*
X1921Y2835D01*
X1170Y2834D02*
X1179Y2834D01*
X1212Y2834D02*
X1221Y2834D01*
X1270Y2834D02*
X1279Y2834D01*
X1312Y2834D02*
X1321Y2834D01*
X1370Y2834D02*
X1379Y2834D01*
X1412Y2834D02*
X1421Y2834D01*
X1470Y2834D02*
X1479Y2834D01*
X1512Y2834D02*
X1521Y2834D01*
X1570Y2834D02*
X1579Y2834D01*
X1612Y2834D02*
X1621Y2834D01*
X1670Y2834D02*
X1679Y2834D01*
X1712Y2834D02*
X1721Y2834D01*
X1770Y2834D02*
X1779Y2834D01*
X1812Y2834D02*
X1821Y2834D01*
X1870Y2834D02*
X1879Y2834D01*
X1912Y2834D02*
X1921Y2834D01*
X1170Y2833D02*
X1179Y2833D01*
X1212Y2833D02*
X1221Y2833D01*
X1270Y2833D02*
X1279Y2833D01*
X1312Y2833D02*
X1321Y2833D01*
X1370Y2833D02*
X1379Y2833D01*
X1412Y2833D02*
X1421Y2833D01*
X1470Y2833D02*
X1479Y2833D01*
X1512Y2833D02*
X1521Y2833D01*
X1570Y2833D02*
X1579Y2833D01*
X1612Y2833D02*
X1621Y2833D01*
X1670Y2833D02*
X1679Y2833D01*
X1712Y2833D02*
X1721Y2833D01*
X1770Y2833D02*
X1779Y2833D01*
X1812Y2833D02*
X1821Y2833D01*
X1870Y2833D02*
X1879Y2833D01*
X1912Y2833D02*
X1921Y2833D01*
X1170Y2832D02*
X1179Y2832D01*
X1212Y2832D02*
X1221Y2832D01*
X1270Y2832D02*
X1279Y2832D01*
X1312Y2832D02*
X1321Y2832D01*
X1370Y2832D02*
X1379Y2832D01*
X1412Y2832D02*
X1421Y2832D01*
X1470Y2832D02*
X1479Y2832D01*
X1512Y2832D02*
X1521Y2832D01*
X1570Y2832D02*
X1579Y2832D01*
X1612Y2832D02*
X1621Y2832D01*
X1670Y2832D02*
X1679Y2832D01*
X1712Y2832D02*
X1721Y2832D01*
X1770Y2832D02*
X1779Y2832D01*
X1812Y2832D02*
X1821Y2832D01*
X1870Y2832D02*
X1879Y2832D01*
X1912Y2832D02*
X1921Y2832D01*
X1170Y2831D02*
X1179Y2831D01*
X1212Y2831D02*
X1221Y2831D01*
X1270Y2831D02*
X1279Y2831D01*
X1312Y2831D02*
X1321Y2831D01*
X1370Y2831D02*
X1379Y2831D01*
X1412Y2831D02*
X1421Y2831D01*
X1470Y2831D02*
X1479Y2831D01*
X1512Y2831D02*
X1521Y2831D01*
X1570Y2831D02*
X1579Y2831D01*
X1612Y2831D02*
X1621Y2831D01*
X1670Y2831D02*
X1679Y2831D01*
X1712Y2831D02*
X1721Y2831D01*
X1770Y2831D02*
X1779Y2831D01*
X1812Y2831D02*
X1821Y2831D01*
X1870Y2831D02*
X1879Y2831D01*
X1912Y2831D02*
X1921Y2831D01*
X1170Y2830D02*
X1180Y2830D01*
X1212Y2830D02*
X1221Y2830D01*
X1270Y2830D02*
X1280Y2830D01*
X1312Y2830D02*
X1321Y2830D01*
X1370Y2830D02*
X1380Y2830D01*
X1412Y2830D02*
X1421Y2830D01*
X1470Y2830D02*
X1480Y2830D01*
X1512Y2830D02*
X1521Y2830D01*
X1570Y2830D02*
X1580Y2830D01*
X1612Y2830D02*
X1621Y2830D01*
X1670Y2830D02*
X1680Y2830D01*
X1712Y2830D02*
X1721Y2830D01*
X1770Y2830D02*
X1779Y2830D01*
X1812Y2830D02*
X1821Y2830D01*
X1870Y2830D02*
X1879Y2830D01*
X1912Y2830D02*
X1921Y2830D01*
X1170Y2829D02*
X1180Y2829D01*
X1211Y2829D02*
X1221Y2829D01*
X1270Y2829D02*
X1280Y2829D01*
X1311Y2829D02*
X1321Y2829D01*
X1370Y2829D02*
X1380Y2829D01*
X1411Y2829D02*
X1421Y2829D01*
X1470Y2829D02*
X1480Y2829D01*
X1511Y2829D02*
X1521Y2829D01*
X1570Y2829D02*
X1580Y2829D01*
X1611Y2829D02*
X1621Y2829D01*
X1670Y2829D02*
X1680Y2829D01*
X1711Y2829D02*
X1721Y2829D01*
X1770Y2829D02*
X1780Y2829D01*
X1811Y2829D02*
X1821Y2829D01*
X1870Y2829D02*
X1880Y2829D01*
X1911Y2829D02*
X1921Y2829D01*
X1170Y2828D02*
X1180Y2828D01*
X1211Y2828D02*
X1221Y2828D01*
X1270Y2828D02*
X1280Y2828D01*
X1311Y2828D02*
X1321Y2828D01*
X1370Y2828D02*
X1380Y2828D01*
X1411Y2828D02*
X1421Y2828D01*
X1470Y2828D02*
X1480Y2828D01*
X1511Y2828D02*
X1521Y2828D01*
X1570Y2828D02*
X1580Y2828D01*
X1611Y2828D02*
X1621Y2828D01*
X1670Y2828D02*
X1680Y2828D01*
X1711Y2828D02*
X1721Y2828D01*
X1770Y2828D02*
X1780Y2828D01*
X1811Y2828D02*
X1821Y2828D01*
X1870Y2828D02*
X1880Y2828D01*
X1911Y2828D02*
X1921Y2828D01*
X1170Y2827D02*
X1181Y2827D01*
X1211Y2827D02*
X1221Y2827D01*
X1270Y2827D02*
X1281Y2827D01*
X1311Y2827D02*
X1321Y2827D01*
X1370Y2827D02*
X1381Y2827D01*
X1411Y2827D02*
X1421Y2827D01*
X1470Y2827D02*
X1481Y2827D01*
X1511Y2827D02*
X1521Y2827D01*
X1570Y2827D02*
X1581Y2827D01*
X1611Y2827D02*
X1621Y2827D01*
X1670Y2827D02*
X1681Y2827D01*
X1711Y2827D02*
X1721Y2827D01*
X1770Y2827D02*
X1781Y2827D01*
X1811Y2827D02*
X1821Y2827D01*
X1870Y2827D02*
X1880Y2827D01*
X1911Y2827D02*
X1921Y2827D01*
X1170Y2826D02*
X1181Y2826D01*
X1210Y2826D02*
X1221Y2826D01*
X1270Y2826D02*
X1281Y2826D01*
X1310Y2826D02*
X1321Y2826D01*
X1370Y2826D02*
X1381Y2826D01*
X1410Y2826D02*
X1421Y2826D01*
X1470Y2826D02*
X1481Y2826D01*
X1510Y2826D02*
X1521Y2826D01*
X1570Y2826D02*
X1581Y2826D01*
X1610Y2826D02*
X1621Y2826D01*
X1670Y2826D02*
X1681Y2826D01*
X1710Y2826D02*
X1721Y2826D01*
X1770Y2826D02*
X1781Y2826D01*
X1810Y2826D02*
X1821Y2826D01*
X1870Y2826D02*
X1881Y2826D01*
X1910Y2826D02*
X1921Y2826D01*
X1170Y2825D02*
X1182Y2825D01*
X1210Y2825D02*
X1221Y2825D01*
X1270Y2825D02*
X1282Y2825D01*
X1310Y2825D02*
X1321Y2825D01*
X1370Y2825D02*
X1382Y2825D01*
X1410Y2825D02*
X1421Y2825D01*
X1470Y2825D02*
X1482Y2825D01*
X1510Y2825D02*
X1521Y2825D01*
X1570Y2825D02*
X1582Y2825D01*
X1610Y2825D02*
X1621Y2825D01*
X1670Y2825D02*
X1682Y2825D01*
X1710Y2825D02*
X1721Y2825D01*
X1770Y2825D02*
X1782Y2825D01*
X1809Y2825D02*
X1821Y2825D01*
X1870Y2825D02*
X1882Y2825D01*
X1909Y2825D02*
X1921Y2825D01*
X1170Y2824D02*
X1182Y2824D01*
X1209Y2824D02*
X1221Y2824D01*
X1270Y2824D02*
X1282Y2824D01*
X1309Y2824D02*
X1321Y2824D01*
X1370Y2824D02*
X1382Y2824D01*
X1409Y2824D02*
X1421Y2824D01*
X1470Y2824D02*
X1482Y2824D01*
X1509Y2824D02*
X1521Y2824D01*
X1570Y2824D02*
X1582Y2824D01*
X1609Y2824D02*
X1621Y2824D01*
X1670Y2824D02*
X1682Y2824D01*
X1709Y2824D02*
X1721Y2824D01*
X1770Y2824D02*
X1782Y2824D01*
X1809Y2824D02*
X1821Y2824D01*
X1870Y2824D02*
X1882Y2824D01*
X1909Y2824D02*
X1921Y2824D01*
X1170Y2823D02*
X1183Y2823D01*
X1208Y2823D02*
X1221Y2823D01*
X1270Y2823D02*
X1283Y2823D01*
X1308Y2823D02*
X1321Y2823D01*
X1370Y2823D02*
X1383Y2823D01*
X1408Y2823D02*
X1421Y2823D01*
X1470Y2823D02*
X1483Y2823D01*
X1508Y2823D02*
X1521Y2823D01*
X1570Y2823D02*
X1583Y2823D01*
X1608Y2823D02*
X1621Y2823D01*
X1670Y2823D02*
X1683Y2823D01*
X1708Y2823D02*
X1721Y2823D01*
X1770Y2823D02*
X1783Y2823D01*
X1808Y2823D02*
X1821Y2823D01*
X1870Y2823D02*
X1883Y2823D01*
X1908Y2823D02*
X1921Y2823D01*
X1170Y2822D02*
X1184Y2822D01*
X1207Y2822D02*
X1221Y2822D01*
X1270Y2822D02*
X1284Y2822D01*
X1307Y2822D02*
X1321Y2822D01*
X1370Y2822D02*
X1384Y2822D01*
X1407Y2822D02*
X1421Y2822D01*
X1470Y2822D02*
X1484Y2822D01*
X1507Y2822D02*
X1521Y2822D01*
X1570Y2822D02*
X1584Y2822D01*
X1607Y2822D02*
X1621Y2822D01*
X1670Y2822D02*
X1684Y2822D01*
X1707Y2822D02*
X1721Y2822D01*
X1770Y2822D02*
X1784Y2822D01*
X1807Y2822D02*
X1821Y2822D01*
X1870Y2822D02*
X1884Y2822D01*
X1907Y2822D02*
X1921Y2822D01*
X1170Y2821D02*
X1185Y2821D01*
X1206Y2821D02*
X1221Y2821D01*
X1270Y2821D02*
X1285Y2821D01*
X1306Y2821D02*
X1321Y2821D01*
X1370Y2821D02*
X1385Y2821D01*
X1406Y2821D02*
X1421Y2821D01*
X1470Y2821D02*
X1485Y2821D01*
X1506Y2821D02*
X1521Y2821D01*
X1570Y2821D02*
X1585Y2821D01*
X1606Y2821D02*
X1621Y2821D01*
X1670Y2821D02*
X1685Y2821D01*
X1706Y2821D02*
X1721Y2821D01*
X1770Y2821D02*
X1785Y2821D01*
X1806Y2821D02*
X1821Y2821D01*
X1870Y2821D02*
X1885Y2821D01*
X1906Y2821D02*
X1921Y2821D01*
X1170Y2820D02*
X1187Y2820D01*
X1205Y2820D02*
X1221Y2820D01*
X1270Y2820D02*
X1287Y2820D01*
X1305Y2820D02*
X1321Y2820D01*
X1370Y2820D02*
X1387Y2820D01*
X1405Y2820D02*
X1421Y2820D01*
X1470Y2820D02*
X1487Y2820D01*
X1504Y2820D02*
X1521Y2820D01*
X1570Y2820D02*
X1587Y2820D01*
X1604Y2820D02*
X1621Y2820D01*
X1670Y2820D02*
X1687Y2820D01*
X1704Y2820D02*
X1721Y2820D01*
X1770Y2820D02*
X1787Y2820D01*
X1804Y2820D02*
X1821Y2820D01*
X1870Y2820D02*
X1887Y2820D01*
X1904Y2820D02*
X1921Y2820D01*
X1170Y2819D02*
X1189Y2819D01*
X1203Y2819D02*
X1221Y2819D01*
X1270Y2819D02*
X1289Y2819D01*
X1303Y2819D02*
X1321Y2819D01*
X1370Y2819D02*
X1389Y2819D01*
X1403Y2819D02*
X1421Y2819D01*
X1470Y2819D02*
X1489Y2819D01*
X1503Y2819D02*
X1521Y2819D01*
X1570Y2819D02*
X1589Y2819D01*
X1603Y2819D02*
X1621Y2819D01*
X1670Y2819D02*
X1689Y2819D01*
X1703Y2819D02*
X1721Y2819D01*
X1770Y2819D02*
X1789Y2819D01*
X1803Y2819D02*
X1821Y2819D01*
X1870Y2819D02*
X1889Y2819D01*
X1903Y2819D02*
X1921Y2819D01*
X1170Y2818D02*
X1192Y2818D01*
X1200Y2818D02*
X1221Y2818D01*
X1270Y2818D02*
X1292Y2818D01*
X1300Y2818D02*
X1321Y2818D01*
X1370Y2818D02*
X1392Y2818D01*
X1400Y2818D02*
X1421Y2818D01*
X1470Y2818D02*
X1492Y2818D01*
X1500Y2818D02*
X1521Y2818D01*
X1570Y2818D02*
X1592Y2818D01*
X1600Y2818D02*
X1621Y2818D01*
X1670Y2818D02*
X1692Y2818D01*
X1700Y2818D02*
X1721Y2818D01*
X1770Y2818D02*
X1792Y2818D01*
X1800Y2818D02*
X1821Y2818D01*
X1870Y2818D02*
X1892Y2818D01*
X1900Y2818D02*
X1921Y2818D01*
X1170Y2817D02*
X1221Y2817D01*
X1270Y2817D02*
X1321Y2817D01*
X1370Y2817D02*
X1421Y2817D01*
X1470Y2817D02*
X1521Y2817D01*
X1570Y2817D02*
X1621Y2817D01*
X1670Y2817D02*
X1721Y2817D01*
X1770Y2817D02*
X1821Y2817D01*
X1870Y2817D02*
X1921Y2817D01*
X1170Y2816D02*
X1221Y2816D01*
X1270Y2816D02*
X1321Y2816D01*
X1370Y2816D02*
X1421Y2816D01*
X1470Y2816D02*
X1521Y2816D01*
X1570Y2816D02*
X1621Y2816D01*
X1670Y2816D02*
X1721Y2816D01*
X1770Y2816D02*
X1821Y2816D01*
X1870Y2816D02*
X1921Y2816D01*
X1170Y2815D02*
X1221Y2815D01*
X1270Y2815D02*
X1321Y2815D01*
X1370Y2815D02*
X1421Y2815D01*
X1470Y2815D02*
X1521Y2815D01*
X1570Y2815D02*
X1621Y2815D01*
X1670Y2815D02*
X1721Y2815D01*
X1770Y2815D02*
X1821Y2815D01*
X1870Y2815D02*
X1921Y2815D01*
X1170Y2814D02*
X1221Y2814D01*
X1270Y2814D02*
X1321Y2814D01*
X1370Y2814D02*
X1421Y2814D01*
X1470Y2814D02*
X1521Y2814D01*
X1570Y2814D02*
X1621Y2814D01*
X1670Y2814D02*
X1721Y2814D01*
X1770Y2814D02*
X1821Y2814D01*
X1870Y2814D02*
X1921Y2814D01*
X1170Y2813D02*
X1221Y2813D01*
X1270Y2813D02*
X1321Y2813D01*
X1370Y2813D02*
X1421Y2813D01*
X1470Y2813D02*
X1521Y2813D01*
X1570Y2813D02*
X1621Y2813D01*
X1670Y2813D02*
X1721Y2813D01*
X1770Y2813D02*
X1821Y2813D01*
X1870Y2813D02*
X1921Y2813D01*
X1170Y2812D02*
X1221Y2812D01*
X1270Y2812D02*
X1321Y2812D01*
X1370Y2812D02*
X1421Y2812D01*
X1470Y2812D02*
X1521Y2812D01*
X1570Y2812D02*
X1621Y2812D01*
X1670Y2812D02*
X1721Y2812D01*
X1770Y2812D02*
X1821Y2812D01*
X1870Y2812D02*
X1921Y2812D01*
X1170Y2811D02*
X1221Y2811D01*
X1270Y2811D02*
X1321Y2811D01*
X1370Y2811D02*
X1421Y2811D01*
X1470Y2811D02*
X1521Y2811D01*
X1570Y2811D02*
X1621Y2811D01*
X1670Y2811D02*
X1721Y2811D01*
X1770Y2811D02*
X1821Y2811D01*
X1870Y2811D02*
X1921Y2811D01*
X1170Y2810D02*
X1221Y2810D01*
X1270Y2810D02*
X1321Y2810D01*
X1370Y2810D02*
X1421Y2810D01*
X1470Y2810D02*
X1521Y2810D01*
X1570Y2810D02*
X1621Y2810D01*
X1670Y2810D02*
X1721Y2810D01*
X1770Y2810D02*
X1821Y2810D01*
X1870Y2810D02*
X1921Y2810D01*
X1170Y2809D02*
X1221Y2809D01*
X1270Y2809D02*
X1321Y2809D01*
X1370Y2809D02*
X1421Y2809D01*
X1470Y2809D02*
X1521Y2809D01*
X1570Y2809D02*
X1621Y2809D01*
X1670Y2809D02*
X1721Y2809D01*
X1770Y2809D02*
X1821Y2809D01*
X1870Y2809D02*
X1921Y2809D01*
X1170Y2808D02*
X1221Y2808D01*
X1270Y2808D02*
X1321Y2808D01*
X1370Y2808D02*
X1421Y2808D01*
X1470Y2808D02*
X1521Y2808D01*
X1570Y2808D02*
X1621Y2808D01*
X1670Y2808D02*
X1721Y2808D01*
X1770Y2808D02*
X1821Y2808D01*
X1870Y2808D02*
X1921Y2808D01*
X1170Y2807D02*
X1221Y2807D01*
X1270Y2807D02*
X1321Y2807D01*
X1370Y2807D02*
X1421Y2807D01*
X1470Y2807D02*
X1521Y2807D01*
X1570Y2807D02*
X1621Y2807D01*
X1670Y2807D02*
X1721Y2807D01*
X1770Y2807D02*
X1821Y2807D01*
X1870Y2807D02*
X1921Y2807D01*
X1170Y2806D02*
X1221Y2806D01*
X1270Y2806D02*
X1321Y2806D01*
X1370Y2806D02*
X1421Y2806D01*
X1470Y2806D02*
X1521Y2806D01*
X1570Y2806D02*
X1621Y2806D01*
X1670Y2806D02*
X1721Y2806D01*
X1770Y2806D02*
X1821Y2806D01*
X1870Y2806D02*
X1921Y2806D01*
X1170Y2805D02*
X1221Y2805D01*
X1270Y2805D02*
X1321Y2805D01*
X1370Y2805D02*
X1421Y2805D01*
X1470Y2805D02*
X1521Y2805D01*
X1570Y2805D02*
X1621Y2805D01*
X1670Y2805D02*
X1721Y2805D01*
X1770Y2805D02*
X1821Y2805D01*
X1870Y2805D02*
X1921Y2805D01*
X1170Y2804D02*
X1221Y2804D01*
X1270Y2804D02*
X1321Y2804D01*
X1370Y2804D02*
X1421Y2804D01*
X1470Y2804D02*
X1521Y2804D01*
X1570Y2804D02*
X1621Y2804D01*
X1670Y2804D02*
X1721Y2804D01*
X1770Y2804D02*
X1821Y2804D01*
X1870Y2804D02*
X1921Y2804D01*
X1171Y2803D02*
X1221Y2803D01*
X1271Y2803D02*
X1321Y2803D01*
X1371Y2803D02*
X1421Y2803D01*
X1471Y2803D02*
X1521Y2803D01*
X1571Y2803D02*
X1621Y2803D01*
X1671Y2803D02*
X1721Y2803D01*
X1770Y2803D02*
X1821Y2803D01*
X1870Y2803D02*
X1921Y2803D01*
X1171Y2802D02*
X1221Y2802D01*
X1271Y2802D02*
X1321Y2802D01*
X1371Y2802D02*
X1421Y2802D01*
X1471Y2802D02*
X1520Y2802D01*
X1571Y2802D02*
X1620Y2802D01*
X1671Y2802D02*
X1720Y2802D01*
X1771Y2802D02*
X1820Y2802D01*
X1871Y2802D02*
X1920Y2802D01*
X1171Y2801D02*
X1220Y2801D01*
X1271Y2801D02*
X1320Y2801D01*
X1371Y2801D02*
X1420Y2801D01*
X1471Y2801D02*
X1520Y2801D01*
X1571Y2801D02*
X1620Y2801D01*
X1671Y2801D02*
X1720Y2801D01*
X1771Y2801D02*
X1820Y2801D01*
X1871Y2801D02*
X1920Y2801D01*
X1171Y2800D02*
X1220Y2800D01*
X1271Y2800D02*
X1320Y2800D01*
X1371Y2800D02*
X1420Y2800D01*
X1471Y2800D02*
X1520Y2800D01*
X1571Y2800D02*
X1620Y2800D01*
X1671Y2800D02*
X1720Y2800D01*
X1771Y2800D02*
X1820Y2800D01*
X1871Y2800D02*
X1920Y2800D01*
X1172Y2799D02*
X1220Y2799D01*
X1272Y2799D02*
X1320Y2799D01*
X1372Y2799D02*
X1420Y2799D01*
X1472Y2799D02*
X1520Y2799D01*
X1572Y2799D02*
X1620Y2799D01*
X1672Y2799D02*
X1720Y2799D01*
X1772Y2799D02*
X1820Y2799D01*
X1871Y2799D02*
X1920Y2799D01*
X1172Y2798D02*
X1219Y2798D01*
X1272Y2798D02*
X1319Y2798D01*
X1372Y2798D02*
X1419Y2798D01*
X1472Y2798D02*
X1519Y2798D01*
X1572Y2798D02*
X1619Y2798D01*
X1672Y2798D02*
X1719Y2798D01*
X1772Y2798D02*
X1819Y2798D01*
X1872Y2798D02*
X1919Y2798D01*
X1172Y2797D02*
X1219Y2797D01*
X1272Y2797D02*
X1319Y2797D01*
X1372Y2797D02*
X1419Y2797D01*
X1472Y2797D02*
X1519Y2797D01*
X1572Y2797D02*
X1619Y2797D01*
X1672Y2797D02*
X1719Y2797D01*
X1772Y2797D02*
X1819Y2797D01*
X1872Y2797D02*
X1919Y2797D01*
X1173Y2796D02*
X1218Y2796D01*
X1273Y2796D02*
X1318Y2796D01*
X1373Y2796D02*
X1418Y2796D01*
X1473Y2796D02*
X1518Y2796D01*
X1573Y2796D02*
X1618Y2796D01*
X1673Y2796D02*
X1718Y2796D01*
X1773Y2796D02*
X1818Y2796D01*
X1873Y2796D02*
X1918Y2796D01*
X1174Y2795D02*
X1218Y2795D01*
X1274Y2795D02*
X1318Y2795D01*
X1374Y2795D02*
X1418Y2795D01*
X1473Y2795D02*
X1518Y2795D01*
X1573Y2795D02*
X1618Y2795D01*
X1673Y2795D02*
X1718Y2795D01*
X1773Y2795D02*
X1818Y2795D01*
X1873Y2795D02*
X1918Y2795D01*
X1174Y2794D02*
X1217Y2794D01*
X1274Y2794D02*
X1317Y2794D01*
X1374Y2794D02*
X1417Y2794D01*
X1474Y2794D02*
X1517Y2794D01*
X1574Y2794D02*
X1617Y2794D01*
X1674Y2794D02*
X1717Y2794D01*
X1774Y2794D02*
X1817Y2794D01*
X1874Y2794D02*
X1917Y2794D01*
X1175Y2793D02*
X1217Y2793D01*
X1275Y2793D02*
X1317Y2793D01*
X1375Y2793D02*
X1417Y2793D01*
X1475Y2793D02*
X1517Y2793D01*
X1575Y2793D02*
X1617Y2793D01*
X1675Y2793D02*
X1717Y2793D01*
X1775Y2793D02*
X1817Y2793D01*
X1875Y2793D02*
X1917Y2793D01*
X1175Y2792D02*
X1216Y2792D01*
X1275Y2792D02*
X1316Y2792D01*
X1375Y2792D02*
X1416Y2792D01*
X1475Y2792D02*
X1516Y2792D01*
X1575Y2792D02*
X1616Y2792D01*
X1675Y2792D02*
X1716Y2792D01*
X1775Y2792D02*
X1816Y2792D01*
X1875Y2792D02*
X1916Y2792D01*
X1176Y2791D02*
X1215Y2791D01*
X1276Y2791D02*
X1315Y2791D01*
X1376Y2791D02*
X1415Y2791D01*
X1476Y2791D02*
X1515Y2791D01*
X1576Y2791D02*
X1615Y2791D01*
X1676Y2791D02*
X1715Y2791D01*
X1776Y2791D02*
X1815Y2791D01*
X1876Y2791D02*
X1915Y2791D01*
X1177Y2790D02*
X1214Y2790D01*
X1277Y2790D02*
X1314Y2790D01*
X1377Y2790D02*
X1414Y2790D01*
X1477Y2790D02*
X1514Y2790D01*
X1577Y2790D02*
X1614Y2790D01*
X1677Y2790D02*
X1714Y2790D01*
X1777Y2790D02*
X1814Y2790D01*
X1877Y2790D02*
X1914Y2790D01*
X1178Y2789D02*
X1213Y2789D01*
X1278Y2789D02*
X1313Y2789D01*
X1378Y2789D02*
X1413Y2789D01*
X1478Y2789D02*
X1513Y2789D01*
X1578Y2789D02*
X1613Y2789D01*
X1678Y2789D02*
X1713Y2789D01*
X1778Y2789D02*
X1813Y2789D01*
X1878Y2789D02*
X1913Y2789D01*
X1179Y2788D02*
X1212Y2788D01*
X1279Y2788D02*
X1312Y2788D01*
X1379Y2788D02*
X1412Y2788D01*
X1479Y2788D02*
X1512Y2788D01*
X1579Y2788D02*
X1612Y2788D01*
X1679Y2788D02*
X1712Y2788D01*
X1779Y2788D02*
X1812Y2788D01*
X1879Y2788D02*
X1912Y2788D01*
X1180Y2787D02*
X1211Y2787D01*
X1280Y2787D02*
X1311Y2787D01*
X1380Y2787D02*
X1411Y2787D01*
X1480Y2787D02*
X1511Y2787D01*
X1580Y2787D02*
X1611Y2787D01*
X1680Y2787D02*
X1711Y2787D01*
X1780Y2787D02*
X1811Y2787D01*
X1880Y2787D02*
X1911Y2787D01*
X1182Y2786D02*
X1210Y2786D01*
X1282Y2786D02*
X1310Y2786D01*
X1382Y2786D02*
X1410Y2786D01*
X1482Y2786D02*
X1510Y2786D01*
X1582Y2786D02*
X1610Y2786D01*
X1682Y2786D02*
X1710Y2786D01*
X1782Y2786D02*
X1810Y2786D01*
X1882Y2786D02*
X1909Y2786D01*
X1184Y2785D02*
X1208Y2785D01*
X1284Y2785D02*
X1308Y2785D01*
X1383Y2785D02*
X1408Y2785D01*
X1483Y2785D02*
X1508Y2785D01*
X1583Y2785D02*
X1608Y2785D01*
X1683Y2785D02*
X1708Y2785D01*
X1783Y2785D02*
X1808Y2785D01*
X1883Y2785D02*
X1908Y2785D01*
X1185Y2784D02*
X1206Y2784D01*
X1285Y2784D02*
X1306Y2784D01*
X1385Y2784D02*
X1406Y2784D01*
X1485Y2784D02*
X1506Y2784D01*
X1585Y2784D02*
X1606Y2784D01*
X1685Y2784D02*
X1706Y2784D01*
X1785Y2784D02*
X1806Y2784D01*
X1885Y2784D02*
X1906Y2784D01*
X1188Y2783D02*
X1204Y2783D01*
X1288Y2783D02*
X1304Y2783D01*
X1388Y2783D02*
X1404Y2783D01*
X1488Y2783D02*
X1504Y2783D01*
X1588Y2783D02*
X1604Y2783D01*
X1688Y2783D02*
X1703Y2783D01*
X1788Y2783D02*
X1803Y2783D01*
X1888Y2783D02*
X1903Y2783D01*
X1192Y2782D02*
X1200Y2782D01*
X1292Y2782D02*
X1300Y2782D01*
X1392Y2782D02*
X1400Y2782D01*
X1492Y2782D02*
X1500Y2782D01*
X1592Y2782D02*
X1600Y2782D01*
X1692Y2782D02*
X1700Y2782D01*
X1792Y2782D02*
X1800Y2782D01*
X1891Y2782D02*
X1900Y2782D01*
D02*
G04 End of Copper1*
M02*