G04 MADE WITH FRITZING*
G04 WWW.FRITZING.ORG*
G04 DOUBLE SIDED*
G04 HOLES PLATED*
G04 CONTOUR ON CENTER OF CONTOUR VECTOR*
%ASAXBY*%
%FSLAX23Y23*%
%MOIN*%
%OFA0B0*%
%SFA1.0B1.0*%
%ADD10C,0.005000*%
%ADD10C,0.008*%
%LNCONTOUR*%
G90*
G70*
G54D10*
G54D10*
X60Y3937D02*
X61Y3937D01*
X62Y3937D01*
X63Y3937D01*
X64Y3937D01*
X65Y3937D01*
X66Y3937D01*
X67Y3937D01*
X68Y3937D01*
X69Y3937D01*
X70Y3937D01*
X71Y3937D01*
X72Y3937D01*
X73Y3937D01*
X74Y3937D01*
X75Y3937D01*
X76Y3937D01*
X77Y3937D01*
X78Y3937D01*
X79Y3937D01*
X80Y3937D01*
X81Y3937D01*
X82Y3937D01*
X83Y3937D01*
X84Y3937D01*
X85Y3937D01*
X86Y3937D01*
X87Y3937D01*
X88Y3937D01*
X89Y3937D01*
X90Y3937D01*
X91Y3937D01*
X92Y3937D01*
X93Y3937D01*
X94Y3937D01*
X95Y3937D01*
X96Y3937D01*
X97Y3937D01*
X98Y3937D01*
X99Y3937D01*
X100Y3937D01*
X101Y3937D01*
X102Y3937D01*
X103Y3937D01*
X104Y3937D01*
X105Y3937D01*
X106Y3937D01*
X107Y3937D01*
X108Y3937D01*
X109Y3937D01*
X110Y3937D01*
X111Y3937D01*
X112Y3937D01*
X113Y3937D01*
X114Y3937D01*
X115Y3937D01*
X116Y3937D01*
X117Y3937D01*
X118Y3937D01*
X119Y3937D01*
X120Y3937D01*
X121Y3937D01*
X122Y3937D01*
X123Y3937D01*
X124Y3937D01*
X125Y3937D01*
X126Y3937D01*
X127Y3937D01*
X128Y3937D01*
X129Y3937D01*
X130Y3937D01*
X131Y3937D01*
X132Y3937D01*
X133Y3937D01*
X134Y3937D01*
X135Y3937D01*
X136Y3937D01*
X137Y3937D01*
X138Y3937D01*
X139Y3937D01*
X140Y3937D01*
X141Y3937D01*
X142Y3937D01*
X143Y3937D01*
X144Y3937D01*
X145Y3937D01*
X146Y3937D01*
X147Y3937D01*
X148Y3937D01*
X149Y3937D01*
X150Y3937D01*
X151Y3937D01*
X152Y3937D01*
X153Y3937D01*
X154Y3937D01*
X155Y3937D01*
X156Y3937D01*
X157Y3937D01*
X158Y3937D01*
X159Y3937D01*
X160Y3937D01*
X161Y3937D01*
X162Y3937D01*
X163Y3937D01*
X164Y3937D01*
X165Y3937D01*
X166Y3937D01*
X167Y3937D01*
X168Y3937D01*
X169Y3937D01*
X170Y3937D01*
X171Y3937D01*
X172Y3937D01*
X173Y3937D01*
X174Y3937D01*
X175Y3937D01*
X176Y3937D01*
X177Y3937D01*
X178Y3937D01*
X179Y3937D01*
X180Y3937D01*
X181Y3937D01*
X182Y3937D01*
X183Y3937D01*
X184Y3937D01*
X185Y3937D01*
X186Y3937D01*
X187Y3937D01*
X188Y3937D01*
X189Y3937D01*
X190Y3937D01*
X191Y3937D01*
X192Y3937D01*
X193Y3937D01*
X194Y3937D01*
X195Y3937D01*
X196Y3937D01*
X197Y3937D01*
X198Y3937D01*
X199Y3937D01*
X200Y3937D01*
X201Y3937D01*
X202Y3937D01*
X203Y3937D01*
X204Y3937D01*
X205Y3937D01*
X206Y3937D01*
X207Y3937D01*
X208Y3937D01*
X209Y3937D01*
X210Y3937D01*
X211Y3937D01*
X212Y3937D01*
X213Y3937D01*
X214Y3937D01*
X215Y3937D01*
X216Y3937D01*
X217Y3937D01*
X218Y3937D01*
X219Y3937D01*
X220Y3937D01*
X221Y3937D01*
X222Y3937D01*
X223Y3937D01*
X224Y3937D01*
X225Y3937D01*
X226Y3937D01*
X227Y3937D01*
X228Y3937D01*
X229Y3937D01*
X230Y3937D01*
X231Y3937D01*
X232Y3937D01*
X233Y3937D01*
X234Y3937D01*
X235Y3937D01*
X236Y3937D01*
X237Y3937D01*
X238Y3937D01*
X239Y3937D01*
X240Y3937D01*
X241Y3937D01*
X242Y3937D01*
X243Y3937D01*
X244Y3937D01*
X245Y3937D01*
X246Y3937D01*
X247Y3937D01*
X248Y3937D01*
X249Y3937D01*
X250Y3937D01*
X251Y3937D01*
X252Y3937D01*
X253Y3937D01*
X254Y3937D01*
X255Y3937D01*
X256Y3937D01*
X257Y3937D01*
X258Y3937D01*
X259Y3937D01*
X260Y3937D01*
X261Y3937D01*
X262Y3937D01*
X263Y3937D01*
X264Y3937D01*
X265Y3937D01*
X266Y3937D01*
X267Y3937D01*
X268Y3937D01*
X269Y3937D01*
X270Y3937D01*
X271Y3937D01*
X272Y3937D01*
X273Y3937D01*
X274Y3937D01*
X275Y3937D01*
X276Y3937D01*
X277Y3937D01*
X278Y3937D01*
X279Y3937D01*
X280Y3937D01*
X281Y3937D01*
X282Y3937D01*
X283Y3937D01*
X284Y3937D01*
X285Y3937D01*
X286Y3937D01*
X287Y3937D01*
X288Y3937D01*
X289Y3937D01*
X290Y3937D01*
X291Y3937D01*
X292Y3937D01*
X293Y3937D01*
X294Y3937D01*
X295Y3937D01*
X296Y3937D01*
X297Y3937D01*
X298Y3937D01*
X299Y3937D01*
X300Y3937D01*
X301Y3937D01*
X302Y3937D01*
X303Y3937D01*
X304Y3937D01*
X305Y3937D01*
X306Y3937D01*
X307Y3937D01*
X308Y3937D01*
X309Y3937D01*
X310Y3937D01*
X311Y3937D01*
X312Y3937D01*
X313Y3937D01*
X314Y3937D01*
X315Y3937D01*
X316Y3937D01*
X317Y3937D01*
X318Y3937D01*
X319Y3937D01*
X320Y3937D01*
X321Y3937D01*
X322Y3937D01*
X323Y3937D01*
X324Y3937D01*
X325Y3937D01*
X326Y3937D01*
X327Y3937D01*
X328Y3937D01*
X329Y3937D01*
X330Y3937D01*
X331Y3937D01*
X332Y3937D01*
X333Y3937D01*
X334Y3937D01*
X335Y3937D01*
X336Y3937D01*
X337Y3937D01*
X338Y3937D01*
X339Y3937D01*
X340Y3937D01*
X341Y3937D01*
X342Y3937D01*
X343Y3937D01*
X344Y3937D01*
X345Y3937D01*
X346Y3937D01*
X347Y3937D01*
X348Y3937D01*
X349Y3937D01*
X350Y3937D01*
X351Y3937D01*
X352Y3937D01*
X353Y3937D01*
X354Y3937D01*
X355Y3937D01*
X356Y3937D01*
X357Y3937D01*
X358Y3937D01*
X359Y3937D01*
X360Y3937D01*
X361Y3937D01*
X362Y3937D01*
X363Y3937D01*
X364Y3937D01*
X365Y3937D01*
X366Y3937D01*
X367Y3937D01*
X368Y3937D01*
X369Y3937D01*
X370Y3937D01*
X371Y3937D01*
X372Y3937D01*
X373Y3937D01*
X374Y3937D01*
X375Y3937D01*
X376Y3937D01*
X377Y3937D01*
X378Y3937D01*
X379Y3937D01*
X380Y3937D01*
X381Y3937D01*
X382Y3937D01*
X383Y3937D01*
X384Y3937D01*
X385Y3937D01*
X386Y3937D01*
X387Y3937D01*
X388Y3937D01*
X389Y3937D01*
X390Y3937D01*
X391Y3937D01*
X392Y3937D01*
X393Y3937D01*
X394Y3937D01*
X395Y3937D01*
X396Y3937D01*
X397Y3937D01*
X398Y3937D01*
X399Y3937D01*
X400Y3937D01*
X401Y3937D01*
X402Y3937D01*
X403Y3937D01*
X404Y3937D01*
X405Y3937D01*
X406Y3937D01*
X407Y3937D01*
X408Y3937D01*
X409Y3937D01*
X410Y3937D01*
X411Y3937D01*
X412Y3937D01*
X413Y3937D01*
X414Y3937D01*
X415Y3937D01*
X416Y3937D01*
X417Y3937D01*
X418Y3937D01*
X419Y3937D01*
X420Y3937D01*
X421Y3937D01*
X422Y3937D01*
X423Y3937D01*
X424Y3937D01*
X425Y3937D01*
X426Y3937D01*
X427Y3937D01*
X428Y3937D01*
X429Y3937D01*
X430Y3937D01*
X431Y3937D01*
X432Y3937D01*
X433Y3937D01*
X434Y3937D01*
X435Y3937D01*
X436Y3937D01*
X437Y3937D01*
X438Y3937D01*
X439Y3937D01*
X440Y3937D01*
X441Y3937D01*
X442Y3937D01*
X443Y3937D01*
X444Y3937D01*
X445Y3937D01*
X446Y3937D01*
X447Y3937D01*
X448Y3937D01*
X449Y3937D01*
X450Y3937D01*
X451Y3937D01*
X452Y3937D01*
X453Y3937D01*
X454Y3937D01*
X455Y3937D01*
X456Y3937D01*
X457Y3937D01*
X458Y3937D01*
X459Y3937D01*
X460Y3937D01*
X461Y3937D01*
X462Y3937D01*
X463Y3937D01*
X464Y3937D01*
X465Y3937D01*
X466Y3937D01*
X467Y3937D01*
X468Y3937D01*
X469Y3937D01*
X470Y3937D01*
X471Y3937D01*
X472Y3937D01*
X473Y3937D01*
X474Y3937D01*
X475Y3937D01*
X476Y3937D01*
X477Y3937D01*
X478Y3937D01*
X479Y3937D01*
X480Y3937D01*
X481Y3937D01*
X482Y3937D01*
X483Y3937D01*
X484Y3937D01*
X485Y3937D01*
X486Y3937D01*
X487Y3937D01*
X488Y3937D01*
X489Y3937D01*
X490Y3937D01*
X491Y3937D01*
X492Y3937D01*
X493Y3937D01*
X494Y3937D01*
X495Y3937D01*
X496Y3937D01*
X497Y3937D01*
X498Y3937D01*
X499Y3937D01*
X500Y3937D01*
X501Y3937D01*
X502Y3937D01*
X503Y3937D01*
X504Y3937D01*
X505Y3937D01*
X506Y3937D01*
X507Y3937D01*
X508Y3937D01*
X509Y3937D01*
X510Y3937D01*
X511Y3937D01*
X512Y3937D01*
X513Y3937D01*
X514Y3937D01*
X515Y3937D01*
X516Y3937D01*
X517Y3937D01*
X518Y3937D01*
X519Y3937D01*
X520Y3937D01*
X521Y3937D01*
X522Y3937D01*
X523Y3937D01*
X524Y3937D01*
X525Y3937D01*
X526Y3937D01*
X527Y3937D01*
X528Y3937D01*
X529Y3937D01*
X530Y3937D01*
X531Y3937D01*
X532Y3937D01*
X533Y3937D01*
X534Y3937D01*
X535Y3937D01*
X536Y3937D01*
X537Y3937D01*
X538Y3937D01*
X539Y3937D01*
X540Y3937D01*
X541Y3937D01*
X542Y3937D01*
X543Y3937D01*
X544Y3937D01*
X545Y3937D01*
X546Y3937D01*
X547Y3937D01*
X548Y3937D01*
X549Y3937D01*
X550Y3937D01*
X551Y3937D01*
X552Y3937D01*
X553Y3937D01*
X554Y3937D01*
X555Y3937D01*
X556Y3937D01*
X557Y3937D01*
X558Y3937D01*
X559Y3937D01*
X560Y3937D01*
X561Y3937D01*
X562Y3937D01*
X563Y3937D01*
X564Y3937D01*
X565Y3937D01*
X566Y3937D01*
X567Y3937D01*
X568Y3937D01*
X569Y3937D01*
X570Y3937D01*
X571Y3937D01*
X572Y3937D01*
X573Y3937D01*
X574Y3937D01*
X575Y3937D01*
X576Y3937D01*
X577Y3937D01*
X578Y3937D01*
X579Y3937D01*
X580Y3937D01*
X581Y3937D01*
X582Y3937D01*
X583Y3937D01*
X584Y3937D01*
X585Y3937D01*
X586Y3937D01*
X587Y3937D01*
X588Y3937D01*
X589Y3937D01*
X590Y3937D01*
X591Y3937D01*
X592Y3937D01*
X593Y3937D01*
X594Y3937D01*
X595Y3937D01*
X596Y3937D01*
X597Y3937D01*
X598Y3937D01*
X599Y3937D01*
X600Y3937D01*
X601Y3937D01*
X602Y3937D01*
X603Y3937D01*
X604Y3937D01*
X605Y3937D01*
X606Y3937D01*
X607Y3937D01*
X608Y3937D01*
X609Y3937D01*
X610Y3937D01*
X611Y3937D01*
X612Y3937D01*
X613Y3937D01*
X614Y3937D01*
X615Y3937D01*
X616Y3937D01*
X617Y3937D01*
X618Y3937D01*
X619Y3937D01*
X620Y3937D01*
X621Y3937D01*
X622Y3937D01*
X623Y3937D01*
X624Y3937D01*
X625Y3937D01*
X626Y3937D01*
X627Y3937D01*
X628Y3937D01*
X629Y3937D01*
X630Y3937D01*
X631Y3937D01*
X632Y3937D01*
X633Y3937D01*
X634Y3937D01*
X635Y3937D01*
X636Y3937D01*
X637Y3937D01*
X638Y3937D01*
X639Y3937D01*
X640Y3937D01*
X641Y3937D01*
X642Y3937D01*
X643Y3937D01*
X644Y3937D01*
X645Y3937D01*
X646Y3937D01*
X647Y3937D01*
X648Y3937D01*
X649Y3937D01*
X650Y3937D01*
X651Y3937D01*
X652Y3937D01*
X653Y3937D01*
X654Y3937D01*
X655Y3937D01*
X656Y3937D01*
X657Y3937D01*
X658Y3937D01*
X659Y3937D01*
X660Y3937D01*
X661Y3937D01*
X662Y3937D01*
X663Y3937D01*
X664Y3937D01*
X665Y3937D01*
X666Y3937D01*
X667Y3937D01*
X668Y3937D01*
X669Y3937D01*
X670Y3937D01*
X671Y3937D01*
X672Y3937D01*
X673Y3937D01*
X674Y3937D01*
X675Y3937D01*
X676Y3937D01*
X677Y3937D01*
X678Y3937D01*
X679Y3937D01*
X680Y3937D01*
X681Y3937D01*
X682Y3937D01*
X683Y3937D01*
X684Y3937D01*
X685Y3937D01*
X686Y3937D01*
X687Y3937D01*
X688Y3937D01*
X689Y3937D01*
X690Y3937D01*
X691Y3937D01*
X692Y3937D01*
X693Y3937D01*
X694Y3937D01*
X695Y3937D01*
X696Y3937D01*
X697Y3937D01*
X698Y3937D01*
X699Y3937D01*
X700Y3937D01*
X701Y3937D01*
X702Y3937D01*
X703Y3937D01*
X704Y3937D01*
X705Y3937D01*
X706Y3937D01*
X707Y3937D01*
X708Y3937D01*
X709Y3937D01*
X710Y3937D01*
X711Y3937D01*
X712Y3937D01*
X713Y3937D01*
X714Y3937D01*
X715Y3937D01*
X716Y3937D01*
X717Y3937D01*
X718Y3937D01*
X719Y3937D01*
X720Y3937D01*
X721Y3937D01*
X722Y3937D01*
X723Y3937D01*
X724Y3937D01*
X725Y3937D01*
X726Y3937D01*
X727Y3937D01*
X728Y3937D01*
X729Y3937D01*
X730Y3937D01*
X731Y3937D01*
X732Y3937D01*
X733Y3937D01*
X734Y3937D01*
X735Y3937D01*
X736Y3937D01*
X737Y3937D01*
X738Y3937D01*
X739Y3937D01*
X740Y3937D01*
X741Y3937D01*
X742Y3937D01*
X743Y3937D01*
X744Y3937D01*
X745Y3937D01*
X746Y3937D01*
X747Y3937D01*
X748Y3937D01*
X749Y3937D01*
X750Y3937D01*
X751Y3937D01*
X752Y3937D01*
X753Y3937D01*
X754Y3937D01*
X755Y3937D01*
X756Y3937D01*
X757Y3937D01*
X758Y3937D01*
X759Y3937D01*
X760Y3937D01*
X761Y3937D01*
X762Y3937D01*
X763Y3937D01*
X764Y3937D01*
X765Y3937D01*
X766Y3937D01*
X767Y3937D01*
X768Y3937D01*
X769Y3937D01*
X770Y3937D01*
X771Y3937D01*
X772Y3937D01*
X773Y3937D01*
X774Y3937D01*
X775Y3937D01*
X776Y3937D01*
X777Y3937D01*
X778Y3937D01*
X779Y3937D01*
X780Y3937D01*
X781Y3937D01*
X782Y3937D01*
X783Y3937D01*
X784Y3937D01*
X785Y3937D01*
X786Y3937D01*
X787Y3937D01*
X788Y3937D01*
X789Y3937D01*
X790Y3937D01*
X791Y3937D01*
X792Y3937D01*
X793Y3937D01*
X794Y3937D01*
X795Y3937D01*
X796Y3937D01*
X797Y3937D01*
X798Y3937D01*
X799Y3937D01*
X800Y3937D01*
X801Y3937D01*
X802Y3937D01*
X803Y3937D01*
X804Y3937D01*
X805Y3937D01*
X806Y3937D01*
X807Y3937D01*
X808Y3937D01*
X809Y3937D01*
X810Y3937D01*
X811Y3937D01*
X812Y3937D01*
X813Y3937D01*
X814Y3937D01*
X815Y3937D01*
X816Y3937D01*
X817Y3937D01*
X818Y3937D01*
X819Y3937D01*
X820Y3937D01*
X821Y3937D01*
X822Y3937D01*
X823Y3937D01*
X824Y3937D01*
X825Y3937D01*
X826Y3937D01*
X827Y3937D01*
X828Y3937D01*
X829Y3937D01*
X830Y3937D01*
X831Y3937D01*
X832Y3937D01*
X833Y3937D01*
X834Y3937D01*
X835Y3937D01*
X836Y3937D01*
X837Y3937D01*
X838Y3937D01*
X839Y3937D01*
X840Y3937D01*
X841Y3937D01*
X842Y3937D01*
X843Y3937D01*
X844Y3937D01*
X845Y3937D01*
X846Y3937D01*
X847Y3937D01*
X848Y3937D01*
X849Y3937D01*
X850Y3937D01*
X851Y3937D01*
X852Y3937D01*
X853Y3937D01*
X854Y3937D01*
X855Y3937D01*
X856Y3937D01*
X857Y3937D01*
X858Y3937D01*
X859Y3937D01*
X860Y3937D01*
X861Y3937D01*
X862Y3937D01*
X863Y3937D01*
X864Y3937D01*
X865Y3937D01*
X866Y3937D01*
X867Y3937D01*
X868Y3937D01*
X869Y3937D01*
X870Y3937D01*
X871Y3937D01*
X872Y3937D01*
X873Y3937D01*
X874Y3937D01*
X875Y3937D01*
X876Y3937D01*
X877Y3937D01*
X878Y3937D01*
X879Y3937D01*
X880Y3937D01*
X881Y3937D01*
X882Y3937D01*
X883Y3937D01*
X884Y3937D01*
X885Y3937D01*
X886Y3937D01*
X887Y3937D01*
X888Y3937D01*
X889Y3937D01*
X890Y3937D01*
X891Y3937D01*
X892Y3937D01*
X893Y3937D01*
X894Y3937D01*
X895Y3937D01*
X896Y3937D01*
X897Y3937D01*
X898Y3937D01*
X899Y3937D01*
X900Y3937D01*
X901Y3937D01*
X902Y3937D01*
X903Y3937D01*
X904Y3937D01*
X905Y3937D01*
X906Y3937D01*
X907Y3937D01*
X908Y3937D01*
X909Y3937D01*
X910Y3937D01*
X911Y3937D01*
X912Y3937D01*
X913Y3937D01*
X914Y3937D01*
X915Y3937D01*
X916Y3937D01*
X917Y3937D01*
X918Y3937D01*
X919Y3937D01*
X920Y3937D01*
X921Y3937D01*
X922Y3937D01*
X923Y3937D01*
X924Y3937D01*
X925Y3937D01*
X926Y3937D01*
X927Y3937D01*
X928Y3937D01*
X929Y3937D01*
X930Y3937D01*
X931Y3937D01*
X932Y3937D01*
X933Y3937D01*
X934Y3937D01*
X935Y3937D01*
X936Y3937D01*
X937Y3937D01*
X938Y3937D01*
X939Y3937D01*
X940Y3937D01*
X941Y3937D01*
X942Y3937D01*
X943Y3937D01*
X944Y3937D01*
X945Y3937D01*
X946Y3937D01*
X947Y3937D01*
X948Y3937D01*
X949Y3937D01*
X950Y3937D01*
X951Y3937D01*
X952Y3937D01*
X953Y3937D01*
X954Y3937D01*
X955Y3937D01*
X956Y3937D01*
X957Y3937D01*
X958Y3937D01*
X959Y3937D01*
X960Y3937D01*
X961Y3937D01*
X962Y3937D01*
X963Y3937D01*
X964Y3937D01*
X965Y3937D01*
X966Y3937D01*
X967Y3937D01*
X968Y3937D01*
X969Y3937D01*
X970Y3937D01*
X971Y3937D01*
X972Y3937D01*
X973Y3937D01*
X974Y3937D01*
X975Y3937D01*
X976Y3937D01*
X977Y3937D01*
X978Y3937D01*
X979Y3937D01*
X980Y3937D01*
X981Y3937D01*
X982Y3937D01*
X983Y3937D01*
X984Y3937D01*
X985Y3937D01*
X986Y3937D01*
X987Y3937D01*
X988Y3937D01*
X989Y3937D01*
X990Y3937D01*
X991Y3937D01*
X992Y3937D01*
X993Y3937D01*
X994Y3937D01*
X995Y3937D01*
X996Y3937D01*
X997Y3937D01*
X998Y3937D01*
X999Y3937D01*
X1000Y3937D01*
X1001Y3937D01*
X1002Y3937D01*
X1003Y3937D01*
X1004Y3937D01*
X1005Y3937D01*
X1006Y3937D01*
X1007Y3937D01*
X1008Y3937D01*
X1009Y3937D01*
X1010Y3937D01*
X1011Y3937D01*
X1012Y3937D01*
X1013Y3937D01*
X1014Y3937D01*
X1015Y3937D01*
X1016Y3937D01*
X1017Y3937D01*
X1018Y3937D01*
X1019Y3937D01*
X1020Y3937D01*
X1021Y3937D01*
X1022Y3937D01*
X1023Y3937D01*
X1024Y3937D01*
X1025Y3937D01*
X1026Y3937D01*
X1027Y3937D01*
X1028Y3937D01*
X1029Y3937D01*
X1030Y3937D01*
X1031Y3937D01*
X1032Y3937D01*
X1033Y3937D01*
X1034Y3937D01*
X1035Y3937D01*
X1036Y3937D01*
X1037Y3937D01*
X1038Y3937D01*
X1039Y3937D01*
X1040Y3937D01*
X1041Y3937D01*
X1042Y3937D01*
X1043Y3937D01*
X1044Y3937D01*
X1045Y3937D01*
X1046Y3937D01*
X1047Y3937D01*
X1048Y3937D01*
X1049Y3937D01*
X1050Y3937D01*
X1051Y3937D01*
X1052Y3937D01*
X1053Y3937D01*
X1054Y3937D01*
X1055Y3937D01*
X1056Y3937D01*
X1057Y3937D01*
X1058Y3937D01*
X1059Y3937D01*
X1060Y3937D01*
X1061Y3937D01*
X1062Y3937D01*
X1063Y3937D01*
X1064Y3937D01*
X1065Y3937D01*
X1066Y3937D01*
X1067Y3937D01*
X1068Y3937D01*
X1069Y3937D01*
X1070Y3937D01*
X1071Y3937D01*
X1072Y3937D01*
X1073Y3937D01*
X1074Y3937D01*
X1075Y3937D01*
X1076Y3937D01*
X1077Y3937D01*
X1078Y3937D01*
X1079Y3937D01*
X1080Y3937D01*
X1081Y3937D01*
X1082Y3937D01*
X1083Y3937D01*
X1084Y3937D01*
X1085Y3937D01*
X1086Y3937D01*
X1087Y3937D01*
X1088Y3937D01*
X1089Y3937D01*
X1090Y3937D01*
X1091Y3937D01*
X1092Y3937D01*
X1093Y3937D01*
X1094Y3937D01*
X1095Y3937D01*
X1096Y3937D01*
X1097Y3937D01*
X1098Y3937D01*
X1099Y3937D01*
X1100Y3937D01*
X1101Y3937D01*
X1102Y3937D01*
X1103Y3937D01*
X1104Y3937D01*
X1105Y3937D01*
X1106Y3937D01*
X1107Y3937D01*
X1108Y3937D01*
X1109Y3937D01*
X1110Y3937D01*
X1111Y3937D01*
X1112Y3937D01*
X1113Y3937D01*
X1114Y3937D01*
X1115Y3937D01*
X1116Y3937D01*
X1117Y3937D01*
X1118Y3937D01*
X1119Y3937D01*
X1120Y3937D01*
X1121Y3937D01*
X1122Y3937D01*
X1123Y3937D01*
X1124Y3937D01*
X1125Y3937D01*
X1126Y3937D01*
X1127Y3937D01*
X1128Y3937D01*
X1129Y3937D01*
X1130Y3937D01*
X1131Y3937D01*
X1132Y3937D01*
X1133Y3937D01*
X1134Y3937D01*
X1135Y3937D01*
X1136Y3937D01*
X1137Y3937D01*
X1138Y3937D01*
X1139Y3937D01*
X1140Y3937D01*
X1141Y3937D01*
X1142Y3937D01*
X1143Y3937D01*
X1144Y3937D01*
X1145Y3937D01*
X1146Y3937D01*
X1147Y3937D01*
X1148Y3937D01*
X1149Y3937D01*
X1150Y3937D01*
X1151Y3937D01*
X1152Y3937D01*
X1153Y3937D01*
X1154Y3937D01*
X1155Y3937D01*
X1156Y3937D01*
X1157Y3937D01*
X1158Y3937D01*
X1159Y3937D01*
X1160Y3937D01*
X1161Y3937D01*
X1162Y3937D01*
X1163Y3937D01*
X1164Y3937D01*
X1165Y3937D01*
X1166Y3937D01*
X1167Y3937D01*
X1168Y3937D01*
X1169Y3937D01*
X1170Y3937D01*
X1171Y3937D01*
X1172Y3937D01*
X1173Y3937D01*
X1174Y3937D01*
X1175Y3937D01*
X1176Y3937D01*
X1177Y3937D01*
X1178Y3937D01*
X1179Y3937D01*
X1180Y3937D01*
X1181Y3937D01*
X1182Y3937D01*
X1183Y3937D01*
X1184Y3937D01*
X1185Y3937D01*
X1186Y3937D01*
X1187Y3937D01*
X1188Y3937D01*
X1189Y3937D01*
X1190Y3937D01*
X1191Y3937D01*
X1192Y3937D01*
X1193Y3937D01*
X1194Y3937D01*
X1195Y3937D01*
X1196Y3937D01*
X1197Y3937D01*
X1198Y3937D01*
X1199Y3937D01*
X1200Y3937D01*
X1201Y3937D01*
X1202Y3937D01*
X1203Y3937D01*
X1204Y3937D01*
X1205Y3937D01*
X1206Y3937D01*
X1207Y3937D01*
X1208Y3937D01*
X1209Y3937D01*
X1210Y3937D01*
X1211Y3937D01*
X1212Y3937D01*
X1213Y3937D01*
X1214Y3937D01*
X1215Y3937D01*
X1216Y3937D01*
X1217Y3937D01*
X1218Y3937D01*
X1219Y3937D01*
X1220Y3937D01*
X1221Y3937D01*
X1222Y3937D01*
X1223Y3937D01*
X1224Y3937D01*
X1225Y3937D01*
X1226Y3937D01*
X1227Y3937D01*
X1228Y3937D01*
X1229Y3937D01*
X1230Y3937D01*
X1231Y3937D01*
X1232Y3937D01*
X1233Y3937D01*
X1234Y3937D01*
X1235Y3937D01*
X1236Y3937D01*
X1237Y3937D01*
X1238Y3937D01*
X1239Y3937D01*
X1240Y3937D01*
X1241Y3937D01*
X1242Y3937D01*
X1243Y3937D01*
X1244Y3937D01*
X1245Y3937D01*
X1246Y3937D01*
X1247Y3937D01*
X1248Y3937D01*
X1249Y3937D01*
X1250Y3937D01*
X1251Y3937D01*
X1252Y3937D01*
X1253Y3937D01*
X1254Y3937D01*
X1255Y3937D01*
X1256Y3937D01*
X1257Y3937D01*
X1258Y3937D01*
X1259Y3937D01*
X1260Y3937D01*
X1261Y3937D01*
X1262Y3937D01*
X1263Y3937D01*
X1264Y3937D01*
X1265Y3937D01*
X1266Y3937D01*
X1267Y3937D01*
X1268Y3937D01*
X1269Y3937D01*
X1270Y3937D01*
X1271Y3937D01*
X1272Y3937D01*
X1273Y3937D01*
X1274Y3937D01*
X1275Y3937D01*
X1276Y3937D01*
X1277Y3937D01*
X1278Y3937D01*
X1279Y3937D01*
X1280Y3937D01*
X1281Y3937D01*
X1282Y3937D01*
X1283Y3937D01*
X1284Y3937D01*
X1285Y3937D01*
X1286Y3937D01*
X1287Y3937D01*
X1288Y3937D01*
X1289Y3937D01*
X1290Y3937D01*
X1291Y3937D01*
X1292Y3937D01*
X1293Y3937D01*
X1294Y3937D01*
X1295Y3937D01*
X1296Y3937D01*
X1297Y3937D01*
X1298Y3937D01*
X1299Y3937D01*
X1300Y3937D01*
X1301Y3937D01*
X1302Y3937D01*
X1303Y3937D01*
X1304Y3937D01*
X1305Y3937D01*
X1306Y3937D01*
X1307Y3937D01*
X1308Y3937D01*
X1309Y3937D01*
X1310Y3937D01*
X1311Y3937D01*
X1312Y3937D01*
X1313Y3937D01*
X1314Y3937D01*
X1315Y3937D01*
X1316Y3937D01*
X1317Y3937D01*
X1318Y3937D01*
X1319Y3937D01*
X1320Y3937D01*
X1321Y3937D01*
X1322Y3937D01*
X1323Y3937D01*
X1324Y3937D01*
X1325Y3937D01*
X1326Y3937D01*
X1327Y3937D01*
X1328Y3937D01*
X1329Y3937D01*
X1330Y3937D01*
X1331Y3937D01*
X1332Y3937D01*
X1333Y3937D01*
X1334Y3937D01*
X1335Y3937D01*
X1336Y3937D01*
X1337Y3937D01*
X1338Y3937D01*
X1339Y3937D01*
X1340Y3937D01*
X1341Y3937D01*
X1342Y3937D01*
X1343Y3937D01*
X1344Y3937D01*
X1345Y3937D01*
X1346Y3937D01*
X1347Y3937D01*
X1348Y3937D01*
X1349Y3937D01*
X1350Y3937D01*
X1351Y3937D01*
X1352Y3937D01*
X1353Y3937D01*
X1354Y3937D01*
X1355Y3937D01*
X1356Y3937D01*
X1357Y3937D01*
X1358Y3937D01*
X1359Y3937D01*
X1360Y3937D01*
X1361Y3937D01*
X1362Y3937D01*
X1363Y3937D01*
X1364Y3937D01*
X1365Y3937D01*
X1366Y3937D01*
X1367Y3937D01*
X1368Y3937D01*
X1369Y3937D01*
X1370Y3937D01*
X1371Y3937D01*
X1372Y3937D01*
X1373Y3937D01*
X1374Y3937D01*
X1375Y3937D01*
X1376Y3937D01*
X1377Y3937D01*
X1378Y3937D01*
X1379Y3937D01*
X1380Y3937D01*
X1381Y3937D01*
X1382Y3937D01*
X1383Y3937D01*
X1384Y3937D01*
X1385Y3937D01*
X1386Y3937D01*
X1387Y3937D01*
X1388Y3937D01*
X1389Y3937D01*
X1390Y3937D01*
X1391Y3937D01*
X1392Y3937D01*
X1393Y3937D01*
X1394Y3937D01*
X1395Y3937D01*
X1396Y3937D01*
X1397Y3937D01*
X1398Y3937D01*
X1399Y3937D01*
X1400Y3937D01*
X1401Y3937D01*
X1402Y3937D01*
X1403Y3937D01*
X1404Y3937D01*
X1405Y3937D01*
X1406Y3937D01*
X1407Y3937D01*
X1408Y3937D01*
X1409Y3937D01*
X1410Y3937D01*
X1411Y3937D01*
X1412Y3937D01*
X1413Y3937D01*
X1414Y3937D01*
X1415Y3937D01*
X1416Y3937D01*
X1417Y3937D01*
X1418Y3937D01*
X1419Y3937D01*
X1420Y3937D01*
X1421Y3937D01*
X1422Y3937D01*
X1423Y3937D01*
X1424Y3937D01*
X1425Y3937D01*
X1426Y3937D01*
X1427Y3937D01*
X1428Y3937D01*
X1429Y3937D01*
X1430Y3937D01*
X1431Y3937D01*
X1432Y3937D01*
X1433Y3937D01*
X1434Y3937D01*
X1435Y3937D01*
X1436Y3937D01*
X1437Y3937D01*
X1438Y3937D01*
X1439Y3937D01*
X1440Y3937D01*
X1441Y3937D01*
X1442Y3937D01*
X1443Y3937D01*
X1444Y3937D01*
X1445Y3937D01*
X1446Y3937D01*
X1447Y3937D01*
X1448Y3937D01*
X1449Y3937D01*
X1450Y3937D01*
X1451Y3937D01*
X1452Y3937D01*
X1453Y3937D01*
X1454Y3937D01*
X1455Y3937D01*
X1456Y3937D01*
X1457Y3937D01*
X1458Y3937D01*
X1459Y3937D01*
X1460Y3937D01*
X1461Y3937D01*
X1462Y3937D01*
X1463Y3937D01*
X1464Y3937D01*
X1465Y3937D01*
X1466Y3937D01*
X1467Y3937D01*
X1468Y3937D01*
X1469Y3937D01*
X1470Y3937D01*
X1471Y3937D01*
X1472Y3937D01*
X1473Y3937D01*
X1474Y3937D01*
X1475Y3937D01*
X1476Y3937D01*
X1477Y3937D01*
X1478Y3937D01*
X1479Y3937D01*
X1480Y3937D01*
X1481Y3937D01*
X1482Y3937D01*
X1483Y3937D01*
X1484Y3937D01*
X1485Y3937D01*
X1486Y3937D01*
X1487Y3937D01*
X1488Y3937D01*
X1489Y3937D01*
X1490Y3937D01*
X1491Y3937D01*
X1492Y3937D01*
X1493Y3937D01*
X1494Y3937D01*
X1495Y3937D01*
X1496Y3937D01*
X1497Y3937D01*
X1498Y3937D01*
X1499Y3937D01*
X1500Y3937D01*
X1501Y3937D01*
X1502Y3937D01*
X1503Y3937D01*
X1504Y3937D01*
X1505Y3937D01*
X1506Y3937D01*
X1507Y3937D01*
X1508Y3937D01*
X1509Y3937D01*
X1510Y3937D01*
X1511Y3937D01*
X1512Y3937D01*
X1513Y3937D01*
X1514Y3937D01*
X1515Y3937D01*
X1516Y3937D01*
X1517Y3937D01*
X1518Y3937D01*
X1519Y3937D01*
X1520Y3937D01*
X1521Y3937D01*
X1522Y3937D01*
X1523Y3937D01*
X1524Y3937D01*
X1525Y3937D01*
X1526Y3937D01*
X1527Y3937D01*
X1528Y3937D01*
X1529Y3937D01*
X1530Y3937D01*
X1531Y3937D01*
X1532Y3937D01*
X1533Y3937D01*
X1534Y3937D01*
X1535Y3937D01*
X1536Y3937D01*
X1537Y3937D01*
X1538Y3937D01*
X1539Y3937D01*
X1540Y3937D01*
X1541Y3937D01*
X1542Y3937D01*
X1543Y3937D01*
X1544Y3937D01*
X1545Y3937D01*
X1546Y3937D01*
X1547Y3937D01*
X1548Y3937D01*
X1549Y3937D01*
X1550Y3937D01*
X1551Y3937D01*
X1552Y3937D01*
X1553Y3937D01*
X1554Y3937D01*
X1555Y3937D01*
X1556Y3937D01*
X1557Y3937D01*
X1558Y3937D01*
X1559Y3937D01*
X1560Y3937D01*
X1561Y3937D01*
X1562Y3937D01*
X1563Y3937D01*
X1564Y3937D01*
X1565Y3937D01*
X1566Y3937D01*
X1567Y3937D01*
X1568Y3937D01*
X1569Y3937D01*
X1570Y3937D01*
X1571Y3937D01*
X1572Y3937D01*
X1573Y3937D01*
X1574Y3937D01*
X1575Y3937D01*
X1576Y3937D01*
X1577Y3937D01*
X1578Y3937D01*
X1579Y3937D01*
X1580Y3937D01*
X1581Y3937D01*
X1582Y3937D01*
X1583Y3937D01*
X1584Y3937D01*
X1585Y3937D01*
X1586Y3937D01*
X1587Y3937D01*
X1588Y3937D01*
X1589Y3937D01*
X1590Y3937D01*
X1591Y3937D01*
X1592Y3937D01*
X1593Y3937D01*
X1594Y3937D01*
X1595Y3937D01*
X1596Y3937D01*
X1597Y3937D01*
X1598Y3937D01*
X1599Y3937D01*
X1600Y3937D01*
X1601Y3937D01*
X1602Y3937D01*
X1603Y3937D01*
X1604Y3937D01*
X1605Y3937D01*
X1606Y3937D01*
X1607Y3937D01*
X1608Y3937D01*
X1609Y3937D01*
X1610Y3937D01*
X1611Y3937D01*
X1612Y3937D01*
X1613Y3937D01*
X1614Y3937D01*
X1615Y3937D01*
X1616Y3937D01*
X1617Y3937D01*
X1618Y3937D01*
X1619Y3937D01*
X1620Y3937D01*
X1621Y3937D01*
X1622Y3937D01*
X1623Y3937D01*
X1624Y3937D01*
X1625Y3937D01*
X1626Y3937D01*
X1627Y3937D01*
X1628Y3937D01*
X1629Y3937D01*
X1630Y3937D01*
X1631Y3937D01*
X1632Y3937D01*
X1633Y3937D01*
X1634Y3937D01*
X1635Y3937D01*
X1636Y3937D01*
X1637Y3937D01*
X1638Y3937D01*
X1639Y3937D01*
X1640Y3937D01*
X1641Y3937D01*
X1642Y3937D01*
X1643Y3937D01*
X1644Y3937D01*
X1645Y3937D01*
X1646Y3937D01*
X1647Y3937D01*
X1648Y3937D01*
X1649Y3937D01*
X1650Y3937D01*
X1651Y3937D01*
X1652Y3937D01*
X1653Y3937D01*
X1654Y3937D01*
X1655Y3937D01*
X1656Y3937D01*
X1657Y3937D01*
X1658Y3937D01*
X1659Y3937D01*
X1660Y3937D01*
X1661Y3937D01*
X1662Y3937D01*
X1663Y3937D01*
X1664Y3937D01*
X1665Y3937D01*
X1666Y3937D01*
X1667Y3937D01*
X1668Y3937D01*
X1669Y3937D01*
X1670Y3937D01*
X1671Y3937D01*
X1672Y3937D01*
X1673Y3937D01*
X1674Y3937D01*
X1675Y3937D01*
X1676Y3937D01*
X1677Y3937D01*
X1678Y3937D01*
X1679Y3937D01*
X1680Y3937D01*
X1681Y3937D01*
X1682Y3937D01*
X1683Y3937D01*
X1684Y3937D01*
X1685Y3937D01*
X1686Y3937D01*
X1687Y3937D01*
X1688Y3937D01*
X1689Y3937D01*
X1690Y3937D01*
X1691Y3937D01*
X1692Y3937D01*
X1693Y3937D01*
X1694Y3937D01*
X1695Y3937D01*
X1696Y3937D01*
X1697Y3937D01*
X1698Y3937D01*
X1699Y3937D01*
X1700Y3937D01*
X1701Y3937D01*
X1702Y3937D01*
X1703Y3937D01*
X1704Y3937D01*
X1705Y3937D01*
X1706Y3937D01*
X1707Y3937D01*
X1708Y3937D01*
X1709Y3937D01*
X1710Y3937D01*
X1711Y3937D01*
X1712Y3937D01*
X1713Y3937D01*
X1714Y3937D01*
X1715Y3937D01*
X1716Y3937D01*
X1717Y3937D01*
X1718Y3937D01*
X1719Y3937D01*
X1720Y3937D01*
X1721Y3937D01*
X1722Y3937D01*
X1723Y3937D01*
X1724Y3937D01*
X1725Y3937D01*
X1726Y3937D01*
X1727Y3937D01*
X1728Y3937D01*
X1729Y3937D01*
X1730Y3937D01*
X1731Y3937D01*
X1732Y3937D01*
X1733Y3937D01*
X1734Y3937D01*
X1735Y3937D01*
X1736Y3937D01*
X1737Y3937D01*
X1738Y3937D01*
X1739Y3937D01*
X1740Y3937D01*
X1741Y3937D01*
X1742Y3937D01*
X1743Y3937D01*
X1744Y3937D01*
X1745Y3937D01*
X1746Y3937D01*
X1747Y3937D01*
X1748Y3937D01*
X1749Y3937D01*
X1750Y3937D01*
X1751Y3937D01*
X1752Y3937D01*
X1753Y3937D01*
X1754Y3937D01*
X1755Y3937D01*
X1756Y3937D01*
X1757Y3937D01*
X1758Y3937D01*
X1759Y3937D01*
X1760Y3937D01*
X1761Y3937D01*
X1762Y3937D01*
X1763Y3937D01*
X1764Y3937D01*
X1765Y3937D01*
X1766Y3937D01*
X1767Y3937D01*
X1768Y3937D01*
X1769Y3937D01*
X1770Y3937D01*
X1771Y3937D01*
X1772Y3937D01*
X1773Y3937D01*
X1774Y3937D01*
X1775Y3937D01*
X1776Y3937D01*
X1777Y3937D01*
X1778Y3937D01*
X1779Y3937D01*
X1780Y3937D01*
X1781Y3937D01*
X1782Y3937D01*
X1783Y3937D01*
X1784Y3937D01*
X1785Y3937D01*
X1786Y3937D01*
X1787Y3937D01*
X1788Y3937D01*
X1789Y3937D01*
X1790Y3937D01*
X1791Y3937D01*
X1792Y3937D01*
X1793Y3937D01*
X1794Y3937D01*
X1795Y3937D01*
X1796Y3937D01*
X1797Y3937D01*
X1798Y3937D01*
X1799Y3937D01*
X1800Y3937D01*
X1801Y3937D01*
X1802Y3937D01*
X1803Y3937D01*
X1804Y3937D01*
X1805Y3937D01*
X1806Y3937D01*
X1807Y3937D01*
X1808Y3937D01*
X1809Y3937D01*
X1810Y3937D01*
X1811Y3937D01*
X1812Y3937D01*
X1813Y3937D01*
X1814Y3937D01*
X1815Y3937D01*
X1816Y3937D01*
X1817Y3937D01*
X1818Y3937D01*
X1819Y3937D01*
X1820Y3937D01*
X1821Y3937D01*
X1822Y3937D01*
X1823Y3937D01*
X1824Y3937D01*
X1825Y3937D01*
X1826Y3937D01*
X1827Y3937D01*
X1828Y3937D01*
X1829Y3937D01*
X1830Y3937D01*
X1831Y3937D01*
X1832Y3937D01*
X1833Y3937D01*
X1834Y3937D01*
X1835Y3937D01*
X1836Y3937D01*
X1837Y3937D01*
X1838Y3937D01*
X1839Y3937D01*
X1840Y3937D01*
X1841Y3937D01*
X1842Y3937D01*
X1843Y3937D01*
X1844Y3937D01*
X1845Y3937D01*
X1846Y3937D01*
X1847Y3937D01*
X1848Y3937D01*
X1849Y3937D01*
X1850Y3937D01*
X1851Y3937D01*
X1852Y3937D01*
X1853Y3937D01*
X1854Y3937D01*
X1855Y3937D01*
X1856Y3937D01*
X1857Y3937D01*
X1858Y3937D01*
X1859Y3937D01*
X1860Y3937D01*
X1861Y3937D01*
X1862Y3937D01*
X1863Y3937D01*
X1864Y3937D01*
X1865Y3937D01*
X1866Y3937D01*
X1867Y3937D01*
X1868Y3937D01*
X1869Y3937D01*
X1870Y3937D01*
X1871Y3937D01*
X1872Y3937D01*
X1873Y3937D01*
X1874Y3937D01*
X1875Y3937D01*
X1876Y3937D01*
X1877Y3937D01*
X1878Y3937D01*
X1879Y3937D01*
X1880Y3937D01*
X1881Y3937D01*
X1882Y3937D01*
X1883Y3937D01*
X1884Y3937D01*
X1885Y3937D01*
X1886Y3937D01*
X1887Y3937D01*
X1888Y3937D01*
X1889Y3937D01*
X1890Y3937D01*
X1891Y3937D01*
X1892Y3937D01*
X1893Y3937D01*
X1894Y3937D01*
X1895Y3937D01*
X1896Y3937D01*
X1897Y3937D01*
X1898Y3937D01*
X1899Y3937D01*
X1900Y3937D01*
X1901Y3937D01*
X1902Y3937D01*
X1903Y3937D01*
X1904Y3937D01*
X1905Y3937D01*
X1906Y3937D01*
X1907Y3937D01*
X1908Y3936D01*
X1909Y3936D01*
X1910Y3936D01*
X1911Y3936D01*
X1912Y3936D01*
X1913Y3936D01*
X1914Y3935D01*
X1915Y3935D01*
X1916Y3935D01*
X1917Y3935D01*
X1918Y3935D01*
X1919Y3934D01*
X1920Y3934D01*
X1921Y3934D01*
X1922Y3933D01*
X1923Y3933D01*
X1924Y3933D01*
X1925Y3933D01*
X1926Y3932D01*
X1927Y3932D01*
X1928Y3931D01*
X1929Y3931D01*
X1930Y3930D01*
X1931Y3930D01*
X1932Y3930D01*
X1933Y3929D01*
X1934Y3929D01*
X1935Y3928D01*
X1936Y3928D01*
X1937Y3927D01*
X1938Y3926D01*
X1939Y3926D01*
X1940Y3925D01*
X1941Y3924D01*
X1942Y3924D01*
X1943Y3923D01*
X1944Y3922D01*
X1945Y3922D01*
X1946Y3921D01*
X1947Y3920D01*
X1948Y3919D01*
X1949Y3918D01*
X1950Y3917D01*
X1951Y3916D01*
X1952Y3915D01*
X1953Y3914D01*
X1954Y3913D01*
X1955Y3912D01*
X1956Y3911D01*
X1956Y3910D01*
X1957Y3909D01*
X1958Y3908D01*
X1958Y3907D01*
X1959Y3906D01*
X1960Y3905D01*
X1960Y3904D01*
X1961Y3903D01*
X1961Y3902D01*
X1962Y3901D01*
X1962Y3900D01*
X1963Y3899D01*
X1963Y3897D01*
X1964Y3896D01*
X1964Y3895D01*
X1965Y3894D01*
X1965Y3891D01*
X1966Y3890D01*
X1966Y3886D01*
X1967Y3885D01*
X1967Y53D01*
X1966Y52D01*
X1966Y48D01*
X1965Y47D01*
X1965Y44D01*
X1964Y43D01*
X1964Y42D01*
X1963Y41D01*
X1963Y39D01*
X1962Y38D01*
X1962Y37D01*
X1961Y36D01*
X1961Y35D01*
X1960Y34D01*
X1960Y33D01*
X1959Y32D01*
X1958Y31D01*
X1958Y30D01*
X1957Y29D01*
X1956Y28D01*
X1956Y27D01*
X1955Y26D01*
X1954Y25D01*
X1953Y24D01*
X1952Y23D01*
X1951Y22D01*
X1950Y21D01*
X1949Y20D01*
X1948Y19D01*
X1947Y18D01*
X1946Y17D01*
X1945Y16D01*
X1944Y16D01*
X1943Y15D01*
X1942Y14D01*
X1941Y14D01*
X1940Y13D01*
X1939Y12D01*
X1938Y12D01*
X1937Y11D01*
X1936Y10D01*
X1935Y10D01*
X1934Y9D01*
X1933Y9D01*
X1932Y8D01*
X1931Y8D01*
X1930Y8D01*
X1929Y7D01*
X1928Y7D01*
X1927Y6D01*
X1926Y6D01*
X1925Y6D01*
X1924Y5D01*
X1923Y5D01*
X1922Y5D01*
X1921Y4D01*
X1920Y4D01*
X1919Y4D01*
X1918Y3D01*
X1917Y3D01*
X1916Y3D01*
X1915Y3D01*
X1914Y3D01*
X1913Y2D01*
X1912Y2D01*
X1911Y2D01*
X1910Y2D01*
X1909Y2D01*
X1908Y2D01*
X1907Y1D01*
X1906Y1D01*
X1905Y1D01*
X1904Y1D01*
X1903Y1D01*
X1902Y1D01*
X1901Y1D01*
X1900Y1D01*
X1899Y1D01*
X1898Y1D01*
X1897Y1D01*
X1896Y1D01*
X1895Y1D01*
X1894Y1D01*
X1893Y1D01*
X1892Y1D01*
X1891Y1D01*
X1890Y1D01*
X1889Y1D01*
X1888Y1D01*
X1887Y1D01*
X1886Y1D01*
X1885Y1D01*
X1884Y1D01*
X1883Y1D01*
X1882Y1D01*
X1881Y1D01*
X1880Y1D01*
X1879Y1D01*
X1878Y1D01*
X1877Y1D01*
X1876Y1D01*
X1875Y1D01*
X1874Y1D01*
X1873Y1D01*
X1872Y1D01*
X1871Y1D01*
X1870Y1D01*
X1869Y1D01*
X1868Y1D01*
X1867Y1D01*
X1866Y1D01*
X1865Y1D01*
X1864Y1D01*
X1863Y1D01*
X1862Y1D01*
X1861Y1D01*
X1860Y1D01*
X1859Y1D01*
X1858Y1D01*
X1857Y1D01*
X1856Y1D01*
X1855Y1D01*
X1854Y1D01*
X1853Y1D01*
X1852Y1D01*
X1851Y1D01*
X1850Y1D01*
X1849Y1D01*
X1848Y1D01*
X1847Y1D01*
X1846Y1D01*
X1845Y1D01*
X1844Y1D01*
X1843Y1D01*
X1842Y1D01*
X1841Y1D01*
X1840Y1D01*
X1839Y1D01*
X1838Y1D01*
X1837Y1D01*
X1836Y1D01*
X1835Y1D01*
X1834Y1D01*
X1833Y1D01*
X1832Y1D01*
X1831Y1D01*
X1830Y1D01*
X1829Y1D01*
X1828Y1D01*
X1827Y1D01*
X1826Y1D01*
X1825Y1D01*
X1824Y1D01*
X1823Y1D01*
X1822Y1D01*
X1821Y1D01*
X1820Y1D01*
X1819Y1D01*
X1818Y1D01*
X1817Y1D01*
X1816Y1D01*
X1815Y1D01*
X1814Y1D01*
X1813Y1D01*
X1812Y1D01*
X1811Y1D01*
X1810Y1D01*
X1809Y1D01*
X1808Y1D01*
X1807Y1D01*
X1806Y1D01*
X1805Y1D01*
X1804Y1D01*
X1803Y1D01*
X1802Y1D01*
X1801Y1D01*
X1800Y1D01*
X1799Y1D01*
X1798Y1D01*
X1797Y1D01*
X1796Y1D01*
X1795Y1D01*
X1794Y1D01*
X1793Y1D01*
X1792Y1D01*
X1791Y1D01*
X1790Y1D01*
X1789Y1D01*
X1788Y1D01*
X1787Y1D01*
X1786Y1D01*
X1785Y1D01*
X1784Y1D01*
X1783Y1D01*
X1782Y1D01*
X1781Y1D01*
X1780Y1D01*
X1779Y1D01*
X1778Y1D01*
X1777Y1D01*
X1776Y1D01*
X1775Y1D01*
X1774Y1D01*
X1773Y1D01*
X1772Y1D01*
X1771Y1D01*
X1770Y1D01*
X1769Y1D01*
X1768Y1D01*
X1767Y1D01*
X1766Y1D01*
X1765Y1D01*
X1764Y1D01*
X1763Y1D01*
X1762Y1D01*
X1761Y1D01*
X1760Y1D01*
X1759Y1D01*
X1758Y1D01*
X1757Y1D01*
X1756Y1D01*
X1755Y1D01*
X1754Y1D01*
X1753Y1D01*
X1752Y1D01*
X1751Y1D01*
X1750Y1D01*
X1749Y1D01*
X1748Y1D01*
X1747Y1D01*
X1746Y1D01*
X1745Y1D01*
X1744Y1D01*
X1743Y1D01*
X1742Y1D01*
X1741Y1D01*
X1740Y1D01*
X1739Y1D01*
X1738Y1D01*
X1737Y1D01*
X1736Y1D01*
X1735Y1D01*
X1734Y1D01*
X1733Y1D01*
X1732Y1D01*
X1731Y1D01*
X1730Y1D01*
X1729Y1D01*
X1728Y1D01*
X1727Y1D01*
X1726Y1D01*
X1725Y1D01*
X1724Y1D01*
X1723Y1D01*
X1722Y1D01*
X1721Y1D01*
X1720Y1D01*
X1719Y1D01*
X1718Y1D01*
X1717Y1D01*
X1716Y1D01*
X1715Y1D01*
X1714Y1D01*
X1713Y1D01*
X1712Y1D01*
X1711Y1D01*
X1710Y1D01*
X1709Y1D01*
X1708Y1D01*
X1707Y1D01*
X1706Y1D01*
X1705Y1D01*
X1704Y1D01*
X1703Y1D01*
X1702Y1D01*
X1701Y1D01*
X1700Y1D01*
X1699Y1D01*
X1698Y1D01*
X1697Y1D01*
X1696Y1D01*
X1695Y1D01*
X1694Y1D01*
X1693Y1D01*
X1692Y1D01*
X1691Y1D01*
X1690Y1D01*
X1689Y1D01*
X1688Y1D01*
X1687Y1D01*
X1686Y1D01*
X1685Y1D01*
X1684Y1D01*
X1683Y1D01*
X1682Y1D01*
X1681Y1D01*
X1680Y1D01*
X1679Y1D01*
X1678Y1D01*
X1677Y1D01*
X1676Y1D01*
X1675Y1D01*
X1674Y1D01*
X1673Y1D01*
X1672Y1D01*
X1671Y1D01*
X1670Y1D01*
X1669Y1D01*
X1668Y1D01*
X1667Y1D01*
X1666Y1D01*
X1665Y1D01*
X1664Y1D01*
X1663Y1D01*
X1662Y1D01*
X1661Y1D01*
X1660Y1D01*
X1659Y1D01*
X1658Y1D01*
X1657Y1D01*
X1656Y1D01*
X1655Y1D01*
X1654Y1D01*
X1653Y1D01*
X1652Y1D01*
X1651Y1D01*
X1650Y1D01*
X1649Y1D01*
X1648Y1D01*
X1647Y1D01*
X1646Y1D01*
X1645Y1D01*
X1644Y1D01*
X1643Y1D01*
X1642Y1D01*
X1641Y1D01*
X1640Y1D01*
X1639Y1D01*
X1638Y1D01*
X1637Y1D01*
X1636Y1D01*
X1635Y1D01*
X1634Y1D01*
X1633Y1D01*
X1632Y1D01*
X1631Y1D01*
X1630Y1D01*
X1629Y1D01*
X1628Y1D01*
X1627Y1D01*
X1626Y1D01*
X1625Y1D01*
X1624Y1D01*
X1623Y1D01*
X1622Y1D01*
X1621Y1D01*
X1620Y1D01*
X1619Y1D01*
X1618Y1D01*
X1617Y1D01*
X1616Y1D01*
X1615Y1D01*
X1614Y1D01*
X1613Y1D01*
X1612Y1D01*
X1611Y1D01*
X1610Y1D01*
X1609Y1D01*
X1608Y1D01*
X1607Y1D01*
X1606Y1D01*
X1605Y1D01*
X1604Y1D01*
X1603Y1D01*
X1602Y1D01*
X1601Y1D01*
X1600Y1D01*
X1599Y1D01*
X1598Y1D01*
X1597Y1D01*
X1596Y1D01*
X1595Y1D01*
X1594Y1D01*
X1593Y1D01*
X1592Y1D01*
X1591Y1D01*
X1590Y1D01*
X1589Y1D01*
X1588Y1D01*
X1587Y1D01*
X1586Y1D01*
X1585Y1D01*
X1584Y1D01*
X1583Y1D01*
X1582Y1D01*
X1581Y1D01*
X1580Y1D01*
X1579Y1D01*
X1578Y1D01*
X1577Y1D01*
X1576Y1D01*
X1575Y1D01*
X1574Y1D01*
X1573Y1D01*
X1572Y1D01*
X1571Y1D01*
X1570Y1D01*
X1569Y1D01*
X1568Y1D01*
X1567Y1D01*
X1566Y1D01*
X1565Y1D01*
X1564Y1D01*
X1563Y1D01*
X1562Y1D01*
X1561Y1D01*
X1560Y1D01*
X1559Y1D01*
X1558Y1D01*
X1557Y1D01*
X1556Y1D01*
X1555Y1D01*
X1554Y1D01*
X1553Y1D01*
X1552Y1D01*
X1551Y1D01*
X1550Y1D01*
X1549Y1D01*
X1548Y1D01*
X1547Y1D01*
X1546Y1D01*
X1545Y1D01*
X1544Y1D01*
X1543Y1D01*
X1542Y1D01*
X1541Y1D01*
X1540Y1D01*
X1539Y1D01*
X1538Y1D01*
X1537Y1D01*
X1536Y1D01*
X1535Y1D01*
X1534Y1D01*
X1533Y1D01*
X1532Y1D01*
X1531Y1D01*
X1530Y1D01*
X1529Y1D01*
X1528Y1D01*
X1527Y1D01*
X1526Y1D01*
X1525Y1D01*
X1524Y1D01*
X1523Y1D01*
X1522Y1D01*
X1521Y1D01*
X1520Y1D01*
X1519Y1D01*
X1518Y1D01*
X1517Y1D01*
X1516Y1D01*
X1515Y1D01*
X1514Y1D01*
X1513Y1D01*
X1512Y1D01*
X1511Y1D01*
X1510Y1D01*
X1509Y1D01*
X1508Y1D01*
X1507Y1D01*
X1506Y1D01*
X1505Y1D01*
X1504Y1D01*
X1503Y1D01*
X1502Y1D01*
X1501Y1D01*
X1500Y1D01*
X1499Y1D01*
X1498Y1D01*
X1497Y1D01*
X1496Y1D01*
X1495Y1D01*
X1494Y1D01*
X1493Y1D01*
X1492Y1D01*
X1491Y1D01*
X1490Y1D01*
X1489Y1D01*
X1488Y1D01*
X1487Y1D01*
X1486Y1D01*
X1485Y1D01*
X1484Y1D01*
X1483Y1D01*
X1482Y1D01*
X1481Y1D01*
X1480Y1D01*
X1479Y1D01*
X1478Y1D01*
X1477Y1D01*
X1476Y1D01*
X1475Y1D01*
X1474Y1D01*
X1473Y1D01*
X1472Y1D01*
X1471Y1D01*
X1470Y1D01*
X1469Y1D01*
X1468Y1D01*
X1467Y1D01*
X1466Y1D01*
X1465Y1D01*
X1464Y1D01*
X1463Y1D01*
X1462Y1D01*
X1461Y1D01*
X1460Y1D01*
X1459Y1D01*
X1458Y1D01*
X1457Y1D01*
X1456Y1D01*
X1455Y1D01*
X1454Y1D01*
X1453Y1D01*
X1452Y1D01*
X1451Y1D01*
X1450Y1D01*
X1449Y1D01*
X1448Y1D01*
X1447Y1D01*
X1446Y1D01*
X1445Y1D01*
X1444Y1D01*
X1443Y1D01*
X1442Y1D01*
X1441Y1D01*
X1440Y1D01*
X1439Y1D01*
X1438Y1D01*
X1437Y1D01*
X1436Y1D01*
X1435Y1D01*
X1434Y1D01*
X1433Y1D01*
X1432Y1D01*
X1431Y1D01*
X1430Y1D01*
X1429Y1D01*
X1428Y1D01*
X1427Y1D01*
X1426Y1D01*
X1425Y1D01*
X1424Y1D01*
X1423Y1D01*
X1422Y1D01*
X1421Y1D01*
X1420Y1D01*
X1419Y1D01*
X1418Y1D01*
X1417Y1D01*
X1416Y1D01*
X1415Y1D01*
X1414Y1D01*
X1413Y1D01*
X1412Y1D01*
X1411Y1D01*
X1410Y1D01*
X1409Y1D01*
X1408Y1D01*
X1407Y1D01*
X1406Y1D01*
X1405Y1D01*
X1404Y1D01*
X1403Y1D01*
X1402Y1D01*
X1401Y1D01*
X1400Y1D01*
X1399Y1D01*
X1398Y1D01*
X1397Y1D01*
X1396Y1D01*
X1395Y1D01*
X1394Y1D01*
X1393Y1D01*
X1392Y1D01*
X1391Y1D01*
X1390Y1D01*
X1389Y1D01*
X1388Y1D01*
X1387Y1D01*
X1386Y1D01*
X1385Y1D01*
X1384Y1D01*
X1383Y1D01*
X1382Y1D01*
X1381Y1D01*
X1380Y1D01*
X1379Y1D01*
X1378Y1D01*
X1377Y1D01*
X1376Y1D01*
X1375Y1D01*
X1374Y1D01*
X1373Y1D01*
X1372Y1D01*
X1371Y1D01*
X1370Y1D01*
X1369Y1D01*
X1368Y1D01*
X1367Y1D01*
X1366Y1D01*
X1365Y1D01*
X1364Y1D01*
X1363Y1D01*
X1362Y1D01*
X1361Y1D01*
X1360Y1D01*
X1359Y1D01*
X1358Y1D01*
X1357Y1D01*
X1356Y1D01*
X1355Y1D01*
X1354Y1D01*
X1353Y1D01*
X1352Y1D01*
X1351Y1D01*
X1350Y1D01*
X1349Y1D01*
X1348Y1D01*
X1347Y1D01*
X1346Y1D01*
X1345Y1D01*
X1344Y1D01*
X1343Y1D01*
X1342Y1D01*
X1341Y1D01*
X1340Y1D01*
X1339Y1D01*
X1338Y1D01*
X1337Y1D01*
X1336Y1D01*
X1335Y1D01*
X1334Y1D01*
X1333Y1D01*
X1332Y1D01*
X1331Y1D01*
X1330Y1D01*
X1329Y1D01*
X1328Y1D01*
X1327Y1D01*
X1326Y1D01*
X1325Y1D01*
X1324Y1D01*
X1323Y1D01*
X1322Y1D01*
X1321Y1D01*
X1320Y1D01*
X1319Y1D01*
X1318Y1D01*
X1317Y1D01*
X1316Y1D01*
X1315Y1D01*
X1314Y1D01*
X1313Y1D01*
X1312Y1D01*
X1311Y1D01*
X1310Y1D01*
X1309Y1D01*
X1308Y1D01*
X1307Y1D01*
X1306Y1D01*
X1305Y1D01*
X1304Y1D01*
X1303Y1D01*
X1302Y1D01*
X1301Y1D01*
X1300Y1D01*
X1299Y1D01*
X1298Y1D01*
X1297Y1D01*
X1296Y1D01*
X1295Y1D01*
X1294Y1D01*
X1293Y1D01*
X1292Y1D01*
X1291Y1D01*
X1290Y1D01*
X1289Y1D01*
X1288Y1D01*
X1287Y1D01*
X1286Y1D01*
X1285Y1D01*
X1284Y1D01*
X1283Y1D01*
X1282Y1D01*
X1281Y1D01*
X1280Y1D01*
X1279Y1D01*
X1278Y1D01*
X1277Y1D01*
X1276Y1D01*
X1275Y1D01*
X1274Y1D01*
X1273Y1D01*
X1272Y1D01*
X1271Y1D01*
X1270Y1D01*
X1269Y1D01*
X1268Y1D01*
X1267Y1D01*
X1266Y1D01*
X1265Y1D01*
X1264Y1D01*
X1263Y1D01*
X1262Y1D01*
X1261Y1D01*
X1260Y1D01*
X1259Y1D01*
X1258Y1D01*
X1257Y1D01*
X1256Y1D01*
X1255Y1D01*
X1254Y1D01*
X1253Y1D01*
X1252Y1D01*
X1251Y1D01*
X1250Y1D01*
X1249Y1D01*
X1248Y1D01*
X1247Y1D01*
X1246Y1D01*
X1245Y1D01*
X1244Y1D01*
X1243Y1D01*
X1242Y1D01*
X1241Y1D01*
X1240Y1D01*
X1239Y1D01*
X1238Y1D01*
X1237Y1D01*
X1236Y1D01*
X1235Y1D01*
X1234Y1D01*
X1233Y1D01*
X1232Y1D01*
X1231Y1D01*
X1230Y1D01*
X1229Y1D01*
X1228Y1D01*
X1227Y1D01*
X1226Y1D01*
X1225Y1D01*
X1224Y1D01*
X1223Y1D01*
X1222Y1D01*
X1221Y1D01*
X1220Y1D01*
X1219Y1D01*
X1218Y1D01*
X1217Y1D01*
X1216Y1D01*
X1215Y1D01*
X1214Y1D01*
X1213Y1D01*
X1212Y1D01*
X1211Y1D01*
X1210Y1D01*
X1209Y1D01*
X1208Y1D01*
X1207Y1D01*
X1206Y1D01*
X1205Y1D01*
X1204Y1D01*
X1203Y1D01*
X1202Y1D01*
X1201Y1D01*
X1200Y1D01*
X1199Y1D01*
X1198Y1D01*
X1197Y1D01*
X1196Y1D01*
X1195Y1D01*
X1194Y1D01*
X1193Y1D01*
X1192Y1D01*
X1191Y1D01*
X1190Y1D01*
X1189Y1D01*
X1188Y1D01*
X1187Y1D01*
X1186Y1D01*
X1185Y1D01*
X1184Y1D01*
X1183Y1D01*
X1182Y1D01*
X1181Y1D01*
X1180Y1D01*
X1179Y1D01*
X1178Y1D01*
X1177Y1D01*
X1176Y1D01*
X1175Y1D01*
X1174Y1D01*
X1173Y1D01*
X1172Y1D01*
X1171Y1D01*
X1170Y1D01*
X1169Y1D01*
X1168Y1D01*
X1167Y1D01*
X1166Y1D01*
X1165Y1D01*
X1164Y1D01*
X1163Y1D01*
X1162Y1D01*
X1161Y1D01*
X1160Y1D01*
X1159Y1D01*
X1158Y1D01*
X1157Y1D01*
X1156Y1D01*
X1155Y1D01*
X1154Y1D01*
X1153Y1D01*
X1152Y1D01*
X1151Y1D01*
X1150Y1D01*
X1149Y1D01*
X1148Y1D01*
X1147Y1D01*
X1146Y1D01*
X1145Y1D01*
X1144Y1D01*
X1143Y1D01*
X1142Y1D01*
X1141Y1D01*
X1140Y1D01*
X1139Y1D01*
X1138Y1D01*
X1137Y1D01*
X1136Y1D01*
X1135Y1D01*
X1134Y1D01*
X1133Y1D01*
X1132Y1D01*
X1131Y1D01*
X1130Y1D01*
X1129Y1D01*
X1128Y1D01*
X1127Y1D01*
X1126Y1D01*
X1125Y1D01*
X1124Y1D01*
X1123Y1D01*
X1122Y1D01*
X1121Y1D01*
X1120Y1D01*
X1119Y1D01*
X1118Y1D01*
X1117Y1D01*
X1116Y1D01*
X1115Y1D01*
X1114Y1D01*
X1113Y1D01*
X1112Y1D01*
X1111Y1D01*
X1110Y1D01*
X1109Y1D01*
X1108Y1D01*
X1107Y1D01*
X1106Y1D01*
X1105Y1D01*
X1104Y1D01*
X1103Y1D01*
X1102Y1D01*
X1101Y1D01*
X1100Y1D01*
X1099Y1D01*
X1098Y1D01*
X1097Y1D01*
X1096Y1D01*
X1095Y1D01*
X1094Y1D01*
X1093Y1D01*
X1092Y1D01*
X1091Y1D01*
X1090Y1D01*
X1089Y1D01*
X1088Y1D01*
X1087Y1D01*
X1086Y1D01*
X1085Y1D01*
X1084Y1D01*
X1083Y1D01*
X1082Y1D01*
X1081Y1D01*
X1080Y1D01*
X1079Y1D01*
X1078Y1D01*
X1077Y1D01*
X1076Y1D01*
X1075Y1D01*
X1074Y1D01*
X1073Y1D01*
X1072Y1D01*
X1071Y1D01*
X1070Y1D01*
X1069Y1D01*
X1068Y1D01*
X1067Y1D01*
X1066Y1D01*
X1065Y1D01*
X1064Y1D01*
X1063Y1D01*
X1062Y1D01*
X1061Y1D01*
X1060Y1D01*
X1059Y1D01*
X1058Y1D01*
X1057Y1D01*
X1056Y1D01*
X1055Y1D01*
X1054Y1D01*
X1053Y1D01*
X1052Y1D01*
X1051Y1D01*
X1050Y1D01*
X1049Y1D01*
X1048Y1D01*
X1047Y1D01*
X1046Y1D01*
X1045Y1D01*
X1044Y1D01*
X1043Y1D01*
X1042Y1D01*
X1041Y1D01*
X1040Y1D01*
X1039Y1D01*
X1038Y1D01*
X1037Y1D01*
X1036Y1D01*
X1035Y1D01*
X1034Y1D01*
X1033Y1D01*
X1032Y1D01*
X1031Y1D01*
X1030Y1D01*
X1029Y1D01*
X1028Y1D01*
X1027Y1D01*
X1026Y1D01*
X1025Y1D01*
X1024Y1D01*
X1023Y1D01*
X1022Y1D01*
X1021Y1D01*
X1020Y1D01*
X1019Y1D01*
X1018Y1D01*
X1017Y1D01*
X1016Y1D01*
X1015Y1D01*
X1014Y1D01*
X1013Y1D01*
X1012Y1D01*
X1011Y1D01*
X1010Y1D01*
X1009Y1D01*
X1008Y1D01*
X1007Y1D01*
X1006Y1D01*
X1005Y1D01*
X1004Y1D01*
X1003Y1D01*
X1002Y1D01*
X1001Y1D01*
X1000Y1D01*
X999Y1D01*
X998Y1D01*
X997Y1D01*
X996Y1D01*
X995Y1D01*
X994Y1D01*
X993Y1D01*
X992Y1D01*
X991Y1D01*
X990Y1D01*
X989Y1D01*
X988Y1D01*
X987Y1D01*
X986Y1D01*
X985Y1D01*
X984Y1D01*
X983Y1D01*
X982Y1D01*
X981Y1D01*
X980Y1D01*
X979Y1D01*
X978Y1D01*
X977Y1D01*
X976Y1D01*
X975Y1D01*
X974Y1D01*
X973Y1D01*
X972Y1D01*
X971Y1D01*
X970Y1D01*
X969Y1D01*
X968Y1D01*
X967Y1D01*
X966Y1D01*
X965Y1D01*
X964Y1D01*
X963Y1D01*
X962Y1D01*
X961Y1D01*
X960Y1D01*
X959Y1D01*
X958Y1D01*
X957Y1D01*
X956Y1D01*
X955Y1D01*
X954Y1D01*
X953Y1D01*
X952Y1D01*
X951Y1D01*
X950Y1D01*
X949Y1D01*
X948Y1D01*
X947Y1D01*
X946Y1D01*
X945Y1D01*
X944Y1D01*
X943Y1D01*
X942Y1D01*
X941Y1D01*
X940Y1D01*
X939Y1D01*
X938Y1D01*
X937Y1D01*
X936Y1D01*
X935Y1D01*
X934Y1D01*
X933Y1D01*
X932Y1D01*
X931Y1D01*
X930Y1D01*
X929Y1D01*
X928Y1D01*
X927Y1D01*
X926Y1D01*
X925Y1D01*
X924Y1D01*
X923Y1D01*
X922Y1D01*
X921Y1D01*
X920Y1D01*
X919Y1D01*
X918Y1D01*
X917Y1D01*
X916Y1D01*
X915Y1D01*
X914Y1D01*
X913Y1D01*
X912Y1D01*
X911Y1D01*
X910Y1D01*
X909Y1D01*
X908Y1D01*
X907Y1D01*
X906Y1D01*
X905Y1D01*
X904Y1D01*
X903Y1D01*
X902Y1D01*
X901Y1D01*
X900Y1D01*
X899Y1D01*
X898Y1D01*
X897Y1D01*
X896Y1D01*
X895Y1D01*
X894Y1D01*
X893Y1D01*
X892Y1D01*
X891Y1D01*
X890Y1D01*
X889Y1D01*
X888Y1D01*
X887Y1D01*
X886Y1D01*
X885Y1D01*
X884Y1D01*
X883Y1D01*
X882Y1D01*
X881Y1D01*
X880Y1D01*
X879Y1D01*
X878Y1D01*
X877Y1D01*
X876Y1D01*
X875Y1D01*
X874Y1D01*
X873Y1D01*
X872Y1D01*
X871Y1D01*
X870Y1D01*
X869Y1D01*
X868Y1D01*
X867Y1D01*
X866Y1D01*
X865Y1D01*
X864Y1D01*
X863Y1D01*
X862Y1D01*
X861Y1D01*
X860Y1D01*
X859Y1D01*
X858Y1D01*
X857Y1D01*
X856Y1D01*
X855Y1D01*
X854Y1D01*
X853Y1D01*
X852Y1D01*
X851Y1D01*
X850Y1D01*
X849Y1D01*
X848Y1D01*
X847Y1D01*
X846Y1D01*
X845Y1D01*
X844Y1D01*
X843Y1D01*
X842Y1D01*
X841Y1D01*
X840Y1D01*
X839Y1D01*
X838Y1D01*
X837Y1D01*
X836Y1D01*
X835Y1D01*
X834Y1D01*
X833Y1D01*
X832Y1D01*
X831Y1D01*
X830Y1D01*
X829Y1D01*
X828Y1D01*
X827Y1D01*
X826Y1D01*
X825Y1D01*
X824Y1D01*
X823Y1D01*
X822Y1D01*
X821Y1D01*
X820Y1D01*
X819Y1D01*
X818Y1D01*
X817Y1D01*
X816Y1D01*
X815Y1D01*
X814Y1D01*
X813Y1D01*
X812Y1D01*
X811Y1D01*
X810Y1D01*
X809Y1D01*
X808Y1D01*
X807Y1D01*
X806Y1D01*
X805Y1D01*
X804Y1D01*
X803Y1D01*
X802Y1D01*
X801Y1D01*
X800Y1D01*
X799Y1D01*
X798Y1D01*
X797Y1D01*
X796Y1D01*
X795Y1D01*
X794Y1D01*
X793Y1D01*
X792Y1D01*
X791Y1D01*
X790Y1D01*
X789Y1D01*
X788Y1D01*
X787Y1D01*
X786Y1D01*
X785Y1D01*
X784Y1D01*
X783Y1D01*
X782Y1D01*
X781Y1D01*
X780Y1D01*
X779Y1D01*
X778Y1D01*
X777Y1D01*
X776Y1D01*
X775Y1D01*
X774Y1D01*
X773Y1D01*
X772Y1D01*
X771Y1D01*
X770Y1D01*
X769Y1D01*
X768Y1D01*
X767Y1D01*
X766Y1D01*
X765Y1D01*
X764Y1D01*
X763Y1D01*
X762Y1D01*
X761Y1D01*
X760Y1D01*
X759Y1D01*
X758Y1D01*
X757Y1D01*
X756Y1D01*
X755Y1D01*
X754Y1D01*
X753Y1D01*
X752Y1D01*
X751Y1D01*
X750Y1D01*
X749Y1D01*
X748Y1D01*
X747Y1D01*
X746Y1D01*
X745Y1D01*
X744Y1D01*
X743Y1D01*
X742Y1D01*
X741Y1D01*
X740Y1D01*
X739Y1D01*
X738Y1D01*
X737Y1D01*
X736Y1D01*
X735Y1D01*
X734Y1D01*
X733Y1D01*
X732Y1D01*
X731Y1D01*
X730Y1D01*
X729Y1D01*
X728Y1D01*
X727Y1D01*
X726Y1D01*
X725Y1D01*
X724Y1D01*
X723Y1D01*
X722Y1D01*
X721Y1D01*
X720Y1D01*
X719Y1D01*
X718Y1D01*
X717Y1D01*
X716Y1D01*
X715Y1D01*
X714Y1D01*
X713Y1D01*
X712Y1D01*
X711Y1D01*
X710Y1D01*
X709Y1D01*
X708Y1D01*
X707Y1D01*
X706Y1D01*
X705Y1D01*
X704Y1D01*
X703Y1D01*
X702Y1D01*
X701Y1D01*
X700Y1D01*
X699Y1D01*
X698Y1D01*
X697Y1D01*
X696Y1D01*
X695Y1D01*
X694Y1D01*
X693Y1D01*
X692Y1D01*
X691Y1D01*
X690Y1D01*
X689Y1D01*
X688Y1D01*
X687Y1D01*
X686Y1D01*
X685Y1D01*
X684Y1D01*
X683Y1D01*
X682Y1D01*
X681Y1D01*
X680Y1D01*
X679Y1D01*
X678Y1D01*
X677Y1D01*
X676Y1D01*
X675Y1D01*
X674Y1D01*
X673Y1D01*
X672Y1D01*
X671Y1D01*
X670Y1D01*
X669Y1D01*
X668Y1D01*
X667Y1D01*
X666Y1D01*
X665Y1D01*
X664Y1D01*
X663Y1D01*
X662Y1D01*
X661Y1D01*
X660Y1D01*
X659Y1D01*
X658Y1D01*
X657Y1D01*
X656Y1D01*
X655Y1D01*
X654Y1D01*
X653Y1D01*
X652Y1D01*
X651Y1D01*
X650Y1D01*
X649Y1D01*
X648Y1D01*
X647Y1D01*
X646Y1D01*
X645Y1D01*
X644Y1D01*
X643Y1D01*
X642Y1D01*
X641Y1D01*
X640Y1D01*
X639Y1D01*
X638Y1D01*
X637Y1D01*
X636Y1D01*
X635Y1D01*
X634Y1D01*
X633Y1D01*
X632Y1D01*
X631Y1D01*
X630Y1D01*
X629Y1D01*
X628Y1D01*
X627Y1D01*
X626Y1D01*
X625Y1D01*
X624Y1D01*
X623Y1D01*
X622Y1D01*
X621Y1D01*
X620Y1D01*
X619Y1D01*
X618Y1D01*
X617Y1D01*
X616Y1D01*
X615Y1D01*
X614Y1D01*
X613Y1D01*
X612Y1D01*
X611Y1D01*
X610Y1D01*
X609Y1D01*
X608Y1D01*
X607Y1D01*
X606Y1D01*
X605Y1D01*
X604Y1D01*
X603Y1D01*
X602Y1D01*
X601Y1D01*
X600Y1D01*
X599Y1D01*
X598Y1D01*
X597Y1D01*
X596Y1D01*
X595Y1D01*
X594Y1D01*
X593Y1D01*
X592Y1D01*
X591Y1D01*
X590Y1D01*
X589Y1D01*
X588Y1D01*
X587Y1D01*
X586Y1D01*
X585Y1D01*
X584Y1D01*
X583Y1D01*
X582Y1D01*
X581Y1D01*
X580Y1D01*
X579Y1D01*
X578Y1D01*
X577Y1D01*
X576Y1D01*
X575Y1D01*
X574Y1D01*
X573Y1D01*
X572Y1D01*
X571Y1D01*
X570Y1D01*
X569Y1D01*
X568Y1D01*
X567Y1D01*
X566Y1D01*
X565Y1D01*
X564Y1D01*
X563Y1D01*
X562Y1D01*
X561Y1D01*
X560Y1D01*
X559Y1D01*
X558Y1D01*
X557Y1D01*
X556Y1D01*
X555Y1D01*
X554Y1D01*
X553Y1D01*
X552Y1D01*
X551Y1D01*
X550Y1D01*
X549Y1D01*
X548Y1D01*
X547Y1D01*
X546Y1D01*
X545Y1D01*
X544Y1D01*
X543Y1D01*
X542Y1D01*
X541Y1D01*
X540Y1D01*
X539Y1D01*
X538Y1D01*
X537Y1D01*
X536Y1D01*
X535Y1D01*
X534Y1D01*
X533Y1D01*
X532Y1D01*
X531Y1D01*
X530Y1D01*
X529Y1D01*
X528Y1D01*
X527Y1D01*
X526Y1D01*
X525Y1D01*
X524Y1D01*
X523Y1D01*
X522Y1D01*
X521Y1D01*
X520Y1D01*
X519Y1D01*
X518Y1D01*
X517Y1D01*
X516Y1D01*
X515Y1D01*
X514Y1D01*
X513Y1D01*
X512Y1D01*
X511Y1D01*
X510Y1D01*
X509Y1D01*
X508Y1D01*
X507Y1D01*
X506Y1D01*
X505Y1D01*
X504Y1D01*
X503Y1D01*
X502Y1D01*
X501Y1D01*
X500Y1D01*
X499Y1D01*
X498Y1D01*
X497Y1D01*
X496Y1D01*
X495Y1D01*
X494Y1D01*
X493Y1D01*
X492Y1D01*
X491Y1D01*
X490Y1D01*
X489Y1D01*
X488Y1D01*
X487Y1D01*
X486Y1D01*
X485Y1D01*
X484Y1D01*
X483Y1D01*
X482Y1D01*
X481Y1D01*
X480Y1D01*
X479Y1D01*
X478Y1D01*
X477Y1D01*
X476Y1D01*
X475Y1D01*
X474Y1D01*
X473Y1D01*
X472Y1D01*
X471Y1D01*
X470Y1D01*
X469Y1D01*
X468Y1D01*
X467Y1D01*
X466Y1D01*
X465Y1D01*
X464Y1D01*
X463Y1D01*
X462Y1D01*
X461Y1D01*
X460Y1D01*
X459Y1D01*
X458Y1D01*
X457Y1D01*
X456Y1D01*
X455Y1D01*
X454Y1D01*
X453Y1D01*
X452Y1D01*
X451Y1D01*
X450Y1D01*
X449Y1D01*
X448Y1D01*
X447Y1D01*
X446Y1D01*
X445Y1D01*
X444Y1D01*
X443Y1D01*
X442Y1D01*
X441Y1D01*
X440Y1D01*
X439Y1D01*
X438Y1D01*
X437Y1D01*
X436Y1D01*
X435Y1D01*
X434Y1D01*
X433Y1D01*
X432Y1D01*
X431Y1D01*
X430Y1D01*
X429Y1D01*
X428Y1D01*
X427Y1D01*
X426Y1D01*
X425Y1D01*
X424Y1D01*
X423Y1D01*
X422Y1D01*
X421Y1D01*
X420Y1D01*
X419Y1D01*
X418Y1D01*
X417Y1D01*
X416Y1D01*
X415Y1D01*
X414Y1D01*
X413Y1D01*
X412Y1D01*
X411Y1D01*
X410Y1D01*
X409Y1D01*
X408Y1D01*
X407Y1D01*
X406Y1D01*
X405Y1D01*
X404Y1D01*
X403Y1D01*
X402Y1D01*
X401Y1D01*
X400Y1D01*
X399Y1D01*
X398Y1D01*
X397Y1D01*
X396Y1D01*
X395Y1D01*
X394Y1D01*
X393Y1D01*
X392Y1D01*
X391Y1D01*
X390Y1D01*
X389Y1D01*
X388Y1D01*
X387Y1D01*
X386Y1D01*
X385Y1D01*
X384Y1D01*
X383Y1D01*
X382Y1D01*
X381Y1D01*
X380Y1D01*
X379Y1D01*
X378Y1D01*
X377Y1D01*
X376Y1D01*
X375Y1D01*
X374Y1D01*
X373Y1D01*
X372Y1D01*
X371Y1D01*
X370Y1D01*
X369Y1D01*
X368Y1D01*
X367Y1D01*
X366Y1D01*
X365Y1D01*
X364Y1D01*
X363Y1D01*
X362Y1D01*
X361Y1D01*
X360Y1D01*
X359Y1D01*
X358Y1D01*
X357Y1D01*
X356Y1D01*
X355Y1D01*
X354Y1D01*
X353Y1D01*
X352Y1D01*
X351Y1D01*
X350Y1D01*
X349Y1D01*
X348Y1D01*
X347Y1D01*
X346Y1D01*
X345Y1D01*
X344Y1D01*
X343Y1D01*
X342Y1D01*
X341Y1D01*
X340Y1D01*
X339Y1D01*
X338Y1D01*
X337Y1D01*
X336Y1D01*
X335Y1D01*
X334Y1D01*
X333Y1D01*
X332Y1D01*
X331Y1D01*
X330Y1D01*
X329Y1D01*
X328Y1D01*
X327Y1D01*
X326Y1D01*
X325Y1D01*
X324Y1D01*
X323Y1D01*
X322Y1D01*
X321Y1D01*
X320Y1D01*
X319Y1D01*
X318Y1D01*
X317Y1D01*
X316Y1D01*
X315Y1D01*
X314Y1D01*
X313Y1D01*
X312Y1D01*
X311Y1D01*
X310Y1D01*
X309Y1D01*
X308Y1D01*
X307Y1D01*
X306Y1D01*
X305Y1D01*
X304Y1D01*
X303Y1D01*
X302Y1D01*
X301Y1D01*
X300Y1D01*
X299Y1D01*
X298Y1D01*
X297Y1D01*
X296Y1D01*
X295Y1D01*
X294Y1D01*
X293Y1D01*
X292Y1D01*
X291Y1D01*
X290Y1D01*
X289Y1D01*
X288Y1D01*
X287Y1D01*
X286Y1D01*
X285Y1D01*
X284Y1D01*
X283Y1D01*
X282Y1D01*
X281Y1D01*
X280Y1D01*
X279Y1D01*
X278Y1D01*
X277Y1D01*
X276Y1D01*
X275Y1D01*
X274Y1D01*
X273Y1D01*
X272Y1D01*
X271Y1D01*
X270Y1D01*
X269Y1D01*
X268Y1D01*
X267Y1D01*
X266Y1D01*
X265Y1D01*
X264Y1D01*
X263Y1D01*
X262Y1D01*
X261Y1D01*
X260Y1D01*
X259Y1D01*
X258Y1D01*
X257Y1D01*
X256Y1D01*
X255Y1D01*
X254Y1D01*
X253Y1D01*
X252Y1D01*
X251Y1D01*
X250Y1D01*
X249Y1D01*
X248Y1D01*
X247Y1D01*
X246Y1D01*
X245Y1D01*
X244Y1D01*
X243Y1D01*
X242Y1D01*
X241Y1D01*
X240Y1D01*
X239Y1D01*
X238Y1D01*
X237Y1D01*
X236Y1D01*
X235Y1D01*
X234Y1D01*
X233Y1D01*
X232Y1D01*
X231Y1D01*
X230Y1D01*
X229Y1D01*
X228Y1D01*
X227Y1D01*
X226Y1D01*
X225Y1D01*
X224Y1D01*
X223Y1D01*
X222Y1D01*
X221Y1D01*
X220Y1D01*
X219Y1D01*
X218Y1D01*
X217Y1D01*
X216Y1D01*
X215Y1D01*
X214Y1D01*
X213Y1D01*
X212Y1D01*
X211Y1D01*
X210Y1D01*
X209Y1D01*
X208Y1D01*
X207Y1D01*
X206Y1D01*
X205Y1D01*
X204Y1D01*
X203Y1D01*
X202Y1D01*
X201Y1D01*
X200Y1D01*
X199Y1D01*
X198Y1D01*
X197Y1D01*
X196Y1D01*
X195Y1D01*
X194Y1D01*
X193Y1D01*
X192Y1D01*
X191Y1D01*
X190Y1D01*
X189Y1D01*
X188Y1D01*
X187Y1D01*
X186Y1D01*
X185Y1D01*
X184Y1D01*
X183Y1D01*
X182Y1D01*
X181Y1D01*
X180Y1D01*
X179Y1D01*
X178Y1D01*
X177Y1D01*
X176Y1D01*
X175Y1D01*
X174Y1D01*
X173Y1D01*
X172Y1D01*
X171Y1D01*
X170Y1D01*
X169Y1D01*
X168Y1D01*
X167Y1D01*
X166Y1D01*
X165Y1D01*
X164Y1D01*
X163Y1D01*
X162Y1D01*
X161Y1D01*
X160Y1D01*
X159Y1D01*
X158Y1D01*
X157Y1D01*
X156Y1D01*
X155Y1D01*
X154Y1D01*
X153Y1D01*
X152Y1D01*
X151Y1D01*
X150Y1D01*
X149Y1D01*
X148Y1D01*
X147Y1D01*
X146Y1D01*
X145Y1D01*
X144Y1D01*
X143Y1D01*
X142Y1D01*
X141Y1D01*
X140Y1D01*
X139Y1D01*
X138Y1D01*
X137Y1D01*
X136Y1D01*
X135Y1D01*
X134Y1D01*
X133Y1D01*
X132Y1D01*
X131Y1D01*
X130Y1D01*
X129Y1D01*
X128Y1D01*
X127Y1D01*
X126Y1D01*
X125Y1D01*
X124Y1D01*
X123Y1D01*
X122Y1D01*
X121Y1D01*
X120Y1D01*
X119Y1D01*
X118Y1D01*
X117Y1D01*
X116Y1D01*
X115Y1D01*
X114Y1D01*
X113Y1D01*
X112Y1D01*
X111Y1D01*
X110Y1D01*
X109Y1D01*
X108Y1D01*
X107Y1D01*
X106Y1D01*
X105Y1D01*
X104Y1D01*
X103Y1D01*
X102Y1D01*
X101Y1D01*
X100Y1D01*
X99Y1D01*
X98Y1D01*
X97Y1D01*
X96Y1D01*
X95Y1D01*
X94Y1D01*
X93Y1D01*
X92Y1D01*
X91Y1D01*
X90Y1D01*
X89Y1D01*
X88Y1D01*
X87Y1D01*
X86Y1D01*
X85Y1D01*
X84Y1D01*
X83Y1D01*
X82Y1D01*
X81Y1D01*
X80Y1D01*
X79Y1D01*
X78Y1D01*
X77Y1D01*
X76Y1D01*
X75Y1D01*
X74Y1D01*
X73Y1D01*
X72Y1D01*
X71Y1D01*
X70Y1D01*
X69Y1D01*
X68Y1D01*
X67Y1D01*
X66Y1D01*
X65Y1D01*
X64Y1D01*
X63Y1D01*
X62Y1D01*
X61Y1D01*
X60Y1D01*
X59Y2D01*
X58Y2D01*
X57Y2D01*
X56Y2D01*
X55Y2D01*
X54Y2D01*
X53Y3D01*
X52Y3D01*
X51Y3D01*
X50Y3D01*
X49Y3D01*
X48Y4D01*
X47Y4D01*
X46Y4D01*
X45Y5D01*
X44Y5D01*
X43Y5D01*
X42Y6D01*
X41Y6D01*
X40Y6D01*
X39Y7D01*
X38Y7D01*
X37Y8D01*
X36Y8D01*
X35Y8D01*
X34Y9D01*
X33Y9D01*
X32Y10D01*
X31Y10D01*
X30Y11D01*
X29Y12D01*
X28Y12D01*
X27Y13D01*
X26Y14D01*
X25Y14D01*
X24Y15D01*
X23Y16D01*
X22Y16D01*
X21Y17D01*
X20Y18D01*
X19Y19D01*
X18Y20D01*
X17Y21D01*
X16Y22D01*
X15Y23D01*
X14Y24D01*
X13Y25D01*
X12Y26D01*
X11Y27D01*
X11Y28D01*
X10Y29D01*
X9Y30D01*
X9Y31D01*
X8Y32D01*
X7Y33D01*
X7Y34D01*
X6Y35D01*
X6Y36D01*
X5Y37D01*
X5Y38D01*
X4Y39D01*
X4Y41D01*
X3Y42D01*
X3Y43D01*
X2Y44D01*
X2Y47D01*
X1Y48D01*
X1Y52D01*
X0Y53D01*
X0Y3885D01*
X1Y3886D01*
X1Y3890D01*
X2Y3891D01*
X2Y3894D01*
X3Y3895D01*
X3Y3896D01*
X4Y3897D01*
X4Y3899D01*
X5Y3900D01*
X5Y3901D01*
X6Y3902D01*
X6Y3903D01*
X7Y3904D01*
X7Y3905D01*
X8Y3906D01*
X9Y3907D01*
X9Y3908D01*
X10Y3909D01*
X11Y3910D01*
X11Y3911D01*
X12Y3912D01*
X13Y3913D01*
X14Y3914D01*
X15Y3915D01*
X16Y3916D01*
X17Y3917D01*
X18Y3918D01*
X19Y3919D01*
X20Y3920D01*
X21Y3921D01*
X22Y3922D01*
X23Y3922D01*
X24Y3923D01*
X25Y3924D01*
X26Y3924D01*
X27Y3925D01*
X28Y3926D01*
X29Y3926D01*
X30Y3927D01*
X31Y3928D01*
X32Y3928D01*
X33Y3929D01*
X34Y3929D01*
X35Y3930D01*
X36Y3930D01*
X37Y3930D01*
X38Y3931D01*
X39Y3931D01*
X40Y3932D01*
X41Y3932D01*
X42Y3933D01*
X43Y3933D01*
X44Y3933D01*
X45Y3933D01*
X46Y3934D01*
X47Y3934D01*
X48Y3934D01*
X49Y3935D01*
X50Y3935D01*
X51Y3935D01*
X52Y3935D01*
X53Y3935D01*
X54Y3936D01*
X55Y3936D01*
X56Y3936D01*
X57Y3936D01*
X58Y3936D01*
X59Y3936D01*
X60Y3937D01*
D02*
G04 End of contour*
M02*