; NON-PLATED HOLES START AT T1
; THROUGH (PLATED) HOLES START AT T100
M48
INCH
T1C0.086614
T100C0.043307
T101C0.038000
T102C0.060020
T103C0.030000
T104C0.088356
T105C0.100000
T106C0.035000
T107C0.032000
T108C0.041361
T109C0.031497
T110C0.041333
%
T1
X001131Y024414
X033359Y024414
X001122Y000844
X033442Y000844
T100
X021797Y015147
X019797Y015147
X023797Y015147
X022797Y012147
X020797Y012147
X018797Y015147
X024797Y012147
X019797Y012147
X023797Y012147
X021797Y012147
X022797Y015147
X020797Y015147
X018797Y012147
X024797Y015147
T101
X021782Y024283
X014894Y012137
X009946Y011294
X033576Y009856
X028036Y021872
X014877Y024283
X028036Y020872
X008938Y013486
X020247Y010218
X015973Y011139
X018782Y024283
X028036Y015483
X021247Y010218
X009192Y006396
X014894Y015137
X019762Y018683
X024181Y016715
X022762Y018683
X009938Y013486
X015973Y014139
X028036Y019666
X020782Y024283
X015973Y013139
X018762Y018683
X028036Y017666
X008192Y006396
X009945Y012388
X028036Y016483
X019782Y024283
X032576Y009856
X028036Y018666
X008946Y011294
X020762Y018683
X015973Y012139
X022247Y010218
X021762Y018683
X028036Y014483
X022181Y016715
X014894Y014137
X013877Y024283
X014894Y013137
X008945Y012388
X014894Y011137
X023181Y016715
X023762Y018683
X015973Y015139
T102
X008727Y000757
X007787Y003297
X006797Y003847
X010447Y004987
X010647Y002037
T103
X012406Y010398
X012406Y008398
X009003Y007670
X007068Y011214
X010989Y018501
X012989Y018501
X011003Y007670
X007068Y009214
T104
X029533Y003813
X001794Y006314
X023861Y003813
X001794Y012067
X032557Y016186
X001794Y010197
X016217Y003813
X027744Y003813
X001794Y022935
X032527Y022289
X033416Y003813
X018125Y003813
X001794Y015950
X001794Y019052
X032557Y012303
X012334Y003813
X032527Y018406
X022008Y003813
T105
X004142Y001774
X002942Y003674
X005342Y003674
T106
X023775Y022934
X030344Y009651
X013574Y011828
X032592Y010856
X024775Y022934
X025746Y008675
X003202Y016825
X015339Y019175
X027990Y023528
X030990Y023528
X024775Y019934
X007962Y017737
X006626Y024353
X021535Y008948
X016994Y009623
X023775Y019934
X008613Y015704
X024535Y008948
X017775Y019934
X009518Y018546
X005348Y017763
X020775Y019934
X011533Y011372
X011613Y015704
X022775Y022934
X013181Y017143
X016994Y008623
X021775Y019934
X029592Y010856
X018775Y019934
X010626Y024353
X010181Y017143
X019775Y022934
X002348Y017763
X019775Y019934
X018775Y022934
X007962Y014737
X011533Y014372
X021775Y022934
X030344Y008651
X022775Y019934
X012574Y011828
X006202Y016825
X006518Y018546
X025746Y009675
X020775Y022934
X017775Y022934
X015339Y016175
T107
X010880Y023030
X008880Y020030
X007880Y020030
X012880Y020030
X014880Y023030
X009880Y020030
X011880Y023030
X013880Y020030
X012880Y023030
X007880Y023030
X008880Y023030
X010880Y020030
X014880Y020030
X011880Y020030
X009880Y023030
X013880Y023030
T108
X004747Y015009
X029574Y019347
X029604Y013245
X030474Y006766
X004747Y009255
X004747Y021994
X019066Y006766
X013276Y006766
X024803Y006766
T109
X020083Y016577
X027044Y023498
X026059Y023498
X020083Y017561
T110
X029574Y021348
X004747Y008255
X032474Y006766
X029574Y020348
X026803Y006766
X029604Y014245
X014276Y006766
X029604Y015245
X020067Y006766
X004747Y014008
X015276Y006766
X021067Y006766
X004747Y020994
X004747Y013008
X004747Y019994
X004747Y007255
X025803Y006766
X031474Y006766
T00
M30
