G04 MADE WITH FRITZING*
G04 WWW.FRITZING.ORG*
G04 DOUBLE SIDED*
G04 HOLES PLATED*
G04 CONTOUR ON CENTER OF CONTOUR VECTOR*
%ASAXBY*%
%FSLAX23Y23*%
%MOIN*%
%OFA0B0*%
%SFA1.0B1.0*%
%ADD10C,0.088000*%
%ADD11C,0.150000*%
%ADD12C,0.100020*%
%ADD13C,0.080000*%
%ADD14C,0.085000*%
%ADD15C,0.096614*%
%ADD16C,0.062000*%
%ADD17C,0.093307*%
%ADD18C,0.072992*%
%ADD19C,0.084667*%
%ADD20C,0.084695*%
%ADD21C,0.134033*%
%ADD22R,0.088000X0.088000*%
%ADD23R,0.093307X0.093307*%
%ADD24R,0.072992X0.072992*%
%ADD25R,0.085000X0.085000*%
%ADD26R,0.001000X0.001000*%
%LNMASK1*%
G90*
G70*
G54D10*
X2806Y2190D03*
X2806Y2090D03*
G54D11*
X534Y416D03*
X294Y416D03*
X414Y226D03*
G54D12*
X680Y400D03*
X779Y345D03*
X1045Y514D03*
X1065Y219D03*
X873Y91D03*
G54D13*
X1111Y860D03*
X1212Y860D03*
G54D10*
X893Y778D03*
X993Y778D03*
X1489Y1540D03*
X1489Y1440D03*
X1489Y1340D03*
X1489Y1240D03*
X1489Y1140D03*
X1597Y1540D03*
X1597Y1440D03*
X1597Y1340D03*
X1597Y1240D03*
X1597Y1140D03*
G54D14*
X663Y2461D03*
X1063Y2461D03*
G54D15*
X3234Y130D03*
X3229Y2428D03*
X301Y2469D03*
X232Y124D03*
G54D14*
X1556Y1944D03*
X1556Y1644D03*
X652Y1881D03*
X952Y1881D03*
X1164Y1408D03*
X1164Y1108D03*
G54D16*
X788Y2029D03*
X888Y2029D03*
X988Y2029D03*
X1088Y2029D03*
X1188Y2029D03*
X1288Y2029D03*
X1388Y2029D03*
X1488Y2029D03*
X1488Y2329D03*
X1388Y2329D03*
X1288Y2329D03*
X1188Y2329D03*
X1088Y2329D03*
X988Y2329D03*
X888Y2329D03*
X788Y2329D03*
X788Y2029D03*
X888Y2029D03*
X988Y2029D03*
X1088Y2029D03*
X1188Y2029D03*
X1288Y2029D03*
X1388Y2029D03*
X1488Y2029D03*
X1488Y2329D03*
X1388Y2329D03*
X1288Y2329D03*
X1188Y2329D03*
X1088Y2329D03*
X988Y2329D03*
X888Y2329D03*
X788Y2329D03*
G54D17*
X2480Y1541D03*
X2480Y1241D03*
X2380Y1541D03*
X2380Y1241D03*
X2280Y1541D03*
X2280Y1241D03*
X2180Y1541D03*
X2180Y1241D03*
X2080Y1541D03*
X2080Y1241D03*
X1980Y1541D03*
X1980Y1241D03*
X1880Y1541D03*
X1880Y1241D03*
G54D18*
X2008Y1782D03*
X2008Y1684D03*
X2606Y2376D03*
X2704Y2376D03*
G54D14*
X2664Y905D03*
X2664Y1005D03*
G54D10*
X2806Y1486D03*
X2806Y1586D03*
X2806Y1686D03*
X1876Y1906D03*
X1976Y1906D03*
X2076Y1906D03*
X2176Y1906D03*
X2276Y1906D03*
X2376Y1906D03*
X3358Y1078D03*
X3258Y1078D03*
X1388Y2452D03*
X1488Y2452D03*
X2280Y1048D03*
X2180Y1048D03*
X2080Y1048D03*
X2418Y1698D03*
X2318Y1698D03*
X2218Y1698D03*
X995Y1156D03*
X895Y1156D03*
X895Y1265D03*
X995Y1265D03*
X2808Y1787D03*
X2808Y1887D03*
X2808Y1987D03*
G54D14*
X2959Y1178D03*
X3259Y1178D03*
X1778Y2020D03*
X1778Y2320D03*
X1878Y2020D03*
X1878Y2320D03*
X1978Y2020D03*
X1978Y2320D03*
X2078Y2020D03*
X2078Y2320D03*
X2178Y2020D03*
X2178Y2320D03*
X2278Y2020D03*
X2278Y2320D03*
X2378Y2020D03*
X2378Y2320D03*
X2478Y2020D03*
X2478Y2320D03*
G54D19*
X2614Y681D03*
X2514Y681D03*
G54D20*
X2414Y681D03*
G54D21*
X2708Y385D03*
X2320Y385D03*
G54D19*
X3136Y681D03*
X3036Y681D03*
G54D20*
X2936Y681D03*
G54D21*
X3231Y385D03*
X2842Y385D03*
G54D19*
X2957Y2139D03*
X2957Y2039D03*
G54D20*
X2957Y1939D03*
G54D21*
X3253Y2233D03*
X3253Y1845D03*
G54D19*
X2960Y1595D03*
X2960Y1495D03*
G54D20*
X2960Y1395D03*
G54D21*
X3256Y1689D03*
X3256Y1301D03*
G54D19*
X2084Y681D03*
X1984Y681D03*
G54D20*
X1884Y681D03*
G54D21*
X2179Y385D03*
X1790Y385D03*
G54D19*
X532Y1294D03*
X532Y1394D03*
G54D20*
X532Y1494D03*
G54D21*
X236Y1200D03*
X236Y1588D03*
G54D19*
X1528Y687D03*
X1428Y687D03*
G54D20*
X1328Y687D03*
G54D21*
X1622Y392D03*
X1233Y392D03*
G54D19*
X530Y763D03*
X530Y863D03*
G54D20*
X530Y963D03*
G54D21*
X235Y669D03*
X235Y1057D03*
G54D14*
X3079Y891D03*
X3079Y991D03*
X1699Y988D03*
X1699Y888D03*
X535Y1780D03*
X235Y1780D03*
X620Y1686D03*
X320Y1686D03*
X2509Y888D03*
X2209Y888D03*
X1269Y1298D03*
X1369Y1298D03*
X1318Y1740D03*
X1018Y1740D03*
X785Y1811D03*
X785Y1511D03*
X3099Y2379D03*
X2799Y2379D03*
G54D13*
X1099Y1876D03*
X1299Y1876D03*
G54D10*
X994Y1375D03*
X894Y1375D03*
G54D19*
X534Y2059D03*
X534Y2159D03*
G54D20*
X534Y2259D03*
G54D21*
X239Y1965D03*
X239Y2353D03*
G54D13*
X711Y1200D03*
X711Y1400D03*
G54D14*
X1161Y1597D03*
X861Y1597D03*
G54D13*
X1324Y1005D03*
X1324Y905D03*
G54D10*
X808Y646D03*
X708Y646D03*
X1878Y2454D03*
X1978Y2454D03*
X2078Y2454D03*
X2178Y2454D03*
G54D22*
X893Y778D03*
G54D23*
X2480Y1541D03*
G54D24*
X2008Y1782D03*
X2606Y2376D03*
G54D25*
X2664Y905D03*
X1778Y2020D03*
X3079Y891D03*
X1699Y988D03*
X1269Y1298D03*
G54D22*
X808Y646D03*
G54D26*
X783Y2386D02*
X794Y2386D01*
X883Y2386D02*
X894Y2386D01*
X983Y2386D02*
X994Y2386D01*
X1083Y2386D02*
X1094Y2386D01*
X1183Y2386D02*
X1194Y2386D01*
X1283Y2386D02*
X1294Y2386D01*
X1383Y2386D02*
X1394Y2386D01*
X1483Y2386D02*
X1494Y2386D01*
X779Y2385D02*
X798Y2385D01*
X879Y2385D02*
X898Y2385D01*
X979Y2385D02*
X998Y2385D01*
X1079Y2385D02*
X1098Y2385D01*
X1179Y2385D02*
X1198Y2385D01*
X1279Y2385D02*
X1298Y2385D01*
X1379Y2385D02*
X1398Y2385D01*
X1479Y2385D02*
X1498Y2385D01*
X777Y2384D02*
X800Y2384D01*
X877Y2384D02*
X900Y2384D01*
X977Y2384D02*
X1000Y2384D01*
X1077Y2384D02*
X1100Y2384D01*
X1177Y2384D02*
X1200Y2384D01*
X1277Y2384D02*
X1300Y2384D01*
X1377Y2384D02*
X1400Y2384D01*
X1477Y2384D02*
X1500Y2384D01*
X775Y2383D02*
X802Y2383D01*
X875Y2383D02*
X902Y2383D01*
X975Y2383D02*
X1002Y2383D01*
X1075Y2383D02*
X1102Y2383D01*
X1175Y2383D02*
X1202Y2383D01*
X1275Y2383D02*
X1302Y2383D01*
X1375Y2383D02*
X1402Y2383D01*
X1475Y2383D02*
X1502Y2383D01*
X773Y2382D02*
X804Y2382D01*
X873Y2382D02*
X904Y2382D01*
X973Y2382D02*
X1004Y2382D01*
X1073Y2382D02*
X1104Y2382D01*
X1173Y2382D02*
X1204Y2382D01*
X1273Y2382D02*
X1304Y2382D01*
X1373Y2382D02*
X1404Y2382D01*
X1473Y2382D02*
X1504Y2382D01*
X771Y2381D02*
X806Y2381D01*
X871Y2381D02*
X906Y2381D01*
X971Y2381D02*
X1006Y2381D01*
X1071Y2381D02*
X1106Y2381D01*
X1171Y2381D02*
X1206Y2381D01*
X1271Y2381D02*
X1306Y2381D01*
X1371Y2381D02*
X1406Y2381D01*
X1471Y2381D02*
X1506Y2381D01*
X770Y2380D02*
X807Y2380D01*
X870Y2380D02*
X907Y2380D01*
X970Y2380D02*
X1007Y2380D01*
X1070Y2380D02*
X1107Y2380D01*
X1170Y2380D02*
X1207Y2380D01*
X1270Y2380D02*
X1307Y2380D01*
X1370Y2380D02*
X1407Y2380D01*
X1470Y2380D02*
X1507Y2380D01*
X769Y2379D02*
X808Y2379D01*
X869Y2379D02*
X908Y2379D01*
X969Y2379D02*
X1008Y2379D01*
X1069Y2379D02*
X1108Y2379D01*
X1169Y2379D02*
X1208Y2379D01*
X1269Y2379D02*
X1308Y2379D01*
X1369Y2379D02*
X1408Y2379D01*
X1469Y2379D02*
X1508Y2379D01*
X768Y2378D02*
X809Y2378D01*
X868Y2378D02*
X909Y2378D01*
X968Y2378D02*
X1009Y2378D01*
X1068Y2378D02*
X1109Y2378D01*
X1168Y2378D02*
X1209Y2378D01*
X1268Y2378D02*
X1309Y2378D01*
X1368Y2378D02*
X1409Y2378D01*
X1468Y2378D02*
X1509Y2378D01*
X767Y2377D02*
X810Y2377D01*
X867Y2377D02*
X910Y2377D01*
X967Y2377D02*
X1010Y2377D01*
X1067Y2377D02*
X1110Y2377D01*
X1167Y2377D02*
X1210Y2377D01*
X1267Y2377D02*
X1310Y2377D01*
X1367Y2377D02*
X1410Y2377D01*
X1467Y2377D02*
X1510Y2377D01*
X766Y2376D02*
X811Y2376D01*
X866Y2376D02*
X911Y2376D01*
X966Y2376D02*
X1011Y2376D01*
X1066Y2376D02*
X1111Y2376D01*
X1166Y2376D02*
X1211Y2376D01*
X1266Y2376D02*
X1311Y2376D01*
X1366Y2376D02*
X1411Y2376D01*
X1466Y2376D02*
X1511Y2376D01*
X765Y2375D02*
X812Y2375D01*
X865Y2375D02*
X912Y2375D01*
X965Y2375D02*
X1012Y2375D01*
X1065Y2375D02*
X1112Y2375D01*
X1165Y2375D02*
X1212Y2375D01*
X1265Y2375D02*
X1312Y2375D01*
X1365Y2375D02*
X1412Y2375D01*
X1465Y2375D02*
X1512Y2375D01*
X764Y2374D02*
X813Y2374D01*
X864Y2374D02*
X913Y2374D01*
X964Y2374D02*
X1013Y2374D01*
X1064Y2374D02*
X1113Y2374D01*
X1164Y2374D02*
X1213Y2374D01*
X1264Y2374D02*
X1313Y2374D01*
X1364Y2374D02*
X1413Y2374D01*
X1464Y2374D02*
X1513Y2374D01*
X763Y2373D02*
X814Y2373D01*
X863Y2373D02*
X914Y2373D01*
X963Y2373D02*
X1014Y2373D01*
X1063Y2373D02*
X1114Y2373D01*
X1163Y2373D02*
X1214Y2373D01*
X1263Y2373D02*
X1314Y2373D01*
X1363Y2373D02*
X1414Y2373D01*
X1463Y2373D02*
X1514Y2373D01*
X763Y2372D02*
X814Y2372D01*
X863Y2372D02*
X914Y2372D01*
X963Y2372D02*
X1014Y2372D01*
X1063Y2372D02*
X1114Y2372D01*
X1163Y2372D02*
X1214Y2372D01*
X1263Y2372D02*
X1314Y2372D01*
X1363Y2372D02*
X1414Y2372D01*
X1463Y2372D02*
X1514Y2372D01*
X762Y2371D02*
X815Y2371D01*
X862Y2371D02*
X915Y2371D01*
X962Y2371D02*
X1015Y2371D01*
X1062Y2371D02*
X1115Y2371D01*
X1162Y2371D02*
X1215Y2371D01*
X1262Y2371D02*
X1315Y2371D01*
X1362Y2371D02*
X1415Y2371D01*
X1462Y2371D02*
X1515Y2371D01*
X762Y2370D02*
X815Y2370D01*
X862Y2370D02*
X915Y2370D01*
X962Y2370D02*
X1015Y2370D01*
X1062Y2370D02*
X1115Y2370D01*
X1162Y2370D02*
X1215Y2370D01*
X1262Y2370D02*
X1315Y2370D01*
X1362Y2370D02*
X1415Y2370D01*
X1462Y2370D02*
X1515Y2370D01*
X761Y2369D02*
X816Y2369D01*
X861Y2369D02*
X916Y2369D01*
X961Y2369D02*
X1016Y2369D01*
X1061Y2369D02*
X1116Y2369D01*
X1161Y2369D02*
X1216Y2369D01*
X1261Y2369D02*
X1316Y2369D01*
X1361Y2369D02*
X1416Y2369D01*
X1461Y2369D02*
X1516Y2369D01*
X761Y2368D02*
X816Y2368D01*
X861Y2368D02*
X916Y2368D01*
X961Y2368D02*
X1016Y2368D01*
X1061Y2368D02*
X1116Y2368D01*
X1161Y2368D02*
X1216Y2368D01*
X1261Y2368D02*
X1316Y2368D01*
X1361Y2368D02*
X1416Y2368D01*
X1461Y2368D02*
X1516Y2368D01*
X760Y2367D02*
X817Y2367D01*
X860Y2367D02*
X917Y2367D01*
X960Y2367D02*
X1017Y2367D01*
X1060Y2367D02*
X1117Y2367D01*
X1160Y2367D02*
X1217Y2367D01*
X1260Y2367D02*
X1317Y2367D01*
X1360Y2367D02*
X1417Y2367D01*
X1460Y2367D02*
X1517Y2367D01*
X760Y2366D02*
X817Y2366D01*
X860Y2366D02*
X917Y2366D01*
X960Y2366D02*
X1017Y2366D01*
X1060Y2366D02*
X1117Y2366D01*
X1160Y2366D02*
X1217Y2366D01*
X1260Y2366D02*
X1317Y2366D01*
X1360Y2366D02*
X1417Y2366D01*
X1460Y2366D02*
X1517Y2366D01*
X760Y2365D02*
X818Y2365D01*
X860Y2365D02*
X918Y2365D01*
X960Y2365D02*
X1017Y2365D01*
X1060Y2365D02*
X1117Y2365D01*
X1160Y2365D02*
X1217Y2365D01*
X1260Y2365D02*
X1317Y2365D01*
X1360Y2365D02*
X1417Y2365D01*
X1460Y2365D02*
X1517Y2365D01*
X759Y2364D02*
X818Y2364D01*
X859Y2364D02*
X918Y2364D01*
X959Y2364D02*
X1018Y2364D01*
X1059Y2364D02*
X1118Y2364D01*
X1159Y2364D02*
X1218Y2364D01*
X1259Y2364D02*
X1318Y2364D01*
X1359Y2364D02*
X1418Y2364D01*
X1459Y2364D02*
X1518Y2364D01*
X759Y2363D02*
X818Y2363D01*
X859Y2363D02*
X918Y2363D01*
X959Y2363D02*
X1018Y2363D01*
X1059Y2363D02*
X1118Y2363D01*
X1159Y2363D02*
X1218Y2363D01*
X1259Y2363D02*
X1318Y2363D01*
X1359Y2363D02*
X1418Y2363D01*
X1459Y2363D02*
X1518Y2363D01*
X759Y2362D02*
X818Y2362D01*
X859Y2362D02*
X918Y2362D01*
X959Y2362D02*
X1018Y2362D01*
X1059Y2362D02*
X1118Y2362D01*
X1159Y2362D02*
X1218Y2362D01*
X1259Y2362D02*
X1318Y2362D01*
X1359Y2362D02*
X1418Y2362D01*
X1459Y2362D02*
X1518Y2362D01*
X759Y2361D02*
X819Y2361D01*
X859Y2361D02*
X918Y2361D01*
X959Y2361D02*
X1018Y2361D01*
X1059Y2361D02*
X1118Y2361D01*
X1159Y2361D02*
X1218Y2361D01*
X1259Y2361D02*
X1318Y2361D01*
X1359Y2361D02*
X1418Y2361D01*
X1459Y2361D02*
X1518Y2361D01*
X758Y2360D02*
X819Y2360D01*
X858Y2360D02*
X919Y2360D01*
X958Y2360D02*
X1019Y2360D01*
X1058Y2360D02*
X1119Y2360D01*
X1158Y2360D02*
X1219Y2360D01*
X1258Y2360D02*
X1319Y2360D01*
X1358Y2360D02*
X1419Y2360D01*
X1458Y2360D02*
X1519Y2360D01*
X758Y2359D02*
X819Y2359D01*
X858Y2359D02*
X919Y2359D01*
X958Y2359D02*
X1019Y2359D01*
X1058Y2359D02*
X1119Y2359D01*
X1158Y2359D02*
X1219Y2359D01*
X1258Y2359D02*
X1319Y2359D01*
X1358Y2359D02*
X1419Y2359D01*
X1458Y2359D02*
X1519Y2359D01*
X758Y2358D02*
X819Y2358D01*
X858Y2358D02*
X919Y2358D01*
X958Y2358D02*
X1019Y2358D01*
X1058Y2358D02*
X1119Y2358D01*
X1158Y2358D02*
X1219Y2358D01*
X1258Y2358D02*
X1319Y2358D01*
X1358Y2358D02*
X1419Y2358D01*
X1458Y2358D02*
X1519Y2358D01*
X758Y2357D02*
X819Y2357D01*
X858Y2357D02*
X919Y2357D01*
X958Y2357D02*
X1019Y2357D01*
X1058Y2357D02*
X1119Y2357D01*
X1158Y2357D02*
X1219Y2357D01*
X1258Y2357D02*
X1319Y2357D01*
X1358Y2357D02*
X1419Y2357D01*
X1458Y2357D02*
X1519Y2357D01*
X758Y2356D02*
X819Y2356D01*
X858Y2356D02*
X919Y2356D01*
X958Y2356D02*
X1019Y2356D01*
X1058Y2356D02*
X1119Y2356D01*
X1158Y2356D02*
X1219Y2356D01*
X1258Y2356D02*
X1319Y2356D01*
X1358Y2356D02*
X1419Y2356D01*
X1458Y2356D02*
X1519Y2356D01*
X758Y2355D02*
X819Y2355D01*
X858Y2355D02*
X919Y2355D01*
X958Y2355D02*
X1019Y2355D01*
X1058Y2355D02*
X1119Y2355D01*
X1158Y2355D02*
X1219Y2355D01*
X1258Y2355D02*
X1319Y2355D01*
X1358Y2355D02*
X1419Y2355D01*
X1458Y2355D02*
X1519Y2355D01*
X758Y2354D02*
X819Y2354D01*
X858Y2354D02*
X919Y2354D01*
X958Y2354D02*
X1019Y2354D01*
X1058Y2354D02*
X1119Y2354D01*
X1158Y2354D02*
X1219Y2354D01*
X1258Y2354D02*
X1319Y2354D01*
X1358Y2354D02*
X1419Y2354D01*
X1458Y2354D02*
X1519Y2354D01*
X758Y2353D02*
X819Y2353D01*
X858Y2353D02*
X919Y2353D01*
X958Y2353D02*
X1019Y2353D01*
X1058Y2353D02*
X1119Y2353D01*
X1158Y2353D02*
X1219Y2353D01*
X1258Y2353D02*
X1319Y2353D01*
X1358Y2353D02*
X1419Y2353D01*
X1458Y2353D02*
X1519Y2353D01*
X758Y2352D02*
X819Y2352D01*
X858Y2352D02*
X919Y2352D01*
X958Y2352D02*
X1019Y2352D01*
X1058Y2352D02*
X1119Y2352D01*
X1158Y2352D02*
X1219Y2352D01*
X1258Y2352D02*
X1319Y2352D01*
X1358Y2352D02*
X1419Y2352D01*
X1458Y2352D02*
X1519Y2352D01*
X758Y2351D02*
X819Y2351D01*
X858Y2351D02*
X919Y2351D01*
X958Y2351D02*
X1019Y2351D01*
X1058Y2351D02*
X1119Y2351D01*
X1158Y2351D02*
X1219Y2351D01*
X1258Y2351D02*
X1319Y2351D01*
X1358Y2351D02*
X1419Y2351D01*
X1458Y2351D02*
X1519Y2351D01*
X758Y2350D02*
X819Y2350D01*
X858Y2350D02*
X919Y2350D01*
X958Y2350D02*
X1019Y2350D01*
X1058Y2350D02*
X1119Y2350D01*
X1158Y2350D02*
X1219Y2350D01*
X1258Y2350D02*
X1319Y2350D01*
X1358Y2350D02*
X1419Y2350D01*
X1458Y2350D02*
X1519Y2350D01*
X758Y2349D02*
X819Y2349D01*
X858Y2349D02*
X919Y2349D01*
X958Y2349D02*
X1019Y2349D01*
X1058Y2349D02*
X1119Y2349D01*
X1158Y2349D02*
X1219Y2349D01*
X1258Y2349D02*
X1319Y2349D01*
X1358Y2349D02*
X1419Y2349D01*
X1458Y2349D02*
X1519Y2349D01*
X758Y2348D02*
X819Y2348D01*
X858Y2348D02*
X919Y2348D01*
X958Y2348D02*
X1019Y2348D01*
X1058Y2348D02*
X1119Y2348D01*
X1158Y2348D02*
X1219Y2348D01*
X1258Y2348D02*
X1319Y2348D01*
X1358Y2348D02*
X1419Y2348D01*
X1458Y2348D02*
X1519Y2348D01*
X758Y2347D02*
X819Y2347D01*
X858Y2347D02*
X919Y2347D01*
X958Y2347D02*
X1019Y2347D01*
X1058Y2347D02*
X1119Y2347D01*
X1158Y2347D02*
X1219Y2347D01*
X1258Y2347D02*
X1319Y2347D01*
X1358Y2347D02*
X1419Y2347D01*
X1458Y2347D02*
X1519Y2347D01*
X758Y2346D02*
X819Y2346D01*
X858Y2346D02*
X919Y2346D01*
X958Y2346D02*
X1019Y2346D01*
X1058Y2346D02*
X1119Y2346D01*
X1158Y2346D02*
X1219Y2346D01*
X1258Y2346D02*
X1319Y2346D01*
X1358Y2346D02*
X1419Y2346D01*
X1458Y2346D02*
X1519Y2346D01*
X758Y2345D02*
X819Y2345D01*
X858Y2345D02*
X919Y2345D01*
X958Y2345D02*
X1019Y2345D01*
X1058Y2345D02*
X1119Y2345D01*
X1158Y2345D02*
X1219Y2345D01*
X1258Y2345D02*
X1319Y2345D01*
X1358Y2345D02*
X1419Y2345D01*
X1458Y2345D02*
X1519Y2345D01*
X758Y2344D02*
X819Y2344D01*
X858Y2344D02*
X919Y2344D01*
X958Y2344D02*
X1019Y2344D01*
X1058Y2344D02*
X1119Y2344D01*
X1158Y2344D02*
X1219Y2344D01*
X1258Y2344D02*
X1319Y2344D01*
X1358Y2344D02*
X1419Y2344D01*
X1458Y2344D02*
X1519Y2344D01*
X758Y2343D02*
X819Y2343D01*
X858Y2343D02*
X919Y2343D01*
X958Y2343D02*
X1019Y2343D01*
X1058Y2343D02*
X1119Y2343D01*
X1158Y2343D02*
X1219Y2343D01*
X1258Y2343D02*
X1319Y2343D01*
X1358Y2343D02*
X1419Y2343D01*
X1458Y2343D02*
X1519Y2343D01*
X758Y2342D02*
X819Y2342D01*
X858Y2342D02*
X919Y2342D01*
X958Y2342D02*
X1019Y2342D01*
X1058Y2342D02*
X1119Y2342D01*
X1158Y2342D02*
X1219Y2342D01*
X1258Y2342D02*
X1319Y2342D01*
X1358Y2342D02*
X1419Y2342D01*
X1458Y2342D02*
X1519Y2342D01*
X758Y2341D02*
X819Y2341D01*
X858Y2341D02*
X919Y2341D01*
X958Y2341D02*
X1019Y2341D01*
X1058Y2341D02*
X1119Y2341D01*
X1158Y2341D02*
X1219Y2341D01*
X1258Y2341D02*
X1319Y2341D01*
X1358Y2341D02*
X1419Y2341D01*
X1458Y2341D02*
X1519Y2341D01*
X758Y2340D02*
X784Y2340D01*
X793Y2340D02*
X819Y2340D01*
X858Y2340D02*
X884Y2340D01*
X893Y2340D02*
X919Y2340D01*
X958Y2340D02*
X984Y2340D01*
X993Y2340D02*
X1019Y2340D01*
X1058Y2340D02*
X1084Y2340D01*
X1093Y2340D02*
X1119Y2340D01*
X1158Y2340D02*
X1184Y2340D01*
X1193Y2340D02*
X1219Y2340D01*
X1258Y2340D02*
X1284Y2340D01*
X1293Y2340D02*
X1319Y2340D01*
X1358Y2340D02*
X1384Y2340D01*
X1393Y2340D02*
X1419Y2340D01*
X1458Y2340D02*
X1484Y2340D01*
X1493Y2340D02*
X1519Y2340D01*
X758Y2339D02*
X782Y2339D01*
X795Y2339D02*
X819Y2339D01*
X858Y2339D02*
X882Y2339D01*
X895Y2339D02*
X919Y2339D01*
X958Y2339D02*
X982Y2339D01*
X995Y2339D02*
X1019Y2339D01*
X1058Y2339D02*
X1082Y2339D01*
X1095Y2339D02*
X1119Y2339D01*
X1158Y2339D02*
X1182Y2339D01*
X1195Y2339D02*
X1219Y2339D01*
X1258Y2339D02*
X1282Y2339D01*
X1295Y2339D02*
X1319Y2339D01*
X1358Y2339D02*
X1382Y2339D01*
X1395Y2339D02*
X1419Y2339D01*
X1458Y2339D02*
X1482Y2339D01*
X1495Y2339D02*
X1519Y2339D01*
X758Y2338D02*
X781Y2338D01*
X796Y2338D02*
X819Y2338D01*
X858Y2338D02*
X881Y2338D01*
X896Y2338D02*
X919Y2338D01*
X958Y2338D02*
X981Y2338D01*
X996Y2338D02*
X1019Y2338D01*
X1058Y2338D02*
X1081Y2338D01*
X1096Y2338D02*
X1119Y2338D01*
X1158Y2338D02*
X1181Y2338D01*
X1196Y2338D02*
X1219Y2338D01*
X1258Y2338D02*
X1281Y2338D01*
X1296Y2338D02*
X1319Y2338D01*
X1358Y2338D02*
X1381Y2338D01*
X1396Y2338D02*
X1419Y2338D01*
X1458Y2338D02*
X1481Y2338D01*
X1496Y2338D02*
X1519Y2338D01*
X758Y2337D02*
X780Y2337D01*
X797Y2337D02*
X819Y2337D01*
X858Y2337D02*
X880Y2337D01*
X897Y2337D02*
X919Y2337D01*
X958Y2337D02*
X980Y2337D01*
X997Y2337D02*
X1019Y2337D01*
X1058Y2337D02*
X1080Y2337D01*
X1097Y2337D02*
X1119Y2337D01*
X1158Y2337D02*
X1180Y2337D01*
X1197Y2337D02*
X1219Y2337D01*
X1258Y2337D02*
X1280Y2337D01*
X1297Y2337D02*
X1319Y2337D01*
X1358Y2337D02*
X1380Y2337D01*
X1397Y2337D02*
X1419Y2337D01*
X1458Y2337D02*
X1480Y2337D01*
X1497Y2337D02*
X1519Y2337D01*
X758Y2336D02*
X779Y2336D01*
X798Y2336D02*
X819Y2336D01*
X858Y2336D02*
X879Y2336D01*
X898Y2336D02*
X919Y2336D01*
X958Y2336D02*
X979Y2336D01*
X998Y2336D02*
X1019Y2336D01*
X1058Y2336D02*
X1079Y2336D01*
X1098Y2336D02*
X1119Y2336D01*
X1158Y2336D02*
X1179Y2336D01*
X1198Y2336D02*
X1219Y2336D01*
X1258Y2336D02*
X1279Y2336D01*
X1298Y2336D02*
X1319Y2336D01*
X1358Y2336D02*
X1379Y2336D01*
X1398Y2336D02*
X1419Y2336D01*
X1458Y2336D02*
X1479Y2336D01*
X1498Y2336D02*
X1519Y2336D01*
X758Y2335D02*
X778Y2335D01*
X799Y2335D02*
X819Y2335D01*
X858Y2335D02*
X878Y2335D01*
X899Y2335D02*
X919Y2335D01*
X958Y2335D02*
X978Y2335D01*
X999Y2335D02*
X1019Y2335D01*
X1058Y2335D02*
X1078Y2335D01*
X1099Y2335D02*
X1119Y2335D01*
X1158Y2335D02*
X1178Y2335D01*
X1199Y2335D02*
X1219Y2335D01*
X1258Y2335D02*
X1278Y2335D01*
X1299Y2335D02*
X1319Y2335D01*
X1358Y2335D02*
X1378Y2335D01*
X1399Y2335D02*
X1419Y2335D01*
X1458Y2335D02*
X1478Y2335D01*
X1499Y2335D02*
X1519Y2335D01*
X758Y2334D02*
X778Y2334D01*
X799Y2334D02*
X819Y2334D01*
X858Y2334D02*
X878Y2334D01*
X899Y2334D02*
X919Y2334D01*
X958Y2334D02*
X978Y2334D01*
X999Y2334D02*
X1019Y2334D01*
X1058Y2334D02*
X1078Y2334D01*
X1099Y2334D02*
X1119Y2334D01*
X1158Y2334D02*
X1178Y2334D01*
X1199Y2334D02*
X1219Y2334D01*
X1258Y2334D02*
X1278Y2334D01*
X1299Y2334D02*
X1319Y2334D01*
X1358Y2334D02*
X1378Y2334D01*
X1399Y2334D02*
X1419Y2334D01*
X1458Y2334D02*
X1478Y2334D01*
X1499Y2334D02*
X1519Y2334D01*
X758Y2333D02*
X778Y2333D01*
X800Y2333D02*
X819Y2333D01*
X858Y2333D02*
X878Y2333D01*
X900Y2333D02*
X919Y2333D01*
X958Y2333D02*
X978Y2333D01*
X1000Y2333D02*
X1019Y2333D01*
X1058Y2333D02*
X1078Y2333D01*
X1100Y2333D02*
X1119Y2333D01*
X1158Y2333D02*
X1178Y2333D01*
X1200Y2333D02*
X1219Y2333D01*
X1258Y2333D02*
X1278Y2333D01*
X1300Y2333D02*
X1319Y2333D01*
X1358Y2333D02*
X1377Y2333D01*
X1400Y2333D02*
X1419Y2333D01*
X1458Y2333D02*
X1477Y2333D01*
X1499Y2333D02*
X1519Y2333D01*
X758Y2332D02*
X777Y2332D01*
X800Y2332D02*
X819Y2332D01*
X858Y2332D02*
X877Y2332D01*
X900Y2332D02*
X919Y2332D01*
X958Y2332D02*
X977Y2332D01*
X1000Y2332D02*
X1019Y2332D01*
X1058Y2332D02*
X1077Y2332D01*
X1100Y2332D02*
X1119Y2332D01*
X1158Y2332D02*
X1177Y2332D01*
X1200Y2332D02*
X1219Y2332D01*
X1258Y2332D02*
X1277Y2332D01*
X1300Y2332D02*
X1319Y2332D01*
X1358Y2332D02*
X1377Y2332D01*
X1400Y2332D02*
X1419Y2332D01*
X1458Y2332D02*
X1477Y2332D01*
X1500Y2332D02*
X1519Y2332D01*
X758Y2331D02*
X777Y2331D01*
X800Y2331D02*
X819Y2331D01*
X858Y2331D02*
X877Y2331D01*
X900Y2331D02*
X919Y2331D01*
X958Y2331D02*
X977Y2331D01*
X1000Y2331D02*
X1019Y2331D01*
X1058Y2331D02*
X1077Y2331D01*
X1100Y2331D02*
X1119Y2331D01*
X1158Y2331D02*
X1177Y2331D01*
X1200Y2331D02*
X1219Y2331D01*
X1258Y2331D02*
X1277Y2331D01*
X1300Y2331D02*
X1319Y2331D01*
X1358Y2331D02*
X1377Y2331D01*
X1400Y2331D02*
X1419Y2331D01*
X1458Y2331D02*
X1477Y2331D01*
X1500Y2331D02*
X1519Y2331D01*
X758Y2330D02*
X777Y2330D01*
X800Y2330D02*
X819Y2330D01*
X858Y2330D02*
X877Y2330D01*
X900Y2330D02*
X919Y2330D01*
X958Y2330D02*
X977Y2330D01*
X1000Y2330D02*
X1019Y2330D01*
X1058Y2330D02*
X1077Y2330D01*
X1100Y2330D02*
X1119Y2330D01*
X1158Y2330D02*
X1177Y2330D01*
X1200Y2330D02*
X1219Y2330D01*
X1258Y2330D02*
X1277Y2330D01*
X1300Y2330D02*
X1319Y2330D01*
X1358Y2330D02*
X1377Y2330D01*
X1400Y2330D02*
X1419Y2330D01*
X1458Y2330D02*
X1477Y2330D01*
X1500Y2330D02*
X1519Y2330D01*
X758Y2329D02*
X777Y2329D01*
X800Y2329D02*
X819Y2329D01*
X858Y2329D02*
X877Y2329D01*
X900Y2329D02*
X919Y2329D01*
X958Y2329D02*
X977Y2329D01*
X1000Y2329D02*
X1019Y2329D01*
X1058Y2329D02*
X1077Y2329D01*
X1100Y2329D02*
X1119Y2329D01*
X1158Y2329D02*
X1177Y2329D01*
X1200Y2329D02*
X1219Y2329D01*
X1258Y2329D02*
X1277Y2329D01*
X1300Y2329D02*
X1319Y2329D01*
X1358Y2329D02*
X1377Y2329D01*
X1400Y2329D02*
X1419Y2329D01*
X1458Y2329D02*
X1477Y2329D01*
X1500Y2329D02*
X1519Y2329D01*
X758Y2328D02*
X777Y2328D01*
X800Y2328D02*
X819Y2328D01*
X858Y2328D02*
X877Y2328D01*
X900Y2328D02*
X919Y2328D01*
X958Y2328D02*
X977Y2328D01*
X1000Y2328D02*
X1019Y2328D01*
X1058Y2328D02*
X1077Y2328D01*
X1100Y2328D02*
X1119Y2328D01*
X1158Y2328D02*
X1177Y2328D01*
X1200Y2328D02*
X1219Y2328D01*
X1258Y2328D02*
X1277Y2328D01*
X1300Y2328D02*
X1319Y2328D01*
X1358Y2328D02*
X1377Y2328D01*
X1400Y2328D02*
X1419Y2328D01*
X1458Y2328D02*
X1477Y2328D01*
X1500Y2328D02*
X1519Y2328D01*
X758Y2327D02*
X777Y2327D01*
X800Y2327D02*
X819Y2327D01*
X858Y2327D02*
X877Y2327D01*
X900Y2327D02*
X919Y2327D01*
X958Y2327D02*
X977Y2327D01*
X1000Y2327D02*
X1019Y2327D01*
X1058Y2327D02*
X1077Y2327D01*
X1100Y2327D02*
X1119Y2327D01*
X1158Y2327D02*
X1177Y2327D01*
X1200Y2327D02*
X1219Y2327D01*
X1258Y2327D02*
X1277Y2327D01*
X1300Y2327D02*
X1319Y2327D01*
X1358Y2327D02*
X1377Y2327D01*
X1400Y2327D02*
X1419Y2327D01*
X1458Y2327D02*
X1477Y2327D01*
X1500Y2327D02*
X1519Y2327D01*
X758Y2326D02*
X778Y2326D01*
X799Y2326D02*
X819Y2326D01*
X858Y2326D02*
X878Y2326D01*
X899Y2326D02*
X919Y2326D01*
X958Y2326D02*
X978Y2326D01*
X999Y2326D02*
X1019Y2326D01*
X1058Y2326D02*
X1078Y2326D01*
X1099Y2326D02*
X1119Y2326D01*
X1158Y2326D02*
X1178Y2326D01*
X1199Y2326D02*
X1219Y2326D01*
X1258Y2326D02*
X1278Y2326D01*
X1299Y2326D02*
X1319Y2326D01*
X1358Y2326D02*
X1378Y2326D01*
X1399Y2326D02*
X1419Y2326D01*
X1458Y2326D02*
X1478Y2326D01*
X1499Y2326D02*
X1519Y2326D01*
X758Y2325D02*
X778Y2325D01*
X799Y2325D02*
X819Y2325D01*
X858Y2325D02*
X878Y2325D01*
X899Y2325D02*
X919Y2325D01*
X958Y2325D02*
X978Y2325D01*
X999Y2325D02*
X1019Y2325D01*
X1058Y2325D02*
X1078Y2325D01*
X1099Y2325D02*
X1119Y2325D01*
X1158Y2325D02*
X1178Y2325D01*
X1199Y2325D02*
X1219Y2325D01*
X1258Y2325D02*
X1278Y2325D01*
X1299Y2325D02*
X1319Y2325D01*
X1358Y2325D02*
X1378Y2325D01*
X1399Y2325D02*
X1419Y2325D01*
X1458Y2325D02*
X1478Y2325D01*
X1499Y2325D02*
X1519Y2325D01*
X758Y2324D02*
X779Y2324D01*
X799Y2324D02*
X819Y2324D01*
X858Y2324D02*
X879Y2324D01*
X899Y2324D02*
X919Y2324D01*
X958Y2324D02*
X979Y2324D01*
X998Y2324D02*
X1019Y2324D01*
X1058Y2324D02*
X1079Y2324D01*
X1098Y2324D02*
X1119Y2324D01*
X1158Y2324D02*
X1179Y2324D01*
X1198Y2324D02*
X1219Y2324D01*
X1258Y2324D02*
X1279Y2324D01*
X1298Y2324D02*
X1319Y2324D01*
X1358Y2324D02*
X1379Y2324D01*
X1398Y2324D02*
X1419Y2324D01*
X1458Y2324D02*
X1479Y2324D01*
X1498Y2324D02*
X1519Y2324D01*
X758Y2323D02*
X779Y2323D01*
X798Y2323D02*
X819Y2323D01*
X858Y2323D02*
X879Y2323D01*
X898Y2323D02*
X919Y2323D01*
X958Y2323D02*
X979Y2323D01*
X998Y2323D02*
X1019Y2323D01*
X1058Y2323D02*
X1079Y2323D01*
X1098Y2323D02*
X1119Y2323D01*
X1158Y2323D02*
X1179Y2323D01*
X1198Y2323D02*
X1219Y2323D01*
X1258Y2323D02*
X1279Y2323D01*
X1298Y2323D02*
X1319Y2323D01*
X1358Y2323D02*
X1379Y2323D01*
X1398Y2323D02*
X1419Y2323D01*
X1458Y2323D02*
X1479Y2323D01*
X1498Y2323D02*
X1519Y2323D01*
X758Y2322D02*
X780Y2322D01*
X797Y2322D02*
X819Y2322D01*
X858Y2322D02*
X880Y2322D01*
X897Y2322D02*
X919Y2322D01*
X958Y2322D02*
X980Y2322D01*
X997Y2322D02*
X1019Y2322D01*
X1058Y2322D02*
X1080Y2322D01*
X1097Y2322D02*
X1119Y2322D01*
X1158Y2322D02*
X1180Y2322D01*
X1197Y2322D02*
X1219Y2322D01*
X1258Y2322D02*
X1280Y2322D01*
X1297Y2322D02*
X1319Y2322D01*
X1358Y2322D02*
X1380Y2322D01*
X1397Y2322D02*
X1419Y2322D01*
X1458Y2322D02*
X1480Y2322D01*
X1497Y2322D02*
X1519Y2322D01*
X758Y2321D02*
X781Y2321D01*
X796Y2321D02*
X819Y2321D01*
X858Y2321D02*
X881Y2321D01*
X896Y2321D02*
X919Y2321D01*
X958Y2321D02*
X981Y2321D01*
X996Y2321D02*
X1019Y2321D01*
X1058Y2321D02*
X1081Y2321D01*
X1096Y2321D02*
X1119Y2321D01*
X1158Y2321D02*
X1181Y2321D01*
X1196Y2321D02*
X1219Y2321D01*
X1258Y2321D02*
X1281Y2321D01*
X1296Y2321D02*
X1319Y2321D01*
X1358Y2321D02*
X1381Y2321D01*
X1396Y2321D02*
X1419Y2321D01*
X1458Y2321D02*
X1481Y2321D01*
X1496Y2321D02*
X1519Y2321D01*
X758Y2320D02*
X783Y2320D01*
X794Y2320D02*
X819Y2320D01*
X858Y2320D02*
X883Y2320D01*
X894Y2320D02*
X919Y2320D01*
X958Y2320D02*
X983Y2320D01*
X994Y2320D02*
X1019Y2320D01*
X1058Y2320D02*
X1083Y2320D01*
X1094Y2320D02*
X1119Y2320D01*
X1158Y2320D02*
X1183Y2320D01*
X1194Y2320D02*
X1219Y2320D01*
X1258Y2320D02*
X1283Y2320D01*
X1294Y2320D02*
X1319Y2320D01*
X1358Y2320D02*
X1383Y2320D01*
X1394Y2320D02*
X1419Y2320D01*
X1458Y2320D02*
X1483Y2320D01*
X1494Y2320D02*
X1519Y2320D01*
X758Y2319D02*
X785Y2319D01*
X792Y2319D02*
X819Y2319D01*
X858Y2319D02*
X885Y2319D01*
X892Y2319D02*
X919Y2319D01*
X958Y2319D02*
X985Y2319D01*
X992Y2319D02*
X1019Y2319D01*
X1058Y2319D02*
X1085Y2319D01*
X1092Y2319D02*
X1119Y2319D01*
X1158Y2319D02*
X1185Y2319D01*
X1192Y2319D02*
X1219Y2319D01*
X1258Y2319D02*
X1285Y2319D01*
X1292Y2319D02*
X1319Y2319D01*
X1358Y2319D02*
X1385Y2319D01*
X1392Y2319D02*
X1419Y2319D01*
X1458Y2319D02*
X1485Y2319D01*
X1492Y2319D02*
X1519Y2319D01*
X758Y2318D02*
X819Y2318D01*
X858Y2318D02*
X919Y2318D01*
X958Y2318D02*
X1019Y2318D01*
X1058Y2318D02*
X1119Y2318D01*
X1158Y2318D02*
X1219Y2318D01*
X1258Y2318D02*
X1319Y2318D01*
X1358Y2318D02*
X1419Y2318D01*
X1458Y2318D02*
X1519Y2318D01*
X758Y2317D02*
X819Y2317D01*
X858Y2317D02*
X919Y2317D01*
X958Y2317D02*
X1019Y2317D01*
X1058Y2317D02*
X1119Y2317D01*
X1158Y2317D02*
X1219Y2317D01*
X1258Y2317D02*
X1319Y2317D01*
X1358Y2317D02*
X1419Y2317D01*
X1458Y2317D02*
X1519Y2317D01*
X758Y2316D02*
X819Y2316D01*
X858Y2316D02*
X919Y2316D01*
X958Y2316D02*
X1019Y2316D01*
X1058Y2316D02*
X1119Y2316D01*
X1158Y2316D02*
X1219Y2316D01*
X1258Y2316D02*
X1319Y2316D01*
X1358Y2316D02*
X1419Y2316D01*
X1458Y2316D02*
X1519Y2316D01*
X758Y2315D02*
X819Y2315D01*
X858Y2315D02*
X919Y2315D01*
X958Y2315D02*
X1019Y2315D01*
X1058Y2315D02*
X1119Y2315D01*
X1158Y2315D02*
X1219Y2315D01*
X1258Y2315D02*
X1319Y2315D01*
X1358Y2315D02*
X1419Y2315D01*
X1458Y2315D02*
X1519Y2315D01*
X758Y2314D02*
X819Y2314D01*
X858Y2314D02*
X919Y2314D01*
X958Y2314D02*
X1019Y2314D01*
X1058Y2314D02*
X1119Y2314D01*
X1158Y2314D02*
X1219Y2314D01*
X1258Y2314D02*
X1319Y2314D01*
X1358Y2314D02*
X1419Y2314D01*
X1458Y2314D02*
X1519Y2314D01*
X758Y2313D02*
X819Y2313D01*
X858Y2313D02*
X919Y2313D01*
X958Y2313D02*
X1019Y2313D01*
X1058Y2313D02*
X1119Y2313D01*
X1158Y2313D02*
X1219Y2313D01*
X1258Y2313D02*
X1319Y2313D01*
X1358Y2313D02*
X1419Y2313D01*
X1458Y2313D02*
X1519Y2313D01*
X758Y2312D02*
X819Y2312D01*
X858Y2312D02*
X919Y2312D01*
X958Y2312D02*
X1019Y2312D01*
X1058Y2312D02*
X1119Y2312D01*
X1158Y2312D02*
X1219Y2312D01*
X1258Y2312D02*
X1319Y2312D01*
X1358Y2312D02*
X1419Y2312D01*
X1458Y2312D02*
X1519Y2312D01*
X758Y2311D02*
X819Y2311D01*
X858Y2311D02*
X919Y2311D01*
X958Y2311D02*
X1019Y2311D01*
X1058Y2311D02*
X1119Y2311D01*
X1158Y2311D02*
X1219Y2311D01*
X1258Y2311D02*
X1319Y2311D01*
X1358Y2311D02*
X1419Y2311D01*
X1458Y2311D02*
X1519Y2311D01*
X758Y2310D02*
X819Y2310D01*
X858Y2310D02*
X919Y2310D01*
X958Y2310D02*
X1019Y2310D01*
X1058Y2310D02*
X1119Y2310D01*
X1158Y2310D02*
X1219Y2310D01*
X1258Y2310D02*
X1319Y2310D01*
X1358Y2310D02*
X1419Y2310D01*
X1458Y2310D02*
X1519Y2310D01*
X758Y2309D02*
X819Y2309D01*
X858Y2309D02*
X919Y2309D01*
X958Y2309D02*
X1019Y2309D01*
X1058Y2309D02*
X1119Y2309D01*
X1158Y2309D02*
X1219Y2309D01*
X1258Y2309D02*
X1319Y2309D01*
X1358Y2309D02*
X1419Y2309D01*
X1458Y2309D02*
X1519Y2309D01*
X758Y2308D02*
X819Y2308D01*
X858Y2308D02*
X919Y2308D01*
X958Y2308D02*
X1019Y2308D01*
X1058Y2308D02*
X1119Y2308D01*
X1158Y2308D02*
X1219Y2308D01*
X1258Y2308D02*
X1319Y2308D01*
X1358Y2308D02*
X1419Y2308D01*
X1458Y2308D02*
X1519Y2308D01*
X758Y2307D02*
X819Y2307D01*
X858Y2307D02*
X919Y2307D01*
X958Y2307D02*
X1019Y2307D01*
X1058Y2307D02*
X1119Y2307D01*
X1158Y2307D02*
X1219Y2307D01*
X1258Y2307D02*
X1319Y2307D01*
X1358Y2307D02*
X1419Y2307D01*
X1458Y2307D02*
X1519Y2307D01*
X758Y2306D02*
X819Y2306D01*
X858Y2306D02*
X919Y2306D01*
X958Y2306D02*
X1019Y2306D01*
X1058Y2306D02*
X1119Y2306D01*
X1158Y2306D02*
X1219Y2306D01*
X1258Y2306D02*
X1319Y2306D01*
X1358Y2306D02*
X1419Y2306D01*
X1458Y2306D02*
X1519Y2306D01*
X758Y2305D02*
X819Y2305D01*
X858Y2305D02*
X919Y2305D01*
X958Y2305D02*
X1019Y2305D01*
X1058Y2305D02*
X1119Y2305D01*
X1158Y2305D02*
X1219Y2305D01*
X1258Y2305D02*
X1319Y2305D01*
X1358Y2305D02*
X1419Y2305D01*
X1458Y2305D02*
X1519Y2305D01*
X758Y2304D02*
X819Y2304D01*
X858Y2304D02*
X919Y2304D01*
X958Y2304D02*
X1019Y2304D01*
X1058Y2304D02*
X1119Y2304D01*
X1158Y2304D02*
X1219Y2304D01*
X1258Y2304D02*
X1319Y2304D01*
X1358Y2304D02*
X1419Y2304D01*
X1458Y2304D02*
X1519Y2304D01*
X758Y2303D02*
X819Y2303D01*
X858Y2303D02*
X919Y2303D01*
X958Y2303D02*
X1019Y2303D01*
X1058Y2303D02*
X1119Y2303D01*
X1158Y2303D02*
X1219Y2303D01*
X1258Y2303D02*
X1319Y2303D01*
X1358Y2303D02*
X1419Y2303D01*
X1458Y2303D02*
X1519Y2303D01*
X758Y2302D02*
X819Y2302D01*
X858Y2302D02*
X919Y2302D01*
X958Y2302D02*
X1019Y2302D01*
X1058Y2302D02*
X1119Y2302D01*
X1158Y2302D02*
X1219Y2302D01*
X1258Y2302D02*
X1319Y2302D01*
X1358Y2302D02*
X1419Y2302D01*
X1458Y2302D02*
X1519Y2302D01*
X758Y2301D02*
X819Y2301D01*
X858Y2301D02*
X919Y2301D01*
X958Y2301D02*
X1019Y2301D01*
X1058Y2301D02*
X1119Y2301D01*
X1158Y2301D02*
X1219Y2301D01*
X1258Y2301D02*
X1319Y2301D01*
X1358Y2301D02*
X1419Y2301D01*
X1458Y2301D02*
X1519Y2301D01*
X758Y2300D02*
X819Y2300D01*
X858Y2300D02*
X919Y2300D01*
X958Y2300D02*
X1019Y2300D01*
X1058Y2300D02*
X1119Y2300D01*
X1158Y2300D02*
X1219Y2300D01*
X1258Y2300D02*
X1319Y2300D01*
X1358Y2300D02*
X1419Y2300D01*
X1458Y2300D02*
X1519Y2300D01*
X758Y2299D02*
X819Y2299D01*
X858Y2299D02*
X919Y2299D01*
X958Y2299D02*
X1019Y2299D01*
X1058Y2299D02*
X1119Y2299D01*
X1158Y2299D02*
X1219Y2299D01*
X1258Y2299D02*
X1319Y2299D01*
X1358Y2299D02*
X1419Y2299D01*
X1458Y2299D02*
X1519Y2299D01*
X759Y2298D02*
X818Y2298D01*
X859Y2298D02*
X918Y2298D01*
X959Y2298D02*
X1018Y2298D01*
X1059Y2298D02*
X1118Y2298D01*
X1159Y2298D02*
X1218Y2298D01*
X1259Y2298D02*
X1318Y2298D01*
X1359Y2298D02*
X1418Y2298D01*
X1459Y2298D02*
X1518Y2298D01*
X759Y2297D02*
X818Y2297D01*
X859Y2297D02*
X918Y2297D01*
X959Y2297D02*
X1018Y2297D01*
X1059Y2297D02*
X1118Y2297D01*
X1159Y2297D02*
X1218Y2297D01*
X1259Y2297D02*
X1318Y2297D01*
X1359Y2297D02*
X1418Y2297D01*
X1459Y2297D02*
X1518Y2297D01*
X759Y2296D02*
X818Y2296D01*
X859Y2296D02*
X918Y2296D01*
X959Y2296D02*
X1018Y2296D01*
X1059Y2296D02*
X1118Y2296D01*
X1159Y2296D02*
X1218Y2296D01*
X1259Y2296D02*
X1318Y2296D01*
X1359Y2296D02*
X1418Y2296D01*
X1459Y2296D02*
X1518Y2296D01*
X759Y2295D02*
X818Y2295D01*
X859Y2295D02*
X918Y2295D01*
X959Y2295D02*
X1018Y2295D01*
X1059Y2295D02*
X1118Y2295D01*
X1159Y2295D02*
X1218Y2295D01*
X1259Y2295D02*
X1318Y2295D01*
X1359Y2295D02*
X1418Y2295D01*
X1459Y2295D02*
X1518Y2295D01*
X760Y2294D02*
X817Y2294D01*
X860Y2294D02*
X917Y2294D01*
X960Y2294D02*
X1017Y2294D01*
X1060Y2294D02*
X1117Y2294D01*
X1160Y2294D02*
X1217Y2294D01*
X1260Y2294D02*
X1317Y2294D01*
X1360Y2294D02*
X1417Y2294D01*
X1460Y2294D02*
X1517Y2294D01*
X760Y2293D02*
X817Y2293D01*
X860Y2293D02*
X917Y2293D01*
X960Y2293D02*
X1017Y2293D01*
X1060Y2293D02*
X1117Y2293D01*
X1160Y2293D02*
X1217Y2293D01*
X1260Y2293D02*
X1317Y2293D01*
X1360Y2293D02*
X1417Y2293D01*
X1460Y2293D02*
X1517Y2293D01*
X760Y2292D02*
X817Y2292D01*
X860Y2292D02*
X917Y2292D01*
X960Y2292D02*
X1017Y2292D01*
X1060Y2292D02*
X1117Y2292D01*
X1160Y2292D02*
X1217Y2292D01*
X1260Y2292D02*
X1317Y2292D01*
X1360Y2292D02*
X1417Y2292D01*
X1460Y2292D02*
X1517Y2292D01*
X761Y2291D02*
X816Y2291D01*
X861Y2291D02*
X916Y2291D01*
X961Y2291D02*
X1016Y2291D01*
X1061Y2291D02*
X1116Y2291D01*
X1161Y2291D02*
X1216Y2291D01*
X1261Y2291D02*
X1316Y2291D01*
X1361Y2291D02*
X1416Y2291D01*
X1461Y2291D02*
X1516Y2291D01*
X761Y2290D02*
X816Y2290D01*
X861Y2290D02*
X916Y2290D01*
X961Y2290D02*
X1016Y2290D01*
X1061Y2290D02*
X1116Y2290D01*
X1161Y2290D02*
X1216Y2290D01*
X1261Y2290D02*
X1316Y2290D01*
X1361Y2290D02*
X1416Y2290D01*
X1461Y2290D02*
X1516Y2290D01*
X762Y2289D02*
X815Y2289D01*
X862Y2289D02*
X915Y2289D01*
X962Y2289D02*
X1015Y2289D01*
X1062Y2289D02*
X1115Y2289D01*
X1162Y2289D02*
X1215Y2289D01*
X1262Y2289D02*
X1315Y2289D01*
X1362Y2289D02*
X1415Y2289D01*
X1462Y2289D02*
X1515Y2289D01*
X762Y2288D02*
X815Y2288D01*
X862Y2288D02*
X915Y2288D01*
X962Y2288D02*
X1015Y2288D01*
X1062Y2288D02*
X1115Y2288D01*
X1162Y2288D02*
X1215Y2288D01*
X1262Y2288D02*
X1315Y2288D01*
X1362Y2288D02*
X1415Y2288D01*
X1462Y2288D02*
X1515Y2288D01*
X763Y2287D02*
X814Y2287D01*
X863Y2287D02*
X914Y2287D01*
X963Y2287D02*
X1014Y2287D01*
X1063Y2287D02*
X1114Y2287D01*
X1163Y2287D02*
X1214Y2287D01*
X1263Y2287D02*
X1314Y2287D01*
X1363Y2287D02*
X1414Y2287D01*
X1463Y2287D02*
X1514Y2287D01*
X764Y2286D02*
X813Y2286D01*
X864Y2286D02*
X913Y2286D01*
X964Y2286D02*
X1013Y2286D01*
X1064Y2286D02*
X1113Y2286D01*
X1164Y2286D02*
X1213Y2286D01*
X1264Y2286D02*
X1313Y2286D01*
X1364Y2286D02*
X1413Y2286D01*
X1464Y2286D02*
X1513Y2286D01*
X764Y2285D02*
X813Y2285D01*
X864Y2285D02*
X913Y2285D01*
X964Y2285D02*
X1013Y2285D01*
X1064Y2285D02*
X1113Y2285D01*
X1164Y2285D02*
X1213Y2285D01*
X1264Y2285D02*
X1313Y2285D01*
X1364Y2285D02*
X1413Y2285D01*
X1464Y2285D02*
X1513Y2285D01*
X765Y2284D02*
X812Y2284D01*
X865Y2284D02*
X912Y2284D01*
X965Y2284D02*
X1012Y2284D01*
X1065Y2284D02*
X1112Y2284D01*
X1165Y2284D02*
X1212Y2284D01*
X1265Y2284D02*
X1312Y2284D01*
X1365Y2284D02*
X1412Y2284D01*
X1465Y2284D02*
X1512Y2284D01*
X766Y2283D02*
X811Y2283D01*
X866Y2283D02*
X911Y2283D01*
X966Y2283D02*
X1011Y2283D01*
X1066Y2283D02*
X1111Y2283D01*
X1166Y2283D02*
X1211Y2283D01*
X1266Y2283D02*
X1311Y2283D01*
X1366Y2283D02*
X1411Y2283D01*
X1466Y2283D02*
X1511Y2283D01*
X767Y2282D02*
X810Y2282D01*
X867Y2282D02*
X910Y2282D01*
X967Y2282D02*
X1010Y2282D01*
X1067Y2282D02*
X1110Y2282D01*
X1167Y2282D02*
X1210Y2282D01*
X1267Y2282D02*
X1310Y2282D01*
X1367Y2282D02*
X1410Y2282D01*
X1467Y2282D02*
X1510Y2282D01*
X768Y2281D02*
X809Y2281D01*
X868Y2281D02*
X909Y2281D01*
X968Y2281D02*
X1009Y2281D01*
X1068Y2281D02*
X1109Y2281D01*
X1168Y2281D02*
X1209Y2281D01*
X1268Y2281D02*
X1309Y2281D01*
X1368Y2281D02*
X1409Y2281D01*
X1468Y2281D02*
X1509Y2281D01*
X769Y2280D02*
X808Y2280D01*
X869Y2280D02*
X908Y2280D01*
X969Y2280D02*
X1008Y2280D01*
X1069Y2280D02*
X1108Y2280D01*
X1169Y2280D02*
X1208Y2280D01*
X1269Y2280D02*
X1308Y2280D01*
X1369Y2280D02*
X1408Y2280D01*
X1469Y2280D02*
X1508Y2280D01*
X770Y2279D02*
X807Y2279D01*
X870Y2279D02*
X907Y2279D01*
X970Y2279D02*
X1007Y2279D01*
X1070Y2279D02*
X1107Y2279D01*
X1170Y2279D02*
X1207Y2279D01*
X1270Y2279D02*
X1307Y2279D01*
X1370Y2279D02*
X1407Y2279D01*
X1470Y2279D02*
X1507Y2279D01*
X772Y2278D02*
X805Y2278D01*
X872Y2278D02*
X905Y2278D01*
X972Y2278D02*
X1005Y2278D01*
X1072Y2278D02*
X1105Y2278D01*
X1172Y2278D02*
X1205Y2278D01*
X1272Y2278D02*
X1305Y2278D01*
X1372Y2278D02*
X1405Y2278D01*
X1472Y2278D02*
X1505Y2278D01*
X773Y2277D02*
X804Y2277D01*
X873Y2277D02*
X904Y2277D01*
X973Y2277D02*
X1004Y2277D01*
X1073Y2277D02*
X1104Y2277D01*
X1173Y2277D02*
X1204Y2277D01*
X1273Y2277D02*
X1304Y2277D01*
X1373Y2277D02*
X1404Y2277D01*
X1473Y2277D02*
X1504Y2277D01*
X775Y2276D02*
X802Y2276D01*
X875Y2276D02*
X902Y2276D01*
X975Y2276D02*
X1002Y2276D01*
X1075Y2276D02*
X1102Y2276D01*
X1175Y2276D02*
X1202Y2276D01*
X1275Y2276D02*
X1302Y2276D01*
X1375Y2276D02*
X1402Y2276D01*
X1475Y2276D02*
X1502Y2276D01*
X778Y2275D02*
X800Y2275D01*
X877Y2275D02*
X900Y2275D01*
X977Y2275D02*
X1000Y2275D01*
X1077Y2275D02*
X1100Y2275D01*
X1177Y2275D02*
X1200Y2275D01*
X1277Y2275D02*
X1300Y2275D01*
X1377Y2275D02*
X1400Y2275D01*
X1477Y2275D02*
X1500Y2275D01*
X780Y2274D02*
X797Y2274D01*
X880Y2274D02*
X897Y2274D01*
X980Y2274D02*
X997Y2274D01*
X1080Y2274D02*
X1097Y2274D01*
X1180Y2274D02*
X1197Y2274D01*
X1280Y2274D02*
X1297Y2274D01*
X1380Y2274D02*
X1397Y2274D01*
X1480Y2274D02*
X1497Y2274D01*
X785Y2273D02*
X792Y2273D01*
X885Y2273D02*
X892Y2273D01*
X985Y2273D02*
X992Y2273D01*
X1085Y2273D02*
X1092Y2273D01*
X1185Y2273D02*
X1192Y2273D01*
X1285Y2273D02*
X1292Y2273D01*
X1385Y2273D02*
X1392Y2273D01*
X1485Y2273D02*
X1492Y2273D01*
X783Y2086D02*
X794Y2086D01*
X883Y2086D02*
X894Y2086D01*
X983Y2086D02*
X994Y2086D01*
X1083Y2086D02*
X1094Y2086D01*
X1183Y2086D02*
X1194Y2086D01*
X1283Y2086D02*
X1294Y2086D01*
X1383Y2086D02*
X1394Y2086D01*
X1483Y2086D02*
X1494Y2086D01*
X779Y2085D02*
X798Y2085D01*
X879Y2085D02*
X898Y2085D01*
X979Y2085D02*
X998Y2085D01*
X1079Y2085D02*
X1098Y2085D01*
X1179Y2085D02*
X1198Y2085D01*
X1279Y2085D02*
X1298Y2085D01*
X1379Y2085D02*
X1398Y2085D01*
X1479Y2085D02*
X1498Y2085D01*
X777Y2084D02*
X800Y2084D01*
X877Y2084D02*
X900Y2084D01*
X977Y2084D02*
X1000Y2084D01*
X1077Y2084D02*
X1100Y2084D01*
X1177Y2084D02*
X1200Y2084D01*
X1277Y2084D02*
X1300Y2084D01*
X1377Y2084D02*
X1400Y2084D01*
X1477Y2084D02*
X1500Y2084D01*
X775Y2083D02*
X802Y2083D01*
X875Y2083D02*
X902Y2083D01*
X975Y2083D02*
X1002Y2083D01*
X1075Y2083D02*
X1102Y2083D01*
X1175Y2083D02*
X1202Y2083D01*
X1275Y2083D02*
X1302Y2083D01*
X1375Y2083D02*
X1402Y2083D01*
X1475Y2083D02*
X1502Y2083D01*
X773Y2082D02*
X804Y2082D01*
X873Y2082D02*
X904Y2082D01*
X973Y2082D02*
X1004Y2082D01*
X1073Y2082D02*
X1104Y2082D01*
X1173Y2082D02*
X1204Y2082D01*
X1273Y2082D02*
X1304Y2082D01*
X1373Y2082D02*
X1404Y2082D01*
X1473Y2082D02*
X1504Y2082D01*
X771Y2081D02*
X806Y2081D01*
X871Y2081D02*
X906Y2081D01*
X971Y2081D02*
X1006Y2081D01*
X1071Y2081D02*
X1106Y2081D01*
X1171Y2081D02*
X1206Y2081D01*
X1271Y2081D02*
X1306Y2081D01*
X1371Y2081D02*
X1406Y2081D01*
X1471Y2081D02*
X1506Y2081D01*
X770Y2080D02*
X807Y2080D01*
X870Y2080D02*
X907Y2080D01*
X970Y2080D02*
X1007Y2080D01*
X1070Y2080D02*
X1107Y2080D01*
X1170Y2080D02*
X1207Y2080D01*
X1270Y2080D02*
X1307Y2080D01*
X1370Y2080D02*
X1407Y2080D01*
X1470Y2080D02*
X1507Y2080D01*
X769Y2079D02*
X808Y2079D01*
X869Y2079D02*
X908Y2079D01*
X969Y2079D02*
X1008Y2079D01*
X1069Y2079D02*
X1108Y2079D01*
X1169Y2079D02*
X1208Y2079D01*
X1269Y2079D02*
X1308Y2079D01*
X1369Y2079D02*
X1408Y2079D01*
X1469Y2079D02*
X1508Y2079D01*
X768Y2078D02*
X809Y2078D01*
X868Y2078D02*
X909Y2078D01*
X968Y2078D02*
X1009Y2078D01*
X1068Y2078D02*
X1109Y2078D01*
X1168Y2078D02*
X1209Y2078D01*
X1268Y2078D02*
X1309Y2078D01*
X1368Y2078D02*
X1409Y2078D01*
X1468Y2078D02*
X1509Y2078D01*
X767Y2077D02*
X810Y2077D01*
X867Y2077D02*
X910Y2077D01*
X967Y2077D02*
X1010Y2077D01*
X1067Y2077D02*
X1110Y2077D01*
X1167Y2077D02*
X1210Y2077D01*
X1267Y2077D02*
X1310Y2077D01*
X1367Y2077D02*
X1410Y2077D01*
X1467Y2077D02*
X1510Y2077D01*
X766Y2076D02*
X811Y2076D01*
X866Y2076D02*
X911Y2076D01*
X966Y2076D02*
X1011Y2076D01*
X1066Y2076D02*
X1111Y2076D01*
X1166Y2076D02*
X1211Y2076D01*
X1266Y2076D02*
X1311Y2076D01*
X1366Y2076D02*
X1411Y2076D01*
X1466Y2076D02*
X1511Y2076D01*
X765Y2075D02*
X812Y2075D01*
X865Y2075D02*
X912Y2075D01*
X965Y2075D02*
X1012Y2075D01*
X1065Y2075D02*
X1112Y2075D01*
X1165Y2075D02*
X1212Y2075D01*
X1265Y2075D02*
X1312Y2075D01*
X1365Y2075D02*
X1412Y2075D01*
X1465Y2075D02*
X1512Y2075D01*
X764Y2074D02*
X813Y2074D01*
X864Y2074D02*
X913Y2074D01*
X964Y2074D02*
X1013Y2074D01*
X1064Y2074D02*
X1113Y2074D01*
X1164Y2074D02*
X1213Y2074D01*
X1264Y2074D02*
X1313Y2074D01*
X1364Y2074D02*
X1413Y2074D01*
X1464Y2074D02*
X1513Y2074D01*
X763Y2073D02*
X814Y2073D01*
X863Y2073D02*
X914Y2073D01*
X963Y2073D02*
X1014Y2073D01*
X1063Y2073D02*
X1114Y2073D01*
X1163Y2073D02*
X1214Y2073D01*
X1263Y2073D02*
X1314Y2073D01*
X1363Y2073D02*
X1414Y2073D01*
X1463Y2073D02*
X1514Y2073D01*
X763Y2072D02*
X814Y2072D01*
X863Y2072D02*
X914Y2072D01*
X963Y2072D02*
X1014Y2072D01*
X1063Y2072D02*
X1114Y2072D01*
X1163Y2072D02*
X1214Y2072D01*
X1263Y2072D02*
X1314Y2072D01*
X1363Y2072D02*
X1414Y2072D01*
X1463Y2072D02*
X1514Y2072D01*
X762Y2071D02*
X815Y2071D01*
X862Y2071D02*
X915Y2071D01*
X962Y2071D02*
X1015Y2071D01*
X1062Y2071D02*
X1115Y2071D01*
X1162Y2071D02*
X1215Y2071D01*
X1262Y2071D02*
X1315Y2071D01*
X1362Y2071D02*
X1415Y2071D01*
X1462Y2071D02*
X1515Y2071D01*
X762Y2070D02*
X815Y2070D01*
X862Y2070D02*
X915Y2070D01*
X962Y2070D02*
X1015Y2070D01*
X1062Y2070D02*
X1115Y2070D01*
X1162Y2070D02*
X1215Y2070D01*
X1262Y2070D02*
X1315Y2070D01*
X1362Y2070D02*
X1415Y2070D01*
X1462Y2070D02*
X1515Y2070D01*
X761Y2069D02*
X816Y2069D01*
X861Y2069D02*
X916Y2069D01*
X961Y2069D02*
X1016Y2069D01*
X1061Y2069D02*
X1116Y2069D01*
X1161Y2069D02*
X1216Y2069D01*
X1261Y2069D02*
X1316Y2069D01*
X1361Y2069D02*
X1416Y2069D01*
X1461Y2069D02*
X1516Y2069D01*
X761Y2068D02*
X816Y2068D01*
X861Y2068D02*
X916Y2068D01*
X961Y2068D02*
X1016Y2068D01*
X1061Y2068D02*
X1116Y2068D01*
X1161Y2068D02*
X1216Y2068D01*
X1261Y2068D02*
X1316Y2068D01*
X1361Y2068D02*
X1416Y2068D01*
X1461Y2068D02*
X1516Y2068D01*
X760Y2067D02*
X817Y2067D01*
X860Y2067D02*
X917Y2067D01*
X960Y2067D02*
X1017Y2067D01*
X1060Y2067D02*
X1117Y2067D01*
X1160Y2067D02*
X1217Y2067D01*
X1260Y2067D02*
X1317Y2067D01*
X1360Y2067D02*
X1417Y2067D01*
X1460Y2067D02*
X1517Y2067D01*
X760Y2066D02*
X817Y2066D01*
X860Y2066D02*
X917Y2066D01*
X960Y2066D02*
X1017Y2066D01*
X1060Y2066D02*
X1117Y2066D01*
X1160Y2066D02*
X1217Y2066D01*
X1260Y2066D02*
X1317Y2066D01*
X1360Y2066D02*
X1417Y2066D01*
X1460Y2066D02*
X1517Y2066D01*
X760Y2065D02*
X818Y2065D01*
X860Y2065D02*
X918Y2065D01*
X960Y2065D02*
X1017Y2065D01*
X1060Y2065D02*
X1117Y2065D01*
X1160Y2065D02*
X1217Y2065D01*
X1260Y2065D02*
X1317Y2065D01*
X1360Y2065D02*
X1417Y2065D01*
X1460Y2065D02*
X1517Y2065D01*
X759Y2064D02*
X818Y2064D01*
X859Y2064D02*
X918Y2064D01*
X959Y2064D02*
X1018Y2064D01*
X1059Y2064D02*
X1118Y2064D01*
X1159Y2064D02*
X1218Y2064D01*
X1259Y2064D02*
X1318Y2064D01*
X1359Y2064D02*
X1418Y2064D01*
X1459Y2064D02*
X1518Y2064D01*
X759Y2063D02*
X818Y2063D01*
X859Y2063D02*
X918Y2063D01*
X959Y2063D02*
X1018Y2063D01*
X1059Y2063D02*
X1118Y2063D01*
X1159Y2063D02*
X1218Y2063D01*
X1259Y2063D02*
X1318Y2063D01*
X1359Y2063D02*
X1418Y2063D01*
X1459Y2063D02*
X1518Y2063D01*
X759Y2062D02*
X818Y2062D01*
X859Y2062D02*
X918Y2062D01*
X959Y2062D02*
X1018Y2062D01*
X1059Y2062D02*
X1118Y2062D01*
X1159Y2062D02*
X1218Y2062D01*
X1259Y2062D02*
X1318Y2062D01*
X1359Y2062D02*
X1418Y2062D01*
X1459Y2062D02*
X1518Y2062D01*
X759Y2061D02*
X819Y2061D01*
X859Y2061D02*
X918Y2061D01*
X959Y2061D02*
X1018Y2061D01*
X1059Y2061D02*
X1118Y2061D01*
X1159Y2061D02*
X1218Y2061D01*
X1259Y2061D02*
X1318Y2061D01*
X1359Y2061D02*
X1418Y2061D01*
X1459Y2061D02*
X1518Y2061D01*
X758Y2060D02*
X819Y2060D01*
X858Y2060D02*
X919Y2060D01*
X958Y2060D02*
X1019Y2060D01*
X1058Y2060D02*
X1119Y2060D01*
X1158Y2060D02*
X1219Y2060D01*
X1258Y2060D02*
X1319Y2060D01*
X1358Y2060D02*
X1419Y2060D01*
X1458Y2060D02*
X1519Y2060D01*
X758Y2059D02*
X819Y2059D01*
X858Y2059D02*
X919Y2059D01*
X958Y2059D02*
X1019Y2059D01*
X1058Y2059D02*
X1119Y2059D01*
X1158Y2059D02*
X1219Y2059D01*
X1258Y2059D02*
X1319Y2059D01*
X1358Y2059D02*
X1419Y2059D01*
X1458Y2059D02*
X1519Y2059D01*
X758Y2058D02*
X819Y2058D01*
X858Y2058D02*
X919Y2058D01*
X958Y2058D02*
X1019Y2058D01*
X1058Y2058D02*
X1119Y2058D01*
X1158Y2058D02*
X1219Y2058D01*
X1258Y2058D02*
X1319Y2058D01*
X1358Y2058D02*
X1419Y2058D01*
X1458Y2058D02*
X1519Y2058D01*
X758Y2057D02*
X819Y2057D01*
X858Y2057D02*
X919Y2057D01*
X958Y2057D02*
X1019Y2057D01*
X1058Y2057D02*
X1119Y2057D01*
X1158Y2057D02*
X1219Y2057D01*
X1258Y2057D02*
X1319Y2057D01*
X1358Y2057D02*
X1419Y2057D01*
X1458Y2057D02*
X1519Y2057D01*
X758Y2056D02*
X819Y2056D01*
X858Y2056D02*
X919Y2056D01*
X958Y2056D02*
X1019Y2056D01*
X1058Y2056D02*
X1119Y2056D01*
X1158Y2056D02*
X1219Y2056D01*
X1258Y2056D02*
X1319Y2056D01*
X1358Y2056D02*
X1419Y2056D01*
X1458Y2056D02*
X1519Y2056D01*
X758Y2055D02*
X819Y2055D01*
X858Y2055D02*
X919Y2055D01*
X958Y2055D02*
X1019Y2055D01*
X1058Y2055D02*
X1119Y2055D01*
X1158Y2055D02*
X1219Y2055D01*
X1258Y2055D02*
X1319Y2055D01*
X1358Y2055D02*
X1419Y2055D01*
X1458Y2055D02*
X1519Y2055D01*
X758Y2054D02*
X819Y2054D01*
X858Y2054D02*
X919Y2054D01*
X958Y2054D02*
X1019Y2054D01*
X1058Y2054D02*
X1119Y2054D01*
X1158Y2054D02*
X1219Y2054D01*
X1258Y2054D02*
X1319Y2054D01*
X1358Y2054D02*
X1419Y2054D01*
X1458Y2054D02*
X1519Y2054D01*
X758Y2053D02*
X819Y2053D01*
X858Y2053D02*
X919Y2053D01*
X958Y2053D02*
X1019Y2053D01*
X1058Y2053D02*
X1119Y2053D01*
X1158Y2053D02*
X1219Y2053D01*
X1258Y2053D02*
X1319Y2053D01*
X1358Y2053D02*
X1419Y2053D01*
X1458Y2053D02*
X1519Y2053D01*
X758Y2052D02*
X819Y2052D01*
X858Y2052D02*
X919Y2052D01*
X958Y2052D02*
X1019Y2052D01*
X1058Y2052D02*
X1119Y2052D01*
X1158Y2052D02*
X1219Y2052D01*
X1258Y2052D02*
X1319Y2052D01*
X1358Y2052D02*
X1419Y2052D01*
X1458Y2052D02*
X1519Y2052D01*
X758Y2051D02*
X819Y2051D01*
X858Y2051D02*
X919Y2051D01*
X958Y2051D02*
X1019Y2051D01*
X1058Y2051D02*
X1119Y2051D01*
X1158Y2051D02*
X1219Y2051D01*
X1258Y2051D02*
X1319Y2051D01*
X1358Y2051D02*
X1419Y2051D01*
X1458Y2051D02*
X1519Y2051D01*
X758Y2050D02*
X819Y2050D01*
X858Y2050D02*
X919Y2050D01*
X958Y2050D02*
X1019Y2050D01*
X1058Y2050D02*
X1119Y2050D01*
X1158Y2050D02*
X1219Y2050D01*
X1258Y2050D02*
X1319Y2050D01*
X1358Y2050D02*
X1419Y2050D01*
X1458Y2050D02*
X1519Y2050D01*
X758Y2049D02*
X819Y2049D01*
X858Y2049D02*
X919Y2049D01*
X958Y2049D02*
X1019Y2049D01*
X1058Y2049D02*
X1119Y2049D01*
X1158Y2049D02*
X1219Y2049D01*
X1258Y2049D02*
X1319Y2049D01*
X1358Y2049D02*
X1419Y2049D01*
X1458Y2049D02*
X1519Y2049D01*
X758Y2048D02*
X819Y2048D01*
X858Y2048D02*
X919Y2048D01*
X958Y2048D02*
X1019Y2048D01*
X1058Y2048D02*
X1119Y2048D01*
X1158Y2048D02*
X1219Y2048D01*
X1258Y2048D02*
X1319Y2048D01*
X1358Y2048D02*
X1419Y2048D01*
X1458Y2048D02*
X1519Y2048D01*
X758Y2047D02*
X819Y2047D01*
X858Y2047D02*
X919Y2047D01*
X958Y2047D02*
X1019Y2047D01*
X1058Y2047D02*
X1119Y2047D01*
X1158Y2047D02*
X1219Y2047D01*
X1258Y2047D02*
X1319Y2047D01*
X1358Y2047D02*
X1419Y2047D01*
X1458Y2047D02*
X1519Y2047D01*
X758Y2046D02*
X819Y2046D01*
X858Y2046D02*
X919Y2046D01*
X958Y2046D02*
X1019Y2046D01*
X1058Y2046D02*
X1119Y2046D01*
X1158Y2046D02*
X1219Y2046D01*
X1258Y2046D02*
X1319Y2046D01*
X1358Y2046D02*
X1419Y2046D01*
X1458Y2046D02*
X1519Y2046D01*
X758Y2045D02*
X819Y2045D01*
X858Y2045D02*
X919Y2045D01*
X958Y2045D02*
X1019Y2045D01*
X1058Y2045D02*
X1119Y2045D01*
X1158Y2045D02*
X1219Y2045D01*
X1258Y2045D02*
X1319Y2045D01*
X1358Y2045D02*
X1419Y2045D01*
X1458Y2045D02*
X1519Y2045D01*
X758Y2044D02*
X819Y2044D01*
X858Y2044D02*
X919Y2044D01*
X958Y2044D02*
X1019Y2044D01*
X1058Y2044D02*
X1119Y2044D01*
X1158Y2044D02*
X1219Y2044D01*
X1258Y2044D02*
X1319Y2044D01*
X1358Y2044D02*
X1419Y2044D01*
X1458Y2044D02*
X1519Y2044D01*
X758Y2043D02*
X819Y2043D01*
X858Y2043D02*
X919Y2043D01*
X958Y2043D02*
X1019Y2043D01*
X1058Y2043D02*
X1119Y2043D01*
X1158Y2043D02*
X1219Y2043D01*
X1258Y2043D02*
X1319Y2043D01*
X1358Y2043D02*
X1419Y2043D01*
X1458Y2043D02*
X1519Y2043D01*
X758Y2042D02*
X819Y2042D01*
X858Y2042D02*
X919Y2042D01*
X958Y2042D02*
X1019Y2042D01*
X1058Y2042D02*
X1119Y2042D01*
X1158Y2042D02*
X1219Y2042D01*
X1258Y2042D02*
X1319Y2042D01*
X1358Y2042D02*
X1419Y2042D01*
X1458Y2042D02*
X1519Y2042D01*
X758Y2041D02*
X819Y2041D01*
X858Y2041D02*
X919Y2041D01*
X958Y2041D02*
X1019Y2041D01*
X1058Y2041D02*
X1119Y2041D01*
X1158Y2041D02*
X1219Y2041D01*
X1258Y2041D02*
X1319Y2041D01*
X1358Y2041D02*
X1419Y2041D01*
X1458Y2041D02*
X1519Y2041D01*
X758Y2040D02*
X784Y2040D01*
X793Y2040D02*
X819Y2040D01*
X858Y2040D02*
X884Y2040D01*
X893Y2040D02*
X919Y2040D01*
X958Y2040D02*
X984Y2040D01*
X993Y2040D02*
X1019Y2040D01*
X1058Y2040D02*
X1084Y2040D01*
X1093Y2040D02*
X1119Y2040D01*
X1158Y2040D02*
X1184Y2040D01*
X1193Y2040D02*
X1219Y2040D01*
X1258Y2040D02*
X1284Y2040D01*
X1293Y2040D02*
X1319Y2040D01*
X1358Y2040D02*
X1384Y2040D01*
X1393Y2040D02*
X1419Y2040D01*
X1458Y2040D02*
X1484Y2040D01*
X1493Y2040D02*
X1519Y2040D01*
X758Y2039D02*
X782Y2039D01*
X795Y2039D02*
X819Y2039D01*
X858Y2039D02*
X882Y2039D01*
X895Y2039D02*
X919Y2039D01*
X958Y2039D02*
X982Y2039D01*
X995Y2039D02*
X1019Y2039D01*
X1058Y2039D02*
X1082Y2039D01*
X1095Y2039D02*
X1119Y2039D01*
X1158Y2039D02*
X1182Y2039D01*
X1195Y2039D02*
X1219Y2039D01*
X1258Y2039D02*
X1282Y2039D01*
X1295Y2039D02*
X1319Y2039D01*
X1358Y2039D02*
X1382Y2039D01*
X1395Y2039D02*
X1419Y2039D01*
X1458Y2039D02*
X1482Y2039D01*
X1495Y2039D02*
X1519Y2039D01*
X758Y2038D02*
X781Y2038D01*
X796Y2038D02*
X819Y2038D01*
X858Y2038D02*
X881Y2038D01*
X896Y2038D02*
X919Y2038D01*
X958Y2038D02*
X981Y2038D01*
X996Y2038D02*
X1019Y2038D01*
X1058Y2038D02*
X1081Y2038D01*
X1096Y2038D02*
X1119Y2038D01*
X1158Y2038D02*
X1181Y2038D01*
X1196Y2038D02*
X1219Y2038D01*
X1258Y2038D02*
X1281Y2038D01*
X1296Y2038D02*
X1319Y2038D01*
X1358Y2038D02*
X1381Y2038D01*
X1396Y2038D02*
X1419Y2038D01*
X1458Y2038D02*
X1481Y2038D01*
X1496Y2038D02*
X1519Y2038D01*
X758Y2037D02*
X780Y2037D01*
X797Y2037D02*
X819Y2037D01*
X858Y2037D02*
X880Y2037D01*
X897Y2037D02*
X919Y2037D01*
X958Y2037D02*
X980Y2037D01*
X997Y2037D02*
X1019Y2037D01*
X1058Y2037D02*
X1080Y2037D01*
X1097Y2037D02*
X1119Y2037D01*
X1158Y2037D02*
X1180Y2037D01*
X1197Y2037D02*
X1219Y2037D01*
X1258Y2037D02*
X1280Y2037D01*
X1297Y2037D02*
X1319Y2037D01*
X1358Y2037D02*
X1380Y2037D01*
X1397Y2037D02*
X1419Y2037D01*
X1458Y2037D02*
X1480Y2037D01*
X1497Y2037D02*
X1519Y2037D01*
X758Y2036D02*
X779Y2036D01*
X798Y2036D02*
X819Y2036D01*
X858Y2036D02*
X879Y2036D01*
X898Y2036D02*
X919Y2036D01*
X958Y2036D02*
X979Y2036D01*
X998Y2036D02*
X1019Y2036D01*
X1058Y2036D02*
X1079Y2036D01*
X1098Y2036D02*
X1119Y2036D01*
X1158Y2036D02*
X1179Y2036D01*
X1198Y2036D02*
X1219Y2036D01*
X1258Y2036D02*
X1279Y2036D01*
X1298Y2036D02*
X1319Y2036D01*
X1358Y2036D02*
X1379Y2036D01*
X1398Y2036D02*
X1419Y2036D01*
X1458Y2036D02*
X1479Y2036D01*
X1498Y2036D02*
X1519Y2036D01*
X758Y2035D02*
X778Y2035D01*
X799Y2035D02*
X819Y2035D01*
X858Y2035D02*
X878Y2035D01*
X899Y2035D02*
X919Y2035D01*
X958Y2035D02*
X978Y2035D01*
X999Y2035D02*
X1019Y2035D01*
X1058Y2035D02*
X1078Y2035D01*
X1099Y2035D02*
X1119Y2035D01*
X1158Y2035D02*
X1178Y2035D01*
X1199Y2035D02*
X1219Y2035D01*
X1258Y2035D02*
X1278Y2035D01*
X1299Y2035D02*
X1319Y2035D01*
X1358Y2035D02*
X1378Y2035D01*
X1399Y2035D02*
X1419Y2035D01*
X1458Y2035D02*
X1478Y2035D01*
X1499Y2035D02*
X1519Y2035D01*
X758Y2034D02*
X778Y2034D01*
X799Y2034D02*
X819Y2034D01*
X858Y2034D02*
X878Y2034D01*
X899Y2034D02*
X919Y2034D01*
X958Y2034D02*
X978Y2034D01*
X999Y2034D02*
X1019Y2034D01*
X1058Y2034D02*
X1078Y2034D01*
X1099Y2034D02*
X1119Y2034D01*
X1158Y2034D02*
X1178Y2034D01*
X1199Y2034D02*
X1219Y2034D01*
X1258Y2034D02*
X1278Y2034D01*
X1299Y2034D02*
X1319Y2034D01*
X1358Y2034D02*
X1378Y2034D01*
X1399Y2034D02*
X1419Y2034D01*
X1458Y2034D02*
X1478Y2034D01*
X1499Y2034D02*
X1519Y2034D01*
X758Y2033D02*
X778Y2033D01*
X800Y2033D02*
X819Y2033D01*
X858Y2033D02*
X878Y2033D01*
X900Y2033D02*
X919Y2033D01*
X958Y2033D02*
X978Y2033D01*
X1000Y2033D02*
X1019Y2033D01*
X1058Y2033D02*
X1078Y2033D01*
X1100Y2033D02*
X1119Y2033D01*
X1158Y2033D02*
X1178Y2033D01*
X1200Y2033D02*
X1219Y2033D01*
X1258Y2033D02*
X1278Y2033D01*
X1300Y2033D02*
X1319Y2033D01*
X1358Y2033D02*
X1377Y2033D01*
X1400Y2033D02*
X1419Y2033D01*
X1458Y2033D02*
X1477Y2033D01*
X1500Y2033D02*
X1519Y2033D01*
X758Y2032D02*
X777Y2032D01*
X800Y2032D02*
X819Y2032D01*
X858Y2032D02*
X877Y2032D01*
X900Y2032D02*
X919Y2032D01*
X958Y2032D02*
X977Y2032D01*
X1000Y2032D02*
X1019Y2032D01*
X1058Y2032D02*
X1077Y2032D01*
X1100Y2032D02*
X1119Y2032D01*
X1158Y2032D02*
X1177Y2032D01*
X1200Y2032D02*
X1219Y2032D01*
X1258Y2032D02*
X1277Y2032D01*
X1300Y2032D02*
X1319Y2032D01*
X1358Y2032D02*
X1377Y2032D01*
X1400Y2032D02*
X1419Y2032D01*
X1458Y2032D02*
X1477Y2032D01*
X1500Y2032D02*
X1519Y2032D01*
X758Y2031D02*
X777Y2031D01*
X800Y2031D02*
X819Y2031D01*
X858Y2031D02*
X877Y2031D01*
X900Y2031D02*
X919Y2031D01*
X958Y2031D02*
X977Y2031D01*
X1000Y2031D02*
X1019Y2031D01*
X1058Y2031D02*
X1077Y2031D01*
X1100Y2031D02*
X1119Y2031D01*
X1158Y2031D02*
X1177Y2031D01*
X1200Y2031D02*
X1219Y2031D01*
X1258Y2031D02*
X1277Y2031D01*
X1300Y2031D02*
X1319Y2031D01*
X1358Y2031D02*
X1377Y2031D01*
X1400Y2031D02*
X1419Y2031D01*
X1458Y2031D02*
X1477Y2031D01*
X1500Y2031D02*
X1519Y2031D01*
X758Y2030D02*
X777Y2030D01*
X800Y2030D02*
X819Y2030D01*
X858Y2030D02*
X877Y2030D01*
X900Y2030D02*
X919Y2030D01*
X958Y2030D02*
X977Y2030D01*
X1000Y2030D02*
X1019Y2030D01*
X1058Y2030D02*
X1077Y2030D01*
X1100Y2030D02*
X1119Y2030D01*
X1158Y2030D02*
X1177Y2030D01*
X1200Y2030D02*
X1219Y2030D01*
X1258Y2030D02*
X1277Y2030D01*
X1300Y2030D02*
X1319Y2030D01*
X1358Y2030D02*
X1377Y2030D01*
X1400Y2030D02*
X1419Y2030D01*
X1458Y2030D02*
X1477Y2030D01*
X1500Y2030D02*
X1519Y2030D01*
X758Y2029D02*
X777Y2029D01*
X800Y2029D02*
X819Y2029D01*
X858Y2029D02*
X877Y2029D01*
X900Y2029D02*
X919Y2029D01*
X958Y2029D02*
X977Y2029D01*
X1000Y2029D02*
X1019Y2029D01*
X1058Y2029D02*
X1077Y2029D01*
X1100Y2029D02*
X1119Y2029D01*
X1158Y2029D02*
X1177Y2029D01*
X1200Y2029D02*
X1219Y2029D01*
X1258Y2029D02*
X1277Y2029D01*
X1300Y2029D02*
X1319Y2029D01*
X1358Y2029D02*
X1377Y2029D01*
X1400Y2029D02*
X1419Y2029D01*
X1458Y2029D02*
X1477Y2029D01*
X1500Y2029D02*
X1519Y2029D01*
X758Y2028D02*
X777Y2028D01*
X800Y2028D02*
X819Y2028D01*
X858Y2028D02*
X877Y2028D01*
X900Y2028D02*
X919Y2028D01*
X958Y2028D02*
X977Y2028D01*
X1000Y2028D02*
X1019Y2028D01*
X1058Y2028D02*
X1077Y2028D01*
X1100Y2028D02*
X1119Y2028D01*
X1158Y2028D02*
X1177Y2028D01*
X1200Y2028D02*
X1219Y2028D01*
X1258Y2028D02*
X1277Y2028D01*
X1300Y2028D02*
X1319Y2028D01*
X1358Y2028D02*
X1377Y2028D01*
X1400Y2028D02*
X1419Y2028D01*
X1458Y2028D02*
X1477Y2028D01*
X1500Y2028D02*
X1519Y2028D01*
X758Y2027D02*
X777Y2027D01*
X800Y2027D02*
X819Y2027D01*
X858Y2027D02*
X877Y2027D01*
X900Y2027D02*
X919Y2027D01*
X958Y2027D02*
X977Y2027D01*
X1000Y2027D02*
X1019Y2027D01*
X1058Y2027D02*
X1077Y2027D01*
X1100Y2027D02*
X1119Y2027D01*
X1158Y2027D02*
X1177Y2027D01*
X1200Y2027D02*
X1219Y2027D01*
X1258Y2027D02*
X1277Y2027D01*
X1300Y2027D02*
X1319Y2027D01*
X1358Y2027D02*
X1377Y2027D01*
X1400Y2027D02*
X1419Y2027D01*
X1458Y2027D02*
X1477Y2027D01*
X1500Y2027D02*
X1519Y2027D01*
X758Y2026D02*
X778Y2026D01*
X799Y2026D02*
X819Y2026D01*
X858Y2026D02*
X878Y2026D01*
X899Y2026D02*
X919Y2026D01*
X958Y2026D02*
X978Y2026D01*
X999Y2026D02*
X1019Y2026D01*
X1058Y2026D02*
X1078Y2026D01*
X1099Y2026D02*
X1119Y2026D01*
X1158Y2026D02*
X1178Y2026D01*
X1199Y2026D02*
X1219Y2026D01*
X1258Y2026D02*
X1278Y2026D01*
X1299Y2026D02*
X1319Y2026D01*
X1358Y2026D02*
X1378Y2026D01*
X1399Y2026D02*
X1419Y2026D01*
X1458Y2026D02*
X1478Y2026D01*
X1499Y2026D02*
X1519Y2026D01*
X758Y2025D02*
X778Y2025D01*
X799Y2025D02*
X819Y2025D01*
X858Y2025D02*
X878Y2025D01*
X899Y2025D02*
X919Y2025D01*
X958Y2025D02*
X978Y2025D01*
X999Y2025D02*
X1019Y2025D01*
X1058Y2025D02*
X1078Y2025D01*
X1099Y2025D02*
X1119Y2025D01*
X1158Y2025D02*
X1178Y2025D01*
X1199Y2025D02*
X1219Y2025D01*
X1258Y2025D02*
X1278Y2025D01*
X1299Y2025D02*
X1319Y2025D01*
X1358Y2025D02*
X1378Y2025D01*
X1399Y2025D02*
X1419Y2025D01*
X1458Y2025D02*
X1478Y2025D01*
X1499Y2025D02*
X1519Y2025D01*
X758Y2024D02*
X779Y2024D01*
X798Y2024D02*
X819Y2024D01*
X858Y2024D02*
X879Y2024D01*
X898Y2024D02*
X919Y2024D01*
X958Y2024D02*
X979Y2024D01*
X998Y2024D02*
X1019Y2024D01*
X1058Y2024D02*
X1079Y2024D01*
X1098Y2024D02*
X1119Y2024D01*
X1158Y2024D02*
X1179Y2024D01*
X1198Y2024D02*
X1219Y2024D01*
X1258Y2024D02*
X1279Y2024D01*
X1298Y2024D02*
X1319Y2024D01*
X1358Y2024D02*
X1379Y2024D01*
X1398Y2024D02*
X1419Y2024D01*
X1458Y2024D02*
X1479Y2024D01*
X1498Y2024D02*
X1519Y2024D01*
X758Y2023D02*
X779Y2023D01*
X798Y2023D02*
X819Y2023D01*
X858Y2023D02*
X879Y2023D01*
X898Y2023D02*
X919Y2023D01*
X958Y2023D02*
X979Y2023D01*
X998Y2023D02*
X1019Y2023D01*
X1058Y2023D02*
X1079Y2023D01*
X1098Y2023D02*
X1119Y2023D01*
X1158Y2023D02*
X1179Y2023D01*
X1198Y2023D02*
X1219Y2023D01*
X1258Y2023D02*
X1279Y2023D01*
X1298Y2023D02*
X1319Y2023D01*
X1358Y2023D02*
X1379Y2023D01*
X1398Y2023D02*
X1419Y2023D01*
X1458Y2023D02*
X1479Y2023D01*
X1498Y2023D02*
X1519Y2023D01*
X758Y2022D02*
X780Y2022D01*
X797Y2022D02*
X819Y2022D01*
X858Y2022D02*
X880Y2022D01*
X897Y2022D02*
X919Y2022D01*
X958Y2022D02*
X980Y2022D01*
X997Y2022D02*
X1019Y2022D01*
X1058Y2022D02*
X1080Y2022D01*
X1097Y2022D02*
X1119Y2022D01*
X1158Y2022D02*
X1180Y2022D01*
X1197Y2022D02*
X1219Y2022D01*
X1258Y2022D02*
X1280Y2022D01*
X1297Y2022D02*
X1319Y2022D01*
X1358Y2022D02*
X1380Y2022D01*
X1397Y2022D02*
X1419Y2022D01*
X1458Y2022D02*
X1480Y2022D01*
X1497Y2022D02*
X1519Y2022D01*
X758Y2021D02*
X781Y2021D01*
X796Y2021D02*
X819Y2021D01*
X858Y2021D02*
X881Y2021D01*
X896Y2021D02*
X919Y2021D01*
X958Y2021D02*
X981Y2021D01*
X996Y2021D02*
X1019Y2021D01*
X1058Y2021D02*
X1081Y2021D01*
X1096Y2021D02*
X1119Y2021D01*
X1158Y2021D02*
X1181Y2021D01*
X1196Y2021D02*
X1219Y2021D01*
X1258Y2021D02*
X1281Y2021D01*
X1296Y2021D02*
X1319Y2021D01*
X1358Y2021D02*
X1381Y2021D01*
X1396Y2021D02*
X1419Y2021D01*
X1458Y2021D02*
X1481Y2021D01*
X1496Y2021D02*
X1519Y2021D01*
X758Y2020D02*
X783Y2020D01*
X794Y2020D02*
X819Y2020D01*
X858Y2020D02*
X883Y2020D01*
X894Y2020D02*
X919Y2020D01*
X958Y2020D02*
X983Y2020D01*
X994Y2020D02*
X1019Y2020D01*
X1058Y2020D02*
X1083Y2020D01*
X1094Y2020D02*
X1119Y2020D01*
X1158Y2020D02*
X1183Y2020D01*
X1194Y2020D02*
X1219Y2020D01*
X1258Y2020D02*
X1283Y2020D01*
X1294Y2020D02*
X1319Y2020D01*
X1358Y2020D02*
X1383Y2020D01*
X1394Y2020D02*
X1419Y2020D01*
X1458Y2020D02*
X1483Y2020D01*
X1494Y2020D02*
X1519Y2020D01*
X758Y2019D02*
X785Y2019D01*
X792Y2019D02*
X819Y2019D01*
X858Y2019D02*
X885Y2019D01*
X892Y2019D02*
X919Y2019D01*
X958Y2019D02*
X985Y2019D01*
X992Y2019D02*
X1019Y2019D01*
X1058Y2019D02*
X1085Y2019D01*
X1092Y2019D02*
X1119Y2019D01*
X1158Y2019D02*
X1185Y2019D01*
X1192Y2019D02*
X1219Y2019D01*
X1258Y2019D02*
X1285Y2019D01*
X1292Y2019D02*
X1319Y2019D01*
X1358Y2019D02*
X1385Y2019D01*
X1392Y2019D02*
X1419Y2019D01*
X1458Y2019D02*
X1485Y2019D01*
X1492Y2019D02*
X1519Y2019D01*
X758Y2018D02*
X819Y2018D01*
X858Y2018D02*
X919Y2018D01*
X958Y2018D02*
X1019Y2018D01*
X1058Y2018D02*
X1119Y2018D01*
X1158Y2018D02*
X1219Y2018D01*
X1258Y2018D02*
X1319Y2018D01*
X1358Y2018D02*
X1419Y2018D01*
X1458Y2018D02*
X1519Y2018D01*
X758Y2017D02*
X819Y2017D01*
X858Y2017D02*
X919Y2017D01*
X958Y2017D02*
X1019Y2017D01*
X1058Y2017D02*
X1119Y2017D01*
X1158Y2017D02*
X1219Y2017D01*
X1258Y2017D02*
X1319Y2017D01*
X1358Y2017D02*
X1419Y2017D01*
X1458Y2017D02*
X1519Y2017D01*
X758Y2016D02*
X819Y2016D01*
X858Y2016D02*
X919Y2016D01*
X958Y2016D02*
X1019Y2016D01*
X1058Y2016D02*
X1119Y2016D01*
X1158Y2016D02*
X1219Y2016D01*
X1258Y2016D02*
X1319Y2016D01*
X1358Y2016D02*
X1419Y2016D01*
X1458Y2016D02*
X1519Y2016D01*
X758Y2015D02*
X819Y2015D01*
X858Y2015D02*
X919Y2015D01*
X958Y2015D02*
X1019Y2015D01*
X1058Y2015D02*
X1119Y2015D01*
X1158Y2015D02*
X1219Y2015D01*
X1258Y2015D02*
X1319Y2015D01*
X1358Y2015D02*
X1419Y2015D01*
X1458Y2015D02*
X1519Y2015D01*
X758Y2014D02*
X819Y2014D01*
X858Y2014D02*
X919Y2014D01*
X958Y2014D02*
X1019Y2014D01*
X1058Y2014D02*
X1119Y2014D01*
X1158Y2014D02*
X1219Y2014D01*
X1258Y2014D02*
X1319Y2014D01*
X1358Y2014D02*
X1419Y2014D01*
X1458Y2014D02*
X1519Y2014D01*
X758Y2013D02*
X819Y2013D01*
X858Y2013D02*
X919Y2013D01*
X958Y2013D02*
X1019Y2013D01*
X1058Y2013D02*
X1119Y2013D01*
X1158Y2013D02*
X1219Y2013D01*
X1258Y2013D02*
X1319Y2013D01*
X1358Y2013D02*
X1419Y2013D01*
X1458Y2013D02*
X1519Y2013D01*
X758Y2012D02*
X819Y2012D01*
X858Y2012D02*
X919Y2012D01*
X958Y2012D02*
X1019Y2012D01*
X1058Y2012D02*
X1119Y2012D01*
X1158Y2012D02*
X1219Y2012D01*
X1258Y2012D02*
X1319Y2012D01*
X1358Y2012D02*
X1419Y2012D01*
X1458Y2012D02*
X1519Y2012D01*
X758Y2011D02*
X819Y2011D01*
X858Y2011D02*
X919Y2011D01*
X958Y2011D02*
X1019Y2011D01*
X1058Y2011D02*
X1119Y2011D01*
X1158Y2011D02*
X1219Y2011D01*
X1258Y2011D02*
X1319Y2011D01*
X1358Y2011D02*
X1419Y2011D01*
X1458Y2011D02*
X1519Y2011D01*
X758Y2010D02*
X819Y2010D01*
X858Y2010D02*
X919Y2010D01*
X958Y2010D02*
X1019Y2010D01*
X1058Y2010D02*
X1119Y2010D01*
X1158Y2010D02*
X1219Y2010D01*
X1258Y2010D02*
X1319Y2010D01*
X1358Y2010D02*
X1419Y2010D01*
X1458Y2010D02*
X1519Y2010D01*
X758Y2009D02*
X819Y2009D01*
X858Y2009D02*
X919Y2009D01*
X958Y2009D02*
X1019Y2009D01*
X1058Y2009D02*
X1119Y2009D01*
X1158Y2009D02*
X1219Y2009D01*
X1258Y2009D02*
X1319Y2009D01*
X1358Y2009D02*
X1419Y2009D01*
X1458Y2009D02*
X1519Y2009D01*
X758Y2008D02*
X819Y2008D01*
X858Y2008D02*
X919Y2008D01*
X958Y2008D02*
X1019Y2008D01*
X1058Y2008D02*
X1119Y2008D01*
X1158Y2008D02*
X1219Y2008D01*
X1258Y2008D02*
X1319Y2008D01*
X1358Y2008D02*
X1419Y2008D01*
X1458Y2008D02*
X1519Y2008D01*
X758Y2007D02*
X819Y2007D01*
X858Y2007D02*
X919Y2007D01*
X958Y2007D02*
X1019Y2007D01*
X1058Y2007D02*
X1119Y2007D01*
X1158Y2007D02*
X1219Y2007D01*
X1258Y2007D02*
X1319Y2007D01*
X1358Y2007D02*
X1419Y2007D01*
X1458Y2007D02*
X1519Y2007D01*
X758Y2006D02*
X819Y2006D01*
X858Y2006D02*
X919Y2006D01*
X958Y2006D02*
X1019Y2006D01*
X1058Y2006D02*
X1119Y2006D01*
X1158Y2006D02*
X1219Y2006D01*
X1258Y2006D02*
X1319Y2006D01*
X1358Y2006D02*
X1419Y2006D01*
X1458Y2006D02*
X1519Y2006D01*
X758Y2005D02*
X819Y2005D01*
X858Y2005D02*
X919Y2005D01*
X958Y2005D02*
X1019Y2005D01*
X1058Y2005D02*
X1119Y2005D01*
X1158Y2005D02*
X1219Y2005D01*
X1258Y2005D02*
X1319Y2005D01*
X1358Y2005D02*
X1419Y2005D01*
X1458Y2005D02*
X1519Y2005D01*
X758Y2004D02*
X819Y2004D01*
X858Y2004D02*
X919Y2004D01*
X958Y2004D02*
X1019Y2004D01*
X1058Y2004D02*
X1119Y2004D01*
X1158Y2004D02*
X1219Y2004D01*
X1258Y2004D02*
X1319Y2004D01*
X1358Y2004D02*
X1419Y2004D01*
X1458Y2004D02*
X1519Y2004D01*
X758Y2003D02*
X819Y2003D01*
X858Y2003D02*
X919Y2003D01*
X958Y2003D02*
X1019Y2003D01*
X1058Y2003D02*
X1119Y2003D01*
X1158Y2003D02*
X1219Y2003D01*
X1258Y2003D02*
X1319Y2003D01*
X1358Y2003D02*
X1419Y2003D01*
X1458Y2003D02*
X1519Y2003D01*
X758Y2002D02*
X819Y2002D01*
X858Y2002D02*
X919Y2002D01*
X958Y2002D02*
X1019Y2002D01*
X1058Y2002D02*
X1119Y2002D01*
X1158Y2002D02*
X1219Y2002D01*
X1258Y2002D02*
X1319Y2002D01*
X1358Y2002D02*
X1419Y2002D01*
X1458Y2002D02*
X1519Y2002D01*
X758Y2001D02*
X819Y2001D01*
X858Y2001D02*
X919Y2001D01*
X958Y2001D02*
X1019Y2001D01*
X1058Y2001D02*
X1119Y2001D01*
X1158Y2001D02*
X1219Y2001D01*
X1258Y2001D02*
X1319Y2001D01*
X1358Y2001D02*
X1419Y2001D01*
X1458Y2001D02*
X1519Y2001D01*
X758Y2000D02*
X819Y2000D01*
X858Y2000D02*
X919Y2000D01*
X958Y2000D02*
X1019Y2000D01*
X1058Y2000D02*
X1119Y2000D01*
X1158Y2000D02*
X1219Y2000D01*
X1258Y2000D02*
X1319Y2000D01*
X1358Y2000D02*
X1419Y2000D01*
X1458Y2000D02*
X1519Y2000D01*
X758Y1999D02*
X819Y1999D01*
X858Y1999D02*
X919Y1999D01*
X958Y1999D02*
X1019Y1999D01*
X1058Y1999D02*
X1119Y1999D01*
X1158Y1999D02*
X1219Y1999D01*
X1258Y1999D02*
X1319Y1999D01*
X1358Y1999D02*
X1419Y1999D01*
X1458Y1999D02*
X1519Y1999D01*
X759Y1998D02*
X818Y1998D01*
X859Y1998D02*
X918Y1998D01*
X959Y1998D02*
X1018Y1998D01*
X1059Y1998D02*
X1118Y1998D01*
X1159Y1998D02*
X1218Y1998D01*
X1259Y1998D02*
X1318Y1998D01*
X1359Y1998D02*
X1418Y1998D01*
X1459Y1998D02*
X1518Y1998D01*
X759Y1997D02*
X818Y1997D01*
X859Y1997D02*
X918Y1997D01*
X959Y1997D02*
X1018Y1997D01*
X1059Y1997D02*
X1118Y1997D01*
X1159Y1997D02*
X1218Y1997D01*
X1259Y1997D02*
X1318Y1997D01*
X1359Y1997D02*
X1418Y1997D01*
X1459Y1997D02*
X1518Y1997D01*
X759Y1996D02*
X818Y1996D01*
X859Y1996D02*
X918Y1996D01*
X959Y1996D02*
X1018Y1996D01*
X1059Y1996D02*
X1118Y1996D01*
X1159Y1996D02*
X1218Y1996D01*
X1259Y1996D02*
X1318Y1996D01*
X1359Y1996D02*
X1418Y1996D01*
X1459Y1996D02*
X1518Y1996D01*
X759Y1995D02*
X818Y1995D01*
X859Y1995D02*
X918Y1995D01*
X959Y1995D02*
X1018Y1995D01*
X1059Y1995D02*
X1118Y1995D01*
X1159Y1995D02*
X1218Y1995D01*
X1259Y1995D02*
X1318Y1995D01*
X1359Y1995D02*
X1418Y1995D01*
X1459Y1995D02*
X1518Y1995D01*
X760Y1994D02*
X817Y1994D01*
X860Y1994D02*
X917Y1994D01*
X960Y1994D02*
X1017Y1994D01*
X1060Y1994D02*
X1117Y1994D01*
X1160Y1994D02*
X1217Y1994D01*
X1260Y1994D02*
X1317Y1994D01*
X1360Y1994D02*
X1417Y1994D01*
X1460Y1994D02*
X1517Y1994D01*
X760Y1993D02*
X817Y1993D01*
X860Y1993D02*
X917Y1993D01*
X960Y1993D02*
X1017Y1993D01*
X1060Y1993D02*
X1117Y1993D01*
X1160Y1993D02*
X1217Y1993D01*
X1260Y1993D02*
X1317Y1993D01*
X1360Y1993D02*
X1417Y1993D01*
X1460Y1993D02*
X1517Y1993D01*
X760Y1992D02*
X817Y1992D01*
X860Y1992D02*
X917Y1992D01*
X960Y1992D02*
X1017Y1992D01*
X1060Y1992D02*
X1117Y1992D01*
X1160Y1992D02*
X1217Y1992D01*
X1260Y1992D02*
X1317Y1992D01*
X1360Y1992D02*
X1417Y1992D01*
X1460Y1992D02*
X1517Y1992D01*
X761Y1991D02*
X816Y1991D01*
X861Y1991D02*
X916Y1991D01*
X961Y1991D02*
X1016Y1991D01*
X1061Y1991D02*
X1116Y1991D01*
X1161Y1991D02*
X1216Y1991D01*
X1261Y1991D02*
X1316Y1991D01*
X1361Y1991D02*
X1416Y1991D01*
X1461Y1991D02*
X1516Y1991D01*
X761Y1990D02*
X816Y1990D01*
X861Y1990D02*
X916Y1990D01*
X961Y1990D02*
X1016Y1990D01*
X1061Y1990D02*
X1116Y1990D01*
X1161Y1990D02*
X1216Y1990D01*
X1261Y1990D02*
X1316Y1990D01*
X1361Y1990D02*
X1416Y1990D01*
X1461Y1990D02*
X1516Y1990D01*
X762Y1989D02*
X815Y1989D01*
X862Y1989D02*
X915Y1989D01*
X962Y1989D02*
X1015Y1989D01*
X1062Y1989D02*
X1115Y1989D01*
X1162Y1989D02*
X1215Y1989D01*
X1262Y1989D02*
X1315Y1989D01*
X1362Y1989D02*
X1415Y1989D01*
X1462Y1989D02*
X1515Y1989D01*
X762Y1988D02*
X815Y1988D01*
X862Y1988D02*
X915Y1988D01*
X962Y1988D02*
X1015Y1988D01*
X1062Y1988D02*
X1115Y1988D01*
X1162Y1988D02*
X1215Y1988D01*
X1262Y1988D02*
X1315Y1988D01*
X1362Y1988D02*
X1415Y1988D01*
X1462Y1988D02*
X1515Y1988D01*
X763Y1987D02*
X814Y1987D01*
X863Y1987D02*
X914Y1987D01*
X963Y1987D02*
X1014Y1987D01*
X1063Y1987D02*
X1114Y1987D01*
X1163Y1987D02*
X1214Y1987D01*
X1263Y1987D02*
X1314Y1987D01*
X1363Y1987D02*
X1414Y1987D01*
X1463Y1987D02*
X1514Y1987D01*
X764Y1986D02*
X813Y1986D01*
X864Y1986D02*
X913Y1986D01*
X964Y1986D02*
X1013Y1986D01*
X1064Y1986D02*
X1113Y1986D01*
X1164Y1986D02*
X1213Y1986D01*
X1264Y1986D02*
X1313Y1986D01*
X1364Y1986D02*
X1413Y1986D01*
X1464Y1986D02*
X1513Y1986D01*
X764Y1985D02*
X813Y1985D01*
X864Y1985D02*
X913Y1985D01*
X964Y1985D02*
X1013Y1985D01*
X1064Y1985D02*
X1113Y1985D01*
X1164Y1985D02*
X1213Y1985D01*
X1264Y1985D02*
X1313Y1985D01*
X1364Y1985D02*
X1413Y1985D01*
X1464Y1985D02*
X1513Y1985D01*
X765Y1984D02*
X812Y1984D01*
X865Y1984D02*
X912Y1984D01*
X965Y1984D02*
X1012Y1984D01*
X1065Y1984D02*
X1112Y1984D01*
X1165Y1984D02*
X1212Y1984D01*
X1265Y1984D02*
X1312Y1984D01*
X1365Y1984D02*
X1412Y1984D01*
X1465Y1984D02*
X1512Y1984D01*
X766Y1983D02*
X811Y1983D01*
X866Y1983D02*
X911Y1983D01*
X966Y1983D02*
X1011Y1983D01*
X1066Y1983D02*
X1111Y1983D01*
X1166Y1983D02*
X1211Y1983D01*
X1266Y1983D02*
X1311Y1983D01*
X1366Y1983D02*
X1411Y1983D01*
X1466Y1983D02*
X1511Y1983D01*
X767Y1982D02*
X810Y1982D01*
X867Y1982D02*
X910Y1982D01*
X967Y1982D02*
X1010Y1982D01*
X1067Y1982D02*
X1110Y1982D01*
X1167Y1982D02*
X1210Y1982D01*
X1267Y1982D02*
X1310Y1982D01*
X1367Y1982D02*
X1410Y1982D01*
X1467Y1982D02*
X1510Y1982D01*
X768Y1981D02*
X809Y1981D01*
X868Y1981D02*
X909Y1981D01*
X968Y1981D02*
X1009Y1981D01*
X1068Y1981D02*
X1109Y1981D01*
X1168Y1981D02*
X1209Y1981D01*
X1268Y1981D02*
X1309Y1981D01*
X1368Y1981D02*
X1409Y1981D01*
X1468Y1981D02*
X1509Y1981D01*
X769Y1980D02*
X808Y1980D01*
X869Y1980D02*
X908Y1980D01*
X969Y1980D02*
X1008Y1980D01*
X1069Y1980D02*
X1108Y1980D01*
X1169Y1980D02*
X1208Y1980D01*
X1269Y1980D02*
X1308Y1980D01*
X1369Y1980D02*
X1408Y1980D01*
X1469Y1980D02*
X1508Y1980D01*
X770Y1979D02*
X807Y1979D01*
X870Y1979D02*
X907Y1979D01*
X970Y1979D02*
X1007Y1979D01*
X1070Y1979D02*
X1107Y1979D01*
X1170Y1979D02*
X1207Y1979D01*
X1270Y1979D02*
X1307Y1979D01*
X1370Y1979D02*
X1407Y1979D01*
X1470Y1979D02*
X1507Y1979D01*
X772Y1978D02*
X805Y1978D01*
X872Y1978D02*
X905Y1978D01*
X972Y1978D02*
X1005Y1978D01*
X1072Y1978D02*
X1105Y1978D01*
X1172Y1978D02*
X1205Y1978D01*
X1272Y1978D02*
X1305Y1978D01*
X1372Y1978D02*
X1405Y1978D01*
X1472Y1978D02*
X1505Y1978D01*
X773Y1977D02*
X804Y1977D01*
X873Y1977D02*
X904Y1977D01*
X973Y1977D02*
X1004Y1977D01*
X1073Y1977D02*
X1104Y1977D01*
X1173Y1977D02*
X1204Y1977D01*
X1273Y1977D02*
X1304Y1977D01*
X1373Y1977D02*
X1404Y1977D01*
X1473Y1977D02*
X1504Y1977D01*
X775Y1976D02*
X802Y1976D01*
X875Y1976D02*
X902Y1976D01*
X975Y1976D02*
X1002Y1976D01*
X1075Y1976D02*
X1102Y1976D01*
X1175Y1976D02*
X1202Y1976D01*
X1275Y1976D02*
X1302Y1976D01*
X1375Y1976D02*
X1402Y1976D01*
X1475Y1976D02*
X1502Y1976D01*
X778Y1975D02*
X800Y1975D01*
X878Y1975D02*
X900Y1975D01*
X978Y1975D02*
X1000Y1975D01*
X1078Y1975D02*
X1100Y1975D01*
X1178Y1975D02*
X1200Y1975D01*
X1278Y1975D02*
X1300Y1975D01*
X1377Y1975D02*
X1400Y1975D01*
X1477Y1975D02*
X1499Y1975D01*
X780Y1974D02*
X797Y1974D01*
X880Y1974D02*
X897Y1974D01*
X980Y1974D02*
X997Y1974D01*
X1080Y1974D02*
X1097Y1974D01*
X1180Y1974D02*
X1197Y1974D01*
X1280Y1974D02*
X1297Y1974D01*
X1380Y1974D02*
X1397Y1974D01*
X1480Y1974D02*
X1497Y1974D01*
X785Y1973D02*
X792Y1973D01*
X885Y1973D02*
X892Y1973D01*
X985Y1973D02*
X992Y1973D01*
X1085Y1973D02*
X1092Y1973D01*
X1185Y1973D02*
X1192Y1973D01*
X1285Y1973D02*
X1292Y1973D01*
X1385Y1973D02*
X1392Y1973D01*
X1485Y1973D02*
X1492Y1973D01*
D02*
G04 End of Mask1*
M02*