G04 MADE WITH FRITZING*
G04 WWW.FRITZING.ORG*
G04 DOUBLE SIDED*
G04 HOLES PLATED*
G04 CONTOUR ON CENTER OF CONTOUR VECTOR*
%ASAXBY*%
%FSLAX23Y23*%
%MOIN*%
%OFA0B0*%
%SFA1.0B1.0*%
%ADD10C,0.005000*%
%ADD10C,0.008*%
%LNCONTOUR*%
G90*
G70*
G54D10*
G54D10*
X124Y2533D02*
X125Y2533D01*
X126Y2533D01*
X127Y2533D01*
X128Y2533D01*
X129Y2533D01*
X130Y2533D01*
X131Y2533D01*
X132Y2533D01*
X133Y2533D01*
X134Y2533D01*
X135Y2533D01*
X136Y2533D01*
X137Y2533D01*
X138Y2533D01*
X139Y2533D01*
X140Y2533D01*
X141Y2533D01*
X142Y2533D01*
X143Y2533D01*
X144Y2533D01*
X145Y2533D01*
X146Y2533D01*
X147Y2533D01*
X148Y2533D01*
X149Y2533D01*
X150Y2533D01*
X151Y2533D01*
X152Y2533D01*
X153Y2533D01*
X154Y2533D01*
X155Y2533D01*
X156Y2533D01*
X157Y2533D01*
X158Y2533D01*
X159Y2533D01*
X160Y2533D01*
X161Y2533D01*
X162Y2533D01*
X163Y2533D01*
X164Y2533D01*
X165Y2533D01*
X166Y2533D01*
X167Y2533D01*
X168Y2533D01*
X169Y2533D01*
X170Y2533D01*
X171Y2533D01*
X172Y2533D01*
X173Y2533D01*
X174Y2533D01*
X175Y2533D01*
X176Y2533D01*
X177Y2533D01*
X178Y2533D01*
X179Y2533D01*
X180Y2533D01*
X181Y2533D01*
X182Y2533D01*
X183Y2533D01*
X184Y2533D01*
X185Y2533D01*
X186Y2533D01*
X187Y2533D01*
X188Y2533D01*
X189Y2533D01*
X190Y2533D01*
X191Y2533D01*
X192Y2533D01*
X193Y2533D01*
X194Y2533D01*
X195Y2533D01*
X196Y2533D01*
X197Y2533D01*
X198Y2533D01*
X199Y2533D01*
X200Y2533D01*
X201Y2533D01*
X202Y2533D01*
X203Y2533D01*
X204Y2533D01*
X205Y2533D01*
X206Y2533D01*
X207Y2533D01*
X208Y2533D01*
X209Y2533D01*
X210Y2533D01*
X211Y2533D01*
X212Y2533D01*
X213Y2533D01*
X214Y2533D01*
X215Y2533D01*
X216Y2533D01*
X217Y2533D01*
X218Y2533D01*
X219Y2533D01*
X220Y2533D01*
X221Y2533D01*
X222Y2533D01*
X223Y2533D01*
X224Y2533D01*
X225Y2533D01*
X226Y2533D01*
X227Y2533D01*
X228Y2533D01*
X229Y2533D01*
X230Y2533D01*
X231Y2533D01*
X232Y2533D01*
X233Y2533D01*
X234Y2533D01*
X235Y2533D01*
X236Y2533D01*
X237Y2533D01*
X238Y2533D01*
X239Y2533D01*
X240Y2533D01*
X241Y2533D01*
X242Y2533D01*
X243Y2533D01*
X244Y2533D01*
X245Y2533D01*
X246Y2533D01*
X247Y2533D01*
X248Y2533D01*
X249Y2533D01*
X250Y2533D01*
X251Y2533D01*
X252Y2533D01*
X253Y2533D01*
X254Y2533D01*
X255Y2533D01*
X256Y2533D01*
X257Y2533D01*
X258Y2533D01*
X259Y2533D01*
X260Y2533D01*
X261Y2533D01*
X262Y2533D01*
X263Y2533D01*
X264Y2533D01*
X265Y2533D01*
X266Y2533D01*
X267Y2533D01*
X268Y2533D01*
X269Y2533D01*
X270Y2533D01*
X271Y2533D01*
X272Y2533D01*
X273Y2533D01*
X274Y2533D01*
X275Y2533D01*
X276Y2533D01*
X277Y2533D01*
X278Y2533D01*
X279Y2533D01*
X280Y2533D01*
X281Y2533D01*
X282Y2533D01*
X283Y2533D01*
X284Y2533D01*
X285Y2533D01*
X286Y2533D01*
X287Y2533D01*
X288Y2533D01*
X289Y2533D01*
X290Y2533D01*
X291Y2533D01*
X292Y2533D01*
X293Y2533D01*
X294Y2533D01*
X295Y2533D01*
X296Y2533D01*
X297Y2533D01*
X298Y2533D01*
X299Y2533D01*
X300Y2533D01*
X301Y2533D01*
X302Y2533D01*
X303Y2533D01*
X304Y2533D01*
X305Y2533D01*
X306Y2533D01*
X307Y2533D01*
X308Y2533D01*
X309Y2533D01*
X310Y2533D01*
X311Y2533D01*
X312Y2533D01*
X313Y2533D01*
X314Y2533D01*
X315Y2533D01*
X316Y2533D01*
X317Y2533D01*
X318Y2533D01*
X319Y2533D01*
X320Y2533D01*
X321Y2533D01*
X322Y2533D01*
X323Y2533D01*
X324Y2533D01*
X325Y2533D01*
X326Y2533D01*
X327Y2533D01*
X328Y2533D01*
X329Y2533D01*
X330Y2533D01*
X331Y2533D01*
X332Y2533D01*
X333Y2533D01*
X334Y2533D01*
X335Y2533D01*
X336Y2533D01*
X337Y2533D01*
X338Y2533D01*
X339Y2533D01*
X340Y2533D01*
X341Y2533D01*
X342Y2533D01*
X343Y2533D01*
X344Y2533D01*
X345Y2533D01*
X346Y2533D01*
X347Y2533D01*
X348Y2533D01*
X349Y2533D01*
X350Y2533D01*
X351Y2533D01*
X352Y2533D01*
X353Y2533D01*
X354Y2533D01*
X355Y2533D01*
X356Y2533D01*
X357Y2533D01*
X358Y2533D01*
X359Y2533D01*
X360Y2533D01*
X361Y2533D01*
X362Y2533D01*
X363Y2533D01*
X364Y2533D01*
X365Y2533D01*
X366Y2533D01*
X367Y2533D01*
X368Y2533D01*
X369Y2533D01*
X370Y2533D01*
X371Y2533D01*
X372Y2533D01*
X373Y2533D01*
X374Y2533D01*
X375Y2533D01*
X376Y2533D01*
X377Y2533D01*
X378Y2533D01*
X379Y2533D01*
X380Y2533D01*
X381Y2533D01*
X382Y2533D01*
X383Y2533D01*
X384Y2533D01*
X385Y2533D01*
X386Y2533D01*
X387Y2533D01*
X388Y2533D01*
X389Y2533D01*
X390Y2533D01*
X391Y2533D01*
X392Y2533D01*
X393Y2533D01*
X394Y2533D01*
X395Y2533D01*
X396Y2533D01*
X397Y2533D01*
X398Y2533D01*
X399Y2533D01*
X400Y2533D01*
X401Y2533D01*
X402Y2533D01*
X403Y2533D01*
X404Y2533D01*
X405Y2533D01*
X406Y2533D01*
X407Y2533D01*
X408Y2533D01*
X409Y2533D01*
X410Y2533D01*
X411Y2533D01*
X412Y2533D01*
X413Y2533D01*
X414Y2533D01*
X415Y2533D01*
X416Y2533D01*
X417Y2533D01*
X418Y2533D01*
X419Y2533D01*
X420Y2533D01*
X421Y2533D01*
X422Y2533D01*
X423Y2533D01*
X424Y2533D01*
X425Y2533D01*
X426Y2533D01*
X427Y2533D01*
X428Y2533D01*
X429Y2533D01*
X430Y2533D01*
X431Y2533D01*
X432Y2533D01*
X433Y2533D01*
X434Y2533D01*
X435Y2533D01*
X436Y2533D01*
X437Y2533D01*
X438Y2533D01*
X439Y2533D01*
X440Y2533D01*
X441Y2533D01*
X442Y2533D01*
X443Y2533D01*
X444Y2533D01*
X445Y2533D01*
X446Y2533D01*
X447Y2533D01*
X448Y2533D01*
X449Y2533D01*
X450Y2533D01*
X451Y2533D01*
X452Y2533D01*
X453Y2533D01*
X454Y2533D01*
X455Y2533D01*
X456Y2533D01*
X457Y2533D01*
X458Y2533D01*
X459Y2533D01*
X460Y2533D01*
X461Y2533D01*
X462Y2533D01*
X463Y2533D01*
X464Y2533D01*
X465Y2533D01*
X466Y2533D01*
X467Y2533D01*
X468Y2533D01*
X469Y2533D01*
X470Y2533D01*
X471Y2533D01*
X472Y2533D01*
X473Y2533D01*
X474Y2533D01*
X475Y2533D01*
X476Y2533D01*
X477Y2533D01*
X478Y2533D01*
X479Y2533D01*
X480Y2533D01*
X481Y2533D01*
X482Y2533D01*
X483Y2533D01*
X484Y2533D01*
X485Y2533D01*
X486Y2533D01*
X487Y2533D01*
X488Y2533D01*
X489Y2533D01*
X490Y2533D01*
X491Y2533D01*
X492Y2533D01*
X493Y2533D01*
X494Y2533D01*
X495Y2533D01*
X496Y2533D01*
X497Y2533D01*
X498Y2533D01*
X499Y2533D01*
X500Y2533D01*
X501Y2533D01*
X502Y2533D01*
X503Y2533D01*
X504Y2533D01*
X505Y2533D01*
X506Y2533D01*
X507Y2533D01*
X508Y2533D01*
X509Y2533D01*
X510Y2533D01*
X511Y2533D01*
X512Y2533D01*
X513Y2533D01*
X514Y2533D01*
X515Y2533D01*
X516Y2533D01*
X517Y2533D01*
X518Y2533D01*
X519Y2533D01*
X520Y2533D01*
X521Y2533D01*
X522Y2533D01*
X523Y2533D01*
X524Y2533D01*
X525Y2533D01*
X526Y2533D01*
X527Y2533D01*
X528Y2533D01*
X529Y2533D01*
X530Y2533D01*
X531Y2533D01*
X532Y2533D01*
X533Y2533D01*
X534Y2533D01*
X535Y2533D01*
X536Y2533D01*
X537Y2533D01*
X538Y2533D01*
X539Y2533D01*
X540Y2533D01*
X541Y2533D01*
X542Y2533D01*
X543Y2533D01*
X544Y2533D01*
X545Y2533D01*
X546Y2533D01*
X547Y2533D01*
X548Y2533D01*
X549Y2533D01*
X550Y2533D01*
X551Y2533D01*
X552Y2533D01*
X553Y2533D01*
X554Y2533D01*
X555Y2533D01*
X556Y2533D01*
X557Y2533D01*
X558Y2533D01*
X559Y2533D01*
X560Y2533D01*
X561Y2533D01*
X562Y2533D01*
X563Y2533D01*
X564Y2533D01*
X565Y2533D01*
X566Y2533D01*
X567Y2533D01*
X568Y2533D01*
X569Y2533D01*
X570Y2533D01*
X571Y2533D01*
X572Y2533D01*
X573Y2533D01*
X574Y2533D01*
X575Y2533D01*
X576Y2533D01*
X577Y2533D01*
X578Y2533D01*
X579Y2533D01*
X580Y2533D01*
X581Y2533D01*
X582Y2533D01*
X583Y2533D01*
X584Y2533D01*
X585Y2533D01*
X586Y2533D01*
X587Y2533D01*
X588Y2533D01*
X589Y2533D01*
X590Y2533D01*
X591Y2533D01*
X592Y2533D01*
X593Y2533D01*
X594Y2533D01*
X595Y2533D01*
X596Y2533D01*
X597Y2533D01*
X598Y2533D01*
X599Y2533D01*
X600Y2533D01*
X601Y2533D01*
X602Y2533D01*
X603Y2533D01*
X604Y2533D01*
X605Y2533D01*
X606Y2533D01*
X607Y2533D01*
X608Y2533D01*
X609Y2533D01*
X610Y2533D01*
X611Y2533D01*
X612Y2533D01*
X613Y2533D01*
X614Y2533D01*
X615Y2533D01*
X616Y2533D01*
X617Y2533D01*
X618Y2533D01*
X619Y2533D01*
X620Y2533D01*
X621Y2533D01*
X622Y2533D01*
X623Y2533D01*
X624Y2533D01*
X625Y2533D01*
X626Y2533D01*
X627Y2533D01*
X628Y2533D01*
X629Y2533D01*
X630Y2533D01*
X631Y2533D01*
X632Y2533D01*
X633Y2533D01*
X634Y2533D01*
X635Y2533D01*
X636Y2533D01*
X637Y2533D01*
X638Y2533D01*
X639Y2533D01*
X640Y2533D01*
X641Y2533D01*
X642Y2533D01*
X643Y2533D01*
X644Y2533D01*
X645Y2533D01*
X646Y2533D01*
X647Y2533D01*
X648Y2533D01*
X649Y2533D01*
X650Y2533D01*
X651Y2533D01*
X652Y2533D01*
X653Y2533D01*
X654Y2533D01*
X655Y2533D01*
X656Y2533D01*
X657Y2533D01*
X658Y2533D01*
X659Y2533D01*
X660Y2533D01*
X661Y2533D01*
X662Y2533D01*
X663Y2533D01*
X664Y2533D01*
X665Y2533D01*
X666Y2533D01*
X667Y2533D01*
X668Y2533D01*
X669Y2533D01*
X670Y2533D01*
X671Y2533D01*
X672Y2533D01*
X673Y2533D01*
X674Y2533D01*
X675Y2533D01*
X676Y2533D01*
X677Y2533D01*
X678Y2533D01*
X679Y2533D01*
X680Y2533D01*
X681Y2533D01*
X682Y2533D01*
X683Y2533D01*
X684Y2533D01*
X685Y2533D01*
X686Y2533D01*
X687Y2533D01*
X688Y2533D01*
X689Y2533D01*
X690Y2533D01*
X691Y2533D01*
X692Y2533D01*
X693Y2533D01*
X694Y2533D01*
X695Y2533D01*
X696Y2533D01*
X697Y2533D01*
X698Y2533D01*
X699Y2533D01*
X700Y2533D01*
X701Y2533D01*
X702Y2533D01*
X703Y2533D01*
X704Y2533D01*
X705Y2533D01*
X706Y2533D01*
X707Y2533D01*
X708Y2533D01*
X709Y2533D01*
X710Y2533D01*
X711Y2533D01*
X712Y2533D01*
X713Y2533D01*
X714Y2533D01*
X715Y2533D01*
X716Y2533D01*
X717Y2533D01*
X718Y2533D01*
X719Y2533D01*
X720Y2533D01*
X721Y2533D01*
X722Y2533D01*
X723Y2533D01*
X724Y2533D01*
X725Y2533D01*
X726Y2533D01*
X727Y2533D01*
X728Y2533D01*
X729Y2533D01*
X730Y2533D01*
X731Y2533D01*
X732Y2533D01*
X733Y2533D01*
X734Y2533D01*
X735Y2533D01*
X736Y2533D01*
X737Y2533D01*
X738Y2533D01*
X739Y2533D01*
X740Y2533D01*
X741Y2533D01*
X742Y2533D01*
X743Y2533D01*
X744Y2533D01*
X745Y2533D01*
X746Y2533D01*
X747Y2533D01*
X748Y2533D01*
X749Y2533D01*
X750Y2533D01*
X751Y2533D01*
X752Y2533D01*
X753Y2533D01*
X754Y2533D01*
X755Y2533D01*
X756Y2533D01*
X757Y2533D01*
X758Y2533D01*
X759Y2533D01*
X760Y2533D01*
X761Y2533D01*
X762Y2533D01*
X763Y2533D01*
X764Y2533D01*
X765Y2533D01*
X766Y2533D01*
X767Y2533D01*
X768Y2533D01*
X769Y2533D01*
X770Y2533D01*
X771Y2533D01*
X772Y2533D01*
X773Y2533D01*
X774Y2533D01*
X775Y2533D01*
X776Y2533D01*
X777Y2533D01*
X778Y2533D01*
X779Y2533D01*
X780Y2533D01*
X781Y2533D01*
X782Y2533D01*
X783Y2533D01*
X784Y2533D01*
X785Y2533D01*
X786Y2533D01*
X787Y2533D01*
X788Y2533D01*
X789Y2533D01*
X790Y2533D01*
X791Y2533D01*
X792Y2533D01*
X793Y2533D01*
X794Y2533D01*
X795Y2533D01*
X796Y2533D01*
X797Y2533D01*
X798Y2533D01*
X799Y2533D01*
X800Y2533D01*
X801Y2533D01*
X802Y2533D01*
X803Y2533D01*
X804Y2533D01*
X805Y2533D01*
X806Y2533D01*
X807Y2533D01*
X808Y2533D01*
X809Y2533D01*
X810Y2533D01*
X811Y2533D01*
X812Y2533D01*
X813Y2533D01*
X814Y2533D01*
X815Y2533D01*
X816Y2533D01*
X817Y2533D01*
X818Y2533D01*
X819Y2533D01*
X820Y2533D01*
X821Y2533D01*
X822Y2533D01*
X823Y2533D01*
X824Y2533D01*
X825Y2533D01*
X826Y2533D01*
X827Y2533D01*
X828Y2533D01*
X829Y2533D01*
X830Y2533D01*
X831Y2533D01*
X832Y2533D01*
X833Y2533D01*
X834Y2533D01*
X835Y2533D01*
X836Y2533D01*
X837Y2533D01*
X838Y2533D01*
X839Y2533D01*
X840Y2533D01*
X841Y2533D01*
X842Y2533D01*
X843Y2533D01*
X844Y2533D01*
X845Y2533D01*
X846Y2533D01*
X847Y2533D01*
X848Y2533D01*
X849Y2533D01*
X850Y2533D01*
X851Y2533D01*
X852Y2533D01*
X853Y2533D01*
X854Y2533D01*
X855Y2533D01*
X856Y2533D01*
X857Y2533D01*
X858Y2533D01*
X859Y2533D01*
X860Y2533D01*
X861Y2533D01*
X862Y2533D01*
X863Y2533D01*
X864Y2533D01*
X865Y2533D01*
X866Y2533D01*
X867Y2533D01*
X868Y2533D01*
X869Y2533D01*
X870Y2533D01*
X871Y2533D01*
X872Y2533D01*
X873Y2533D01*
X874Y2533D01*
X875Y2533D01*
X876Y2533D01*
X877Y2533D01*
X878Y2533D01*
X879Y2533D01*
X880Y2533D01*
X881Y2533D01*
X882Y2533D01*
X883Y2533D01*
X884Y2533D01*
X885Y2533D01*
X886Y2533D01*
X887Y2533D01*
X888Y2533D01*
X889Y2533D01*
X890Y2533D01*
X891Y2533D01*
X892Y2533D01*
X893Y2533D01*
X894Y2533D01*
X895Y2533D01*
X896Y2533D01*
X897Y2533D01*
X898Y2533D01*
X899Y2533D01*
X900Y2533D01*
X901Y2533D01*
X902Y2533D01*
X903Y2533D01*
X904Y2533D01*
X905Y2533D01*
X906Y2533D01*
X907Y2533D01*
X908Y2533D01*
X909Y2533D01*
X910Y2533D01*
X911Y2533D01*
X912Y2533D01*
X913Y2533D01*
X914Y2533D01*
X915Y2533D01*
X916Y2533D01*
X917Y2533D01*
X918Y2533D01*
X919Y2533D01*
X920Y2533D01*
X921Y2533D01*
X922Y2533D01*
X923Y2533D01*
X924Y2533D01*
X925Y2533D01*
X926Y2533D01*
X927Y2533D01*
X928Y2533D01*
X929Y2533D01*
X930Y2533D01*
X931Y2533D01*
X932Y2533D01*
X933Y2533D01*
X934Y2533D01*
X935Y2533D01*
X936Y2533D01*
X937Y2533D01*
X938Y2533D01*
X939Y2533D01*
X940Y2533D01*
X941Y2533D01*
X942Y2533D01*
X943Y2533D01*
X944Y2533D01*
X945Y2533D01*
X946Y2533D01*
X947Y2533D01*
X948Y2533D01*
X949Y2533D01*
X950Y2533D01*
X951Y2533D01*
X952Y2533D01*
X953Y2533D01*
X954Y2533D01*
X955Y2533D01*
X956Y2533D01*
X957Y2533D01*
X958Y2533D01*
X959Y2533D01*
X960Y2533D01*
X961Y2533D01*
X962Y2533D01*
X963Y2533D01*
X964Y2533D01*
X965Y2533D01*
X966Y2533D01*
X967Y2533D01*
X968Y2533D01*
X969Y2533D01*
X970Y2533D01*
X971Y2533D01*
X972Y2533D01*
X973Y2533D01*
X974Y2533D01*
X975Y2533D01*
X976Y2533D01*
X977Y2533D01*
X978Y2533D01*
X979Y2533D01*
X980Y2533D01*
X981Y2533D01*
X982Y2533D01*
X983Y2533D01*
X984Y2533D01*
X985Y2533D01*
X986Y2533D01*
X987Y2533D01*
X988Y2533D01*
X989Y2533D01*
X990Y2533D01*
X991Y2533D01*
X992Y2533D01*
X993Y2533D01*
X994Y2533D01*
X995Y2533D01*
X996Y2533D01*
X997Y2533D01*
X998Y2533D01*
X999Y2533D01*
X1000Y2533D01*
X1001Y2533D01*
X1002Y2533D01*
X1003Y2533D01*
X1004Y2533D01*
X1005Y2533D01*
X1006Y2533D01*
X1007Y2533D01*
X1008Y2533D01*
X1009Y2533D01*
X1010Y2533D01*
X1011Y2533D01*
X1012Y2533D01*
X1013Y2533D01*
X1014Y2533D01*
X1015Y2533D01*
X1016Y2533D01*
X1017Y2533D01*
X1018Y2533D01*
X1019Y2533D01*
X1020Y2533D01*
X1021Y2533D01*
X1022Y2533D01*
X1023Y2533D01*
X1024Y2533D01*
X1025Y2533D01*
X1026Y2533D01*
X1027Y2533D01*
X1028Y2533D01*
X1029Y2533D01*
X1030Y2533D01*
X1031Y2533D01*
X1032Y2533D01*
X1033Y2533D01*
X1034Y2533D01*
X1035Y2533D01*
X1036Y2533D01*
X1037Y2533D01*
X1038Y2533D01*
X1039Y2533D01*
X1040Y2533D01*
X1041Y2533D01*
X1042Y2533D01*
X1043Y2533D01*
X1044Y2533D01*
X1045Y2533D01*
X1046Y2533D01*
X1047Y2533D01*
X1048Y2533D01*
X1049Y2533D01*
X1050Y2533D01*
X1051Y2533D01*
X1052Y2533D01*
X1053Y2533D01*
X1054Y2533D01*
X1055Y2533D01*
X1056Y2533D01*
X1057Y2533D01*
X1058Y2533D01*
X1059Y2533D01*
X1060Y2533D01*
X1061Y2533D01*
X1062Y2533D01*
X1063Y2533D01*
X1064Y2533D01*
X1065Y2533D01*
X1066Y2533D01*
X1067Y2533D01*
X1068Y2533D01*
X1069Y2533D01*
X1070Y2533D01*
X1071Y2533D01*
X1072Y2533D01*
X1073Y2533D01*
X1074Y2533D01*
X1075Y2533D01*
X1076Y2533D01*
X1077Y2533D01*
X1078Y2533D01*
X1079Y2533D01*
X1080Y2533D01*
X1081Y2533D01*
X1082Y2533D01*
X1083Y2533D01*
X1084Y2533D01*
X1085Y2533D01*
X1086Y2533D01*
X1087Y2533D01*
X1088Y2533D01*
X1089Y2533D01*
X1090Y2533D01*
X1091Y2533D01*
X1092Y2533D01*
X1093Y2533D01*
X1094Y2533D01*
X1095Y2533D01*
X1096Y2533D01*
X1097Y2533D01*
X1098Y2533D01*
X1099Y2533D01*
X1100Y2533D01*
X1101Y2533D01*
X1102Y2533D01*
X1103Y2533D01*
X1104Y2533D01*
X1105Y2533D01*
X1106Y2533D01*
X1107Y2533D01*
X1108Y2533D01*
X1109Y2533D01*
X1110Y2533D01*
X1111Y2533D01*
X1112Y2533D01*
X1113Y2533D01*
X1114Y2533D01*
X1115Y2533D01*
X1116Y2533D01*
X1117Y2533D01*
X1118Y2533D01*
X1119Y2533D01*
X1120Y2533D01*
X1121Y2533D01*
X1122Y2533D01*
X1123Y2533D01*
X1124Y2533D01*
X1125Y2533D01*
X1126Y2533D01*
X1127Y2533D01*
X1128Y2533D01*
X1129Y2533D01*
X1130Y2533D01*
X1131Y2533D01*
X1132Y2533D01*
X1133Y2533D01*
X1134Y2533D01*
X1135Y2533D01*
X1136Y2533D01*
X1137Y2533D01*
X1138Y2533D01*
X1139Y2533D01*
X1140Y2533D01*
X1141Y2533D01*
X1142Y2533D01*
X1143Y2533D01*
X1144Y2533D01*
X1145Y2533D01*
X1146Y2533D01*
X1147Y2533D01*
X1148Y2533D01*
X1149Y2533D01*
X1150Y2533D01*
X1151Y2533D01*
X1152Y2533D01*
X1153Y2533D01*
X1154Y2533D01*
X1155Y2533D01*
X1156Y2533D01*
X1157Y2533D01*
X1158Y2533D01*
X1159Y2533D01*
X1160Y2533D01*
X1161Y2533D01*
X1162Y2533D01*
X1163Y2533D01*
X1164Y2533D01*
X1165Y2533D01*
X1166Y2533D01*
X1167Y2533D01*
X1168Y2533D01*
X1169Y2533D01*
X1170Y2533D01*
X1171Y2533D01*
X1172Y2533D01*
X1173Y2533D01*
X1174Y2533D01*
X1175Y2533D01*
X1176Y2533D01*
X1177Y2533D01*
X1178Y2533D01*
X1179Y2533D01*
X1180Y2533D01*
X1181Y2533D01*
X1182Y2533D01*
X1183Y2533D01*
X1184Y2533D01*
X1185Y2533D01*
X1186Y2533D01*
X1187Y2533D01*
X1188Y2533D01*
X1189Y2533D01*
X1190Y2533D01*
X1191Y2533D01*
X1192Y2533D01*
X1193Y2533D01*
X1194Y2533D01*
X1195Y2533D01*
X1196Y2533D01*
X1197Y2533D01*
X1198Y2533D01*
X1199Y2533D01*
X1200Y2533D01*
X1201Y2533D01*
X1202Y2533D01*
X1203Y2533D01*
X1204Y2533D01*
X1205Y2533D01*
X1206Y2533D01*
X1207Y2533D01*
X1208Y2533D01*
X1209Y2533D01*
X1210Y2533D01*
X1211Y2533D01*
X1212Y2533D01*
X1213Y2533D01*
X1214Y2533D01*
X1215Y2533D01*
X1216Y2533D01*
X1217Y2533D01*
X1218Y2533D01*
X1219Y2533D01*
X1220Y2533D01*
X1221Y2533D01*
X1222Y2533D01*
X1223Y2533D01*
X1224Y2533D01*
X1225Y2533D01*
X1226Y2533D01*
X1227Y2533D01*
X1228Y2533D01*
X1229Y2533D01*
X1230Y2533D01*
X1231Y2533D01*
X1232Y2533D01*
X1233Y2533D01*
X1234Y2533D01*
X1235Y2533D01*
X1236Y2533D01*
X1237Y2533D01*
X1238Y2533D01*
X1239Y2533D01*
X1240Y2533D01*
X1241Y2533D01*
X1242Y2533D01*
X1243Y2533D01*
X1244Y2533D01*
X1245Y2533D01*
X1246Y2533D01*
X1247Y2533D01*
X1248Y2533D01*
X1249Y2533D01*
X1250Y2533D01*
X1251Y2533D01*
X1252Y2533D01*
X1253Y2533D01*
X1254Y2533D01*
X1255Y2533D01*
X1256Y2533D01*
X1257Y2533D01*
X1258Y2533D01*
X1259Y2533D01*
X1260Y2533D01*
X1261Y2533D01*
X1262Y2533D01*
X1263Y2533D01*
X1264Y2533D01*
X1265Y2533D01*
X1266Y2533D01*
X1267Y2533D01*
X1268Y2533D01*
X1269Y2533D01*
X1270Y2533D01*
X1271Y2533D01*
X1272Y2533D01*
X1273Y2533D01*
X1274Y2533D01*
X1275Y2533D01*
X1276Y2533D01*
X1277Y2533D01*
X1278Y2533D01*
X1279Y2533D01*
X1280Y2533D01*
X1281Y2533D01*
X1282Y2533D01*
X1283Y2533D01*
X1284Y2533D01*
X1285Y2533D01*
X1286Y2533D01*
X1287Y2533D01*
X1288Y2533D01*
X1289Y2533D01*
X1290Y2533D01*
X1291Y2533D01*
X1292Y2533D01*
X1293Y2533D01*
X1294Y2533D01*
X1295Y2533D01*
X1296Y2533D01*
X1297Y2533D01*
X1298Y2533D01*
X1299Y2533D01*
X1300Y2533D01*
X1301Y2533D01*
X1302Y2533D01*
X1303Y2533D01*
X1304Y2533D01*
X1305Y2533D01*
X1306Y2533D01*
X1307Y2533D01*
X1308Y2533D01*
X1309Y2533D01*
X1310Y2533D01*
X1311Y2533D01*
X1312Y2533D01*
X1313Y2533D01*
X1314Y2533D01*
X1315Y2533D01*
X1316Y2533D01*
X1317Y2533D01*
X1318Y2533D01*
X1319Y2533D01*
X1320Y2533D01*
X1321Y2533D01*
X1322Y2533D01*
X1323Y2533D01*
X1324Y2533D01*
X1325Y2533D01*
X1326Y2533D01*
X1327Y2533D01*
X1328Y2533D01*
X1329Y2533D01*
X1330Y2533D01*
X1331Y2533D01*
X1332Y2533D01*
X1333Y2533D01*
X1334Y2533D01*
X1335Y2533D01*
X1336Y2533D01*
X1337Y2533D01*
X1338Y2533D01*
X1339Y2533D01*
X1340Y2533D01*
X1341Y2533D01*
X1342Y2533D01*
X1343Y2533D01*
X1344Y2533D01*
X1345Y2533D01*
X1346Y2533D01*
X1347Y2533D01*
X1348Y2533D01*
X1349Y2533D01*
X1350Y2533D01*
X1351Y2533D01*
X1352Y2533D01*
X1353Y2533D01*
X1354Y2533D01*
X1355Y2533D01*
X1356Y2533D01*
X1357Y2533D01*
X1358Y2533D01*
X1359Y2533D01*
X1360Y2533D01*
X1361Y2533D01*
X1362Y2533D01*
X1363Y2533D01*
X1364Y2533D01*
X1365Y2533D01*
X1366Y2533D01*
X1367Y2533D01*
X1368Y2533D01*
X1369Y2533D01*
X1370Y2533D01*
X1371Y2533D01*
X1372Y2533D01*
X1373Y2533D01*
X1374Y2533D01*
X1375Y2533D01*
X1376Y2533D01*
X1377Y2533D01*
X1378Y2533D01*
X1379Y2533D01*
X1380Y2533D01*
X1381Y2533D01*
X1382Y2533D01*
X1383Y2533D01*
X1384Y2533D01*
X1385Y2533D01*
X1386Y2533D01*
X1387Y2533D01*
X1388Y2533D01*
X1389Y2533D01*
X1390Y2533D01*
X1391Y2533D01*
X1392Y2533D01*
X1393Y2533D01*
X1394Y2533D01*
X1395Y2533D01*
X1396Y2533D01*
X1397Y2533D01*
X1398Y2533D01*
X1399Y2533D01*
X1400Y2533D01*
X1401Y2533D01*
X1402Y2533D01*
X1403Y2533D01*
X1404Y2533D01*
X1405Y2533D01*
X1406Y2533D01*
X1407Y2533D01*
X1408Y2533D01*
X1409Y2533D01*
X1410Y2533D01*
X1411Y2533D01*
X1412Y2533D01*
X1413Y2533D01*
X1414Y2533D01*
X1415Y2533D01*
X1416Y2533D01*
X1417Y2533D01*
X1418Y2533D01*
X1419Y2533D01*
X1420Y2533D01*
X1421Y2533D01*
X1422Y2533D01*
X1423Y2533D01*
X1424Y2533D01*
X1425Y2533D01*
X1426Y2533D01*
X1427Y2533D01*
X1428Y2533D01*
X1429Y2533D01*
X1430Y2533D01*
X1431Y2533D01*
X1432Y2533D01*
X1433Y2533D01*
X1434Y2533D01*
X1435Y2533D01*
X1436Y2533D01*
X1437Y2533D01*
X1438Y2533D01*
X1439Y2533D01*
X1440Y2533D01*
X1441Y2533D01*
X1442Y2533D01*
X1443Y2533D01*
X1444Y2533D01*
X1445Y2533D01*
X1446Y2533D01*
X1447Y2533D01*
X1448Y2533D01*
X1449Y2533D01*
X1450Y2533D01*
X1451Y2533D01*
X1452Y2533D01*
X1453Y2533D01*
X1454Y2533D01*
X1455Y2533D01*
X1456Y2533D01*
X1457Y2533D01*
X1458Y2533D01*
X1459Y2533D01*
X1460Y2533D01*
X1461Y2533D01*
X1462Y2533D01*
X1463Y2533D01*
X1464Y2533D01*
X1465Y2533D01*
X1466Y2533D01*
X1467Y2533D01*
X1468Y2533D01*
X1469Y2533D01*
X1470Y2533D01*
X1471Y2533D01*
X1472Y2533D01*
X1473Y2533D01*
X1474Y2533D01*
X1475Y2533D01*
X1476Y2533D01*
X1477Y2533D01*
X1478Y2533D01*
X1479Y2533D01*
X1480Y2533D01*
X1481Y2533D01*
X1482Y2533D01*
X1483Y2533D01*
X1484Y2533D01*
X1485Y2533D01*
X1486Y2533D01*
X1487Y2533D01*
X1488Y2533D01*
X1489Y2533D01*
X1490Y2533D01*
X1491Y2533D01*
X1492Y2533D01*
X1493Y2533D01*
X1494Y2533D01*
X1495Y2533D01*
X1496Y2533D01*
X1497Y2533D01*
X1498Y2533D01*
X1499Y2533D01*
X1500Y2533D01*
X1501Y2533D01*
X1502Y2533D01*
X1503Y2533D01*
X1504Y2533D01*
X1505Y2533D01*
X1506Y2533D01*
X1507Y2533D01*
X1508Y2533D01*
X1509Y2533D01*
X1510Y2533D01*
X1511Y2533D01*
X1512Y2533D01*
X1513Y2533D01*
X1514Y2533D01*
X1515Y2533D01*
X1516Y2533D01*
X1517Y2533D01*
X1518Y2533D01*
X1519Y2533D01*
X1520Y2533D01*
X1521Y2533D01*
X1522Y2533D01*
X1523Y2533D01*
X1524Y2533D01*
X1525Y2533D01*
X1526Y2533D01*
X1527Y2533D01*
X1528Y2533D01*
X1529Y2533D01*
X1530Y2533D01*
X1531Y2533D01*
X1532Y2533D01*
X1533Y2533D01*
X1534Y2533D01*
X1535Y2533D01*
X1536Y2533D01*
X1537Y2533D01*
X1538Y2533D01*
X1539Y2533D01*
X1540Y2533D01*
X1541Y2533D01*
X1542Y2533D01*
X1543Y2533D01*
X1544Y2533D01*
X1545Y2533D01*
X1546Y2533D01*
X1547Y2533D01*
X1548Y2533D01*
X1549Y2533D01*
X1550Y2533D01*
X1551Y2533D01*
X1552Y2533D01*
X1553Y2533D01*
X1554Y2533D01*
X1555Y2533D01*
X1556Y2533D01*
X1557Y2533D01*
X1558Y2533D01*
X1559Y2533D01*
X1560Y2533D01*
X1561Y2533D01*
X1562Y2533D01*
X1563Y2533D01*
X1564Y2533D01*
X1565Y2533D01*
X1566Y2533D01*
X1567Y2533D01*
X1568Y2533D01*
X1569Y2533D01*
X1570Y2533D01*
X1571Y2533D01*
X1572Y2533D01*
X1573Y2533D01*
X1574Y2533D01*
X1575Y2533D01*
X1576Y2533D01*
X1577Y2533D01*
X1578Y2533D01*
X1579Y2533D01*
X1580Y2533D01*
X1581Y2533D01*
X1582Y2533D01*
X1583Y2533D01*
X1584Y2533D01*
X1585Y2533D01*
X1586Y2533D01*
X1587Y2533D01*
X1588Y2533D01*
X1589Y2533D01*
X1590Y2533D01*
X1591Y2533D01*
X1592Y2533D01*
X1593Y2533D01*
X1594Y2533D01*
X1595Y2533D01*
X1596Y2533D01*
X1597Y2533D01*
X1598Y2533D01*
X1599Y2533D01*
X1600Y2533D01*
X1601Y2533D01*
X1602Y2533D01*
X1603Y2533D01*
X1604Y2533D01*
X1605Y2533D01*
X1606Y2533D01*
X1607Y2533D01*
X1608Y2533D01*
X1609Y2533D01*
X1610Y2533D01*
X1611Y2533D01*
X1612Y2533D01*
X1613Y2533D01*
X1614Y2533D01*
X1615Y2533D01*
X1616Y2533D01*
X1617Y2533D01*
X1618Y2533D01*
X1619Y2533D01*
X1620Y2533D01*
X1621Y2533D01*
X1622Y2533D01*
X1623Y2533D01*
X1624Y2533D01*
X1625Y2533D01*
X1626Y2533D01*
X1627Y2533D01*
X1628Y2533D01*
X1629Y2533D01*
X1630Y2533D01*
X1631Y2533D01*
X1632Y2533D01*
X1633Y2533D01*
X1634Y2533D01*
X1635Y2533D01*
X1636Y2533D01*
X1637Y2533D01*
X1638Y2533D01*
X1639Y2533D01*
X1640Y2533D01*
X1641Y2533D01*
X1642Y2533D01*
X1643Y2533D01*
X1644Y2533D01*
X1645Y2533D01*
X1646Y2533D01*
X1647Y2533D01*
X1648Y2533D01*
X1649Y2533D01*
X1650Y2533D01*
X1651Y2533D01*
X1652Y2533D01*
X1653Y2533D01*
X1654Y2533D01*
X1655Y2533D01*
X1656Y2533D01*
X1657Y2533D01*
X1658Y2533D01*
X1659Y2533D01*
X1660Y2533D01*
X1661Y2533D01*
X1662Y2533D01*
X1663Y2533D01*
X1664Y2533D01*
X1665Y2533D01*
X1666Y2533D01*
X1667Y2533D01*
X1668Y2533D01*
X1669Y2533D01*
X1670Y2533D01*
X1671Y2533D01*
X1672Y2533D01*
X1673Y2533D01*
X1674Y2533D01*
X1675Y2533D01*
X1676Y2533D01*
X1677Y2533D01*
X1678Y2533D01*
X1679Y2533D01*
X1680Y2533D01*
X1681Y2533D01*
X1682Y2533D01*
X1683Y2533D01*
X1684Y2533D01*
X1685Y2533D01*
X1686Y2533D01*
X1687Y2533D01*
X1688Y2533D01*
X1689Y2533D01*
X1690Y2533D01*
X1691Y2533D01*
X1692Y2533D01*
X1693Y2533D01*
X1694Y2533D01*
X1695Y2533D01*
X1696Y2533D01*
X1697Y2533D01*
X1698Y2533D01*
X1699Y2533D01*
X1700Y2533D01*
X1701Y2533D01*
X1702Y2533D01*
X1703Y2533D01*
X1704Y2533D01*
X1705Y2533D01*
X1706Y2533D01*
X1707Y2533D01*
X1708Y2533D01*
X1709Y2533D01*
X1710Y2533D01*
X1711Y2533D01*
X1712Y2533D01*
X1713Y2533D01*
X1714Y2533D01*
X1715Y2533D01*
X1716Y2533D01*
X1717Y2533D01*
X1718Y2533D01*
X1719Y2533D01*
X1720Y2533D01*
X1721Y2533D01*
X1722Y2533D01*
X1723Y2533D01*
X1724Y2533D01*
X1725Y2533D01*
X1726Y2533D01*
X1727Y2533D01*
X1728Y2533D01*
X1729Y2533D01*
X1730Y2533D01*
X1731Y2533D01*
X1732Y2533D01*
X1733Y2533D01*
X1734Y2533D01*
X1735Y2533D01*
X1736Y2533D01*
X1737Y2533D01*
X1738Y2533D01*
X1739Y2533D01*
X1740Y2533D01*
X1741Y2533D01*
X1742Y2533D01*
X1743Y2533D01*
X1744Y2533D01*
X1745Y2533D01*
X1746Y2533D01*
X1747Y2533D01*
X1748Y2533D01*
X1749Y2533D01*
X1750Y2533D01*
X1751Y2533D01*
X1752Y2533D01*
X1753Y2533D01*
X1754Y2533D01*
X1755Y2533D01*
X1756Y2533D01*
X1757Y2533D01*
X1758Y2533D01*
X1759Y2533D01*
X1760Y2533D01*
X1761Y2533D01*
X1762Y2533D01*
X1763Y2533D01*
X1764Y2533D01*
X1765Y2533D01*
X1766Y2533D01*
X1767Y2533D01*
X1768Y2533D01*
X1769Y2533D01*
X1770Y2533D01*
X1771Y2533D01*
X1772Y2533D01*
X1773Y2533D01*
X1774Y2533D01*
X1775Y2533D01*
X1776Y2533D01*
X1777Y2533D01*
X1778Y2533D01*
X1779Y2533D01*
X1780Y2533D01*
X1781Y2533D01*
X1782Y2533D01*
X1783Y2533D01*
X1784Y2533D01*
X1785Y2533D01*
X1786Y2533D01*
X1787Y2533D01*
X1788Y2533D01*
X1789Y2533D01*
X1790Y2533D01*
X1791Y2533D01*
X1792Y2533D01*
X1793Y2533D01*
X1794Y2533D01*
X1795Y2533D01*
X1796Y2533D01*
X1797Y2533D01*
X1798Y2533D01*
X1799Y2533D01*
X1800Y2533D01*
X1801Y2533D01*
X1802Y2533D01*
X1803Y2533D01*
X1804Y2533D01*
X1805Y2533D01*
X1806Y2533D01*
X1807Y2533D01*
X1808Y2533D01*
X1809Y2533D01*
X1810Y2533D01*
X1811Y2533D01*
X1812Y2533D01*
X1813Y2533D01*
X1814Y2533D01*
X1815Y2533D01*
X1816Y2533D01*
X1817Y2533D01*
X1818Y2533D01*
X1819Y2533D01*
X1820Y2533D01*
X1821Y2533D01*
X1822Y2533D01*
X1823Y2533D01*
X1824Y2533D01*
X1825Y2533D01*
X1826Y2533D01*
X1827Y2533D01*
X1828Y2533D01*
X1829Y2533D01*
X1830Y2533D01*
X1831Y2533D01*
X1832Y2533D01*
X1833Y2533D01*
X1834Y2533D01*
X1835Y2533D01*
X1836Y2533D01*
X1837Y2533D01*
X1838Y2533D01*
X1839Y2533D01*
X1840Y2533D01*
X1841Y2533D01*
X1842Y2533D01*
X1843Y2533D01*
X1844Y2533D01*
X1845Y2533D01*
X1846Y2533D01*
X1847Y2533D01*
X1848Y2533D01*
X1849Y2533D01*
X1850Y2533D01*
X1851Y2533D01*
X1852Y2533D01*
X1853Y2533D01*
X1854Y2533D01*
X1855Y2533D01*
X1856Y2533D01*
X1857Y2533D01*
X1858Y2533D01*
X1859Y2533D01*
X1860Y2533D01*
X1861Y2533D01*
X1862Y2533D01*
X1863Y2533D01*
X1864Y2533D01*
X1865Y2533D01*
X1866Y2533D01*
X1867Y2533D01*
X1868Y2533D01*
X1869Y2533D01*
X1870Y2533D01*
X1871Y2533D01*
X1872Y2533D01*
X1873Y2533D01*
X1874Y2533D01*
X1875Y2533D01*
X1876Y2533D01*
X1877Y2533D01*
X1878Y2533D01*
X1879Y2533D01*
X1880Y2533D01*
X1881Y2533D01*
X1882Y2533D01*
X1883Y2533D01*
X1884Y2533D01*
X1885Y2533D01*
X1886Y2533D01*
X1887Y2533D01*
X1888Y2533D01*
X1889Y2533D01*
X1890Y2533D01*
X1891Y2533D01*
X1892Y2533D01*
X1893Y2533D01*
X1894Y2533D01*
X1895Y2533D01*
X1896Y2533D01*
X1897Y2533D01*
X1898Y2533D01*
X1899Y2533D01*
X1900Y2533D01*
X1901Y2533D01*
X1902Y2533D01*
X1903Y2533D01*
X1904Y2533D01*
X1905Y2533D01*
X1906Y2533D01*
X1907Y2533D01*
X1908Y2533D01*
X1909Y2533D01*
X1910Y2533D01*
X1911Y2533D01*
X1912Y2533D01*
X1913Y2533D01*
X1914Y2533D01*
X1915Y2533D01*
X1916Y2533D01*
X1917Y2533D01*
X1918Y2533D01*
X1919Y2533D01*
X1920Y2533D01*
X1921Y2533D01*
X1922Y2533D01*
X1923Y2533D01*
X1924Y2533D01*
X1925Y2533D01*
X1926Y2533D01*
X1927Y2533D01*
X1928Y2533D01*
X1929Y2533D01*
X1930Y2533D01*
X1931Y2533D01*
X1932Y2533D01*
X1933Y2533D01*
X1934Y2533D01*
X1935Y2533D01*
X1936Y2533D01*
X1937Y2533D01*
X1938Y2533D01*
X1939Y2533D01*
X1940Y2533D01*
X1941Y2533D01*
X1942Y2533D01*
X1943Y2533D01*
X1944Y2533D01*
X1945Y2533D01*
X1946Y2533D01*
X1947Y2533D01*
X1948Y2533D01*
X1949Y2533D01*
X1950Y2533D01*
X1951Y2533D01*
X1952Y2533D01*
X1953Y2533D01*
X1954Y2533D01*
X1955Y2533D01*
X1956Y2533D01*
X1957Y2533D01*
X1958Y2533D01*
X1959Y2533D01*
X1960Y2533D01*
X1961Y2533D01*
X1962Y2533D01*
X1963Y2533D01*
X1964Y2533D01*
X1965Y2533D01*
X1966Y2533D01*
X1967Y2533D01*
X1968Y2533D01*
X1969Y2533D01*
X1970Y2533D01*
X1971Y2533D01*
X1972Y2533D01*
X1973Y2533D01*
X1974Y2533D01*
X1975Y2533D01*
X1976Y2533D01*
X1977Y2533D01*
X1978Y2533D01*
X1979Y2533D01*
X1980Y2533D01*
X1981Y2533D01*
X1982Y2533D01*
X1983Y2533D01*
X1984Y2533D01*
X1985Y2533D01*
X1986Y2533D01*
X1987Y2533D01*
X1988Y2533D01*
X1989Y2533D01*
X1990Y2533D01*
X1991Y2533D01*
X1992Y2533D01*
X1993Y2533D01*
X1994Y2533D01*
X1995Y2533D01*
X1996Y2533D01*
X1997Y2533D01*
X1998Y2533D01*
X1999Y2533D01*
X2000Y2533D01*
X2001Y2533D01*
X2002Y2533D01*
X2003Y2533D01*
X2004Y2533D01*
X2005Y2533D01*
X2006Y2533D01*
X2007Y2533D01*
X2008Y2533D01*
X2009Y2533D01*
X2010Y2533D01*
X2011Y2533D01*
X2012Y2533D01*
X2013Y2533D01*
X2014Y2533D01*
X2015Y2533D01*
X2016Y2533D01*
X2017Y2533D01*
X2018Y2533D01*
X2019Y2533D01*
X2020Y2533D01*
X2021Y2533D01*
X2022Y2533D01*
X2023Y2533D01*
X2024Y2533D01*
X2025Y2533D01*
X2026Y2533D01*
X2027Y2533D01*
X2028Y2533D01*
X2029Y2533D01*
X2030Y2533D01*
X2031Y2533D01*
X2032Y2533D01*
X2033Y2533D01*
X2034Y2533D01*
X2035Y2533D01*
X2036Y2533D01*
X2037Y2533D01*
X2038Y2533D01*
X2039Y2533D01*
X2040Y2533D01*
X2041Y2533D01*
X2042Y2533D01*
X2043Y2533D01*
X2044Y2533D01*
X2045Y2533D01*
X2046Y2533D01*
X2047Y2533D01*
X2048Y2533D01*
X2049Y2533D01*
X2050Y2533D01*
X2051Y2533D01*
X2052Y2533D01*
X2053Y2533D01*
X2054Y2533D01*
X2055Y2533D01*
X2056Y2533D01*
X2057Y2533D01*
X2058Y2533D01*
X2059Y2533D01*
X2060Y2533D01*
X2061Y2533D01*
X2062Y2533D01*
X2063Y2533D01*
X2064Y2533D01*
X2065Y2533D01*
X2066Y2533D01*
X2067Y2533D01*
X2068Y2533D01*
X2069Y2533D01*
X2070Y2533D01*
X2071Y2533D01*
X2072Y2533D01*
X2073Y2533D01*
X2074Y2533D01*
X2075Y2533D01*
X2076Y2533D01*
X2077Y2533D01*
X2078Y2533D01*
X2079Y2533D01*
X2080Y2533D01*
X2081Y2533D01*
X2082Y2533D01*
X2083Y2533D01*
X2084Y2533D01*
X2085Y2533D01*
X2086Y2533D01*
X2087Y2533D01*
X2088Y2533D01*
X2089Y2533D01*
X2090Y2533D01*
X2091Y2533D01*
X2092Y2533D01*
X2093Y2533D01*
X2094Y2533D01*
X2095Y2533D01*
X2096Y2533D01*
X2097Y2533D01*
X2098Y2533D01*
X2099Y2533D01*
X2100Y2533D01*
X2101Y2533D01*
X2102Y2533D01*
X2103Y2533D01*
X2104Y2533D01*
X2105Y2533D01*
X2106Y2533D01*
X2107Y2533D01*
X2108Y2533D01*
X2109Y2533D01*
X2110Y2533D01*
X2111Y2533D01*
X2112Y2533D01*
X2113Y2533D01*
X2114Y2533D01*
X2115Y2533D01*
X2116Y2533D01*
X2117Y2533D01*
X2118Y2533D01*
X2119Y2533D01*
X2120Y2533D01*
X2121Y2533D01*
X2122Y2533D01*
X2123Y2533D01*
X2124Y2533D01*
X2125Y2533D01*
X2126Y2533D01*
X2127Y2533D01*
X2128Y2533D01*
X2129Y2533D01*
X2130Y2533D01*
X2131Y2533D01*
X2132Y2533D01*
X2133Y2533D01*
X2134Y2533D01*
X2135Y2533D01*
X2136Y2533D01*
X2137Y2533D01*
X2138Y2533D01*
X2139Y2533D01*
X2140Y2533D01*
X2141Y2533D01*
X2142Y2533D01*
X2143Y2533D01*
X2144Y2533D01*
X2145Y2533D01*
X2146Y2533D01*
X2147Y2533D01*
X2148Y2533D01*
X2149Y2533D01*
X2150Y2533D01*
X2151Y2533D01*
X2152Y2533D01*
X2153Y2533D01*
X2154Y2533D01*
X2155Y2533D01*
X2156Y2533D01*
X2157Y2533D01*
X2158Y2533D01*
X2159Y2533D01*
X2160Y2533D01*
X2161Y2533D01*
X2162Y2533D01*
X2163Y2533D01*
X2164Y2533D01*
X2165Y2533D01*
X2166Y2533D01*
X2167Y2533D01*
X2168Y2533D01*
X2169Y2533D01*
X2170Y2533D01*
X2171Y2533D01*
X2172Y2533D01*
X2173Y2533D01*
X2174Y2533D01*
X2175Y2533D01*
X2176Y2533D01*
X2177Y2533D01*
X2178Y2533D01*
X2179Y2533D01*
X2180Y2533D01*
X2181Y2533D01*
X2182Y2533D01*
X2183Y2533D01*
X2184Y2533D01*
X2185Y2533D01*
X2186Y2533D01*
X2187Y2533D01*
X2188Y2533D01*
X2189Y2533D01*
X2190Y2533D01*
X2191Y2533D01*
X2192Y2533D01*
X2193Y2533D01*
X2194Y2533D01*
X2195Y2533D01*
X2196Y2533D01*
X2197Y2533D01*
X2198Y2533D01*
X2199Y2533D01*
X2200Y2533D01*
X2201Y2533D01*
X2202Y2533D01*
X2203Y2533D01*
X2204Y2533D01*
X2205Y2533D01*
X2206Y2533D01*
X2207Y2533D01*
X2208Y2533D01*
X2209Y2533D01*
X2210Y2533D01*
X2211Y2533D01*
X2212Y2533D01*
X2213Y2533D01*
X2214Y2533D01*
X2215Y2533D01*
X2216Y2533D01*
X2217Y2533D01*
X2218Y2533D01*
X2219Y2533D01*
X2220Y2533D01*
X2221Y2533D01*
X2222Y2533D01*
X2223Y2533D01*
X2224Y2533D01*
X2225Y2533D01*
X2226Y2533D01*
X2227Y2533D01*
X2228Y2533D01*
X2229Y2533D01*
X2230Y2533D01*
X2231Y2533D01*
X2232Y2533D01*
X2233Y2533D01*
X2234Y2533D01*
X2235Y2533D01*
X2236Y2533D01*
X2237Y2533D01*
X2238Y2533D01*
X2239Y2533D01*
X2240Y2533D01*
X2241Y2533D01*
X2242Y2533D01*
X2243Y2533D01*
X2244Y2533D01*
X2245Y2533D01*
X2246Y2533D01*
X2247Y2533D01*
X2248Y2533D01*
X2249Y2533D01*
X2250Y2533D01*
X2251Y2533D01*
X2252Y2533D01*
X2253Y2533D01*
X2254Y2533D01*
X2255Y2533D01*
X2256Y2533D01*
X2257Y2533D01*
X2258Y2533D01*
X2259Y2533D01*
X2260Y2533D01*
X2261Y2533D01*
X2262Y2533D01*
X2263Y2533D01*
X2264Y2533D01*
X2265Y2533D01*
X2266Y2533D01*
X2267Y2533D01*
X2268Y2533D01*
X2269Y2533D01*
X2270Y2533D01*
X2271Y2533D01*
X2272Y2533D01*
X2273Y2533D01*
X2274Y2533D01*
X2275Y2533D01*
X2276Y2533D01*
X2277Y2533D01*
X2278Y2533D01*
X2279Y2533D01*
X2280Y2533D01*
X2281Y2533D01*
X2282Y2533D01*
X2283Y2533D01*
X2284Y2533D01*
X2285Y2533D01*
X2286Y2533D01*
X2287Y2533D01*
X2288Y2533D01*
X2289Y2533D01*
X2290Y2533D01*
X2291Y2533D01*
X2292Y2533D01*
X2293Y2533D01*
X2294Y2533D01*
X2295Y2533D01*
X2296Y2533D01*
X2297Y2533D01*
X2298Y2533D01*
X2299Y2533D01*
X2300Y2533D01*
X2301Y2533D01*
X2302Y2533D01*
X2303Y2533D01*
X2304Y2533D01*
X2305Y2533D01*
X2306Y2533D01*
X2307Y2533D01*
X2308Y2533D01*
X2309Y2533D01*
X2310Y2533D01*
X2311Y2533D01*
X2312Y2533D01*
X2313Y2533D01*
X2314Y2533D01*
X2315Y2533D01*
X2316Y2533D01*
X2317Y2533D01*
X2318Y2533D01*
X2319Y2533D01*
X2320Y2533D01*
X2321Y2533D01*
X2322Y2533D01*
X2323Y2533D01*
X2324Y2533D01*
X2325Y2533D01*
X2326Y2533D01*
X2327Y2533D01*
X2328Y2533D01*
X2329Y2533D01*
X2330Y2533D01*
X2331Y2533D01*
X2332Y2533D01*
X2333Y2533D01*
X2334Y2533D01*
X2335Y2533D01*
X2336Y2533D01*
X2337Y2533D01*
X2338Y2533D01*
X2339Y2533D01*
X2340Y2533D01*
X2341Y2533D01*
X2342Y2533D01*
X2343Y2533D01*
X2344Y2533D01*
X2345Y2533D01*
X2346Y2533D01*
X2347Y2533D01*
X2348Y2533D01*
X2349Y2533D01*
X2350Y2533D01*
X2351Y2533D01*
X2352Y2533D01*
X2353Y2533D01*
X2354Y2533D01*
X2355Y2533D01*
X2356Y2533D01*
X2357Y2533D01*
X2358Y2533D01*
X2359Y2533D01*
X2360Y2533D01*
X2361Y2533D01*
X2362Y2533D01*
X2363Y2533D01*
X2364Y2533D01*
X2365Y2533D01*
X2366Y2533D01*
X2367Y2533D01*
X2368Y2533D01*
X2369Y2533D01*
X2370Y2533D01*
X2371Y2533D01*
X2372Y2533D01*
X2373Y2533D01*
X2374Y2533D01*
X2375Y2533D01*
X2376Y2533D01*
X2377Y2533D01*
X2378Y2533D01*
X2379Y2533D01*
X2380Y2533D01*
X2381Y2533D01*
X2382Y2533D01*
X2383Y2533D01*
X2384Y2533D01*
X2385Y2533D01*
X2386Y2533D01*
X2387Y2533D01*
X2388Y2533D01*
X2389Y2533D01*
X2390Y2533D01*
X2391Y2533D01*
X2392Y2533D01*
X2393Y2533D01*
X2394Y2533D01*
X2395Y2533D01*
X2396Y2533D01*
X2397Y2533D01*
X2398Y2533D01*
X2399Y2533D01*
X2400Y2533D01*
X2401Y2533D01*
X2402Y2533D01*
X2403Y2533D01*
X2404Y2533D01*
X2405Y2533D01*
X2406Y2533D01*
X2407Y2533D01*
X2408Y2533D01*
X2409Y2533D01*
X2410Y2533D01*
X2411Y2533D01*
X2412Y2533D01*
X2413Y2533D01*
X2414Y2533D01*
X2415Y2533D01*
X2416Y2533D01*
X2417Y2533D01*
X2418Y2533D01*
X2419Y2533D01*
X2420Y2533D01*
X2421Y2533D01*
X2422Y2533D01*
X2423Y2533D01*
X2424Y2533D01*
X2425Y2533D01*
X2426Y2533D01*
X2427Y2533D01*
X2428Y2533D01*
X2429Y2533D01*
X2430Y2533D01*
X2431Y2533D01*
X2432Y2533D01*
X2433Y2533D01*
X2434Y2533D01*
X2435Y2533D01*
X2436Y2533D01*
X2437Y2533D01*
X2438Y2533D01*
X2439Y2533D01*
X2440Y2533D01*
X2441Y2533D01*
X2442Y2533D01*
X2443Y2533D01*
X2444Y2533D01*
X2445Y2533D01*
X2446Y2533D01*
X2447Y2533D01*
X2448Y2533D01*
X2449Y2533D01*
X2450Y2533D01*
X2451Y2533D01*
X2452Y2533D01*
X2453Y2533D01*
X2454Y2533D01*
X2455Y2533D01*
X2456Y2533D01*
X2457Y2533D01*
X2458Y2533D01*
X2459Y2533D01*
X2460Y2533D01*
X2461Y2533D01*
X2462Y2533D01*
X2463Y2533D01*
X2464Y2533D01*
X2465Y2533D01*
X2466Y2533D01*
X2467Y2533D01*
X2468Y2533D01*
X2469Y2533D01*
X2470Y2533D01*
X2471Y2533D01*
X2472Y2533D01*
X2473Y2533D01*
X2474Y2533D01*
X2475Y2533D01*
X2476Y2533D01*
X2477Y2533D01*
X2478Y2533D01*
X2479Y2533D01*
X2480Y2533D01*
X2481Y2533D01*
X2482Y2533D01*
X2483Y2533D01*
X2484Y2533D01*
X2485Y2533D01*
X2486Y2533D01*
X2487Y2533D01*
X2488Y2533D01*
X2489Y2533D01*
X2490Y2533D01*
X2491Y2533D01*
X2492Y2533D01*
X2493Y2533D01*
X2494Y2533D01*
X2495Y2533D01*
X2496Y2533D01*
X2497Y2533D01*
X2498Y2533D01*
X2499Y2533D01*
X2500Y2533D01*
X2501Y2533D01*
X2502Y2533D01*
X2503Y2533D01*
X2504Y2533D01*
X2505Y2533D01*
X2506Y2533D01*
X2507Y2533D01*
X2508Y2533D01*
X2509Y2533D01*
X2510Y2533D01*
X2511Y2533D01*
X2512Y2533D01*
X2513Y2533D01*
X2514Y2533D01*
X2515Y2533D01*
X2516Y2533D01*
X2517Y2533D01*
X2518Y2533D01*
X2519Y2533D01*
X2520Y2533D01*
X2521Y2533D01*
X2522Y2533D01*
X2523Y2533D01*
X2524Y2533D01*
X2525Y2533D01*
X2526Y2533D01*
X2527Y2533D01*
X2528Y2533D01*
X2529Y2533D01*
X2530Y2533D01*
X2531Y2533D01*
X2532Y2533D01*
X2533Y2533D01*
X2534Y2533D01*
X2535Y2533D01*
X2536Y2533D01*
X2537Y2533D01*
X2538Y2533D01*
X2539Y2533D01*
X2540Y2533D01*
X2541Y2533D01*
X2542Y2533D01*
X2543Y2533D01*
X2544Y2533D01*
X2545Y2533D01*
X2546Y2533D01*
X2547Y2533D01*
X2548Y2533D01*
X2549Y2533D01*
X2550Y2533D01*
X2551Y2533D01*
X2552Y2533D01*
X2553Y2533D01*
X2554Y2533D01*
X2555Y2533D01*
X2556Y2533D01*
X2557Y2533D01*
X2558Y2533D01*
X2559Y2533D01*
X2560Y2533D01*
X2561Y2533D01*
X2562Y2533D01*
X2563Y2533D01*
X2564Y2533D01*
X2565Y2533D01*
X2566Y2533D01*
X2567Y2533D01*
X2568Y2533D01*
X2569Y2533D01*
X2570Y2533D01*
X2571Y2533D01*
X2572Y2533D01*
X2573Y2533D01*
X2574Y2533D01*
X2575Y2533D01*
X2576Y2533D01*
X2577Y2533D01*
X2578Y2533D01*
X2579Y2533D01*
X2580Y2533D01*
X2581Y2533D01*
X2582Y2533D01*
X2583Y2533D01*
X2584Y2533D01*
X2585Y2533D01*
X2586Y2533D01*
X2587Y2533D01*
X2588Y2533D01*
X2589Y2533D01*
X2590Y2533D01*
X2591Y2533D01*
X2592Y2533D01*
X2593Y2533D01*
X2594Y2533D01*
X2595Y2533D01*
X2596Y2533D01*
X2597Y2533D01*
X2598Y2533D01*
X2599Y2533D01*
X2600Y2533D01*
X2601Y2533D01*
X2602Y2533D01*
X2603Y2533D01*
X2604Y2533D01*
X2605Y2533D01*
X2606Y2533D01*
X2607Y2533D01*
X2608Y2533D01*
X2609Y2533D01*
X2610Y2533D01*
X2611Y2533D01*
X2612Y2533D01*
X2613Y2533D01*
X2614Y2533D01*
X2615Y2533D01*
X2616Y2533D01*
X2617Y2533D01*
X2618Y2533D01*
X2619Y2533D01*
X2620Y2533D01*
X2621Y2533D01*
X2622Y2533D01*
X2623Y2533D01*
X2624Y2533D01*
X2625Y2533D01*
X2626Y2533D01*
X2627Y2533D01*
X2628Y2533D01*
X2629Y2533D01*
X2630Y2533D01*
X2631Y2533D01*
X2632Y2533D01*
X2633Y2533D01*
X2634Y2533D01*
X2635Y2533D01*
X2636Y2533D01*
X2637Y2533D01*
X2638Y2533D01*
X2639Y2533D01*
X2640Y2533D01*
X2641Y2533D01*
X2642Y2533D01*
X2643Y2533D01*
X2644Y2533D01*
X2645Y2533D01*
X2646Y2533D01*
X2647Y2533D01*
X2648Y2533D01*
X2649Y2533D01*
X2650Y2533D01*
X2651Y2533D01*
X2652Y2533D01*
X2653Y2533D01*
X2654Y2533D01*
X2655Y2533D01*
X2656Y2533D01*
X2657Y2533D01*
X2658Y2533D01*
X2659Y2533D01*
X2660Y2533D01*
X2661Y2533D01*
X2662Y2533D01*
X2663Y2533D01*
X2664Y2533D01*
X2665Y2533D01*
X2666Y2533D01*
X2667Y2533D01*
X2668Y2533D01*
X2669Y2533D01*
X2670Y2533D01*
X2671Y2533D01*
X2672Y2533D01*
X2673Y2533D01*
X2674Y2533D01*
X2675Y2533D01*
X2676Y2533D01*
X2677Y2533D01*
X2678Y2533D01*
X2679Y2533D01*
X2680Y2533D01*
X2681Y2533D01*
X2682Y2533D01*
X2683Y2533D01*
X2684Y2533D01*
X2685Y2533D01*
X2686Y2533D01*
X2687Y2533D01*
X2688Y2533D01*
X2689Y2533D01*
X2690Y2533D01*
X2691Y2533D01*
X2692Y2533D01*
X2693Y2533D01*
X2694Y2533D01*
X2695Y2533D01*
X2696Y2533D01*
X2697Y2533D01*
X2698Y2533D01*
X2699Y2533D01*
X2700Y2533D01*
X2701Y2533D01*
X2702Y2533D01*
X2703Y2533D01*
X2704Y2533D01*
X2705Y2533D01*
X2706Y2533D01*
X2707Y2533D01*
X2708Y2533D01*
X2709Y2533D01*
X2710Y2533D01*
X2711Y2533D01*
X2712Y2533D01*
X2713Y2533D01*
X2714Y2533D01*
X2715Y2533D01*
X2716Y2533D01*
X2717Y2533D01*
X2718Y2533D01*
X2719Y2533D01*
X2720Y2533D01*
X2721Y2533D01*
X2722Y2533D01*
X2723Y2533D01*
X2724Y2533D01*
X2725Y2533D01*
X2726Y2533D01*
X2727Y2533D01*
X2728Y2533D01*
X2729Y2533D01*
X2730Y2533D01*
X2731Y2533D01*
X2732Y2533D01*
X2733Y2533D01*
X2734Y2533D01*
X2735Y2533D01*
X2736Y2533D01*
X2737Y2533D01*
X2738Y2533D01*
X2739Y2533D01*
X2740Y2533D01*
X2741Y2533D01*
X2742Y2533D01*
X2743Y2533D01*
X2744Y2533D01*
X2745Y2533D01*
X2746Y2533D01*
X2747Y2533D01*
X2748Y2533D01*
X2749Y2533D01*
X2750Y2533D01*
X2751Y2533D01*
X2752Y2533D01*
X2753Y2533D01*
X2754Y2533D01*
X2755Y2533D01*
X2756Y2533D01*
X2757Y2533D01*
X2758Y2533D01*
X2759Y2533D01*
X2760Y2533D01*
X2761Y2533D01*
X2762Y2533D01*
X2763Y2533D01*
X2764Y2533D01*
X2765Y2533D01*
X2766Y2533D01*
X2767Y2533D01*
X2768Y2533D01*
X2769Y2533D01*
X2770Y2533D01*
X2771Y2533D01*
X2772Y2533D01*
X2773Y2533D01*
X2774Y2533D01*
X2775Y2533D01*
X2776Y2533D01*
X2777Y2533D01*
X2778Y2533D01*
X2779Y2533D01*
X2780Y2533D01*
X2781Y2533D01*
X2782Y2533D01*
X2783Y2533D01*
X2784Y2533D01*
X2785Y2533D01*
X2786Y2533D01*
X2787Y2533D01*
X2788Y2533D01*
X2789Y2533D01*
X2790Y2533D01*
X2791Y2533D01*
X2792Y2533D01*
X2793Y2533D01*
X2794Y2533D01*
X2795Y2533D01*
X2796Y2533D01*
X2797Y2533D01*
X2798Y2533D01*
X2799Y2533D01*
X2800Y2533D01*
X2801Y2533D01*
X2802Y2533D01*
X2803Y2533D01*
X2804Y2533D01*
X2805Y2533D01*
X2806Y2533D01*
X2807Y2533D01*
X2808Y2533D01*
X2809Y2533D01*
X2810Y2533D01*
X2811Y2533D01*
X2812Y2533D01*
X2813Y2533D01*
X2814Y2533D01*
X2815Y2533D01*
X2816Y2533D01*
X2817Y2533D01*
X2818Y2533D01*
X2819Y2533D01*
X2820Y2533D01*
X2821Y2533D01*
X2822Y2533D01*
X2823Y2533D01*
X2824Y2533D01*
X2825Y2533D01*
X2826Y2533D01*
X2827Y2533D01*
X2828Y2533D01*
X2829Y2533D01*
X2830Y2533D01*
X2831Y2533D01*
X2832Y2533D01*
X2833Y2533D01*
X2834Y2533D01*
X2835Y2533D01*
X2836Y2533D01*
X2837Y2533D01*
X2838Y2533D01*
X2839Y2533D01*
X2840Y2533D01*
X2841Y2533D01*
X2842Y2533D01*
X2843Y2533D01*
X2844Y2533D01*
X2845Y2533D01*
X2846Y2533D01*
X2847Y2533D01*
X2848Y2533D01*
X2849Y2533D01*
X2850Y2533D01*
X2851Y2533D01*
X2852Y2533D01*
X2853Y2533D01*
X2854Y2533D01*
X2855Y2533D01*
X2856Y2533D01*
X2857Y2533D01*
X2858Y2533D01*
X2859Y2533D01*
X2860Y2533D01*
X2861Y2533D01*
X2862Y2533D01*
X2863Y2533D01*
X2864Y2533D01*
X2865Y2533D01*
X2866Y2533D01*
X2867Y2533D01*
X2868Y2533D01*
X2869Y2533D01*
X2870Y2533D01*
X2871Y2533D01*
X2872Y2533D01*
X2873Y2533D01*
X2874Y2533D01*
X2875Y2533D01*
X2876Y2533D01*
X2877Y2533D01*
X2878Y2533D01*
X2879Y2533D01*
X2880Y2533D01*
X2881Y2533D01*
X2882Y2533D01*
X2883Y2533D01*
X2884Y2533D01*
X2885Y2533D01*
X2886Y2533D01*
X2887Y2533D01*
X2888Y2533D01*
X2889Y2533D01*
X2890Y2533D01*
X2891Y2533D01*
X2892Y2533D01*
X2893Y2533D01*
X2894Y2533D01*
X2895Y2533D01*
X2896Y2533D01*
X2897Y2533D01*
X2898Y2533D01*
X2899Y2533D01*
X2900Y2533D01*
X2901Y2533D01*
X2902Y2533D01*
X2903Y2533D01*
X2904Y2533D01*
X2905Y2533D01*
X2906Y2533D01*
X2907Y2533D01*
X2908Y2533D01*
X2909Y2533D01*
X2910Y2533D01*
X2911Y2533D01*
X2912Y2533D01*
X2913Y2533D01*
X2914Y2533D01*
X2915Y2533D01*
X2916Y2533D01*
X2917Y2533D01*
X2918Y2533D01*
X2919Y2533D01*
X2920Y2533D01*
X2921Y2533D01*
X2922Y2533D01*
X2923Y2533D01*
X2924Y2533D01*
X2925Y2533D01*
X2926Y2533D01*
X2927Y2533D01*
X2928Y2533D01*
X2929Y2533D01*
X2930Y2533D01*
X2931Y2533D01*
X2932Y2533D01*
X2933Y2533D01*
X2934Y2533D01*
X2935Y2533D01*
X2936Y2533D01*
X2937Y2533D01*
X2938Y2533D01*
X2939Y2533D01*
X2940Y2533D01*
X2941Y2533D01*
X2942Y2533D01*
X2943Y2533D01*
X2944Y2533D01*
X2945Y2533D01*
X2946Y2533D01*
X2947Y2533D01*
X2948Y2533D01*
X2949Y2533D01*
X2950Y2533D01*
X2951Y2533D01*
X2952Y2533D01*
X2953Y2533D01*
X2954Y2533D01*
X2955Y2533D01*
X2956Y2533D01*
X2957Y2533D01*
X2958Y2533D01*
X2959Y2533D01*
X2960Y2533D01*
X2961Y2533D01*
X2962Y2533D01*
X2963Y2533D01*
X2964Y2533D01*
X2965Y2533D01*
X2966Y2533D01*
X2967Y2533D01*
X2968Y2533D01*
X2969Y2533D01*
X2970Y2533D01*
X2971Y2533D01*
X2972Y2533D01*
X2973Y2533D01*
X2974Y2533D01*
X2975Y2533D01*
X2976Y2533D01*
X2977Y2533D01*
X2978Y2533D01*
X2979Y2533D01*
X2980Y2533D01*
X2981Y2533D01*
X2982Y2533D01*
X2983Y2533D01*
X2984Y2533D01*
X2985Y2533D01*
X2986Y2533D01*
X2987Y2533D01*
X2988Y2533D01*
X2989Y2533D01*
X2990Y2533D01*
X2991Y2533D01*
X2992Y2533D01*
X2993Y2533D01*
X2994Y2533D01*
X2995Y2533D01*
X2996Y2533D01*
X2997Y2533D01*
X2998Y2533D01*
X2999Y2533D01*
X3000Y2533D01*
X3001Y2533D01*
X3002Y2533D01*
X3003Y2533D01*
X3004Y2533D01*
X3005Y2533D01*
X3006Y2533D01*
X3007Y2533D01*
X3008Y2533D01*
X3009Y2533D01*
X3010Y2533D01*
X3011Y2533D01*
X3012Y2533D01*
X3013Y2533D01*
X3014Y2533D01*
X3015Y2533D01*
X3016Y2533D01*
X3017Y2533D01*
X3018Y2533D01*
X3019Y2533D01*
X3020Y2533D01*
X3021Y2533D01*
X3022Y2533D01*
X3023Y2533D01*
X3024Y2533D01*
X3025Y2533D01*
X3026Y2533D01*
X3027Y2533D01*
X3028Y2533D01*
X3029Y2533D01*
X3030Y2533D01*
X3031Y2533D01*
X3032Y2533D01*
X3033Y2533D01*
X3034Y2533D01*
X3035Y2533D01*
X3036Y2533D01*
X3037Y2533D01*
X3038Y2533D01*
X3039Y2533D01*
X3040Y2533D01*
X3041Y2533D01*
X3042Y2533D01*
X3043Y2533D01*
X3044Y2533D01*
X3045Y2533D01*
X3046Y2533D01*
X3047Y2533D01*
X3048Y2533D01*
X3049Y2533D01*
X3050Y2533D01*
X3051Y2533D01*
X3052Y2533D01*
X3053Y2533D01*
X3054Y2533D01*
X3055Y2533D01*
X3056Y2533D01*
X3057Y2533D01*
X3058Y2533D01*
X3059Y2533D01*
X3060Y2533D01*
X3061Y2533D01*
X3062Y2533D01*
X3063Y2533D01*
X3064Y2533D01*
X3065Y2533D01*
X3066Y2533D01*
X3067Y2533D01*
X3068Y2533D01*
X3069Y2533D01*
X3070Y2533D01*
X3071Y2533D01*
X3072Y2533D01*
X3073Y2533D01*
X3074Y2533D01*
X3075Y2533D01*
X3076Y2533D01*
X3077Y2533D01*
X3078Y2533D01*
X3079Y2533D01*
X3080Y2533D01*
X3081Y2533D01*
X3082Y2533D01*
X3083Y2533D01*
X3084Y2533D01*
X3085Y2533D01*
X3086Y2533D01*
X3087Y2533D01*
X3088Y2533D01*
X3089Y2533D01*
X3090Y2533D01*
X3091Y2533D01*
X3092Y2533D01*
X3093Y2533D01*
X3094Y2533D01*
X3095Y2533D01*
X3096Y2533D01*
X3097Y2533D01*
X3098Y2533D01*
X3099Y2533D01*
X3100Y2533D01*
X3101Y2533D01*
X3102Y2533D01*
X3103Y2533D01*
X3104Y2533D01*
X3105Y2533D01*
X3106Y2533D01*
X3107Y2533D01*
X3108Y2533D01*
X3109Y2533D01*
X3110Y2533D01*
X3111Y2533D01*
X3112Y2533D01*
X3113Y2533D01*
X3114Y2533D01*
X3115Y2533D01*
X3116Y2533D01*
X3117Y2533D01*
X3118Y2533D01*
X3119Y2533D01*
X3120Y2533D01*
X3121Y2533D01*
X3122Y2533D01*
X3123Y2533D01*
X3124Y2533D01*
X3125Y2533D01*
X3126Y2533D01*
X3127Y2533D01*
X3128Y2533D01*
X3129Y2533D01*
X3130Y2533D01*
X3131Y2533D01*
X3132Y2533D01*
X3133Y2533D01*
X3134Y2533D01*
X3135Y2533D01*
X3136Y2533D01*
X3137Y2533D01*
X3138Y2533D01*
X3139Y2533D01*
X3140Y2533D01*
X3141Y2533D01*
X3142Y2533D01*
X3143Y2533D01*
X3144Y2533D01*
X3145Y2533D01*
X3146Y2533D01*
X3147Y2533D01*
X3148Y2533D01*
X3149Y2533D01*
X3150Y2533D01*
X3151Y2533D01*
X3152Y2533D01*
X3153Y2533D01*
X3154Y2533D01*
X3155Y2533D01*
X3156Y2533D01*
X3157Y2533D01*
X3158Y2533D01*
X3159Y2533D01*
X3160Y2533D01*
X3161Y2533D01*
X3162Y2533D01*
X3163Y2533D01*
X3164Y2533D01*
X3165Y2533D01*
X3166Y2533D01*
X3167Y2533D01*
X3168Y2533D01*
X3169Y2533D01*
X3170Y2533D01*
X3171Y2533D01*
X3172Y2533D01*
X3173Y2533D01*
X3174Y2533D01*
X3175Y2533D01*
X3176Y2533D01*
X3177Y2533D01*
X3178Y2533D01*
X3179Y2533D01*
X3180Y2533D01*
X3181Y2533D01*
X3182Y2533D01*
X3183Y2533D01*
X3184Y2533D01*
X3185Y2533D01*
X3186Y2533D01*
X3187Y2533D01*
X3188Y2533D01*
X3189Y2533D01*
X3190Y2533D01*
X3191Y2533D01*
X3192Y2533D01*
X3193Y2533D01*
X3194Y2533D01*
X3195Y2533D01*
X3196Y2533D01*
X3197Y2533D01*
X3198Y2533D01*
X3199Y2533D01*
X3200Y2533D01*
X3201Y2533D01*
X3202Y2533D01*
X3203Y2533D01*
X3204Y2533D01*
X3205Y2533D01*
X3206Y2533D01*
X3207Y2533D01*
X3208Y2533D01*
X3209Y2533D01*
X3210Y2533D01*
X3211Y2533D01*
X3212Y2533D01*
X3213Y2533D01*
X3214Y2533D01*
X3215Y2533D01*
X3216Y2533D01*
X3217Y2533D01*
X3218Y2533D01*
X3219Y2533D01*
X3220Y2533D01*
X3221Y2533D01*
X3222Y2533D01*
X3223Y2533D01*
X3224Y2533D01*
X3225Y2533D01*
X3226Y2533D01*
X3227Y2533D01*
X3228Y2533D01*
X3229Y2533D01*
X3230Y2533D01*
X3231Y2533D01*
X3232Y2533D01*
X3233Y2533D01*
X3234Y2533D01*
X3235Y2533D01*
X3236Y2533D01*
X3237Y2533D01*
X3238Y2533D01*
X3239Y2533D01*
X3240Y2533D01*
X3241Y2533D01*
X3242Y2533D01*
X3243Y2533D01*
X3244Y2533D01*
X3245Y2533D01*
X3246Y2533D01*
X3247Y2533D01*
X3248Y2533D01*
X3249Y2533D01*
X3250Y2533D01*
X3251Y2533D01*
X3252Y2533D01*
X3253Y2533D01*
X3254Y2533D01*
X3255Y2533D01*
X3256Y2533D01*
X3257Y2533D01*
X3258Y2533D01*
X3259Y2533D01*
X3260Y2533D01*
X3261Y2533D01*
X3262Y2533D01*
X3263Y2533D01*
X3264Y2533D01*
X3265Y2533D01*
X3266Y2533D01*
X3267Y2533D01*
X3268Y2533D01*
X3269Y2533D01*
X3270Y2533D01*
X3271Y2533D01*
X3272Y2533D01*
X3273Y2533D01*
X3274Y2533D01*
X3275Y2533D01*
X3276Y2533D01*
X3277Y2533D01*
X3278Y2533D01*
X3279Y2533D01*
X3280Y2533D01*
X3281Y2533D01*
X3282Y2533D01*
X3283Y2533D01*
X3284Y2533D01*
X3285Y2533D01*
X3286Y2533D01*
X3287Y2533D01*
X3288Y2533D01*
X3289Y2533D01*
X3290Y2533D01*
X3291Y2533D01*
X3292Y2533D01*
X3293Y2533D01*
X3294Y2533D01*
X3295Y2533D01*
X3296Y2533D01*
X3297Y2533D01*
X3298Y2533D01*
X3299Y2533D01*
X3300Y2533D01*
X3301Y2533D01*
X3302Y2533D01*
X3303Y2533D01*
X3304Y2533D01*
X3305Y2533D01*
X3306Y2533D01*
X3307Y2533D01*
X3308Y2533D01*
X3309Y2533D01*
X3310Y2533D01*
X3311Y2533D01*
X3312Y2533D01*
X3313Y2533D01*
X3314Y2533D01*
X3315Y2532D01*
X3316Y2532D01*
X3317Y2532D01*
X3318Y2532D01*
X3319Y2532D01*
X3320Y2532D01*
X3321Y2532D01*
X3322Y2532D01*
X3323Y2532D01*
X3324Y2531D01*
X3325Y2531D01*
X3326Y2531D01*
X3327Y2531D01*
X3328Y2531D01*
X3329Y2530D01*
X3330Y2530D01*
X3331Y2530D01*
X3332Y2530D01*
X3333Y2530D01*
X3334Y2529D01*
X3335Y2529D01*
X3336Y2529D01*
X3337Y2529D01*
X3338Y2528D01*
X3339Y2528D01*
X3340Y2528D01*
X3341Y2527D01*
X3342Y2527D01*
X3343Y2527D01*
X3344Y2526D01*
X3345Y2526D01*
X3346Y2526D01*
X3347Y2525D01*
X3348Y2525D01*
X3349Y2525D01*
X3350Y2524D01*
X3351Y2524D01*
X3352Y2523D01*
X3353Y2523D01*
X3354Y2523D01*
X3355Y2522D01*
X3356Y2522D01*
X3357Y2521D01*
X3358Y2521D01*
X3359Y2520D01*
X3360Y2520D01*
X3361Y2519D01*
X3362Y2519D01*
X3363Y2518D01*
X3364Y2518D01*
X3365Y2517D01*
X3366Y2517D01*
X3367Y2516D01*
X3368Y2516D01*
X3369Y2515D01*
X3370Y2514D01*
X3371Y2514D01*
X3372Y2513D01*
X3373Y2513D01*
X3374Y2512D01*
X3375Y2511D01*
X3376Y2511D01*
X3377Y2510D01*
X3378Y2509D01*
X3379Y2508D01*
X3380Y2508D01*
X3381Y2507D01*
X3382Y2506D01*
X3383Y2505D01*
X3384Y2505D01*
X3385Y2504D01*
X3386Y2503D01*
X3387Y2502D01*
X3388Y2501D01*
X3389Y2500D01*
X3390Y2500D01*
X3391Y2499D01*
X3392Y2498D01*
X3393Y2497D01*
X3394Y2496D01*
X3395Y2495D01*
X3396Y2494D01*
X3397Y2493D01*
X3398Y2492D01*
X3399Y2491D01*
X3400Y2490D01*
X3401Y2489D01*
X3401Y2488D01*
X3402Y2487D01*
X3403Y2486D01*
X3404Y2485D01*
X3405Y2484D01*
X3406Y2483D01*
X3406Y2482D01*
X3407Y2481D01*
X3408Y2480D01*
X3409Y2479D01*
X3409Y2478D01*
X3410Y2477D01*
X3411Y2476D01*
X3412Y2475D01*
X3412Y2474D01*
X3413Y2473D01*
X3414Y2472D01*
X3414Y2471D01*
X3415Y2470D01*
X3416Y2469D01*
X3416Y2468D01*
X3417Y2467D01*
X3417Y2466D01*
X3418Y2465D01*
X3419Y2464D01*
X3419Y2463D01*
X3420Y2462D01*
X3420Y2461D01*
X3421Y2460D01*
X3421Y2459D01*
X3422Y2458D01*
X3422Y2457D01*
X3423Y2456D01*
X3423Y2455D01*
X3424Y2454D01*
X3424Y2453D01*
X3425Y2452D01*
X3425Y2450D01*
X3426Y2449D01*
X3426Y2448D01*
X3427Y2447D01*
X3427Y2446D01*
X3428Y2445D01*
X3428Y2443D01*
X3429Y2442D01*
X3429Y2440D01*
X3430Y2439D01*
X3430Y2437D01*
X3431Y2436D01*
X3431Y2434D01*
X3432Y2433D01*
X3432Y2430D01*
X3433Y2429D01*
X3433Y2427D01*
X3434Y2426D01*
X3434Y2422D01*
X3435Y2421D01*
X3435Y2417D01*
X3436Y2416D01*
X3436Y2411D01*
X3437Y2410D01*
X3437Y2402D01*
X3438Y2401D01*
X3438Y134D01*
X3437Y133D01*
X3437Y125D01*
X3436Y124D01*
X3436Y119D01*
X3435Y118D01*
X3435Y114D01*
X3434Y113D01*
X3434Y109D01*
X3433Y108D01*
X3433Y106D01*
X3432Y105D01*
X3432Y102D01*
X3431Y101D01*
X3431Y99D01*
X3430Y98D01*
X3430Y96D01*
X3429Y95D01*
X3429Y93D01*
X3428Y92D01*
X3428Y90D01*
X3427Y89D01*
X3427Y88D01*
X3426Y87D01*
X3426Y86D01*
X3425Y85D01*
X3425Y83D01*
X3424Y82D01*
X3424Y81D01*
X3423Y80D01*
X3423Y79D01*
X3422Y78D01*
X3422Y77D01*
X3421Y76D01*
X3421Y75D01*
X3420Y74D01*
X3420Y73D01*
X3419Y72D01*
X3419Y71D01*
X3418Y70D01*
X3417Y69D01*
X3417Y68D01*
X3416Y67D01*
X3416Y66D01*
X3415Y65D01*
X3414Y64D01*
X3414Y63D01*
X3413Y62D01*
X3412Y61D01*
X3412Y60D01*
X3411Y59D01*
X3410Y58D01*
X3409Y57D01*
X3409Y56D01*
X3408Y55D01*
X3407Y54D01*
X3406Y53D01*
X3406Y52D01*
X3405Y51D01*
X3404Y50D01*
X3403Y49D01*
X3402Y48D01*
X3401Y47D01*
X3401Y46D01*
X3400Y45D01*
X3399Y44D01*
X3398Y43D01*
X3397Y42D01*
X3396Y41D01*
X3395Y40D01*
X3394Y39D01*
X3393Y38D01*
X3392Y37D01*
X3391Y36D01*
X3390Y35D01*
X3389Y35D01*
X3388Y34D01*
X3387Y33D01*
X3386Y32D01*
X3385Y31D01*
X3384Y30D01*
X3383Y30D01*
X3382Y29D01*
X3381Y28D01*
X3380Y27D01*
X3379Y27D01*
X3378Y26D01*
X3377Y25D01*
X3376Y25D01*
X3375Y24D01*
X3374Y23D01*
X3373Y22D01*
X3372Y22D01*
X3371Y21D01*
X3370Y21D01*
X3369Y20D01*
X3368Y19D01*
X3367Y19D01*
X3366Y18D01*
X3365Y18D01*
X3364Y17D01*
X3363Y17D01*
X3362Y16D01*
X3361Y16D01*
X3360Y15D01*
X3359Y15D01*
X3358Y14D01*
X3357Y14D01*
X3356Y13D01*
X3355Y13D01*
X3354Y12D01*
X3353Y12D01*
X3352Y12D01*
X3351Y11D01*
X3350Y11D01*
X3349Y10D01*
X3348Y10D01*
X3347Y10D01*
X3346Y9D01*
X3345Y9D01*
X3344Y9D01*
X3343Y8D01*
X3342Y8D01*
X3341Y8D01*
X3340Y7D01*
X3339Y7D01*
X3338Y7D01*
X3337Y6D01*
X3336Y6D01*
X3335Y6D01*
X3334Y6D01*
X3333Y5D01*
X3332Y5D01*
X3331Y5D01*
X3330Y5D01*
X3329Y5D01*
X3328Y4D01*
X3327Y4D01*
X3326Y4D01*
X3325Y4D01*
X3324Y4D01*
X3323Y4D01*
X3322Y3D01*
X3321Y3D01*
X3320Y3D01*
X3319Y3D01*
X3318Y3D01*
X3317Y3D01*
X3316Y3D01*
X3315Y3D01*
X3314Y2D01*
X3313Y2D01*
X3312Y2D01*
X3311Y2D01*
X3310Y2D01*
X3309Y2D01*
X3308Y2D01*
X3307Y2D01*
X3306Y2D01*
X3305Y2D01*
X3304Y2D01*
X3303Y2D01*
X3302Y2D01*
X3301Y2D01*
X3300Y2D01*
X3299Y2D01*
X3298Y2D01*
X3297Y2D01*
X3296Y2D01*
X3295Y2D01*
X3294Y2D01*
X3293Y2D01*
X3292Y2D01*
X3291Y2D01*
X3290Y2D01*
X3289Y2D01*
X3288Y2D01*
X3287Y2D01*
X3286Y2D01*
X3285Y2D01*
X3284Y2D01*
X3283Y2D01*
X3282Y2D01*
X3281Y2D01*
X3280Y2D01*
X3279Y2D01*
X3278Y2D01*
X3277Y2D01*
X3276Y2D01*
X3275Y2D01*
X3274Y2D01*
X3273Y2D01*
X3272Y2D01*
X3271Y2D01*
X3270Y2D01*
X3269Y2D01*
X3268Y2D01*
X3267Y2D01*
X3266Y2D01*
X3265Y2D01*
X3264Y2D01*
X3263Y2D01*
X3262Y2D01*
X3261Y2D01*
X3260Y2D01*
X3259Y2D01*
X3258Y2D01*
X3257Y2D01*
X3256Y2D01*
X3255Y2D01*
X3254Y2D01*
X3253Y2D01*
X3252Y2D01*
X3251Y2D01*
X3250Y2D01*
X3249Y2D01*
X3248Y2D01*
X3247Y2D01*
X3246Y2D01*
X3245Y2D01*
X3244Y2D01*
X3243Y2D01*
X3242Y2D01*
X3241Y2D01*
X3240Y2D01*
X3239Y2D01*
X3238Y2D01*
X3237Y2D01*
X3236Y2D01*
X3235Y2D01*
X3234Y2D01*
X3233Y2D01*
X3232Y2D01*
X3231Y2D01*
X3230Y2D01*
X3229Y2D01*
X3228Y2D01*
X3227Y2D01*
X3226Y2D01*
X3225Y2D01*
X3224Y2D01*
X3223Y2D01*
X3222Y2D01*
X3221Y2D01*
X3220Y2D01*
X3219Y2D01*
X3218Y2D01*
X3217Y2D01*
X3216Y2D01*
X3215Y2D01*
X3214Y2D01*
X3213Y2D01*
X3212Y2D01*
X3211Y2D01*
X3210Y2D01*
X3209Y2D01*
X3208Y2D01*
X3207Y2D01*
X3206Y2D01*
X3205Y2D01*
X3204Y2D01*
X3203Y2D01*
X3202Y2D01*
X3201Y2D01*
X3200Y2D01*
X3199Y2D01*
X3198Y2D01*
X3197Y2D01*
X3196Y2D01*
X3195Y2D01*
X3194Y2D01*
X3193Y2D01*
X3192Y2D01*
X3191Y2D01*
X3190Y2D01*
X3189Y2D01*
X3188Y2D01*
X3187Y2D01*
X3186Y2D01*
X3185Y2D01*
X3184Y2D01*
X3183Y2D01*
X3182Y2D01*
X3181Y2D01*
X3180Y2D01*
X3179Y2D01*
X3178Y2D01*
X3177Y2D01*
X3176Y2D01*
X3175Y2D01*
X3174Y2D01*
X3173Y2D01*
X3172Y2D01*
X3171Y2D01*
X3170Y2D01*
X3169Y2D01*
X3168Y2D01*
X3167Y2D01*
X3166Y2D01*
X3165Y2D01*
X3164Y2D01*
X3163Y2D01*
X3162Y2D01*
X3161Y2D01*
X3160Y2D01*
X3159Y2D01*
X3158Y2D01*
X3157Y2D01*
X3156Y2D01*
X3155Y2D01*
X3154Y2D01*
X3153Y2D01*
X3152Y2D01*
X3151Y2D01*
X3150Y2D01*
X3149Y2D01*
X3148Y2D01*
X3147Y2D01*
X3146Y2D01*
X3145Y2D01*
X3144Y2D01*
X3143Y2D01*
X3142Y2D01*
X3141Y2D01*
X3140Y2D01*
X3139Y2D01*
X3138Y2D01*
X3137Y2D01*
X3136Y2D01*
X3135Y2D01*
X3134Y2D01*
X3133Y2D01*
X3132Y2D01*
X3131Y2D01*
X3130Y2D01*
X3129Y2D01*
X3128Y2D01*
X3127Y2D01*
X3126Y2D01*
X3125Y2D01*
X3124Y2D01*
X3123Y2D01*
X3122Y2D01*
X3121Y2D01*
X3120Y2D01*
X3119Y2D01*
X3118Y2D01*
X3117Y2D01*
X3116Y2D01*
X3115Y2D01*
X3114Y2D01*
X3113Y2D01*
X3112Y2D01*
X3111Y2D01*
X3110Y2D01*
X3109Y2D01*
X3108Y2D01*
X3107Y2D01*
X3106Y2D01*
X3105Y2D01*
X3104Y2D01*
X3103Y2D01*
X3102Y2D01*
X3101Y2D01*
X3100Y2D01*
X3099Y2D01*
X3098Y2D01*
X3097Y2D01*
X3096Y2D01*
X3095Y2D01*
X3094Y2D01*
X3093Y2D01*
X3092Y2D01*
X3091Y2D01*
X3090Y2D01*
X3089Y2D01*
X3088Y2D01*
X3087Y2D01*
X3086Y2D01*
X3085Y2D01*
X3084Y2D01*
X3083Y2D01*
X3082Y2D01*
X3081Y2D01*
X3080Y2D01*
X3079Y2D01*
X3078Y2D01*
X3077Y2D01*
X3076Y2D01*
X3075Y2D01*
X3074Y2D01*
X3073Y2D01*
X3072Y2D01*
X3071Y2D01*
X3070Y2D01*
X3069Y2D01*
X3068Y2D01*
X3067Y2D01*
X3066Y2D01*
X3065Y2D01*
X3064Y2D01*
X3063Y2D01*
X3062Y2D01*
X3061Y2D01*
X3060Y2D01*
X3059Y2D01*
X3058Y2D01*
X3057Y2D01*
X3056Y2D01*
X3055Y2D01*
X3054Y2D01*
X3053Y2D01*
X3052Y2D01*
X3051Y2D01*
X3050Y2D01*
X3049Y2D01*
X3048Y2D01*
X3047Y2D01*
X3046Y2D01*
X3045Y2D01*
X3044Y2D01*
X3043Y2D01*
X3042Y2D01*
X3041Y2D01*
X3040Y2D01*
X3039Y2D01*
X3038Y2D01*
X3037Y2D01*
X3036Y2D01*
X3035Y2D01*
X3034Y2D01*
X3033Y2D01*
X3032Y2D01*
X3031Y2D01*
X3030Y2D01*
X3029Y2D01*
X3028Y2D01*
X3027Y2D01*
X3026Y2D01*
X3025Y2D01*
X3024Y2D01*
X3023Y2D01*
X3022Y2D01*
X3021Y2D01*
X3020Y2D01*
X3019Y2D01*
X3018Y2D01*
X3017Y2D01*
X3016Y2D01*
X3015Y2D01*
X3014Y2D01*
X3013Y2D01*
X3012Y2D01*
X3011Y2D01*
X3010Y2D01*
X3009Y2D01*
X3008Y2D01*
X3007Y2D01*
X3006Y2D01*
X3005Y2D01*
X3004Y2D01*
X3003Y2D01*
X3002Y2D01*
X3001Y2D01*
X3000Y2D01*
X2999Y2D01*
X2998Y2D01*
X2997Y2D01*
X2996Y2D01*
X2995Y2D01*
X2994Y2D01*
X2993Y2D01*
X2992Y2D01*
X2991Y2D01*
X2990Y2D01*
X2989Y2D01*
X2988Y2D01*
X2987Y2D01*
X2986Y2D01*
X2985Y2D01*
X2984Y2D01*
X2983Y2D01*
X2982Y2D01*
X2981Y2D01*
X2980Y2D01*
X2979Y2D01*
X2978Y2D01*
X2977Y2D01*
X2976Y2D01*
X2975Y2D01*
X2974Y2D01*
X2973Y2D01*
X2972Y2D01*
X2971Y2D01*
X2970Y2D01*
X2969Y2D01*
X2968Y2D01*
X2967Y2D01*
X2966Y2D01*
X2965Y2D01*
X2964Y2D01*
X2963Y2D01*
X2962Y2D01*
X2961Y2D01*
X2960Y2D01*
X2959Y2D01*
X2958Y2D01*
X2957Y2D01*
X2956Y2D01*
X2955Y2D01*
X2954Y2D01*
X2953Y2D01*
X2952Y2D01*
X2951Y2D01*
X2950Y2D01*
X2949Y2D01*
X2948Y2D01*
X2947Y2D01*
X2946Y2D01*
X2945Y2D01*
X2944Y2D01*
X2943Y2D01*
X2942Y2D01*
X2941Y2D01*
X2940Y2D01*
X2939Y2D01*
X2938Y2D01*
X2937Y2D01*
X2936Y2D01*
X2935Y2D01*
X2934Y2D01*
X2933Y2D01*
X2932Y2D01*
X2931Y2D01*
X2930Y2D01*
X2929Y2D01*
X2928Y2D01*
X2927Y2D01*
X2926Y2D01*
X2925Y2D01*
X2924Y2D01*
X2923Y2D01*
X2922Y2D01*
X2921Y2D01*
X2920Y2D01*
X2919Y2D01*
X2918Y2D01*
X2917Y2D01*
X2916Y2D01*
X2915Y2D01*
X2914Y2D01*
X2913Y2D01*
X2912Y2D01*
X2911Y2D01*
X2910Y2D01*
X2909Y2D01*
X2908Y2D01*
X2907Y2D01*
X2906Y2D01*
X2905Y2D01*
X2904Y2D01*
X2903Y2D01*
X2902Y2D01*
X2901Y2D01*
X2900Y2D01*
X2899Y2D01*
X2898Y2D01*
X2897Y2D01*
X2896Y2D01*
X2895Y2D01*
X2894Y2D01*
X2893Y2D01*
X2892Y2D01*
X2891Y2D01*
X2890Y2D01*
X2889Y2D01*
X2888Y2D01*
X2887Y2D01*
X2886Y2D01*
X2885Y2D01*
X2884Y2D01*
X2883Y2D01*
X2882Y2D01*
X2881Y2D01*
X2880Y2D01*
X2879Y2D01*
X2878Y2D01*
X2877Y2D01*
X2876Y2D01*
X2875Y2D01*
X2874Y2D01*
X2873Y2D01*
X2872Y2D01*
X2871Y2D01*
X2870Y2D01*
X2869Y2D01*
X2868Y2D01*
X2867Y2D01*
X2866Y2D01*
X2865Y2D01*
X2864Y2D01*
X2863Y2D01*
X2862Y2D01*
X2861Y2D01*
X2860Y2D01*
X2859Y2D01*
X2858Y2D01*
X2857Y2D01*
X2856Y2D01*
X2855Y2D01*
X2854Y2D01*
X2853Y2D01*
X2852Y2D01*
X2851Y2D01*
X2850Y2D01*
X2849Y2D01*
X2848Y2D01*
X2847Y2D01*
X2846Y2D01*
X2845Y2D01*
X2844Y2D01*
X2843Y2D01*
X2842Y2D01*
X2841Y2D01*
X2840Y2D01*
X2839Y2D01*
X2838Y2D01*
X2837Y2D01*
X2836Y2D01*
X2835Y2D01*
X2834Y2D01*
X2833Y2D01*
X2832Y2D01*
X2831Y2D01*
X2830Y2D01*
X2829Y2D01*
X2828Y2D01*
X2827Y2D01*
X2826Y2D01*
X2825Y2D01*
X2824Y2D01*
X2823Y2D01*
X2822Y2D01*
X2821Y2D01*
X2820Y2D01*
X2819Y2D01*
X2818Y2D01*
X2817Y2D01*
X2816Y2D01*
X2815Y2D01*
X2814Y2D01*
X2813Y2D01*
X2812Y2D01*
X2811Y2D01*
X2810Y2D01*
X2809Y2D01*
X2808Y2D01*
X2807Y2D01*
X2806Y2D01*
X2805Y2D01*
X2804Y2D01*
X2803Y2D01*
X2802Y2D01*
X2801Y2D01*
X2800Y2D01*
X2799Y2D01*
X2798Y2D01*
X2797Y2D01*
X2796Y2D01*
X2795Y2D01*
X2794Y2D01*
X2793Y2D01*
X2792Y2D01*
X2791Y2D01*
X2790Y2D01*
X2789Y2D01*
X2788Y2D01*
X2787Y2D01*
X2786Y2D01*
X2785Y2D01*
X2784Y2D01*
X2783Y2D01*
X2782Y2D01*
X2781Y2D01*
X2780Y2D01*
X2779Y2D01*
X2778Y2D01*
X2777Y2D01*
X2776Y2D01*
X2775Y2D01*
X2774Y2D01*
X2773Y2D01*
X2772Y2D01*
X2771Y2D01*
X2770Y2D01*
X2769Y2D01*
X2768Y2D01*
X2767Y2D01*
X2766Y2D01*
X2765Y2D01*
X2764Y2D01*
X2763Y2D01*
X2762Y2D01*
X2761Y2D01*
X2760Y2D01*
X2759Y2D01*
X2758Y2D01*
X2757Y2D01*
X2756Y2D01*
X2755Y2D01*
X2754Y2D01*
X2753Y2D01*
X2752Y2D01*
X2751Y2D01*
X2750Y2D01*
X2749Y2D01*
X2748Y2D01*
X2747Y2D01*
X2746Y2D01*
X2745Y2D01*
X2744Y2D01*
X2743Y2D01*
X2742Y2D01*
X2741Y2D01*
X2740Y2D01*
X2739Y2D01*
X2738Y2D01*
X2737Y2D01*
X2736Y2D01*
X2735Y2D01*
X2734Y2D01*
X2733Y2D01*
X2732Y2D01*
X2731Y2D01*
X2730Y2D01*
X2729Y2D01*
X2728Y2D01*
X2727Y2D01*
X2726Y2D01*
X2725Y2D01*
X2724Y2D01*
X2723Y2D01*
X2722Y2D01*
X2721Y2D01*
X2720Y2D01*
X2719Y2D01*
X2718Y2D01*
X2717Y2D01*
X2716Y2D01*
X2715Y2D01*
X2714Y2D01*
X2713Y2D01*
X2712Y2D01*
X2711Y2D01*
X2710Y2D01*
X2709Y2D01*
X2708Y2D01*
X2707Y2D01*
X2706Y2D01*
X2705Y2D01*
X2704Y2D01*
X2703Y2D01*
X2702Y2D01*
X2701Y2D01*
X2700Y2D01*
X2699Y2D01*
X2698Y2D01*
X2697Y2D01*
X2696Y2D01*
X2695Y2D01*
X2694Y2D01*
X2693Y2D01*
X2692Y2D01*
X2691Y2D01*
X2690Y2D01*
X2689Y2D01*
X2688Y2D01*
X2687Y2D01*
X2686Y2D01*
X2685Y2D01*
X2684Y2D01*
X2683Y2D01*
X2682Y2D01*
X2681Y2D01*
X2680Y2D01*
X2679Y2D01*
X2678Y2D01*
X2677Y2D01*
X2676Y2D01*
X2675Y2D01*
X2674Y2D01*
X2673Y2D01*
X2672Y2D01*
X2671Y2D01*
X2670Y2D01*
X2669Y2D01*
X2668Y2D01*
X2667Y2D01*
X2666Y2D01*
X2665Y2D01*
X2664Y2D01*
X2663Y2D01*
X2662Y2D01*
X2661Y2D01*
X2660Y2D01*
X2659Y2D01*
X2658Y2D01*
X2657Y2D01*
X2656Y2D01*
X2655Y2D01*
X2654Y2D01*
X2653Y2D01*
X2652Y2D01*
X2651Y2D01*
X2650Y2D01*
X2649Y2D01*
X2648Y2D01*
X2647Y2D01*
X2646Y2D01*
X2645Y2D01*
X2644Y2D01*
X2643Y2D01*
X2642Y2D01*
X2641Y2D01*
X2640Y2D01*
X2639Y2D01*
X2638Y2D01*
X2637Y2D01*
X2636Y2D01*
X2635Y2D01*
X2634Y2D01*
X2633Y2D01*
X2632Y2D01*
X2631Y2D01*
X2630Y2D01*
X2629Y2D01*
X2628Y2D01*
X2627Y2D01*
X2626Y2D01*
X2625Y2D01*
X2624Y2D01*
X2623Y2D01*
X2622Y2D01*
X2621Y2D01*
X2620Y2D01*
X2619Y2D01*
X2618Y2D01*
X2617Y2D01*
X2616Y2D01*
X2615Y2D01*
X2614Y2D01*
X2613Y2D01*
X2612Y2D01*
X2611Y2D01*
X2610Y2D01*
X2609Y2D01*
X2608Y2D01*
X2607Y2D01*
X2606Y2D01*
X2605Y2D01*
X2604Y2D01*
X2603Y2D01*
X2602Y2D01*
X2601Y2D01*
X2600Y2D01*
X2599Y2D01*
X2598Y2D01*
X2597Y2D01*
X2596Y2D01*
X2595Y2D01*
X2594Y2D01*
X2593Y2D01*
X2592Y2D01*
X2591Y2D01*
X2590Y2D01*
X2589Y2D01*
X2588Y2D01*
X2587Y2D01*
X2586Y2D01*
X2585Y2D01*
X2584Y2D01*
X2583Y2D01*
X2582Y2D01*
X2581Y2D01*
X2580Y2D01*
X2579Y2D01*
X2578Y2D01*
X2577Y2D01*
X2576Y2D01*
X2575Y2D01*
X2574Y2D01*
X2573Y2D01*
X2572Y2D01*
X2571Y2D01*
X2570Y2D01*
X2569Y2D01*
X2568Y2D01*
X2567Y2D01*
X2566Y2D01*
X2565Y2D01*
X2564Y2D01*
X2563Y2D01*
X2562Y2D01*
X2561Y2D01*
X2560Y2D01*
X2559Y2D01*
X2558Y2D01*
X2557Y2D01*
X2556Y2D01*
X2555Y2D01*
X2554Y2D01*
X2553Y2D01*
X2552Y2D01*
X2551Y2D01*
X2550Y2D01*
X2549Y2D01*
X2548Y2D01*
X2547Y2D01*
X2546Y2D01*
X2545Y2D01*
X2544Y2D01*
X2543Y2D01*
X2542Y2D01*
X2541Y2D01*
X2540Y2D01*
X2539Y2D01*
X2538Y2D01*
X2537Y2D01*
X2536Y2D01*
X2535Y2D01*
X2534Y2D01*
X2533Y2D01*
X2532Y2D01*
X2531Y2D01*
X2530Y2D01*
X2529Y2D01*
X2528Y2D01*
X2527Y2D01*
X2526Y2D01*
X2525Y2D01*
X2524Y2D01*
X2523Y2D01*
X2522Y2D01*
X2521Y2D01*
X2520Y2D01*
X2519Y2D01*
X2518Y2D01*
X2517Y2D01*
X2516Y2D01*
X2515Y2D01*
X2514Y2D01*
X2513Y2D01*
X2512Y2D01*
X2511Y2D01*
X2510Y2D01*
X2509Y2D01*
X2508Y2D01*
X2507Y2D01*
X2506Y2D01*
X2505Y2D01*
X2504Y2D01*
X2503Y2D01*
X2502Y2D01*
X2501Y2D01*
X2500Y2D01*
X2499Y2D01*
X2498Y2D01*
X2497Y2D01*
X2496Y2D01*
X2495Y2D01*
X2494Y2D01*
X2493Y2D01*
X2492Y2D01*
X2491Y2D01*
X2490Y2D01*
X2489Y2D01*
X2488Y2D01*
X2487Y2D01*
X2486Y2D01*
X2485Y2D01*
X2484Y2D01*
X2483Y2D01*
X2482Y2D01*
X2481Y2D01*
X2480Y2D01*
X2479Y2D01*
X2478Y2D01*
X2477Y2D01*
X2476Y2D01*
X2475Y2D01*
X2474Y2D01*
X2473Y2D01*
X2472Y2D01*
X2471Y2D01*
X2470Y2D01*
X2469Y2D01*
X2468Y2D01*
X2467Y2D01*
X2466Y2D01*
X2465Y2D01*
X2464Y2D01*
X2463Y2D01*
X2462Y2D01*
X2461Y2D01*
X2460Y2D01*
X2459Y2D01*
X2458Y2D01*
X2457Y2D01*
X2456Y2D01*
X2455Y2D01*
X2454Y2D01*
X2453Y2D01*
X2452Y2D01*
X2451Y2D01*
X2450Y2D01*
X2449Y2D01*
X2448Y2D01*
X2447Y2D01*
X2446Y2D01*
X2445Y2D01*
X2444Y2D01*
X2443Y2D01*
X2442Y2D01*
X2441Y2D01*
X2440Y2D01*
X2439Y2D01*
X2438Y2D01*
X2437Y2D01*
X2436Y2D01*
X2435Y2D01*
X2434Y2D01*
X2433Y2D01*
X2432Y2D01*
X2431Y2D01*
X2430Y2D01*
X2429Y2D01*
X2428Y2D01*
X2427Y2D01*
X2426Y2D01*
X2425Y2D01*
X2424Y2D01*
X2423Y2D01*
X2422Y2D01*
X2421Y2D01*
X2420Y2D01*
X2419Y2D01*
X2418Y2D01*
X2417Y2D01*
X2416Y2D01*
X2415Y2D01*
X2414Y2D01*
X2413Y2D01*
X2412Y2D01*
X2411Y2D01*
X2410Y2D01*
X2409Y2D01*
X2408Y2D01*
X2407Y2D01*
X2406Y2D01*
X2405Y2D01*
X2404Y2D01*
X2403Y2D01*
X2402Y2D01*
X2401Y2D01*
X2400Y2D01*
X2399Y2D01*
X2398Y2D01*
X2397Y2D01*
X2396Y2D01*
X2395Y2D01*
X2394Y2D01*
X2393Y2D01*
X2392Y2D01*
X2391Y2D01*
X2390Y2D01*
X2389Y2D01*
X2388Y2D01*
X2387Y2D01*
X2386Y2D01*
X2385Y2D01*
X2384Y2D01*
X2383Y2D01*
X2382Y2D01*
X2381Y2D01*
X2380Y2D01*
X2379Y2D01*
X2378Y2D01*
X2377Y2D01*
X2376Y2D01*
X2375Y2D01*
X2374Y2D01*
X2373Y2D01*
X2372Y2D01*
X2371Y2D01*
X2370Y2D01*
X2369Y2D01*
X2368Y2D01*
X2367Y2D01*
X2366Y2D01*
X2365Y2D01*
X2364Y2D01*
X2363Y2D01*
X2362Y2D01*
X2361Y2D01*
X2360Y2D01*
X2359Y2D01*
X2358Y2D01*
X2357Y2D01*
X2356Y2D01*
X2355Y2D01*
X2354Y2D01*
X2353Y2D01*
X2352Y2D01*
X2351Y2D01*
X2350Y2D01*
X2349Y2D01*
X2348Y2D01*
X2347Y2D01*
X2346Y2D01*
X2345Y2D01*
X2344Y2D01*
X2343Y2D01*
X2342Y2D01*
X2341Y2D01*
X2340Y2D01*
X2339Y2D01*
X2338Y2D01*
X2337Y2D01*
X2336Y2D01*
X2335Y2D01*
X2334Y2D01*
X2333Y2D01*
X2332Y2D01*
X2331Y2D01*
X2330Y2D01*
X2329Y2D01*
X2328Y2D01*
X2327Y2D01*
X2326Y2D01*
X2325Y2D01*
X2324Y2D01*
X2323Y2D01*
X2322Y2D01*
X2321Y2D01*
X2320Y2D01*
X2319Y2D01*
X2318Y2D01*
X2317Y2D01*
X2316Y2D01*
X2315Y2D01*
X2314Y2D01*
X2313Y2D01*
X2312Y2D01*
X2311Y2D01*
X2310Y2D01*
X2309Y2D01*
X2308Y2D01*
X2307Y2D01*
X2306Y2D01*
X2305Y2D01*
X2304Y2D01*
X2303Y2D01*
X2302Y2D01*
X2301Y2D01*
X2300Y2D01*
X2299Y2D01*
X2298Y2D01*
X2297Y2D01*
X2296Y2D01*
X2295Y2D01*
X2294Y2D01*
X2293Y2D01*
X2292Y2D01*
X2291Y2D01*
X2290Y2D01*
X2289Y2D01*
X2288Y2D01*
X2287Y2D01*
X2286Y2D01*
X2285Y2D01*
X2284Y2D01*
X2283Y2D01*
X2282Y2D01*
X2281Y2D01*
X2280Y2D01*
X2279Y2D01*
X2278Y2D01*
X2277Y2D01*
X2276Y2D01*
X2275Y2D01*
X2274Y2D01*
X2273Y2D01*
X2272Y2D01*
X2271Y2D01*
X2270Y2D01*
X2269Y2D01*
X2268Y2D01*
X2267Y2D01*
X2266Y2D01*
X2265Y2D01*
X2264Y2D01*
X2263Y2D01*
X2262Y2D01*
X2261Y2D01*
X2260Y2D01*
X2259Y2D01*
X2258Y2D01*
X2257Y2D01*
X2256Y2D01*
X2255Y2D01*
X2254Y2D01*
X2253Y2D01*
X2252Y2D01*
X2251Y2D01*
X2250Y2D01*
X2249Y2D01*
X2248Y2D01*
X2247Y2D01*
X2246Y2D01*
X2245Y2D01*
X2244Y2D01*
X2243Y2D01*
X2242Y2D01*
X2241Y2D01*
X2240Y2D01*
X2239Y2D01*
X2238Y2D01*
X2237Y2D01*
X2236Y2D01*
X2235Y2D01*
X2234Y2D01*
X2233Y2D01*
X2232Y2D01*
X2231Y2D01*
X2230Y2D01*
X2229Y2D01*
X2228Y2D01*
X2227Y2D01*
X2226Y2D01*
X2225Y2D01*
X2224Y2D01*
X2223Y2D01*
X2222Y2D01*
X2221Y2D01*
X2220Y2D01*
X2219Y2D01*
X2218Y2D01*
X2217Y2D01*
X2216Y2D01*
X2215Y2D01*
X2214Y2D01*
X2213Y2D01*
X2212Y2D01*
X2211Y2D01*
X2210Y2D01*
X2209Y2D01*
X2208Y2D01*
X2207Y2D01*
X2206Y2D01*
X2205Y2D01*
X2204Y2D01*
X2203Y2D01*
X2202Y2D01*
X2201Y2D01*
X2200Y2D01*
X2199Y2D01*
X2198Y2D01*
X2197Y2D01*
X2196Y2D01*
X2195Y2D01*
X2194Y2D01*
X2193Y2D01*
X2192Y2D01*
X2191Y2D01*
X2190Y2D01*
X2189Y2D01*
X2188Y2D01*
X2187Y2D01*
X2186Y2D01*
X2185Y2D01*
X2184Y2D01*
X2183Y2D01*
X2182Y2D01*
X2181Y2D01*
X2180Y2D01*
X2179Y2D01*
X2178Y2D01*
X2177Y2D01*
X2176Y2D01*
X2175Y2D01*
X2174Y2D01*
X2173Y2D01*
X2172Y2D01*
X2171Y2D01*
X2170Y2D01*
X2169Y2D01*
X2168Y2D01*
X2167Y2D01*
X2166Y2D01*
X2165Y2D01*
X2164Y2D01*
X2163Y2D01*
X2162Y2D01*
X2161Y2D01*
X2160Y2D01*
X2159Y2D01*
X2158Y2D01*
X2157Y2D01*
X2156Y2D01*
X2155Y2D01*
X2154Y2D01*
X2153Y2D01*
X2152Y2D01*
X2151Y2D01*
X2150Y2D01*
X2149Y2D01*
X2148Y2D01*
X2147Y2D01*
X2146Y2D01*
X2145Y2D01*
X2144Y2D01*
X2143Y2D01*
X2142Y2D01*
X2141Y2D01*
X2140Y2D01*
X2139Y2D01*
X2138Y2D01*
X2137Y2D01*
X2136Y2D01*
X2135Y2D01*
X2134Y2D01*
X2133Y2D01*
X2132Y2D01*
X2131Y2D01*
X2130Y2D01*
X2129Y2D01*
X2128Y2D01*
X2127Y2D01*
X2126Y2D01*
X2125Y2D01*
X2124Y2D01*
X2123Y2D01*
X2122Y2D01*
X2121Y2D01*
X2120Y2D01*
X2119Y2D01*
X2118Y2D01*
X2117Y2D01*
X2116Y2D01*
X2115Y2D01*
X2114Y2D01*
X2113Y2D01*
X2112Y2D01*
X2111Y2D01*
X2110Y2D01*
X2109Y2D01*
X2108Y2D01*
X2107Y2D01*
X2106Y2D01*
X2105Y2D01*
X2104Y2D01*
X2103Y2D01*
X2102Y2D01*
X2101Y2D01*
X2100Y2D01*
X2099Y2D01*
X2098Y2D01*
X2097Y2D01*
X2096Y2D01*
X2095Y2D01*
X2094Y2D01*
X2093Y2D01*
X2092Y2D01*
X2091Y2D01*
X2090Y2D01*
X2089Y2D01*
X2088Y2D01*
X2087Y2D01*
X2086Y2D01*
X2085Y2D01*
X2084Y2D01*
X2083Y2D01*
X2082Y2D01*
X2081Y2D01*
X2080Y2D01*
X2079Y2D01*
X2078Y2D01*
X2077Y2D01*
X2076Y2D01*
X2075Y2D01*
X2074Y2D01*
X2073Y2D01*
X2072Y2D01*
X2071Y2D01*
X2070Y2D01*
X2069Y2D01*
X2068Y2D01*
X2067Y2D01*
X2066Y2D01*
X2065Y2D01*
X2064Y2D01*
X2063Y2D01*
X2062Y2D01*
X2061Y2D01*
X2060Y2D01*
X2059Y2D01*
X2058Y2D01*
X2057Y2D01*
X2056Y2D01*
X2055Y2D01*
X2054Y2D01*
X2053Y2D01*
X2052Y2D01*
X2051Y2D01*
X2050Y2D01*
X2049Y2D01*
X2048Y2D01*
X2047Y2D01*
X2046Y2D01*
X2045Y2D01*
X2044Y2D01*
X2043Y2D01*
X2042Y2D01*
X2041Y2D01*
X2040Y2D01*
X2039Y2D01*
X2038Y2D01*
X2037Y2D01*
X2036Y2D01*
X2035Y2D01*
X2034Y2D01*
X2033Y2D01*
X2032Y2D01*
X2031Y2D01*
X2030Y2D01*
X2029Y2D01*
X2028Y2D01*
X2027Y2D01*
X2026Y2D01*
X2025Y2D01*
X2024Y2D01*
X2023Y2D01*
X2022Y2D01*
X2021Y2D01*
X2020Y2D01*
X2019Y2D01*
X2018Y2D01*
X2017Y2D01*
X2016Y2D01*
X2015Y2D01*
X2014Y2D01*
X2013Y2D01*
X2012Y2D01*
X2011Y2D01*
X2010Y2D01*
X2009Y2D01*
X2008Y2D01*
X2007Y2D01*
X2006Y2D01*
X2005Y2D01*
X2004Y2D01*
X2003Y2D01*
X2002Y2D01*
X2001Y2D01*
X2000Y2D01*
X1999Y2D01*
X1998Y2D01*
X1997Y2D01*
X1996Y2D01*
X1995Y2D01*
X1994Y2D01*
X1993Y2D01*
X1992Y2D01*
X1991Y2D01*
X1990Y2D01*
X1989Y2D01*
X1988Y2D01*
X1987Y2D01*
X1986Y2D01*
X1985Y2D01*
X1984Y2D01*
X1983Y2D01*
X1982Y2D01*
X1981Y2D01*
X1980Y2D01*
X1979Y2D01*
X1978Y2D01*
X1977Y2D01*
X1976Y2D01*
X1975Y2D01*
X1974Y2D01*
X1973Y2D01*
X1972Y2D01*
X1971Y2D01*
X1970Y2D01*
X1969Y2D01*
X1968Y2D01*
X1967Y2D01*
X1966Y2D01*
X1965Y2D01*
X1964Y2D01*
X1963Y2D01*
X1962Y2D01*
X1961Y2D01*
X1960Y2D01*
X1959Y2D01*
X1958Y2D01*
X1957Y2D01*
X1956Y2D01*
X1955Y2D01*
X1954Y2D01*
X1953Y2D01*
X1952Y2D01*
X1951Y2D01*
X1950Y2D01*
X1949Y2D01*
X1948Y2D01*
X1947Y2D01*
X1946Y2D01*
X1945Y2D01*
X1944Y2D01*
X1943Y2D01*
X1942Y2D01*
X1941Y2D01*
X1940Y2D01*
X1939Y2D01*
X1938Y2D01*
X1937Y2D01*
X1936Y2D01*
X1935Y2D01*
X1934Y2D01*
X1933Y2D01*
X1932Y2D01*
X1931Y2D01*
X1930Y2D01*
X1929Y2D01*
X1928Y2D01*
X1927Y2D01*
X1926Y2D01*
X1925Y2D01*
X1924Y2D01*
X1923Y2D01*
X1922Y2D01*
X1921Y2D01*
X1920Y2D01*
X1919Y2D01*
X1918Y2D01*
X1917Y2D01*
X1916Y2D01*
X1915Y2D01*
X1914Y2D01*
X1913Y2D01*
X1912Y2D01*
X1911Y2D01*
X1910Y2D01*
X1909Y2D01*
X1908Y2D01*
X1907Y2D01*
X1906Y2D01*
X1905Y2D01*
X1904Y2D01*
X1903Y2D01*
X1902Y2D01*
X1901Y2D01*
X1900Y2D01*
X1899Y2D01*
X1898Y2D01*
X1897Y2D01*
X1896Y2D01*
X1895Y2D01*
X1894Y2D01*
X1893Y2D01*
X1892Y2D01*
X1891Y2D01*
X1890Y2D01*
X1889Y2D01*
X1888Y2D01*
X1887Y2D01*
X1886Y2D01*
X1885Y2D01*
X1884Y2D01*
X1883Y2D01*
X1882Y2D01*
X1881Y2D01*
X1880Y2D01*
X1879Y2D01*
X1878Y2D01*
X1877Y2D01*
X1876Y2D01*
X1875Y2D01*
X1874Y2D01*
X1873Y2D01*
X1872Y2D01*
X1871Y2D01*
X1870Y2D01*
X1869Y2D01*
X1868Y2D01*
X1867Y2D01*
X1866Y2D01*
X1865Y2D01*
X1864Y2D01*
X1863Y2D01*
X1862Y2D01*
X1861Y2D01*
X1860Y2D01*
X1859Y2D01*
X1858Y2D01*
X1857Y2D01*
X1856Y2D01*
X1855Y2D01*
X1854Y2D01*
X1853Y2D01*
X1852Y2D01*
X1851Y2D01*
X1850Y2D01*
X1849Y2D01*
X1848Y2D01*
X1847Y2D01*
X1846Y2D01*
X1845Y2D01*
X1844Y2D01*
X1843Y2D01*
X1842Y2D01*
X1841Y2D01*
X1840Y2D01*
X1839Y2D01*
X1838Y2D01*
X1837Y2D01*
X1836Y2D01*
X1835Y2D01*
X1834Y2D01*
X1833Y2D01*
X1832Y2D01*
X1831Y2D01*
X1830Y2D01*
X1829Y2D01*
X1828Y2D01*
X1827Y2D01*
X1826Y2D01*
X1825Y2D01*
X1824Y2D01*
X1823Y2D01*
X1822Y2D01*
X1821Y2D01*
X1820Y2D01*
X1819Y2D01*
X1818Y2D01*
X1817Y2D01*
X1816Y2D01*
X1815Y2D01*
X1814Y2D01*
X1813Y2D01*
X1812Y2D01*
X1811Y2D01*
X1810Y2D01*
X1809Y2D01*
X1808Y2D01*
X1807Y2D01*
X1806Y2D01*
X1805Y2D01*
X1804Y2D01*
X1803Y2D01*
X1802Y2D01*
X1801Y2D01*
X1800Y2D01*
X1799Y2D01*
X1798Y2D01*
X1797Y2D01*
X1796Y2D01*
X1795Y2D01*
X1794Y2D01*
X1793Y2D01*
X1792Y2D01*
X1791Y2D01*
X1790Y2D01*
X1789Y2D01*
X1788Y2D01*
X1787Y2D01*
X1786Y2D01*
X1785Y2D01*
X1784Y2D01*
X1783Y2D01*
X1782Y2D01*
X1781Y2D01*
X1780Y2D01*
X1779Y2D01*
X1778Y2D01*
X1777Y2D01*
X1776Y2D01*
X1775Y2D01*
X1774Y2D01*
X1773Y2D01*
X1772Y2D01*
X1771Y2D01*
X1770Y2D01*
X1769Y2D01*
X1768Y2D01*
X1767Y2D01*
X1766Y2D01*
X1765Y2D01*
X1764Y2D01*
X1763Y2D01*
X1762Y2D01*
X1761Y2D01*
X1760Y2D01*
X1759Y2D01*
X1758Y2D01*
X1757Y2D01*
X1756Y2D01*
X1755Y2D01*
X1754Y2D01*
X1753Y2D01*
X1752Y2D01*
X1751Y2D01*
X1750Y2D01*
X1749Y2D01*
X1748Y2D01*
X1747Y2D01*
X1746Y2D01*
X1745Y2D01*
X1744Y2D01*
X1743Y2D01*
X1742Y2D01*
X1741Y2D01*
X1740Y2D01*
X1739Y2D01*
X1738Y2D01*
X1737Y2D01*
X1736Y2D01*
X1735Y2D01*
X1734Y2D01*
X1733Y2D01*
X1732Y2D01*
X1731Y2D01*
X1730Y2D01*
X1729Y2D01*
X1728Y2D01*
X1727Y2D01*
X1726Y2D01*
X1725Y2D01*
X1724Y2D01*
X1723Y2D01*
X1722Y2D01*
X1721Y2D01*
X1720Y2D01*
X1719Y2D01*
X1718Y2D01*
X1717Y2D01*
X1716Y2D01*
X1715Y2D01*
X1714Y2D01*
X1713Y2D01*
X1712Y2D01*
X1711Y2D01*
X1710Y2D01*
X1709Y2D01*
X1708Y2D01*
X1707Y2D01*
X1706Y2D01*
X1705Y2D01*
X1704Y2D01*
X1703Y2D01*
X1702Y2D01*
X1701Y2D01*
X1700Y2D01*
X1699Y2D01*
X1698Y2D01*
X1697Y2D01*
X1696Y2D01*
X1695Y2D01*
X1694Y2D01*
X1693Y2D01*
X1692Y2D01*
X1691Y2D01*
X1690Y2D01*
X1689Y2D01*
X1688Y2D01*
X1687Y2D01*
X1686Y2D01*
X1685Y2D01*
X1684Y2D01*
X1683Y2D01*
X1682Y2D01*
X1681Y2D01*
X1680Y2D01*
X1679Y2D01*
X1678Y2D01*
X1677Y2D01*
X1676Y2D01*
X1675Y2D01*
X1674Y2D01*
X1673Y2D01*
X1672Y2D01*
X1671Y2D01*
X1670Y2D01*
X1669Y2D01*
X1668Y2D01*
X1667Y2D01*
X1666Y2D01*
X1665Y2D01*
X1664Y2D01*
X1663Y2D01*
X1662Y2D01*
X1661Y2D01*
X1660Y2D01*
X1659Y2D01*
X1658Y2D01*
X1657Y2D01*
X1656Y2D01*
X1655Y2D01*
X1654Y2D01*
X1653Y2D01*
X1652Y2D01*
X1651Y2D01*
X1650Y2D01*
X1649Y2D01*
X1648Y2D01*
X1647Y2D01*
X1646Y2D01*
X1645Y2D01*
X1644Y2D01*
X1643Y2D01*
X1642Y2D01*
X1641Y2D01*
X1640Y2D01*
X1639Y2D01*
X1638Y2D01*
X1637Y2D01*
X1636Y2D01*
X1635Y2D01*
X1634Y2D01*
X1633Y2D01*
X1632Y2D01*
X1631Y2D01*
X1630Y2D01*
X1629Y2D01*
X1628Y2D01*
X1627Y2D01*
X1626Y2D01*
X1625Y2D01*
X1624Y2D01*
X1623Y2D01*
X1622Y2D01*
X1621Y2D01*
X1620Y2D01*
X1619Y2D01*
X1618Y2D01*
X1617Y2D01*
X1616Y2D01*
X1615Y2D01*
X1614Y2D01*
X1613Y2D01*
X1612Y2D01*
X1611Y2D01*
X1610Y2D01*
X1609Y2D01*
X1608Y2D01*
X1607Y2D01*
X1606Y2D01*
X1605Y2D01*
X1604Y2D01*
X1603Y2D01*
X1602Y2D01*
X1601Y2D01*
X1600Y2D01*
X1599Y2D01*
X1598Y2D01*
X1597Y2D01*
X1596Y2D01*
X1595Y2D01*
X1594Y2D01*
X1593Y2D01*
X1592Y2D01*
X1591Y2D01*
X1590Y2D01*
X1589Y2D01*
X1588Y2D01*
X1587Y2D01*
X1586Y2D01*
X1585Y2D01*
X1584Y2D01*
X1583Y2D01*
X1582Y2D01*
X1581Y2D01*
X1580Y2D01*
X1579Y2D01*
X1578Y2D01*
X1577Y2D01*
X1576Y2D01*
X1575Y2D01*
X1574Y2D01*
X1573Y2D01*
X1572Y2D01*
X1571Y2D01*
X1570Y2D01*
X1569Y2D01*
X1568Y2D01*
X1567Y2D01*
X1566Y2D01*
X1565Y2D01*
X1564Y2D01*
X1563Y2D01*
X1562Y2D01*
X1561Y2D01*
X1560Y2D01*
X1559Y2D01*
X1558Y2D01*
X1557Y2D01*
X1556Y2D01*
X1555Y2D01*
X1554Y2D01*
X1553Y2D01*
X1552Y2D01*
X1551Y2D01*
X1550Y2D01*
X1549Y2D01*
X1548Y2D01*
X1547Y2D01*
X1546Y2D01*
X1545Y2D01*
X1544Y2D01*
X1543Y2D01*
X1542Y2D01*
X1541Y2D01*
X1540Y2D01*
X1539Y2D01*
X1538Y2D01*
X1537Y2D01*
X1536Y2D01*
X1535Y2D01*
X1534Y2D01*
X1533Y2D01*
X1532Y2D01*
X1531Y2D01*
X1530Y2D01*
X1529Y2D01*
X1528Y2D01*
X1527Y2D01*
X1526Y2D01*
X1525Y2D01*
X1524Y2D01*
X1523Y2D01*
X1522Y2D01*
X1521Y2D01*
X1520Y2D01*
X1519Y2D01*
X1518Y2D01*
X1517Y2D01*
X1516Y2D01*
X1515Y2D01*
X1514Y2D01*
X1513Y2D01*
X1512Y2D01*
X1511Y2D01*
X1510Y2D01*
X1509Y2D01*
X1508Y2D01*
X1507Y2D01*
X1506Y2D01*
X1505Y2D01*
X1504Y2D01*
X1503Y2D01*
X1502Y2D01*
X1501Y2D01*
X1500Y2D01*
X1499Y2D01*
X1498Y2D01*
X1497Y2D01*
X1496Y2D01*
X1495Y2D01*
X1494Y2D01*
X1493Y2D01*
X1492Y2D01*
X1491Y2D01*
X1490Y2D01*
X1489Y2D01*
X1488Y2D01*
X1487Y2D01*
X1486Y2D01*
X1485Y2D01*
X1484Y2D01*
X1483Y2D01*
X1482Y2D01*
X1481Y2D01*
X1480Y2D01*
X1479Y2D01*
X1478Y2D01*
X1477Y2D01*
X1476Y2D01*
X1475Y2D01*
X1474Y2D01*
X1473Y2D01*
X1472Y2D01*
X1471Y2D01*
X1470Y2D01*
X1469Y2D01*
X1468Y2D01*
X1467Y2D01*
X1466Y2D01*
X1465Y2D01*
X1464Y2D01*
X1463Y2D01*
X1462Y2D01*
X1461Y2D01*
X1460Y2D01*
X1459Y2D01*
X1458Y2D01*
X1457Y2D01*
X1456Y2D01*
X1455Y2D01*
X1454Y2D01*
X1453Y2D01*
X1452Y2D01*
X1451Y2D01*
X1450Y2D01*
X1449Y2D01*
X1448Y2D01*
X1447Y2D01*
X1446Y2D01*
X1445Y2D01*
X1444Y2D01*
X1443Y2D01*
X1442Y2D01*
X1441Y2D01*
X1440Y2D01*
X1439Y2D01*
X1438Y2D01*
X1437Y2D01*
X1436Y2D01*
X1435Y2D01*
X1434Y2D01*
X1433Y2D01*
X1432Y2D01*
X1431Y2D01*
X1430Y2D01*
X1429Y2D01*
X1428Y2D01*
X1427Y2D01*
X1426Y2D01*
X1425Y2D01*
X1424Y2D01*
X1423Y2D01*
X1422Y2D01*
X1421Y2D01*
X1420Y2D01*
X1419Y2D01*
X1418Y2D01*
X1417Y2D01*
X1416Y2D01*
X1415Y2D01*
X1414Y2D01*
X1413Y2D01*
X1412Y2D01*
X1411Y2D01*
X1410Y2D01*
X1409Y2D01*
X1408Y2D01*
X1407Y2D01*
X1406Y2D01*
X1405Y2D01*
X1404Y2D01*
X1403Y2D01*
X1402Y2D01*
X1401Y2D01*
X1400Y2D01*
X1399Y2D01*
X1398Y2D01*
X1397Y2D01*
X1396Y2D01*
X1395Y2D01*
X1394Y2D01*
X1393Y2D01*
X1392Y2D01*
X1391Y2D01*
X1390Y2D01*
X1389Y2D01*
X1388Y2D01*
X1387Y2D01*
X1386Y2D01*
X1385Y2D01*
X1384Y2D01*
X1383Y2D01*
X1382Y2D01*
X1381Y2D01*
X1380Y2D01*
X1379Y2D01*
X1378Y2D01*
X1377Y2D01*
X1376Y2D01*
X1375Y2D01*
X1374Y2D01*
X1373Y2D01*
X1372Y2D01*
X1371Y2D01*
X1370Y2D01*
X1369Y2D01*
X1368Y2D01*
X1367Y2D01*
X1366Y2D01*
X1365Y2D01*
X1364Y2D01*
X1363Y2D01*
X1362Y2D01*
X1361Y2D01*
X1360Y2D01*
X1359Y2D01*
X1358Y2D01*
X1357Y2D01*
X1356Y2D01*
X1355Y2D01*
X1354Y2D01*
X1353Y2D01*
X1352Y2D01*
X1351Y2D01*
X1350Y2D01*
X1349Y2D01*
X1348Y2D01*
X1347Y2D01*
X1346Y2D01*
X1345Y2D01*
X1344Y2D01*
X1343Y2D01*
X1342Y2D01*
X1341Y2D01*
X1340Y2D01*
X1339Y2D01*
X1338Y2D01*
X1337Y2D01*
X1336Y2D01*
X1335Y2D01*
X1334Y2D01*
X1333Y2D01*
X1332Y2D01*
X1331Y2D01*
X1330Y2D01*
X1329Y2D01*
X1328Y2D01*
X1327Y2D01*
X1326Y2D01*
X1325Y2D01*
X1324Y2D01*
X1323Y2D01*
X1322Y2D01*
X1321Y2D01*
X1320Y2D01*
X1319Y2D01*
X1318Y2D01*
X1317Y2D01*
X1316Y2D01*
X1315Y2D01*
X1314Y2D01*
X1313Y2D01*
X1312Y2D01*
X1311Y2D01*
X1310Y2D01*
X1309Y2D01*
X1308Y2D01*
X1307Y2D01*
X1306Y2D01*
X1305Y2D01*
X1304Y2D01*
X1303Y2D01*
X1302Y2D01*
X1301Y2D01*
X1300Y2D01*
X1299Y2D01*
X1298Y2D01*
X1297Y2D01*
X1296Y2D01*
X1295Y2D01*
X1294Y2D01*
X1293Y2D01*
X1292Y2D01*
X1291Y2D01*
X1290Y2D01*
X1289Y2D01*
X1288Y2D01*
X1287Y2D01*
X1286Y2D01*
X1285Y2D01*
X1284Y2D01*
X1283Y2D01*
X1282Y2D01*
X1281Y2D01*
X1280Y2D01*
X1279Y2D01*
X1278Y2D01*
X1277Y2D01*
X1276Y2D01*
X1275Y2D01*
X1274Y2D01*
X1273Y2D01*
X1272Y2D01*
X1271Y2D01*
X1270Y2D01*
X1269Y2D01*
X1268Y2D01*
X1267Y2D01*
X1266Y2D01*
X1265Y2D01*
X1264Y2D01*
X1263Y2D01*
X1262Y2D01*
X1261Y2D01*
X1260Y2D01*
X1259Y2D01*
X1258Y2D01*
X1257Y2D01*
X1256Y2D01*
X1255Y2D01*
X1254Y2D01*
X1253Y2D01*
X1252Y2D01*
X1251Y2D01*
X1250Y2D01*
X1249Y2D01*
X1248Y2D01*
X1247Y2D01*
X1246Y2D01*
X1245Y2D01*
X1244Y2D01*
X1243Y2D01*
X1242Y2D01*
X1241Y2D01*
X1240Y2D01*
X1239Y2D01*
X1238Y2D01*
X1237Y2D01*
X1236Y2D01*
X1235Y2D01*
X1234Y2D01*
X1233Y2D01*
X1232Y2D01*
X1231Y2D01*
X1230Y2D01*
X1229Y2D01*
X1228Y2D01*
X1227Y2D01*
X1226Y2D01*
X1225Y2D01*
X1224Y2D01*
X1223Y2D01*
X1222Y2D01*
X1221Y2D01*
X1220Y2D01*
X1219Y2D01*
X1218Y2D01*
X1217Y2D01*
X1216Y2D01*
X1215Y2D01*
X1214Y2D01*
X1213Y2D01*
X1212Y2D01*
X1211Y2D01*
X1210Y2D01*
X1209Y2D01*
X1208Y2D01*
X1207Y2D01*
X1206Y2D01*
X1205Y2D01*
X1204Y2D01*
X1203Y2D01*
X1202Y2D01*
X1201Y2D01*
X1200Y2D01*
X1199Y2D01*
X1198Y2D01*
X1197Y2D01*
X1196Y2D01*
X1195Y2D01*
X1194Y2D01*
X1193Y2D01*
X1192Y2D01*
X1191Y2D01*
X1190Y2D01*
X1189Y2D01*
X1188Y2D01*
X1187Y2D01*
X1186Y2D01*
X1185Y2D01*
X1184Y2D01*
X1183Y2D01*
X1182Y2D01*
X1181Y2D01*
X1180Y2D01*
X1179Y2D01*
X1178Y2D01*
X1177Y2D01*
X1176Y2D01*
X1175Y2D01*
X1174Y2D01*
X1173Y2D01*
X1172Y2D01*
X1171Y2D01*
X1170Y2D01*
X1169Y2D01*
X1168Y2D01*
X1167Y2D01*
X1166Y2D01*
X1165Y2D01*
X1164Y2D01*
X1163Y2D01*
X1162Y2D01*
X1161Y2D01*
X1160Y2D01*
X1159Y2D01*
X1158Y2D01*
X1157Y2D01*
X1156Y2D01*
X1155Y2D01*
X1154Y2D01*
X1153Y2D01*
X1152Y2D01*
X1151Y2D01*
X1150Y2D01*
X1149Y2D01*
X1148Y2D01*
X1147Y2D01*
X1146Y2D01*
X1145Y2D01*
X1144Y2D01*
X1143Y2D01*
X1142Y2D01*
X1141Y2D01*
X1140Y2D01*
X1139Y2D01*
X1138Y2D01*
X1137Y2D01*
X1136Y2D01*
X1135Y2D01*
X1134Y2D01*
X1133Y2D01*
X1132Y2D01*
X1131Y2D01*
X1130Y2D01*
X1129Y2D01*
X1128Y2D01*
X1127Y2D01*
X1126Y2D01*
X1125Y2D01*
X1124Y2D01*
X1123Y2D01*
X1122Y2D01*
X1121Y2D01*
X1120Y2D01*
X1119Y2D01*
X1118Y2D01*
X1117Y2D01*
X1116Y2D01*
X1115Y2D01*
X1114Y2D01*
X1113Y2D01*
X1112Y2D01*
X1111Y2D01*
X1110Y2D01*
X1109Y2D01*
X1108Y2D01*
X1107Y2D01*
X1106Y2D01*
X1105Y2D01*
X1104Y2D01*
X1103Y2D01*
X1102Y2D01*
X1101Y2D01*
X1100Y2D01*
X1099Y2D01*
X1098Y2D01*
X1097Y2D01*
X1096Y2D01*
X1095Y2D01*
X1094Y2D01*
X1093Y2D01*
X1092Y2D01*
X1091Y2D01*
X1090Y2D01*
X1089Y2D01*
X1088Y2D01*
X1087Y2D01*
X1086Y2D01*
X1085Y2D01*
X1084Y2D01*
X1083Y2D01*
X1082Y2D01*
X1081Y2D01*
X1080Y2D01*
X1079Y2D01*
X1078Y2D01*
X1077Y2D01*
X1076Y2D01*
X1075Y2D01*
X1074Y2D01*
X1073Y2D01*
X1072Y2D01*
X1071Y2D01*
X1070Y2D01*
X1069Y2D01*
X1068Y2D01*
X1067Y2D01*
X1066Y2D01*
X1065Y2D01*
X1064Y2D01*
X1063Y2D01*
X1062Y2D01*
X1061Y2D01*
X1060Y2D01*
X1059Y2D01*
X1058Y2D01*
X1057Y2D01*
X1056Y2D01*
X1055Y2D01*
X1054Y2D01*
X1053Y2D01*
X1052Y2D01*
X1051Y2D01*
X1050Y2D01*
X1049Y2D01*
X1048Y2D01*
X1047Y2D01*
X1046Y2D01*
X1045Y2D01*
X1044Y2D01*
X1043Y2D01*
X1042Y2D01*
X1041Y2D01*
X1040Y2D01*
X1039Y2D01*
X1038Y2D01*
X1037Y2D01*
X1036Y2D01*
X1035Y2D01*
X1034Y2D01*
X1033Y2D01*
X1032Y2D01*
X1031Y2D01*
X1030Y2D01*
X1029Y2D01*
X1028Y2D01*
X1027Y2D01*
X1026Y2D01*
X1025Y2D01*
X1024Y2D01*
X1023Y2D01*
X1022Y2D01*
X1021Y2D01*
X1020Y2D01*
X1019Y2D01*
X1018Y2D01*
X1017Y2D01*
X1016Y2D01*
X1015Y2D01*
X1014Y2D01*
X1013Y2D01*
X1012Y2D01*
X1011Y2D01*
X1010Y2D01*
X1009Y2D01*
X1008Y2D01*
X1007Y2D01*
X1006Y2D01*
X1005Y2D01*
X1004Y2D01*
X1003Y2D01*
X1002Y2D01*
X1001Y2D01*
X1000Y2D01*
X999Y2D01*
X998Y2D01*
X997Y2D01*
X996Y2D01*
X995Y2D01*
X994Y2D01*
X993Y2D01*
X992Y2D01*
X991Y2D01*
X990Y2D01*
X989Y2D01*
X988Y2D01*
X987Y2D01*
X986Y2D01*
X985Y2D01*
X984Y2D01*
X983Y2D01*
X982Y2D01*
X981Y2D01*
X980Y2D01*
X979Y2D01*
X978Y2D01*
X977Y2D01*
X976Y2D01*
X975Y2D01*
X974Y2D01*
X973Y2D01*
X972Y2D01*
X971Y2D01*
X970Y2D01*
X969Y2D01*
X968Y2D01*
X967Y2D01*
X966Y2D01*
X965Y2D01*
X964Y2D01*
X963Y2D01*
X962Y2D01*
X961Y2D01*
X960Y2D01*
X959Y2D01*
X958Y2D01*
X957Y2D01*
X956Y2D01*
X955Y2D01*
X954Y2D01*
X953Y2D01*
X952Y2D01*
X951Y2D01*
X950Y2D01*
X949Y2D01*
X948Y2D01*
X947Y2D01*
X946Y2D01*
X945Y2D01*
X944Y2D01*
X943Y2D01*
X942Y2D01*
X941Y2D01*
X940Y2D01*
X939Y2D01*
X938Y2D01*
X937Y2D01*
X936Y2D01*
X935Y2D01*
X934Y2D01*
X933Y2D01*
X932Y2D01*
X931Y2D01*
X930Y2D01*
X929Y2D01*
X928Y2D01*
X927Y2D01*
X926Y2D01*
X925Y2D01*
X924Y2D01*
X923Y2D01*
X922Y2D01*
X921Y2D01*
X920Y2D01*
X919Y2D01*
X918Y2D01*
X917Y2D01*
X916Y2D01*
X915Y2D01*
X914Y2D01*
X913Y2D01*
X912Y2D01*
X911Y2D01*
X910Y2D01*
X909Y2D01*
X908Y2D01*
X907Y2D01*
X906Y2D01*
X905Y2D01*
X904Y2D01*
X903Y2D01*
X902Y2D01*
X901Y2D01*
X900Y2D01*
X899Y2D01*
X898Y2D01*
X897Y2D01*
X896Y2D01*
X895Y2D01*
X894Y2D01*
X893Y2D01*
X892Y2D01*
X891Y2D01*
X890Y2D01*
X889Y2D01*
X888Y2D01*
X887Y2D01*
X886Y2D01*
X885Y2D01*
X884Y2D01*
X883Y2D01*
X882Y2D01*
X881Y2D01*
X880Y2D01*
X879Y2D01*
X878Y2D01*
X877Y2D01*
X876Y2D01*
X875Y2D01*
X874Y2D01*
X873Y2D01*
X872Y2D01*
X871Y2D01*
X870Y2D01*
X869Y2D01*
X868Y2D01*
X867Y2D01*
X866Y2D01*
X865Y2D01*
X864Y2D01*
X863Y2D01*
X862Y2D01*
X861Y2D01*
X860Y2D01*
X859Y2D01*
X858Y2D01*
X857Y2D01*
X856Y2D01*
X855Y2D01*
X854Y2D01*
X853Y2D01*
X852Y2D01*
X851Y2D01*
X850Y2D01*
X849Y2D01*
X848Y2D01*
X847Y2D01*
X846Y2D01*
X845Y2D01*
X844Y2D01*
X843Y2D01*
X842Y2D01*
X841Y2D01*
X840Y2D01*
X839Y2D01*
X838Y2D01*
X837Y2D01*
X836Y2D01*
X835Y2D01*
X834Y2D01*
X833Y2D01*
X832Y2D01*
X831Y2D01*
X830Y2D01*
X829Y2D01*
X828Y2D01*
X827Y2D01*
X826Y2D01*
X825Y2D01*
X824Y2D01*
X823Y2D01*
X822Y2D01*
X821Y2D01*
X820Y2D01*
X819Y2D01*
X818Y2D01*
X817Y2D01*
X816Y2D01*
X815Y2D01*
X814Y2D01*
X813Y2D01*
X812Y2D01*
X811Y2D01*
X810Y2D01*
X809Y2D01*
X808Y2D01*
X807Y2D01*
X806Y2D01*
X805Y2D01*
X804Y2D01*
X803Y2D01*
X802Y2D01*
X801Y2D01*
X800Y2D01*
X799Y2D01*
X798Y2D01*
X797Y2D01*
X796Y2D01*
X795Y2D01*
X794Y2D01*
X793Y2D01*
X792Y2D01*
X791Y2D01*
X790Y2D01*
X789Y2D01*
X788Y2D01*
X787Y2D01*
X786Y2D01*
X785Y2D01*
X784Y2D01*
X783Y2D01*
X782Y2D01*
X781Y2D01*
X780Y2D01*
X779Y2D01*
X778Y2D01*
X777Y2D01*
X776Y2D01*
X775Y2D01*
X774Y2D01*
X773Y2D01*
X772Y2D01*
X771Y2D01*
X770Y2D01*
X769Y2D01*
X768Y2D01*
X767Y2D01*
X766Y2D01*
X765Y2D01*
X764Y2D01*
X763Y2D01*
X762Y2D01*
X761Y2D01*
X760Y2D01*
X759Y2D01*
X758Y2D01*
X757Y2D01*
X756Y2D01*
X755Y2D01*
X754Y2D01*
X753Y2D01*
X752Y2D01*
X751Y2D01*
X750Y2D01*
X749Y2D01*
X748Y2D01*
X747Y2D01*
X746Y2D01*
X745Y2D01*
X744Y2D01*
X743Y2D01*
X742Y2D01*
X741Y2D01*
X740Y2D01*
X739Y2D01*
X738Y2D01*
X737Y2D01*
X736Y2D01*
X735Y2D01*
X734Y2D01*
X733Y2D01*
X732Y2D01*
X731Y2D01*
X730Y2D01*
X729Y2D01*
X728Y2D01*
X727Y2D01*
X726Y2D01*
X725Y2D01*
X724Y2D01*
X723Y2D01*
X722Y2D01*
X721Y2D01*
X720Y2D01*
X719Y2D01*
X718Y2D01*
X717Y2D01*
X716Y2D01*
X715Y2D01*
X714Y2D01*
X713Y2D01*
X712Y2D01*
X711Y2D01*
X710Y2D01*
X709Y2D01*
X708Y2D01*
X707Y2D01*
X706Y2D01*
X705Y2D01*
X704Y2D01*
X703Y2D01*
X702Y2D01*
X701Y2D01*
X700Y2D01*
X699Y2D01*
X698Y2D01*
X697Y2D01*
X696Y2D01*
X695Y2D01*
X694Y2D01*
X693Y2D01*
X692Y2D01*
X691Y2D01*
X690Y2D01*
X689Y2D01*
X688Y2D01*
X687Y2D01*
X686Y2D01*
X685Y2D01*
X684Y2D01*
X683Y2D01*
X682Y2D01*
X681Y2D01*
X680Y2D01*
X679Y2D01*
X678Y2D01*
X677Y2D01*
X676Y2D01*
X675Y2D01*
X674Y2D01*
X673Y2D01*
X672Y2D01*
X671Y2D01*
X670Y2D01*
X669Y2D01*
X668Y2D01*
X667Y2D01*
X666Y2D01*
X665Y2D01*
X664Y2D01*
X663Y2D01*
X662Y2D01*
X661Y2D01*
X660Y2D01*
X659Y2D01*
X658Y2D01*
X657Y2D01*
X656Y2D01*
X655Y2D01*
X654Y2D01*
X653Y2D01*
X652Y2D01*
X651Y2D01*
X650Y2D01*
X649Y2D01*
X648Y2D01*
X647Y2D01*
X646Y2D01*
X645Y2D01*
X644Y2D01*
X643Y2D01*
X642Y2D01*
X641Y2D01*
X640Y2D01*
X639Y2D01*
X638Y2D01*
X637Y2D01*
X636Y2D01*
X635Y2D01*
X634Y2D01*
X633Y2D01*
X632Y2D01*
X631Y2D01*
X630Y2D01*
X629Y2D01*
X628Y2D01*
X627Y2D01*
X626Y2D01*
X625Y2D01*
X624Y2D01*
X623Y2D01*
X622Y2D01*
X621Y2D01*
X620Y2D01*
X619Y2D01*
X618Y2D01*
X617Y2D01*
X616Y2D01*
X615Y2D01*
X614Y2D01*
X613Y2D01*
X612Y2D01*
X611Y2D01*
X610Y2D01*
X609Y2D01*
X608Y2D01*
X607Y2D01*
X606Y2D01*
X605Y2D01*
X604Y2D01*
X603Y2D01*
X602Y2D01*
X601Y2D01*
X600Y2D01*
X599Y2D01*
X598Y2D01*
X597Y2D01*
X596Y2D01*
X595Y2D01*
X594Y2D01*
X593Y2D01*
X592Y2D01*
X591Y2D01*
X590Y2D01*
X589Y2D01*
X588Y2D01*
X587Y2D01*
X586Y2D01*
X585Y2D01*
X584Y2D01*
X583Y2D01*
X582Y2D01*
X581Y2D01*
X580Y2D01*
X579Y2D01*
X578Y2D01*
X577Y2D01*
X576Y2D01*
X575Y2D01*
X574Y2D01*
X573Y2D01*
X572Y2D01*
X571Y2D01*
X570Y2D01*
X569Y2D01*
X568Y2D01*
X567Y2D01*
X566Y2D01*
X565Y2D01*
X564Y2D01*
X563Y2D01*
X562Y2D01*
X561Y2D01*
X560Y2D01*
X559Y2D01*
X558Y2D01*
X557Y2D01*
X556Y2D01*
X555Y2D01*
X554Y2D01*
X553Y2D01*
X552Y2D01*
X551Y2D01*
X550Y2D01*
X549Y2D01*
X548Y2D01*
X547Y2D01*
X546Y2D01*
X545Y2D01*
X544Y2D01*
X543Y2D01*
X542Y2D01*
X541Y2D01*
X540Y2D01*
X539Y2D01*
X538Y2D01*
X537Y2D01*
X536Y2D01*
X535Y2D01*
X534Y2D01*
X533Y2D01*
X532Y2D01*
X531Y2D01*
X530Y2D01*
X529Y2D01*
X528Y2D01*
X527Y2D01*
X526Y2D01*
X525Y2D01*
X524Y2D01*
X523Y2D01*
X522Y2D01*
X521Y2D01*
X520Y2D01*
X519Y2D01*
X518Y2D01*
X517Y2D01*
X516Y2D01*
X515Y2D01*
X514Y2D01*
X513Y2D01*
X512Y2D01*
X511Y2D01*
X510Y2D01*
X509Y2D01*
X508Y2D01*
X507Y2D01*
X506Y2D01*
X505Y2D01*
X504Y2D01*
X503Y2D01*
X502Y2D01*
X501Y2D01*
X500Y2D01*
X499Y2D01*
X498Y2D01*
X497Y2D01*
X496Y2D01*
X495Y2D01*
X494Y2D01*
X493Y2D01*
X492Y2D01*
X491Y2D01*
X490Y2D01*
X489Y2D01*
X488Y2D01*
X487Y2D01*
X486Y2D01*
X485Y2D01*
X484Y2D01*
X483Y2D01*
X482Y2D01*
X481Y2D01*
X480Y2D01*
X479Y2D01*
X478Y2D01*
X477Y2D01*
X476Y2D01*
X475Y2D01*
X474Y2D01*
X473Y2D01*
X472Y2D01*
X471Y2D01*
X470Y2D01*
X469Y2D01*
X468Y2D01*
X467Y2D01*
X466Y2D01*
X465Y2D01*
X464Y2D01*
X463Y2D01*
X462Y2D01*
X461Y2D01*
X460Y2D01*
X459Y2D01*
X458Y2D01*
X457Y2D01*
X456Y2D01*
X455Y2D01*
X454Y2D01*
X453Y2D01*
X452Y2D01*
X451Y2D01*
X450Y2D01*
X449Y2D01*
X448Y2D01*
X447Y2D01*
X446Y2D01*
X445Y2D01*
X444Y2D01*
X443Y2D01*
X442Y2D01*
X441Y2D01*
X440Y2D01*
X439Y2D01*
X438Y2D01*
X437Y2D01*
X436Y2D01*
X435Y2D01*
X434Y2D01*
X433Y2D01*
X432Y2D01*
X431Y2D01*
X430Y2D01*
X429Y2D01*
X428Y2D01*
X427Y2D01*
X426Y2D01*
X425Y2D01*
X424Y2D01*
X423Y2D01*
X422Y2D01*
X421Y2D01*
X420Y2D01*
X419Y2D01*
X418Y2D01*
X417Y2D01*
X416Y2D01*
X415Y2D01*
X414Y2D01*
X413Y2D01*
X412Y2D01*
X411Y2D01*
X410Y2D01*
X409Y2D01*
X408Y2D01*
X407Y2D01*
X406Y2D01*
X405Y2D01*
X404Y2D01*
X403Y2D01*
X402Y2D01*
X401Y2D01*
X400Y2D01*
X399Y2D01*
X398Y2D01*
X397Y2D01*
X396Y2D01*
X395Y2D01*
X394Y2D01*
X393Y2D01*
X392Y2D01*
X391Y2D01*
X390Y2D01*
X389Y2D01*
X388Y2D01*
X387Y2D01*
X386Y2D01*
X385Y2D01*
X384Y2D01*
X383Y2D01*
X382Y2D01*
X381Y2D01*
X380Y2D01*
X379Y2D01*
X378Y2D01*
X377Y2D01*
X376Y2D01*
X375Y2D01*
X374Y2D01*
X373Y2D01*
X372Y2D01*
X371Y2D01*
X370Y2D01*
X369Y2D01*
X368Y2D01*
X367Y2D01*
X366Y2D01*
X365Y2D01*
X364Y2D01*
X363Y2D01*
X362Y2D01*
X361Y2D01*
X360Y2D01*
X359Y2D01*
X358Y2D01*
X357Y2D01*
X356Y2D01*
X355Y2D01*
X354Y2D01*
X353Y2D01*
X352Y2D01*
X351Y2D01*
X350Y2D01*
X349Y2D01*
X348Y2D01*
X347Y2D01*
X346Y2D01*
X345Y2D01*
X344Y2D01*
X343Y2D01*
X342Y2D01*
X341Y2D01*
X340Y2D01*
X339Y2D01*
X338Y2D01*
X337Y2D01*
X336Y2D01*
X335Y2D01*
X334Y2D01*
X333Y2D01*
X332Y2D01*
X331Y2D01*
X330Y2D01*
X329Y2D01*
X328Y2D01*
X327Y2D01*
X326Y2D01*
X325Y2D01*
X324Y2D01*
X323Y2D01*
X322Y2D01*
X321Y2D01*
X320Y2D01*
X319Y2D01*
X318Y2D01*
X317Y2D01*
X316Y2D01*
X315Y2D01*
X314Y2D01*
X313Y2D01*
X312Y2D01*
X311Y2D01*
X310Y2D01*
X309Y2D01*
X308Y2D01*
X307Y2D01*
X306Y2D01*
X305Y2D01*
X304Y2D01*
X303Y2D01*
X302Y2D01*
X301Y2D01*
X300Y2D01*
X299Y2D01*
X298Y2D01*
X297Y2D01*
X296Y2D01*
X295Y2D01*
X294Y2D01*
X293Y2D01*
X292Y2D01*
X291Y2D01*
X290Y2D01*
X289Y2D01*
X288Y2D01*
X287Y2D01*
X286Y2D01*
X285Y2D01*
X284Y2D01*
X283Y2D01*
X282Y2D01*
X281Y2D01*
X280Y2D01*
X279Y2D01*
X278Y2D01*
X277Y2D01*
X276Y2D01*
X275Y2D01*
X274Y2D01*
X273Y2D01*
X272Y2D01*
X271Y2D01*
X270Y2D01*
X269Y2D01*
X268Y2D01*
X267Y2D01*
X266Y2D01*
X265Y2D01*
X264Y2D01*
X263Y2D01*
X262Y2D01*
X261Y2D01*
X260Y2D01*
X259Y2D01*
X258Y2D01*
X257Y2D01*
X256Y2D01*
X255Y2D01*
X254Y2D01*
X253Y2D01*
X252Y2D01*
X251Y2D01*
X250Y2D01*
X249Y2D01*
X248Y2D01*
X247Y2D01*
X246Y2D01*
X245Y2D01*
X244Y2D01*
X243Y2D01*
X242Y2D01*
X241Y2D01*
X240Y2D01*
X239Y2D01*
X238Y2D01*
X237Y2D01*
X236Y2D01*
X235Y2D01*
X234Y2D01*
X233Y2D01*
X232Y2D01*
X231Y2D01*
X230Y2D01*
X229Y2D01*
X228Y2D01*
X227Y2D01*
X226Y2D01*
X225Y2D01*
X224Y2D01*
X223Y2D01*
X222Y2D01*
X221Y2D01*
X220Y2D01*
X219Y2D01*
X218Y2D01*
X217Y2D01*
X216Y2D01*
X215Y2D01*
X214Y2D01*
X213Y2D01*
X212Y2D01*
X211Y2D01*
X210Y2D01*
X209Y2D01*
X208Y2D01*
X207Y2D01*
X206Y2D01*
X205Y2D01*
X204Y2D01*
X203Y2D01*
X202Y2D01*
X201Y2D01*
X200Y2D01*
X199Y2D01*
X198Y2D01*
X197Y2D01*
X196Y2D01*
X195Y2D01*
X194Y2D01*
X193Y2D01*
X192Y2D01*
X191Y2D01*
X190Y2D01*
X189Y2D01*
X188Y2D01*
X187Y2D01*
X186Y2D01*
X185Y2D01*
X184Y2D01*
X183Y2D01*
X182Y2D01*
X181Y2D01*
X180Y2D01*
X179Y2D01*
X178Y2D01*
X177Y2D01*
X176Y2D01*
X175Y2D01*
X174Y2D01*
X173Y2D01*
X172Y2D01*
X171Y2D01*
X170Y2D01*
X169Y2D01*
X168Y2D01*
X167Y2D01*
X166Y2D01*
X165Y2D01*
X164Y2D01*
X163Y2D01*
X162Y2D01*
X161Y2D01*
X160Y2D01*
X159Y2D01*
X158Y2D01*
X157Y2D01*
X156Y2D01*
X155Y2D01*
X154Y2D01*
X153Y2D01*
X152Y2D01*
X151Y2D01*
X150Y2D01*
X149Y2D01*
X148Y2D01*
X147Y2D01*
X146Y2D01*
X145Y2D01*
X144Y2D01*
X143Y2D01*
X142Y2D01*
X141Y2D01*
X140Y2D01*
X139Y2D01*
X138Y2D01*
X137Y2D01*
X136Y2D01*
X135Y2D01*
X134Y2D01*
X133Y2D01*
X132Y2D01*
X131Y2D01*
X130Y2D01*
X129Y2D01*
X128Y2D01*
X127Y2D01*
X126Y2D01*
X125Y2D01*
X124Y2D01*
X123Y3D01*
X122Y3D01*
X121Y3D01*
X120Y3D01*
X119Y3D01*
X118Y3D01*
X117Y3D01*
X116Y3D01*
X115Y4D01*
X114Y4D01*
X113Y4D01*
X112Y4D01*
X111Y4D01*
X110Y4D01*
X109Y5D01*
X108Y5D01*
X107Y5D01*
X106Y5D01*
X105Y5D01*
X104Y6D01*
X103Y6D01*
X102Y6D01*
X101Y6D01*
X100Y7D01*
X99Y7D01*
X98Y7D01*
X97Y8D01*
X96Y8D01*
X95Y8D01*
X94Y9D01*
X93Y9D01*
X92Y9D01*
X91Y10D01*
X90Y10D01*
X89Y10D01*
X88Y11D01*
X87Y11D01*
X86Y12D01*
X85Y12D01*
X84Y12D01*
X83Y13D01*
X82Y13D01*
X81Y14D01*
X80Y14D01*
X79Y15D01*
X78Y15D01*
X77Y16D01*
X76Y16D01*
X75Y17D01*
X74Y17D01*
X73Y18D01*
X72Y18D01*
X71Y19D01*
X70Y19D01*
X69Y20D01*
X68Y21D01*
X67Y21D01*
X66Y22D01*
X65Y22D01*
X64Y23D01*
X63Y24D01*
X62Y25D01*
X61Y25D01*
X60Y26D01*
X59Y27D01*
X58Y27D01*
X57Y28D01*
X56Y29D01*
X55Y30D01*
X54Y30D01*
X53Y31D01*
X52Y32D01*
X51Y33D01*
X50Y34D01*
X49Y35D01*
X48Y35D01*
X47Y36D01*
X46Y37D01*
X45Y38D01*
X44Y39D01*
X43Y40D01*
X42Y41D01*
X41Y42D01*
X40Y43D01*
X39Y44D01*
X38Y45D01*
X37Y46D01*
X37Y47D01*
X36Y48D01*
X35Y49D01*
X34Y50D01*
X33Y51D01*
X32Y52D01*
X32Y53D01*
X31Y54D01*
X30Y55D01*
X29Y56D01*
X29Y57D01*
X28Y58D01*
X27Y59D01*
X26Y60D01*
X26Y61D01*
X25Y62D01*
X24Y63D01*
X24Y64D01*
X23Y65D01*
X22Y66D01*
X22Y67D01*
X21Y68D01*
X21Y69D01*
X20Y70D01*
X19Y71D01*
X19Y72D01*
X18Y73D01*
X18Y74D01*
X17Y75D01*
X17Y76D01*
X16Y77D01*
X16Y78D01*
X15Y79D01*
X15Y80D01*
X14Y81D01*
X14Y82D01*
X13Y83D01*
X13Y85D01*
X12Y86D01*
X12Y87D01*
X11Y88D01*
X11Y89D01*
X10Y90D01*
X10Y92D01*
X9Y93D01*
X9Y95D01*
X8Y96D01*
X8Y98D01*
X7Y99D01*
X7Y101D01*
X6Y102D01*
X6Y105D01*
X5Y106D01*
X5Y108D01*
X4Y109D01*
X4Y113D01*
X3Y114D01*
X3Y118D01*
X2Y119D01*
X2Y124D01*
X1Y125D01*
X1Y133D01*
X0Y134D01*
X0Y2401D01*
X1Y2402D01*
X1Y2410D01*
X2Y2411D01*
X2Y2416D01*
X3Y2417D01*
X3Y2421D01*
X4Y2422D01*
X4Y2426D01*
X5Y2427D01*
X5Y2429D01*
X6Y2430D01*
X6Y2433D01*
X7Y2434D01*
X7Y2436D01*
X8Y2437D01*
X8Y2439D01*
X9Y2440D01*
X9Y2442D01*
X10Y2443D01*
X10Y2445D01*
X11Y2446D01*
X11Y2447D01*
X12Y2448D01*
X12Y2449D01*
X13Y2450D01*
X13Y2452D01*
X14Y2453D01*
X14Y2454D01*
X15Y2455D01*
X15Y2456D01*
X16Y2457D01*
X16Y2458D01*
X17Y2459D01*
X17Y2460D01*
X18Y2461D01*
X18Y2462D01*
X19Y2463D01*
X19Y2464D01*
X20Y2465D01*
X21Y2466D01*
X21Y2467D01*
X22Y2468D01*
X22Y2469D01*
X23Y2470D01*
X24Y2471D01*
X24Y2472D01*
X25Y2473D01*
X26Y2474D01*
X26Y2475D01*
X27Y2476D01*
X28Y2477D01*
X29Y2478D01*
X29Y2479D01*
X30Y2480D01*
X31Y2481D01*
X32Y2482D01*
X32Y2483D01*
X33Y2484D01*
X34Y2485D01*
X35Y2486D01*
X36Y2487D01*
X37Y2488D01*
X37Y2489D01*
X38Y2490D01*
X39Y2491D01*
X40Y2492D01*
X41Y2493D01*
X42Y2494D01*
X43Y2495D01*
X44Y2496D01*
X45Y2497D01*
X46Y2498D01*
X47Y2499D01*
X48Y2500D01*
X49Y2500D01*
X50Y2501D01*
X51Y2502D01*
X52Y2503D01*
X53Y2504D01*
X54Y2505D01*
X55Y2505D01*
X56Y2506D01*
X57Y2507D01*
X58Y2508D01*
X59Y2508D01*
X60Y2509D01*
X61Y2510D01*
X62Y2511D01*
X63Y2511D01*
X64Y2512D01*
X65Y2513D01*
X66Y2513D01*
X67Y2514D01*
X68Y2514D01*
X69Y2515D01*
X70Y2516D01*
X71Y2516D01*
X72Y2517D01*
X73Y2517D01*
X74Y2518D01*
X75Y2518D01*
X76Y2519D01*
X77Y2519D01*
X78Y2520D01*
X79Y2520D01*
X80Y2521D01*
X81Y2521D01*
X82Y2522D01*
X83Y2522D01*
X84Y2523D01*
X85Y2523D01*
X86Y2523D01*
X87Y2524D01*
X88Y2524D01*
X89Y2525D01*
X90Y2525D01*
X91Y2525D01*
X92Y2526D01*
X93Y2526D01*
X94Y2526D01*
X95Y2527D01*
X96Y2527D01*
X97Y2527D01*
X98Y2528D01*
X99Y2528D01*
X100Y2528D01*
X101Y2529D01*
X102Y2529D01*
X103Y2529D01*
X104Y2529D01*
X105Y2530D01*
X106Y2530D01*
X107Y2530D01*
X108Y2530D01*
X109Y2530D01*
X110Y2531D01*
X111Y2531D01*
X112Y2531D01*
X113Y2531D01*
X114Y2531D01*
X115Y2532D01*
X116Y2532D01*
X117Y2532D01*
X118Y2532D01*
X119Y2532D01*
X120Y2532D01*
X121Y2532D01*
X122Y2532D01*
X123Y2532D01*
X124Y2533D01*
D02*
G04 End of contour*
M02*