G04 MADE WITH FRITZING*
G04 WWW.FRITZING.ORG*
G04 DOUBLE SIDED*
G04 HOLES PLATED*
G04 CONTOUR ON CENTER OF CONTOUR VECTOR*
%ASAXBY*%
%FSLAX23Y23*%
%MOIN*%
%OFA0B0*%
%SFA1.0B1.0*%
%ADD10R,0.001000X0.001000*%
%LNSILK0*%
G90*
G70*
G54D10*
X365Y2559D02*
X3095Y2559D01*
X351Y2558D02*
X3109Y2558D01*
X341Y2557D02*
X3119Y2557D01*
X333Y2556D02*
X3127Y2556D01*
X326Y2555D02*
X3134Y2555D01*
X320Y2554D02*
X3140Y2554D01*
X315Y2553D02*
X3145Y2553D01*
X309Y2552D02*
X3151Y2552D01*
X305Y2551D02*
X364Y2551D01*
X3096Y2551D02*
X3155Y2551D01*
X300Y2550D02*
X350Y2550D01*
X3110Y2550D02*
X3160Y2550D01*
X296Y2549D02*
X340Y2549D01*
X3120Y2549D02*
X3164Y2549D01*
X292Y2548D02*
X332Y2548D01*
X3128Y2548D02*
X3168Y2548D01*
X288Y2547D02*
X325Y2547D01*
X3135Y2547D02*
X3172Y2547D01*
X284Y2546D02*
X319Y2546D01*
X3141Y2546D02*
X3176Y2546D01*
X280Y2545D02*
X314Y2545D01*
X3146Y2545D02*
X3180Y2545D01*
X277Y2544D02*
X309Y2544D01*
X3151Y2544D02*
X3183Y2544D01*
X274Y2543D02*
X304Y2543D01*
X3156Y2543D02*
X3186Y2543D01*
X270Y2542D02*
X299Y2542D01*
X3161Y2542D02*
X3190Y2542D01*
X267Y2541D02*
X295Y2541D01*
X3165Y2541D02*
X3193Y2541D01*
X265Y2540D02*
X291Y2540D01*
X3169Y2540D02*
X3195Y2540D01*
X262Y2539D02*
X287Y2539D01*
X3173Y2539D02*
X3198Y2539D01*
X259Y2538D02*
X284Y2538D01*
X3176Y2538D02*
X3201Y2538D01*
X256Y2537D02*
X280Y2537D01*
X3180Y2537D02*
X3204Y2537D01*
X253Y2536D02*
X277Y2536D01*
X3183Y2536D02*
X3207Y2536D01*
X250Y2535D02*
X273Y2535D01*
X3187Y2535D02*
X3210Y2535D01*
X248Y2534D02*
X270Y2534D01*
X3190Y2534D02*
X3212Y2534D01*
X245Y2533D02*
X267Y2533D01*
X3193Y2533D02*
X3215Y2533D01*
X243Y2532D02*
X264Y2532D01*
X3196Y2532D02*
X3217Y2532D01*
X240Y2531D02*
X262Y2531D01*
X3198Y2531D02*
X3220Y2531D01*
X238Y2530D02*
X259Y2530D01*
X3201Y2530D02*
X3222Y2530D01*
X235Y2529D02*
X256Y2529D01*
X3204Y2529D02*
X3225Y2529D01*
X233Y2528D02*
X253Y2528D01*
X3207Y2528D02*
X3227Y2528D01*
X231Y2527D02*
X250Y2527D01*
X3210Y2527D02*
X3229Y2527D01*
X229Y2526D02*
X248Y2526D01*
X3212Y2526D02*
X3231Y2526D01*
X226Y2525D02*
X245Y2525D01*
X3215Y2525D02*
X3234Y2525D01*
X224Y2524D02*
X243Y2524D01*
X3217Y2524D02*
X3236Y2524D01*
X222Y2523D02*
X240Y2523D01*
X3220Y2523D02*
X3238Y2523D01*
X220Y2522D02*
X238Y2522D01*
X3222Y2522D02*
X3240Y2522D01*
X218Y2521D02*
X236Y2521D01*
X3224Y2521D02*
X3242Y2521D01*
X216Y2520D02*
X233Y2520D01*
X3227Y2520D02*
X3244Y2520D01*
X214Y2519D02*
X231Y2519D01*
X3229Y2519D02*
X3246Y2519D01*
X212Y2518D02*
X229Y2518D01*
X3231Y2518D02*
X3248Y2518D01*
X210Y2517D02*
X227Y2517D01*
X3233Y2517D02*
X3250Y2517D01*
X208Y2516D02*
X225Y2516D01*
X3235Y2516D02*
X3252Y2516D01*
X206Y2515D02*
X222Y2515D01*
X3238Y2515D02*
X3254Y2515D01*
X204Y2514D02*
X220Y2514D01*
X3240Y2514D02*
X3256Y2514D01*
X202Y2513D02*
X218Y2513D01*
X3242Y2513D02*
X3258Y2513D01*
X200Y2512D02*
X216Y2512D01*
X3244Y2512D02*
X3260Y2512D01*
X199Y2511D02*
X214Y2511D01*
X3246Y2511D02*
X3261Y2511D01*
X197Y2510D02*
X213Y2510D01*
X3247Y2510D02*
X3263Y2510D01*
X195Y2509D02*
X211Y2509D01*
X3249Y2509D02*
X3265Y2509D01*
X194Y2508D02*
X209Y2508D01*
X3251Y2508D02*
X3266Y2508D01*
X192Y2507D02*
X207Y2507D01*
X3253Y2507D02*
X3268Y2507D01*
X190Y2506D02*
X205Y2506D01*
X3255Y2506D02*
X3270Y2506D01*
X188Y2505D02*
X203Y2505D01*
X3257Y2505D02*
X3272Y2505D01*
X187Y2504D02*
X201Y2504D01*
X3259Y2504D02*
X3273Y2504D01*
X185Y2503D02*
X200Y2503D01*
X3260Y2503D02*
X3275Y2503D01*
X183Y2502D02*
X198Y2502D01*
X3262Y2502D02*
X3277Y2502D01*
X182Y2501D02*
X196Y2501D01*
X3264Y2501D02*
X3278Y2501D01*
X180Y2500D02*
X194Y2500D01*
X3266Y2500D02*
X3280Y2500D01*
X179Y2499D02*
X193Y2499D01*
X3267Y2499D02*
X3281Y2499D01*
X177Y2498D02*
X191Y2498D01*
X3269Y2498D02*
X3283Y2498D01*
X176Y2497D02*
X189Y2497D01*
X3271Y2497D02*
X3284Y2497D01*
X174Y2496D02*
X188Y2496D01*
X3272Y2496D02*
X3286Y2496D01*
X173Y2495D02*
X186Y2495D01*
X3274Y2495D02*
X3287Y2495D01*
X171Y2494D02*
X185Y2494D01*
X3275Y2494D02*
X3289Y2494D01*
X170Y2493D02*
X183Y2493D01*
X3277Y2493D02*
X3290Y2493D01*
X168Y2492D02*
X182Y2492D01*
X3278Y2492D02*
X3292Y2492D01*
X167Y2491D02*
X180Y2491D01*
X3280Y2491D02*
X3293Y2491D01*
X165Y2490D02*
X178Y2490D01*
X3282Y2490D02*
X3295Y2490D01*
X164Y2489D02*
X177Y2489D01*
X3283Y2489D02*
X3296Y2489D01*
X163Y2488D02*
X175Y2488D01*
X3285Y2488D02*
X3297Y2488D01*
X161Y2487D02*
X174Y2487D01*
X3286Y2487D02*
X3299Y2487D01*
X160Y2486D02*
X172Y2486D01*
X3288Y2486D02*
X3300Y2486D01*
X158Y2485D02*
X171Y2485D01*
X3289Y2485D02*
X3302Y2485D01*
X157Y2484D02*
X170Y2484D01*
X3290Y2484D02*
X3303Y2484D01*
X156Y2483D02*
X168Y2483D01*
X3292Y2483D02*
X3304Y2483D01*
X154Y2482D02*
X167Y2482D01*
X3293Y2482D02*
X3306Y2482D01*
X153Y2481D02*
X165Y2481D01*
X3295Y2481D02*
X3307Y2481D01*
X152Y2480D02*
X164Y2480D01*
X3296Y2480D02*
X3308Y2480D01*
X150Y2479D02*
X163Y2479D01*
X3297Y2479D02*
X3310Y2479D01*
X149Y2478D02*
X161Y2478D01*
X3299Y2478D02*
X3311Y2478D01*
X148Y2477D02*
X160Y2477D01*
X3300Y2477D02*
X3312Y2477D01*
X147Y2476D02*
X158Y2476D01*
X3302Y2476D02*
X3313Y2476D01*
X145Y2475D02*
X157Y2475D01*
X3303Y2475D02*
X3315Y2475D01*
X144Y2474D02*
X156Y2474D01*
X3304Y2474D02*
X3316Y2474D01*
X143Y2473D02*
X155Y2473D01*
X3305Y2473D02*
X3317Y2473D01*
X142Y2472D02*
X153Y2472D01*
X3307Y2472D02*
X3318Y2472D01*
X140Y2471D02*
X152Y2471D01*
X3308Y2471D02*
X3320Y2471D01*
X139Y2470D02*
X151Y2470D01*
X3309Y2470D02*
X3321Y2470D01*
X138Y2469D02*
X150Y2469D01*
X3310Y2469D02*
X3322Y2469D01*
X137Y2468D02*
X148Y2468D01*
X3312Y2468D02*
X3323Y2468D01*
X136Y2467D02*
X147Y2467D01*
X3313Y2467D02*
X3324Y2467D01*
X135Y2466D02*
X146Y2466D01*
X3314Y2466D02*
X3325Y2466D01*
X133Y2465D02*
X145Y2465D01*
X3315Y2465D02*
X3326Y2465D01*
X132Y2464D02*
X143Y2464D01*
X3317Y2464D02*
X3328Y2464D01*
X131Y2463D02*
X142Y2463D01*
X3318Y2463D02*
X3329Y2463D01*
X130Y2462D02*
X141Y2462D01*
X3319Y2462D02*
X3330Y2462D01*
X129Y2461D02*
X140Y2461D01*
X3320Y2461D02*
X3331Y2461D01*
X128Y2460D02*
X139Y2460D01*
X3321Y2460D02*
X3332Y2460D01*
X127Y2459D02*
X138Y2459D01*
X3322Y2459D02*
X3333Y2459D01*
X126Y2458D02*
X137Y2458D01*
X3323Y2458D02*
X3334Y2458D01*
X125Y2457D02*
X135Y2457D01*
X3325Y2457D02*
X3335Y2457D01*
X123Y2456D02*
X134Y2456D01*
X3326Y2456D02*
X3336Y2456D01*
X122Y2455D02*
X133Y2455D01*
X3327Y2455D02*
X3338Y2455D01*
X121Y2454D02*
X132Y2454D01*
X3328Y2454D02*
X3339Y2454D01*
X120Y2453D02*
X131Y2453D01*
X3329Y2453D02*
X3340Y2453D01*
X119Y2452D02*
X130Y2452D01*
X3330Y2452D02*
X3341Y2452D01*
X118Y2451D02*
X129Y2451D01*
X3331Y2451D02*
X3342Y2451D01*
X117Y2450D02*
X128Y2450D01*
X3332Y2450D02*
X3343Y2450D01*
X116Y2449D02*
X127Y2449D01*
X3333Y2449D02*
X3344Y2449D01*
X115Y2448D02*
X126Y2448D01*
X3334Y2448D02*
X3345Y2448D01*
X114Y2447D02*
X125Y2447D01*
X3335Y2447D02*
X3346Y2447D01*
X113Y2446D02*
X124Y2446D01*
X3336Y2446D02*
X3347Y2446D01*
X112Y2445D02*
X123Y2445D01*
X3337Y2445D02*
X3348Y2445D01*
X111Y2444D02*
X122Y2444D01*
X3338Y2444D02*
X3349Y2444D01*
X110Y2443D02*
X121Y2443D01*
X3339Y2443D02*
X3350Y2443D01*
X109Y2442D02*
X119Y2442D01*
X3341Y2442D02*
X3351Y2442D01*
X108Y2441D02*
X118Y2441D01*
X3342Y2441D02*
X3352Y2441D01*
X107Y2440D02*
X117Y2440D01*
X3343Y2440D02*
X3353Y2440D01*
X106Y2439D02*
X117Y2439D01*
X3343Y2439D02*
X3354Y2439D01*
X106Y2438D02*
X116Y2438D01*
X3344Y2438D02*
X3354Y2438D01*
X105Y2437D02*
X115Y2437D01*
X3345Y2437D02*
X3355Y2437D01*
X104Y2436D02*
X114Y2436D01*
X3346Y2436D02*
X3356Y2436D01*
X103Y2435D02*
X113Y2435D01*
X3347Y2435D02*
X3357Y2435D01*
X102Y2434D02*
X112Y2434D01*
X3348Y2434D02*
X3358Y2434D01*
X101Y2433D02*
X111Y2433D01*
X3349Y2433D02*
X3359Y2433D01*
X100Y2432D02*
X110Y2432D01*
X3350Y2432D02*
X3360Y2432D01*
X99Y2431D02*
X109Y2431D01*
X3351Y2431D02*
X3361Y2431D01*
X98Y2430D02*
X108Y2430D01*
X3352Y2430D02*
X3362Y2430D01*
X97Y2429D02*
X107Y2429D01*
X3353Y2429D02*
X3363Y2429D01*
X97Y2428D02*
X106Y2428D01*
X3354Y2428D02*
X3363Y2428D01*
X96Y2427D02*
X105Y2427D01*
X3355Y2427D02*
X3364Y2427D01*
X95Y2426D02*
X104Y2426D01*
X3356Y2426D02*
X3365Y2426D01*
X94Y2425D02*
X103Y2425D01*
X3357Y2425D02*
X3366Y2425D01*
X93Y2424D02*
X103Y2424D01*
X3357Y2424D02*
X3367Y2424D01*
X92Y2423D02*
X102Y2423D01*
X3358Y2423D02*
X3368Y2423D01*
X91Y2422D02*
X101Y2422D01*
X3359Y2422D02*
X3369Y2422D01*
X91Y2421D02*
X100Y2421D01*
X3360Y2421D02*
X3369Y2421D01*
X90Y2420D02*
X99Y2420D01*
X3361Y2420D02*
X3370Y2420D01*
X89Y2419D02*
X98Y2419D01*
X3362Y2419D02*
X3371Y2419D01*
X88Y2418D02*
X97Y2418D01*
X3363Y2418D02*
X3372Y2418D01*
X87Y2417D02*
X97Y2417D01*
X3363Y2417D02*
X3373Y2417D01*
X86Y2416D02*
X96Y2416D01*
X3364Y2416D02*
X3374Y2416D01*
X86Y2415D02*
X95Y2415D01*
X3365Y2415D02*
X3374Y2415D01*
X85Y2414D02*
X94Y2414D01*
X3366Y2414D02*
X3375Y2414D01*
X84Y2413D02*
X93Y2413D01*
X3367Y2413D02*
X3376Y2413D01*
X83Y2412D02*
X92Y2412D01*
X3368Y2412D02*
X3377Y2412D01*
X83Y2411D02*
X92Y2411D01*
X3368Y2411D02*
X3377Y2411D01*
X82Y2410D02*
X91Y2410D01*
X3369Y2410D02*
X3378Y2410D01*
X81Y2409D02*
X90Y2409D01*
X3370Y2409D02*
X3379Y2409D01*
X80Y2408D02*
X89Y2408D01*
X3371Y2408D02*
X3380Y2408D01*
X79Y2407D02*
X89Y2407D01*
X3371Y2407D02*
X3381Y2407D01*
X79Y2406D02*
X88Y2406D01*
X3372Y2406D02*
X3381Y2406D01*
X78Y2405D02*
X87Y2405D01*
X3373Y2405D02*
X3382Y2405D01*
X77Y2404D02*
X86Y2404D01*
X3374Y2404D02*
X3383Y2404D01*
X76Y2403D02*
X85Y2403D01*
X3375Y2403D02*
X3384Y2403D01*
X76Y2402D02*
X85Y2402D01*
X3375Y2402D02*
X3384Y2402D01*
X75Y2401D02*
X84Y2401D01*
X3376Y2401D02*
X3385Y2401D01*
X74Y2400D02*
X83Y2400D01*
X3377Y2400D02*
X3386Y2400D01*
X74Y2399D02*
X82Y2399D01*
X3378Y2399D02*
X3386Y2399D01*
X73Y2398D02*
X82Y2398D01*
X3378Y2398D02*
X3387Y2398D01*
X72Y2397D02*
X81Y2397D01*
X3379Y2397D02*
X3388Y2397D01*
X71Y2396D02*
X80Y2396D01*
X3380Y2396D02*
X3389Y2396D01*
X71Y2395D02*
X79Y2395D01*
X3381Y2395D02*
X3389Y2395D01*
X70Y2394D02*
X79Y2394D01*
X3381Y2394D02*
X3390Y2394D01*
X69Y2393D02*
X78Y2393D01*
X3382Y2393D02*
X3391Y2393D01*
X69Y2392D02*
X77Y2392D01*
X3383Y2392D02*
X3391Y2392D01*
X68Y2391D02*
X77Y2391D01*
X3383Y2391D02*
X3392Y2391D01*
X67Y2390D02*
X76Y2390D01*
X3384Y2390D02*
X3393Y2390D01*
X67Y2389D02*
X75Y2389D01*
X3385Y2389D02*
X3393Y2389D01*
X66Y2388D02*
X75Y2388D01*
X3385Y2388D02*
X3394Y2388D01*
X65Y2387D02*
X74Y2387D01*
X3386Y2387D02*
X3395Y2387D01*
X65Y2386D02*
X73Y2386D01*
X3387Y2386D02*
X3395Y2386D01*
X64Y2385D02*
X72Y2385D01*
X3388Y2385D02*
X3396Y2385D01*
X63Y2384D02*
X72Y2384D01*
X3388Y2384D02*
X3397Y2384D01*
X63Y2383D02*
X71Y2383D01*
X3389Y2383D02*
X3397Y2383D01*
X62Y2382D02*
X70Y2382D01*
X3390Y2382D02*
X3398Y2382D01*
X61Y2381D02*
X70Y2381D01*
X3390Y2381D02*
X3399Y2381D01*
X61Y2380D02*
X69Y2380D01*
X3391Y2380D02*
X3399Y2380D01*
X60Y2379D02*
X69Y2379D01*
X3391Y2379D02*
X3400Y2379D01*
X60Y2378D02*
X68Y2378D01*
X3392Y2378D02*
X3400Y2378D01*
X59Y2377D02*
X67Y2377D01*
X3393Y2377D02*
X3401Y2377D01*
X58Y2376D02*
X67Y2376D01*
X3393Y2376D02*
X3402Y2376D01*
X58Y2375D02*
X66Y2375D01*
X3394Y2375D02*
X3402Y2375D01*
X57Y2374D02*
X65Y2374D01*
X3395Y2374D02*
X3403Y2374D01*
X56Y2373D02*
X65Y2373D01*
X3395Y2373D02*
X3404Y2373D01*
X56Y2372D02*
X64Y2372D01*
X3396Y2372D02*
X3404Y2372D01*
X55Y2371D02*
X63Y2371D01*
X3397Y2371D02*
X3405Y2371D01*
X55Y2370D02*
X63Y2370D01*
X3397Y2370D02*
X3405Y2370D01*
X54Y2369D02*
X62Y2369D01*
X3398Y2369D02*
X3406Y2369D01*
X54Y2368D02*
X62Y2368D01*
X3398Y2368D02*
X3406Y2368D01*
X53Y2367D02*
X61Y2367D01*
X3399Y2367D02*
X3407Y2367D01*
X52Y2366D02*
X60Y2366D01*
X3400Y2366D02*
X3408Y2366D01*
X52Y2365D02*
X60Y2365D01*
X3400Y2365D02*
X3408Y2365D01*
X51Y2364D02*
X59Y2364D01*
X3401Y2364D02*
X3409Y2364D01*
X51Y2363D02*
X59Y2363D01*
X3401Y2363D02*
X3409Y2363D01*
X50Y2362D02*
X58Y2362D01*
X3402Y2362D02*
X3410Y2362D01*
X50Y2361D02*
X58Y2361D01*
X3402Y2361D02*
X3410Y2361D01*
X49Y2360D02*
X57Y2360D01*
X3403Y2360D02*
X3411Y2360D01*
X48Y2359D02*
X56Y2359D01*
X3404Y2359D02*
X3412Y2359D01*
X48Y2358D02*
X56Y2358D01*
X3404Y2358D02*
X3412Y2358D01*
X47Y2357D02*
X55Y2357D01*
X3405Y2357D02*
X3413Y2357D01*
X47Y2356D02*
X55Y2356D01*
X3405Y2356D02*
X3413Y2356D01*
X46Y2355D02*
X54Y2355D01*
X3406Y2355D02*
X3414Y2355D01*
X46Y2354D02*
X54Y2354D01*
X3406Y2354D02*
X3414Y2354D01*
X45Y2353D02*
X53Y2353D01*
X3407Y2353D02*
X3415Y2353D01*
X45Y2352D02*
X53Y2352D01*
X3407Y2352D02*
X3415Y2352D01*
X44Y2351D02*
X52Y2351D01*
X3408Y2351D02*
X3416Y2351D01*
X44Y2350D02*
X52Y2350D01*
X3408Y2350D02*
X3416Y2350D01*
X43Y2349D02*
X51Y2349D01*
X3409Y2349D02*
X3417Y2349D01*
X43Y2348D02*
X51Y2348D01*
X3409Y2348D02*
X3417Y2348D01*
X42Y2347D02*
X50Y2347D01*
X3410Y2347D02*
X3418Y2347D01*
X42Y2346D02*
X50Y2346D01*
X3410Y2346D02*
X3418Y2346D01*
X41Y2345D02*
X49Y2345D01*
X3411Y2345D02*
X3419Y2345D01*
X41Y2344D02*
X49Y2344D01*
X3411Y2344D02*
X3419Y2344D01*
X40Y2343D02*
X48Y2343D01*
X3412Y2343D02*
X3420Y2343D01*
X40Y2342D02*
X47Y2342D01*
X3413Y2342D02*
X3420Y2342D01*
X39Y2341D02*
X47Y2341D01*
X3413Y2341D02*
X3421Y2341D01*
X39Y2340D02*
X46Y2340D01*
X3414Y2340D02*
X3421Y2340D01*
X38Y2339D02*
X46Y2339D01*
X3414Y2339D02*
X3422Y2339D01*
X38Y2338D02*
X45Y2338D01*
X3415Y2338D02*
X3422Y2338D01*
X37Y2337D02*
X45Y2337D01*
X3415Y2337D02*
X3423Y2337D01*
X37Y2336D02*
X44Y2336D01*
X3415Y2336D02*
X3423Y2336D01*
X36Y2335D02*
X44Y2335D01*
X3416Y2335D02*
X3424Y2335D01*
X36Y2334D02*
X44Y2334D01*
X3416Y2334D02*
X3424Y2334D01*
X36Y2333D02*
X43Y2333D01*
X3417Y2333D02*
X3424Y2333D01*
X35Y2332D02*
X43Y2332D01*
X3417Y2332D02*
X3425Y2332D01*
X35Y2331D02*
X42Y2331D01*
X3418Y2331D02*
X3425Y2331D01*
X34Y2330D02*
X42Y2330D01*
X3418Y2330D02*
X3426Y2330D01*
X34Y2329D02*
X41Y2329D01*
X3419Y2329D02*
X3426Y2329D01*
X33Y2328D02*
X41Y2328D01*
X3419Y2328D02*
X3427Y2328D01*
X33Y2327D02*
X40Y2327D01*
X3420Y2327D02*
X3427Y2327D01*
X32Y2326D02*
X40Y2326D01*
X3420Y2326D02*
X3428Y2326D01*
X32Y2325D02*
X40Y2325D01*
X3420Y2325D02*
X3428Y2325D01*
X32Y2324D02*
X39Y2324D01*
X3421Y2324D02*
X3428Y2324D01*
X31Y2323D02*
X39Y2323D01*
X3421Y2323D02*
X3429Y2323D01*
X31Y2322D02*
X38Y2322D01*
X3422Y2322D02*
X3429Y2322D01*
X30Y2321D02*
X38Y2321D01*
X3422Y2321D02*
X3430Y2321D01*
X30Y2320D02*
X37Y2320D01*
X3423Y2320D02*
X3430Y2320D01*
X30Y2319D02*
X37Y2319D01*
X3423Y2319D02*
X3430Y2319D01*
X29Y2318D02*
X37Y2318D01*
X3423Y2318D02*
X3431Y2318D01*
X29Y2317D02*
X36Y2317D01*
X3424Y2317D02*
X3431Y2317D01*
X28Y2316D02*
X36Y2316D01*
X3424Y2316D02*
X3432Y2316D01*
X28Y2315D02*
X35Y2315D01*
X3425Y2315D02*
X3432Y2315D01*
X28Y2314D02*
X35Y2314D01*
X3425Y2314D02*
X3432Y2314D01*
X27Y2313D02*
X35Y2313D01*
X3425Y2313D02*
X3433Y2313D01*
X27Y2312D02*
X34Y2312D01*
X3426Y2312D02*
X3433Y2312D01*
X26Y2311D02*
X34Y2311D01*
X3426Y2311D02*
X3434Y2311D01*
X26Y2310D02*
X33Y2310D01*
X3427Y2310D02*
X3434Y2310D01*
X26Y2309D02*
X33Y2309D01*
X3427Y2309D02*
X3434Y2309D01*
X25Y2308D02*
X33Y2308D01*
X3427Y2308D02*
X3435Y2308D01*
X25Y2307D02*
X32Y2307D01*
X3428Y2307D02*
X3435Y2307D01*
X24Y2306D02*
X32Y2306D01*
X3428Y2306D02*
X3436Y2306D01*
X24Y2305D02*
X31Y2305D01*
X3429Y2305D02*
X3436Y2305D01*
X24Y2304D02*
X31Y2304D01*
X3429Y2304D02*
X3436Y2304D01*
X23Y2303D02*
X31Y2303D01*
X3429Y2303D02*
X3437Y2303D01*
X23Y2302D02*
X30Y2302D01*
X3430Y2302D02*
X3437Y2302D01*
X23Y2301D02*
X30Y2301D01*
X3430Y2301D02*
X3437Y2301D01*
X22Y2300D02*
X30Y2300D01*
X3430Y2300D02*
X3438Y2300D01*
X22Y2299D02*
X29Y2299D01*
X3431Y2299D02*
X3438Y2299D01*
X22Y2298D02*
X29Y2298D01*
X3431Y2298D02*
X3438Y2298D01*
X21Y2297D02*
X29Y2297D01*
X3431Y2297D02*
X3439Y2297D01*
X21Y2296D02*
X28Y2296D01*
X3432Y2296D02*
X3439Y2296D01*
X21Y2295D02*
X28Y2295D01*
X3432Y2295D02*
X3439Y2295D01*
X20Y2294D02*
X28Y2294D01*
X3432Y2294D02*
X3440Y2294D01*
X20Y2293D02*
X27Y2293D01*
X3433Y2293D02*
X3440Y2293D01*
X20Y2292D02*
X27Y2292D01*
X3433Y2292D02*
X3440Y2292D01*
X19Y2291D02*
X27Y2291D01*
X3433Y2291D02*
X3441Y2291D01*
X19Y2290D02*
X26Y2290D01*
X3434Y2290D02*
X3441Y2290D01*
X19Y2289D02*
X26Y2289D01*
X3434Y2289D02*
X3441Y2289D01*
X18Y2288D02*
X26Y2288D01*
X3434Y2288D02*
X3442Y2288D01*
X18Y2287D02*
X25Y2287D01*
X3435Y2287D02*
X3442Y2287D01*
X18Y2286D02*
X25Y2286D01*
X3435Y2286D02*
X3442Y2286D01*
X17Y2285D02*
X25Y2285D01*
X3435Y2285D02*
X3443Y2285D01*
X17Y2284D02*
X24Y2284D01*
X3436Y2284D02*
X3443Y2284D01*
X17Y2283D02*
X24Y2283D01*
X3436Y2283D02*
X3443Y2283D01*
X17Y2282D02*
X24Y2282D01*
X3436Y2282D02*
X3443Y2282D01*
X16Y2281D02*
X24Y2281D01*
X3436Y2281D02*
X3444Y2281D01*
X16Y2280D02*
X23Y2280D01*
X3437Y2280D02*
X3444Y2280D01*
X16Y2279D02*
X23Y2279D01*
X3437Y2279D02*
X3444Y2279D01*
X15Y2278D02*
X23Y2278D01*
X3437Y2278D02*
X3445Y2278D01*
X15Y2277D02*
X22Y2277D01*
X3438Y2277D02*
X3445Y2277D01*
X15Y2276D02*
X22Y2276D01*
X3438Y2276D02*
X3445Y2276D01*
X15Y2275D02*
X22Y2275D01*
X3438Y2275D02*
X3445Y2275D01*
X14Y2274D02*
X22Y2274D01*
X3438Y2274D02*
X3446Y2274D01*
X14Y2273D02*
X21Y2273D01*
X3439Y2273D02*
X3446Y2273D01*
X14Y2272D02*
X21Y2272D01*
X3439Y2272D02*
X3446Y2272D01*
X14Y2271D02*
X21Y2271D01*
X3439Y2271D02*
X3446Y2271D01*
X13Y2270D02*
X20Y2270D01*
X3440Y2270D02*
X3447Y2270D01*
X13Y2269D02*
X20Y2269D01*
X3440Y2269D02*
X3447Y2269D01*
X13Y2268D02*
X20Y2268D01*
X3440Y2268D02*
X3447Y2268D01*
X13Y2267D02*
X20Y2267D01*
X3440Y2267D02*
X3447Y2267D01*
X12Y2266D02*
X19Y2266D01*
X3441Y2266D02*
X3448Y2266D01*
X12Y2265D02*
X19Y2265D01*
X3441Y2265D02*
X3448Y2265D01*
X12Y2264D02*
X19Y2264D01*
X3441Y2264D02*
X3448Y2264D01*
X12Y2263D02*
X19Y2263D01*
X3441Y2263D02*
X3448Y2263D01*
X11Y2262D02*
X18Y2262D01*
X3442Y2262D02*
X3449Y2262D01*
X11Y2261D02*
X18Y2261D01*
X3442Y2261D02*
X3449Y2261D01*
X11Y2260D02*
X18Y2260D01*
X3442Y2260D02*
X3449Y2260D01*
X11Y2259D02*
X18Y2259D01*
X3442Y2259D02*
X3449Y2259D01*
X10Y2258D02*
X17Y2258D01*
X3443Y2258D02*
X3450Y2258D01*
X10Y2257D02*
X17Y2257D01*
X3443Y2257D02*
X3450Y2257D01*
X10Y2256D02*
X17Y2256D01*
X3443Y2256D02*
X3450Y2256D01*
X10Y2255D02*
X17Y2255D01*
X3443Y2255D02*
X3450Y2255D01*
X10Y2254D02*
X17Y2254D01*
X3443Y2254D02*
X3450Y2254D01*
X9Y2253D02*
X16Y2253D01*
X3444Y2253D02*
X3451Y2253D01*
X9Y2252D02*
X16Y2252D01*
X3444Y2252D02*
X3451Y2252D01*
X9Y2251D02*
X16Y2251D01*
X3444Y2251D02*
X3451Y2251D01*
X9Y2250D02*
X16Y2250D01*
X3444Y2250D02*
X3451Y2250D01*
X8Y2249D02*
X16Y2249D01*
X3444Y2249D02*
X3451Y2249D01*
X8Y2248D02*
X15Y2248D01*
X3445Y2248D02*
X3452Y2248D01*
X8Y2247D02*
X15Y2247D01*
X3445Y2247D02*
X3452Y2247D01*
X8Y2246D02*
X15Y2246D01*
X3445Y2246D02*
X3452Y2246D01*
X8Y2245D02*
X15Y2245D01*
X3445Y2245D02*
X3452Y2245D01*
X8Y2244D02*
X15Y2244D01*
X3445Y2244D02*
X3452Y2244D01*
X7Y2243D02*
X14Y2243D01*
X3446Y2243D02*
X3453Y2243D01*
X7Y2242D02*
X14Y2242D01*
X3446Y2242D02*
X3453Y2242D01*
X7Y2241D02*
X14Y2241D01*
X3446Y2241D02*
X3453Y2241D01*
X7Y2240D02*
X14Y2240D01*
X3446Y2240D02*
X3453Y2240D01*
X7Y2239D02*
X14Y2239D01*
X3446Y2239D02*
X3453Y2239D01*
X6Y2238D02*
X14Y2238D01*
X3446Y2238D02*
X3454Y2238D01*
X6Y2237D02*
X13Y2237D01*
X3447Y2237D02*
X3454Y2237D01*
X6Y2236D02*
X13Y2236D01*
X3447Y2236D02*
X3454Y2236D01*
X6Y2235D02*
X13Y2235D01*
X3447Y2235D02*
X3454Y2235D01*
X6Y2234D02*
X13Y2234D01*
X3447Y2234D02*
X3454Y2234D01*
X6Y2233D02*
X13Y2233D01*
X3447Y2233D02*
X3454Y2233D01*
X5Y2232D02*
X13Y2232D01*
X3447Y2232D02*
X3455Y2232D01*
X5Y2231D02*
X12Y2231D01*
X3448Y2231D02*
X3455Y2231D01*
X5Y2230D02*
X12Y2230D01*
X3448Y2230D02*
X3455Y2230D01*
X5Y2229D02*
X12Y2229D01*
X3448Y2229D02*
X3455Y2229D01*
X5Y2228D02*
X12Y2228D01*
X3448Y2228D02*
X3455Y2228D01*
X5Y2227D02*
X12Y2227D01*
X3448Y2227D02*
X3455Y2227D01*
X5Y2226D02*
X12Y2226D01*
X3448Y2226D02*
X3455Y2226D01*
X5Y2225D02*
X12Y2225D01*
X3448Y2225D02*
X3455Y2225D01*
X4Y2224D02*
X11Y2224D01*
X3449Y2224D02*
X3456Y2224D01*
X4Y2223D02*
X11Y2223D01*
X3449Y2223D02*
X3456Y2223D01*
X4Y2222D02*
X11Y2222D01*
X3449Y2222D02*
X3456Y2222D01*
X4Y2221D02*
X11Y2221D01*
X3449Y2221D02*
X3456Y2221D01*
X4Y2220D02*
X11Y2220D01*
X3449Y2220D02*
X3456Y2220D01*
X4Y2219D02*
X11Y2219D01*
X3449Y2219D02*
X3456Y2219D01*
X4Y2218D02*
X11Y2218D01*
X3449Y2218D02*
X3456Y2218D01*
X4Y2217D02*
X11Y2217D01*
X3449Y2217D02*
X3456Y2217D01*
X3Y2216D02*
X10Y2216D01*
X3450Y2216D02*
X3457Y2216D01*
X3Y2215D02*
X10Y2215D01*
X3450Y2215D02*
X3457Y2215D01*
X3Y2214D02*
X10Y2214D01*
X3450Y2214D02*
X3457Y2214D01*
X3Y2213D02*
X10Y2213D01*
X3450Y2213D02*
X3457Y2213D01*
X3Y2212D02*
X10Y2212D01*
X3450Y2212D02*
X3457Y2212D01*
X3Y2211D02*
X10Y2211D01*
X3450Y2211D02*
X3457Y2211D01*
X3Y2210D02*
X10Y2210D01*
X3450Y2210D02*
X3457Y2210D01*
X3Y2209D02*
X10Y2209D01*
X3450Y2209D02*
X3457Y2209D01*
X3Y2208D02*
X10Y2208D01*
X3450Y2208D02*
X3457Y2208D01*
X3Y2207D02*
X10Y2207D01*
X3450Y2207D02*
X3457Y2207D01*
X2Y2206D02*
X9Y2206D01*
X3451Y2206D02*
X3458Y2206D01*
X2Y2205D02*
X9Y2205D01*
X3451Y2205D02*
X3458Y2205D01*
X2Y2204D02*
X9Y2204D01*
X3451Y2204D02*
X3458Y2204D01*
X2Y2203D02*
X9Y2203D01*
X3451Y2203D02*
X3458Y2203D01*
X2Y2202D02*
X9Y2202D01*
X3451Y2202D02*
X3458Y2202D01*
X2Y2201D02*
X9Y2201D01*
X3451Y2201D02*
X3458Y2201D01*
X2Y2200D02*
X9Y2200D01*
X3451Y2200D02*
X3458Y2200D01*
X2Y2199D02*
X9Y2199D01*
X3451Y2199D02*
X3458Y2199D01*
X2Y2198D02*
X9Y2198D01*
X3451Y2198D02*
X3458Y2198D01*
X2Y2197D02*
X9Y2197D01*
X3451Y2197D02*
X3458Y2197D01*
X2Y2196D02*
X9Y2196D01*
X3451Y2196D02*
X3458Y2196D01*
X2Y2195D02*
X9Y2195D01*
X3451Y2195D02*
X3458Y2195D01*
X2Y2194D02*
X9Y2194D01*
X3451Y2194D02*
X3458Y2194D01*
X2Y2193D02*
X9Y2193D01*
X3451Y2193D02*
X3458Y2193D01*
X1Y2192D02*
X8Y2192D01*
X3452Y2192D02*
X3459Y2192D01*
X1Y2191D02*
X8Y2191D01*
X3452Y2191D02*
X3459Y2191D01*
X1Y2190D02*
X8Y2190D01*
X3452Y2190D02*
X3459Y2190D01*
X1Y2189D02*
X8Y2189D01*
X3452Y2189D02*
X3459Y2189D01*
X1Y2188D02*
X8Y2188D01*
X3452Y2188D02*
X3459Y2188D01*
X1Y2187D02*
X8Y2187D01*
X3452Y2187D02*
X3459Y2187D01*
X1Y2186D02*
X8Y2186D01*
X3452Y2186D02*
X3459Y2186D01*
X1Y2185D02*
X8Y2185D01*
X3452Y2185D02*
X3459Y2185D01*
X1Y2184D02*
X8Y2184D01*
X3452Y2184D02*
X3459Y2184D01*
X1Y2183D02*
X8Y2183D01*
X3452Y2183D02*
X3459Y2183D01*
X1Y2182D02*
X8Y2182D01*
X3452Y2182D02*
X3459Y2182D01*
X1Y2181D02*
X8Y2181D01*
X3452Y2181D02*
X3459Y2181D01*
X1Y2180D02*
X8Y2180D01*
X3452Y2180D02*
X3459Y2180D01*
X1Y2179D02*
X8Y2179D01*
X3452Y2179D02*
X3459Y2179D01*
X1Y2178D02*
X8Y2178D01*
X3452Y2178D02*
X3459Y2178D01*
X1Y2177D02*
X8Y2177D01*
X3452Y2177D02*
X3459Y2177D01*
X1Y2176D02*
X8Y2176D01*
X3452Y2176D02*
X3459Y2176D01*
X1Y2175D02*
X8Y2175D01*
X3452Y2175D02*
X3459Y2175D01*
X1Y2174D02*
X8Y2174D01*
X3452Y2174D02*
X3459Y2174D01*
X1Y2173D02*
X8Y2173D01*
X3452Y2173D02*
X3459Y2173D01*
X1Y2172D02*
X8Y2172D01*
X3452Y2172D02*
X3459Y2172D01*
X1Y2171D02*
X8Y2171D01*
X3452Y2171D02*
X3459Y2171D01*
X1Y2170D02*
X8Y2170D01*
X3452Y2170D02*
X3459Y2170D01*
X1Y2169D02*
X8Y2169D01*
X3452Y2169D02*
X3459Y2169D01*
X1Y2168D02*
X8Y2168D01*
X3452Y2168D02*
X3459Y2168D01*
X1Y2167D02*
X8Y2167D01*
X3452Y2167D02*
X3459Y2167D01*
X1Y2166D02*
X8Y2166D01*
X3452Y2166D02*
X3459Y2166D01*
X1Y2165D02*
X8Y2165D01*
X3452Y2165D02*
X3459Y2165D01*
X1Y2164D02*
X8Y2164D01*
X3452Y2164D02*
X3459Y2164D01*
X1Y2163D02*
X8Y2163D01*
X3452Y2163D02*
X3459Y2163D01*
X1Y2162D02*
X8Y2162D01*
X3452Y2162D02*
X3459Y2162D01*
X1Y2161D02*
X8Y2161D01*
X3452Y2161D02*
X3459Y2161D01*
X1Y2160D02*
X8Y2160D01*
X3452Y2160D02*
X3459Y2160D01*
X1Y2159D02*
X8Y2159D01*
X3452Y2159D02*
X3459Y2159D01*
X1Y2158D02*
X8Y2158D01*
X3452Y2158D02*
X3459Y2158D01*
X1Y2157D02*
X8Y2157D01*
X3452Y2157D02*
X3459Y2157D01*
X1Y2156D02*
X8Y2156D01*
X3452Y2156D02*
X3459Y2156D01*
X1Y2155D02*
X8Y2155D01*
X3452Y2155D02*
X3459Y2155D01*
X1Y2154D02*
X8Y2154D01*
X3452Y2154D02*
X3459Y2154D01*
X1Y2153D02*
X8Y2153D01*
X3452Y2153D02*
X3459Y2153D01*
X1Y2152D02*
X8Y2152D01*
X3452Y2152D02*
X3459Y2152D01*
X1Y2151D02*
X8Y2151D01*
X3452Y2151D02*
X3459Y2151D01*
X1Y2150D02*
X8Y2150D01*
X3452Y2150D02*
X3459Y2150D01*
X1Y2149D02*
X8Y2149D01*
X3452Y2149D02*
X3459Y2149D01*
X1Y2148D02*
X8Y2148D01*
X3452Y2148D02*
X3459Y2148D01*
X1Y2147D02*
X8Y2147D01*
X3452Y2147D02*
X3459Y2147D01*
X1Y2146D02*
X8Y2146D01*
X3452Y2146D02*
X3459Y2146D01*
X1Y2145D02*
X8Y2145D01*
X3452Y2145D02*
X3459Y2145D01*
X1Y2144D02*
X8Y2144D01*
X3452Y2144D02*
X3459Y2144D01*
X1Y2143D02*
X8Y2143D01*
X3452Y2143D02*
X3459Y2143D01*
X1Y2142D02*
X8Y2142D01*
X3452Y2142D02*
X3459Y2142D01*
X1Y2141D02*
X8Y2141D01*
X3452Y2141D02*
X3459Y2141D01*
X1Y2140D02*
X8Y2140D01*
X3452Y2140D02*
X3459Y2140D01*
X1Y2139D02*
X8Y2139D01*
X3452Y2139D02*
X3459Y2139D01*
X1Y2138D02*
X8Y2138D01*
X3452Y2138D02*
X3459Y2138D01*
X1Y2137D02*
X8Y2137D01*
X3452Y2137D02*
X3459Y2137D01*
X1Y2136D02*
X8Y2136D01*
X3452Y2136D02*
X3459Y2136D01*
X1Y2135D02*
X8Y2135D01*
X3452Y2135D02*
X3459Y2135D01*
X1Y2134D02*
X8Y2134D01*
X3452Y2134D02*
X3459Y2134D01*
X1Y2133D02*
X8Y2133D01*
X3452Y2133D02*
X3459Y2133D01*
X1Y2132D02*
X8Y2132D01*
X3452Y2132D02*
X3459Y2132D01*
X1Y2131D02*
X8Y2131D01*
X3452Y2131D02*
X3459Y2131D01*
X1Y2130D02*
X8Y2130D01*
X3452Y2130D02*
X3459Y2130D01*
X1Y2129D02*
X8Y2129D01*
X3452Y2129D02*
X3459Y2129D01*
X1Y2128D02*
X8Y2128D01*
X3452Y2128D02*
X3459Y2128D01*
X1Y2127D02*
X8Y2127D01*
X3452Y2127D02*
X3459Y2127D01*
X1Y2126D02*
X8Y2126D01*
X3452Y2126D02*
X3459Y2126D01*
X1Y2125D02*
X8Y2125D01*
X3452Y2125D02*
X3459Y2125D01*
X1Y2124D02*
X8Y2124D01*
X3452Y2124D02*
X3459Y2124D01*
X1Y2123D02*
X8Y2123D01*
X3452Y2123D02*
X3459Y2123D01*
X1Y2122D02*
X8Y2122D01*
X3452Y2122D02*
X3459Y2122D01*
X1Y2121D02*
X8Y2121D01*
X3452Y2121D02*
X3459Y2121D01*
X1Y2120D02*
X8Y2120D01*
X3452Y2120D02*
X3459Y2120D01*
X1Y2119D02*
X8Y2119D01*
X3452Y2119D02*
X3459Y2119D01*
X1Y2118D02*
X8Y2118D01*
X3452Y2118D02*
X3459Y2118D01*
X1Y2117D02*
X8Y2117D01*
X3452Y2117D02*
X3459Y2117D01*
X1Y2116D02*
X8Y2116D01*
X3452Y2116D02*
X3459Y2116D01*
X1Y2115D02*
X8Y2115D01*
X3452Y2115D02*
X3459Y2115D01*
X1Y2114D02*
X8Y2114D01*
X3452Y2114D02*
X3459Y2114D01*
X1Y2113D02*
X8Y2113D01*
X3452Y2113D02*
X3459Y2113D01*
X1Y2112D02*
X8Y2112D01*
X3452Y2112D02*
X3459Y2112D01*
X1Y2111D02*
X8Y2111D01*
X3452Y2111D02*
X3459Y2111D01*
X1Y2110D02*
X8Y2110D01*
X3452Y2110D02*
X3459Y2110D01*
X1Y2109D02*
X8Y2109D01*
X3452Y2109D02*
X3459Y2109D01*
X1Y2108D02*
X8Y2108D01*
X3452Y2108D02*
X3459Y2108D01*
X1Y2107D02*
X8Y2107D01*
X3452Y2107D02*
X3459Y2107D01*
X1Y2106D02*
X8Y2106D01*
X3452Y2106D02*
X3459Y2106D01*
X1Y2105D02*
X8Y2105D01*
X3452Y2105D02*
X3459Y2105D01*
X1Y2104D02*
X8Y2104D01*
X3452Y2104D02*
X3459Y2104D01*
X1Y2103D02*
X8Y2103D01*
X3452Y2103D02*
X3459Y2103D01*
X1Y2102D02*
X8Y2102D01*
X3452Y2102D02*
X3459Y2102D01*
X1Y2101D02*
X8Y2101D01*
X3452Y2101D02*
X3459Y2101D01*
X1Y2100D02*
X8Y2100D01*
X3452Y2100D02*
X3459Y2100D01*
X1Y2099D02*
X8Y2099D01*
X3452Y2099D02*
X3459Y2099D01*
X1Y2098D02*
X8Y2098D01*
X3452Y2098D02*
X3459Y2098D01*
X1Y2097D02*
X8Y2097D01*
X3452Y2097D02*
X3459Y2097D01*
X1Y2096D02*
X8Y2096D01*
X3452Y2096D02*
X3459Y2096D01*
X1Y2095D02*
X8Y2095D01*
X3452Y2095D02*
X3459Y2095D01*
X1Y2094D02*
X8Y2094D01*
X3452Y2094D02*
X3459Y2094D01*
X1Y2093D02*
X8Y2093D01*
X3452Y2093D02*
X3459Y2093D01*
X1Y2092D02*
X8Y2092D01*
X3452Y2092D02*
X3459Y2092D01*
X1Y2091D02*
X8Y2091D01*
X3452Y2091D02*
X3459Y2091D01*
X1Y2090D02*
X8Y2090D01*
X3452Y2090D02*
X3459Y2090D01*
X1Y2089D02*
X8Y2089D01*
X3452Y2089D02*
X3459Y2089D01*
X1Y2088D02*
X8Y2088D01*
X3452Y2088D02*
X3459Y2088D01*
X1Y2087D02*
X8Y2087D01*
X3452Y2087D02*
X3459Y2087D01*
X1Y2086D02*
X8Y2086D01*
X3452Y2086D02*
X3459Y2086D01*
X1Y2085D02*
X8Y2085D01*
X3452Y2085D02*
X3459Y2085D01*
X1Y2084D02*
X8Y2084D01*
X3452Y2084D02*
X3459Y2084D01*
X1Y2083D02*
X8Y2083D01*
X3452Y2083D02*
X3459Y2083D01*
X1Y2082D02*
X8Y2082D01*
X3452Y2082D02*
X3459Y2082D01*
X1Y2081D02*
X8Y2081D01*
X3452Y2081D02*
X3459Y2081D01*
X1Y2080D02*
X8Y2080D01*
X3452Y2080D02*
X3459Y2080D01*
X1Y2079D02*
X8Y2079D01*
X3452Y2079D02*
X3459Y2079D01*
X1Y2078D02*
X8Y2078D01*
X3452Y2078D02*
X3459Y2078D01*
X1Y2077D02*
X8Y2077D01*
X3452Y2077D02*
X3459Y2077D01*
X1Y2076D02*
X8Y2076D01*
X3452Y2076D02*
X3459Y2076D01*
X1Y2075D02*
X8Y2075D01*
X3452Y2075D02*
X3459Y2075D01*
X1Y2074D02*
X8Y2074D01*
X3452Y2074D02*
X3459Y2074D01*
X1Y2073D02*
X8Y2073D01*
X3452Y2073D02*
X3459Y2073D01*
X1Y2072D02*
X8Y2072D01*
X3452Y2072D02*
X3459Y2072D01*
X1Y2071D02*
X8Y2071D01*
X3452Y2071D02*
X3459Y2071D01*
X1Y2070D02*
X8Y2070D01*
X3452Y2070D02*
X3459Y2070D01*
X1Y2069D02*
X8Y2069D01*
X3452Y2069D02*
X3459Y2069D01*
X1Y2068D02*
X8Y2068D01*
X3452Y2068D02*
X3459Y2068D01*
X1Y2067D02*
X8Y2067D01*
X3452Y2067D02*
X3459Y2067D01*
X1Y2066D02*
X8Y2066D01*
X3452Y2066D02*
X3459Y2066D01*
X1Y2065D02*
X8Y2065D01*
X3452Y2065D02*
X3459Y2065D01*
X1Y2064D02*
X8Y2064D01*
X3452Y2064D02*
X3459Y2064D01*
X1Y2063D02*
X8Y2063D01*
X3452Y2063D02*
X3459Y2063D01*
X1Y2062D02*
X8Y2062D01*
X3452Y2062D02*
X3459Y2062D01*
X1Y2061D02*
X8Y2061D01*
X3452Y2061D02*
X3459Y2061D01*
X1Y2060D02*
X8Y2060D01*
X3452Y2060D02*
X3459Y2060D01*
X1Y2059D02*
X8Y2059D01*
X3452Y2059D02*
X3459Y2059D01*
X1Y2058D02*
X8Y2058D01*
X3452Y2058D02*
X3459Y2058D01*
X1Y2057D02*
X8Y2057D01*
X3452Y2057D02*
X3459Y2057D01*
X1Y2056D02*
X8Y2056D01*
X3452Y2056D02*
X3459Y2056D01*
X1Y2055D02*
X8Y2055D01*
X3452Y2055D02*
X3459Y2055D01*
X1Y2054D02*
X8Y2054D01*
X3452Y2054D02*
X3459Y2054D01*
X1Y2053D02*
X8Y2053D01*
X3452Y2053D02*
X3459Y2053D01*
X1Y2052D02*
X8Y2052D01*
X3452Y2052D02*
X3459Y2052D01*
X1Y2051D02*
X8Y2051D01*
X3452Y2051D02*
X3459Y2051D01*
X1Y2050D02*
X8Y2050D01*
X3452Y2050D02*
X3459Y2050D01*
X1Y2049D02*
X8Y2049D01*
X3452Y2049D02*
X3459Y2049D01*
X1Y2048D02*
X8Y2048D01*
X3452Y2048D02*
X3459Y2048D01*
X1Y2047D02*
X8Y2047D01*
X3452Y2047D02*
X3459Y2047D01*
X1Y2046D02*
X8Y2046D01*
X3452Y2046D02*
X3459Y2046D01*
X1Y2045D02*
X8Y2045D01*
X3452Y2045D02*
X3459Y2045D01*
X1Y2044D02*
X8Y2044D01*
X3452Y2044D02*
X3459Y2044D01*
X1Y2043D02*
X8Y2043D01*
X3452Y2043D02*
X3459Y2043D01*
X1Y2042D02*
X8Y2042D01*
X3452Y2042D02*
X3459Y2042D01*
X1Y2041D02*
X8Y2041D01*
X3452Y2041D02*
X3459Y2041D01*
X1Y2040D02*
X8Y2040D01*
X3452Y2040D02*
X3459Y2040D01*
X1Y2039D02*
X8Y2039D01*
X3452Y2039D02*
X3459Y2039D01*
X1Y2038D02*
X8Y2038D01*
X3452Y2038D02*
X3459Y2038D01*
X1Y2037D02*
X8Y2037D01*
X3452Y2037D02*
X3459Y2037D01*
X1Y2036D02*
X8Y2036D01*
X3452Y2036D02*
X3459Y2036D01*
X1Y2035D02*
X8Y2035D01*
X3452Y2035D02*
X3459Y2035D01*
X1Y2034D02*
X8Y2034D01*
X3452Y2034D02*
X3459Y2034D01*
X1Y2033D02*
X8Y2033D01*
X3452Y2033D02*
X3459Y2033D01*
X1Y2032D02*
X8Y2032D01*
X3452Y2032D02*
X3459Y2032D01*
X1Y2031D02*
X8Y2031D01*
X3452Y2031D02*
X3459Y2031D01*
X1Y2030D02*
X8Y2030D01*
X3452Y2030D02*
X3459Y2030D01*
X1Y2029D02*
X8Y2029D01*
X3452Y2029D02*
X3459Y2029D01*
X1Y2028D02*
X8Y2028D01*
X3452Y2028D02*
X3459Y2028D01*
X1Y2027D02*
X8Y2027D01*
X3452Y2027D02*
X3459Y2027D01*
X1Y2026D02*
X8Y2026D01*
X3452Y2026D02*
X3459Y2026D01*
X1Y2025D02*
X8Y2025D01*
X3452Y2025D02*
X3459Y2025D01*
X1Y2024D02*
X8Y2024D01*
X3452Y2024D02*
X3459Y2024D01*
X1Y2023D02*
X8Y2023D01*
X3452Y2023D02*
X3459Y2023D01*
X1Y2022D02*
X8Y2022D01*
X3452Y2022D02*
X3459Y2022D01*
X1Y2021D02*
X8Y2021D01*
X3452Y2021D02*
X3459Y2021D01*
X1Y2020D02*
X8Y2020D01*
X3452Y2020D02*
X3459Y2020D01*
X1Y2019D02*
X8Y2019D01*
X3452Y2019D02*
X3459Y2019D01*
X1Y2018D02*
X8Y2018D01*
X3452Y2018D02*
X3459Y2018D01*
X1Y2017D02*
X8Y2017D01*
X3452Y2017D02*
X3459Y2017D01*
X1Y2016D02*
X8Y2016D01*
X3452Y2016D02*
X3459Y2016D01*
X1Y2015D02*
X8Y2015D01*
X3452Y2015D02*
X3459Y2015D01*
X1Y2014D02*
X8Y2014D01*
X3452Y2014D02*
X3459Y2014D01*
X1Y2013D02*
X8Y2013D01*
X3452Y2013D02*
X3459Y2013D01*
X1Y2012D02*
X8Y2012D01*
X3452Y2012D02*
X3459Y2012D01*
X1Y2011D02*
X8Y2011D01*
X3452Y2011D02*
X3459Y2011D01*
X1Y2010D02*
X8Y2010D01*
X3452Y2010D02*
X3459Y2010D01*
X1Y2009D02*
X8Y2009D01*
X3452Y2009D02*
X3459Y2009D01*
X1Y2008D02*
X8Y2008D01*
X3452Y2008D02*
X3459Y2008D01*
X1Y2007D02*
X8Y2007D01*
X3452Y2007D02*
X3459Y2007D01*
X1Y2006D02*
X8Y2006D01*
X3452Y2006D02*
X3459Y2006D01*
X1Y2005D02*
X8Y2005D01*
X3452Y2005D02*
X3459Y2005D01*
X1Y2004D02*
X8Y2004D01*
X3452Y2004D02*
X3459Y2004D01*
X1Y2003D02*
X8Y2003D01*
X3452Y2003D02*
X3459Y2003D01*
X1Y2002D02*
X8Y2002D01*
X3452Y2002D02*
X3459Y2002D01*
X1Y2001D02*
X8Y2001D01*
X3452Y2001D02*
X3459Y2001D01*
X1Y2000D02*
X8Y2000D01*
X3452Y2000D02*
X3459Y2000D01*
X1Y1999D02*
X8Y1999D01*
X3452Y1999D02*
X3459Y1999D01*
X1Y1998D02*
X8Y1998D01*
X3452Y1998D02*
X3459Y1998D01*
X1Y1997D02*
X8Y1997D01*
X3452Y1997D02*
X3459Y1997D01*
X1Y1996D02*
X8Y1996D01*
X3452Y1996D02*
X3459Y1996D01*
X1Y1995D02*
X8Y1995D01*
X3452Y1995D02*
X3459Y1995D01*
X1Y1994D02*
X8Y1994D01*
X3452Y1994D02*
X3459Y1994D01*
X1Y1993D02*
X8Y1993D01*
X3452Y1993D02*
X3459Y1993D01*
X1Y1992D02*
X8Y1992D01*
X3452Y1992D02*
X3459Y1992D01*
X1Y1991D02*
X8Y1991D01*
X3452Y1991D02*
X3459Y1991D01*
X1Y1990D02*
X8Y1990D01*
X3452Y1990D02*
X3459Y1990D01*
X1Y1989D02*
X8Y1989D01*
X3452Y1989D02*
X3459Y1989D01*
X1Y1988D02*
X8Y1988D01*
X3452Y1988D02*
X3459Y1988D01*
X1Y1987D02*
X8Y1987D01*
X3452Y1987D02*
X3459Y1987D01*
X1Y1986D02*
X8Y1986D01*
X3452Y1986D02*
X3459Y1986D01*
X1Y1985D02*
X8Y1985D01*
X3452Y1985D02*
X3459Y1985D01*
X1Y1984D02*
X8Y1984D01*
X3452Y1984D02*
X3459Y1984D01*
X1Y1983D02*
X8Y1983D01*
X3452Y1983D02*
X3459Y1983D01*
X1Y1982D02*
X8Y1982D01*
X3452Y1982D02*
X3459Y1982D01*
X1Y1981D02*
X8Y1981D01*
X3452Y1981D02*
X3459Y1981D01*
X1Y1980D02*
X8Y1980D01*
X3452Y1980D02*
X3459Y1980D01*
X1Y1979D02*
X8Y1979D01*
X3452Y1979D02*
X3459Y1979D01*
X1Y1978D02*
X8Y1978D01*
X3452Y1978D02*
X3459Y1978D01*
X1Y1977D02*
X8Y1977D01*
X3452Y1977D02*
X3459Y1977D01*
X1Y1976D02*
X8Y1976D01*
X3452Y1976D02*
X3459Y1976D01*
X1Y1975D02*
X8Y1975D01*
X3452Y1975D02*
X3459Y1975D01*
X1Y1974D02*
X8Y1974D01*
X3452Y1974D02*
X3459Y1974D01*
X1Y1973D02*
X8Y1973D01*
X3452Y1973D02*
X3459Y1973D01*
X1Y1972D02*
X8Y1972D01*
X3452Y1972D02*
X3459Y1972D01*
X1Y1971D02*
X8Y1971D01*
X3452Y1971D02*
X3459Y1971D01*
X1Y1970D02*
X8Y1970D01*
X3452Y1970D02*
X3459Y1970D01*
X1Y1969D02*
X8Y1969D01*
X3452Y1969D02*
X3459Y1969D01*
X1Y1968D02*
X8Y1968D01*
X3452Y1968D02*
X3459Y1968D01*
X1Y1967D02*
X8Y1967D01*
X3452Y1967D02*
X3459Y1967D01*
X1Y1966D02*
X8Y1966D01*
X3452Y1966D02*
X3459Y1966D01*
X1Y1965D02*
X8Y1965D01*
X3452Y1965D02*
X3459Y1965D01*
X1Y1964D02*
X8Y1964D01*
X3452Y1964D02*
X3459Y1964D01*
X1Y1963D02*
X8Y1963D01*
X3452Y1963D02*
X3459Y1963D01*
X1Y1962D02*
X8Y1962D01*
X3452Y1962D02*
X3459Y1962D01*
X1Y1961D02*
X8Y1961D01*
X3452Y1961D02*
X3459Y1961D01*
X1Y1960D02*
X8Y1960D01*
X3452Y1960D02*
X3459Y1960D01*
X1Y1959D02*
X8Y1959D01*
X3452Y1959D02*
X3459Y1959D01*
X1Y1958D02*
X8Y1958D01*
X3452Y1958D02*
X3459Y1958D01*
X1Y1957D02*
X8Y1957D01*
X3452Y1957D02*
X3459Y1957D01*
X1Y1956D02*
X8Y1956D01*
X3452Y1956D02*
X3459Y1956D01*
X1Y1955D02*
X8Y1955D01*
X3452Y1955D02*
X3459Y1955D01*
X1Y1954D02*
X8Y1954D01*
X3452Y1954D02*
X3459Y1954D01*
X1Y1953D02*
X8Y1953D01*
X3452Y1953D02*
X3459Y1953D01*
X1Y1952D02*
X8Y1952D01*
X3452Y1952D02*
X3459Y1952D01*
X1Y1951D02*
X8Y1951D01*
X3452Y1951D02*
X3459Y1951D01*
X1Y1950D02*
X8Y1950D01*
X3452Y1950D02*
X3459Y1950D01*
X1Y1949D02*
X8Y1949D01*
X3452Y1949D02*
X3459Y1949D01*
X1Y1948D02*
X8Y1948D01*
X3452Y1948D02*
X3459Y1948D01*
X1Y1947D02*
X8Y1947D01*
X3452Y1947D02*
X3459Y1947D01*
X1Y1946D02*
X8Y1946D01*
X3452Y1946D02*
X3459Y1946D01*
X1Y1945D02*
X8Y1945D01*
X3452Y1945D02*
X3459Y1945D01*
X1Y1944D02*
X8Y1944D01*
X3452Y1944D02*
X3459Y1944D01*
X1Y1943D02*
X8Y1943D01*
X3452Y1943D02*
X3459Y1943D01*
X1Y1942D02*
X8Y1942D01*
X3452Y1942D02*
X3459Y1942D01*
X1Y1941D02*
X8Y1941D01*
X3452Y1941D02*
X3459Y1941D01*
X1Y1940D02*
X8Y1940D01*
X3452Y1940D02*
X3459Y1940D01*
X1Y1939D02*
X8Y1939D01*
X3452Y1939D02*
X3459Y1939D01*
X1Y1938D02*
X8Y1938D01*
X3452Y1938D02*
X3459Y1938D01*
X1Y1937D02*
X8Y1937D01*
X3452Y1937D02*
X3459Y1937D01*
X1Y1936D02*
X8Y1936D01*
X3452Y1936D02*
X3459Y1936D01*
X1Y1935D02*
X8Y1935D01*
X3452Y1935D02*
X3459Y1935D01*
X1Y1934D02*
X8Y1934D01*
X3452Y1934D02*
X3459Y1934D01*
X1Y1933D02*
X8Y1933D01*
X3452Y1933D02*
X3459Y1933D01*
X1Y1932D02*
X8Y1932D01*
X3452Y1932D02*
X3459Y1932D01*
X1Y1931D02*
X8Y1931D01*
X3452Y1931D02*
X3459Y1931D01*
X1Y1930D02*
X8Y1930D01*
X3452Y1930D02*
X3459Y1930D01*
X1Y1929D02*
X8Y1929D01*
X3452Y1929D02*
X3459Y1929D01*
X1Y1928D02*
X8Y1928D01*
X3452Y1928D02*
X3459Y1928D01*
X1Y1927D02*
X8Y1927D01*
X3452Y1927D02*
X3459Y1927D01*
X1Y1926D02*
X8Y1926D01*
X3452Y1926D02*
X3459Y1926D01*
X1Y1925D02*
X8Y1925D01*
X3452Y1925D02*
X3459Y1925D01*
X1Y1924D02*
X8Y1924D01*
X3452Y1924D02*
X3459Y1924D01*
X1Y1923D02*
X8Y1923D01*
X3452Y1923D02*
X3459Y1923D01*
X1Y1922D02*
X8Y1922D01*
X3452Y1922D02*
X3459Y1922D01*
X1Y1921D02*
X8Y1921D01*
X3452Y1921D02*
X3459Y1921D01*
X1Y1920D02*
X8Y1920D01*
X3452Y1920D02*
X3459Y1920D01*
X1Y1919D02*
X8Y1919D01*
X3452Y1919D02*
X3459Y1919D01*
X1Y1918D02*
X8Y1918D01*
X3452Y1918D02*
X3459Y1918D01*
X1Y1917D02*
X8Y1917D01*
X3452Y1917D02*
X3459Y1917D01*
X1Y1916D02*
X8Y1916D01*
X3452Y1916D02*
X3459Y1916D01*
X1Y1915D02*
X8Y1915D01*
X3452Y1915D02*
X3459Y1915D01*
X1Y1914D02*
X8Y1914D01*
X3452Y1914D02*
X3459Y1914D01*
X1Y1913D02*
X8Y1913D01*
X3452Y1913D02*
X3459Y1913D01*
X1Y1912D02*
X8Y1912D01*
X3452Y1912D02*
X3459Y1912D01*
X1Y1911D02*
X8Y1911D01*
X3452Y1911D02*
X3459Y1911D01*
X1Y1910D02*
X8Y1910D01*
X3452Y1910D02*
X3459Y1910D01*
X1Y1909D02*
X8Y1909D01*
X3452Y1909D02*
X3459Y1909D01*
X1Y1908D02*
X8Y1908D01*
X3452Y1908D02*
X3459Y1908D01*
X1Y1907D02*
X8Y1907D01*
X3452Y1907D02*
X3459Y1907D01*
X1Y1906D02*
X8Y1906D01*
X3452Y1906D02*
X3459Y1906D01*
X1Y1905D02*
X8Y1905D01*
X3452Y1905D02*
X3459Y1905D01*
X1Y1904D02*
X8Y1904D01*
X3452Y1904D02*
X3459Y1904D01*
X1Y1903D02*
X8Y1903D01*
X3452Y1903D02*
X3459Y1903D01*
X1Y1902D02*
X8Y1902D01*
X3452Y1902D02*
X3459Y1902D01*
X1Y1901D02*
X8Y1901D01*
X3452Y1901D02*
X3459Y1901D01*
X1Y1900D02*
X8Y1900D01*
X3452Y1900D02*
X3459Y1900D01*
X1Y1899D02*
X8Y1899D01*
X3452Y1899D02*
X3459Y1899D01*
X1Y1898D02*
X8Y1898D01*
X3452Y1898D02*
X3459Y1898D01*
X1Y1897D02*
X8Y1897D01*
X3452Y1897D02*
X3459Y1897D01*
X1Y1896D02*
X8Y1896D01*
X3452Y1896D02*
X3459Y1896D01*
X1Y1895D02*
X8Y1895D01*
X3452Y1895D02*
X3459Y1895D01*
X1Y1894D02*
X8Y1894D01*
X3452Y1894D02*
X3459Y1894D01*
X1Y1893D02*
X8Y1893D01*
X3452Y1893D02*
X3459Y1893D01*
X1Y1892D02*
X8Y1892D01*
X3452Y1892D02*
X3459Y1892D01*
X1Y1891D02*
X8Y1891D01*
X3452Y1891D02*
X3459Y1891D01*
X1Y1890D02*
X8Y1890D01*
X3452Y1890D02*
X3459Y1890D01*
X1Y1889D02*
X8Y1889D01*
X3452Y1889D02*
X3459Y1889D01*
X1Y1888D02*
X8Y1888D01*
X3452Y1888D02*
X3459Y1888D01*
X1Y1887D02*
X8Y1887D01*
X3452Y1887D02*
X3459Y1887D01*
X1Y1886D02*
X8Y1886D01*
X3452Y1886D02*
X3459Y1886D01*
X1Y1885D02*
X8Y1885D01*
X3452Y1885D02*
X3459Y1885D01*
X1Y1884D02*
X8Y1884D01*
X3452Y1884D02*
X3459Y1884D01*
X1Y1883D02*
X8Y1883D01*
X3452Y1883D02*
X3459Y1883D01*
X1Y1882D02*
X8Y1882D01*
X3452Y1882D02*
X3459Y1882D01*
X1Y1881D02*
X8Y1881D01*
X3452Y1881D02*
X3459Y1881D01*
X1Y1880D02*
X8Y1880D01*
X3452Y1880D02*
X3459Y1880D01*
X1Y1879D02*
X8Y1879D01*
X3452Y1879D02*
X3459Y1879D01*
X1Y1878D02*
X8Y1878D01*
X3452Y1878D02*
X3459Y1878D01*
X1Y1877D02*
X8Y1877D01*
X3452Y1877D02*
X3459Y1877D01*
X1Y1876D02*
X8Y1876D01*
X3452Y1876D02*
X3459Y1876D01*
X1Y1875D02*
X8Y1875D01*
X3452Y1875D02*
X3459Y1875D01*
X1Y1874D02*
X8Y1874D01*
X3452Y1874D02*
X3459Y1874D01*
X1Y1873D02*
X8Y1873D01*
X3452Y1873D02*
X3459Y1873D01*
X1Y1872D02*
X8Y1872D01*
X3452Y1872D02*
X3459Y1872D01*
X1Y1871D02*
X8Y1871D01*
X3452Y1871D02*
X3459Y1871D01*
X1Y1870D02*
X8Y1870D01*
X3452Y1870D02*
X3459Y1870D01*
X1Y1869D02*
X8Y1869D01*
X3452Y1869D02*
X3459Y1869D01*
X1Y1868D02*
X8Y1868D01*
X3452Y1868D02*
X3459Y1868D01*
X1Y1867D02*
X8Y1867D01*
X3452Y1867D02*
X3459Y1867D01*
X1Y1866D02*
X8Y1866D01*
X3452Y1866D02*
X3459Y1866D01*
X1Y1865D02*
X8Y1865D01*
X3452Y1865D02*
X3459Y1865D01*
X1Y1864D02*
X8Y1864D01*
X3452Y1864D02*
X3459Y1864D01*
X1Y1863D02*
X8Y1863D01*
X3452Y1863D02*
X3459Y1863D01*
X1Y1862D02*
X8Y1862D01*
X3452Y1862D02*
X3459Y1862D01*
X1Y1861D02*
X8Y1861D01*
X3452Y1861D02*
X3459Y1861D01*
X1Y1860D02*
X8Y1860D01*
X3452Y1860D02*
X3459Y1860D01*
X1Y1859D02*
X8Y1859D01*
X3452Y1859D02*
X3459Y1859D01*
X1Y1858D02*
X8Y1858D01*
X3452Y1858D02*
X3459Y1858D01*
X1Y1857D02*
X8Y1857D01*
X3452Y1857D02*
X3459Y1857D01*
X1Y1856D02*
X8Y1856D01*
X3452Y1856D02*
X3459Y1856D01*
X1Y1855D02*
X8Y1855D01*
X3452Y1855D02*
X3459Y1855D01*
X1Y1854D02*
X8Y1854D01*
X3452Y1854D02*
X3459Y1854D01*
X1Y1853D02*
X8Y1853D01*
X3452Y1853D02*
X3459Y1853D01*
X1Y1852D02*
X8Y1852D01*
X3452Y1852D02*
X3459Y1852D01*
X1Y1851D02*
X8Y1851D01*
X3452Y1851D02*
X3459Y1851D01*
X1Y1850D02*
X8Y1850D01*
X3452Y1850D02*
X3459Y1850D01*
X1Y1849D02*
X8Y1849D01*
X3452Y1849D02*
X3459Y1849D01*
X1Y1848D02*
X8Y1848D01*
X3452Y1848D02*
X3459Y1848D01*
X1Y1847D02*
X8Y1847D01*
X3452Y1847D02*
X3459Y1847D01*
X1Y1846D02*
X8Y1846D01*
X3452Y1846D02*
X3459Y1846D01*
X1Y1845D02*
X8Y1845D01*
X3452Y1845D02*
X3459Y1845D01*
X1Y1844D02*
X8Y1844D01*
X3452Y1844D02*
X3459Y1844D01*
X1Y1843D02*
X8Y1843D01*
X3452Y1843D02*
X3459Y1843D01*
X1Y1842D02*
X8Y1842D01*
X3452Y1842D02*
X3459Y1842D01*
X1Y1841D02*
X8Y1841D01*
X3452Y1841D02*
X3459Y1841D01*
X1Y1840D02*
X8Y1840D01*
X3452Y1840D02*
X3459Y1840D01*
X1Y1839D02*
X8Y1839D01*
X3452Y1839D02*
X3459Y1839D01*
X1Y1838D02*
X8Y1838D01*
X3452Y1838D02*
X3459Y1838D01*
X1Y1837D02*
X8Y1837D01*
X3452Y1837D02*
X3459Y1837D01*
X1Y1836D02*
X8Y1836D01*
X3452Y1836D02*
X3459Y1836D01*
X1Y1835D02*
X8Y1835D01*
X3452Y1835D02*
X3459Y1835D01*
X1Y1834D02*
X8Y1834D01*
X3452Y1834D02*
X3459Y1834D01*
X1Y1833D02*
X8Y1833D01*
X3452Y1833D02*
X3459Y1833D01*
X1Y1832D02*
X8Y1832D01*
X3452Y1832D02*
X3459Y1832D01*
X1Y1831D02*
X8Y1831D01*
X3452Y1831D02*
X3459Y1831D01*
X1Y1830D02*
X8Y1830D01*
X3452Y1830D02*
X3459Y1830D01*
X1Y1829D02*
X8Y1829D01*
X3452Y1829D02*
X3459Y1829D01*
X1Y1828D02*
X8Y1828D01*
X3452Y1828D02*
X3459Y1828D01*
X1Y1827D02*
X8Y1827D01*
X3452Y1827D02*
X3459Y1827D01*
X1Y1826D02*
X8Y1826D01*
X3452Y1826D02*
X3459Y1826D01*
X1Y1825D02*
X8Y1825D01*
X3452Y1825D02*
X3459Y1825D01*
X1Y1824D02*
X8Y1824D01*
X3452Y1824D02*
X3459Y1824D01*
X1Y1823D02*
X8Y1823D01*
X3452Y1823D02*
X3459Y1823D01*
X1Y1822D02*
X8Y1822D01*
X3452Y1822D02*
X3459Y1822D01*
X1Y1821D02*
X8Y1821D01*
X3452Y1821D02*
X3459Y1821D01*
X1Y1820D02*
X8Y1820D01*
X3452Y1820D02*
X3459Y1820D01*
X1Y1819D02*
X8Y1819D01*
X3452Y1819D02*
X3459Y1819D01*
X1Y1818D02*
X8Y1818D01*
X3452Y1818D02*
X3459Y1818D01*
X1Y1817D02*
X8Y1817D01*
X3452Y1817D02*
X3459Y1817D01*
X1Y1816D02*
X8Y1816D01*
X3452Y1816D02*
X3459Y1816D01*
X1Y1815D02*
X8Y1815D01*
X3452Y1815D02*
X3459Y1815D01*
X1Y1814D02*
X8Y1814D01*
X3452Y1814D02*
X3459Y1814D01*
X1Y1813D02*
X8Y1813D01*
X3452Y1813D02*
X3459Y1813D01*
X1Y1812D02*
X8Y1812D01*
X3452Y1812D02*
X3459Y1812D01*
X1Y1811D02*
X8Y1811D01*
X3452Y1811D02*
X3459Y1811D01*
X1Y1810D02*
X8Y1810D01*
X3452Y1810D02*
X3459Y1810D01*
X1Y1809D02*
X8Y1809D01*
X3452Y1809D02*
X3459Y1809D01*
X1Y1808D02*
X8Y1808D01*
X3452Y1808D02*
X3459Y1808D01*
X1Y1807D02*
X8Y1807D01*
X3452Y1807D02*
X3459Y1807D01*
X1Y1806D02*
X8Y1806D01*
X3452Y1806D02*
X3459Y1806D01*
X1Y1805D02*
X8Y1805D01*
X3452Y1805D02*
X3459Y1805D01*
X1Y1804D02*
X8Y1804D01*
X3452Y1804D02*
X3459Y1804D01*
X1Y1803D02*
X8Y1803D01*
X3452Y1803D02*
X3459Y1803D01*
X1Y1802D02*
X8Y1802D01*
X3452Y1802D02*
X3459Y1802D01*
X1Y1801D02*
X8Y1801D01*
X3452Y1801D02*
X3459Y1801D01*
X1Y1800D02*
X8Y1800D01*
X3452Y1800D02*
X3459Y1800D01*
X1Y1799D02*
X8Y1799D01*
X3452Y1799D02*
X3459Y1799D01*
X1Y1798D02*
X8Y1798D01*
X3452Y1798D02*
X3459Y1798D01*
X1Y1797D02*
X8Y1797D01*
X3452Y1797D02*
X3459Y1797D01*
X1Y1796D02*
X8Y1796D01*
X3452Y1796D02*
X3459Y1796D01*
X1Y1795D02*
X8Y1795D01*
X3452Y1795D02*
X3459Y1795D01*
X1Y1794D02*
X8Y1794D01*
X3452Y1794D02*
X3459Y1794D01*
X1Y1793D02*
X8Y1793D01*
X3452Y1793D02*
X3459Y1793D01*
X1Y1792D02*
X8Y1792D01*
X3452Y1792D02*
X3459Y1792D01*
X1Y1791D02*
X8Y1791D01*
X3452Y1791D02*
X3459Y1791D01*
X1Y1790D02*
X8Y1790D01*
X3452Y1790D02*
X3459Y1790D01*
X1Y1789D02*
X8Y1789D01*
X3452Y1789D02*
X3459Y1789D01*
X1Y1788D02*
X8Y1788D01*
X3452Y1788D02*
X3459Y1788D01*
X1Y1787D02*
X8Y1787D01*
X3452Y1787D02*
X3459Y1787D01*
X1Y1786D02*
X8Y1786D01*
X3452Y1786D02*
X3459Y1786D01*
X1Y1785D02*
X8Y1785D01*
X3452Y1785D02*
X3459Y1785D01*
X1Y1784D02*
X8Y1784D01*
X3452Y1784D02*
X3459Y1784D01*
X1Y1783D02*
X8Y1783D01*
X3452Y1783D02*
X3459Y1783D01*
X1Y1782D02*
X8Y1782D01*
X3452Y1782D02*
X3459Y1782D01*
X1Y1781D02*
X8Y1781D01*
X3452Y1781D02*
X3459Y1781D01*
X1Y1780D02*
X8Y1780D01*
X3452Y1780D02*
X3459Y1780D01*
X1Y1779D02*
X8Y1779D01*
X3452Y1779D02*
X3459Y1779D01*
X1Y1778D02*
X8Y1778D01*
X3452Y1778D02*
X3459Y1778D01*
X1Y1777D02*
X8Y1777D01*
X3452Y1777D02*
X3459Y1777D01*
X1Y1776D02*
X8Y1776D01*
X3452Y1776D02*
X3459Y1776D01*
X1Y1775D02*
X8Y1775D01*
X3452Y1775D02*
X3459Y1775D01*
X1Y1774D02*
X8Y1774D01*
X3452Y1774D02*
X3459Y1774D01*
X1Y1773D02*
X8Y1773D01*
X3452Y1773D02*
X3459Y1773D01*
X1Y1772D02*
X8Y1772D01*
X3452Y1772D02*
X3459Y1772D01*
X1Y1771D02*
X8Y1771D01*
X3452Y1771D02*
X3459Y1771D01*
X1Y1770D02*
X8Y1770D01*
X3452Y1770D02*
X3459Y1770D01*
X1Y1769D02*
X8Y1769D01*
X3452Y1769D02*
X3459Y1769D01*
X1Y1768D02*
X8Y1768D01*
X3452Y1768D02*
X3459Y1768D01*
X1Y1767D02*
X8Y1767D01*
X3452Y1767D02*
X3459Y1767D01*
X1Y1766D02*
X8Y1766D01*
X3452Y1766D02*
X3459Y1766D01*
X1Y1765D02*
X8Y1765D01*
X3452Y1765D02*
X3459Y1765D01*
X1Y1764D02*
X8Y1764D01*
X3452Y1764D02*
X3459Y1764D01*
X1Y1763D02*
X8Y1763D01*
X3452Y1763D02*
X3459Y1763D01*
X1Y1762D02*
X8Y1762D01*
X3452Y1762D02*
X3459Y1762D01*
X1Y1761D02*
X8Y1761D01*
X3452Y1761D02*
X3459Y1761D01*
X1Y1760D02*
X8Y1760D01*
X3452Y1760D02*
X3459Y1760D01*
X1Y1759D02*
X8Y1759D01*
X3452Y1759D02*
X3459Y1759D01*
X1Y1758D02*
X8Y1758D01*
X3452Y1758D02*
X3459Y1758D01*
X1Y1757D02*
X8Y1757D01*
X3452Y1757D02*
X3459Y1757D01*
X1Y1756D02*
X8Y1756D01*
X3452Y1756D02*
X3459Y1756D01*
X1Y1755D02*
X8Y1755D01*
X3452Y1755D02*
X3459Y1755D01*
X1Y1754D02*
X8Y1754D01*
X3452Y1754D02*
X3459Y1754D01*
X1Y1753D02*
X8Y1753D01*
X3452Y1753D02*
X3459Y1753D01*
X1Y1752D02*
X8Y1752D01*
X3452Y1752D02*
X3459Y1752D01*
X1Y1751D02*
X8Y1751D01*
X3452Y1751D02*
X3459Y1751D01*
X1Y1750D02*
X8Y1750D01*
X3452Y1750D02*
X3459Y1750D01*
X1Y1749D02*
X8Y1749D01*
X3452Y1749D02*
X3459Y1749D01*
X1Y1748D02*
X8Y1748D01*
X3452Y1748D02*
X3459Y1748D01*
X1Y1747D02*
X8Y1747D01*
X3452Y1747D02*
X3459Y1747D01*
X1Y1746D02*
X8Y1746D01*
X3452Y1746D02*
X3459Y1746D01*
X1Y1745D02*
X8Y1745D01*
X3452Y1745D02*
X3459Y1745D01*
X1Y1744D02*
X8Y1744D01*
X3452Y1744D02*
X3459Y1744D01*
X1Y1743D02*
X8Y1743D01*
X3452Y1743D02*
X3459Y1743D01*
X1Y1742D02*
X8Y1742D01*
X3452Y1742D02*
X3459Y1742D01*
X1Y1741D02*
X8Y1741D01*
X3452Y1741D02*
X3459Y1741D01*
X1Y1740D02*
X8Y1740D01*
X3452Y1740D02*
X3459Y1740D01*
X1Y1739D02*
X8Y1739D01*
X3452Y1739D02*
X3459Y1739D01*
X1Y1738D02*
X8Y1738D01*
X3452Y1738D02*
X3459Y1738D01*
X1Y1737D02*
X8Y1737D01*
X3452Y1737D02*
X3459Y1737D01*
X1Y1736D02*
X8Y1736D01*
X3452Y1736D02*
X3459Y1736D01*
X1Y1735D02*
X8Y1735D01*
X3452Y1735D02*
X3459Y1735D01*
X1Y1734D02*
X8Y1734D01*
X3452Y1734D02*
X3459Y1734D01*
X1Y1733D02*
X8Y1733D01*
X3452Y1733D02*
X3459Y1733D01*
X1Y1732D02*
X8Y1732D01*
X3452Y1732D02*
X3459Y1732D01*
X1Y1731D02*
X8Y1731D01*
X3452Y1731D02*
X3459Y1731D01*
X1Y1730D02*
X8Y1730D01*
X3452Y1730D02*
X3459Y1730D01*
X1Y1729D02*
X8Y1729D01*
X3452Y1729D02*
X3459Y1729D01*
X1Y1728D02*
X8Y1728D01*
X3452Y1728D02*
X3459Y1728D01*
X1Y1727D02*
X8Y1727D01*
X3452Y1727D02*
X3459Y1727D01*
X1Y1726D02*
X8Y1726D01*
X3452Y1726D02*
X3459Y1726D01*
X1Y1725D02*
X8Y1725D01*
X3452Y1725D02*
X3459Y1725D01*
X1Y1724D02*
X8Y1724D01*
X3452Y1724D02*
X3459Y1724D01*
X1Y1723D02*
X8Y1723D01*
X3452Y1723D02*
X3459Y1723D01*
X1Y1722D02*
X8Y1722D01*
X3452Y1722D02*
X3459Y1722D01*
X1Y1721D02*
X8Y1721D01*
X3452Y1721D02*
X3459Y1721D01*
X1Y1720D02*
X8Y1720D01*
X3452Y1720D02*
X3459Y1720D01*
X1Y1719D02*
X8Y1719D01*
X3452Y1719D02*
X3459Y1719D01*
X1Y1718D02*
X8Y1718D01*
X3452Y1718D02*
X3459Y1718D01*
X1Y1717D02*
X8Y1717D01*
X3452Y1717D02*
X3459Y1717D01*
X1Y1716D02*
X8Y1716D01*
X3452Y1716D02*
X3459Y1716D01*
X1Y1715D02*
X8Y1715D01*
X3452Y1715D02*
X3459Y1715D01*
X1Y1714D02*
X8Y1714D01*
X3452Y1714D02*
X3459Y1714D01*
X1Y1713D02*
X8Y1713D01*
X3452Y1713D02*
X3459Y1713D01*
X1Y1712D02*
X8Y1712D01*
X3452Y1712D02*
X3459Y1712D01*
X1Y1711D02*
X8Y1711D01*
X3452Y1711D02*
X3459Y1711D01*
X1Y1710D02*
X8Y1710D01*
X3452Y1710D02*
X3459Y1710D01*
X1Y1709D02*
X8Y1709D01*
X3452Y1709D02*
X3459Y1709D01*
X1Y1708D02*
X8Y1708D01*
X3452Y1708D02*
X3459Y1708D01*
X1Y1707D02*
X8Y1707D01*
X3452Y1707D02*
X3459Y1707D01*
X1Y1706D02*
X8Y1706D01*
X3452Y1706D02*
X3459Y1706D01*
X1Y1705D02*
X8Y1705D01*
X3452Y1705D02*
X3459Y1705D01*
X1Y1704D02*
X8Y1704D01*
X3452Y1704D02*
X3459Y1704D01*
X1Y1703D02*
X8Y1703D01*
X3452Y1703D02*
X3459Y1703D01*
X1Y1702D02*
X8Y1702D01*
X3452Y1702D02*
X3459Y1702D01*
X1Y1701D02*
X8Y1701D01*
X3452Y1701D02*
X3459Y1701D01*
X1Y1700D02*
X8Y1700D01*
X3452Y1700D02*
X3459Y1700D01*
X1Y1699D02*
X8Y1699D01*
X3452Y1699D02*
X3459Y1699D01*
X1Y1698D02*
X8Y1698D01*
X3452Y1698D02*
X3459Y1698D01*
X1Y1697D02*
X8Y1697D01*
X3452Y1697D02*
X3459Y1697D01*
X1Y1696D02*
X8Y1696D01*
X3452Y1696D02*
X3459Y1696D01*
X1Y1695D02*
X8Y1695D01*
X3452Y1695D02*
X3459Y1695D01*
X1Y1694D02*
X8Y1694D01*
X3452Y1694D02*
X3459Y1694D01*
X1Y1693D02*
X8Y1693D01*
X3452Y1693D02*
X3459Y1693D01*
X1Y1692D02*
X8Y1692D01*
X3452Y1692D02*
X3459Y1692D01*
X1Y1691D02*
X8Y1691D01*
X3452Y1691D02*
X3459Y1691D01*
X1Y1690D02*
X8Y1690D01*
X3452Y1690D02*
X3459Y1690D01*
X1Y1689D02*
X8Y1689D01*
X3452Y1689D02*
X3459Y1689D01*
X1Y1688D02*
X8Y1688D01*
X3452Y1688D02*
X3459Y1688D01*
X1Y1687D02*
X8Y1687D01*
X3452Y1687D02*
X3459Y1687D01*
X1Y1686D02*
X8Y1686D01*
X3452Y1686D02*
X3459Y1686D01*
X1Y1685D02*
X8Y1685D01*
X3452Y1685D02*
X3459Y1685D01*
X1Y1684D02*
X8Y1684D01*
X3452Y1684D02*
X3459Y1684D01*
X1Y1683D02*
X8Y1683D01*
X3452Y1683D02*
X3459Y1683D01*
X1Y1682D02*
X8Y1682D01*
X3452Y1682D02*
X3459Y1682D01*
X1Y1681D02*
X8Y1681D01*
X3452Y1681D02*
X3459Y1681D01*
X1Y1680D02*
X8Y1680D01*
X3452Y1680D02*
X3459Y1680D01*
X1Y1679D02*
X8Y1679D01*
X3452Y1679D02*
X3459Y1679D01*
X1Y1678D02*
X8Y1678D01*
X3452Y1678D02*
X3459Y1678D01*
X1Y1677D02*
X8Y1677D01*
X3452Y1677D02*
X3459Y1677D01*
X1Y1676D02*
X8Y1676D01*
X3452Y1676D02*
X3459Y1676D01*
X1Y1675D02*
X8Y1675D01*
X3452Y1675D02*
X3459Y1675D01*
X1Y1674D02*
X8Y1674D01*
X3452Y1674D02*
X3459Y1674D01*
X1Y1673D02*
X8Y1673D01*
X3452Y1673D02*
X3459Y1673D01*
X1Y1672D02*
X8Y1672D01*
X3452Y1672D02*
X3459Y1672D01*
X1Y1671D02*
X8Y1671D01*
X3452Y1671D02*
X3459Y1671D01*
X1Y1670D02*
X8Y1670D01*
X3452Y1670D02*
X3459Y1670D01*
X1Y1669D02*
X8Y1669D01*
X3452Y1669D02*
X3459Y1669D01*
X1Y1668D02*
X8Y1668D01*
X3452Y1668D02*
X3459Y1668D01*
X1Y1667D02*
X8Y1667D01*
X3452Y1667D02*
X3459Y1667D01*
X1Y1666D02*
X8Y1666D01*
X3452Y1666D02*
X3459Y1666D01*
X1Y1665D02*
X8Y1665D01*
X3452Y1665D02*
X3459Y1665D01*
X1Y1664D02*
X8Y1664D01*
X3452Y1664D02*
X3459Y1664D01*
X1Y1663D02*
X8Y1663D01*
X3452Y1663D02*
X3459Y1663D01*
X1Y1662D02*
X8Y1662D01*
X3452Y1662D02*
X3459Y1662D01*
X1Y1661D02*
X8Y1661D01*
X3452Y1661D02*
X3459Y1661D01*
X1Y1660D02*
X8Y1660D01*
X3452Y1660D02*
X3459Y1660D01*
X1Y1659D02*
X8Y1659D01*
X3452Y1659D02*
X3459Y1659D01*
X1Y1658D02*
X8Y1658D01*
X3452Y1658D02*
X3459Y1658D01*
X1Y1657D02*
X8Y1657D01*
X3452Y1657D02*
X3459Y1657D01*
X1Y1656D02*
X8Y1656D01*
X3452Y1656D02*
X3459Y1656D01*
X1Y1655D02*
X8Y1655D01*
X3452Y1655D02*
X3459Y1655D01*
X1Y1654D02*
X8Y1654D01*
X3452Y1654D02*
X3459Y1654D01*
X1Y1653D02*
X8Y1653D01*
X3452Y1653D02*
X3459Y1653D01*
X1Y1652D02*
X8Y1652D01*
X3452Y1652D02*
X3459Y1652D01*
X1Y1651D02*
X8Y1651D01*
X3452Y1651D02*
X3459Y1651D01*
X1Y1650D02*
X8Y1650D01*
X3452Y1650D02*
X3459Y1650D01*
X1Y1649D02*
X8Y1649D01*
X3452Y1649D02*
X3459Y1649D01*
X1Y1648D02*
X8Y1648D01*
X3452Y1648D02*
X3459Y1648D01*
X1Y1647D02*
X8Y1647D01*
X3452Y1647D02*
X3459Y1647D01*
X1Y1646D02*
X8Y1646D01*
X3452Y1646D02*
X3459Y1646D01*
X1Y1645D02*
X8Y1645D01*
X3452Y1645D02*
X3459Y1645D01*
X1Y1644D02*
X8Y1644D01*
X3452Y1644D02*
X3459Y1644D01*
X1Y1643D02*
X8Y1643D01*
X3452Y1643D02*
X3459Y1643D01*
X1Y1642D02*
X8Y1642D01*
X3452Y1642D02*
X3459Y1642D01*
X1Y1641D02*
X8Y1641D01*
X3452Y1641D02*
X3459Y1641D01*
X1Y1640D02*
X8Y1640D01*
X3452Y1640D02*
X3459Y1640D01*
X1Y1639D02*
X8Y1639D01*
X3452Y1639D02*
X3459Y1639D01*
X1Y1638D02*
X8Y1638D01*
X3452Y1638D02*
X3459Y1638D01*
X1Y1637D02*
X8Y1637D01*
X3452Y1637D02*
X3459Y1637D01*
X1Y1636D02*
X8Y1636D01*
X3452Y1636D02*
X3459Y1636D01*
X1Y1635D02*
X8Y1635D01*
X3452Y1635D02*
X3459Y1635D01*
X1Y1634D02*
X8Y1634D01*
X3452Y1634D02*
X3459Y1634D01*
X1Y1633D02*
X8Y1633D01*
X3452Y1633D02*
X3459Y1633D01*
X1Y1632D02*
X8Y1632D01*
X3452Y1632D02*
X3459Y1632D01*
X1Y1631D02*
X8Y1631D01*
X3452Y1631D02*
X3459Y1631D01*
X1Y1630D02*
X8Y1630D01*
X3452Y1630D02*
X3459Y1630D01*
X1Y1629D02*
X8Y1629D01*
X3452Y1629D02*
X3459Y1629D01*
X1Y1628D02*
X8Y1628D01*
X3452Y1628D02*
X3459Y1628D01*
X1Y1627D02*
X8Y1627D01*
X3452Y1627D02*
X3459Y1627D01*
X1Y1626D02*
X8Y1626D01*
X3452Y1626D02*
X3459Y1626D01*
X1Y1625D02*
X8Y1625D01*
X3452Y1625D02*
X3459Y1625D01*
X1Y1624D02*
X8Y1624D01*
X3452Y1624D02*
X3459Y1624D01*
X1Y1623D02*
X8Y1623D01*
X3452Y1623D02*
X3459Y1623D01*
X1Y1622D02*
X8Y1622D01*
X3452Y1622D02*
X3459Y1622D01*
X1Y1621D02*
X8Y1621D01*
X3452Y1621D02*
X3459Y1621D01*
X1Y1620D02*
X8Y1620D01*
X3452Y1620D02*
X3459Y1620D01*
X1Y1619D02*
X8Y1619D01*
X3452Y1619D02*
X3459Y1619D01*
X1Y1618D02*
X8Y1618D01*
X3452Y1618D02*
X3459Y1618D01*
X1Y1617D02*
X8Y1617D01*
X3452Y1617D02*
X3459Y1617D01*
X1Y1616D02*
X8Y1616D01*
X3452Y1616D02*
X3459Y1616D01*
X1Y1615D02*
X8Y1615D01*
X3452Y1615D02*
X3459Y1615D01*
X1Y1614D02*
X8Y1614D01*
X3452Y1614D02*
X3459Y1614D01*
X1Y1613D02*
X8Y1613D01*
X3452Y1613D02*
X3459Y1613D01*
X1Y1612D02*
X8Y1612D01*
X3452Y1612D02*
X3459Y1612D01*
X1Y1611D02*
X8Y1611D01*
X3452Y1611D02*
X3459Y1611D01*
X1Y1610D02*
X8Y1610D01*
X3452Y1610D02*
X3459Y1610D01*
X1Y1609D02*
X8Y1609D01*
X3452Y1609D02*
X3459Y1609D01*
X1Y1608D02*
X8Y1608D01*
X3452Y1608D02*
X3459Y1608D01*
X1Y1607D02*
X8Y1607D01*
X3452Y1607D02*
X3459Y1607D01*
X1Y1606D02*
X8Y1606D01*
X3452Y1606D02*
X3459Y1606D01*
X1Y1605D02*
X8Y1605D01*
X3452Y1605D02*
X3459Y1605D01*
X1Y1604D02*
X8Y1604D01*
X3452Y1604D02*
X3459Y1604D01*
X1Y1603D02*
X8Y1603D01*
X3452Y1603D02*
X3459Y1603D01*
X1Y1602D02*
X8Y1602D01*
X3452Y1602D02*
X3459Y1602D01*
X1Y1601D02*
X8Y1601D01*
X3452Y1601D02*
X3459Y1601D01*
X1Y1600D02*
X8Y1600D01*
X3452Y1600D02*
X3459Y1600D01*
X1Y1599D02*
X8Y1599D01*
X3452Y1599D02*
X3459Y1599D01*
X1Y1598D02*
X8Y1598D01*
X3452Y1598D02*
X3459Y1598D01*
X1Y1597D02*
X8Y1597D01*
X3452Y1597D02*
X3459Y1597D01*
X1Y1596D02*
X8Y1596D01*
X3452Y1596D02*
X3459Y1596D01*
X1Y1595D02*
X8Y1595D01*
X3452Y1595D02*
X3459Y1595D01*
X1Y1594D02*
X8Y1594D01*
X3452Y1594D02*
X3459Y1594D01*
X1Y1593D02*
X8Y1593D01*
X3452Y1593D02*
X3459Y1593D01*
X1Y1592D02*
X8Y1592D01*
X3452Y1592D02*
X3459Y1592D01*
X1Y1591D02*
X8Y1591D01*
X3452Y1591D02*
X3459Y1591D01*
X1Y1590D02*
X8Y1590D01*
X3452Y1590D02*
X3459Y1590D01*
X1Y1589D02*
X8Y1589D01*
X3452Y1589D02*
X3459Y1589D01*
X1Y1588D02*
X8Y1588D01*
X3452Y1588D02*
X3459Y1588D01*
X1Y1587D02*
X8Y1587D01*
X3452Y1587D02*
X3459Y1587D01*
X1Y1586D02*
X8Y1586D01*
X3452Y1586D02*
X3459Y1586D01*
X1Y1585D02*
X8Y1585D01*
X3452Y1585D02*
X3459Y1585D01*
X1Y1584D02*
X8Y1584D01*
X3452Y1584D02*
X3459Y1584D01*
X1Y1583D02*
X8Y1583D01*
X3452Y1583D02*
X3459Y1583D01*
X1Y1582D02*
X8Y1582D01*
X3452Y1582D02*
X3459Y1582D01*
X1Y1581D02*
X8Y1581D01*
X3452Y1581D02*
X3459Y1581D01*
X1Y1580D02*
X8Y1580D01*
X3452Y1580D02*
X3459Y1580D01*
X1Y1579D02*
X8Y1579D01*
X3452Y1579D02*
X3459Y1579D01*
X1Y1578D02*
X8Y1578D01*
X3452Y1578D02*
X3459Y1578D01*
X1Y1577D02*
X8Y1577D01*
X3452Y1577D02*
X3459Y1577D01*
X1Y1576D02*
X8Y1576D01*
X3452Y1576D02*
X3459Y1576D01*
X1Y1575D02*
X8Y1575D01*
X3452Y1575D02*
X3459Y1575D01*
X1Y1574D02*
X8Y1574D01*
X3452Y1574D02*
X3459Y1574D01*
X1Y1573D02*
X8Y1573D01*
X3452Y1573D02*
X3459Y1573D01*
X1Y1572D02*
X8Y1572D01*
X3452Y1572D02*
X3459Y1572D01*
X1Y1571D02*
X8Y1571D01*
X3452Y1571D02*
X3459Y1571D01*
X1Y1570D02*
X8Y1570D01*
X3452Y1570D02*
X3459Y1570D01*
X1Y1569D02*
X8Y1569D01*
X3452Y1569D02*
X3459Y1569D01*
X1Y1568D02*
X8Y1568D01*
X3452Y1568D02*
X3459Y1568D01*
X1Y1567D02*
X8Y1567D01*
X3452Y1567D02*
X3459Y1567D01*
X1Y1566D02*
X8Y1566D01*
X3452Y1566D02*
X3459Y1566D01*
X1Y1565D02*
X8Y1565D01*
X3452Y1565D02*
X3459Y1565D01*
X1Y1564D02*
X8Y1564D01*
X3452Y1564D02*
X3459Y1564D01*
X1Y1563D02*
X8Y1563D01*
X3452Y1563D02*
X3459Y1563D01*
X1Y1562D02*
X8Y1562D01*
X3452Y1562D02*
X3459Y1562D01*
X1Y1561D02*
X8Y1561D01*
X3452Y1561D02*
X3459Y1561D01*
X1Y1560D02*
X8Y1560D01*
X3452Y1560D02*
X3459Y1560D01*
X1Y1559D02*
X8Y1559D01*
X3452Y1559D02*
X3459Y1559D01*
X1Y1558D02*
X8Y1558D01*
X3452Y1558D02*
X3459Y1558D01*
X1Y1557D02*
X8Y1557D01*
X3452Y1557D02*
X3459Y1557D01*
X1Y1556D02*
X8Y1556D01*
X3452Y1556D02*
X3459Y1556D01*
X1Y1555D02*
X8Y1555D01*
X3452Y1555D02*
X3459Y1555D01*
X1Y1554D02*
X8Y1554D01*
X3452Y1554D02*
X3459Y1554D01*
X1Y1553D02*
X8Y1553D01*
X3452Y1553D02*
X3459Y1553D01*
X1Y1552D02*
X8Y1552D01*
X3452Y1552D02*
X3459Y1552D01*
X1Y1551D02*
X8Y1551D01*
X3452Y1551D02*
X3459Y1551D01*
X1Y1550D02*
X8Y1550D01*
X3452Y1550D02*
X3459Y1550D01*
X1Y1549D02*
X8Y1549D01*
X3452Y1549D02*
X3459Y1549D01*
X1Y1548D02*
X8Y1548D01*
X3452Y1548D02*
X3459Y1548D01*
X1Y1547D02*
X8Y1547D01*
X3452Y1547D02*
X3459Y1547D01*
X1Y1546D02*
X8Y1546D01*
X3452Y1546D02*
X3459Y1546D01*
X1Y1545D02*
X8Y1545D01*
X3452Y1545D02*
X3459Y1545D01*
X1Y1544D02*
X8Y1544D01*
X3452Y1544D02*
X3459Y1544D01*
X1Y1543D02*
X8Y1543D01*
X3452Y1543D02*
X3459Y1543D01*
X1Y1542D02*
X8Y1542D01*
X3452Y1542D02*
X3459Y1542D01*
X1Y1541D02*
X8Y1541D01*
X3452Y1541D02*
X3459Y1541D01*
X1Y1540D02*
X8Y1540D01*
X3452Y1540D02*
X3459Y1540D01*
X1Y1539D02*
X8Y1539D01*
X3452Y1539D02*
X3459Y1539D01*
X1Y1538D02*
X8Y1538D01*
X3452Y1538D02*
X3459Y1538D01*
X1Y1537D02*
X8Y1537D01*
X3452Y1537D02*
X3459Y1537D01*
X1Y1536D02*
X8Y1536D01*
X3452Y1536D02*
X3459Y1536D01*
X1Y1535D02*
X8Y1535D01*
X3452Y1535D02*
X3459Y1535D01*
X1Y1534D02*
X8Y1534D01*
X3452Y1534D02*
X3459Y1534D01*
X1Y1533D02*
X8Y1533D01*
X3452Y1533D02*
X3459Y1533D01*
X1Y1532D02*
X8Y1532D01*
X3452Y1532D02*
X3459Y1532D01*
X1Y1531D02*
X8Y1531D01*
X3452Y1531D02*
X3459Y1531D01*
X1Y1530D02*
X8Y1530D01*
X3452Y1530D02*
X3459Y1530D01*
X1Y1529D02*
X8Y1529D01*
X3452Y1529D02*
X3459Y1529D01*
X1Y1528D02*
X8Y1528D01*
X3452Y1528D02*
X3459Y1528D01*
X1Y1527D02*
X8Y1527D01*
X3452Y1527D02*
X3459Y1527D01*
X1Y1526D02*
X8Y1526D01*
X3452Y1526D02*
X3459Y1526D01*
X1Y1525D02*
X8Y1525D01*
X3452Y1525D02*
X3459Y1525D01*
X1Y1524D02*
X8Y1524D01*
X3452Y1524D02*
X3459Y1524D01*
X1Y1523D02*
X8Y1523D01*
X3452Y1523D02*
X3459Y1523D01*
X1Y1522D02*
X8Y1522D01*
X3452Y1522D02*
X3459Y1522D01*
X1Y1521D02*
X8Y1521D01*
X3452Y1521D02*
X3459Y1521D01*
X1Y1520D02*
X8Y1520D01*
X3452Y1520D02*
X3459Y1520D01*
X1Y1519D02*
X8Y1519D01*
X3452Y1519D02*
X3459Y1519D01*
X1Y1518D02*
X8Y1518D01*
X3452Y1518D02*
X3459Y1518D01*
X1Y1517D02*
X8Y1517D01*
X3452Y1517D02*
X3459Y1517D01*
X1Y1516D02*
X8Y1516D01*
X3452Y1516D02*
X3459Y1516D01*
X1Y1515D02*
X8Y1515D01*
X3452Y1515D02*
X3459Y1515D01*
X1Y1514D02*
X8Y1514D01*
X3452Y1514D02*
X3459Y1514D01*
X1Y1513D02*
X8Y1513D01*
X3452Y1513D02*
X3459Y1513D01*
X1Y1512D02*
X8Y1512D01*
X3452Y1512D02*
X3459Y1512D01*
X1Y1511D02*
X8Y1511D01*
X3452Y1511D02*
X3459Y1511D01*
X1Y1510D02*
X8Y1510D01*
X3452Y1510D02*
X3459Y1510D01*
X1Y1509D02*
X8Y1509D01*
X3452Y1509D02*
X3459Y1509D01*
X1Y1508D02*
X8Y1508D01*
X3452Y1508D02*
X3459Y1508D01*
X1Y1507D02*
X8Y1507D01*
X3452Y1507D02*
X3459Y1507D01*
X1Y1506D02*
X8Y1506D01*
X3452Y1506D02*
X3459Y1506D01*
X1Y1505D02*
X8Y1505D01*
X3452Y1505D02*
X3459Y1505D01*
X1Y1504D02*
X8Y1504D01*
X3452Y1504D02*
X3459Y1504D01*
X1Y1503D02*
X8Y1503D01*
X3452Y1503D02*
X3459Y1503D01*
X1Y1502D02*
X8Y1502D01*
X3452Y1502D02*
X3459Y1502D01*
X1Y1501D02*
X8Y1501D01*
X3452Y1501D02*
X3459Y1501D01*
X1Y1500D02*
X8Y1500D01*
X3452Y1500D02*
X3459Y1500D01*
X1Y1499D02*
X8Y1499D01*
X3452Y1499D02*
X3459Y1499D01*
X1Y1498D02*
X8Y1498D01*
X3452Y1498D02*
X3459Y1498D01*
X1Y1497D02*
X8Y1497D01*
X3452Y1497D02*
X3459Y1497D01*
X1Y1496D02*
X8Y1496D01*
X3452Y1496D02*
X3459Y1496D01*
X1Y1495D02*
X8Y1495D01*
X3452Y1495D02*
X3459Y1495D01*
X1Y1494D02*
X8Y1494D01*
X3452Y1494D02*
X3459Y1494D01*
X1Y1493D02*
X8Y1493D01*
X3452Y1493D02*
X3459Y1493D01*
X1Y1492D02*
X8Y1492D01*
X3452Y1492D02*
X3459Y1492D01*
X1Y1491D02*
X8Y1491D01*
X3452Y1491D02*
X3459Y1491D01*
X1Y1490D02*
X8Y1490D01*
X3452Y1490D02*
X3459Y1490D01*
X1Y1489D02*
X8Y1489D01*
X3452Y1489D02*
X3459Y1489D01*
X1Y1488D02*
X8Y1488D01*
X3452Y1488D02*
X3459Y1488D01*
X1Y1487D02*
X8Y1487D01*
X3452Y1487D02*
X3459Y1487D01*
X1Y1486D02*
X8Y1486D01*
X3452Y1486D02*
X3459Y1486D01*
X1Y1485D02*
X8Y1485D01*
X3452Y1485D02*
X3459Y1485D01*
X1Y1484D02*
X8Y1484D01*
X3452Y1484D02*
X3459Y1484D01*
X1Y1483D02*
X8Y1483D01*
X3452Y1483D02*
X3459Y1483D01*
X1Y1482D02*
X8Y1482D01*
X3452Y1482D02*
X3459Y1482D01*
X1Y1481D02*
X8Y1481D01*
X3452Y1481D02*
X3459Y1481D01*
X1Y1480D02*
X8Y1480D01*
X3452Y1480D02*
X3459Y1480D01*
X1Y1479D02*
X8Y1479D01*
X3452Y1479D02*
X3459Y1479D01*
X1Y1478D02*
X8Y1478D01*
X3452Y1478D02*
X3459Y1478D01*
X1Y1477D02*
X8Y1477D01*
X3452Y1477D02*
X3459Y1477D01*
X1Y1476D02*
X8Y1476D01*
X3452Y1476D02*
X3459Y1476D01*
X1Y1475D02*
X8Y1475D01*
X3452Y1475D02*
X3459Y1475D01*
X1Y1474D02*
X8Y1474D01*
X3452Y1474D02*
X3459Y1474D01*
X1Y1473D02*
X8Y1473D01*
X3452Y1473D02*
X3459Y1473D01*
X1Y1472D02*
X8Y1472D01*
X3452Y1472D02*
X3459Y1472D01*
X1Y1471D02*
X8Y1471D01*
X3452Y1471D02*
X3459Y1471D01*
X1Y1470D02*
X8Y1470D01*
X3452Y1470D02*
X3459Y1470D01*
X1Y1469D02*
X8Y1469D01*
X3452Y1469D02*
X3459Y1469D01*
X1Y1468D02*
X8Y1468D01*
X3452Y1468D02*
X3459Y1468D01*
X1Y1467D02*
X8Y1467D01*
X3452Y1467D02*
X3459Y1467D01*
X1Y1466D02*
X8Y1466D01*
X3452Y1466D02*
X3459Y1466D01*
X1Y1465D02*
X8Y1465D01*
X3452Y1465D02*
X3459Y1465D01*
X1Y1464D02*
X8Y1464D01*
X3452Y1464D02*
X3459Y1464D01*
X1Y1463D02*
X8Y1463D01*
X3452Y1463D02*
X3459Y1463D01*
X1Y1462D02*
X8Y1462D01*
X3452Y1462D02*
X3459Y1462D01*
X1Y1461D02*
X8Y1461D01*
X3452Y1461D02*
X3459Y1461D01*
X1Y1460D02*
X8Y1460D01*
X3452Y1460D02*
X3459Y1460D01*
X1Y1459D02*
X8Y1459D01*
X3452Y1459D02*
X3459Y1459D01*
X1Y1458D02*
X8Y1458D01*
X3452Y1458D02*
X3459Y1458D01*
X1Y1457D02*
X8Y1457D01*
X3452Y1457D02*
X3459Y1457D01*
X1Y1456D02*
X8Y1456D01*
X3452Y1456D02*
X3459Y1456D01*
X1Y1455D02*
X8Y1455D01*
X3452Y1455D02*
X3459Y1455D01*
X1Y1454D02*
X8Y1454D01*
X3452Y1454D02*
X3459Y1454D01*
X1Y1453D02*
X8Y1453D01*
X3452Y1453D02*
X3459Y1453D01*
X1Y1452D02*
X8Y1452D01*
X3452Y1452D02*
X3459Y1452D01*
X1Y1451D02*
X8Y1451D01*
X3452Y1451D02*
X3459Y1451D01*
X1Y1450D02*
X8Y1450D01*
X3452Y1450D02*
X3459Y1450D01*
X1Y1449D02*
X8Y1449D01*
X3452Y1449D02*
X3459Y1449D01*
X1Y1448D02*
X8Y1448D01*
X3452Y1448D02*
X3459Y1448D01*
X1Y1447D02*
X8Y1447D01*
X3452Y1447D02*
X3459Y1447D01*
X1Y1446D02*
X8Y1446D01*
X3452Y1446D02*
X3459Y1446D01*
X1Y1445D02*
X8Y1445D01*
X3452Y1445D02*
X3459Y1445D01*
X1Y1444D02*
X8Y1444D01*
X3452Y1444D02*
X3459Y1444D01*
X1Y1443D02*
X8Y1443D01*
X3452Y1443D02*
X3459Y1443D01*
X1Y1442D02*
X8Y1442D01*
X3452Y1442D02*
X3459Y1442D01*
X1Y1441D02*
X8Y1441D01*
X3452Y1441D02*
X3459Y1441D01*
X1Y1440D02*
X8Y1440D01*
X3452Y1440D02*
X3459Y1440D01*
X1Y1439D02*
X8Y1439D01*
X3452Y1439D02*
X3459Y1439D01*
X1Y1438D02*
X8Y1438D01*
X3452Y1438D02*
X3459Y1438D01*
X1Y1437D02*
X8Y1437D01*
X3452Y1437D02*
X3459Y1437D01*
X1Y1436D02*
X8Y1436D01*
X3452Y1436D02*
X3459Y1436D01*
X1Y1435D02*
X8Y1435D01*
X3452Y1435D02*
X3459Y1435D01*
X1Y1434D02*
X8Y1434D01*
X3452Y1434D02*
X3459Y1434D01*
X1Y1433D02*
X8Y1433D01*
X3452Y1433D02*
X3459Y1433D01*
X1Y1432D02*
X8Y1432D01*
X3452Y1432D02*
X3459Y1432D01*
X1Y1431D02*
X8Y1431D01*
X3452Y1431D02*
X3459Y1431D01*
X1Y1430D02*
X8Y1430D01*
X3452Y1430D02*
X3459Y1430D01*
X1Y1429D02*
X8Y1429D01*
X3452Y1429D02*
X3459Y1429D01*
X1Y1428D02*
X8Y1428D01*
X3452Y1428D02*
X3459Y1428D01*
X1Y1427D02*
X8Y1427D01*
X3452Y1427D02*
X3459Y1427D01*
X1Y1426D02*
X8Y1426D01*
X3452Y1426D02*
X3459Y1426D01*
X1Y1425D02*
X8Y1425D01*
X3452Y1425D02*
X3459Y1425D01*
X1Y1424D02*
X8Y1424D01*
X3452Y1424D02*
X3459Y1424D01*
X1Y1423D02*
X8Y1423D01*
X3452Y1423D02*
X3459Y1423D01*
X1Y1422D02*
X8Y1422D01*
X3452Y1422D02*
X3459Y1422D01*
X1Y1421D02*
X8Y1421D01*
X3452Y1421D02*
X3459Y1421D01*
X1Y1420D02*
X8Y1420D01*
X3452Y1420D02*
X3459Y1420D01*
X1Y1419D02*
X8Y1419D01*
X3452Y1419D02*
X3459Y1419D01*
X1Y1418D02*
X8Y1418D01*
X3452Y1418D02*
X3459Y1418D01*
X1Y1417D02*
X8Y1417D01*
X3452Y1417D02*
X3459Y1417D01*
X1Y1416D02*
X8Y1416D01*
X3452Y1416D02*
X3459Y1416D01*
X1Y1415D02*
X8Y1415D01*
X3452Y1415D02*
X3459Y1415D01*
X1Y1414D02*
X8Y1414D01*
X3452Y1414D02*
X3459Y1414D01*
X1Y1413D02*
X8Y1413D01*
X3452Y1413D02*
X3459Y1413D01*
X1Y1412D02*
X8Y1412D01*
X3452Y1412D02*
X3459Y1412D01*
X1Y1411D02*
X8Y1411D01*
X3452Y1411D02*
X3459Y1411D01*
X1Y1410D02*
X8Y1410D01*
X3452Y1410D02*
X3459Y1410D01*
X1Y1409D02*
X8Y1409D01*
X3452Y1409D02*
X3459Y1409D01*
X1Y1408D02*
X8Y1408D01*
X3452Y1408D02*
X3459Y1408D01*
X1Y1407D02*
X8Y1407D01*
X3452Y1407D02*
X3459Y1407D01*
X1Y1406D02*
X8Y1406D01*
X3452Y1406D02*
X3459Y1406D01*
X1Y1405D02*
X8Y1405D01*
X3452Y1405D02*
X3459Y1405D01*
X1Y1404D02*
X8Y1404D01*
X3452Y1404D02*
X3459Y1404D01*
X1Y1403D02*
X8Y1403D01*
X3452Y1403D02*
X3459Y1403D01*
X1Y1402D02*
X8Y1402D01*
X3452Y1402D02*
X3459Y1402D01*
X1Y1401D02*
X8Y1401D01*
X3452Y1401D02*
X3459Y1401D01*
X1Y1400D02*
X8Y1400D01*
X3452Y1400D02*
X3459Y1400D01*
X1Y1399D02*
X8Y1399D01*
X3452Y1399D02*
X3459Y1399D01*
X1Y1398D02*
X8Y1398D01*
X3452Y1398D02*
X3459Y1398D01*
X1Y1397D02*
X8Y1397D01*
X3452Y1397D02*
X3459Y1397D01*
X1Y1396D02*
X8Y1396D01*
X3452Y1396D02*
X3459Y1396D01*
X1Y1395D02*
X8Y1395D01*
X3452Y1395D02*
X3459Y1395D01*
X1Y1394D02*
X8Y1394D01*
X3452Y1394D02*
X3459Y1394D01*
X1Y1393D02*
X8Y1393D01*
X3452Y1393D02*
X3459Y1393D01*
X1Y1392D02*
X8Y1392D01*
X3452Y1392D02*
X3459Y1392D01*
X1Y1391D02*
X8Y1391D01*
X3452Y1391D02*
X3459Y1391D01*
X1Y1390D02*
X8Y1390D01*
X3452Y1390D02*
X3459Y1390D01*
X1Y1389D02*
X8Y1389D01*
X3452Y1389D02*
X3459Y1389D01*
X1Y1388D02*
X8Y1388D01*
X3452Y1388D02*
X3459Y1388D01*
X1Y1387D02*
X8Y1387D01*
X3452Y1387D02*
X3459Y1387D01*
X1Y1386D02*
X8Y1386D01*
X3452Y1386D02*
X3459Y1386D01*
X1Y1385D02*
X8Y1385D01*
X3452Y1385D02*
X3459Y1385D01*
X1Y1384D02*
X8Y1384D01*
X3452Y1384D02*
X3459Y1384D01*
X1Y1383D02*
X8Y1383D01*
X3452Y1383D02*
X3459Y1383D01*
X1Y1382D02*
X8Y1382D01*
X3452Y1382D02*
X3459Y1382D01*
X1Y1381D02*
X8Y1381D01*
X3452Y1381D02*
X3459Y1381D01*
X1Y1380D02*
X8Y1380D01*
X3452Y1380D02*
X3459Y1380D01*
X1Y1379D02*
X8Y1379D01*
X3452Y1379D02*
X3459Y1379D01*
X1Y1378D02*
X8Y1378D01*
X3452Y1378D02*
X3459Y1378D01*
X1Y1377D02*
X8Y1377D01*
X3452Y1377D02*
X3459Y1377D01*
X1Y1376D02*
X8Y1376D01*
X3452Y1376D02*
X3459Y1376D01*
X1Y1375D02*
X8Y1375D01*
X3452Y1375D02*
X3459Y1375D01*
X1Y1374D02*
X8Y1374D01*
X3452Y1374D02*
X3459Y1374D01*
X1Y1373D02*
X8Y1373D01*
X3452Y1373D02*
X3459Y1373D01*
X1Y1372D02*
X8Y1372D01*
X3452Y1372D02*
X3459Y1372D01*
X1Y1371D02*
X8Y1371D01*
X3452Y1371D02*
X3459Y1371D01*
X1Y1370D02*
X8Y1370D01*
X3452Y1370D02*
X3459Y1370D01*
X1Y1369D02*
X8Y1369D01*
X3452Y1369D02*
X3459Y1369D01*
X1Y1368D02*
X8Y1368D01*
X3452Y1368D02*
X3459Y1368D01*
X1Y1367D02*
X8Y1367D01*
X3452Y1367D02*
X3459Y1367D01*
X1Y1366D02*
X8Y1366D01*
X3452Y1366D02*
X3459Y1366D01*
X1Y1365D02*
X8Y1365D01*
X3452Y1365D02*
X3459Y1365D01*
X1Y1364D02*
X8Y1364D01*
X3452Y1364D02*
X3459Y1364D01*
X1Y1363D02*
X8Y1363D01*
X3452Y1363D02*
X3459Y1363D01*
X1Y1362D02*
X8Y1362D01*
X3452Y1362D02*
X3459Y1362D01*
X1Y1361D02*
X8Y1361D01*
X3452Y1361D02*
X3459Y1361D01*
X1Y1360D02*
X8Y1360D01*
X3452Y1360D02*
X3459Y1360D01*
X1Y1359D02*
X8Y1359D01*
X3452Y1359D02*
X3459Y1359D01*
X1Y1358D02*
X8Y1358D01*
X3452Y1358D02*
X3459Y1358D01*
X1Y1357D02*
X8Y1357D01*
X3452Y1357D02*
X3459Y1357D01*
X1Y1356D02*
X8Y1356D01*
X3452Y1356D02*
X3459Y1356D01*
X1Y1355D02*
X8Y1355D01*
X3452Y1355D02*
X3459Y1355D01*
X1Y1354D02*
X8Y1354D01*
X3452Y1354D02*
X3459Y1354D01*
X1Y1353D02*
X8Y1353D01*
X3452Y1353D02*
X3459Y1353D01*
X1Y1352D02*
X8Y1352D01*
X3452Y1352D02*
X3459Y1352D01*
X1Y1351D02*
X8Y1351D01*
X3452Y1351D02*
X3459Y1351D01*
X1Y1350D02*
X8Y1350D01*
X3452Y1350D02*
X3459Y1350D01*
X1Y1349D02*
X8Y1349D01*
X3452Y1349D02*
X3459Y1349D01*
X1Y1348D02*
X8Y1348D01*
X3452Y1348D02*
X3459Y1348D01*
X1Y1347D02*
X8Y1347D01*
X3452Y1347D02*
X3459Y1347D01*
X1Y1346D02*
X8Y1346D01*
X3452Y1346D02*
X3459Y1346D01*
X1Y1345D02*
X8Y1345D01*
X3452Y1345D02*
X3459Y1345D01*
X1Y1344D02*
X8Y1344D01*
X3452Y1344D02*
X3459Y1344D01*
X1Y1343D02*
X8Y1343D01*
X3452Y1343D02*
X3459Y1343D01*
X1Y1342D02*
X8Y1342D01*
X3452Y1342D02*
X3459Y1342D01*
X1Y1341D02*
X8Y1341D01*
X3452Y1341D02*
X3459Y1341D01*
X1Y1340D02*
X8Y1340D01*
X3452Y1340D02*
X3459Y1340D01*
X1Y1339D02*
X8Y1339D01*
X3452Y1339D02*
X3459Y1339D01*
X1Y1338D02*
X8Y1338D01*
X3452Y1338D02*
X3459Y1338D01*
X1Y1337D02*
X8Y1337D01*
X3452Y1337D02*
X3459Y1337D01*
X1Y1336D02*
X8Y1336D01*
X3452Y1336D02*
X3459Y1336D01*
X1Y1335D02*
X8Y1335D01*
X3452Y1335D02*
X3459Y1335D01*
X1Y1334D02*
X8Y1334D01*
X3452Y1334D02*
X3459Y1334D01*
X1Y1333D02*
X8Y1333D01*
X3452Y1333D02*
X3459Y1333D01*
X1Y1332D02*
X8Y1332D01*
X3452Y1332D02*
X3459Y1332D01*
X1Y1331D02*
X8Y1331D01*
X3452Y1331D02*
X3459Y1331D01*
X1Y1330D02*
X8Y1330D01*
X3452Y1330D02*
X3459Y1330D01*
X1Y1329D02*
X8Y1329D01*
X3452Y1329D02*
X3459Y1329D01*
X1Y1328D02*
X8Y1328D01*
X3452Y1328D02*
X3459Y1328D01*
X1Y1327D02*
X8Y1327D01*
X3452Y1327D02*
X3459Y1327D01*
X1Y1326D02*
X8Y1326D01*
X3452Y1326D02*
X3459Y1326D01*
X1Y1325D02*
X8Y1325D01*
X3452Y1325D02*
X3459Y1325D01*
X1Y1324D02*
X8Y1324D01*
X3452Y1324D02*
X3459Y1324D01*
X1Y1323D02*
X8Y1323D01*
X3452Y1323D02*
X3459Y1323D01*
X1Y1322D02*
X8Y1322D01*
X3452Y1322D02*
X3459Y1322D01*
X1Y1321D02*
X8Y1321D01*
X3452Y1321D02*
X3459Y1321D01*
X1Y1320D02*
X8Y1320D01*
X3452Y1320D02*
X3459Y1320D01*
X1Y1319D02*
X8Y1319D01*
X3452Y1319D02*
X3459Y1319D01*
X1Y1318D02*
X8Y1318D01*
X3452Y1318D02*
X3459Y1318D01*
X1Y1317D02*
X8Y1317D01*
X3452Y1317D02*
X3459Y1317D01*
X1Y1316D02*
X8Y1316D01*
X3452Y1316D02*
X3459Y1316D01*
X1Y1315D02*
X8Y1315D01*
X3452Y1315D02*
X3459Y1315D01*
X1Y1314D02*
X8Y1314D01*
X3452Y1314D02*
X3459Y1314D01*
X1Y1313D02*
X8Y1313D01*
X3452Y1313D02*
X3459Y1313D01*
X1Y1312D02*
X8Y1312D01*
X3452Y1312D02*
X3459Y1312D01*
X1Y1311D02*
X8Y1311D01*
X3452Y1311D02*
X3459Y1311D01*
X1Y1310D02*
X8Y1310D01*
X3452Y1310D02*
X3459Y1310D01*
X1Y1309D02*
X8Y1309D01*
X3452Y1309D02*
X3459Y1309D01*
X1Y1308D02*
X8Y1308D01*
X3452Y1308D02*
X3459Y1308D01*
X1Y1307D02*
X8Y1307D01*
X3452Y1307D02*
X3459Y1307D01*
X1Y1306D02*
X8Y1306D01*
X3452Y1306D02*
X3459Y1306D01*
X1Y1305D02*
X8Y1305D01*
X3452Y1305D02*
X3459Y1305D01*
X1Y1304D02*
X8Y1304D01*
X3452Y1304D02*
X3459Y1304D01*
X1Y1303D02*
X8Y1303D01*
X3452Y1303D02*
X3459Y1303D01*
X1Y1302D02*
X8Y1302D01*
X3452Y1302D02*
X3459Y1302D01*
X1Y1301D02*
X8Y1301D01*
X3452Y1301D02*
X3459Y1301D01*
X1Y1300D02*
X8Y1300D01*
X3452Y1300D02*
X3459Y1300D01*
X1Y1299D02*
X8Y1299D01*
X3452Y1299D02*
X3459Y1299D01*
X1Y1298D02*
X8Y1298D01*
X3452Y1298D02*
X3459Y1298D01*
X1Y1297D02*
X8Y1297D01*
X3452Y1297D02*
X3459Y1297D01*
X1Y1296D02*
X8Y1296D01*
X3452Y1296D02*
X3459Y1296D01*
X1Y1295D02*
X8Y1295D01*
X3452Y1295D02*
X3459Y1295D01*
X1Y1294D02*
X8Y1294D01*
X3452Y1294D02*
X3459Y1294D01*
X1Y1293D02*
X8Y1293D01*
X3452Y1293D02*
X3459Y1293D01*
X1Y1292D02*
X8Y1292D01*
X3452Y1292D02*
X3459Y1292D01*
X1Y1291D02*
X8Y1291D01*
X3452Y1291D02*
X3459Y1291D01*
X1Y1290D02*
X8Y1290D01*
X3452Y1290D02*
X3459Y1290D01*
X1Y1289D02*
X8Y1289D01*
X3452Y1289D02*
X3459Y1289D01*
X1Y1288D02*
X8Y1288D01*
X3452Y1288D02*
X3459Y1288D01*
X1Y1287D02*
X8Y1287D01*
X3452Y1287D02*
X3459Y1287D01*
X1Y1286D02*
X8Y1286D01*
X3452Y1286D02*
X3459Y1286D01*
X1Y1285D02*
X8Y1285D01*
X3452Y1285D02*
X3459Y1285D01*
X1Y1284D02*
X8Y1284D01*
X3452Y1284D02*
X3459Y1284D01*
X1Y1283D02*
X8Y1283D01*
X3452Y1283D02*
X3459Y1283D01*
X1Y1282D02*
X8Y1282D01*
X3452Y1282D02*
X3459Y1282D01*
X1Y1281D02*
X8Y1281D01*
X3452Y1281D02*
X3459Y1281D01*
X1Y1280D02*
X8Y1280D01*
X3452Y1280D02*
X3459Y1280D01*
X1Y1279D02*
X8Y1279D01*
X3452Y1279D02*
X3459Y1279D01*
X1Y1278D02*
X8Y1278D01*
X3452Y1278D02*
X3459Y1278D01*
X1Y1277D02*
X8Y1277D01*
X3452Y1277D02*
X3459Y1277D01*
X1Y1276D02*
X8Y1276D01*
X3452Y1276D02*
X3459Y1276D01*
X1Y1275D02*
X8Y1275D01*
X3452Y1275D02*
X3459Y1275D01*
X1Y1274D02*
X8Y1274D01*
X3452Y1274D02*
X3459Y1274D01*
X1Y1273D02*
X8Y1273D01*
X3452Y1273D02*
X3459Y1273D01*
X1Y1272D02*
X8Y1272D01*
X3452Y1272D02*
X3459Y1272D01*
X1Y1271D02*
X8Y1271D01*
X3452Y1271D02*
X3459Y1271D01*
X1Y1270D02*
X8Y1270D01*
X3452Y1270D02*
X3459Y1270D01*
X1Y1269D02*
X8Y1269D01*
X3452Y1269D02*
X3459Y1269D01*
X1Y1268D02*
X8Y1268D01*
X3452Y1268D02*
X3459Y1268D01*
X1Y1267D02*
X8Y1267D01*
X3452Y1267D02*
X3459Y1267D01*
X1Y1266D02*
X8Y1266D01*
X3452Y1266D02*
X3459Y1266D01*
X1Y1265D02*
X8Y1265D01*
X3452Y1265D02*
X3459Y1265D01*
X1Y1264D02*
X8Y1264D01*
X3452Y1264D02*
X3459Y1264D01*
X1Y1263D02*
X8Y1263D01*
X3452Y1263D02*
X3459Y1263D01*
X1Y1262D02*
X8Y1262D01*
X3452Y1262D02*
X3459Y1262D01*
X1Y1261D02*
X8Y1261D01*
X3452Y1261D02*
X3459Y1261D01*
X1Y1260D02*
X8Y1260D01*
X3452Y1260D02*
X3459Y1260D01*
X1Y1259D02*
X8Y1259D01*
X3452Y1259D02*
X3459Y1259D01*
X1Y1258D02*
X8Y1258D01*
X3452Y1258D02*
X3459Y1258D01*
X1Y1257D02*
X8Y1257D01*
X3452Y1257D02*
X3459Y1257D01*
X1Y1256D02*
X8Y1256D01*
X3452Y1256D02*
X3459Y1256D01*
X1Y1255D02*
X8Y1255D01*
X3452Y1255D02*
X3459Y1255D01*
X1Y1254D02*
X8Y1254D01*
X3452Y1254D02*
X3459Y1254D01*
X1Y1253D02*
X8Y1253D01*
X3452Y1253D02*
X3459Y1253D01*
X1Y1252D02*
X8Y1252D01*
X3452Y1252D02*
X3459Y1252D01*
X1Y1251D02*
X8Y1251D01*
X3452Y1251D02*
X3459Y1251D01*
X1Y1250D02*
X8Y1250D01*
X3452Y1250D02*
X3459Y1250D01*
X1Y1249D02*
X8Y1249D01*
X3452Y1249D02*
X3459Y1249D01*
X1Y1248D02*
X8Y1248D01*
X3452Y1248D02*
X3459Y1248D01*
X1Y1247D02*
X8Y1247D01*
X3452Y1247D02*
X3459Y1247D01*
X1Y1246D02*
X8Y1246D01*
X3452Y1246D02*
X3459Y1246D01*
X1Y1245D02*
X8Y1245D01*
X3452Y1245D02*
X3459Y1245D01*
X1Y1244D02*
X8Y1244D01*
X3452Y1244D02*
X3459Y1244D01*
X1Y1243D02*
X8Y1243D01*
X3452Y1243D02*
X3459Y1243D01*
X1Y1242D02*
X8Y1242D01*
X3452Y1242D02*
X3459Y1242D01*
X1Y1241D02*
X8Y1241D01*
X3452Y1241D02*
X3459Y1241D01*
X1Y1240D02*
X8Y1240D01*
X3452Y1240D02*
X3459Y1240D01*
X1Y1239D02*
X8Y1239D01*
X3452Y1239D02*
X3459Y1239D01*
X1Y1238D02*
X8Y1238D01*
X3452Y1238D02*
X3459Y1238D01*
X1Y1237D02*
X8Y1237D01*
X3452Y1237D02*
X3459Y1237D01*
X1Y1236D02*
X8Y1236D01*
X3452Y1236D02*
X3459Y1236D01*
X1Y1235D02*
X8Y1235D01*
X3452Y1235D02*
X3459Y1235D01*
X1Y1234D02*
X8Y1234D01*
X3452Y1234D02*
X3459Y1234D01*
X1Y1233D02*
X8Y1233D01*
X3452Y1233D02*
X3459Y1233D01*
X1Y1232D02*
X8Y1232D01*
X3452Y1232D02*
X3459Y1232D01*
X1Y1231D02*
X8Y1231D01*
X3452Y1231D02*
X3459Y1231D01*
X1Y1230D02*
X8Y1230D01*
X3452Y1230D02*
X3459Y1230D01*
X1Y1229D02*
X8Y1229D01*
X3452Y1229D02*
X3459Y1229D01*
X1Y1228D02*
X8Y1228D01*
X3452Y1228D02*
X3459Y1228D01*
X1Y1227D02*
X8Y1227D01*
X3452Y1227D02*
X3459Y1227D01*
X1Y1226D02*
X8Y1226D01*
X3452Y1226D02*
X3459Y1226D01*
X1Y1225D02*
X8Y1225D01*
X3452Y1225D02*
X3459Y1225D01*
X1Y1224D02*
X8Y1224D01*
X3452Y1224D02*
X3459Y1224D01*
X1Y1223D02*
X8Y1223D01*
X3452Y1223D02*
X3459Y1223D01*
X1Y1222D02*
X8Y1222D01*
X3452Y1222D02*
X3459Y1222D01*
X1Y1221D02*
X8Y1221D01*
X3452Y1221D02*
X3459Y1221D01*
X1Y1220D02*
X8Y1220D01*
X3452Y1220D02*
X3459Y1220D01*
X1Y1219D02*
X8Y1219D01*
X3452Y1219D02*
X3459Y1219D01*
X1Y1218D02*
X8Y1218D01*
X3452Y1218D02*
X3459Y1218D01*
X1Y1217D02*
X8Y1217D01*
X3452Y1217D02*
X3459Y1217D01*
X1Y1216D02*
X8Y1216D01*
X3452Y1216D02*
X3459Y1216D01*
X1Y1215D02*
X8Y1215D01*
X3452Y1215D02*
X3459Y1215D01*
X1Y1214D02*
X8Y1214D01*
X3452Y1214D02*
X3459Y1214D01*
X1Y1213D02*
X8Y1213D01*
X3452Y1213D02*
X3459Y1213D01*
X1Y1212D02*
X8Y1212D01*
X3452Y1212D02*
X3459Y1212D01*
X1Y1211D02*
X8Y1211D01*
X3452Y1211D02*
X3459Y1211D01*
X1Y1210D02*
X8Y1210D01*
X3452Y1210D02*
X3459Y1210D01*
X1Y1209D02*
X8Y1209D01*
X3452Y1209D02*
X3459Y1209D01*
X1Y1208D02*
X8Y1208D01*
X3452Y1208D02*
X3459Y1208D01*
X1Y1207D02*
X8Y1207D01*
X3452Y1207D02*
X3459Y1207D01*
X1Y1206D02*
X8Y1206D01*
X3452Y1206D02*
X3459Y1206D01*
X1Y1205D02*
X8Y1205D01*
X3452Y1205D02*
X3459Y1205D01*
X1Y1204D02*
X8Y1204D01*
X3452Y1204D02*
X3459Y1204D01*
X1Y1203D02*
X8Y1203D01*
X3452Y1203D02*
X3459Y1203D01*
X1Y1202D02*
X8Y1202D01*
X3452Y1202D02*
X3459Y1202D01*
X1Y1201D02*
X8Y1201D01*
X3452Y1201D02*
X3459Y1201D01*
X1Y1200D02*
X8Y1200D01*
X3452Y1200D02*
X3459Y1200D01*
X1Y1199D02*
X8Y1199D01*
X3452Y1199D02*
X3459Y1199D01*
X1Y1198D02*
X8Y1198D01*
X3452Y1198D02*
X3459Y1198D01*
X1Y1197D02*
X8Y1197D01*
X3452Y1197D02*
X3459Y1197D01*
X1Y1196D02*
X8Y1196D01*
X3452Y1196D02*
X3459Y1196D01*
X1Y1195D02*
X8Y1195D01*
X3452Y1195D02*
X3459Y1195D01*
X1Y1194D02*
X8Y1194D01*
X3452Y1194D02*
X3459Y1194D01*
X1Y1193D02*
X8Y1193D01*
X3452Y1193D02*
X3459Y1193D01*
X1Y1192D02*
X8Y1192D01*
X3452Y1192D02*
X3459Y1192D01*
X1Y1191D02*
X8Y1191D01*
X3452Y1191D02*
X3459Y1191D01*
X1Y1190D02*
X8Y1190D01*
X3452Y1190D02*
X3459Y1190D01*
X1Y1189D02*
X8Y1189D01*
X3452Y1189D02*
X3459Y1189D01*
X1Y1188D02*
X8Y1188D01*
X3452Y1188D02*
X3459Y1188D01*
X1Y1187D02*
X8Y1187D01*
X3452Y1187D02*
X3459Y1187D01*
X1Y1186D02*
X8Y1186D01*
X3452Y1186D02*
X3459Y1186D01*
X1Y1185D02*
X8Y1185D01*
X3452Y1185D02*
X3459Y1185D01*
X1Y1184D02*
X8Y1184D01*
X3452Y1184D02*
X3459Y1184D01*
X1Y1183D02*
X8Y1183D01*
X3452Y1183D02*
X3459Y1183D01*
X1Y1182D02*
X8Y1182D01*
X3452Y1182D02*
X3459Y1182D01*
X1Y1181D02*
X8Y1181D01*
X3452Y1181D02*
X3459Y1181D01*
X1Y1180D02*
X8Y1180D01*
X3452Y1180D02*
X3459Y1180D01*
X1Y1179D02*
X8Y1179D01*
X3452Y1179D02*
X3459Y1179D01*
X1Y1178D02*
X8Y1178D01*
X3452Y1178D02*
X3459Y1178D01*
X1Y1177D02*
X8Y1177D01*
X3452Y1177D02*
X3459Y1177D01*
X1Y1176D02*
X8Y1176D01*
X3452Y1176D02*
X3459Y1176D01*
X1Y1175D02*
X8Y1175D01*
X3452Y1175D02*
X3459Y1175D01*
X1Y1174D02*
X8Y1174D01*
X3452Y1174D02*
X3459Y1174D01*
X1Y1173D02*
X8Y1173D01*
X3452Y1173D02*
X3459Y1173D01*
X1Y1172D02*
X8Y1172D01*
X3452Y1172D02*
X3459Y1172D01*
X1Y1171D02*
X8Y1171D01*
X3452Y1171D02*
X3459Y1171D01*
X1Y1170D02*
X8Y1170D01*
X3452Y1170D02*
X3459Y1170D01*
X1Y1169D02*
X8Y1169D01*
X3452Y1169D02*
X3459Y1169D01*
X1Y1168D02*
X8Y1168D01*
X3452Y1168D02*
X3459Y1168D01*
X1Y1167D02*
X8Y1167D01*
X3452Y1167D02*
X3459Y1167D01*
X1Y1166D02*
X8Y1166D01*
X3452Y1166D02*
X3459Y1166D01*
X1Y1165D02*
X8Y1165D01*
X3452Y1165D02*
X3459Y1165D01*
X1Y1164D02*
X8Y1164D01*
X3452Y1164D02*
X3459Y1164D01*
X1Y1163D02*
X8Y1163D01*
X3452Y1163D02*
X3459Y1163D01*
X1Y1162D02*
X8Y1162D01*
X3452Y1162D02*
X3459Y1162D01*
X1Y1161D02*
X8Y1161D01*
X3452Y1161D02*
X3459Y1161D01*
X1Y1160D02*
X8Y1160D01*
X3452Y1160D02*
X3459Y1160D01*
X1Y1159D02*
X8Y1159D01*
X3452Y1159D02*
X3459Y1159D01*
X1Y1158D02*
X8Y1158D01*
X3452Y1158D02*
X3459Y1158D01*
X1Y1157D02*
X8Y1157D01*
X3452Y1157D02*
X3459Y1157D01*
X1Y1156D02*
X8Y1156D01*
X3452Y1156D02*
X3459Y1156D01*
X1Y1155D02*
X8Y1155D01*
X3452Y1155D02*
X3459Y1155D01*
X1Y1154D02*
X8Y1154D01*
X3452Y1154D02*
X3459Y1154D01*
X1Y1153D02*
X8Y1153D01*
X3452Y1153D02*
X3459Y1153D01*
X1Y1152D02*
X8Y1152D01*
X3452Y1152D02*
X3459Y1152D01*
X1Y1151D02*
X8Y1151D01*
X3452Y1151D02*
X3459Y1151D01*
X1Y1150D02*
X8Y1150D01*
X3452Y1150D02*
X3459Y1150D01*
X1Y1149D02*
X8Y1149D01*
X3452Y1149D02*
X3459Y1149D01*
X1Y1148D02*
X8Y1148D01*
X3452Y1148D02*
X3459Y1148D01*
X1Y1147D02*
X8Y1147D01*
X3452Y1147D02*
X3459Y1147D01*
X1Y1146D02*
X8Y1146D01*
X3452Y1146D02*
X3459Y1146D01*
X1Y1145D02*
X8Y1145D01*
X3452Y1145D02*
X3459Y1145D01*
X1Y1144D02*
X8Y1144D01*
X3452Y1144D02*
X3459Y1144D01*
X1Y1143D02*
X8Y1143D01*
X3452Y1143D02*
X3459Y1143D01*
X1Y1142D02*
X8Y1142D01*
X3452Y1142D02*
X3459Y1142D01*
X1Y1141D02*
X8Y1141D01*
X3452Y1141D02*
X3459Y1141D01*
X1Y1140D02*
X8Y1140D01*
X3452Y1140D02*
X3459Y1140D01*
X1Y1139D02*
X8Y1139D01*
X3452Y1139D02*
X3459Y1139D01*
X1Y1138D02*
X8Y1138D01*
X3452Y1138D02*
X3459Y1138D01*
X1Y1137D02*
X8Y1137D01*
X3452Y1137D02*
X3459Y1137D01*
X1Y1136D02*
X8Y1136D01*
X3452Y1136D02*
X3459Y1136D01*
X1Y1135D02*
X8Y1135D01*
X3452Y1135D02*
X3459Y1135D01*
X1Y1134D02*
X8Y1134D01*
X3452Y1134D02*
X3459Y1134D01*
X1Y1133D02*
X8Y1133D01*
X3452Y1133D02*
X3459Y1133D01*
X1Y1132D02*
X8Y1132D01*
X3452Y1132D02*
X3459Y1132D01*
X1Y1131D02*
X8Y1131D01*
X3452Y1131D02*
X3459Y1131D01*
X1Y1130D02*
X8Y1130D01*
X3452Y1130D02*
X3459Y1130D01*
X1Y1129D02*
X8Y1129D01*
X3452Y1129D02*
X3459Y1129D01*
X1Y1128D02*
X8Y1128D01*
X3452Y1128D02*
X3459Y1128D01*
X1Y1127D02*
X8Y1127D01*
X3452Y1127D02*
X3459Y1127D01*
X1Y1126D02*
X8Y1126D01*
X3452Y1126D02*
X3459Y1126D01*
X1Y1125D02*
X8Y1125D01*
X3452Y1125D02*
X3459Y1125D01*
X1Y1124D02*
X8Y1124D01*
X3452Y1124D02*
X3459Y1124D01*
X1Y1123D02*
X8Y1123D01*
X3452Y1123D02*
X3459Y1123D01*
X1Y1122D02*
X8Y1122D01*
X3452Y1122D02*
X3459Y1122D01*
X1Y1121D02*
X8Y1121D01*
X3452Y1121D02*
X3459Y1121D01*
X1Y1120D02*
X8Y1120D01*
X3452Y1120D02*
X3459Y1120D01*
X1Y1119D02*
X8Y1119D01*
X3452Y1119D02*
X3459Y1119D01*
X1Y1118D02*
X8Y1118D01*
X3452Y1118D02*
X3459Y1118D01*
X1Y1117D02*
X8Y1117D01*
X3452Y1117D02*
X3459Y1117D01*
X1Y1116D02*
X8Y1116D01*
X3452Y1116D02*
X3459Y1116D01*
X1Y1115D02*
X8Y1115D01*
X3452Y1115D02*
X3459Y1115D01*
X1Y1114D02*
X8Y1114D01*
X3452Y1114D02*
X3459Y1114D01*
X1Y1113D02*
X8Y1113D01*
X3452Y1113D02*
X3459Y1113D01*
X1Y1112D02*
X8Y1112D01*
X3452Y1112D02*
X3459Y1112D01*
X1Y1111D02*
X8Y1111D01*
X3452Y1111D02*
X3459Y1111D01*
X1Y1110D02*
X8Y1110D01*
X3452Y1110D02*
X3459Y1110D01*
X1Y1109D02*
X8Y1109D01*
X3452Y1109D02*
X3459Y1109D01*
X1Y1108D02*
X8Y1108D01*
X3452Y1108D02*
X3459Y1108D01*
X1Y1107D02*
X8Y1107D01*
X3452Y1107D02*
X3459Y1107D01*
X1Y1106D02*
X8Y1106D01*
X3452Y1106D02*
X3459Y1106D01*
X1Y1105D02*
X8Y1105D01*
X3452Y1105D02*
X3459Y1105D01*
X1Y1104D02*
X8Y1104D01*
X3452Y1104D02*
X3459Y1104D01*
X1Y1103D02*
X8Y1103D01*
X3452Y1103D02*
X3459Y1103D01*
X1Y1102D02*
X8Y1102D01*
X3452Y1102D02*
X3459Y1102D01*
X1Y1101D02*
X8Y1101D01*
X3452Y1101D02*
X3459Y1101D01*
X1Y1100D02*
X8Y1100D01*
X3452Y1100D02*
X3459Y1100D01*
X1Y1099D02*
X8Y1099D01*
X3452Y1099D02*
X3459Y1099D01*
X1Y1098D02*
X8Y1098D01*
X3452Y1098D02*
X3459Y1098D01*
X1Y1097D02*
X8Y1097D01*
X3452Y1097D02*
X3459Y1097D01*
X1Y1096D02*
X8Y1096D01*
X3452Y1096D02*
X3459Y1096D01*
X1Y1095D02*
X8Y1095D01*
X3452Y1095D02*
X3459Y1095D01*
X1Y1094D02*
X8Y1094D01*
X3452Y1094D02*
X3459Y1094D01*
X1Y1093D02*
X8Y1093D01*
X3452Y1093D02*
X3459Y1093D01*
X1Y1092D02*
X8Y1092D01*
X3452Y1092D02*
X3459Y1092D01*
X1Y1091D02*
X8Y1091D01*
X3452Y1091D02*
X3459Y1091D01*
X1Y1090D02*
X8Y1090D01*
X3452Y1090D02*
X3459Y1090D01*
X1Y1089D02*
X8Y1089D01*
X3452Y1089D02*
X3459Y1089D01*
X1Y1088D02*
X8Y1088D01*
X3452Y1088D02*
X3459Y1088D01*
X1Y1087D02*
X8Y1087D01*
X3452Y1087D02*
X3459Y1087D01*
X1Y1086D02*
X8Y1086D01*
X3452Y1086D02*
X3459Y1086D01*
X1Y1085D02*
X8Y1085D01*
X3452Y1085D02*
X3459Y1085D01*
X1Y1084D02*
X8Y1084D01*
X3452Y1084D02*
X3459Y1084D01*
X1Y1083D02*
X8Y1083D01*
X3452Y1083D02*
X3459Y1083D01*
X1Y1082D02*
X8Y1082D01*
X3452Y1082D02*
X3459Y1082D01*
X1Y1081D02*
X8Y1081D01*
X3452Y1081D02*
X3459Y1081D01*
X1Y1080D02*
X8Y1080D01*
X3452Y1080D02*
X3459Y1080D01*
X1Y1079D02*
X8Y1079D01*
X3452Y1079D02*
X3459Y1079D01*
X1Y1078D02*
X8Y1078D01*
X3452Y1078D02*
X3459Y1078D01*
X1Y1077D02*
X8Y1077D01*
X3452Y1077D02*
X3459Y1077D01*
X1Y1076D02*
X8Y1076D01*
X3452Y1076D02*
X3459Y1076D01*
X1Y1075D02*
X8Y1075D01*
X3452Y1075D02*
X3459Y1075D01*
X1Y1074D02*
X8Y1074D01*
X3452Y1074D02*
X3459Y1074D01*
X1Y1073D02*
X8Y1073D01*
X3452Y1073D02*
X3459Y1073D01*
X1Y1072D02*
X8Y1072D01*
X3452Y1072D02*
X3459Y1072D01*
X1Y1071D02*
X8Y1071D01*
X3452Y1071D02*
X3459Y1071D01*
X1Y1070D02*
X8Y1070D01*
X3452Y1070D02*
X3459Y1070D01*
X1Y1069D02*
X8Y1069D01*
X3452Y1069D02*
X3459Y1069D01*
X1Y1068D02*
X8Y1068D01*
X3452Y1068D02*
X3459Y1068D01*
X1Y1067D02*
X8Y1067D01*
X3452Y1067D02*
X3459Y1067D01*
X1Y1066D02*
X8Y1066D01*
X3452Y1066D02*
X3459Y1066D01*
X1Y1065D02*
X8Y1065D01*
X3452Y1065D02*
X3459Y1065D01*
X1Y1064D02*
X8Y1064D01*
X3452Y1064D02*
X3459Y1064D01*
X1Y1063D02*
X8Y1063D01*
X3452Y1063D02*
X3459Y1063D01*
X1Y1062D02*
X8Y1062D01*
X3452Y1062D02*
X3459Y1062D01*
X1Y1061D02*
X8Y1061D01*
X3452Y1061D02*
X3459Y1061D01*
X1Y1060D02*
X8Y1060D01*
X3452Y1060D02*
X3459Y1060D01*
X1Y1059D02*
X8Y1059D01*
X3452Y1059D02*
X3459Y1059D01*
X1Y1058D02*
X8Y1058D01*
X3452Y1058D02*
X3459Y1058D01*
X1Y1057D02*
X8Y1057D01*
X3452Y1057D02*
X3459Y1057D01*
X1Y1056D02*
X8Y1056D01*
X3452Y1056D02*
X3459Y1056D01*
X1Y1055D02*
X8Y1055D01*
X3452Y1055D02*
X3459Y1055D01*
X1Y1054D02*
X8Y1054D01*
X3452Y1054D02*
X3459Y1054D01*
X1Y1053D02*
X8Y1053D01*
X3452Y1053D02*
X3459Y1053D01*
X1Y1052D02*
X8Y1052D01*
X3452Y1052D02*
X3459Y1052D01*
X1Y1051D02*
X8Y1051D01*
X3452Y1051D02*
X3459Y1051D01*
X1Y1050D02*
X8Y1050D01*
X3452Y1050D02*
X3459Y1050D01*
X1Y1049D02*
X8Y1049D01*
X3452Y1049D02*
X3459Y1049D01*
X1Y1048D02*
X8Y1048D01*
X3452Y1048D02*
X3459Y1048D01*
X1Y1047D02*
X8Y1047D01*
X3452Y1047D02*
X3459Y1047D01*
X1Y1046D02*
X8Y1046D01*
X3452Y1046D02*
X3459Y1046D01*
X1Y1045D02*
X8Y1045D01*
X3452Y1045D02*
X3459Y1045D01*
X1Y1044D02*
X8Y1044D01*
X3452Y1044D02*
X3459Y1044D01*
X1Y1043D02*
X8Y1043D01*
X3452Y1043D02*
X3459Y1043D01*
X1Y1042D02*
X8Y1042D01*
X3452Y1042D02*
X3459Y1042D01*
X1Y1041D02*
X8Y1041D01*
X3452Y1041D02*
X3459Y1041D01*
X1Y1040D02*
X8Y1040D01*
X3452Y1040D02*
X3459Y1040D01*
X1Y1039D02*
X8Y1039D01*
X3452Y1039D02*
X3459Y1039D01*
X1Y1038D02*
X8Y1038D01*
X3452Y1038D02*
X3459Y1038D01*
X1Y1037D02*
X8Y1037D01*
X3452Y1037D02*
X3459Y1037D01*
X1Y1036D02*
X8Y1036D01*
X3452Y1036D02*
X3459Y1036D01*
X1Y1035D02*
X8Y1035D01*
X3452Y1035D02*
X3459Y1035D01*
X1Y1034D02*
X8Y1034D01*
X3452Y1034D02*
X3459Y1034D01*
X1Y1033D02*
X8Y1033D01*
X3452Y1033D02*
X3459Y1033D01*
X1Y1032D02*
X8Y1032D01*
X3452Y1032D02*
X3459Y1032D01*
X1Y1031D02*
X8Y1031D01*
X3452Y1031D02*
X3459Y1031D01*
X1Y1030D02*
X8Y1030D01*
X3452Y1030D02*
X3459Y1030D01*
X1Y1029D02*
X8Y1029D01*
X3452Y1029D02*
X3459Y1029D01*
X1Y1028D02*
X8Y1028D01*
X3452Y1028D02*
X3459Y1028D01*
X1Y1027D02*
X8Y1027D01*
X3452Y1027D02*
X3459Y1027D01*
X1Y1026D02*
X8Y1026D01*
X3452Y1026D02*
X3459Y1026D01*
X1Y1025D02*
X8Y1025D01*
X3452Y1025D02*
X3459Y1025D01*
X1Y1024D02*
X8Y1024D01*
X3452Y1024D02*
X3459Y1024D01*
X1Y1023D02*
X8Y1023D01*
X3452Y1023D02*
X3459Y1023D01*
X1Y1022D02*
X8Y1022D01*
X3452Y1022D02*
X3459Y1022D01*
X1Y1021D02*
X8Y1021D01*
X3452Y1021D02*
X3459Y1021D01*
X1Y1020D02*
X8Y1020D01*
X3452Y1020D02*
X3459Y1020D01*
X1Y1019D02*
X8Y1019D01*
X3452Y1019D02*
X3459Y1019D01*
X1Y1018D02*
X8Y1018D01*
X3452Y1018D02*
X3459Y1018D01*
X1Y1017D02*
X8Y1017D01*
X3452Y1017D02*
X3459Y1017D01*
X1Y1016D02*
X8Y1016D01*
X3452Y1016D02*
X3459Y1016D01*
X1Y1015D02*
X8Y1015D01*
X3452Y1015D02*
X3459Y1015D01*
X1Y1014D02*
X8Y1014D01*
X3452Y1014D02*
X3459Y1014D01*
X1Y1013D02*
X8Y1013D01*
X3452Y1013D02*
X3459Y1013D01*
X1Y1012D02*
X8Y1012D01*
X3452Y1012D02*
X3459Y1012D01*
X1Y1011D02*
X8Y1011D01*
X3452Y1011D02*
X3459Y1011D01*
X1Y1010D02*
X8Y1010D01*
X3452Y1010D02*
X3459Y1010D01*
X1Y1009D02*
X8Y1009D01*
X3452Y1009D02*
X3459Y1009D01*
X1Y1008D02*
X8Y1008D01*
X3452Y1008D02*
X3459Y1008D01*
X1Y1007D02*
X8Y1007D01*
X3452Y1007D02*
X3459Y1007D01*
X1Y1006D02*
X8Y1006D01*
X3452Y1006D02*
X3459Y1006D01*
X1Y1005D02*
X8Y1005D01*
X3452Y1005D02*
X3459Y1005D01*
X1Y1004D02*
X8Y1004D01*
X3452Y1004D02*
X3459Y1004D01*
X1Y1003D02*
X8Y1003D01*
X3452Y1003D02*
X3459Y1003D01*
X1Y1002D02*
X8Y1002D01*
X3452Y1002D02*
X3459Y1002D01*
X1Y1001D02*
X8Y1001D01*
X3452Y1001D02*
X3459Y1001D01*
X1Y1000D02*
X8Y1000D01*
X3452Y1000D02*
X3459Y1000D01*
X1Y999D02*
X8Y999D01*
X3452Y999D02*
X3459Y999D01*
X1Y998D02*
X8Y998D01*
X3452Y998D02*
X3459Y998D01*
X1Y997D02*
X8Y997D01*
X3452Y997D02*
X3459Y997D01*
X1Y996D02*
X8Y996D01*
X3452Y996D02*
X3459Y996D01*
X1Y995D02*
X8Y995D01*
X3452Y995D02*
X3459Y995D01*
X1Y994D02*
X8Y994D01*
X3452Y994D02*
X3459Y994D01*
X1Y993D02*
X8Y993D01*
X3452Y993D02*
X3459Y993D01*
X1Y992D02*
X8Y992D01*
X3452Y992D02*
X3459Y992D01*
X1Y991D02*
X8Y991D01*
X3452Y991D02*
X3459Y991D01*
X1Y990D02*
X8Y990D01*
X3452Y990D02*
X3459Y990D01*
X1Y989D02*
X8Y989D01*
X3452Y989D02*
X3459Y989D01*
X1Y988D02*
X8Y988D01*
X3452Y988D02*
X3459Y988D01*
X1Y987D02*
X8Y987D01*
X3452Y987D02*
X3459Y987D01*
X1Y986D02*
X8Y986D01*
X3452Y986D02*
X3459Y986D01*
X1Y985D02*
X8Y985D01*
X3452Y985D02*
X3459Y985D01*
X1Y984D02*
X8Y984D01*
X3452Y984D02*
X3459Y984D01*
X1Y983D02*
X8Y983D01*
X3452Y983D02*
X3459Y983D01*
X1Y982D02*
X8Y982D01*
X3452Y982D02*
X3459Y982D01*
X1Y981D02*
X8Y981D01*
X3452Y981D02*
X3459Y981D01*
X1Y980D02*
X8Y980D01*
X3452Y980D02*
X3459Y980D01*
X1Y979D02*
X8Y979D01*
X3452Y979D02*
X3459Y979D01*
X1Y978D02*
X8Y978D01*
X3452Y978D02*
X3459Y978D01*
X1Y977D02*
X8Y977D01*
X3452Y977D02*
X3459Y977D01*
X1Y976D02*
X8Y976D01*
X3452Y976D02*
X3459Y976D01*
X1Y975D02*
X8Y975D01*
X3452Y975D02*
X3459Y975D01*
X1Y974D02*
X8Y974D01*
X3452Y974D02*
X3459Y974D01*
X1Y973D02*
X8Y973D01*
X3452Y973D02*
X3459Y973D01*
X1Y972D02*
X8Y972D01*
X3452Y972D02*
X3459Y972D01*
X1Y971D02*
X8Y971D01*
X3452Y971D02*
X3459Y971D01*
X1Y970D02*
X8Y970D01*
X3452Y970D02*
X3459Y970D01*
X1Y969D02*
X8Y969D01*
X3452Y969D02*
X3459Y969D01*
X1Y968D02*
X8Y968D01*
X3452Y968D02*
X3459Y968D01*
X1Y967D02*
X8Y967D01*
X3452Y967D02*
X3459Y967D01*
X1Y966D02*
X8Y966D01*
X3452Y966D02*
X3459Y966D01*
X1Y965D02*
X8Y965D01*
X3452Y965D02*
X3459Y965D01*
X1Y964D02*
X8Y964D01*
X3452Y964D02*
X3459Y964D01*
X1Y963D02*
X8Y963D01*
X3452Y963D02*
X3459Y963D01*
X1Y962D02*
X8Y962D01*
X3452Y962D02*
X3459Y962D01*
X1Y961D02*
X8Y961D01*
X3452Y961D02*
X3459Y961D01*
X1Y960D02*
X8Y960D01*
X3452Y960D02*
X3459Y960D01*
X1Y959D02*
X8Y959D01*
X3452Y959D02*
X3459Y959D01*
X1Y958D02*
X8Y958D01*
X3452Y958D02*
X3459Y958D01*
X1Y957D02*
X8Y957D01*
X3452Y957D02*
X3459Y957D01*
X1Y956D02*
X8Y956D01*
X3452Y956D02*
X3459Y956D01*
X1Y955D02*
X8Y955D01*
X3452Y955D02*
X3459Y955D01*
X1Y954D02*
X8Y954D01*
X3452Y954D02*
X3459Y954D01*
X1Y953D02*
X8Y953D01*
X3452Y953D02*
X3459Y953D01*
X1Y952D02*
X8Y952D01*
X3452Y952D02*
X3459Y952D01*
X1Y951D02*
X8Y951D01*
X3452Y951D02*
X3459Y951D01*
X1Y950D02*
X8Y950D01*
X3452Y950D02*
X3459Y950D01*
X1Y949D02*
X8Y949D01*
X3452Y949D02*
X3459Y949D01*
X1Y948D02*
X8Y948D01*
X3452Y948D02*
X3459Y948D01*
X1Y947D02*
X8Y947D01*
X3452Y947D02*
X3459Y947D01*
X1Y946D02*
X8Y946D01*
X3452Y946D02*
X3459Y946D01*
X1Y945D02*
X8Y945D01*
X3452Y945D02*
X3459Y945D01*
X1Y944D02*
X8Y944D01*
X3452Y944D02*
X3459Y944D01*
X1Y943D02*
X8Y943D01*
X3452Y943D02*
X3459Y943D01*
X1Y942D02*
X8Y942D01*
X3452Y942D02*
X3459Y942D01*
X1Y941D02*
X8Y941D01*
X3452Y941D02*
X3459Y941D01*
X1Y940D02*
X8Y940D01*
X3452Y940D02*
X3459Y940D01*
X1Y939D02*
X8Y939D01*
X3452Y939D02*
X3459Y939D01*
X1Y938D02*
X8Y938D01*
X3452Y938D02*
X3459Y938D01*
X1Y937D02*
X8Y937D01*
X3452Y937D02*
X3459Y937D01*
X1Y936D02*
X8Y936D01*
X3452Y936D02*
X3459Y936D01*
X1Y935D02*
X8Y935D01*
X3452Y935D02*
X3459Y935D01*
X1Y934D02*
X8Y934D01*
X3452Y934D02*
X3459Y934D01*
X1Y933D02*
X8Y933D01*
X3452Y933D02*
X3459Y933D01*
X1Y932D02*
X8Y932D01*
X3452Y932D02*
X3459Y932D01*
X1Y931D02*
X8Y931D01*
X3452Y931D02*
X3459Y931D01*
X1Y930D02*
X8Y930D01*
X3452Y930D02*
X3459Y930D01*
X1Y929D02*
X8Y929D01*
X3452Y929D02*
X3459Y929D01*
X1Y928D02*
X8Y928D01*
X3452Y928D02*
X3459Y928D01*
X1Y927D02*
X8Y927D01*
X3452Y927D02*
X3459Y927D01*
X1Y926D02*
X8Y926D01*
X3452Y926D02*
X3459Y926D01*
X1Y925D02*
X8Y925D01*
X3452Y925D02*
X3459Y925D01*
X1Y924D02*
X8Y924D01*
X3452Y924D02*
X3459Y924D01*
X1Y923D02*
X8Y923D01*
X3452Y923D02*
X3459Y923D01*
X1Y922D02*
X8Y922D01*
X3452Y922D02*
X3459Y922D01*
X1Y921D02*
X8Y921D01*
X3452Y921D02*
X3459Y921D01*
X1Y920D02*
X8Y920D01*
X3452Y920D02*
X3459Y920D01*
X1Y919D02*
X8Y919D01*
X3452Y919D02*
X3459Y919D01*
X1Y918D02*
X8Y918D01*
X3452Y918D02*
X3459Y918D01*
X1Y917D02*
X8Y917D01*
X3452Y917D02*
X3459Y917D01*
X1Y916D02*
X8Y916D01*
X3452Y916D02*
X3459Y916D01*
X1Y915D02*
X8Y915D01*
X3452Y915D02*
X3459Y915D01*
X1Y914D02*
X8Y914D01*
X3452Y914D02*
X3459Y914D01*
X1Y913D02*
X8Y913D01*
X3452Y913D02*
X3459Y913D01*
X1Y912D02*
X8Y912D01*
X3452Y912D02*
X3459Y912D01*
X1Y911D02*
X8Y911D01*
X3452Y911D02*
X3459Y911D01*
X1Y910D02*
X8Y910D01*
X3452Y910D02*
X3459Y910D01*
X1Y909D02*
X8Y909D01*
X3452Y909D02*
X3459Y909D01*
X1Y908D02*
X8Y908D01*
X3452Y908D02*
X3459Y908D01*
X1Y907D02*
X8Y907D01*
X3452Y907D02*
X3459Y907D01*
X1Y906D02*
X8Y906D01*
X3452Y906D02*
X3459Y906D01*
X1Y905D02*
X8Y905D01*
X3452Y905D02*
X3459Y905D01*
X1Y904D02*
X8Y904D01*
X3452Y904D02*
X3459Y904D01*
X1Y903D02*
X8Y903D01*
X3452Y903D02*
X3459Y903D01*
X1Y902D02*
X8Y902D01*
X3452Y902D02*
X3459Y902D01*
X1Y901D02*
X8Y901D01*
X3452Y901D02*
X3459Y901D01*
X1Y900D02*
X8Y900D01*
X3452Y900D02*
X3459Y900D01*
X1Y899D02*
X8Y899D01*
X3452Y899D02*
X3459Y899D01*
X1Y898D02*
X8Y898D01*
X3452Y898D02*
X3459Y898D01*
X1Y897D02*
X8Y897D01*
X3452Y897D02*
X3459Y897D01*
X1Y896D02*
X8Y896D01*
X3452Y896D02*
X3459Y896D01*
X1Y895D02*
X8Y895D01*
X3452Y895D02*
X3459Y895D01*
X1Y894D02*
X8Y894D01*
X3452Y894D02*
X3459Y894D01*
X1Y893D02*
X8Y893D01*
X3452Y893D02*
X3459Y893D01*
X1Y892D02*
X8Y892D01*
X3452Y892D02*
X3459Y892D01*
X1Y891D02*
X8Y891D01*
X3452Y891D02*
X3459Y891D01*
X1Y890D02*
X8Y890D01*
X3452Y890D02*
X3459Y890D01*
X1Y889D02*
X8Y889D01*
X3452Y889D02*
X3459Y889D01*
X1Y888D02*
X8Y888D01*
X3452Y888D02*
X3459Y888D01*
X1Y887D02*
X8Y887D01*
X3452Y887D02*
X3459Y887D01*
X1Y886D02*
X8Y886D01*
X3452Y886D02*
X3459Y886D01*
X1Y885D02*
X8Y885D01*
X3452Y885D02*
X3459Y885D01*
X1Y884D02*
X8Y884D01*
X3452Y884D02*
X3459Y884D01*
X1Y883D02*
X8Y883D01*
X3452Y883D02*
X3459Y883D01*
X1Y882D02*
X8Y882D01*
X3452Y882D02*
X3459Y882D01*
X1Y881D02*
X8Y881D01*
X3452Y881D02*
X3459Y881D01*
X1Y880D02*
X8Y880D01*
X3452Y880D02*
X3459Y880D01*
X1Y879D02*
X8Y879D01*
X3452Y879D02*
X3459Y879D01*
X1Y878D02*
X8Y878D01*
X3452Y878D02*
X3459Y878D01*
X1Y877D02*
X8Y877D01*
X3452Y877D02*
X3459Y877D01*
X1Y876D02*
X8Y876D01*
X3452Y876D02*
X3459Y876D01*
X1Y875D02*
X8Y875D01*
X3452Y875D02*
X3459Y875D01*
X1Y874D02*
X8Y874D01*
X3452Y874D02*
X3459Y874D01*
X1Y873D02*
X8Y873D01*
X3452Y873D02*
X3459Y873D01*
X1Y872D02*
X8Y872D01*
X3452Y872D02*
X3459Y872D01*
X1Y871D02*
X8Y871D01*
X3452Y871D02*
X3459Y871D01*
X1Y870D02*
X8Y870D01*
X3452Y870D02*
X3459Y870D01*
X1Y869D02*
X8Y869D01*
X3452Y869D02*
X3459Y869D01*
X1Y868D02*
X8Y868D01*
X3452Y868D02*
X3459Y868D01*
X1Y867D02*
X8Y867D01*
X3452Y867D02*
X3459Y867D01*
X1Y866D02*
X8Y866D01*
X3452Y866D02*
X3459Y866D01*
X1Y865D02*
X8Y865D01*
X3452Y865D02*
X3459Y865D01*
X1Y864D02*
X8Y864D01*
X3452Y864D02*
X3459Y864D01*
X1Y863D02*
X8Y863D01*
X3452Y863D02*
X3459Y863D01*
X1Y862D02*
X8Y862D01*
X3452Y862D02*
X3459Y862D01*
X1Y861D02*
X8Y861D01*
X3452Y861D02*
X3459Y861D01*
X1Y860D02*
X8Y860D01*
X3452Y860D02*
X3459Y860D01*
X1Y859D02*
X8Y859D01*
X3452Y859D02*
X3459Y859D01*
X1Y858D02*
X8Y858D01*
X3452Y858D02*
X3459Y858D01*
X1Y857D02*
X8Y857D01*
X3452Y857D02*
X3459Y857D01*
X1Y856D02*
X8Y856D01*
X3452Y856D02*
X3459Y856D01*
X1Y855D02*
X8Y855D01*
X3452Y855D02*
X3459Y855D01*
X1Y854D02*
X8Y854D01*
X3452Y854D02*
X3459Y854D01*
X1Y853D02*
X8Y853D01*
X3452Y853D02*
X3459Y853D01*
X1Y852D02*
X8Y852D01*
X3452Y852D02*
X3459Y852D01*
X1Y851D02*
X8Y851D01*
X3452Y851D02*
X3459Y851D01*
X1Y850D02*
X8Y850D01*
X3452Y850D02*
X3459Y850D01*
X1Y849D02*
X8Y849D01*
X3452Y849D02*
X3459Y849D01*
X1Y848D02*
X8Y848D01*
X3452Y848D02*
X3459Y848D01*
X1Y847D02*
X8Y847D01*
X3452Y847D02*
X3459Y847D01*
X1Y846D02*
X8Y846D01*
X3452Y846D02*
X3459Y846D01*
X1Y845D02*
X8Y845D01*
X3452Y845D02*
X3459Y845D01*
X1Y844D02*
X8Y844D01*
X3452Y844D02*
X3459Y844D01*
X1Y843D02*
X8Y843D01*
X3452Y843D02*
X3459Y843D01*
X1Y842D02*
X8Y842D01*
X3452Y842D02*
X3459Y842D01*
X1Y841D02*
X8Y841D01*
X3452Y841D02*
X3459Y841D01*
X1Y840D02*
X8Y840D01*
X3452Y840D02*
X3459Y840D01*
X1Y839D02*
X8Y839D01*
X3452Y839D02*
X3459Y839D01*
X1Y838D02*
X8Y838D01*
X3452Y838D02*
X3459Y838D01*
X1Y837D02*
X8Y837D01*
X3452Y837D02*
X3459Y837D01*
X1Y836D02*
X8Y836D01*
X3452Y836D02*
X3459Y836D01*
X1Y835D02*
X8Y835D01*
X3452Y835D02*
X3459Y835D01*
X1Y834D02*
X8Y834D01*
X3452Y834D02*
X3459Y834D01*
X1Y833D02*
X8Y833D01*
X3452Y833D02*
X3459Y833D01*
X1Y832D02*
X8Y832D01*
X3452Y832D02*
X3459Y832D01*
X1Y831D02*
X8Y831D01*
X3452Y831D02*
X3459Y831D01*
X1Y830D02*
X8Y830D01*
X3452Y830D02*
X3459Y830D01*
X1Y829D02*
X8Y829D01*
X3452Y829D02*
X3459Y829D01*
X1Y828D02*
X8Y828D01*
X3452Y828D02*
X3459Y828D01*
X1Y827D02*
X8Y827D01*
X3452Y827D02*
X3459Y827D01*
X1Y826D02*
X8Y826D01*
X3452Y826D02*
X3459Y826D01*
X1Y825D02*
X8Y825D01*
X3452Y825D02*
X3459Y825D01*
X1Y824D02*
X8Y824D01*
X3452Y824D02*
X3459Y824D01*
X1Y823D02*
X8Y823D01*
X3452Y823D02*
X3459Y823D01*
X1Y822D02*
X8Y822D01*
X3452Y822D02*
X3459Y822D01*
X1Y821D02*
X8Y821D01*
X3452Y821D02*
X3459Y821D01*
X1Y820D02*
X8Y820D01*
X3452Y820D02*
X3459Y820D01*
X1Y819D02*
X8Y819D01*
X3452Y819D02*
X3459Y819D01*
X1Y818D02*
X8Y818D01*
X3452Y818D02*
X3459Y818D01*
X1Y817D02*
X8Y817D01*
X3452Y817D02*
X3459Y817D01*
X1Y816D02*
X8Y816D01*
X3452Y816D02*
X3459Y816D01*
X1Y815D02*
X8Y815D01*
X3452Y815D02*
X3459Y815D01*
X1Y814D02*
X8Y814D01*
X3452Y814D02*
X3459Y814D01*
X1Y813D02*
X8Y813D01*
X3452Y813D02*
X3459Y813D01*
X1Y812D02*
X8Y812D01*
X3452Y812D02*
X3459Y812D01*
X1Y811D02*
X8Y811D01*
X3452Y811D02*
X3459Y811D01*
X1Y810D02*
X8Y810D01*
X3452Y810D02*
X3459Y810D01*
X1Y809D02*
X8Y809D01*
X3452Y809D02*
X3459Y809D01*
X1Y808D02*
X8Y808D01*
X3452Y808D02*
X3459Y808D01*
X1Y807D02*
X8Y807D01*
X3452Y807D02*
X3459Y807D01*
X1Y806D02*
X8Y806D01*
X3452Y806D02*
X3459Y806D01*
X1Y805D02*
X8Y805D01*
X3452Y805D02*
X3459Y805D01*
X1Y804D02*
X8Y804D01*
X3452Y804D02*
X3459Y804D01*
X1Y803D02*
X8Y803D01*
X3452Y803D02*
X3459Y803D01*
X1Y802D02*
X8Y802D01*
X3452Y802D02*
X3459Y802D01*
X1Y801D02*
X8Y801D01*
X3452Y801D02*
X3459Y801D01*
X1Y800D02*
X8Y800D01*
X3452Y800D02*
X3459Y800D01*
X1Y799D02*
X8Y799D01*
X3452Y799D02*
X3459Y799D01*
X1Y798D02*
X8Y798D01*
X3452Y798D02*
X3459Y798D01*
X1Y797D02*
X8Y797D01*
X3452Y797D02*
X3459Y797D01*
X1Y796D02*
X8Y796D01*
X3452Y796D02*
X3459Y796D01*
X1Y795D02*
X8Y795D01*
X3452Y795D02*
X3459Y795D01*
X1Y794D02*
X8Y794D01*
X3452Y794D02*
X3459Y794D01*
X1Y793D02*
X8Y793D01*
X3452Y793D02*
X3459Y793D01*
X1Y792D02*
X8Y792D01*
X3452Y792D02*
X3459Y792D01*
X1Y791D02*
X8Y791D01*
X3452Y791D02*
X3459Y791D01*
X1Y790D02*
X8Y790D01*
X3452Y790D02*
X3459Y790D01*
X1Y789D02*
X8Y789D01*
X3452Y789D02*
X3459Y789D01*
X1Y788D02*
X8Y788D01*
X3452Y788D02*
X3459Y788D01*
X1Y787D02*
X8Y787D01*
X3452Y787D02*
X3459Y787D01*
X1Y786D02*
X8Y786D01*
X3452Y786D02*
X3459Y786D01*
X1Y785D02*
X8Y785D01*
X3452Y785D02*
X3459Y785D01*
X1Y784D02*
X8Y784D01*
X3452Y784D02*
X3459Y784D01*
X1Y783D02*
X8Y783D01*
X3452Y783D02*
X3459Y783D01*
X1Y782D02*
X8Y782D01*
X3452Y782D02*
X3459Y782D01*
X1Y781D02*
X8Y781D01*
X3452Y781D02*
X3459Y781D01*
X1Y780D02*
X8Y780D01*
X3452Y780D02*
X3459Y780D01*
X1Y779D02*
X8Y779D01*
X3452Y779D02*
X3459Y779D01*
X1Y778D02*
X8Y778D01*
X3452Y778D02*
X3459Y778D01*
X1Y777D02*
X8Y777D01*
X3452Y777D02*
X3459Y777D01*
X1Y776D02*
X8Y776D01*
X3452Y776D02*
X3459Y776D01*
X1Y775D02*
X8Y775D01*
X3452Y775D02*
X3459Y775D01*
X1Y774D02*
X8Y774D01*
X3452Y774D02*
X3459Y774D01*
X1Y773D02*
X8Y773D01*
X3452Y773D02*
X3459Y773D01*
X1Y772D02*
X8Y772D01*
X3452Y772D02*
X3459Y772D01*
X1Y771D02*
X8Y771D01*
X3452Y771D02*
X3459Y771D01*
X1Y770D02*
X8Y770D01*
X3452Y770D02*
X3459Y770D01*
X1Y769D02*
X8Y769D01*
X3452Y769D02*
X3459Y769D01*
X1Y768D02*
X8Y768D01*
X3452Y768D02*
X3459Y768D01*
X1Y767D02*
X8Y767D01*
X3452Y767D02*
X3459Y767D01*
X1Y766D02*
X8Y766D01*
X3452Y766D02*
X3459Y766D01*
X1Y765D02*
X8Y765D01*
X3452Y765D02*
X3459Y765D01*
X1Y764D02*
X8Y764D01*
X3452Y764D02*
X3459Y764D01*
X1Y763D02*
X8Y763D01*
X3452Y763D02*
X3459Y763D01*
X1Y762D02*
X8Y762D01*
X3452Y762D02*
X3459Y762D01*
X1Y761D02*
X8Y761D01*
X3452Y761D02*
X3459Y761D01*
X1Y760D02*
X8Y760D01*
X3452Y760D02*
X3459Y760D01*
X1Y759D02*
X8Y759D01*
X3452Y759D02*
X3459Y759D01*
X1Y758D02*
X8Y758D01*
X3452Y758D02*
X3459Y758D01*
X1Y757D02*
X8Y757D01*
X3452Y757D02*
X3459Y757D01*
X1Y756D02*
X8Y756D01*
X3452Y756D02*
X3459Y756D01*
X1Y755D02*
X8Y755D01*
X3452Y755D02*
X3459Y755D01*
X1Y754D02*
X8Y754D01*
X3452Y754D02*
X3459Y754D01*
X1Y753D02*
X8Y753D01*
X3452Y753D02*
X3459Y753D01*
X1Y752D02*
X8Y752D01*
X3452Y752D02*
X3459Y752D01*
X1Y751D02*
X8Y751D01*
X3452Y751D02*
X3459Y751D01*
X1Y750D02*
X8Y750D01*
X3452Y750D02*
X3459Y750D01*
X1Y749D02*
X8Y749D01*
X3452Y749D02*
X3459Y749D01*
X1Y748D02*
X8Y748D01*
X3452Y748D02*
X3459Y748D01*
X1Y747D02*
X8Y747D01*
X3452Y747D02*
X3459Y747D01*
X1Y746D02*
X8Y746D01*
X3452Y746D02*
X3459Y746D01*
X1Y745D02*
X8Y745D01*
X3452Y745D02*
X3459Y745D01*
X1Y744D02*
X8Y744D01*
X3452Y744D02*
X3459Y744D01*
X1Y743D02*
X8Y743D01*
X3452Y743D02*
X3459Y743D01*
X1Y742D02*
X8Y742D01*
X3452Y742D02*
X3459Y742D01*
X1Y741D02*
X8Y741D01*
X3452Y741D02*
X3459Y741D01*
X1Y740D02*
X8Y740D01*
X3452Y740D02*
X3459Y740D01*
X1Y739D02*
X8Y739D01*
X3452Y739D02*
X3459Y739D01*
X1Y738D02*
X8Y738D01*
X3452Y738D02*
X3459Y738D01*
X1Y737D02*
X8Y737D01*
X3452Y737D02*
X3459Y737D01*
X1Y736D02*
X8Y736D01*
X3452Y736D02*
X3459Y736D01*
X1Y735D02*
X8Y735D01*
X3452Y735D02*
X3459Y735D01*
X1Y734D02*
X8Y734D01*
X3452Y734D02*
X3459Y734D01*
X1Y733D02*
X8Y733D01*
X3452Y733D02*
X3459Y733D01*
X1Y732D02*
X8Y732D01*
X3452Y732D02*
X3459Y732D01*
X1Y731D02*
X8Y731D01*
X3452Y731D02*
X3459Y731D01*
X1Y730D02*
X8Y730D01*
X3452Y730D02*
X3459Y730D01*
X1Y729D02*
X8Y729D01*
X3452Y729D02*
X3459Y729D01*
X1Y728D02*
X8Y728D01*
X3452Y728D02*
X3459Y728D01*
X1Y727D02*
X8Y727D01*
X3452Y727D02*
X3459Y727D01*
X1Y726D02*
X8Y726D01*
X3452Y726D02*
X3459Y726D01*
X1Y725D02*
X8Y725D01*
X3452Y725D02*
X3459Y725D01*
X1Y724D02*
X8Y724D01*
X3452Y724D02*
X3459Y724D01*
X1Y723D02*
X8Y723D01*
X3452Y723D02*
X3459Y723D01*
X1Y722D02*
X8Y722D01*
X3452Y722D02*
X3459Y722D01*
X1Y721D02*
X8Y721D01*
X3452Y721D02*
X3459Y721D01*
X1Y720D02*
X8Y720D01*
X3452Y720D02*
X3459Y720D01*
X1Y719D02*
X8Y719D01*
X3452Y719D02*
X3459Y719D01*
X1Y718D02*
X8Y718D01*
X3452Y718D02*
X3459Y718D01*
X1Y717D02*
X8Y717D01*
X3452Y717D02*
X3459Y717D01*
X1Y716D02*
X8Y716D01*
X3452Y716D02*
X3459Y716D01*
X1Y715D02*
X8Y715D01*
X3452Y715D02*
X3459Y715D01*
X1Y714D02*
X8Y714D01*
X3452Y714D02*
X3459Y714D01*
X1Y713D02*
X8Y713D01*
X3452Y713D02*
X3459Y713D01*
X1Y712D02*
X8Y712D01*
X3452Y712D02*
X3459Y712D01*
X1Y711D02*
X8Y711D01*
X3452Y711D02*
X3459Y711D01*
X1Y710D02*
X8Y710D01*
X3452Y710D02*
X3459Y710D01*
X1Y709D02*
X8Y709D01*
X3452Y709D02*
X3459Y709D01*
X1Y708D02*
X8Y708D01*
X3452Y708D02*
X3459Y708D01*
X1Y707D02*
X8Y707D01*
X3452Y707D02*
X3459Y707D01*
X1Y706D02*
X8Y706D01*
X3452Y706D02*
X3459Y706D01*
X1Y705D02*
X8Y705D01*
X3452Y705D02*
X3459Y705D01*
X1Y704D02*
X8Y704D01*
X3452Y704D02*
X3459Y704D01*
X1Y703D02*
X8Y703D01*
X3452Y703D02*
X3459Y703D01*
X1Y702D02*
X8Y702D01*
X3452Y702D02*
X3459Y702D01*
X1Y701D02*
X8Y701D01*
X3452Y701D02*
X3459Y701D01*
X1Y700D02*
X8Y700D01*
X3452Y700D02*
X3459Y700D01*
X1Y699D02*
X8Y699D01*
X3452Y699D02*
X3459Y699D01*
X1Y698D02*
X8Y698D01*
X3452Y698D02*
X3459Y698D01*
X1Y697D02*
X8Y697D01*
X3452Y697D02*
X3459Y697D01*
X1Y696D02*
X8Y696D01*
X3452Y696D02*
X3459Y696D01*
X1Y695D02*
X8Y695D01*
X3452Y695D02*
X3459Y695D01*
X1Y694D02*
X8Y694D01*
X3452Y694D02*
X3459Y694D01*
X1Y693D02*
X8Y693D01*
X3452Y693D02*
X3459Y693D01*
X1Y692D02*
X8Y692D01*
X3452Y692D02*
X3459Y692D01*
X1Y691D02*
X8Y691D01*
X3452Y691D02*
X3459Y691D01*
X1Y690D02*
X8Y690D01*
X3452Y690D02*
X3459Y690D01*
X1Y689D02*
X8Y689D01*
X3452Y689D02*
X3459Y689D01*
X1Y688D02*
X8Y688D01*
X3452Y688D02*
X3459Y688D01*
X1Y687D02*
X8Y687D01*
X3452Y687D02*
X3459Y687D01*
X1Y686D02*
X8Y686D01*
X3452Y686D02*
X3459Y686D01*
X1Y685D02*
X8Y685D01*
X3452Y685D02*
X3459Y685D01*
X1Y684D02*
X8Y684D01*
X3452Y684D02*
X3459Y684D01*
X1Y683D02*
X8Y683D01*
X3452Y683D02*
X3459Y683D01*
X1Y682D02*
X8Y682D01*
X3452Y682D02*
X3459Y682D01*
X1Y681D02*
X8Y681D01*
X3452Y681D02*
X3459Y681D01*
X1Y680D02*
X8Y680D01*
X3452Y680D02*
X3459Y680D01*
X1Y679D02*
X8Y679D01*
X3452Y679D02*
X3459Y679D01*
X1Y678D02*
X8Y678D01*
X3452Y678D02*
X3459Y678D01*
X1Y677D02*
X8Y677D01*
X3452Y677D02*
X3459Y677D01*
X1Y676D02*
X8Y676D01*
X3452Y676D02*
X3459Y676D01*
X1Y675D02*
X8Y675D01*
X3452Y675D02*
X3459Y675D01*
X1Y674D02*
X8Y674D01*
X3452Y674D02*
X3459Y674D01*
X1Y673D02*
X8Y673D01*
X3452Y673D02*
X3459Y673D01*
X1Y672D02*
X8Y672D01*
X3452Y672D02*
X3459Y672D01*
X1Y671D02*
X8Y671D01*
X3452Y671D02*
X3459Y671D01*
X1Y670D02*
X8Y670D01*
X3452Y670D02*
X3459Y670D01*
X1Y669D02*
X8Y669D01*
X3452Y669D02*
X3459Y669D01*
X1Y668D02*
X8Y668D01*
X3452Y668D02*
X3459Y668D01*
X1Y667D02*
X8Y667D01*
X3452Y667D02*
X3459Y667D01*
X1Y666D02*
X8Y666D01*
X3452Y666D02*
X3459Y666D01*
X1Y665D02*
X8Y665D01*
X3452Y665D02*
X3459Y665D01*
X1Y664D02*
X8Y664D01*
X3452Y664D02*
X3459Y664D01*
X1Y663D02*
X8Y663D01*
X3452Y663D02*
X3459Y663D01*
X1Y662D02*
X8Y662D01*
X3452Y662D02*
X3459Y662D01*
X1Y661D02*
X8Y661D01*
X3452Y661D02*
X3459Y661D01*
X1Y660D02*
X8Y660D01*
X3452Y660D02*
X3459Y660D01*
X1Y659D02*
X8Y659D01*
X3452Y659D02*
X3459Y659D01*
X1Y658D02*
X8Y658D01*
X3452Y658D02*
X3459Y658D01*
X1Y657D02*
X8Y657D01*
X3452Y657D02*
X3459Y657D01*
X1Y656D02*
X8Y656D01*
X3452Y656D02*
X3459Y656D01*
X1Y655D02*
X8Y655D01*
X3452Y655D02*
X3459Y655D01*
X1Y654D02*
X8Y654D01*
X3452Y654D02*
X3459Y654D01*
X1Y653D02*
X8Y653D01*
X3452Y653D02*
X3459Y653D01*
X1Y652D02*
X8Y652D01*
X3452Y652D02*
X3459Y652D01*
X1Y651D02*
X8Y651D01*
X3452Y651D02*
X3459Y651D01*
X1Y650D02*
X8Y650D01*
X3452Y650D02*
X3459Y650D01*
X1Y649D02*
X8Y649D01*
X3452Y649D02*
X3459Y649D01*
X1Y648D02*
X8Y648D01*
X3452Y648D02*
X3459Y648D01*
X1Y647D02*
X8Y647D01*
X3452Y647D02*
X3459Y647D01*
X1Y646D02*
X8Y646D01*
X3452Y646D02*
X3459Y646D01*
X1Y645D02*
X8Y645D01*
X3452Y645D02*
X3459Y645D01*
X1Y644D02*
X8Y644D01*
X3452Y644D02*
X3459Y644D01*
X1Y643D02*
X8Y643D01*
X3452Y643D02*
X3459Y643D01*
X1Y642D02*
X8Y642D01*
X3452Y642D02*
X3459Y642D01*
X1Y641D02*
X8Y641D01*
X3452Y641D02*
X3459Y641D01*
X1Y640D02*
X8Y640D01*
X3452Y640D02*
X3459Y640D01*
X1Y639D02*
X8Y639D01*
X3452Y639D02*
X3459Y639D01*
X1Y638D02*
X8Y638D01*
X3452Y638D02*
X3459Y638D01*
X1Y637D02*
X8Y637D01*
X3452Y637D02*
X3459Y637D01*
X1Y636D02*
X8Y636D01*
X3452Y636D02*
X3459Y636D01*
X1Y635D02*
X8Y635D01*
X3452Y635D02*
X3459Y635D01*
X1Y634D02*
X8Y634D01*
X3452Y634D02*
X3459Y634D01*
X1Y633D02*
X8Y633D01*
X3452Y633D02*
X3459Y633D01*
X1Y632D02*
X8Y632D01*
X3452Y632D02*
X3459Y632D01*
X1Y631D02*
X8Y631D01*
X3452Y631D02*
X3459Y631D01*
X1Y630D02*
X8Y630D01*
X3452Y630D02*
X3459Y630D01*
X1Y629D02*
X8Y629D01*
X3452Y629D02*
X3459Y629D01*
X1Y628D02*
X8Y628D01*
X3452Y628D02*
X3459Y628D01*
X1Y627D02*
X8Y627D01*
X3452Y627D02*
X3459Y627D01*
X1Y626D02*
X8Y626D01*
X3452Y626D02*
X3459Y626D01*
X1Y625D02*
X8Y625D01*
X3452Y625D02*
X3459Y625D01*
X1Y624D02*
X8Y624D01*
X3452Y624D02*
X3459Y624D01*
X1Y623D02*
X8Y623D01*
X3452Y623D02*
X3459Y623D01*
X1Y622D02*
X8Y622D01*
X3452Y622D02*
X3459Y622D01*
X1Y621D02*
X8Y621D01*
X3452Y621D02*
X3459Y621D01*
X1Y620D02*
X8Y620D01*
X3452Y620D02*
X3459Y620D01*
X1Y619D02*
X8Y619D01*
X3452Y619D02*
X3459Y619D01*
X1Y618D02*
X8Y618D01*
X3452Y618D02*
X3459Y618D01*
X1Y617D02*
X8Y617D01*
X3452Y617D02*
X3459Y617D01*
X1Y616D02*
X8Y616D01*
X3452Y616D02*
X3459Y616D01*
X1Y615D02*
X8Y615D01*
X3452Y615D02*
X3459Y615D01*
X1Y614D02*
X8Y614D01*
X3452Y614D02*
X3459Y614D01*
X1Y613D02*
X8Y613D01*
X3452Y613D02*
X3459Y613D01*
X1Y612D02*
X8Y612D01*
X3452Y612D02*
X3459Y612D01*
X1Y611D02*
X8Y611D01*
X3452Y611D02*
X3459Y611D01*
X1Y610D02*
X8Y610D01*
X3452Y610D02*
X3459Y610D01*
X1Y609D02*
X8Y609D01*
X3452Y609D02*
X3459Y609D01*
X1Y608D02*
X8Y608D01*
X3452Y608D02*
X3459Y608D01*
X1Y607D02*
X8Y607D01*
X3452Y607D02*
X3459Y607D01*
X1Y606D02*
X8Y606D01*
X3452Y606D02*
X3459Y606D01*
X1Y605D02*
X8Y605D01*
X3452Y605D02*
X3459Y605D01*
X1Y604D02*
X8Y604D01*
X3452Y604D02*
X3459Y604D01*
X1Y603D02*
X8Y603D01*
X3452Y603D02*
X3459Y603D01*
X1Y602D02*
X8Y602D01*
X3452Y602D02*
X3459Y602D01*
X1Y601D02*
X8Y601D01*
X3452Y601D02*
X3459Y601D01*
X1Y600D02*
X8Y600D01*
X3452Y600D02*
X3459Y600D01*
X1Y599D02*
X8Y599D01*
X3452Y599D02*
X3459Y599D01*
X1Y598D02*
X8Y598D01*
X3452Y598D02*
X3459Y598D01*
X1Y597D02*
X8Y597D01*
X3452Y597D02*
X3459Y597D01*
X1Y596D02*
X8Y596D01*
X3452Y596D02*
X3459Y596D01*
X1Y595D02*
X8Y595D01*
X3452Y595D02*
X3459Y595D01*
X1Y594D02*
X8Y594D01*
X3452Y594D02*
X3459Y594D01*
X1Y593D02*
X8Y593D01*
X3452Y593D02*
X3459Y593D01*
X1Y592D02*
X8Y592D01*
X3452Y592D02*
X3459Y592D01*
X1Y591D02*
X8Y591D01*
X3452Y591D02*
X3459Y591D01*
X1Y590D02*
X8Y590D01*
X3452Y590D02*
X3459Y590D01*
X1Y589D02*
X8Y589D01*
X3452Y589D02*
X3459Y589D01*
X1Y588D02*
X8Y588D01*
X3452Y588D02*
X3459Y588D01*
X1Y587D02*
X8Y587D01*
X3452Y587D02*
X3459Y587D01*
X1Y586D02*
X8Y586D01*
X3452Y586D02*
X3459Y586D01*
X1Y585D02*
X8Y585D01*
X3452Y585D02*
X3459Y585D01*
X1Y584D02*
X8Y584D01*
X3452Y584D02*
X3459Y584D01*
X1Y583D02*
X8Y583D01*
X3452Y583D02*
X3459Y583D01*
X1Y582D02*
X8Y582D01*
X3452Y582D02*
X3459Y582D01*
X1Y581D02*
X8Y581D01*
X3452Y581D02*
X3459Y581D01*
X1Y580D02*
X8Y580D01*
X3452Y580D02*
X3459Y580D01*
X1Y579D02*
X8Y579D01*
X3452Y579D02*
X3459Y579D01*
X1Y578D02*
X8Y578D01*
X3452Y578D02*
X3459Y578D01*
X1Y577D02*
X8Y577D01*
X3452Y577D02*
X3459Y577D01*
X1Y576D02*
X8Y576D01*
X3452Y576D02*
X3459Y576D01*
X1Y575D02*
X8Y575D01*
X3452Y575D02*
X3459Y575D01*
X1Y574D02*
X8Y574D01*
X3452Y574D02*
X3459Y574D01*
X1Y573D02*
X8Y573D01*
X3452Y573D02*
X3459Y573D01*
X1Y572D02*
X8Y572D01*
X3452Y572D02*
X3459Y572D01*
X1Y571D02*
X8Y571D01*
X3452Y571D02*
X3459Y571D01*
X1Y570D02*
X8Y570D01*
X3452Y570D02*
X3459Y570D01*
X1Y569D02*
X8Y569D01*
X3452Y569D02*
X3459Y569D01*
X1Y568D02*
X8Y568D01*
X3452Y568D02*
X3459Y568D01*
X1Y567D02*
X8Y567D01*
X3452Y567D02*
X3459Y567D01*
X1Y566D02*
X8Y566D01*
X3452Y566D02*
X3459Y566D01*
X1Y565D02*
X8Y565D01*
X3452Y565D02*
X3459Y565D01*
X1Y564D02*
X8Y564D01*
X3452Y564D02*
X3459Y564D01*
X1Y563D02*
X8Y563D01*
X3452Y563D02*
X3459Y563D01*
X1Y562D02*
X8Y562D01*
X3452Y562D02*
X3459Y562D01*
X1Y561D02*
X8Y561D01*
X3452Y561D02*
X3459Y561D01*
X1Y560D02*
X8Y560D01*
X3452Y560D02*
X3459Y560D01*
X1Y559D02*
X8Y559D01*
X3452Y559D02*
X3459Y559D01*
X1Y558D02*
X8Y558D01*
X3452Y558D02*
X3459Y558D01*
X1Y557D02*
X8Y557D01*
X3452Y557D02*
X3459Y557D01*
X1Y556D02*
X8Y556D01*
X3452Y556D02*
X3459Y556D01*
X1Y555D02*
X8Y555D01*
X3452Y555D02*
X3459Y555D01*
X1Y554D02*
X8Y554D01*
X3452Y554D02*
X3459Y554D01*
X1Y553D02*
X8Y553D01*
X3452Y553D02*
X3459Y553D01*
X1Y552D02*
X8Y552D01*
X3452Y552D02*
X3459Y552D01*
X1Y551D02*
X8Y551D01*
X3452Y551D02*
X3459Y551D01*
X1Y550D02*
X8Y550D01*
X3452Y550D02*
X3459Y550D01*
X1Y549D02*
X8Y549D01*
X3452Y549D02*
X3459Y549D01*
X1Y548D02*
X8Y548D01*
X3452Y548D02*
X3459Y548D01*
X1Y547D02*
X8Y547D01*
X3452Y547D02*
X3459Y547D01*
X1Y546D02*
X8Y546D01*
X3452Y546D02*
X3459Y546D01*
X1Y545D02*
X8Y545D01*
X3452Y545D02*
X3459Y545D01*
X1Y544D02*
X8Y544D01*
X3452Y544D02*
X3459Y544D01*
X1Y543D02*
X8Y543D01*
X3452Y543D02*
X3459Y543D01*
X1Y542D02*
X8Y542D01*
X3452Y542D02*
X3459Y542D01*
X1Y541D02*
X8Y541D01*
X3452Y541D02*
X3459Y541D01*
X1Y540D02*
X8Y540D01*
X3452Y540D02*
X3459Y540D01*
X1Y539D02*
X8Y539D01*
X3452Y539D02*
X3459Y539D01*
X1Y538D02*
X8Y538D01*
X3452Y538D02*
X3459Y538D01*
X1Y537D02*
X8Y537D01*
X3452Y537D02*
X3459Y537D01*
X1Y536D02*
X8Y536D01*
X3452Y536D02*
X3459Y536D01*
X1Y535D02*
X8Y535D01*
X3452Y535D02*
X3459Y535D01*
X1Y534D02*
X8Y534D01*
X3452Y534D02*
X3459Y534D01*
X1Y533D02*
X8Y533D01*
X3452Y533D02*
X3459Y533D01*
X1Y532D02*
X8Y532D01*
X3452Y532D02*
X3459Y532D01*
X1Y531D02*
X8Y531D01*
X3452Y531D02*
X3459Y531D01*
X1Y530D02*
X8Y530D01*
X3452Y530D02*
X3459Y530D01*
X1Y529D02*
X8Y529D01*
X3452Y529D02*
X3459Y529D01*
X1Y528D02*
X8Y528D01*
X3452Y528D02*
X3459Y528D01*
X1Y527D02*
X8Y527D01*
X3452Y527D02*
X3459Y527D01*
X1Y526D02*
X8Y526D01*
X3452Y526D02*
X3459Y526D01*
X1Y525D02*
X8Y525D01*
X3452Y525D02*
X3459Y525D01*
X1Y524D02*
X8Y524D01*
X3452Y524D02*
X3459Y524D01*
X1Y523D02*
X8Y523D01*
X3452Y523D02*
X3459Y523D01*
X1Y522D02*
X8Y522D01*
X3452Y522D02*
X3459Y522D01*
X1Y521D02*
X8Y521D01*
X3452Y521D02*
X3459Y521D01*
X1Y520D02*
X8Y520D01*
X3452Y520D02*
X3459Y520D01*
X1Y519D02*
X8Y519D01*
X3452Y519D02*
X3459Y519D01*
X1Y518D02*
X8Y518D01*
X3452Y518D02*
X3459Y518D01*
X1Y517D02*
X8Y517D01*
X3452Y517D02*
X3459Y517D01*
X1Y516D02*
X8Y516D01*
X3452Y516D02*
X3459Y516D01*
X1Y515D02*
X8Y515D01*
X3452Y515D02*
X3459Y515D01*
X1Y514D02*
X8Y514D01*
X3452Y514D02*
X3459Y514D01*
X1Y513D02*
X8Y513D01*
X3452Y513D02*
X3459Y513D01*
X1Y512D02*
X8Y512D01*
X3452Y512D02*
X3459Y512D01*
X1Y511D02*
X8Y511D01*
X3452Y511D02*
X3459Y511D01*
X1Y510D02*
X8Y510D01*
X3452Y510D02*
X3459Y510D01*
X1Y509D02*
X8Y509D01*
X3452Y509D02*
X3459Y509D01*
X1Y508D02*
X8Y508D01*
X3452Y508D02*
X3459Y508D01*
X1Y507D02*
X8Y507D01*
X3452Y507D02*
X3459Y507D01*
X1Y506D02*
X8Y506D01*
X3452Y506D02*
X3459Y506D01*
X1Y505D02*
X8Y505D01*
X3452Y505D02*
X3459Y505D01*
X1Y504D02*
X8Y504D01*
X3452Y504D02*
X3459Y504D01*
X1Y503D02*
X8Y503D01*
X3452Y503D02*
X3459Y503D01*
X1Y502D02*
X8Y502D01*
X3452Y502D02*
X3459Y502D01*
X1Y501D02*
X8Y501D01*
X3452Y501D02*
X3459Y501D01*
X1Y500D02*
X8Y500D01*
X3452Y500D02*
X3459Y500D01*
X1Y499D02*
X8Y499D01*
X3452Y499D02*
X3459Y499D01*
X1Y498D02*
X8Y498D01*
X3452Y498D02*
X3459Y498D01*
X1Y497D02*
X8Y497D01*
X3452Y497D02*
X3459Y497D01*
X1Y496D02*
X8Y496D01*
X3452Y496D02*
X3459Y496D01*
X1Y495D02*
X8Y495D01*
X3452Y495D02*
X3459Y495D01*
X1Y494D02*
X8Y494D01*
X3452Y494D02*
X3459Y494D01*
X1Y493D02*
X8Y493D01*
X3452Y493D02*
X3459Y493D01*
X1Y492D02*
X8Y492D01*
X3452Y492D02*
X3459Y492D01*
X1Y491D02*
X8Y491D01*
X3452Y491D02*
X3459Y491D01*
X1Y490D02*
X8Y490D01*
X3452Y490D02*
X3459Y490D01*
X1Y489D02*
X8Y489D01*
X3452Y489D02*
X3459Y489D01*
X1Y488D02*
X8Y488D01*
X3452Y488D02*
X3459Y488D01*
X1Y487D02*
X8Y487D01*
X3452Y487D02*
X3459Y487D01*
X1Y486D02*
X8Y486D01*
X3452Y486D02*
X3459Y486D01*
X1Y485D02*
X8Y485D01*
X3452Y485D02*
X3459Y485D01*
X1Y484D02*
X8Y484D01*
X3452Y484D02*
X3459Y484D01*
X1Y483D02*
X8Y483D01*
X3452Y483D02*
X3459Y483D01*
X1Y482D02*
X8Y482D01*
X3452Y482D02*
X3459Y482D01*
X1Y481D02*
X8Y481D01*
X3452Y481D02*
X3459Y481D01*
X1Y480D02*
X8Y480D01*
X3452Y480D02*
X3459Y480D01*
X1Y479D02*
X8Y479D01*
X3452Y479D02*
X3459Y479D01*
X1Y478D02*
X8Y478D01*
X3452Y478D02*
X3459Y478D01*
X1Y477D02*
X8Y477D01*
X3452Y477D02*
X3459Y477D01*
X1Y476D02*
X8Y476D01*
X3452Y476D02*
X3459Y476D01*
X1Y475D02*
X8Y475D01*
X3452Y475D02*
X3459Y475D01*
X1Y474D02*
X8Y474D01*
X3452Y474D02*
X3459Y474D01*
X1Y473D02*
X8Y473D01*
X3452Y473D02*
X3459Y473D01*
X1Y472D02*
X8Y472D01*
X3452Y472D02*
X3459Y472D01*
X1Y471D02*
X8Y471D01*
X3452Y471D02*
X3459Y471D01*
X1Y470D02*
X8Y470D01*
X3452Y470D02*
X3459Y470D01*
X1Y469D02*
X8Y469D01*
X3452Y469D02*
X3459Y469D01*
X1Y468D02*
X8Y468D01*
X3452Y468D02*
X3459Y468D01*
X1Y467D02*
X8Y467D01*
X3452Y467D02*
X3459Y467D01*
X1Y466D02*
X8Y466D01*
X3452Y466D02*
X3459Y466D01*
X1Y465D02*
X8Y465D01*
X3452Y465D02*
X3459Y465D01*
X1Y464D02*
X8Y464D01*
X3452Y464D02*
X3459Y464D01*
X1Y463D02*
X8Y463D01*
X3452Y463D02*
X3459Y463D01*
X1Y462D02*
X8Y462D01*
X3452Y462D02*
X3459Y462D01*
X1Y461D02*
X8Y461D01*
X3452Y461D02*
X3459Y461D01*
X1Y460D02*
X8Y460D01*
X3452Y460D02*
X3459Y460D01*
X1Y459D02*
X8Y459D01*
X3452Y459D02*
X3459Y459D01*
X1Y458D02*
X8Y458D01*
X3452Y458D02*
X3459Y458D01*
X1Y457D02*
X8Y457D01*
X3452Y457D02*
X3459Y457D01*
X1Y456D02*
X8Y456D01*
X3452Y456D02*
X3459Y456D01*
X1Y455D02*
X8Y455D01*
X3452Y455D02*
X3459Y455D01*
X1Y454D02*
X8Y454D01*
X3452Y454D02*
X3459Y454D01*
X1Y453D02*
X8Y453D01*
X3452Y453D02*
X3459Y453D01*
X1Y452D02*
X8Y452D01*
X3452Y452D02*
X3459Y452D01*
X1Y451D02*
X8Y451D01*
X3452Y451D02*
X3459Y451D01*
X1Y450D02*
X8Y450D01*
X3452Y450D02*
X3459Y450D01*
X1Y449D02*
X8Y449D01*
X3452Y449D02*
X3459Y449D01*
X1Y448D02*
X8Y448D01*
X3452Y448D02*
X3459Y448D01*
X1Y447D02*
X8Y447D01*
X3452Y447D02*
X3459Y447D01*
X1Y446D02*
X8Y446D01*
X3452Y446D02*
X3459Y446D01*
X1Y445D02*
X8Y445D01*
X3452Y445D02*
X3459Y445D01*
X1Y444D02*
X8Y444D01*
X3452Y444D02*
X3459Y444D01*
X1Y443D02*
X8Y443D01*
X3452Y443D02*
X3459Y443D01*
X1Y442D02*
X8Y442D01*
X3452Y442D02*
X3459Y442D01*
X1Y441D02*
X8Y441D01*
X3452Y441D02*
X3459Y441D01*
X1Y440D02*
X8Y440D01*
X3452Y440D02*
X3459Y440D01*
X1Y439D02*
X8Y439D01*
X3452Y439D02*
X3459Y439D01*
X1Y438D02*
X8Y438D01*
X3452Y438D02*
X3459Y438D01*
X1Y437D02*
X8Y437D01*
X3452Y437D02*
X3459Y437D01*
X1Y436D02*
X8Y436D01*
X3452Y436D02*
X3459Y436D01*
X1Y435D02*
X8Y435D01*
X3452Y435D02*
X3459Y435D01*
X1Y434D02*
X8Y434D01*
X3452Y434D02*
X3459Y434D01*
X1Y433D02*
X8Y433D01*
X3452Y433D02*
X3459Y433D01*
X1Y432D02*
X8Y432D01*
X3452Y432D02*
X3459Y432D01*
X1Y431D02*
X8Y431D01*
X3452Y431D02*
X3459Y431D01*
X1Y430D02*
X8Y430D01*
X3452Y430D02*
X3459Y430D01*
X1Y429D02*
X8Y429D01*
X3452Y429D02*
X3459Y429D01*
X1Y428D02*
X8Y428D01*
X3452Y428D02*
X3459Y428D01*
X1Y427D02*
X8Y427D01*
X3452Y427D02*
X3459Y427D01*
X1Y426D02*
X8Y426D01*
X3452Y426D02*
X3459Y426D01*
X1Y425D02*
X8Y425D01*
X3452Y425D02*
X3459Y425D01*
X1Y424D02*
X8Y424D01*
X3452Y424D02*
X3459Y424D01*
X1Y423D02*
X8Y423D01*
X3452Y423D02*
X3459Y423D01*
X1Y422D02*
X8Y422D01*
X3452Y422D02*
X3459Y422D01*
X1Y421D02*
X8Y421D01*
X3452Y421D02*
X3459Y421D01*
X1Y420D02*
X8Y420D01*
X3452Y420D02*
X3459Y420D01*
X1Y419D02*
X8Y419D01*
X3452Y419D02*
X3459Y419D01*
X1Y418D02*
X8Y418D01*
X3452Y418D02*
X3459Y418D01*
X1Y417D02*
X8Y417D01*
X3452Y417D02*
X3459Y417D01*
X1Y416D02*
X8Y416D01*
X3452Y416D02*
X3459Y416D01*
X1Y415D02*
X8Y415D01*
X3452Y415D02*
X3459Y415D01*
X1Y414D02*
X8Y414D01*
X3452Y414D02*
X3459Y414D01*
X1Y413D02*
X8Y413D01*
X3452Y413D02*
X3459Y413D01*
X1Y412D02*
X8Y412D01*
X3452Y412D02*
X3459Y412D01*
X1Y411D02*
X8Y411D01*
X3452Y411D02*
X3459Y411D01*
X1Y410D02*
X8Y410D01*
X3452Y410D02*
X3459Y410D01*
X1Y409D02*
X8Y409D01*
X3452Y409D02*
X3459Y409D01*
X1Y408D02*
X8Y408D01*
X3452Y408D02*
X3459Y408D01*
X1Y407D02*
X8Y407D01*
X3452Y407D02*
X3459Y407D01*
X1Y406D02*
X8Y406D01*
X3452Y406D02*
X3459Y406D01*
X1Y405D02*
X8Y405D01*
X3452Y405D02*
X3459Y405D01*
X1Y404D02*
X8Y404D01*
X3452Y404D02*
X3459Y404D01*
X1Y403D02*
X8Y403D01*
X3452Y403D02*
X3459Y403D01*
X1Y402D02*
X8Y402D01*
X3452Y402D02*
X3459Y402D01*
X1Y401D02*
X8Y401D01*
X3452Y401D02*
X3459Y401D01*
X1Y400D02*
X8Y400D01*
X3452Y400D02*
X3459Y400D01*
X1Y399D02*
X8Y399D01*
X3452Y399D02*
X3459Y399D01*
X1Y398D02*
X8Y398D01*
X3452Y398D02*
X3459Y398D01*
X1Y397D02*
X8Y397D01*
X3452Y397D02*
X3459Y397D01*
X1Y396D02*
X8Y396D01*
X3452Y396D02*
X3459Y396D01*
X1Y395D02*
X8Y395D01*
X3452Y395D02*
X3459Y395D01*
X1Y394D02*
X8Y394D01*
X3452Y394D02*
X3459Y394D01*
X1Y393D02*
X8Y393D01*
X3452Y393D02*
X3459Y393D01*
X1Y392D02*
X8Y392D01*
X3452Y392D02*
X3459Y392D01*
X1Y391D02*
X8Y391D01*
X3452Y391D02*
X3459Y391D01*
X1Y390D02*
X8Y390D01*
X3452Y390D02*
X3459Y390D01*
X1Y389D02*
X8Y389D01*
X3452Y389D02*
X3459Y389D01*
X1Y388D02*
X8Y388D01*
X3452Y388D02*
X3459Y388D01*
X1Y387D02*
X8Y387D01*
X3452Y387D02*
X3459Y387D01*
X1Y386D02*
X8Y386D01*
X3452Y386D02*
X3459Y386D01*
X1Y385D02*
X8Y385D01*
X3452Y385D02*
X3459Y385D01*
X1Y384D02*
X8Y384D01*
X3452Y384D02*
X3459Y384D01*
X1Y383D02*
X8Y383D01*
X3452Y383D02*
X3459Y383D01*
X1Y382D02*
X8Y382D01*
X3452Y382D02*
X3459Y382D01*
X1Y381D02*
X8Y381D01*
X3452Y381D02*
X3459Y381D01*
X1Y380D02*
X8Y380D01*
X3452Y380D02*
X3459Y380D01*
X1Y379D02*
X8Y379D01*
X3452Y379D02*
X3459Y379D01*
X1Y378D02*
X8Y378D01*
X3452Y378D02*
X3459Y378D01*
X1Y377D02*
X8Y377D01*
X3452Y377D02*
X3459Y377D01*
X1Y376D02*
X8Y376D01*
X3452Y376D02*
X3459Y376D01*
X1Y375D02*
X8Y375D01*
X3452Y375D02*
X3459Y375D01*
X1Y374D02*
X8Y374D01*
X3452Y374D02*
X3459Y374D01*
X1Y373D02*
X8Y373D01*
X3452Y373D02*
X3459Y373D01*
X1Y372D02*
X8Y372D01*
X3452Y372D02*
X3459Y372D01*
X1Y371D02*
X8Y371D01*
X3452Y371D02*
X3459Y371D01*
X1Y370D02*
X8Y370D01*
X3452Y370D02*
X3459Y370D01*
X1Y369D02*
X8Y369D01*
X3452Y369D02*
X3459Y369D01*
X1Y368D02*
X8Y368D01*
X3452Y368D02*
X3459Y368D01*
X2Y367D02*
X9Y367D01*
X3451Y367D02*
X3458Y367D01*
X2Y366D02*
X9Y366D01*
X3451Y366D02*
X3458Y366D01*
X2Y365D02*
X9Y365D01*
X3451Y365D02*
X3458Y365D01*
X2Y364D02*
X9Y364D01*
X3451Y364D02*
X3458Y364D01*
X2Y363D02*
X9Y363D01*
X3451Y363D02*
X3458Y363D01*
X2Y362D02*
X9Y362D01*
X3451Y362D02*
X3458Y362D01*
X2Y361D02*
X9Y361D01*
X3451Y361D02*
X3458Y361D01*
X2Y360D02*
X9Y360D01*
X3451Y360D02*
X3458Y360D01*
X2Y359D02*
X9Y359D01*
X3451Y359D02*
X3458Y359D01*
X2Y358D02*
X9Y358D01*
X3451Y358D02*
X3458Y358D01*
X2Y357D02*
X9Y357D01*
X3451Y357D02*
X3458Y357D01*
X2Y356D02*
X9Y356D01*
X3451Y356D02*
X3458Y356D01*
X2Y355D02*
X9Y355D01*
X3451Y355D02*
X3458Y355D01*
X2Y354D02*
X9Y354D01*
X3451Y354D02*
X3458Y354D01*
X3Y353D02*
X10Y353D01*
X3450Y353D02*
X3457Y353D01*
X3Y352D02*
X10Y352D01*
X3450Y352D02*
X3457Y352D01*
X3Y351D02*
X10Y351D01*
X3450Y351D02*
X3457Y351D01*
X3Y350D02*
X10Y350D01*
X3450Y350D02*
X3457Y350D01*
X3Y349D02*
X10Y349D01*
X3450Y349D02*
X3457Y349D01*
X3Y348D02*
X10Y348D01*
X3450Y348D02*
X3457Y348D01*
X3Y347D02*
X10Y347D01*
X3450Y347D02*
X3457Y347D01*
X3Y346D02*
X10Y346D01*
X3450Y346D02*
X3457Y346D01*
X3Y345D02*
X10Y345D01*
X3450Y345D02*
X3457Y345D01*
X3Y344D02*
X10Y344D01*
X3450Y344D02*
X3457Y344D01*
X4Y343D02*
X11Y343D01*
X3449Y343D02*
X3456Y343D01*
X4Y342D02*
X11Y342D01*
X3449Y342D02*
X3456Y342D01*
X4Y341D02*
X11Y341D01*
X3449Y341D02*
X3456Y341D01*
X4Y340D02*
X11Y340D01*
X3449Y340D02*
X3456Y340D01*
X4Y339D02*
X11Y339D01*
X3449Y339D02*
X3456Y339D01*
X4Y338D02*
X11Y338D01*
X3449Y338D02*
X3456Y338D01*
X4Y337D02*
X11Y337D01*
X3449Y337D02*
X3456Y337D01*
X4Y336D02*
X11Y336D01*
X3449Y336D02*
X3456Y336D01*
X5Y335D02*
X12Y335D01*
X3448Y335D02*
X3455Y335D01*
X5Y334D02*
X12Y334D01*
X3448Y334D02*
X3455Y334D01*
X5Y333D02*
X12Y333D01*
X3448Y333D02*
X3455Y333D01*
X5Y332D02*
X12Y332D01*
X3448Y332D02*
X3455Y332D01*
X5Y331D02*
X12Y331D01*
X3448Y331D02*
X3455Y331D01*
X5Y330D02*
X12Y330D01*
X3448Y330D02*
X3455Y330D01*
X5Y329D02*
X12Y329D01*
X3448Y329D02*
X3455Y329D01*
X5Y328D02*
X13Y328D01*
X3447Y328D02*
X3455Y328D01*
X6Y327D02*
X13Y327D01*
X3447Y327D02*
X3454Y327D01*
X6Y326D02*
X13Y326D01*
X3447Y326D02*
X3454Y326D01*
X6Y325D02*
X13Y325D01*
X3447Y325D02*
X3454Y325D01*
X6Y324D02*
X13Y324D01*
X3447Y324D02*
X3454Y324D01*
X6Y323D02*
X13Y323D01*
X3447Y323D02*
X3454Y323D01*
X6Y322D02*
X14Y322D01*
X3446Y322D02*
X3454Y322D01*
X7Y321D02*
X14Y321D01*
X3446Y321D02*
X3453Y321D01*
X7Y320D02*
X14Y320D01*
X3446Y320D02*
X3453Y320D01*
X7Y319D02*
X14Y319D01*
X3446Y319D02*
X3453Y319D01*
X7Y318D02*
X14Y318D01*
X3446Y318D02*
X3453Y318D01*
X7Y317D02*
X14Y317D01*
X3446Y317D02*
X3453Y317D01*
X8Y316D02*
X15Y316D01*
X3445Y316D02*
X3452Y316D01*
X8Y315D02*
X15Y315D01*
X3445Y315D02*
X3452Y315D01*
X8Y314D02*
X15Y314D01*
X3445Y314D02*
X3452Y314D01*
X8Y313D02*
X15Y313D01*
X3445Y313D02*
X3452Y313D01*
X8Y312D02*
X15Y312D01*
X3445Y312D02*
X3452Y312D01*
X8Y311D02*
X16Y311D01*
X3444Y311D02*
X3451Y311D01*
X9Y310D02*
X16Y310D01*
X3444Y310D02*
X3451Y310D01*
X9Y309D02*
X16Y309D01*
X3444Y309D02*
X3451Y309D01*
X9Y308D02*
X16Y308D01*
X3444Y308D02*
X3451Y308D01*
X9Y307D02*
X16Y307D01*
X3444Y307D02*
X3451Y307D01*
X10Y306D02*
X17Y306D01*
X3443Y306D02*
X3450Y306D01*
X10Y305D02*
X17Y305D01*
X3443Y305D02*
X3450Y305D01*
X10Y304D02*
X17Y304D01*
X3443Y304D02*
X3450Y304D01*
X10Y303D02*
X17Y303D01*
X3443Y303D02*
X3450Y303D01*
X10Y302D02*
X17Y302D01*
X3443Y302D02*
X3450Y302D01*
X11Y301D02*
X18Y301D01*
X3442Y301D02*
X3449Y301D01*
X11Y300D02*
X18Y300D01*
X3442Y300D02*
X3449Y300D01*
X11Y299D02*
X18Y299D01*
X3442Y299D02*
X3449Y299D01*
X11Y298D02*
X18Y298D01*
X3442Y298D02*
X3449Y298D01*
X12Y297D02*
X19Y297D01*
X3441Y297D02*
X3448Y297D01*
X12Y296D02*
X19Y296D01*
X3441Y296D02*
X3448Y296D01*
X12Y295D02*
X19Y295D01*
X3441Y295D02*
X3448Y295D01*
X12Y294D02*
X19Y294D01*
X3441Y294D02*
X3448Y294D01*
X13Y293D02*
X20Y293D01*
X3440Y293D02*
X3447Y293D01*
X13Y292D02*
X20Y292D01*
X3440Y292D02*
X3447Y292D01*
X13Y291D02*
X20Y291D01*
X3440Y291D02*
X3447Y291D01*
X13Y290D02*
X20Y290D01*
X3440Y290D02*
X3447Y290D01*
X14Y289D02*
X21Y289D01*
X3439Y289D02*
X3446Y289D01*
X14Y288D02*
X21Y288D01*
X3439Y288D02*
X3446Y288D01*
X14Y287D02*
X21Y287D01*
X3439Y287D02*
X3446Y287D01*
X14Y286D02*
X22Y286D01*
X3438Y286D02*
X3446Y286D01*
X15Y285D02*
X22Y285D01*
X3438Y285D02*
X3445Y285D01*
X15Y284D02*
X22Y284D01*
X3438Y284D02*
X3445Y284D01*
X15Y283D02*
X22Y283D01*
X3438Y283D02*
X3445Y283D01*
X15Y282D02*
X23Y282D01*
X3437Y282D02*
X3445Y282D01*
X16Y281D02*
X23Y281D01*
X3437Y281D02*
X3444Y281D01*
X16Y280D02*
X23Y280D01*
X3437Y280D02*
X3444Y280D01*
X16Y279D02*
X24Y279D01*
X3436Y279D02*
X3444Y279D01*
X17Y278D02*
X24Y278D01*
X3436Y278D02*
X3443Y278D01*
X17Y277D02*
X24Y277D01*
X3436Y277D02*
X3443Y277D01*
X17Y276D02*
X24Y276D01*
X3436Y276D02*
X3443Y276D01*
X17Y275D02*
X25Y275D01*
X3435Y275D02*
X3443Y275D01*
X18Y274D02*
X25Y274D01*
X3435Y274D02*
X3442Y274D01*
X18Y273D02*
X25Y273D01*
X3435Y273D02*
X3442Y273D01*
X18Y272D02*
X26Y272D01*
X3434Y272D02*
X3442Y272D01*
X19Y271D02*
X26Y271D01*
X3434Y271D02*
X3441Y271D01*
X19Y270D02*
X26Y270D01*
X3434Y270D02*
X3441Y270D01*
X19Y269D02*
X27Y269D01*
X3433Y269D02*
X3441Y269D01*
X20Y268D02*
X27Y268D01*
X3433Y268D02*
X3440Y268D01*
X20Y267D02*
X27Y267D01*
X3433Y267D02*
X3440Y267D01*
X20Y266D02*
X28Y266D01*
X3432Y266D02*
X3440Y266D01*
X21Y265D02*
X28Y265D01*
X3432Y265D02*
X3439Y265D01*
X21Y264D02*
X28Y264D01*
X3432Y264D02*
X3439Y264D01*
X21Y263D02*
X29Y263D01*
X3431Y263D02*
X3439Y263D01*
X22Y262D02*
X29Y262D01*
X3431Y262D02*
X3438Y262D01*
X22Y261D02*
X29Y261D01*
X3431Y261D02*
X3438Y261D01*
X22Y260D02*
X30Y260D01*
X3430Y260D02*
X3438Y260D01*
X23Y259D02*
X30Y259D01*
X3430Y259D02*
X3437Y259D01*
X23Y258D02*
X30Y258D01*
X3430Y258D02*
X3437Y258D01*
X23Y257D02*
X31Y257D01*
X3429Y257D02*
X3437Y257D01*
X24Y256D02*
X31Y256D01*
X3429Y256D02*
X3436Y256D01*
X24Y255D02*
X31Y255D01*
X3429Y255D02*
X3436Y255D01*
X24Y254D02*
X32Y254D01*
X3428Y254D02*
X3436Y254D01*
X25Y253D02*
X32Y253D01*
X3428Y253D02*
X3435Y253D01*
X25Y252D02*
X33Y252D01*
X3427Y252D02*
X3435Y252D01*
X26Y251D02*
X33Y251D01*
X3427Y251D02*
X3434Y251D01*
X26Y250D02*
X33Y250D01*
X3427Y250D02*
X3434Y250D01*
X26Y249D02*
X34Y249D01*
X3426Y249D02*
X3434Y249D01*
X27Y248D02*
X34Y248D01*
X3426Y248D02*
X3433Y248D01*
X27Y247D02*
X35Y247D01*
X3425Y247D02*
X3433Y247D01*
X28Y246D02*
X35Y246D01*
X3425Y246D02*
X3432Y246D01*
X28Y245D02*
X35Y245D01*
X3425Y245D02*
X3432Y245D01*
X28Y244D02*
X36Y244D01*
X3424Y244D02*
X3432Y244D01*
X29Y243D02*
X36Y243D01*
X3424Y243D02*
X3431Y243D01*
X29Y242D02*
X37Y242D01*
X3423Y242D02*
X3431Y242D01*
X30Y241D02*
X37Y241D01*
X3423Y241D02*
X3430Y241D01*
X30Y240D02*
X37Y240D01*
X3423Y240D02*
X3430Y240D01*
X30Y239D02*
X38Y239D01*
X3422Y239D02*
X3430Y239D01*
X31Y238D02*
X38Y238D01*
X3422Y238D02*
X3429Y238D01*
X31Y237D02*
X39Y237D01*
X3421Y237D02*
X3429Y237D01*
X32Y236D02*
X39Y236D01*
X3421Y236D02*
X3428Y236D01*
X32Y235D02*
X40Y235D01*
X3420Y235D02*
X3428Y235D01*
X32Y234D02*
X40Y234D01*
X3420Y234D02*
X3428Y234D01*
X33Y233D02*
X40Y233D01*
X3420Y233D02*
X3427Y233D01*
X33Y232D02*
X41Y232D01*
X3419Y232D02*
X3427Y232D01*
X34Y231D02*
X41Y231D01*
X3419Y231D02*
X3426Y231D01*
X34Y230D02*
X42Y230D01*
X3418Y230D02*
X3426Y230D01*
X35Y229D02*
X42Y229D01*
X3418Y229D02*
X3425Y229D01*
X35Y228D02*
X43Y228D01*
X3417Y228D02*
X3425Y228D01*
X36Y227D02*
X43Y227D01*
X3417Y227D02*
X3424Y227D01*
X36Y226D02*
X44Y226D01*
X3416Y226D02*
X3424Y226D01*
X36Y225D02*
X44Y225D01*
X3416Y225D02*
X3424Y225D01*
X37Y224D02*
X44Y224D01*
X3415Y224D02*
X3423Y224D01*
X37Y223D02*
X45Y223D01*
X3415Y223D02*
X3423Y223D01*
X38Y222D02*
X45Y222D01*
X3415Y222D02*
X3422Y222D01*
X38Y221D02*
X46Y221D01*
X3414Y221D02*
X3422Y221D01*
X39Y220D02*
X46Y220D01*
X3414Y220D02*
X3421Y220D01*
X39Y219D02*
X47Y219D01*
X3413Y219D02*
X3421Y219D01*
X40Y218D02*
X47Y218D01*
X3413Y218D02*
X3420Y218D01*
X40Y217D02*
X48Y217D01*
X3412Y217D02*
X3420Y217D01*
X41Y216D02*
X49Y216D01*
X3411Y216D02*
X3419Y216D01*
X41Y215D02*
X49Y215D01*
X3411Y215D02*
X3419Y215D01*
X42Y214D02*
X50Y214D01*
X3410Y214D02*
X3418Y214D01*
X42Y213D02*
X50Y213D01*
X3410Y213D02*
X3418Y213D01*
X43Y212D02*
X51Y212D01*
X3409Y212D02*
X3417Y212D01*
X43Y211D02*
X51Y211D01*
X3409Y211D02*
X3417Y211D01*
X44Y210D02*
X52Y210D01*
X3408Y210D02*
X3416Y210D01*
X44Y209D02*
X52Y209D01*
X3408Y209D02*
X3416Y209D01*
X45Y208D02*
X53Y208D01*
X3407Y208D02*
X3415Y208D01*
X45Y207D02*
X53Y207D01*
X3407Y207D02*
X3415Y207D01*
X46Y206D02*
X54Y206D01*
X3406Y206D02*
X3414Y206D01*
X46Y205D02*
X54Y205D01*
X3406Y205D02*
X3414Y205D01*
X47Y204D02*
X55Y204D01*
X3405Y204D02*
X3413Y204D01*
X47Y203D02*
X55Y203D01*
X3405Y203D02*
X3413Y203D01*
X48Y202D02*
X56Y202D01*
X3404Y202D02*
X3412Y202D01*
X48Y201D02*
X56Y201D01*
X3404Y201D02*
X3412Y201D01*
X49Y200D02*
X57Y200D01*
X3403Y200D02*
X3411Y200D01*
X50Y199D02*
X58Y199D01*
X3402Y199D02*
X3410Y199D01*
X50Y198D02*
X58Y198D01*
X3402Y198D02*
X3410Y198D01*
X51Y197D02*
X59Y197D01*
X3401Y197D02*
X3409Y197D01*
X51Y196D02*
X59Y196D01*
X3401Y196D02*
X3409Y196D01*
X52Y195D02*
X60Y195D01*
X3400Y195D02*
X3408Y195D01*
X52Y194D02*
X60Y194D01*
X3400Y194D02*
X3408Y194D01*
X53Y193D02*
X61Y193D01*
X3399Y193D02*
X3407Y193D01*
X54Y192D02*
X62Y192D01*
X3398Y192D02*
X3406Y192D01*
X54Y191D02*
X62Y191D01*
X3398Y191D02*
X3406Y191D01*
X55Y190D02*
X63Y190D01*
X3397Y190D02*
X3405Y190D01*
X55Y189D02*
X63Y189D01*
X3397Y189D02*
X3405Y189D01*
X56Y188D02*
X64Y188D01*
X3396Y188D02*
X3404Y188D01*
X56Y187D02*
X65Y187D01*
X3395Y187D02*
X3404Y187D01*
X57Y186D02*
X65Y186D01*
X3395Y186D02*
X3403Y186D01*
X58Y185D02*
X66Y185D01*
X3394Y185D02*
X3402Y185D01*
X58Y184D02*
X67Y184D01*
X3393Y184D02*
X3402Y184D01*
X59Y183D02*
X67Y183D01*
X3393Y183D02*
X3401Y183D01*
X60Y182D02*
X68Y182D01*
X3392Y182D02*
X3400Y182D01*
X60Y181D02*
X69Y181D01*
X3391Y181D02*
X3400Y181D01*
X61Y180D02*
X69Y180D01*
X3391Y180D02*
X3399Y180D01*
X61Y179D02*
X70Y179D01*
X3390Y179D02*
X3399Y179D01*
X62Y178D02*
X70Y178D01*
X3390Y178D02*
X3398Y178D01*
X63Y177D02*
X71Y177D01*
X3389Y177D02*
X3397Y177D01*
X63Y176D02*
X72Y176D01*
X3388Y176D02*
X3397Y176D01*
X64Y175D02*
X72Y175D01*
X3388Y175D02*
X3396Y175D01*
X65Y174D02*
X73Y174D01*
X3387Y174D02*
X3395Y174D01*
X65Y173D02*
X74Y173D01*
X3386Y173D02*
X3395Y173D01*
X66Y172D02*
X75Y172D01*
X3385Y172D02*
X3394Y172D01*
X67Y171D02*
X75Y171D01*
X3385Y171D02*
X3393Y171D01*
X67Y170D02*
X76Y170D01*
X3384Y170D02*
X3393Y170D01*
X68Y169D02*
X77Y169D01*
X3383Y169D02*
X3392Y169D01*
X69Y168D02*
X77Y168D01*
X3383Y168D02*
X3391Y168D01*
X69Y167D02*
X78Y167D01*
X3382Y167D02*
X3391Y167D01*
X70Y166D02*
X79Y166D01*
X3381Y166D02*
X3390Y166D01*
X71Y165D02*
X79Y165D01*
X3381Y165D02*
X3389Y165D01*
X71Y164D02*
X80Y164D01*
X3380Y164D02*
X3389Y164D01*
X72Y163D02*
X81Y163D01*
X3379Y163D02*
X3388Y163D01*
X73Y162D02*
X82Y162D01*
X3378Y162D02*
X3387Y162D01*
X74Y161D02*
X82Y161D01*
X3378Y161D02*
X3386Y161D01*
X74Y160D02*
X83Y160D01*
X3377Y160D02*
X3386Y160D01*
X75Y159D02*
X84Y159D01*
X3376Y159D02*
X3385Y159D01*
X76Y158D02*
X85Y158D01*
X3375Y158D02*
X3384Y158D01*
X76Y157D02*
X85Y157D01*
X3375Y157D02*
X3384Y157D01*
X77Y156D02*
X86Y156D01*
X3374Y156D02*
X3383Y156D01*
X78Y155D02*
X87Y155D01*
X3373Y155D02*
X3382Y155D01*
X79Y154D02*
X88Y154D01*
X3372Y154D02*
X3381Y154D01*
X79Y153D02*
X89Y153D01*
X3371Y153D02*
X3381Y153D01*
X80Y152D02*
X89Y152D01*
X3371Y152D02*
X3380Y152D01*
X81Y151D02*
X90Y151D01*
X3370Y151D02*
X3379Y151D01*
X82Y150D02*
X91Y150D01*
X3369Y150D02*
X3378Y150D01*
X83Y149D02*
X92Y149D01*
X3368Y149D02*
X3377Y149D01*
X83Y148D02*
X92Y148D01*
X3368Y148D02*
X3377Y148D01*
X84Y147D02*
X93Y147D01*
X3367Y147D02*
X3376Y147D01*
X85Y146D02*
X94Y146D01*
X3366Y146D02*
X3375Y146D01*
X86Y145D02*
X95Y145D01*
X3365Y145D02*
X3374Y145D01*
X86Y144D02*
X96Y144D01*
X3364Y144D02*
X3374Y144D01*
X87Y143D02*
X97Y143D01*
X3363Y143D02*
X3373Y143D01*
X88Y142D02*
X97Y142D01*
X3363Y142D02*
X3372Y142D01*
X89Y141D02*
X98Y141D01*
X3362Y141D02*
X3371Y141D01*
X90Y140D02*
X99Y140D01*
X3361Y140D02*
X3370Y140D01*
X91Y139D02*
X100Y139D01*
X3360Y139D02*
X3369Y139D01*
X91Y138D02*
X101Y138D01*
X3359Y138D02*
X3369Y138D01*
X92Y137D02*
X102Y137D01*
X3358Y137D02*
X3368Y137D01*
X93Y136D02*
X103Y136D01*
X3357Y136D02*
X3367Y136D01*
X94Y135D02*
X103Y135D01*
X3357Y135D02*
X3366Y135D01*
X95Y134D02*
X104Y134D01*
X3356Y134D02*
X3365Y134D01*
X96Y133D02*
X105Y133D01*
X3355Y133D02*
X3364Y133D01*
X97Y132D02*
X106Y132D01*
X3354Y132D02*
X3363Y132D01*
X97Y131D02*
X107Y131D01*
X3353Y131D02*
X3363Y131D01*
X98Y130D02*
X108Y130D01*
X3352Y130D02*
X3362Y130D01*
X99Y129D02*
X109Y129D01*
X3351Y129D02*
X3361Y129D01*
X100Y128D02*
X110Y128D01*
X3350Y128D02*
X3360Y128D01*
X101Y127D02*
X111Y127D01*
X3349Y127D02*
X3359Y127D01*
X102Y126D02*
X112Y126D01*
X3348Y126D02*
X3358Y126D01*
X103Y125D02*
X113Y125D01*
X3347Y125D02*
X3357Y125D01*
X104Y124D02*
X114Y124D01*
X3346Y124D02*
X3356Y124D01*
X105Y123D02*
X115Y123D01*
X3345Y123D02*
X3355Y123D01*
X106Y122D02*
X116Y122D01*
X3344Y122D02*
X3354Y122D01*
X106Y121D02*
X117Y121D01*
X3343Y121D02*
X3354Y121D01*
X107Y120D02*
X117Y120D01*
X3343Y120D02*
X3353Y120D01*
X108Y119D02*
X118Y119D01*
X3342Y119D02*
X3352Y119D01*
X109Y118D02*
X119Y118D01*
X3341Y118D02*
X3351Y118D01*
X110Y117D02*
X121Y117D01*
X3339Y117D02*
X3350Y117D01*
X111Y116D02*
X122Y116D01*
X3338Y116D02*
X3349Y116D01*
X112Y115D02*
X123Y115D01*
X3337Y115D02*
X3348Y115D01*
X113Y114D02*
X124Y114D01*
X3336Y114D02*
X3347Y114D01*
X114Y113D02*
X125Y113D01*
X3335Y113D02*
X3346Y113D01*
X115Y112D02*
X126Y112D01*
X3334Y112D02*
X3345Y112D01*
X116Y111D02*
X127Y111D01*
X3333Y111D02*
X3344Y111D01*
X117Y110D02*
X128Y110D01*
X3332Y110D02*
X3343Y110D01*
X118Y109D02*
X129Y109D01*
X3331Y109D02*
X3342Y109D01*
X119Y108D02*
X130Y108D01*
X3330Y108D02*
X3341Y108D01*
X120Y107D02*
X131Y107D01*
X3329Y107D02*
X3340Y107D01*
X121Y106D02*
X132Y106D01*
X3328Y106D02*
X3339Y106D01*
X122Y105D02*
X133Y105D01*
X3327Y105D02*
X3338Y105D01*
X124Y104D02*
X134Y104D01*
X3326Y104D02*
X3336Y104D01*
X125Y103D02*
X135Y103D01*
X3325Y103D02*
X3335Y103D01*
X126Y102D02*
X137Y102D01*
X3323Y102D02*
X3334Y102D01*
X127Y101D02*
X138Y101D01*
X3322Y101D02*
X3333Y101D01*
X128Y100D02*
X139Y100D01*
X3321Y100D02*
X3332Y100D01*
X129Y99D02*
X140Y99D01*
X3320Y99D02*
X3331Y99D01*
X130Y98D02*
X141Y98D01*
X3319Y98D02*
X3330Y98D01*
X131Y97D02*
X142Y97D01*
X3318Y97D02*
X3329Y97D01*
X132Y96D02*
X143Y96D01*
X3317Y96D02*
X3328Y96D01*
X134Y95D02*
X145Y95D01*
X3315Y95D02*
X3326Y95D01*
X135Y94D02*
X146Y94D01*
X3314Y94D02*
X3325Y94D01*
X136Y93D02*
X147Y93D01*
X3313Y93D02*
X3324Y93D01*
X137Y92D02*
X148Y92D01*
X3312Y92D02*
X3323Y92D01*
X138Y91D02*
X150Y91D01*
X3310Y91D02*
X3322Y91D01*
X139Y90D02*
X151Y90D01*
X3309Y90D02*
X3321Y90D01*
X140Y89D02*
X152Y89D01*
X3308Y89D02*
X3320Y89D01*
X142Y88D02*
X153Y88D01*
X3307Y88D02*
X3318Y88D01*
X143Y87D02*
X155Y87D01*
X3305Y87D02*
X3317Y87D01*
X144Y86D02*
X156Y86D01*
X3304Y86D02*
X3316Y86D01*
X145Y85D02*
X157Y85D01*
X3303Y85D02*
X3315Y85D01*
X147Y84D02*
X158Y84D01*
X3302Y84D02*
X3313Y84D01*
X148Y83D02*
X160Y83D01*
X3300Y83D02*
X3312Y83D01*
X149Y82D02*
X161Y82D01*
X3299Y82D02*
X3311Y82D01*
X150Y81D02*
X163Y81D01*
X3297Y81D02*
X3310Y81D01*
X152Y80D02*
X164Y80D01*
X3296Y80D02*
X3308Y80D01*
X153Y79D02*
X165Y79D01*
X3295Y79D02*
X3307Y79D01*
X154Y78D02*
X167Y78D01*
X3293Y78D02*
X3306Y78D01*
X156Y77D02*
X168Y77D01*
X3292Y77D02*
X3304Y77D01*
X157Y76D02*
X170Y76D01*
X3290Y76D02*
X3303Y76D01*
X158Y75D02*
X171Y75D01*
X3289Y75D02*
X3302Y75D01*
X160Y74D02*
X172Y74D01*
X3288Y74D02*
X3300Y74D01*
X161Y73D02*
X174Y73D01*
X3286Y73D02*
X3299Y73D01*
X163Y72D02*
X175Y72D01*
X3285Y72D02*
X3297Y72D01*
X164Y71D02*
X177Y71D01*
X3283Y71D02*
X3296Y71D01*
X165Y70D02*
X178Y70D01*
X3282Y70D02*
X3295Y70D01*
X167Y69D02*
X180Y69D01*
X3280Y69D02*
X3293Y69D01*
X168Y68D02*
X182Y68D01*
X3278Y68D02*
X3292Y68D01*
X170Y67D02*
X183Y67D01*
X3277Y67D02*
X3290Y67D01*
X171Y66D02*
X185Y66D01*
X3275Y66D02*
X3289Y66D01*
X173Y65D02*
X186Y65D01*
X3274Y65D02*
X3287Y65D01*
X174Y64D02*
X188Y64D01*
X3272Y64D02*
X3286Y64D01*
X176Y63D02*
X189Y63D01*
X3271Y63D02*
X3284Y63D01*
X177Y62D02*
X191Y62D01*
X3269Y62D02*
X3283Y62D01*
X179Y61D02*
X193Y61D01*
X3267Y61D02*
X3281Y61D01*
X180Y60D02*
X194Y60D01*
X3266Y60D02*
X3280Y60D01*
X182Y59D02*
X196Y59D01*
X3264Y59D02*
X3278Y59D01*
X183Y58D02*
X198Y58D01*
X3262Y58D02*
X3277Y58D01*
X185Y57D02*
X200Y57D01*
X3260Y57D02*
X3275Y57D01*
X187Y56D02*
X201Y56D01*
X3259Y56D02*
X3273Y56D01*
X188Y55D02*
X203Y55D01*
X3257Y55D02*
X3272Y55D01*
X190Y54D02*
X205Y54D01*
X3255Y54D02*
X3270Y54D01*
X192Y53D02*
X207Y53D01*
X3253Y53D02*
X3268Y53D01*
X194Y52D02*
X209Y52D01*
X3251Y52D02*
X3266Y52D01*
X195Y51D02*
X211Y51D01*
X3249Y51D02*
X3265Y51D01*
X197Y50D02*
X213Y50D01*
X3247Y50D02*
X3263Y50D01*
X199Y49D02*
X215Y49D01*
X3245Y49D02*
X3261Y49D01*
X200Y48D02*
X216Y48D01*
X3244Y48D02*
X3260Y48D01*
X202Y47D02*
X218Y47D01*
X3242Y47D02*
X3258Y47D01*
X204Y46D02*
X220Y46D01*
X3240Y46D02*
X3256Y46D01*
X206Y45D02*
X222Y45D01*
X3238Y45D02*
X3254Y45D01*
X208Y44D02*
X225Y44D01*
X3235Y44D02*
X3252Y44D01*
X210Y43D02*
X227Y43D01*
X3233Y43D02*
X3250Y43D01*
X212Y42D02*
X229Y42D01*
X3231Y42D02*
X3248Y42D01*
X214Y41D02*
X231Y41D01*
X3229Y41D02*
X3246Y41D01*
X216Y40D02*
X233Y40D01*
X3227Y40D02*
X3244Y40D01*
X218Y39D02*
X236Y39D01*
X3224Y39D02*
X3242Y39D01*
X220Y38D02*
X238Y38D01*
X3222Y38D02*
X3240Y38D01*
X222Y37D02*
X240Y37D01*
X3220Y37D02*
X3238Y37D01*
X224Y36D02*
X243Y36D01*
X3217Y36D02*
X3236Y36D01*
X226Y35D02*
X245Y35D01*
X3215Y35D02*
X3234Y35D01*
X229Y34D02*
X248Y34D01*
X3212Y34D02*
X3231Y34D01*
X231Y33D02*
X250Y33D01*
X3210Y33D02*
X3229Y33D01*
X233Y32D02*
X253Y32D01*
X3207Y32D02*
X3227Y32D01*
X235Y31D02*
X256Y31D01*
X3204Y31D02*
X3225Y31D01*
X238Y30D02*
X259Y30D01*
X3201Y30D02*
X3222Y30D01*
X240Y29D02*
X262Y29D01*
X3198Y29D02*
X3220Y29D01*
X243Y28D02*
X264Y28D01*
X3196Y28D02*
X3217Y28D01*
X245Y27D02*
X267Y27D01*
X3193Y27D02*
X3215Y27D01*
X248Y26D02*
X270Y26D01*
X3190Y26D02*
X3212Y26D01*
X250Y25D02*
X273Y25D01*
X3187Y25D02*
X3210Y25D01*
X253Y24D02*
X277Y24D01*
X3183Y24D02*
X3207Y24D01*
X256Y23D02*
X280Y23D01*
X3180Y23D02*
X3204Y23D01*
X259Y22D02*
X284Y22D01*
X3176Y22D02*
X3201Y22D01*
X262Y21D02*
X287Y21D01*
X3173Y21D02*
X3198Y21D01*
X265Y20D02*
X291Y20D01*
X3169Y20D02*
X3195Y20D01*
X267Y19D02*
X295Y19D01*
X3165Y19D02*
X3193Y19D01*
X270Y18D02*
X299Y18D01*
X3161Y18D02*
X3190Y18D01*
X274Y17D02*
X304Y17D01*
X3156Y17D02*
X3186Y17D01*
X277Y16D02*
X309Y16D01*
X3151Y16D02*
X3183Y16D01*
X280Y15D02*
X314Y15D01*
X3146Y15D02*
X3180Y15D01*
X284Y14D02*
X319Y14D01*
X3141Y14D02*
X3176Y14D01*
X288Y13D02*
X325Y13D01*
X3135Y13D02*
X3172Y13D01*
X292Y12D02*
X332Y12D01*
X3128Y12D02*
X3168Y12D01*
X296Y11D02*
X340Y11D01*
X3120Y11D02*
X3164Y11D01*
X300Y10D02*
X350Y10D01*
X3110Y10D02*
X3160Y10D01*
X305Y9D02*
X364Y9D01*
X3096Y9D02*
X3155Y9D01*
X309Y8D02*
X3151Y8D01*
X315Y7D02*
X3145Y7D01*
X320Y6D02*
X3140Y6D01*
X326Y5D02*
X3134Y5D01*
X333Y4D02*
X3127Y4D01*
X341Y3D02*
X3119Y3D01*
X351Y2D02*
X3109Y2D01*
X365Y1D02*
X3095Y1D01*
D02*
G04 End of Silk0*
M02*