; NON-PLATED HOLES START AT T1
; THROUGH (PLATED) HOLES START AT T100
M48
INCH
T1C0.086614
T100C0.031497
T101C0.035000
T102C0.100000
T103C0.038000
T104C0.030000
T105C0.032000
T106C0.043307
T107C0.060020
T108C0.041361
T109C0.041333
T110C0.088356
%
T1
X003005Y024690
X032293Y024283
X032343Y001304
X002317Y001235
T100
X027044Y023759
X026059Y023759
X020083Y016838
X020083Y017823
T101
X011644Y011077
X023775Y023196
X022775Y023196
X005348Y017802
X019775Y023196
X006518Y018807
X015561Y019436
X019775Y020196
X030788Y008912
X026635Y010047
X010181Y017404
X022775Y020196
X027990Y023789
X023775Y020196
X029592Y011784
X016994Y009884
X007851Y015110
X008613Y015965
X007851Y018110
X017775Y020196
X011644Y014077
X021775Y023196
X009518Y018807
X016994Y008884
X030990Y023789
X006202Y016864
X022090Y008876
X030788Y009912
X003202Y016864
X018775Y020196
X012685Y012978
X024775Y023196
X013685Y012978
X032592Y011784
X020775Y023196
X015561Y016436
X020775Y020196
X026635Y009047
X024775Y020196
X025090Y008876
X018775Y023196
X002348Y017802
X010626Y024614
X021775Y020196
X011613Y015965
X013181Y017404
X017775Y023196
X006626Y024614
T102
X004142Y002258
X002942Y004158
X005342Y004158
T103
X018762Y019055
X008945Y012650
X014894Y014398
X033576Y010784
X023181Y016977
X015973Y013400
X014894Y013398
X021782Y024544
X020802Y010479
X008933Y007783
X007083Y006457
X014894Y012398
X019762Y019055
X020762Y019055
X028076Y019871
X028076Y017871
X032576Y010784
X015973Y012400
X015973Y014400
X008946Y011555
X024181Y016977
X028064Y016855
X014894Y011398
X021762Y019055
X022802Y010479
X028064Y014855
X022181Y016977
X008083Y006457
X009946Y011555
X018782Y024544
X028076Y018871
X013877Y024522
X023762Y019055
X028061Y021902
X014894Y015398
X015973Y011400
X014877Y024522
X009933Y007783
X009938Y013748
X020782Y024544
X028064Y015855
X008938Y013748
X021802Y010479
X022762Y019055
X015973Y015400
X019782Y024544
X009945Y012650
X028061Y020902
T104
X013239Y010048
X013239Y009046
X010989Y018763
X007110Y013995
X011114Y008598
X012989Y018763
X012116Y008598
X007110Y011995
T105
X010880Y023292
X012880Y020292
X014880Y023292
X007880Y020292
X008880Y023292
X011880Y020292
X013880Y023292
X009880Y023292
X009880Y020292
X013880Y020292
X011880Y023292
X008880Y020292
X007880Y023292
X014880Y020292
X012880Y023292
X010880Y020292
T106
X018797Y012409
X018797Y015409
X023797Y015409
X023797Y012409
X021797Y012409
X024797Y012409
X021797Y015409
X024797Y015409
X022797Y012409
X019797Y015409
X020797Y015409
X022797Y015409
X019797Y012409
X020797Y012409
T107
X010647Y002187
X010447Y005137
X007787Y003447
X006797Y003997
X008727Y000907
T108
X013276Y006869
X024136Y006805
X018844Y006805
X029604Y013950
X005303Y009628
X005315Y014937
X029363Y006805
X005340Y022588
X029574Y019387
T109
X014276Y006869
X005303Y007628
X029604Y015950
X005315Y012937
X029574Y021387
X015276Y006869
X025136Y006805
X026136Y006805
X019844Y006805
X029604Y014951
X005340Y020588
X030363Y006805
X020844Y006805
X031363Y006805
X005315Y013937
X005340Y021588
X005303Y008628
X029574Y020387
T110
X002387Y023530
X032557Y016892
X016217Y003916
X023195Y003852
X002362Y015878
X032557Y013009
X002350Y010569
X032527Y018445
X002350Y006686
X002362Y011995
X021786Y003852
X027078Y003852
X017903Y003852
X032527Y022328
X012334Y003916
X032305Y003852
X028422Y003852
X002387Y019647
T00
M30
