G04 MADE WITH FRITZING*
G04 WWW.FRITZING.ORG*
G04 DOUBLE SIDED*
G04 HOLES PLATED*
G04 CONTOUR ON CENTER OF CONTOUR VECTOR*
%ASAXBY*%
%FSLAX23Y23*%
%MOIN*%
%OFA0B0*%
%SFA1.0B1.0*%
%ADD10C,0.078000*%
%ADD11C,0.140000*%
%ADD12C,0.090020*%
%ADD13C,0.070000*%
%ADD14C,0.075000*%
%ADD15C,0.052000*%
%ADD16C,0.083307*%
%ADD17C,0.062992*%
%ADD18C,0.074667*%
%ADD19C,0.074695*%
%ADD20C,0.124033*%
%ADD21R,0.078000X0.078000*%
%ADD22R,0.083307X0.083307*%
%ADD23R,0.062992X0.062992*%
%ADD24R,0.075000X0.075000*%
%ADD25C,0.024000*%
%ADD26R,0.001000X0.001000*%
%LNCOPPER0*%
G90*
G70*
G54D10*
X2806Y2190D03*
X2806Y2090D03*
G54D11*
X534Y416D03*
X294Y416D03*
X414Y226D03*
G54D12*
X680Y400D03*
X779Y345D03*
X1045Y514D03*
X1065Y219D03*
X873Y91D03*
G54D13*
X1111Y860D03*
X1212Y860D03*
G54D10*
X893Y778D03*
X993Y778D03*
X1489Y1540D03*
X1489Y1440D03*
X1489Y1340D03*
X1489Y1240D03*
X1489Y1140D03*
X1597Y1540D03*
X1597Y1440D03*
X1597Y1340D03*
X1597Y1240D03*
X1597Y1140D03*
G54D14*
X663Y2461D03*
X1063Y2461D03*
X1556Y1944D03*
X1556Y1644D03*
X652Y1881D03*
X952Y1881D03*
X1164Y1408D03*
X1164Y1108D03*
G54D15*
X788Y2029D03*
X888Y2029D03*
X988Y2029D03*
X1088Y2029D03*
X1188Y2029D03*
X1288Y2029D03*
X1388Y2029D03*
X1488Y2029D03*
X1488Y2329D03*
X1388Y2329D03*
X1288Y2329D03*
X1188Y2329D03*
X1088Y2329D03*
X988Y2329D03*
X888Y2329D03*
X788Y2329D03*
G54D16*
X2480Y1541D03*
X2480Y1241D03*
X2380Y1541D03*
X2380Y1241D03*
X2280Y1541D03*
X2280Y1241D03*
X2180Y1541D03*
X2180Y1241D03*
X2080Y1541D03*
X2080Y1241D03*
X1980Y1541D03*
X1980Y1241D03*
X1880Y1541D03*
X1880Y1241D03*
G54D17*
X2008Y1782D03*
X2008Y1684D03*
X2606Y2376D03*
X2704Y2376D03*
G54D14*
X2664Y905D03*
X2664Y1005D03*
G54D10*
X2806Y1486D03*
X2806Y1586D03*
X2806Y1686D03*
X1876Y1906D03*
X1976Y1906D03*
X2076Y1906D03*
X2176Y1906D03*
X2276Y1906D03*
X2376Y1906D03*
X3358Y1078D03*
X3258Y1078D03*
X1388Y2452D03*
X1488Y2452D03*
X2280Y1048D03*
X2180Y1048D03*
X2080Y1048D03*
X2418Y1698D03*
X2318Y1698D03*
X2218Y1698D03*
X995Y1156D03*
X895Y1156D03*
X895Y1265D03*
X995Y1265D03*
X2808Y1787D03*
X2808Y1887D03*
X2808Y1987D03*
G54D14*
X2959Y1178D03*
X3259Y1178D03*
X1778Y2020D03*
X1778Y2320D03*
X1878Y2020D03*
X1878Y2320D03*
X1978Y2020D03*
X1978Y2320D03*
X2078Y2020D03*
X2078Y2320D03*
X2178Y2020D03*
X2178Y2320D03*
X2278Y2020D03*
X2278Y2320D03*
X2378Y2020D03*
X2378Y2320D03*
X2478Y2020D03*
X2478Y2320D03*
G54D18*
X2614Y681D03*
X2514Y681D03*
G54D19*
X2414Y681D03*
G54D20*
X2708Y385D03*
X2320Y385D03*
G54D18*
X3136Y681D03*
X3036Y681D03*
G54D19*
X2936Y681D03*
G54D20*
X3231Y385D03*
X2842Y385D03*
G54D18*
X2957Y2139D03*
X2957Y2039D03*
G54D19*
X2957Y1939D03*
G54D20*
X3253Y2233D03*
X3253Y1845D03*
G54D18*
X2960Y1595D03*
X2960Y1495D03*
G54D19*
X2960Y1395D03*
G54D20*
X3256Y1689D03*
X3256Y1301D03*
G54D18*
X2084Y681D03*
X1984Y681D03*
G54D19*
X1884Y681D03*
G54D20*
X2179Y385D03*
X1790Y385D03*
G54D18*
X532Y1294D03*
X532Y1394D03*
G54D19*
X532Y1494D03*
G54D20*
X236Y1200D03*
X236Y1588D03*
G54D18*
X1528Y687D03*
X1428Y687D03*
G54D19*
X1328Y687D03*
G54D20*
X1622Y392D03*
X1233Y392D03*
G54D18*
X530Y763D03*
X530Y863D03*
G54D19*
X530Y963D03*
G54D20*
X235Y669D03*
X235Y1057D03*
G54D14*
X3079Y891D03*
X3079Y991D03*
X1699Y988D03*
X1699Y888D03*
X535Y1780D03*
X235Y1780D03*
X620Y1686D03*
X320Y1686D03*
X2509Y888D03*
X2209Y888D03*
X1269Y1298D03*
X1369Y1298D03*
X1318Y1740D03*
X1018Y1740D03*
X785Y1811D03*
X785Y1511D03*
X3099Y2379D03*
X2799Y2379D03*
G54D13*
X1099Y1876D03*
X1299Y1876D03*
G54D10*
X994Y1375D03*
X894Y1375D03*
G54D18*
X534Y2059D03*
X534Y2159D03*
G54D19*
X534Y2259D03*
G54D20*
X239Y1965D03*
X239Y2353D03*
G54D13*
X711Y1200D03*
X711Y1400D03*
G54D14*
X1161Y1597D03*
X861Y1597D03*
G54D13*
X1324Y1005D03*
X1324Y905D03*
G54D10*
X808Y646D03*
X708Y646D03*
X1878Y2454D03*
X1978Y2454D03*
X2078Y2454D03*
X2178Y2454D03*
G54D21*
X893Y778D03*
G54D22*
X2480Y1541D03*
G54D23*
X2008Y1782D03*
X2606Y2376D03*
G54D24*
X2664Y905D03*
X1778Y2020D03*
X3079Y891D03*
X1699Y988D03*
X1269Y1298D03*
G54D21*
X808Y646D03*
G54D25*
X1417Y788D02*
X1425Y708D01*
D02*
X1685Y1172D02*
X1698Y1006D01*
D02*
X2720Y2376D02*
X2782Y2378D01*
D02*
X3259Y1161D02*
X3258Y1097D01*
D02*
X1489Y1421D02*
X1489Y1359D01*
D02*
X1489Y1521D02*
X1489Y1459D01*
D02*
X1597Y1321D02*
X1597Y1259D01*
D02*
X1597Y1421D02*
X1597Y1359D01*
D02*
X1597Y1521D02*
X1597Y1459D01*
D02*
X1876Y1925D02*
X1877Y2002D01*
D02*
X2099Y1048D02*
X2161Y1048D01*
D02*
X888Y2313D02*
X887Y2236D01*
D02*
X887Y2236D02*
X555Y2258D01*
D02*
X2376Y1925D02*
X2377Y2002D01*
D02*
X1976Y1925D02*
X1977Y2002D01*
D02*
X2337Y1698D02*
X2399Y1698D01*
D02*
X2806Y2109D02*
X2806Y2171D01*
D02*
X2807Y2006D02*
X2806Y2071D01*
D02*
X2938Y2132D02*
X2824Y2096D01*
D02*
X2494Y2327D02*
X2592Y2370D01*
D02*
X1106Y1889D02*
X1180Y2015D01*
D02*
X976Y1265D02*
X914Y1265D01*
D02*
X1327Y1755D02*
X1395Y1863D01*
D02*
X1226Y855D02*
X1417Y788D01*
D02*
X2176Y1925D02*
X2177Y2002D01*
D02*
X3096Y991D02*
X3227Y992D01*
D02*
X2184Y1262D02*
X2196Y1331D01*
D02*
X2196Y1331D02*
X2655Y1328D01*
D02*
X2655Y1328D02*
X2665Y1170D01*
D02*
X2665Y1170D02*
X3074Y1089D01*
D02*
X3074Y1089D02*
X3078Y1009D01*
D02*
X976Y1156D02*
X914Y1156D01*
D02*
X2277Y2002D02*
X2276Y1925D01*
D02*
X2943Y1606D02*
X2823Y1676D01*
D02*
X2077Y2002D02*
X2076Y1925D01*
D02*
X1682Y989D02*
X1339Y1004D01*
D02*
X518Y980D02*
X443Y1088D01*
D02*
X443Y1088D02*
X435Y1214D01*
D02*
X511Y1494D02*
X435Y1496D01*
D02*
X435Y1496D02*
X435Y1214D01*
D02*
X613Y1671D02*
X540Y1513D01*
D02*
X1870Y1522D02*
X1685Y1172D01*
D02*
X1998Y1672D02*
X1894Y1557D01*
D02*
X1182Y2314D02*
X1120Y2159D01*
D02*
X1120Y2159D02*
X555Y2159D01*
D02*
X3088Y2392D02*
X3002Y2492D01*
D02*
X3002Y2492D02*
X2285Y2497D01*
D02*
X2285Y2497D02*
X2278Y2337D01*
D02*
X2658Y888D02*
X2631Y807D01*
D02*
X2631Y807D02*
X2109Y810D01*
D02*
X2109Y810D02*
X2109Y955D01*
D02*
X2109Y955D02*
X1717Y987D01*
D02*
X513Y1950D02*
X533Y1798D01*
D02*
X1087Y1947D02*
X513Y1950D01*
D02*
X1088Y2013D02*
X1087Y1947D01*
D02*
X510Y957D02*
X431Y936D01*
D02*
X431Y936D02*
X428Y670D01*
D02*
X428Y670D02*
X875Y774D01*
D02*
X2319Y1759D02*
X2318Y1717D01*
D02*
X2024Y1781D02*
X2319Y1759D01*
D02*
X1420Y1759D02*
X1484Y2014D01*
D02*
X1175Y1422D02*
X1420Y1759D01*
D02*
X2216Y904D02*
X2273Y1031D01*
D02*
X2013Y1121D02*
X1986Y1220D01*
D02*
X2656Y1021D02*
X2611Y1119D01*
D02*
X2611Y1119D02*
X2013Y1121D01*
D02*
X1002Y952D02*
X995Y1137D01*
D02*
X550Y771D02*
X1002Y952D01*
D02*
X1153Y2465D02*
X1095Y2344D01*
D02*
X1080Y2462D02*
X1153Y2465D01*
D02*
X698Y1662D02*
X638Y1395D01*
D02*
X638Y1395D02*
X552Y1394D01*
D02*
X1020Y1662D02*
X698Y1662D01*
D02*
X1019Y1723D02*
X1020Y1662D01*
D02*
X552Y1292D02*
X876Y1267D01*
D02*
X1717Y886D02*
X2017Y836D01*
D02*
X2017Y836D02*
X2076Y699D01*
D02*
X3061Y892D02*
X2681Y904D01*
D02*
X2194Y1809D02*
X2180Y1887D01*
D02*
X2677Y1761D02*
X2194Y1809D01*
D02*
X2677Y1486D02*
X2677Y1761D01*
D02*
X2787Y1486D02*
X2677Y1486D01*
D02*
X3224Y829D02*
X3053Y693D01*
D02*
X3227Y992D02*
X3224Y829D01*
D02*
X1846Y799D02*
X1494Y818D01*
D02*
X1494Y818D02*
X1337Y898D01*
D02*
X1878Y700D02*
X1846Y799D01*
D02*
X819Y662D02*
X883Y762D01*
D02*
X2282Y1842D02*
X2278Y1887D01*
D02*
X2691Y1809D02*
X2282Y1842D01*
D02*
X2789Y1791D02*
X2691Y1809D01*
D02*
X1395Y1863D02*
X1389Y2013D01*
D02*
X774Y436D02*
X1005Y425D01*
D02*
X1005Y425D02*
X1056Y248D01*
D02*
X708Y411D02*
X774Y436D01*
G54D26*
X783Y2381D02*
X794Y2381D01*
X883Y2381D02*
X894Y2381D01*
X983Y2381D02*
X994Y2381D01*
X1083Y2381D02*
X1094Y2381D01*
X1183Y2381D02*
X1194Y2381D01*
X1283Y2381D02*
X1294Y2381D01*
X1383Y2381D02*
X1394Y2381D01*
X1483Y2381D02*
X1494Y2381D01*
X780Y2380D02*
X797Y2380D01*
X880Y2380D02*
X897Y2380D01*
X980Y2380D02*
X997Y2380D01*
X1080Y2380D02*
X1097Y2380D01*
X1180Y2380D02*
X1197Y2380D01*
X1280Y2380D02*
X1297Y2380D01*
X1380Y2380D02*
X1397Y2380D01*
X1480Y2380D02*
X1497Y2380D01*
X778Y2379D02*
X799Y2379D01*
X878Y2379D02*
X899Y2379D01*
X978Y2379D02*
X999Y2379D01*
X1078Y2379D02*
X1099Y2379D01*
X1178Y2379D02*
X1199Y2379D01*
X1278Y2379D02*
X1299Y2379D01*
X1378Y2379D02*
X1399Y2379D01*
X1478Y2379D02*
X1499Y2379D01*
X776Y2378D02*
X801Y2378D01*
X876Y2378D02*
X901Y2378D01*
X976Y2378D02*
X1001Y2378D01*
X1076Y2378D02*
X1101Y2378D01*
X1176Y2378D02*
X1201Y2378D01*
X1276Y2378D02*
X1301Y2378D01*
X1376Y2378D02*
X1401Y2378D01*
X1476Y2378D02*
X1501Y2378D01*
X774Y2377D02*
X803Y2377D01*
X874Y2377D02*
X903Y2377D01*
X974Y2377D02*
X1003Y2377D01*
X1074Y2377D02*
X1103Y2377D01*
X1174Y2377D02*
X1203Y2377D01*
X1274Y2377D02*
X1303Y2377D01*
X1374Y2377D02*
X1403Y2377D01*
X1474Y2377D02*
X1503Y2377D01*
X773Y2376D02*
X804Y2376D01*
X873Y2376D02*
X904Y2376D01*
X973Y2376D02*
X1004Y2376D01*
X1073Y2376D02*
X1104Y2376D01*
X1173Y2376D02*
X1204Y2376D01*
X1273Y2376D02*
X1304Y2376D01*
X1373Y2376D02*
X1404Y2376D01*
X1473Y2376D02*
X1504Y2376D01*
X772Y2375D02*
X805Y2375D01*
X872Y2375D02*
X905Y2375D01*
X972Y2375D02*
X1005Y2375D01*
X1072Y2375D02*
X1105Y2375D01*
X1172Y2375D02*
X1205Y2375D01*
X1272Y2375D02*
X1305Y2375D01*
X1372Y2375D02*
X1405Y2375D01*
X1472Y2375D02*
X1505Y2375D01*
X771Y2374D02*
X806Y2374D01*
X871Y2374D02*
X906Y2374D01*
X971Y2374D02*
X1006Y2374D01*
X1071Y2374D02*
X1106Y2374D01*
X1171Y2374D02*
X1206Y2374D01*
X1271Y2374D02*
X1306Y2374D01*
X1371Y2374D02*
X1406Y2374D01*
X1471Y2374D02*
X1506Y2374D01*
X770Y2373D02*
X807Y2373D01*
X870Y2373D02*
X907Y2373D01*
X970Y2373D02*
X1007Y2373D01*
X1070Y2373D02*
X1107Y2373D01*
X1170Y2373D02*
X1207Y2373D01*
X1270Y2373D02*
X1307Y2373D01*
X1370Y2373D02*
X1407Y2373D01*
X1470Y2373D02*
X1507Y2373D01*
X769Y2372D02*
X808Y2372D01*
X869Y2372D02*
X908Y2372D01*
X969Y2372D02*
X1008Y2372D01*
X1069Y2372D02*
X1108Y2372D01*
X1169Y2372D02*
X1208Y2372D01*
X1269Y2372D02*
X1308Y2372D01*
X1369Y2372D02*
X1408Y2372D01*
X1469Y2372D02*
X1508Y2372D01*
X768Y2371D02*
X809Y2371D01*
X868Y2371D02*
X909Y2371D01*
X968Y2371D02*
X1009Y2371D01*
X1068Y2371D02*
X1109Y2371D01*
X1168Y2371D02*
X1209Y2371D01*
X1268Y2371D02*
X1309Y2371D01*
X1368Y2371D02*
X1409Y2371D01*
X1468Y2371D02*
X1509Y2371D01*
X767Y2370D02*
X810Y2370D01*
X867Y2370D02*
X910Y2370D01*
X967Y2370D02*
X1010Y2370D01*
X1067Y2370D02*
X1110Y2370D01*
X1167Y2370D02*
X1210Y2370D01*
X1267Y2370D02*
X1310Y2370D01*
X1367Y2370D02*
X1410Y2370D01*
X1467Y2370D02*
X1510Y2370D01*
X767Y2369D02*
X810Y2369D01*
X867Y2369D02*
X910Y2369D01*
X967Y2369D02*
X1010Y2369D01*
X1067Y2369D02*
X1110Y2369D01*
X1167Y2369D02*
X1210Y2369D01*
X1267Y2369D02*
X1310Y2369D01*
X1367Y2369D02*
X1410Y2369D01*
X1467Y2369D02*
X1510Y2369D01*
X766Y2368D02*
X811Y2368D01*
X866Y2368D02*
X911Y2368D01*
X966Y2368D02*
X1011Y2368D01*
X1066Y2368D02*
X1111Y2368D01*
X1166Y2368D02*
X1211Y2368D01*
X1266Y2368D02*
X1311Y2368D01*
X1366Y2368D02*
X1411Y2368D01*
X1466Y2368D02*
X1511Y2368D01*
X766Y2367D02*
X811Y2367D01*
X866Y2367D02*
X911Y2367D01*
X966Y2367D02*
X1011Y2367D01*
X1066Y2367D02*
X1111Y2367D01*
X1166Y2367D02*
X1211Y2367D01*
X1266Y2367D02*
X1311Y2367D01*
X1366Y2367D02*
X1411Y2367D01*
X1466Y2367D02*
X1511Y2367D01*
X765Y2366D02*
X812Y2366D01*
X865Y2366D02*
X912Y2366D01*
X965Y2366D02*
X1012Y2366D01*
X1065Y2366D02*
X1112Y2366D01*
X1165Y2366D02*
X1212Y2366D01*
X1265Y2366D02*
X1312Y2366D01*
X1365Y2366D02*
X1412Y2366D01*
X1465Y2366D02*
X1512Y2366D01*
X765Y2365D02*
X812Y2365D01*
X865Y2365D02*
X912Y2365D01*
X965Y2365D02*
X1012Y2365D01*
X1065Y2365D02*
X1112Y2365D01*
X1165Y2365D02*
X1212Y2365D01*
X1265Y2365D02*
X1312Y2365D01*
X1365Y2365D02*
X1412Y2365D01*
X1465Y2365D02*
X1512Y2365D01*
X764Y2364D02*
X813Y2364D01*
X864Y2364D02*
X913Y2364D01*
X964Y2364D02*
X1013Y2364D01*
X1064Y2364D02*
X1113Y2364D01*
X1164Y2364D02*
X1213Y2364D01*
X1264Y2364D02*
X1313Y2364D01*
X1364Y2364D02*
X1413Y2364D01*
X1464Y2364D02*
X1513Y2364D01*
X764Y2363D02*
X813Y2363D01*
X864Y2363D02*
X913Y2363D01*
X964Y2363D02*
X1013Y2363D01*
X1064Y2363D02*
X1113Y2363D01*
X1164Y2363D02*
X1213Y2363D01*
X1264Y2363D02*
X1313Y2363D01*
X1364Y2363D02*
X1413Y2363D01*
X1464Y2363D02*
X1513Y2363D01*
X764Y2362D02*
X813Y2362D01*
X864Y2362D02*
X913Y2362D01*
X964Y2362D02*
X1013Y2362D01*
X1064Y2362D02*
X1113Y2362D01*
X1164Y2362D02*
X1213Y2362D01*
X1264Y2362D02*
X1313Y2362D01*
X1364Y2362D02*
X1413Y2362D01*
X1464Y2362D02*
X1513Y2362D01*
X764Y2361D02*
X813Y2361D01*
X864Y2361D02*
X913Y2361D01*
X964Y2361D02*
X1013Y2361D01*
X1064Y2361D02*
X1113Y2361D01*
X1164Y2361D02*
X1213Y2361D01*
X1264Y2361D02*
X1313Y2361D01*
X1364Y2361D02*
X1413Y2361D01*
X1464Y2361D02*
X1513Y2361D01*
X763Y2360D02*
X814Y2360D01*
X863Y2360D02*
X914Y2360D01*
X963Y2360D02*
X1014Y2360D01*
X1063Y2360D02*
X1114Y2360D01*
X1163Y2360D02*
X1214Y2360D01*
X1263Y2360D02*
X1314Y2360D01*
X1363Y2360D02*
X1414Y2360D01*
X1463Y2360D02*
X1514Y2360D01*
X763Y2359D02*
X814Y2359D01*
X863Y2359D02*
X914Y2359D01*
X963Y2359D02*
X1014Y2359D01*
X1063Y2359D02*
X1114Y2359D01*
X1163Y2359D02*
X1214Y2359D01*
X1263Y2359D02*
X1314Y2359D01*
X1363Y2359D02*
X1414Y2359D01*
X1463Y2359D02*
X1514Y2359D01*
X763Y2358D02*
X814Y2358D01*
X863Y2358D02*
X914Y2358D01*
X963Y2358D02*
X1014Y2358D01*
X1063Y2358D02*
X1114Y2358D01*
X1163Y2358D02*
X1214Y2358D01*
X1263Y2358D02*
X1314Y2358D01*
X1363Y2358D02*
X1414Y2358D01*
X1463Y2358D02*
X1514Y2358D01*
X763Y2357D02*
X814Y2357D01*
X863Y2357D02*
X914Y2357D01*
X963Y2357D02*
X1014Y2357D01*
X1063Y2357D02*
X1114Y2357D01*
X1163Y2357D02*
X1214Y2357D01*
X1263Y2357D02*
X1314Y2357D01*
X1363Y2357D02*
X1414Y2357D01*
X1463Y2357D02*
X1514Y2357D01*
X763Y2356D02*
X814Y2356D01*
X863Y2356D02*
X914Y2356D01*
X963Y2356D02*
X1014Y2356D01*
X1063Y2356D02*
X1114Y2356D01*
X1163Y2356D02*
X1214Y2356D01*
X1263Y2356D02*
X1314Y2356D01*
X1363Y2356D02*
X1414Y2356D01*
X1463Y2356D02*
X1514Y2356D01*
X763Y2355D02*
X814Y2355D01*
X863Y2355D02*
X914Y2355D01*
X963Y2355D02*
X1014Y2355D01*
X1063Y2355D02*
X1114Y2355D01*
X1163Y2355D02*
X1214Y2355D01*
X1263Y2355D02*
X1314Y2355D01*
X1363Y2355D02*
X1414Y2355D01*
X1463Y2355D02*
X1514Y2355D01*
X763Y2354D02*
X814Y2354D01*
X863Y2354D02*
X914Y2354D01*
X963Y2354D02*
X1014Y2354D01*
X1063Y2354D02*
X1114Y2354D01*
X1163Y2354D02*
X1214Y2354D01*
X1263Y2354D02*
X1314Y2354D01*
X1363Y2354D02*
X1414Y2354D01*
X1463Y2354D02*
X1514Y2354D01*
X763Y2353D02*
X814Y2353D01*
X863Y2353D02*
X914Y2353D01*
X963Y2353D02*
X1014Y2353D01*
X1063Y2353D02*
X1114Y2353D01*
X1163Y2353D02*
X1214Y2353D01*
X1263Y2353D02*
X1314Y2353D01*
X1363Y2353D02*
X1414Y2353D01*
X1463Y2353D02*
X1514Y2353D01*
X763Y2352D02*
X814Y2352D01*
X863Y2352D02*
X914Y2352D01*
X963Y2352D02*
X1014Y2352D01*
X1063Y2352D02*
X1114Y2352D01*
X1163Y2352D02*
X1214Y2352D01*
X1263Y2352D02*
X1314Y2352D01*
X1363Y2352D02*
X1414Y2352D01*
X1463Y2352D02*
X1514Y2352D01*
X763Y2351D02*
X814Y2351D01*
X863Y2351D02*
X914Y2351D01*
X963Y2351D02*
X1014Y2351D01*
X1063Y2351D02*
X1114Y2351D01*
X1163Y2351D02*
X1214Y2351D01*
X1263Y2351D02*
X1314Y2351D01*
X1363Y2351D02*
X1414Y2351D01*
X1463Y2351D02*
X1514Y2351D01*
X763Y2350D02*
X814Y2350D01*
X863Y2350D02*
X914Y2350D01*
X963Y2350D02*
X1014Y2350D01*
X1063Y2350D02*
X1114Y2350D01*
X1163Y2350D02*
X1214Y2350D01*
X1263Y2350D02*
X1314Y2350D01*
X1363Y2350D02*
X1414Y2350D01*
X1463Y2350D02*
X1514Y2350D01*
X763Y2349D02*
X814Y2349D01*
X863Y2349D02*
X914Y2349D01*
X963Y2349D02*
X1014Y2349D01*
X1063Y2349D02*
X1114Y2349D01*
X1163Y2349D02*
X1214Y2349D01*
X1263Y2349D02*
X1314Y2349D01*
X1363Y2349D02*
X1414Y2349D01*
X1463Y2349D02*
X1514Y2349D01*
X763Y2348D02*
X814Y2348D01*
X863Y2348D02*
X914Y2348D01*
X963Y2348D02*
X1014Y2348D01*
X1063Y2348D02*
X1114Y2348D01*
X1163Y2348D02*
X1214Y2348D01*
X1263Y2348D02*
X1314Y2348D01*
X1363Y2348D02*
X1414Y2348D01*
X1463Y2348D02*
X1514Y2348D01*
X763Y2347D02*
X814Y2347D01*
X863Y2347D02*
X914Y2347D01*
X963Y2347D02*
X1014Y2347D01*
X1063Y2347D02*
X1114Y2347D01*
X1163Y2347D02*
X1214Y2347D01*
X1263Y2347D02*
X1314Y2347D01*
X1363Y2347D02*
X1414Y2347D01*
X1463Y2347D02*
X1514Y2347D01*
X763Y2346D02*
X814Y2346D01*
X863Y2346D02*
X914Y2346D01*
X963Y2346D02*
X1014Y2346D01*
X1063Y2346D02*
X1114Y2346D01*
X1163Y2346D02*
X1214Y2346D01*
X1263Y2346D02*
X1314Y2346D01*
X1363Y2346D02*
X1414Y2346D01*
X1463Y2346D02*
X1514Y2346D01*
X763Y2345D02*
X784Y2345D01*
X793Y2345D02*
X814Y2345D01*
X863Y2345D02*
X884Y2345D01*
X893Y2345D02*
X914Y2345D01*
X963Y2345D02*
X984Y2345D01*
X993Y2345D02*
X1014Y2345D01*
X1063Y2345D02*
X1084Y2345D01*
X1093Y2345D02*
X1114Y2345D01*
X1163Y2345D02*
X1184Y2345D01*
X1193Y2345D02*
X1214Y2345D01*
X1263Y2345D02*
X1284Y2345D01*
X1293Y2345D02*
X1314Y2345D01*
X1363Y2345D02*
X1384Y2345D01*
X1393Y2345D02*
X1414Y2345D01*
X1463Y2345D02*
X1484Y2345D01*
X1493Y2345D02*
X1514Y2345D01*
X763Y2344D02*
X781Y2344D01*
X796Y2344D02*
X814Y2344D01*
X863Y2344D02*
X881Y2344D01*
X896Y2344D02*
X914Y2344D01*
X963Y2344D02*
X981Y2344D01*
X996Y2344D02*
X1014Y2344D01*
X1063Y2344D02*
X1081Y2344D01*
X1096Y2344D02*
X1114Y2344D01*
X1163Y2344D02*
X1181Y2344D01*
X1196Y2344D02*
X1214Y2344D01*
X1263Y2344D02*
X1281Y2344D01*
X1296Y2344D02*
X1314Y2344D01*
X1363Y2344D02*
X1381Y2344D01*
X1396Y2344D02*
X1414Y2344D01*
X1463Y2344D02*
X1481Y2344D01*
X1496Y2344D02*
X1514Y2344D01*
X763Y2343D02*
X779Y2343D01*
X798Y2343D02*
X814Y2343D01*
X863Y2343D02*
X879Y2343D01*
X898Y2343D02*
X914Y2343D01*
X963Y2343D02*
X979Y2343D01*
X998Y2343D02*
X1014Y2343D01*
X1063Y2343D02*
X1079Y2343D01*
X1098Y2343D02*
X1114Y2343D01*
X1163Y2343D02*
X1179Y2343D01*
X1198Y2343D02*
X1214Y2343D01*
X1263Y2343D02*
X1279Y2343D01*
X1298Y2343D02*
X1314Y2343D01*
X1363Y2343D02*
X1379Y2343D01*
X1398Y2343D02*
X1414Y2343D01*
X1463Y2343D02*
X1479Y2343D01*
X1498Y2343D02*
X1514Y2343D01*
X763Y2342D02*
X778Y2342D01*
X799Y2342D02*
X814Y2342D01*
X863Y2342D02*
X878Y2342D01*
X899Y2342D02*
X914Y2342D01*
X963Y2342D02*
X978Y2342D01*
X999Y2342D02*
X1014Y2342D01*
X1063Y2342D02*
X1078Y2342D01*
X1099Y2342D02*
X1114Y2342D01*
X1163Y2342D02*
X1178Y2342D01*
X1199Y2342D02*
X1214Y2342D01*
X1263Y2342D02*
X1278Y2342D01*
X1299Y2342D02*
X1314Y2342D01*
X1363Y2342D02*
X1378Y2342D01*
X1399Y2342D02*
X1414Y2342D01*
X1463Y2342D02*
X1478Y2342D01*
X1499Y2342D02*
X1514Y2342D01*
X763Y2341D02*
X777Y2341D01*
X800Y2341D02*
X814Y2341D01*
X863Y2341D02*
X877Y2341D01*
X900Y2341D02*
X914Y2341D01*
X963Y2341D02*
X977Y2341D01*
X1000Y2341D02*
X1014Y2341D01*
X1063Y2341D02*
X1077Y2341D01*
X1100Y2341D02*
X1114Y2341D01*
X1163Y2341D02*
X1177Y2341D01*
X1200Y2341D02*
X1214Y2341D01*
X1263Y2341D02*
X1277Y2341D01*
X1300Y2341D02*
X1314Y2341D01*
X1363Y2341D02*
X1377Y2341D01*
X1400Y2341D02*
X1414Y2341D01*
X1463Y2341D02*
X1477Y2341D01*
X1500Y2341D02*
X1514Y2341D01*
X763Y2340D02*
X776Y2340D01*
X801Y2340D02*
X814Y2340D01*
X863Y2340D02*
X876Y2340D01*
X901Y2340D02*
X914Y2340D01*
X963Y2340D02*
X976Y2340D01*
X1001Y2340D02*
X1014Y2340D01*
X1063Y2340D02*
X1076Y2340D01*
X1101Y2340D02*
X1114Y2340D01*
X1163Y2340D02*
X1176Y2340D01*
X1201Y2340D02*
X1214Y2340D01*
X1263Y2340D02*
X1276Y2340D01*
X1301Y2340D02*
X1314Y2340D01*
X1363Y2340D02*
X1376Y2340D01*
X1401Y2340D02*
X1414Y2340D01*
X1463Y2340D02*
X1476Y2340D01*
X1501Y2340D02*
X1514Y2340D01*
X763Y2339D02*
X775Y2339D01*
X802Y2339D02*
X814Y2339D01*
X863Y2339D02*
X875Y2339D01*
X902Y2339D02*
X914Y2339D01*
X963Y2339D02*
X975Y2339D01*
X1002Y2339D02*
X1014Y2339D01*
X1063Y2339D02*
X1075Y2339D01*
X1102Y2339D02*
X1114Y2339D01*
X1163Y2339D02*
X1175Y2339D01*
X1202Y2339D02*
X1214Y2339D01*
X1263Y2339D02*
X1275Y2339D01*
X1302Y2339D02*
X1314Y2339D01*
X1363Y2339D02*
X1375Y2339D01*
X1402Y2339D02*
X1414Y2339D01*
X1463Y2339D02*
X1475Y2339D01*
X1502Y2339D02*
X1514Y2339D01*
X763Y2338D02*
X774Y2338D01*
X803Y2338D02*
X814Y2338D01*
X863Y2338D02*
X874Y2338D01*
X903Y2338D02*
X914Y2338D01*
X963Y2338D02*
X974Y2338D01*
X1003Y2338D02*
X1014Y2338D01*
X1063Y2338D02*
X1074Y2338D01*
X1103Y2338D02*
X1114Y2338D01*
X1163Y2338D02*
X1174Y2338D01*
X1203Y2338D02*
X1214Y2338D01*
X1263Y2338D02*
X1274Y2338D01*
X1303Y2338D02*
X1314Y2338D01*
X1363Y2338D02*
X1374Y2338D01*
X1403Y2338D02*
X1414Y2338D01*
X1463Y2338D02*
X1474Y2338D01*
X1503Y2338D02*
X1514Y2338D01*
X763Y2337D02*
X774Y2337D01*
X803Y2337D02*
X814Y2337D01*
X863Y2337D02*
X874Y2337D01*
X903Y2337D02*
X914Y2337D01*
X963Y2337D02*
X974Y2337D01*
X1003Y2337D02*
X1014Y2337D01*
X1063Y2337D02*
X1074Y2337D01*
X1103Y2337D02*
X1114Y2337D01*
X1163Y2337D02*
X1174Y2337D01*
X1203Y2337D02*
X1214Y2337D01*
X1263Y2337D02*
X1274Y2337D01*
X1303Y2337D02*
X1314Y2337D01*
X1363Y2337D02*
X1374Y2337D01*
X1403Y2337D02*
X1414Y2337D01*
X1463Y2337D02*
X1474Y2337D01*
X1503Y2337D02*
X1514Y2337D01*
X763Y2336D02*
X773Y2336D01*
X804Y2336D02*
X814Y2336D01*
X863Y2336D02*
X873Y2336D01*
X904Y2336D02*
X914Y2336D01*
X963Y2336D02*
X973Y2336D01*
X1004Y2336D02*
X1014Y2336D01*
X1063Y2336D02*
X1073Y2336D01*
X1104Y2336D02*
X1114Y2336D01*
X1163Y2336D02*
X1173Y2336D01*
X1204Y2336D02*
X1214Y2336D01*
X1263Y2336D02*
X1273Y2336D01*
X1304Y2336D02*
X1314Y2336D01*
X1363Y2336D02*
X1373Y2336D01*
X1404Y2336D02*
X1414Y2336D01*
X1463Y2336D02*
X1473Y2336D01*
X1504Y2336D02*
X1514Y2336D01*
X763Y2335D02*
X773Y2335D01*
X804Y2335D02*
X814Y2335D01*
X863Y2335D02*
X873Y2335D01*
X904Y2335D02*
X914Y2335D01*
X963Y2335D02*
X973Y2335D01*
X1004Y2335D02*
X1014Y2335D01*
X1063Y2335D02*
X1073Y2335D01*
X1104Y2335D02*
X1114Y2335D01*
X1163Y2335D02*
X1173Y2335D01*
X1204Y2335D02*
X1214Y2335D01*
X1263Y2335D02*
X1273Y2335D01*
X1304Y2335D02*
X1314Y2335D01*
X1363Y2335D02*
X1373Y2335D01*
X1404Y2335D02*
X1414Y2335D01*
X1463Y2335D02*
X1473Y2335D01*
X1504Y2335D02*
X1514Y2335D01*
X763Y2334D02*
X773Y2334D01*
X804Y2334D02*
X814Y2334D01*
X863Y2334D02*
X873Y2334D01*
X904Y2334D02*
X914Y2334D01*
X963Y2334D02*
X973Y2334D01*
X1004Y2334D02*
X1014Y2334D01*
X1063Y2334D02*
X1073Y2334D01*
X1104Y2334D02*
X1114Y2334D01*
X1163Y2334D02*
X1173Y2334D01*
X1204Y2334D02*
X1214Y2334D01*
X1263Y2334D02*
X1273Y2334D01*
X1304Y2334D02*
X1314Y2334D01*
X1363Y2334D02*
X1373Y2334D01*
X1404Y2334D02*
X1414Y2334D01*
X1463Y2334D02*
X1473Y2334D01*
X1504Y2334D02*
X1514Y2334D01*
X763Y2333D02*
X772Y2333D01*
X805Y2333D02*
X814Y2333D01*
X863Y2333D02*
X872Y2333D01*
X905Y2333D02*
X914Y2333D01*
X963Y2333D02*
X972Y2333D01*
X1005Y2333D02*
X1014Y2333D01*
X1063Y2333D02*
X1072Y2333D01*
X1105Y2333D02*
X1114Y2333D01*
X1163Y2333D02*
X1172Y2333D01*
X1205Y2333D02*
X1214Y2333D01*
X1263Y2333D02*
X1272Y2333D01*
X1305Y2333D02*
X1314Y2333D01*
X1363Y2333D02*
X1372Y2333D01*
X1405Y2333D02*
X1414Y2333D01*
X1463Y2333D02*
X1472Y2333D01*
X1505Y2333D02*
X1514Y2333D01*
X763Y2332D02*
X772Y2332D01*
X805Y2332D02*
X814Y2332D01*
X863Y2332D02*
X872Y2332D01*
X905Y2332D02*
X914Y2332D01*
X963Y2332D02*
X972Y2332D01*
X1005Y2332D02*
X1014Y2332D01*
X1063Y2332D02*
X1072Y2332D01*
X1105Y2332D02*
X1114Y2332D01*
X1163Y2332D02*
X1172Y2332D01*
X1205Y2332D02*
X1214Y2332D01*
X1263Y2332D02*
X1272Y2332D01*
X1305Y2332D02*
X1314Y2332D01*
X1363Y2332D02*
X1372Y2332D01*
X1405Y2332D02*
X1414Y2332D01*
X1463Y2332D02*
X1472Y2332D01*
X1505Y2332D02*
X1514Y2332D01*
X763Y2331D02*
X772Y2331D01*
X805Y2331D02*
X814Y2331D01*
X863Y2331D02*
X872Y2331D01*
X905Y2331D02*
X914Y2331D01*
X963Y2331D02*
X972Y2331D01*
X1005Y2331D02*
X1014Y2331D01*
X1063Y2331D02*
X1072Y2331D01*
X1105Y2331D02*
X1114Y2331D01*
X1163Y2331D02*
X1172Y2331D01*
X1205Y2331D02*
X1214Y2331D01*
X1263Y2331D02*
X1272Y2331D01*
X1305Y2331D02*
X1314Y2331D01*
X1363Y2331D02*
X1372Y2331D01*
X1405Y2331D02*
X1414Y2331D01*
X1463Y2331D02*
X1472Y2331D01*
X1505Y2331D02*
X1514Y2331D01*
X763Y2330D02*
X772Y2330D01*
X805Y2330D02*
X814Y2330D01*
X863Y2330D02*
X872Y2330D01*
X905Y2330D02*
X914Y2330D01*
X963Y2330D02*
X972Y2330D01*
X1005Y2330D02*
X1014Y2330D01*
X1063Y2330D02*
X1072Y2330D01*
X1105Y2330D02*
X1114Y2330D01*
X1163Y2330D02*
X1172Y2330D01*
X1205Y2330D02*
X1214Y2330D01*
X1263Y2330D02*
X1272Y2330D01*
X1305Y2330D02*
X1314Y2330D01*
X1363Y2330D02*
X1372Y2330D01*
X1405Y2330D02*
X1414Y2330D01*
X1463Y2330D02*
X1472Y2330D01*
X1505Y2330D02*
X1514Y2330D01*
X763Y2329D02*
X772Y2329D01*
X805Y2329D02*
X814Y2329D01*
X863Y2329D02*
X872Y2329D01*
X905Y2329D02*
X914Y2329D01*
X963Y2329D02*
X972Y2329D01*
X1005Y2329D02*
X1014Y2329D01*
X1063Y2329D02*
X1072Y2329D01*
X1105Y2329D02*
X1114Y2329D01*
X1163Y2329D02*
X1172Y2329D01*
X1205Y2329D02*
X1214Y2329D01*
X1263Y2329D02*
X1272Y2329D01*
X1305Y2329D02*
X1314Y2329D01*
X1363Y2329D02*
X1372Y2329D01*
X1405Y2329D02*
X1414Y2329D01*
X1463Y2329D02*
X1472Y2329D01*
X1505Y2329D02*
X1514Y2329D01*
X763Y2328D02*
X772Y2328D01*
X805Y2328D02*
X814Y2328D01*
X863Y2328D02*
X872Y2328D01*
X905Y2328D02*
X914Y2328D01*
X963Y2328D02*
X972Y2328D01*
X1005Y2328D02*
X1014Y2328D01*
X1063Y2328D02*
X1072Y2328D01*
X1105Y2328D02*
X1114Y2328D01*
X1163Y2328D02*
X1172Y2328D01*
X1205Y2328D02*
X1214Y2328D01*
X1263Y2328D02*
X1272Y2328D01*
X1305Y2328D02*
X1314Y2328D01*
X1363Y2328D02*
X1372Y2328D01*
X1405Y2328D02*
X1414Y2328D01*
X1463Y2328D02*
X1472Y2328D01*
X1505Y2328D02*
X1514Y2328D01*
X763Y2327D02*
X772Y2327D01*
X805Y2327D02*
X814Y2327D01*
X863Y2327D02*
X872Y2327D01*
X905Y2327D02*
X914Y2327D01*
X963Y2327D02*
X972Y2327D01*
X1005Y2327D02*
X1014Y2327D01*
X1063Y2327D02*
X1072Y2327D01*
X1105Y2327D02*
X1114Y2327D01*
X1163Y2327D02*
X1172Y2327D01*
X1205Y2327D02*
X1214Y2327D01*
X1263Y2327D02*
X1272Y2327D01*
X1305Y2327D02*
X1314Y2327D01*
X1363Y2327D02*
X1372Y2327D01*
X1405Y2327D02*
X1414Y2327D01*
X1463Y2327D02*
X1472Y2327D01*
X1505Y2327D02*
X1514Y2327D01*
X763Y2326D02*
X772Y2326D01*
X805Y2326D02*
X814Y2326D01*
X863Y2326D02*
X872Y2326D01*
X905Y2326D02*
X914Y2326D01*
X963Y2326D02*
X972Y2326D01*
X1005Y2326D02*
X1014Y2326D01*
X1063Y2326D02*
X1072Y2326D01*
X1105Y2326D02*
X1114Y2326D01*
X1163Y2326D02*
X1172Y2326D01*
X1205Y2326D02*
X1214Y2326D01*
X1263Y2326D02*
X1272Y2326D01*
X1305Y2326D02*
X1314Y2326D01*
X1363Y2326D02*
X1372Y2326D01*
X1405Y2326D02*
X1414Y2326D01*
X1463Y2326D02*
X1472Y2326D01*
X1505Y2326D02*
X1514Y2326D01*
X763Y2325D02*
X773Y2325D01*
X804Y2325D02*
X814Y2325D01*
X863Y2325D02*
X873Y2325D01*
X904Y2325D02*
X914Y2325D01*
X963Y2325D02*
X973Y2325D01*
X1004Y2325D02*
X1014Y2325D01*
X1063Y2325D02*
X1073Y2325D01*
X1104Y2325D02*
X1114Y2325D01*
X1163Y2325D02*
X1173Y2325D01*
X1204Y2325D02*
X1214Y2325D01*
X1263Y2325D02*
X1273Y2325D01*
X1304Y2325D02*
X1314Y2325D01*
X1363Y2325D02*
X1373Y2325D01*
X1404Y2325D02*
X1414Y2325D01*
X1463Y2325D02*
X1473Y2325D01*
X1504Y2325D02*
X1514Y2325D01*
X763Y2324D02*
X773Y2324D01*
X804Y2324D02*
X814Y2324D01*
X863Y2324D02*
X873Y2324D01*
X904Y2324D02*
X914Y2324D01*
X963Y2324D02*
X973Y2324D01*
X1004Y2324D02*
X1014Y2324D01*
X1063Y2324D02*
X1073Y2324D01*
X1104Y2324D02*
X1114Y2324D01*
X1163Y2324D02*
X1173Y2324D01*
X1204Y2324D02*
X1214Y2324D01*
X1263Y2324D02*
X1273Y2324D01*
X1304Y2324D02*
X1314Y2324D01*
X1363Y2324D02*
X1373Y2324D01*
X1404Y2324D02*
X1414Y2324D01*
X1463Y2324D02*
X1473Y2324D01*
X1504Y2324D02*
X1514Y2324D01*
X763Y2323D02*
X774Y2323D01*
X804Y2323D02*
X814Y2323D01*
X863Y2323D02*
X874Y2323D01*
X904Y2323D02*
X914Y2323D01*
X963Y2323D02*
X974Y2323D01*
X1004Y2323D02*
X1014Y2323D01*
X1063Y2323D02*
X1074Y2323D01*
X1104Y2323D02*
X1114Y2323D01*
X1163Y2323D02*
X1173Y2323D01*
X1204Y2323D02*
X1214Y2323D01*
X1263Y2323D02*
X1273Y2323D01*
X1304Y2323D02*
X1314Y2323D01*
X1363Y2323D02*
X1373Y2323D01*
X1404Y2323D02*
X1414Y2323D01*
X1463Y2323D02*
X1473Y2323D01*
X1504Y2323D02*
X1514Y2323D01*
X763Y2322D02*
X774Y2322D01*
X803Y2322D02*
X814Y2322D01*
X863Y2322D02*
X874Y2322D01*
X903Y2322D02*
X914Y2322D01*
X963Y2322D02*
X974Y2322D01*
X1003Y2322D02*
X1014Y2322D01*
X1063Y2322D02*
X1074Y2322D01*
X1103Y2322D02*
X1114Y2322D01*
X1163Y2322D02*
X1174Y2322D01*
X1203Y2322D02*
X1214Y2322D01*
X1263Y2322D02*
X1274Y2322D01*
X1303Y2322D02*
X1314Y2322D01*
X1363Y2322D02*
X1374Y2322D01*
X1403Y2322D02*
X1414Y2322D01*
X1463Y2322D02*
X1474Y2322D01*
X1503Y2322D02*
X1514Y2322D01*
X763Y2321D02*
X775Y2321D01*
X802Y2321D02*
X814Y2321D01*
X863Y2321D02*
X875Y2321D01*
X902Y2321D02*
X914Y2321D01*
X963Y2321D02*
X975Y2321D01*
X1002Y2321D02*
X1014Y2321D01*
X1063Y2321D02*
X1075Y2321D01*
X1102Y2321D02*
X1114Y2321D01*
X1163Y2321D02*
X1175Y2321D01*
X1202Y2321D02*
X1214Y2321D01*
X1263Y2321D02*
X1275Y2321D01*
X1302Y2321D02*
X1314Y2321D01*
X1363Y2321D02*
X1375Y2321D01*
X1402Y2321D02*
X1414Y2321D01*
X1463Y2321D02*
X1475Y2321D01*
X1502Y2321D02*
X1514Y2321D01*
X763Y2320D02*
X775Y2320D01*
X802Y2320D02*
X814Y2320D01*
X863Y2320D02*
X875Y2320D01*
X902Y2320D02*
X914Y2320D01*
X963Y2320D02*
X975Y2320D01*
X1002Y2320D02*
X1014Y2320D01*
X1063Y2320D02*
X1075Y2320D01*
X1102Y2320D02*
X1114Y2320D01*
X1163Y2320D02*
X1175Y2320D01*
X1202Y2320D02*
X1214Y2320D01*
X1263Y2320D02*
X1275Y2320D01*
X1302Y2320D02*
X1314Y2320D01*
X1363Y2320D02*
X1375Y2320D01*
X1402Y2320D02*
X1414Y2320D01*
X1463Y2320D02*
X1475Y2320D01*
X1502Y2320D02*
X1514Y2320D01*
X763Y2319D02*
X776Y2319D01*
X801Y2319D02*
X814Y2319D01*
X863Y2319D02*
X876Y2319D01*
X901Y2319D02*
X914Y2319D01*
X963Y2319D02*
X976Y2319D01*
X1001Y2319D02*
X1014Y2319D01*
X1063Y2319D02*
X1076Y2319D01*
X1101Y2319D02*
X1114Y2319D01*
X1163Y2319D02*
X1176Y2319D01*
X1201Y2319D02*
X1214Y2319D01*
X1263Y2319D02*
X1276Y2319D01*
X1301Y2319D02*
X1314Y2319D01*
X1363Y2319D02*
X1376Y2319D01*
X1401Y2319D02*
X1414Y2319D01*
X1463Y2319D02*
X1476Y2319D01*
X1501Y2319D02*
X1514Y2319D01*
X763Y2318D02*
X777Y2318D01*
X800Y2318D02*
X814Y2318D01*
X863Y2318D02*
X877Y2318D01*
X900Y2318D02*
X914Y2318D01*
X963Y2318D02*
X977Y2318D01*
X1000Y2318D02*
X1014Y2318D01*
X1063Y2318D02*
X1077Y2318D01*
X1100Y2318D02*
X1114Y2318D01*
X1163Y2318D02*
X1177Y2318D01*
X1200Y2318D02*
X1214Y2318D01*
X1263Y2318D02*
X1277Y2318D01*
X1300Y2318D02*
X1314Y2318D01*
X1363Y2318D02*
X1377Y2318D01*
X1400Y2318D02*
X1414Y2318D01*
X1463Y2318D02*
X1477Y2318D01*
X1500Y2318D02*
X1514Y2318D01*
X763Y2317D02*
X778Y2317D01*
X799Y2317D02*
X814Y2317D01*
X863Y2317D02*
X878Y2317D01*
X899Y2317D02*
X914Y2317D01*
X963Y2317D02*
X978Y2317D01*
X999Y2317D02*
X1014Y2317D01*
X1063Y2317D02*
X1078Y2317D01*
X1099Y2317D02*
X1114Y2317D01*
X1163Y2317D02*
X1178Y2317D01*
X1199Y2317D02*
X1214Y2317D01*
X1263Y2317D02*
X1278Y2317D01*
X1299Y2317D02*
X1314Y2317D01*
X1363Y2317D02*
X1378Y2317D01*
X1399Y2317D02*
X1414Y2317D01*
X1463Y2317D02*
X1478Y2317D01*
X1499Y2317D02*
X1514Y2317D01*
X763Y2316D02*
X780Y2316D01*
X797Y2316D02*
X814Y2316D01*
X863Y2316D02*
X880Y2316D01*
X897Y2316D02*
X914Y2316D01*
X963Y2316D02*
X980Y2316D01*
X997Y2316D02*
X1014Y2316D01*
X1063Y2316D02*
X1080Y2316D01*
X1097Y2316D02*
X1114Y2316D01*
X1163Y2316D02*
X1180Y2316D01*
X1197Y2316D02*
X1214Y2316D01*
X1263Y2316D02*
X1280Y2316D01*
X1297Y2316D02*
X1314Y2316D01*
X1363Y2316D02*
X1380Y2316D01*
X1397Y2316D02*
X1414Y2316D01*
X1463Y2316D02*
X1480Y2316D01*
X1497Y2316D02*
X1514Y2316D01*
X763Y2315D02*
X782Y2315D01*
X795Y2315D02*
X814Y2315D01*
X863Y2315D02*
X882Y2315D01*
X895Y2315D02*
X914Y2315D01*
X963Y2315D02*
X982Y2315D01*
X995Y2315D02*
X1014Y2315D01*
X1063Y2315D02*
X1082Y2315D01*
X1095Y2315D02*
X1114Y2315D01*
X1163Y2315D02*
X1182Y2315D01*
X1195Y2315D02*
X1214Y2315D01*
X1263Y2315D02*
X1282Y2315D01*
X1295Y2315D02*
X1314Y2315D01*
X1363Y2315D02*
X1382Y2315D01*
X1395Y2315D02*
X1414Y2315D01*
X1463Y2315D02*
X1482Y2315D01*
X1495Y2315D02*
X1514Y2315D01*
X763Y2314D02*
X785Y2314D01*
X792Y2314D02*
X814Y2314D01*
X863Y2314D02*
X885Y2314D01*
X892Y2314D02*
X914Y2314D01*
X963Y2314D02*
X985Y2314D01*
X992Y2314D02*
X1014Y2314D01*
X1063Y2314D02*
X1085Y2314D01*
X1092Y2314D02*
X1114Y2314D01*
X1163Y2314D02*
X1185Y2314D01*
X1192Y2314D02*
X1214Y2314D01*
X1263Y2314D02*
X1285Y2314D01*
X1292Y2314D02*
X1314Y2314D01*
X1363Y2314D02*
X1385Y2314D01*
X1392Y2314D02*
X1414Y2314D01*
X1463Y2314D02*
X1485Y2314D01*
X1492Y2314D02*
X1514Y2314D01*
X763Y2313D02*
X814Y2313D01*
X863Y2313D02*
X914Y2313D01*
X963Y2313D02*
X1014Y2313D01*
X1063Y2313D02*
X1114Y2313D01*
X1163Y2313D02*
X1214Y2313D01*
X1263Y2313D02*
X1314Y2313D01*
X1363Y2313D02*
X1414Y2313D01*
X1463Y2313D02*
X1514Y2313D01*
X763Y2312D02*
X814Y2312D01*
X863Y2312D02*
X914Y2312D01*
X963Y2312D02*
X1014Y2312D01*
X1063Y2312D02*
X1114Y2312D01*
X1163Y2312D02*
X1214Y2312D01*
X1263Y2312D02*
X1314Y2312D01*
X1363Y2312D02*
X1414Y2312D01*
X1463Y2312D02*
X1514Y2312D01*
X763Y2311D02*
X814Y2311D01*
X863Y2311D02*
X914Y2311D01*
X963Y2311D02*
X1014Y2311D01*
X1063Y2311D02*
X1114Y2311D01*
X1163Y2311D02*
X1214Y2311D01*
X1263Y2311D02*
X1314Y2311D01*
X1363Y2311D02*
X1414Y2311D01*
X1463Y2311D02*
X1514Y2311D01*
X763Y2310D02*
X814Y2310D01*
X863Y2310D02*
X914Y2310D01*
X963Y2310D02*
X1014Y2310D01*
X1063Y2310D02*
X1114Y2310D01*
X1163Y2310D02*
X1214Y2310D01*
X1263Y2310D02*
X1314Y2310D01*
X1363Y2310D02*
X1414Y2310D01*
X1463Y2310D02*
X1514Y2310D01*
X763Y2309D02*
X814Y2309D01*
X863Y2309D02*
X914Y2309D01*
X963Y2309D02*
X1014Y2309D01*
X1063Y2309D02*
X1114Y2309D01*
X1163Y2309D02*
X1214Y2309D01*
X1263Y2309D02*
X1314Y2309D01*
X1363Y2309D02*
X1414Y2309D01*
X1463Y2309D02*
X1514Y2309D01*
X763Y2308D02*
X814Y2308D01*
X863Y2308D02*
X914Y2308D01*
X963Y2308D02*
X1014Y2308D01*
X1063Y2308D02*
X1114Y2308D01*
X1163Y2308D02*
X1214Y2308D01*
X1263Y2308D02*
X1314Y2308D01*
X1363Y2308D02*
X1414Y2308D01*
X1463Y2308D02*
X1514Y2308D01*
X763Y2307D02*
X814Y2307D01*
X863Y2307D02*
X914Y2307D01*
X963Y2307D02*
X1014Y2307D01*
X1063Y2307D02*
X1114Y2307D01*
X1163Y2307D02*
X1214Y2307D01*
X1263Y2307D02*
X1314Y2307D01*
X1363Y2307D02*
X1414Y2307D01*
X1463Y2307D02*
X1514Y2307D01*
X763Y2306D02*
X814Y2306D01*
X863Y2306D02*
X914Y2306D01*
X963Y2306D02*
X1014Y2306D01*
X1063Y2306D02*
X1114Y2306D01*
X1163Y2306D02*
X1214Y2306D01*
X1263Y2306D02*
X1314Y2306D01*
X1363Y2306D02*
X1414Y2306D01*
X1463Y2306D02*
X1514Y2306D01*
X763Y2305D02*
X814Y2305D01*
X863Y2305D02*
X914Y2305D01*
X963Y2305D02*
X1014Y2305D01*
X1063Y2305D02*
X1114Y2305D01*
X1163Y2305D02*
X1214Y2305D01*
X1263Y2305D02*
X1314Y2305D01*
X1363Y2305D02*
X1414Y2305D01*
X1463Y2305D02*
X1514Y2305D01*
X763Y2304D02*
X814Y2304D01*
X863Y2304D02*
X914Y2304D01*
X963Y2304D02*
X1014Y2304D01*
X1063Y2304D02*
X1114Y2304D01*
X1163Y2304D02*
X1214Y2304D01*
X1263Y2304D02*
X1314Y2304D01*
X1363Y2304D02*
X1414Y2304D01*
X1463Y2304D02*
X1514Y2304D01*
X763Y2303D02*
X814Y2303D01*
X863Y2303D02*
X914Y2303D01*
X963Y2303D02*
X1014Y2303D01*
X1063Y2303D02*
X1114Y2303D01*
X1163Y2303D02*
X1214Y2303D01*
X1263Y2303D02*
X1314Y2303D01*
X1363Y2303D02*
X1414Y2303D01*
X1463Y2303D02*
X1514Y2303D01*
X763Y2302D02*
X814Y2302D01*
X863Y2302D02*
X914Y2302D01*
X963Y2302D02*
X1014Y2302D01*
X1063Y2302D02*
X1114Y2302D01*
X1163Y2302D02*
X1214Y2302D01*
X1263Y2302D02*
X1314Y2302D01*
X1363Y2302D02*
X1414Y2302D01*
X1463Y2302D02*
X1514Y2302D01*
X763Y2301D02*
X814Y2301D01*
X863Y2301D02*
X914Y2301D01*
X963Y2301D02*
X1014Y2301D01*
X1063Y2301D02*
X1114Y2301D01*
X1163Y2301D02*
X1214Y2301D01*
X1263Y2301D02*
X1314Y2301D01*
X1363Y2301D02*
X1414Y2301D01*
X1463Y2301D02*
X1514Y2301D01*
X763Y2300D02*
X814Y2300D01*
X863Y2300D02*
X914Y2300D01*
X963Y2300D02*
X1014Y2300D01*
X1063Y2300D02*
X1114Y2300D01*
X1163Y2300D02*
X1214Y2300D01*
X1263Y2300D02*
X1314Y2300D01*
X1363Y2300D02*
X1414Y2300D01*
X1463Y2300D02*
X1514Y2300D01*
X763Y2299D02*
X814Y2299D01*
X863Y2299D02*
X914Y2299D01*
X963Y2299D02*
X1014Y2299D01*
X1063Y2299D02*
X1114Y2299D01*
X1163Y2299D02*
X1214Y2299D01*
X1263Y2299D02*
X1314Y2299D01*
X1363Y2299D02*
X1414Y2299D01*
X1463Y2299D02*
X1514Y2299D01*
X764Y2298D02*
X813Y2298D01*
X864Y2298D02*
X913Y2298D01*
X964Y2298D02*
X1013Y2298D01*
X1064Y2298D02*
X1113Y2298D01*
X1164Y2298D02*
X1213Y2298D01*
X1264Y2298D02*
X1313Y2298D01*
X1364Y2298D02*
X1413Y2298D01*
X1464Y2298D02*
X1513Y2298D01*
X764Y2297D02*
X813Y2297D01*
X864Y2297D02*
X913Y2297D01*
X964Y2297D02*
X1013Y2297D01*
X1064Y2297D02*
X1113Y2297D01*
X1164Y2297D02*
X1213Y2297D01*
X1264Y2297D02*
X1313Y2297D01*
X1364Y2297D02*
X1413Y2297D01*
X1464Y2297D02*
X1513Y2297D01*
X764Y2296D02*
X813Y2296D01*
X864Y2296D02*
X913Y2296D01*
X964Y2296D02*
X1013Y2296D01*
X1064Y2296D02*
X1113Y2296D01*
X1164Y2296D02*
X1213Y2296D01*
X1264Y2296D02*
X1313Y2296D01*
X1364Y2296D02*
X1413Y2296D01*
X1464Y2296D02*
X1513Y2296D01*
X765Y2295D02*
X813Y2295D01*
X865Y2295D02*
X913Y2295D01*
X965Y2295D02*
X1013Y2295D01*
X1065Y2295D02*
X1113Y2295D01*
X1165Y2295D02*
X1213Y2295D01*
X1265Y2295D02*
X1313Y2295D01*
X1365Y2295D02*
X1412Y2295D01*
X1464Y2295D02*
X1512Y2295D01*
X765Y2294D02*
X812Y2294D01*
X865Y2294D02*
X912Y2294D01*
X965Y2294D02*
X1012Y2294D01*
X1065Y2294D02*
X1112Y2294D01*
X1165Y2294D02*
X1212Y2294D01*
X1265Y2294D02*
X1312Y2294D01*
X1365Y2294D02*
X1412Y2294D01*
X1465Y2294D02*
X1512Y2294D01*
X765Y2293D02*
X812Y2293D01*
X865Y2293D02*
X912Y2293D01*
X965Y2293D02*
X1012Y2293D01*
X1065Y2293D02*
X1112Y2293D01*
X1165Y2293D02*
X1212Y2293D01*
X1265Y2293D02*
X1312Y2293D01*
X1365Y2293D02*
X1412Y2293D01*
X1465Y2293D02*
X1512Y2293D01*
X766Y2292D02*
X811Y2292D01*
X866Y2292D02*
X911Y2292D01*
X966Y2292D02*
X1011Y2292D01*
X1066Y2292D02*
X1111Y2292D01*
X1166Y2292D02*
X1211Y2292D01*
X1266Y2292D02*
X1311Y2292D01*
X1366Y2292D02*
X1411Y2292D01*
X1466Y2292D02*
X1511Y2292D01*
X766Y2291D02*
X811Y2291D01*
X866Y2291D02*
X911Y2291D01*
X966Y2291D02*
X1011Y2291D01*
X1066Y2291D02*
X1111Y2291D01*
X1166Y2291D02*
X1211Y2291D01*
X1266Y2291D02*
X1311Y2291D01*
X1366Y2291D02*
X1411Y2291D01*
X1466Y2291D02*
X1511Y2291D01*
X767Y2290D02*
X810Y2290D01*
X867Y2290D02*
X910Y2290D01*
X967Y2290D02*
X1010Y2290D01*
X1067Y2290D02*
X1110Y2290D01*
X1167Y2290D02*
X1210Y2290D01*
X1267Y2290D02*
X1310Y2290D01*
X1367Y2290D02*
X1410Y2290D01*
X1467Y2290D02*
X1510Y2290D01*
X768Y2289D02*
X809Y2289D01*
X868Y2289D02*
X909Y2289D01*
X968Y2289D02*
X1009Y2289D01*
X1068Y2289D02*
X1109Y2289D01*
X1168Y2289D02*
X1209Y2289D01*
X1268Y2289D02*
X1309Y2289D01*
X1368Y2289D02*
X1409Y2289D01*
X1468Y2289D02*
X1509Y2289D01*
X768Y2288D02*
X809Y2288D01*
X868Y2288D02*
X909Y2288D01*
X968Y2288D02*
X1009Y2288D01*
X1068Y2288D02*
X1109Y2288D01*
X1168Y2288D02*
X1209Y2288D01*
X1268Y2288D02*
X1309Y2288D01*
X1368Y2288D02*
X1409Y2288D01*
X1468Y2288D02*
X1509Y2288D01*
X769Y2287D02*
X808Y2287D01*
X869Y2287D02*
X908Y2287D01*
X969Y2287D02*
X1008Y2287D01*
X1069Y2287D02*
X1108Y2287D01*
X1169Y2287D02*
X1208Y2287D01*
X1269Y2287D02*
X1308Y2287D01*
X1369Y2287D02*
X1408Y2287D01*
X1469Y2287D02*
X1508Y2287D01*
X770Y2286D02*
X807Y2286D01*
X870Y2286D02*
X907Y2286D01*
X970Y2286D02*
X1007Y2286D01*
X1070Y2286D02*
X1107Y2286D01*
X1170Y2286D02*
X1207Y2286D01*
X1270Y2286D02*
X1307Y2286D01*
X1370Y2286D02*
X1407Y2286D01*
X1470Y2286D02*
X1507Y2286D01*
X771Y2285D02*
X806Y2285D01*
X871Y2285D02*
X906Y2285D01*
X971Y2285D02*
X1006Y2285D01*
X1071Y2285D02*
X1106Y2285D01*
X1171Y2285D02*
X1206Y2285D01*
X1271Y2285D02*
X1306Y2285D01*
X1371Y2285D02*
X1406Y2285D01*
X1471Y2285D02*
X1506Y2285D01*
X772Y2284D02*
X805Y2284D01*
X872Y2284D02*
X905Y2284D01*
X972Y2284D02*
X1005Y2284D01*
X1072Y2284D02*
X1105Y2284D01*
X1172Y2284D02*
X1205Y2284D01*
X1272Y2284D02*
X1305Y2284D01*
X1372Y2284D02*
X1405Y2284D01*
X1472Y2284D02*
X1505Y2284D01*
X773Y2283D02*
X804Y2283D01*
X873Y2283D02*
X904Y2283D01*
X973Y2283D02*
X1004Y2283D01*
X1073Y2283D02*
X1104Y2283D01*
X1173Y2283D02*
X1204Y2283D01*
X1273Y2283D02*
X1304Y2283D01*
X1373Y2283D02*
X1404Y2283D01*
X1473Y2283D02*
X1504Y2283D01*
X775Y2282D02*
X802Y2282D01*
X875Y2282D02*
X902Y2282D01*
X975Y2282D02*
X1002Y2282D01*
X1075Y2282D02*
X1102Y2282D01*
X1175Y2282D02*
X1202Y2282D01*
X1275Y2282D02*
X1302Y2282D01*
X1375Y2282D02*
X1402Y2282D01*
X1475Y2282D02*
X1502Y2282D01*
X777Y2281D02*
X801Y2281D01*
X877Y2281D02*
X901Y2281D01*
X977Y2281D02*
X1001Y2281D01*
X1077Y2281D02*
X1101Y2281D01*
X1176Y2281D02*
X1201Y2281D01*
X1276Y2281D02*
X1301Y2281D01*
X1376Y2281D02*
X1401Y2281D01*
X1476Y2281D02*
X1501Y2281D01*
X778Y2280D02*
X799Y2280D01*
X878Y2280D02*
X899Y2280D01*
X978Y2280D02*
X999Y2280D01*
X1078Y2280D02*
X1099Y2280D01*
X1178Y2280D02*
X1199Y2280D01*
X1278Y2280D02*
X1299Y2280D01*
X1378Y2280D02*
X1399Y2280D01*
X1478Y2280D02*
X1499Y2280D01*
X781Y2279D02*
X796Y2279D01*
X881Y2279D02*
X896Y2279D01*
X981Y2279D02*
X996Y2279D01*
X1081Y2279D02*
X1096Y2279D01*
X1181Y2279D02*
X1196Y2279D01*
X1281Y2279D02*
X1296Y2279D01*
X1381Y2279D02*
X1396Y2279D01*
X1481Y2279D02*
X1496Y2279D01*
X785Y2278D02*
X792Y2278D01*
X885Y2278D02*
X892Y2278D01*
X985Y2278D02*
X992Y2278D01*
X1085Y2278D02*
X1092Y2278D01*
X1185Y2278D02*
X1192Y2278D01*
X1285Y2278D02*
X1292Y2278D01*
X1385Y2278D02*
X1392Y2278D01*
X1485Y2278D02*
X1492Y2278D01*
X783Y2081D02*
X794Y2081D01*
X883Y2081D02*
X894Y2081D01*
X983Y2081D02*
X994Y2081D01*
X1083Y2081D02*
X1094Y2081D01*
X1183Y2081D02*
X1194Y2081D01*
X1283Y2081D02*
X1294Y2081D01*
X1383Y2081D02*
X1394Y2081D01*
X1483Y2081D02*
X1494Y2081D01*
X780Y2080D02*
X797Y2080D01*
X880Y2080D02*
X897Y2080D01*
X980Y2080D02*
X997Y2080D01*
X1080Y2080D02*
X1097Y2080D01*
X1180Y2080D02*
X1197Y2080D01*
X1280Y2080D02*
X1297Y2080D01*
X1380Y2080D02*
X1397Y2080D01*
X1480Y2080D02*
X1497Y2080D01*
X778Y2079D02*
X799Y2079D01*
X878Y2079D02*
X899Y2079D01*
X978Y2079D02*
X999Y2079D01*
X1078Y2079D02*
X1099Y2079D01*
X1178Y2079D02*
X1199Y2079D01*
X1278Y2079D02*
X1299Y2079D01*
X1378Y2079D02*
X1399Y2079D01*
X1478Y2079D02*
X1499Y2079D01*
X776Y2078D02*
X801Y2078D01*
X876Y2078D02*
X901Y2078D01*
X976Y2078D02*
X1001Y2078D01*
X1076Y2078D02*
X1101Y2078D01*
X1176Y2078D02*
X1201Y2078D01*
X1276Y2078D02*
X1301Y2078D01*
X1376Y2078D02*
X1401Y2078D01*
X1476Y2078D02*
X1501Y2078D01*
X774Y2077D02*
X803Y2077D01*
X874Y2077D02*
X903Y2077D01*
X974Y2077D02*
X1003Y2077D01*
X1074Y2077D02*
X1103Y2077D01*
X1174Y2077D02*
X1203Y2077D01*
X1274Y2077D02*
X1303Y2077D01*
X1374Y2077D02*
X1403Y2077D01*
X1474Y2077D02*
X1503Y2077D01*
X773Y2076D02*
X804Y2076D01*
X873Y2076D02*
X904Y2076D01*
X973Y2076D02*
X1004Y2076D01*
X1073Y2076D02*
X1104Y2076D01*
X1173Y2076D02*
X1204Y2076D01*
X1273Y2076D02*
X1304Y2076D01*
X1373Y2076D02*
X1404Y2076D01*
X1473Y2076D02*
X1504Y2076D01*
X772Y2075D02*
X805Y2075D01*
X872Y2075D02*
X905Y2075D01*
X972Y2075D02*
X1005Y2075D01*
X1072Y2075D02*
X1105Y2075D01*
X1172Y2075D02*
X1205Y2075D01*
X1272Y2075D02*
X1305Y2075D01*
X1372Y2075D02*
X1405Y2075D01*
X1472Y2075D02*
X1505Y2075D01*
X771Y2074D02*
X806Y2074D01*
X871Y2074D02*
X906Y2074D01*
X971Y2074D02*
X1006Y2074D01*
X1071Y2074D02*
X1106Y2074D01*
X1171Y2074D02*
X1206Y2074D01*
X1271Y2074D02*
X1306Y2074D01*
X1371Y2074D02*
X1406Y2074D01*
X1471Y2074D02*
X1506Y2074D01*
X770Y2073D02*
X807Y2073D01*
X870Y2073D02*
X907Y2073D01*
X970Y2073D02*
X1007Y2073D01*
X1070Y2073D02*
X1107Y2073D01*
X1170Y2073D02*
X1207Y2073D01*
X1270Y2073D02*
X1307Y2073D01*
X1370Y2073D02*
X1407Y2073D01*
X1470Y2073D02*
X1507Y2073D01*
X769Y2072D02*
X808Y2072D01*
X869Y2072D02*
X908Y2072D01*
X969Y2072D02*
X1008Y2072D01*
X1069Y2072D02*
X1108Y2072D01*
X1169Y2072D02*
X1208Y2072D01*
X1269Y2072D02*
X1308Y2072D01*
X1369Y2072D02*
X1408Y2072D01*
X1469Y2072D02*
X1508Y2072D01*
X768Y2071D02*
X809Y2071D01*
X868Y2071D02*
X909Y2071D01*
X968Y2071D02*
X1009Y2071D01*
X1068Y2071D02*
X1109Y2071D01*
X1168Y2071D02*
X1209Y2071D01*
X1268Y2071D02*
X1309Y2071D01*
X1368Y2071D02*
X1409Y2071D01*
X1468Y2071D02*
X1509Y2071D01*
X767Y2070D02*
X810Y2070D01*
X867Y2070D02*
X910Y2070D01*
X967Y2070D02*
X1010Y2070D01*
X1067Y2070D02*
X1110Y2070D01*
X1167Y2070D02*
X1210Y2070D01*
X1267Y2070D02*
X1310Y2070D01*
X1367Y2070D02*
X1410Y2070D01*
X1467Y2070D02*
X1510Y2070D01*
X767Y2069D02*
X810Y2069D01*
X867Y2069D02*
X910Y2069D01*
X967Y2069D02*
X1010Y2069D01*
X1067Y2069D02*
X1110Y2069D01*
X1167Y2069D02*
X1210Y2069D01*
X1267Y2069D02*
X1310Y2069D01*
X1367Y2069D02*
X1410Y2069D01*
X1467Y2069D02*
X1510Y2069D01*
X766Y2068D02*
X811Y2068D01*
X866Y2068D02*
X911Y2068D01*
X966Y2068D02*
X1011Y2068D01*
X1066Y2068D02*
X1111Y2068D01*
X1166Y2068D02*
X1211Y2068D01*
X1266Y2068D02*
X1311Y2068D01*
X1366Y2068D02*
X1411Y2068D01*
X1466Y2068D02*
X1511Y2068D01*
X766Y2067D02*
X811Y2067D01*
X866Y2067D02*
X911Y2067D01*
X966Y2067D02*
X1011Y2067D01*
X1066Y2067D02*
X1111Y2067D01*
X1166Y2067D02*
X1211Y2067D01*
X1266Y2067D02*
X1311Y2067D01*
X1366Y2067D02*
X1411Y2067D01*
X1466Y2067D02*
X1511Y2067D01*
X765Y2066D02*
X812Y2066D01*
X865Y2066D02*
X912Y2066D01*
X965Y2066D02*
X1012Y2066D01*
X1065Y2066D02*
X1112Y2066D01*
X1165Y2066D02*
X1212Y2066D01*
X1265Y2066D02*
X1312Y2066D01*
X1365Y2066D02*
X1412Y2066D01*
X1465Y2066D02*
X1512Y2066D01*
X765Y2065D02*
X812Y2065D01*
X865Y2065D02*
X912Y2065D01*
X965Y2065D02*
X1012Y2065D01*
X1065Y2065D02*
X1112Y2065D01*
X1165Y2065D02*
X1212Y2065D01*
X1265Y2065D02*
X1312Y2065D01*
X1365Y2065D02*
X1412Y2065D01*
X1465Y2065D02*
X1512Y2065D01*
X764Y2064D02*
X813Y2064D01*
X864Y2064D02*
X913Y2064D01*
X964Y2064D02*
X1013Y2064D01*
X1064Y2064D02*
X1113Y2064D01*
X1164Y2064D02*
X1213Y2064D01*
X1264Y2064D02*
X1313Y2064D01*
X1364Y2064D02*
X1413Y2064D01*
X1464Y2064D02*
X1513Y2064D01*
X764Y2063D02*
X813Y2063D01*
X864Y2063D02*
X913Y2063D01*
X964Y2063D02*
X1013Y2063D01*
X1064Y2063D02*
X1113Y2063D01*
X1164Y2063D02*
X1213Y2063D01*
X1264Y2063D02*
X1313Y2063D01*
X1364Y2063D02*
X1413Y2063D01*
X1464Y2063D02*
X1513Y2063D01*
X764Y2062D02*
X813Y2062D01*
X864Y2062D02*
X913Y2062D01*
X964Y2062D02*
X1013Y2062D01*
X1064Y2062D02*
X1113Y2062D01*
X1164Y2062D02*
X1213Y2062D01*
X1264Y2062D02*
X1313Y2062D01*
X1364Y2062D02*
X1413Y2062D01*
X1464Y2062D02*
X1513Y2062D01*
X764Y2061D02*
X813Y2061D01*
X864Y2061D02*
X913Y2061D01*
X964Y2061D02*
X1013Y2061D01*
X1064Y2061D02*
X1113Y2061D01*
X1164Y2061D02*
X1213Y2061D01*
X1264Y2061D02*
X1313Y2061D01*
X1364Y2061D02*
X1413Y2061D01*
X1464Y2061D02*
X1513Y2061D01*
X763Y2060D02*
X814Y2060D01*
X863Y2060D02*
X914Y2060D01*
X963Y2060D02*
X1014Y2060D01*
X1063Y2060D02*
X1114Y2060D01*
X1163Y2060D02*
X1214Y2060D01*
X1263Y2060D02*
X1314Y2060D01*
X1363Y2060D02*
X1414Y2060D01*
X1463Y2060D02*
X1514Y2060D01*
X763Y2059D02*
X814Y2059D01*
X863Y2059D02*
X914Y2059D01*
X963Y2059D02*
X1014Y2059D01*
X1063Y2059D02*
X1114Y2059D01*
X1163Y2059D02*
X1214Y2059D01*
X1263Y2059D02*
X1314Y2059D01*
X1363Y2059D02*
X1414Y2059D01*
X1463Y2059D02*
X1514Y2059D01*
X763Y2058D02*
X814Y2058D01*
X863Y2058D02*
X914Y2058D01*
X963Y2058D02*
X1014Y2058D01*
X1063Y2058D02*
X1114Y2058D01*
X1163Y2058D02*
X1214Y2058D01*
X1263Y2058D02*
X1314Y2058D01*
X1363Y2058D02*
X1414Y2058D01*
X1463Y2058D02*
X1514Y2058D01*
X763Y2057D02*
X814Y2057D01*
X863Y2057D02*
X914Y2057D01*
X963Y2057D02*
X1014Y2057D01*
X1063Y2057D02*
X1114Y2057D01*
X1163Y2057D02*
X1214Y2057D01*
X1263Y2057D02*
X1314Y2057D01*
X1363Y2057D02*
X1414Y2057D01*
X1463Y2057D02*
X1514Y2057D01*
X763Y2056D02*
X814Y2056D01*
X863Y2056D02*
X914Y2056D01*
X963Y2056D02*
X1014Y2056D01*
X1063Y2056D02*
X1114Y2056D01*
X1163Y2056D02*
X1214Y2056D01*
X1263Y2056D02*
X1314Y2056D01*
X1363Y2056D02*
X1414Y2056D01*
X1463Y2056D02*
X1514Y2056D01*
X763Y2055D02*
X814Y2055D01*
X863Y2055D02*
X914Y2055D01*
X963Y2055D02*
X1014Y2055D01*
X1063Y2055D02*
X1114Y2055D01*
X1163Y2055D02*
X1214Y2055D01*
X1263Y2055D02*
X1314Y2055D01*
X1363Y2055D02*
X1414Y2055D01*
X1463Y2055D02*
X1514Y2055D01*
X763Y2054D02*
X814Y2054D01*
X863Y2054D02*
X914Y2054D01*
X963Y2054D02*
X1014Y2054D01*
X1063Y2054D02*
X1114Y2054D01*
X1163Y2054D02*
X1214Y2054D01*
X1263Y2054D02*
X1314Y2054D01*
X1363Y2054D02*
X1414Y2054D01*
X1463Y2054D02*
X1514Y2054D01*
X763Y2053D02*
X814Y2053D01*
X863Y2053D02*
X914Y2053D01*
X963Y2053D02*
X1014Y2053D01*
X1063Y2053D02*
X1114Y2053D01*
X1163Y2053D02*
X1214Y2053D01*
X1263Y2053D02*
X1314Y2053D01*
X1363Y2053D02*
X1414Y2053D01*
X1463Y2053D02*
X1514Y2053D01*
X763Y2052D02*
X814Y2052D01*
X863Y2052D02*
X914Y2052D01*
X963Y2052D02*
X1014Y2052D01*
X1063Y2052D02*
X1114Y2052D01*
X1163Y2052D02*
X1214Y2052D01*
X1263Y2052D02*
X1314Y2052D01*
X1363Y2052D02*
X1414Y2052D01*
X1463Y2052D02*
X1514Y2052D01*
X763Y2051D02*
X814Y2051D01*
X863Y2051D02*
X914Y2051D01*
X963Y2051D02*
X1014Y2051D01*
X1063Y2051D02*
X1114Y2051D01*
X1163Y2051D02*
X1214Y2051D01*
X1263Y2051D02*
X1314Y2051D01*
X1363Y2051D02*
X1414Y2051D01*
X1463Y2051D02*
X1514Y2051D01*
X763Y2050D02*
X814Y2050D01*
X863Y2050D02*
X914Y2050D01*
X963Y2050D02*
X1014Y2050D01*
X1063Y2050D02*
X1114Y2050D01*
X1163Y2050D02*
X1214Y2050D01*
X1263Y2050D02*
X1314Y2050D01*
X1363Y2050D02*
X1414Y2050D01*
X1463Y2050D02*
X1514Y2050D01*
X763Y2049D02*
X814Y2049D01*
X863Y2049D02*
X914Y2049D01*
X963Y2049D02*
X1014Y2049D01*
X1063Y2049D02*
X1114Y2049D01*
X1163Y2049D02*
X1214Y2049D01*
X1263Y2049D02*
X1314Y2049D01*
X1363Y2049D02*
X1414Y2049D01*
X1463Y2049D02*
X1514Y2049D01*
X763Y2048D02*
X814Y2048D01*
X863Y2048D02*
X914Y2048D01*
X963Y2048D02*
X1014Y2048D01*
X1063Y2048D02*
X1114Y2048D01*
X1163Y2048D02*
X1214Y2048D01*
X1263Y2048D02*
X1314Y2048D01*
X1363Y2048D02*
X1414Y2048D01*
X1463Y2048D02*
X1514Y2048D01*
X763Y2047D02*
X814Y2047D01*
X863Y2047D02*
X914Y2047D01*
X963Y2047D02*
X1014Y2047D01*
X1063Y2047D02*
X1114Y2047D01*
X1163Y2047D02*
X1214Y2047D01*
X1263Y2047D02*
X1314Y2047D01*
X1363Y2047D02*
X1414Y2047D01*
X1463Y2047D02*
X1514Y2047D01*
X763Y2046D02*
X814Y2046D01*
X863Y2046D02*
X914Y2046D01*
X963Y2046D02*
X1014Y2046D01*
X1063Y2046D02*
X1114Y2046D01*
X1163Y2046D02*
X1214Y2046D01*
X1263Y2046D02*
X1314Y2046D01*
X1363Y2046D02*
X1414Y2046D01*
X1463Y2046D02*
X1514Y2046D01*
X763Y2045D02*
X784Y2045D01*
X793Y2045D02*
X814Y2045D01*
X863Y2045D02*
X884Y2045D01*
X893Y2045D02*
X914Y2045D01*
X963Y2045D02*
X984Y2045D01*
X993Y2045D02*
X1014Y2045D01*
X1063Y2045D02*
X1084Y2045D01*
X1093Y2045D02*
X1114Y2045D01*
X1163Y2045D02*
X1184Y2045D01*
X1193Y2045D02*
X1214Y2045D01*
X1263Y2045D02*
X1284Y2045D01*
X1293Y2045D02*
X1314Y2045D01*
X1363Y2045D02*
X1384Y2045D01*
X1393Y2045D02*
X1414Y2045D01*
X1463Y2045D02*
X1484Y2045D01*
X1493Y2045D02*
X1514Y2045D01*
X763Y2044D02*
X781Y2044D01*
X796Y2044D02*
X814Y2044D01*
X863Y2044D02*
X881Y2044D01*
X896Y2044D02*
X914Y2044D01*
X963Y2044D02*
X981Y2044D01*
X996Y2044D02*
X1014Y2044D01*
X1063Y2044D02*
X1081Y2044D01*
X1096Y2044D02*
X1114Y2044D01*
X1163Y2044D02*
X1181Y2044D01*
X1196Y2044D02*
X1214Y2044D01*
X1263Y2044D02*
X1281Y2044D01*
X1296Y2044D02*
X1314Y2044D01*
X1363Y2044D02*
X1381Y2044D01*
X1396Y2044D02*
X1414Y2044D01*
X1463Y2044D02*
X1481Y2044D01*
X1496Y2044D02*
X1514Y2044D01*
X763Y2043D02*
X779Y2043D01*
X798Y2043D02*
X814Y2043D01*
X863Y2043D02*
X879Y2043D01*
X898Y2043D02*
X914Y2043D01*
X963Y2043D02*
X979Y2043D01*
X998Y2043D02*
X1014Y2043D01*
X1063Y2043D02*
X1079Y2043D01*
X1098Y2043D02*
X1114Y2043D01*
X1163Y2043D02*
X1179Y2043D01*
X1198Y2043D02*
X1214Y2043D01*
X1263Y2043D02*
X1279Y2043D01*
X1298Y2043D02*
X1314Y2043D01*
X1363Y2043D02*
X1379Y2043D01*
X1398Y2043D02*
X1414Y2043D01*
X1463Y2043D02*
X1479Y2043D01*
X1498Y2043D02*
X1514Y2043D01*
X763Y2042D02*
X778Y2042D01*
X799Y2042D02*
X814Y2042D01*
X863Y2042D02*
X878Y2042D01*
X899Y2042D02*
X914Y2042D01*
X963Y2042D02*
X978Y2042D01*
X999Y2042D02*
X1014Y2042D01*
X1063Y2042D02*
X1078Y2042D01*
X1099Y2042D02*
X1114Y2042D01*
X1163Y2042D02*
X1178Y2042D01*
X1199Y2042D02*
X1214Y2042D01*
X1263Y2042D02*
X1278Y2042D01*
X1299Y2042D02*
X1314Y2042D01*
X1363Y2042D02*
X1378Y2042D01*
X1399Y2042D02*
X1414Y2042D01*
X1463Y2042D02*
X1478Y2042D01*
X1499Y2042D02*
X1514Y2042D01*
X763Y2041D02*
X777Y2041D01*
X800Y2041D02*
X814Y2041D01*
X863Y2041D02*
X877Y2041D01*
X900Y2041D02*
X914Y2041D01*
X963Y2041D02*
X977Y2041D01*
X1000Y2041D02*
X1014Y2041D01*
X1063Y2041D02*
X1077Y2041D01*
X1100Y2041D02*
X1114Y2041D01*
X1163Y2041D02*
X1177Y2041D01*
X1200Y2041D02*
X1214Y2041D01*
X1263Y2041D02*
X1277Y2041D01*
X1300Y2041D02*
X1314Y2041D01*
X1363Y2041D02*
X1377Y2041D01*
X1400Y2041D02*
X1414Y2041D01*
X1463Y2041D02*
X1477Y2041D01*
X1500Y2041D02*
X1514Y2041D01*
X763Y2040D02*
X776Y2040D01*
X801Y2040D02*
X814Y2040D01*
X863Y2040D02*
X876Y2040D01*
X901Y2040D02*
X914Y2040D01*
X963Y2040D02*
X976Y2040D01*
X1001Y2040D02*
X1014Y2040D01*
X1063Y2040D02*
X1076Y2040D01*
X1101Y2040D02*
X1114Y2040D01*
X1163Y2040D02*
X1176Y2040D01*
X1201Y2040D02*
X1214Y2040D01*
X1263Y2040D02*
X1276Y2040D01*
X1301Y2040D02*
X1314Y2040D01*
X1363Y2040D02*
X1376Y2040D01*
X1401Y2040D02*
X1414Y2040D01*
X1463Y2040D02*
X1476Y2040D01*
X1501Y2040D02*
X1514Y2040D01*
X763Y2039D02*
X775Y2039D01*
X802Y2039D02*
X814Y2039D01*
X863Y2039D02*
X875Y2039D01*
X902Y2039D02*
X914Y2039D01*
X963Y2039D02*
X975Y2039D01*
X1002Y2039D02*
X1014Y2039D01*
X1063Y2039D02*
X1075Y2039D01*
X1102Y2039D02*
X1114Y2039D01*
X1163Y2039D02*
X1175Y2039D01*
X1202Y2039D02*
X1214Y2039D01*
X1263Y2039D02*
X1275Y2039D01*
X1302Y2039D02*
X1314Y2039D01*
X1363Y2039D02*
X1375Y2039D01*
X1402Y2039D02*
X1414Y2039D01*
X1463Y2039D02*
X1475Y2039D01*
X1502Y2039D02*
X1514Y2039D01*
X763Y2038D02*
X774Y2038D01*
X803Y2038D02*
X814Y2038D01*
X863Y2038D02*
X874Y2038D01*
X903Y2038D02*
X914Y2038D01*
X963Y2038D02*
X974Y2038D01*
X1003Y2038D02*
X1014Y2038D01*
X1063Y2038D02*
X1074Y2038D01*
X1103Y2038D02*
X1114Y2038D01*
X1163Y2038D02*
X1174Y2038D01*
X1203Y2038D02*
X1214Y2038D01*
X1263Y2038D02*
X1274Y2038D01*
X1303Y2038D02*
X1314Y2038D01*
X1363Y2038D02*
X1374Y2038D01*
X1403Y2038D02*
X1414Y2038D01*
X1463Y2038D02*
X1474Y2038D01*
X1503Y2038D02*
X1514Y2038D01*
X763Y2037D02*
X774Y2037D01*
X803Y2037D02*
X814Y2037D01*
X863Y2037D02*
X874Y2037D01*
X903Y2037D02*
X914Y2037D01*
X963Y2037D02*
X974Y2037D01*
X1003Y2037D02*
X1014Y2037D01*
X1063Y2037D02*
X1074Y2037D01*
X1103Y2037D02*
X1114Y2037D01*
X1163Y2037D02*
X1174Y2037D01*
X1203Y2037D02*
X1214Y2037D01*
X1263Y2037D02*
X1274Y2037D01*
X1303Y2037D02*
X1314Y2037D01*
X1363Y2037D02*
X1374Y2037D01*
X1403Y2037D02*
X1414Y2037D01*
X1463Y2037D02*
X1474Y2037D01*
X1503Y2037D02*
X1514Y2037D01*
X763Y2036D02*
X773Y2036D01*
X804Y2036D02*
X814Y2036D01*
X863Y2036D02*
X873Y2036D01*
X904Y2036D02*
X914Y2036D01*
X963Y2036D02*
X973Y2036D01*
X1004Y2036D02*
X1014Y2036D01*
X1063Y2036D02*
X1073Y2036D01*
X1104Y2036D02*
X1114Y2036D01*
X1163Y2036D02*
X1173Y2036D01*
X1204Y2036D02*
X1214Y2036D01*
X1263Y2036D02*
X1273Y2036D01*
X1304Y2036D02*
X1314Y2036D01*
X1363Y2036D02*
X1373Y2036D01*
X1404Y2036D02*
X1414Y2036D01*
X1463Y2036D02*
X1473Y2036D01*
X1504Y2036D02*
X1514Y2036D01*
X763Y2035D02*
X773Y2035D01*
X804Y2035D02*
X814Y2035D01*
X863Y2035D02*
X873Y2035D01*
X904Y2035D02*
X914Y2035D01*
X963Y2035D02*
X973Y2035D01*
X1004Y2035D02*
X1014Y2035D01*
X1063Y2035D02*
X1073Y2035D01*
X1104Y2035D02*
X1114Y2035D01*
X1163Y2035D02*
X1173Y2035D01*
X1204Y2035D02*
X1214Y2035D01*
X1263Y2035D02*
X1273Y2035D01*
X1304Y2035D02*
X1314Y2035D01*
X1363Y2035D02*
X1373Y2035D01*
X1404Y2035D02*
X1414Y2035D01*
X1463Y2035D02*
X1473Y2035D01*
X1504Y2035D02*
X1514Y2035D01*
X763Y2034D02*
X773Y2034D01*
X804Y2034D02*
X814Y2034D01*
X863Y2034D02*
X873Y2034D01*
X904Y2034D02*
X914Y2034D01*
X963Y2034D02*
X973Y2034D01*
X1004Y2034D02*
X1014Y2034D01*
X1063Y2034D02*
X1073Y2034D01*
X1104Y2034D02*
X1114Y2034D01*
X1163Y2034D02*
X1173Y2034D01*
X1204Y2034D02*
X1214Y2034D01*
X1263Y2034D02*
X1273Y2034D01*
X1304Y2034D02*
X1314Y2034D01*
X1363Y2034D02*
X1373Y2034D01*
X1404Y2034D02*
X1414Y2034D01*
X1463Y2034D02*
X1473Y2034D01*
X1504Y2034D02*
X1514Y2034D01*
X763Y2033D02*
X772Y2033D01*
X805Y2033D02*
X814Y2033D01*
X863Y2033D02*
X872Y2033D01*
X905Y2033D02*
X914Y2033D01*
X963Y2033D02*
X972Y2033D01*
X1005Y2033D02*
X1014Y2033D01*
X1063Y2033D02*
X1072Y2033D01*
X1105Y2033D02*
X1114Y2033D01*
X1163Y2033D02*
X1172Y2033D01*
X1205Y2033D02*
X1214Y2033D01*
X1263Y2033D02*
X1272Y2033D01*
X1305Y2033D02*
X1314Y2033D01*
X1363Y2033D02*
X1372Y2033D01*
X1405Y2033D02*
X1414Y2033D01*
X1463Y2033D02*
X1472Y2033D01*
X1505Y2033D02*
X1514Y2033D01*
X763Y2032D02*
X772Y2032D01*
X805Y2032D02*
X814Y2032D01*
X863Y2032D02*
X872Y2032D01*
X905Y2032D02*
X914Y2032D01*
X963Y2032D02*
X972Y2032D01*
X1005Y2032D02*
X1014Y2032D01*
X1063Y2032D02*
X1072Y2032D01*
X1105Y2032D02*
X1114Y2032D01*
X1163Y2032D02*
X1172Y2032D01*
X1205Y2032D02*
X1214Y2032D01*
X1263Y2032D02*
X1272Y2032D01*
X1305Y2032D02*
X1314Y2032D01*
X1363Y2032D02*
X1372Y2032D01*
X1405Y2032D02*
X1414Y2032D01*
X1463Y2032D02*
X1472Y2032D01*
X1505Y2032D02*
X1514Y2032D01*
X763Y2031D02*
X772Y2031D01*
X805Y2031D02*
X814Y2031D01*
X863Y2031D02*
X872Y2031D01*
X905Y2031D02*
X914Y2031D01*
X963Y2031D02*
X972Y2031D01*
X1005Y2031D02*
X1014Y2031D01*
X1063Y2031D02*
X1072Y2031D01*
X1105Y2031D02*
X1114Y2031D01*
X1163Y2031D02*
X1172Y2031D01*
X1205Y2031D02*
X1214Y2031D01*
X1263Y2031D02*
X1272Y2031D01*
X1305Y2031D02*
X1314Y2031D01*
X1363Y2031D02*
X1372Y2031D01*
X1405Y2031D02*
X1414Y2031D01*
X1463Y2031D02*
X1472Y2031D01*
X1505Y2031D02*
X1514Y2031D01*
X763Y2030D02*
X772Y2030D01*
X805Y2030D02*
X814Y2030D01*
X863Y2030D02*
X872Y2030D01*
X905Y2030D02*
X914Y2030D01*
X963Y2030D02*
X972Y2030D01*
X1005Y2030D02*
X1014Y2030D01*
X1063Y2030D02*
X1072Y2030D01*
X1105Y2030D02*
X1114Y2030D01*
X1163Y2030D02*
X1172Y2030D01*
X1205Y2030D02*
X1214Y2030D01*
X1263Y2030D02*
X1272Y2030D01*
X1305Y2030D02*
X1314Y2030D01*
X1363Y2030D02*
X1372Y2030D01*
X1405Y2030D02*
X1414Y2030D01*
X1463Y2030D02*
X1472Y2030D01*
X1505Y2030D02*
X1514Y2030D01*
X763Y2029D02*
X772Y2029D01*
X805Y2029D02*
X814Y2029D01*
X863Y2029D02*
X872Y2029D01*
X905Y2029D02*
X914Y2029D01*
X963Y2029D02*
X972Y2029D01*
X1005Y2029D02*
X1014Y2029D01*
X1063Y2029D02*
X1072Y2029D01*
X1105Y2029D02*
X1114Y2029D01*
X1163Y2029D02*
X1172Y2029D01*
X1205Y2029D02*
X1214Y2029D01*
X1263Y2029D02*
X1272Y2029D01*
X1305Y2029D02*
X1314Y2029D01*
X1363Y2029D02*
X1372Y2029D01*
X1405Y2029D02*
X1414Y2029D01*
X1463Y2029D02*
X1472Y2029D01*
X1505Y2029D02*
X1514Y2029D01*
X763Y2028D02*
X772Y2028D01*
X805Y2028D02*
X814Y2028D01*
X863Y2028D02*
X872Y2028D01*
X905Y2028D02*
X914Y2028D01*
X963Y2028D02*
X972Y2028D01*
X1005Y2028D02*
X1014Y2028D01*
X1063Y2028D02*
X1072Y2028D01*
X1105Y2028D02*
X1114Y2028D01*
X1163Y2028D02*
X1172Y2028D01*
X1205Y2028D02*
X1214Y2028D01*
X1263Y2028D02*
X1272Y2028D01*
X1305Y2028D02*
X1314Y2028D01*
X1363Y2028D02*
X1372Y2028D01*
X1405Y2028D02*
X1414Y2028D01*
X1463Y2028D02*
X1472Y2028D01*
X1505Y2028D02*
X1514Y2028D01*
X763Y2027D02*
X772Y2027D01*
X805Y2027D02*
X814Y2027D01*
X863Y2027D02*
X872Y2027D01*
X905Y2027D02*
X914Y2027D01*
X963Y2027D02*
X972Y2027D01*
X1005Y2027D02*
X1014Y2027D01*
X1063Y2027D02*
X1072Y2027D01*
X1105Y2027D02*
X1114Y2027D01*
X1163Y2027D02*
X1172Y2027D01*
X1205Y2027D02*
X1214Y2027D01*
X1263Y2027D02*
X1272Y2027D01*
X1305Y2027D02*
X1314Y2027D01*
X1363Y2027D02*
X1372Y2027D01*
X1405Y2027D02*
X1414Y2027D01*
X1463Y2027D02*
X1472Y2027D01*
X1505Y2027D02*
X1514Y2027D01*
X763Y2026D02*
X773Y2026D01*
X805Y2026D02*
X814Y2026D01*
X863Y2026D02*
X873Y2026D01*
X905Y2026D02*
X914Y2026D01*
X963Y2026D02*
X972Y2026D01*
X1005Y2026D02*
X1014Y2026D01*
X1063Y2026D02*
X1072Y2026D01*
X1105Y2026D02*
X1114Y2026D01*
X1163Y2026D02*
X1172Y2026D01*
X1205Y2026D02*
X1214Y2026D01*
X1263Y2026D02*
X1272Y2026D01*
X1305Y2026D02*
X1314Y2026D01*
X1363Y2026D02*
X1372Y2026D01*
X1405Y2026D02*
X1414Y2026D01*
X1463Y2026D02*
X1472Y2026D01*
X1505Y2026D02*
X1514Y2026D01*
X763Y2025D02*
X773Y2025D01*
X804Y2025D02*
X814Y2025D01*
X863Y2025D02*
X873Y2025D01*
X904Y2025D02*
X914Y2025D01*
X963Y2025D02*
X973Y2025D01*
X1004Y2025D02*
X1014Y2025D01*
X1063Y2025D02*
X1073Y2025D01*
X1104Y2025D02*
X1114Y2025D01*
X1163Y2025D02*
X1173Y2025D01*
X1204Y2025D02*
X1214Y2025D01*
X1263Y2025D02*
X1273Y2025D01*
X1304Y2025D02*
X1314Y2025D01*
X1363Y2025D02*
X1373Y2025D01*
X1404Y2025D02*
X1414Y2025D01*
X1463Y2025D02*
X1473Y2025D01*
X1504Y2025D02*
X1514Y2025D01*
X763Y2024D02*
X773Y2024D01*
X804Y2024D02*
X814Y2024D01*
X863Y2024D02*
X873Y2024D01*
X904Y2024D02*
X914Y2024D01*
X963Y2024D02*
X973Y2024D01*
X1004Y2024D02*
X1014Y2024D01*
X1063Y2024D02*
X1073Y2024D01*
X1104Y2024D02*
X1114Y2024D01*
X1163Y2024D02*
X1173Y2024D01*
X1204Y2024D02*
X1214Y2024D01*
X1263Y2024D02*
X1273Y2024D01*
X1304Y2024D02*
X1314Y2024D01*
X1363Y2024D02*
X1373Y2024D01*
X1404Y2024D02*
X1414Y2024D01*
X1463Y2024D02*
X1473Y2024D01*
X1504Y2024D02*
X1514Y2024D01*
X763Y2023D02*
X774Y2023D01*
X804Y2023D02*
X814Y2023D01*
X863Y2023D02*
X874Y2023D01*
X904Y2023D02*
X914Y2023D01*
X963Y2023D02*
X974Y2023D01*
X1004Y2023D02*
X1014Y2023D01*
X1063Y2023D02*
X1074Y2023D01*
X1104Y2023D02*
X1114Y2023D01*
X1163Y2023D02*
X1174Y2023D01*
X1204Y2023D02*
X1214Y2023D01*
X1263Y2023D02*
X1274Y2023D01*
X1304Y2023D02*
X1314Y2023D01*
X1363Y2023D02*
X1374Y2023D01*
X1404Y2023D02*
X1414Y2023D01*
X1463Y2023D02*
X1473Y2023D01*
X1503Y2023D02*
X1514Y2023D01*
X763Y2022D02*
X774Y2022D01*
X803Y2022D02*
X814Y2022D01*
X863Y2022D02*
X874Y2022D01*
X903Y2022D02*
X914Y2022D01*
X963Y2022D02*
X974Y2022D01*
X1003Y2022D02*
X1014Y2022D01*
X1063Y2022D02*
X1074Y2022D01*
X1103Y2022D02*
X1114Y2022D01*
X1163Y2022D02*
X1174Y2022D01*
X1203Y2022D02*
X1214Y2022D01*
X1263Y2022D02*
X1274Y2022D01*
X1303Y2022D02*
X1314Y2022D01*
X1363Y2022D02*
X1374Y2022D01*
X1403Y2022D02*
X1414Y2022D01*
X1463Y2022D02*
X1474Y2022D01*
X1503Y2022D02*
X1514Y2022D01*
X763Y2021D02*
X775Y2021D01*
X802Y2021D02*
X814Y2021D01*
X863Y2021D02*
X875Y2021D01*
X902Y2021D02*
X914Y2021D01*
X963Y2021D02*
X975Y2021D01*
X1002Y2021D02*
X1014Y2021D01*
X1063Y2021D02*
X1075Y2021D01*
X1102Y2021D02*
X1114Y2021D01*
X1163Y2021D02*
X1175Y2021D01*
X1202Y2021D02*
X1214Y2021D01*
X1263Y2021D02*
X1275Y2021D01*
X1302Y2021D02*
X1314Y2021D01*
X1363Y2021D02*
X1375Y2021D01*
X1402Y2021D02*
X1414Y2021D01*
X1463Y2021D02*
X1475Y2021D01*
X1502Y2021D02*
X1514Y2021D01*
X763Y2020D02*
X775Y2020D01*
X802Y2020D02*
X814Y2020D01*
X863Y2020D02*
X875Y2020D01*
X902Y2020D02*
X914Y2020D01*
X963Y2020D02*
X975Y2020D01*
X1002Y2020D02*
X1014Y2020D01*
X1063Y2020D02*
X1075Y2020D01*
X1102Y2020D02*
X1114Y2020D01*
X1163Y2020D02*
X1175Y2020D01*
X1202Y2020D02*
X1214Y2020D01*
X1263Y2020D02*
X1275Y2020D01*
X1302Y2020D02*
X1314Y2020D01*
X1363Y2020D02*
X1375Y2020D01*
X1402Y2020D02*
X1414Y2020D01*
X1463Y2020D02*
X1475Y2020D01*
X1502Y2020D02*
X1514Y2020D01*
X763Y2019D02*
X776Y2019D01*
X801Y2019D02*
X814Y2019D01*
X863Y2019D02*
X876Y2019D01*
X901Y2019D02*
X914Y2019D01*
X963Y2019D02*
X976Y2019D01*
X1001Y2019D02*
X1014Y2019D01*
X1063Y2019D02*
X1076Y2019D01*
X1101Y2019D02*
X1114Y2019D01*
X1163Y2019D02*
X1176Y2019D01*
X1201Y2019D02*
X1214Y2019D01*
X1263Y2019D02*
X1276Y2019D01*
X1301Y2019D02*
X1314Y2019D01*
X1363Y2019D02*
X1376Y2019D01*
X1401Y2019D02*
X1414Y2019D01*
X1463Y2019D02*
X1476Y2019D01*
X1501Y2019D02*
X1514Y2019D01*
X763Y2018D02*
X777Y2018D01*
X800Y2018D02*
X814Y2018D01*
X863Y2018D02*
X877Y2018D01*
X900Y2018D02*
X914Y2018D01*
X963Y2018D02*
X977Y2018D01*
X1000Y2018D02*
X1014Y2018D01*
X1063Y2018D02*
X1077Y2018D01*
X1100Y2018D02*
X1114Y2018D01*
X1163Y2018D02*
X1177Y2018D01*
X1200Y2018D02*
X1214Y2018D01*
X1263Y2018D02*
X1277Y2018D01*
X1300Y2018D02*
X1314Y2018D01*
X1363Y2018D02*
X1377Y2018D01*
X1400Y2018D02*
X1414Y2018D01*
X1463Y2018D02*
X1477Y2018D01*
X1500Y2018D02*
X1514Y2018D01*
X763Y2017D02*
X778Y2017D01*
X799Y2017D02*
X814Y2017D01*
X863Y2017D02*
X878Y2017D01*
X899Y2017D02*
X914Y2017D01*
X963Y2017D02*
X978Y2017D01*
X999Y2017D02*
X1014Y2017D01*
X1063Y2017D02*
X1078Y2017D01*
X1099Y2017D02*
X1114Y2017D01*
X1163Y2017D02*
X1178Y2017D01*
X1199Y2017D02*
X1214Y2017D01*
X1263Y2017D02*
X1278Y2017D01*
X1299Y2017D02*
X1314Y2017D01*
X1363Y2017D02*
X1378Y2017D01*
X1399Y2017D02*
X1414Y2017D01*
X1463Y2017D02*
X1478Y2017D01*
X1499Y2017D02*
X1514Y2017D01*
X763Y2016D02*
X780Y2016D01*
X797Y2016D02*
X814Y2016D01*
X863Y2016D02*
X880Y2016D01*
X897Y2016D02*
X914Y2016D01*
X963Y2016D02*
X980Y2016D01*
X997Y2016D02*
X1014Y2016D01*
X1063Y2016D02*
X1080Y2016D01*
X1097Y2016D02*
X1114Y2016D01*
X1163Y2016D02*
X1180Y2016D01*
X1197Y2016D02*
X1214Y2016D01*
X1263Y2016D02*
X1280Y2016D01*
X1297Y2016D02*
X1314Y2016D01*
X1363Y2016D02*
X1380Y2016D01*
X1397Y2016D02*
X1414Y2016D01*
X1463Y2016D02*
X1480Y2016D01*
X1497Y2016D02*
X1514Y2016D01*
X763Y2015D02*
X782Y2015D01*
X795Y2015D02*
X814Y2015D01*
X863Y2015D02*
X882Y2015D01*
X895Y2015D02*
X914Y2015D01*
X963Y2015D02*
X982Y2015D01*
X995Y2015D02*
X1014Y2015D01*
X1063Y2015D02*
X1082Y2015D01*
X1095Y2015D02*
X1114Y2015D01*
X1163Y2015D02*
X1182Y2015D01*
X1195Y2015D02*
X1214Y2015D01*
X1263Y2015D02*
X1282Y2015D01*
X1295Y2015D02*
X1314Y2015D01*
X1363Y2015D02*
X1382Y2015D01*
X1395Y2015D02*
X1414Y2015D01*
X1463Y2015D02*
X1482Y2015D01*
X1495Y2015D02*
X1514Y2015D01*
X763Y2014D02*
X785Y2014D01*
X792Y2014D02*
X814Y2014D01*
X863Y2014D02*
X885Y2014D01*
X892Y2014D02*
X914Y2014D01*
X963Y2014D02*
X985Y2014D01*
X992Y2014D02*
X1014Y2014D01*
X1063Y2014D02*
X1085Y2014D01*
X1092Y2014D02*
X1114Y2014D01*
X1163Y2014D02*
X1185Y2014D01*
X1192Y2014D02*
X1214Y2014D01*
X1263Y2014D02*
X1285Y2014D01*
X1292Y2014D02*
X1314Y2014D01*
X1363Y2014D02*
X1385Y2014D01*
X1392Y2014D02*
X1414Y2014D01*
X1463Y2014D02*
X1485Y2014D01*
X1492Y2014D02*
X1514Y2014D01*
X763Y2013D02*
X814Y2013D01*
X863Y2013D02*
X914Y2013D01*
X963Y2013D02*
X1014Y2013D01*
X1063Y2013D02*
X1114Y2013D01*
X1163Y2013D02*
X1214Y2013D01*
X1263Y2013D02*
X1314Y2013D01*
X1363Y2013D02*
X1414Y2013D01*
X1463Y2013D02*
X1514Y2013D01*
X763Y2012D02*
X814Y2012D01*
X863Y2012D02*
X914Y2012D01*
X963Y2012D02*
X1014Y2012D01*
X1063Y2012D02*
X1114Y2012D01*
X1163Y2012D02*
X1214Y2012D01*
X1263Y2012D02*
X1314Y2012D01*
X1363Y2012D02*
X1414Y2012D01*
X1463Y2012D02*
X1514Y2012D01*
X763Y2011D02*
X814Y2011D01*
X863Y2011D02*
X914Y2011D01*
X963Y2011D02*
X1014Y2011D01*
X1063Y2011D02*
X1114Y2011D01*
X1163Y2011D02*
X1214Y2011D01*
X1263Y2011D02*
X1314Y2011D01*
X1363Y2011D02*
X1414Y2011D01*
X1463Y2011D02*
X1514Y2011D01*
X763Y2010D02*
X814Y2010D01*
X863Y2010D02*
X914Y2010D01*
X963Y2010D02*
X1014Y2010D01*
X1063Y2010D02*
X1114Y2010D01*
X1163Y2010D02*
X1214Y2010D01*
X1263Y2010D02*
X1314Y2010D01*
X1363Y2010D02*
X1414Y2010D01*
X1463Y2010D02*
X1514Y2010D01*
X763Y2009D02*
X814Y2009D01*
X863Y2009D02*
X914Y2009D01*
X963Y2009D02*
X1014Y2009D01*
X1063Y2009D02*
X1114Y2009D01*
X1163Y2009D02*
X1214Y2009D01*
X1263Y2009D02*
X1314Y2009D01*
X1363Y2009D02*
X1414Y2009D01*
X1463Y2009D02*
X1514Y2009D01*
X763Y2008D02*
X814Y2008D01*
X863Y2008D02*
X914Y2008D01*
X963Y2008D02*
X1014Y2008D01*
X1063Y2008D02*
X1114Y2008D01*
X1163Y2008D02*
X1214Y2008D01*
X1263Y2008D02*
X1314Y2008D01*
X1363Y2008D02*
X1414Y2008D01*
X1463Y2008D02*
X1514Y2008D01*
X763Y2007D02*
X814Y2007D01*
X863Y2007D02*
X914Y2007D01*
X963Y2007D02*
X1014Y2007D01*
X1063Y2007D02*
X1114Y2007D01*
X1163Y2007D02*
X1214Y2007D01*
X1263Y2007D02*
X1314Y2007D01*
X1363Y2007D02*
X1414Y2007D01*
X1463Y2007D02*
X1514Y2007D01*
X763Y2006D02*
X814Y2006D01*
X863Y2006D02*
X914Y2006D01*
X963Y2006D02*
X1014Y2006D01*
X1063Y2006D02*
X1114Y2006D01*
X1163Y2006D02*
X1214Y2006D01*
X1263Y2006D02*
X1314Y2006D01*
X1363Y2006D02*
X1414Y2006D01*
X1463Y2006D02*
X1514Y2006D01*
X763Y2005D02*
X814Y2005D01*
X863Y2005D02*
X914Y2005D01*
X963Y2005D02*
X1014Y2005D01*
X1063Y2005D02*
X1114Y2005D01*
X1163Y2005D02*
X1214Y2005D01*
X1263Y2005D02*
X1314Y2005D01*
X1363Y2005D02*
X1414Y2005D01*
X1463Y2005D02*
X1514Y2005D01*
X763Y2004D02*
X814Y2004D01*
X863Y2004D02*
X914Y2004D01*
X963Y2004D02*
X1014Y2004D01*
X1063Y2004D02*
X1114Y2004D01*
X1163Y2004D02*
X1214Y2004D01*
X1263Y2004D02*
X1314Y2004D01*
X1363Y2004D02*
X1414Y2004D01*
X1463Y2004D02*
X1514Y2004D01*
X763Y2003D02*
X814Y2003D01*
X863Y2003D02*
X914Y2003D01*
X963Y2003D02*
X1014Y2003D01*
X1063Y2003D02*
X1114Y2003D01*
X1163Y2003D02*
X1214Y2003D01*
X1263Y2003D02*
X1314Y2003D01*
X1363Y2003D02*
X1414Y2003D01*
X1463Y2003D02*
X1514Y2003D01*
X763Y2002D02*
X814Y2002D01*
X863Y2002D02*
X914Y2002D01*
X963Y2002D02*
X1014Y2002D01*
X1063Y2002D02*
X1114Y2002D01*
X1163Y2002D02*
X1214Y2002D01*
X1263Y2002D02*
X1314Y2002D01*
X1363Y2002D02*
X1414Y2002D01*
X1463Y2002D02*
X1514Y2002D01*
X763Y2001D02*
X814Y2001D01*
X863Y2001D02*
X914Y2001D01*
X963Y2001D02*
X1014Y2001D01*
X1063Y2001D02*
X1114Y2001D01*
X1163Y2001D02*
X1214Y2001D01*
X1263Y2001D02*
X1314Y2001D01*
X1363Y2001D02*
X1414Y2001D01*
X1463Y2001D02*
X1514Y2001D01*
X763Y2000D02*
X814Y2000D01*
X863Y2000D02*
X914Y2000D01*
X963Y2000D02*
X1014Y2000D01*
X1063Y2000D02*
X1114Y2000D01*
X1163Y2000D02*
X1214Y2000D01*
X1263Y2000D02*
X1314Y2000D01*
X1363Y2000D02*
X1414Y2000D01*
X1463Y2000D02*
X1514Y2000D01*
X763Y1999D02*
X814Y1999D01*
X863Y1999D02*
X914Y1999D01*
X963Y1999D02*
X1014Y1999D01*
X1063Y1999D02*
X1114Y1999D01*
X1163Y1999D02*
X1214Y1999D01*
X1263Y1999D02*
X1314Y1999D01*
X1363Y1999D02*
X1414Y1999D01*
X1463Y1999D02*
X1514Y1999D01*
X764Y1998D02*
X813Y1998D01*
X864Y1998D02*
X913Y1998D01*
X964Y1998D02*
X1013Y1998D01*
X1064Y1998D02*
X1113Y1998D01*
X1164Y1998D02*
X1213Y1998D01*
X1264Y1998D02*
X1313Y1998D01*
X1364Y1998D02*
X1413Y1998D01*
X1464Y1998D02*
X1513Y1998D01*
X764Y1997D02*
X813Y1997D01*
X864Y1997D02*
X913Y1997D01*
X964Y1997D02*
X1013Y1997D01*
X1064Y1997D02*
X1113Y1997D01*
X1164Y1997D02*
X1213Y1997D01*
X1264Y1997D02*
X1313Y1997D01*
X1364Y1997D02*
X1413Y1997D01*
X1464Y1997D02*
X1513Y1997D01*
X764Y1996D02*
X813Y1996D01*
X864Y1996D02*
X913Y1996D01*
X964Y1996D02*
X1013Y1996D01*
X1064Y1996D02*
X1113Y1996D01*
X1164Y1996D02*
X1213Y1996D01*
X1264Y1996D02*
X1313Y1996D01*
X1364Y1996D02*
X1413Y1996D01*
X1464Y1996D02*
X1513Y1996D01*
X765Y1995D02*
X813Y1995D01*
X865Y1995D02*
X913Y1995D01*
X965Y1995D02*
X1013Y1995D01*
X1065Y1995D02*
X1113Y1995D01*
X1165Y1995D02*
X1213Y1995D01*
X1265Y1995D02*
X1313Y1995D01*
X1365Y1995D02*
X1412Y1995D01*
X1465Y1995D02*
X1512Y1995D01*
X765Y1994D02*
X812Y1994D01*
X865Y1994D02*
X912Y1994D01*
X965Y1994D02*
X1012Y1994D01*
X1065Y1994D02*
X1112Y1994D01*
X1165Y1994D02*
X1212Y1994D01*
X1265Y1994D02*
X1312Y1994D01*
X1365Y1994D02*
X1412Y1994D01*
X1465Y1994D02*
X1512Y1994D01*
X765Y1993D02*
X812Y1993D01*
X865Y1993D02*
X912Y1993D01*
X965Y1993D02*
X1012Y1993D01*
X1065Y1993D02*
X1112Y1993D01*
X1165Y1993D02*
X1212Y1993D01*
X1265Y1993D02*
X1312Y1993D01*
X1365Y1993D02*
X1412Y1993D01*
X1465Y1993D02*
X1512Y1993D01*
X766Y1992D02*
X811Y1992D01*
X866Y1992D02*
X911Y1992D01*
X966Y1992D02*
X1011Y1992D01*
X1066Y1992D02*
X1111Y1992D01*
X1166Y1992D02*
X1211Y1992D01*
X1266Y1992D02*
X1311Y1992D01*
X1366Y1992D02*
X1411Y1992D01*
X1466Y1992D02*
X1511Y1992D01*
X766Y1991D02*
X811Y1991D01*
X866Y1991D02*
X911Y1991D01*
X966Y1991D02*
X1011Y1991D01*
X1066Y1991D02*
X1111Y1991D01*
X1166Y1991D02*
X1211Y1991D01*
X1266Y1991D02*
X1311Y1991D01*
X1366Y1991D02*
X1411Y1991D01*
X1466Y1991D02*
X1511Y1991D01*
X767Y1990D02*
X810Y1990D01*
X867Y1990D02*
X910Y1990D01*
X967Y1990D02*
X1010Y1990D01*
X1067Y1990D02*
X1110Y1990D01*
X1167Y1990D02*
X1210Y1990D01*
X1267Y1990D02*
X1310Y1990D01*
X1367Y1990D02*
X1410Y1990D01*
X1467Y1990D02*
X1510Y1990D01*
X768Y1989D02*
X809Y1989D01*
X868Y1989D02*
X909Y1989D01*
X968Y1989D02*
X1009Y1989D01*
X1068Y1989D02*
X1109Y1989D01*
X1168Y1989D02*
X1209Y1989D01*
X1268Y1989D02*
X1309Y1989D01*
X1368Y1989D02*
X1409Y1989D01*
X1468Y1989D02*
X1509Y1989D01*
X768Y1988D02*
X809Y1988D01*
X868Y1988D02*
X909Y1988D01*
X968Y1988D02*
X1009Y1988D01*
X1068Y1988D02*
X1109Y1988D01*
X1168Y1988D02*
X1209Y1988D01*
X1268Y1988D02*
X1309Y1988D01*
X1368Y1988D02*
X1409Y1988D01*
X1468Y1988D02*
X1509Y1988D01*
X769Y1987D02*
X808Y1987D01*
X869Y1987D02*
X908Y1987D01*
X969Y1987D02*
X1008Y1987D01*
X1069Y1987D02*
X1108Y1987D01*
X1169Y1987D02*
X1208Y1987D01*
X1269Y1987D02*
X1308Y1987D01*
X1369Y1987D02*
X1408Y1987D01*
X1469Y1987D02*
X1508Y1987D01*
X770Y1986D02*
X807Y1986D01*
X870Y1986D02*
X907Y1986D01*
X970Y1986D02*
X1007Y1986D01*
X1070Y1986D02*
X1107Y1986D01*
X1170Y1986D02*
X1207Y1986D01*
X1270Y1986D02*
X1307Y1986D01*
X1370Y1986D02*
X1407Y1986D01*
X1470Y1986D02*
X1507Y1986D01*
X771Y1985D02*
X806Y1985D01*
X871Y1985D02*
X906Y1985D01*
X971Y1985D02*
X1006Y1985D01*
X1071Y1985D02*
X1106Y1985D01*
X1171Y1985D02*
X1206Y1985D01*
X1271Y1985D02*
X1306Y1985D01*
X1371Y1985D02*
X1406Y1985D01*
X1471Y1985D02*
X1506Y1985D01*
X772Y1984D02*
X805Y1984D01*
X872Y1984D02*
X905Y1984D01*
X972Y1984D02*
X1005Y1984D01*
X1072Y1984D02*
X1105Y1984D01*
X1172Y1984D02*
X1205Y1984D01*
X1272Y1984D02*
X1305Y1984D01*
X1372Y1984D02*
X1405Y1984D01*
X1472Y1984D02*
X1505Y1984D01*
X773Y1983D02*
X804Y1983D01*
X873Y1983D02*
X904Y1983D01*
X973Y1983D02*
X1004Y1983D01*
X1073Y1983D02*
X1104Y1983D01*
X1173Y1983D02*
X1204Y1983D01*
X1273Y1983D02*
X1304Y1983D01*
X1373Y1983D02*
X1404Y1983D01*
X1473Y1983D02*
X1504Y1983D01*
X775Y1982D02*
X802Y1982D01*
X875Y1982D02*
X902Y1982D01*
X975Y1982D02*
X1002Y1982D01*
X1075Y1982D02*
X1102Y1982D01*
X1175Y1982D02*
X1202Y1982D01*
X1275Y1982D02*
X1302Y1982D01*
X1375Y1982D02*
X1402Y1982D01*
X1475Y1982D02*
X1502Y1982D01*
X777Y1981D02*
X801Y1981D01*
X877Y1981D02*
X901Y1981D01*
X977Y1981D02*
X1001Y1981D01*
X1077Y1981D02*
X1101Y1981D01*
X1177Y1981D02*
X1201Y1981D01*
X1277Y1981D02*
X1301Y1981D01*
X1376Y1981D02*
X1400Y1981D01*
X1476Y1981D02*
X1500Y1981D01*
X778Y1980D02*
X799Y1980D01*
X878Y1980D02*
X899Y1980D01*
X978Y1980D02*
X999Y1980D01*
X1078Y1980D02*
X1099Y1980D01*
X1178Y1980D02*
X1199Y1980D01*
X1278Y1980D02*
X1299Y1980D01*
X1378Y1980D02*
X1399Y1980D01*
X1478Y1980D02*
X1499Y1980D01*
X781Y1979D02*
X796Y1979D01*
X881Y1979D02*
X896Y1979D01*
X981Y1979D02*
X996Y1979D01*
X1081Y1979D02*
X1096Y1979D01*
X1181Y1979D02*
X1196Y1979D01*
X1281Y1979D02*
X1296Y1979D01*
X1381Y1979D02*
X1396Y1979D01*
X1481Y1979D02*
X1496Y1979D01*
X785Y1978D02*
X792Y1978D01*
X885Y1978D02*
X892Y1978D01*
X985Y1978D02*
X992Y1978D01*
X1085Y1978D02*
X1092Y1978D01*
X1185Y1978D02*
X1192Y1978D01*
X1285Y1978D02*
X1292Y1978D01*
X1385Y1978D02*
X1392Y1978D01*
X1485Y1978D02*
X1492Y1978D01*
D02*
G04 End of Copper0*
M02*